<svg xmlns="http://www.w3.org/2000/svg" viewBox="0 0 476.47 476.47"><defs><style>.cls-1{fill:#103954;}.cls-2{fill:none;stroke:#f9f8ef;stroke-linejoin:round;stroke-width:3px;}</style></defs><title>casket2</title><g id="Layer_2" data-name="Layer 2"><g id="Layer_1-2" data-name="Layer 1"><circle class="cls-1" cx="238.23" cy="238.23" r="238.23"/><polygon class="cls-2" points="23.92 216.74 127.89 193.86 412 165.04 453.01 178.31 190.58 234.18 52.86 240.53 23.92 216.74"/><polygon class="cls-2" points="23.92 216.74 23.92 226.6 52.76 253.03 52.86 240.53 23.92 216.74"/><polygon class="cls-2" points="52.86 240.53 190.58 234.18 453.01 178.31 452.21 185.57 190.58 245.82 52.76 253.03 52.86 240.53"/><polygon class="cls-2" points="30.45 232.58 40.05 283.57 67.31 311.43 57.17 252.79 52.76 253.03 30.45 232.58"/><polygon class="cls-2" points="57.17 252.79 186.49 246.04 188.23 299.81 67.31 311.43 57.17 252.79"/><polygon class="cls-2" points="186.49 246.04 190.58 245.82 447.49 186.66 437.77 233.08 188.23 299.81 186.49 246.04"/></g></g></svg>