<svg xmlns="http://www.w3.org/2000/svg" viewBox="0 0 693.1 450.97"><defs><style>.cls-1{fill:#f9f8ef;}</style></defs><title>Asset 8</title><g id="Layer_2" data-name="Layer 2"><g id="Layer_1-2" data-name="Layer 1"><path class="cls-1" d="M274.46,213.83a10.59,10.59,0,0,1,2.82.37c.91.24,1.25,1.21,1,2.91a25.91,25.91,0,0,0-.36,4.55v5.09q0,8.19.55,15.29a1.37,1.37,0,0,1-.82,1.19,4.78,4.78,0,0,1-1.91.54,5,5,0,0,1-2.1-.27,1.73,1.73,0,0,1-1.18-1.46,92.2,92.2,0,0,0-2.55-11.1,13.78,13.78,0,0,0-3.55-6.1,11.26,11.26,0,0,0-6.19-2.64,98.68,98.68,0,0,0-10.28-.72H239c-3.16,0-5.67.06-7.55.18A8.51,8.51,0,0,0,227,223a5.91,5.91,0,0,0-2.18,3.73,35.27,35.27,0,0,0-.55,7.1V265.7c0,1.7.3,2.76.91,3.19a3.18,3.18,0,0,0,1.82.63,94,94,0,0,0,13.19-.72,15.7,15.7,0,0,0,7.28-2.64,9.14,9.14,0,0,0,3.28-5,56.86,56.86,0,0,0,1.37-8,2.22,2.22,0,0,1,1.09-1.63,3.91,3.91,0,0,1,4,0,1.77,1.77,0,0,1,.91,1.63q0,2.93-.18,5.19l-.36,4.55c-.13,1.52-.25,3.1-.37,4.73s-.18,3.55-.18,5.74a80.94,80.94,0,0,0,.55,9.92,91.9,91.9,0,0,1,.54,10.82,1.45,1.45,0,0,1-.91,1.37,3.64,3.64,0,0,1-2,.36,5.43,5.43,0,0,1-2-.54,2,2,0,0,1-1.09-1.55,63.4,63.4,0,0,0-1.37-8.55,8.37,8.37,0,0,0-3.28-5,16.45,16.45,0,0,0-7.28-2.36,105,105,0,0,0-13.19-.64,3.13,3.13,0,0,0-1.82.64c-.61.42-.91,1.3-.91,2.63v23.85a51.14,51.14,0,0,0,.82,9.92,20,20,0,0,0,2.46,6.73,13.18,13.18,0,0,0,4,4.19,16.8,16.8,0,0,0,5.64,2.27,46.91,46.91,0,0,0,5.73.82c2.13.18,4.34.27,6.65.27q4.36,0,8.19-.36a25,25,0,0,0,5.82-1.09,41.35,41.35,0,0,0,6.28-2.73,14.18,14.18,0,0,0,4.46-3.83,20,20,0,0,0,3-5.91,49.55,49.55,0,0,0,1.91-9,1.77,1.77,0,0,1,1.28-1.46,7.48,7.48,0,0,1,2.36-.36,4.63,4.63,0,0,1,2.28.55,1.3,1.3,0,0,1,.82,1.45q-.92,7.65-1.64,14.29a99.64,99.64,0,0,0-.55,13.56,3.11,3.11,0,0,1-.72,1.55c-.49.66-1.64,1-3.46,1H213.49q-6.92,0-13.56.36t-11.92.73a2.74,2.74,0,0,1-2.18-.82,3.77,3.77,0,0,1-.91-2,2.89,2.89,0,0,1,.54-2.19,3.23,3.23,0,0,1,2.37-1.18,40.47,40.47,0,0,0,7.46-1.55,13,13,0,0,0,5.1-2.91,11.91,11.91,0,0,0,3-4.82,23.27,23.27,0,0,0,1-7.46V244.23q0-4-.27-7.83a36.54,36.54,0,0,0-1.18-7.1,15.44,15.44,0,0,0-2.83-5.64,9.83,9.83,0,0,0-5.18-3.28c-1.34-.36-2.73-.66-4.19-.91s-2.85-.42-4.18-.54a1.78,1.78,0,0,1-1.64-.91,3.93,3.93,0,0,1,0-4,1.8,1.8,0,0,1,1.64-.91c4.12,0,7.82.13,11.1.37s7.1.36,11.46.36Z"/><path class="cls-1" d="M315.77,243.68q0-7.83-.36-12.47a17.49,17.49,0,0,0-1.82-7.19,7.38,7.38,0,0,0-4.46-3.45,45.51,45.51,0,0,0-8.28-1.46,1.46,1.46,0,0,1-1.37-.91,5.26,5.26,0,0,1-.54-1.82,3.33,3.33,0,0,1,.36-1.82,1.59,1.59,0,0,1,1.55-.91q5.46-.36,13.19-1.09a75.46,75.46,0,0,0,14.47-2.73c1.7-.48,2.82-.39,3.37.27a4.44,4.44,0,0,1,1,2.09V314.11q0,4.56.18,7.65a11.16,11.16,0,0,0,1.37,5.09,7.62,7.62,0,0,0,3.82,3.1,28.74,28.74,0,0,0,7.37,1.64,2.3,2.3,0,0,1,1.64,1,3.38,3.38,0,0,1,.55,1.91,3.11,3.11,0,0,1-.55,1.73,1.85,1.85,0,0,1-1.64.82,86.81,86.81,0,0,1-9.83-.64,95.21,95.21,0,0,0-10.92-.64,103.15,103.15,0,0,0-11.46.64,103.33,103.33,0,0,1-11.47.64,1.67,1.67,0,0,1-1.45-.82,3,3,0,0,1-.55-1.73,3.3,3.3,0,0,1,.55-1.91,2.3,2.3,0,0,1,1.63-1A32.56,32.56,0,0,0,310,330a8.39,8.39,0,0,0,4.1-3,9.58,9.58,0,0,0,1.45-4.74q.18-2.82.18-7Z"/><path class="cls-1" d="M388.3,360.8q2.82-4.83,5.18-9.38t4.1-8.19q1.73-3.63,2.46-5.27a10.33,10.33,0,0,0,.91-3.83,7.28,7.28,0,0,0-.73-3.27q-5.84-12-12.92-26.76t-13.47-29.48q-1.83-4.37-3.28-7.1a20.45,20.45,0,0,0-3-4.37,11.19,11.19,0,0,0-3.55-2.54,21.17,21.17,0,0,0-5.1-1.46,1.91,1.91,0,0,1-1.36-1,3.56,3.56,0,0,1-.46-1.73,2.72,2.72,0,0,1,.55-1.64,1.76,1.76,0,0,1,1.46-.73c3.76,0,7.37.16,10.83.46s6.94.45,10.46.45,7-.15,10.37-.45,6.86-.46,10.38-.46a1.51,1.51,0,0,1,1.36.73,3,3,0,0,1,.46,1.64,3.45,3.45,0,0,1-.46,1.73,1.91,1.91,0,0,1-1.36,1q-5.83.74-8.19,2.18a4.51,4.51,0,0,0-2.37,4,20.16,20.16,0,0,0,1.64,7.64q3.82,10.2,8.37,20.39t9.28,19.29c.37.73.82,1,1.37.91a1.65,1.65,0,0,0,1.18-.91q5.64-11.1,9.92-21.39t7.55-19.74a14.71,14.71,0,0,0,1.28-5.46,5.19,5.19,0,0,0-1-3.28,7,7,0,0,0-2.55-2,14.87,14.87,0,0,0-3.28-1.09c-1.15-.25-2.15-.43-3-.55a2,2,0,0,1-1.55-1,3.54,3.54,0,0,1-.45-1.73,2.71,2.71,0,0,1,.54-1.64,1.76,1.76,0,0,1,1.46-.73,58,58,0,0,1,7.1.46,59.16,59.16,0,0,0,7.28.45,83.36,83.36,0,0,0,8.55-.45c2.91-.3,5.22-.46,6.92-.46a1.51,1.51,0,0,1,1.36.73,3.32,3.32,0,0,1,.46,1.82,3.42,3.42,0,0,1-.46,1.73,1.46,1.46,0,0,1-1.36.82,14.85,14.85,0,0,0-4.55,1.27,8.5,8.5,0,0,0-3.09,2.64,26.6,26.6,0,0,0-2.55,4.37c-.85,1.76-1.82,3.86-2.91,6.28q-5.29,11.46-10.93,24.48t-12,26.66q-5.82,12.75-11.92,25"/><path class="cls-1" d="M491,308.11q0,10.2,2.27,15.1t8.28,4.92a24.35,24.35,0,0,0,7.92-1.28,21.61,21.61,0,0,0,5.73-2.73,1.36,1.36,0,0,1,1.28-.09,3.22,3.22,0,0,1,1.27.91,4.75,4.75,0,0,1,.82,1.37,1.34,1.34,0,0,1-.09,1.27,19.39,19.39,0,0,1-9,8,33,33,0,0,1-13,2.37q-12.39,0-17.48-5.55T473.93,315V268.25a27.81,27.81,0,0,0-.18-3.46,2.42,2.42,0,0,0-1.1-1.82,6.79,6.79,0,0,0-3-.63q-2.1-.09-5.91-.09c-.37,0-.67-.37-.91-1.1a9.23,9.23,0,0,1-.46-2.36,6.14,6.14,0,0,1,.27-2.37c.25-.73.61-1.09,1.1-1.09a36.76,36.76,0,0,0,7.82-1.37,13.57,13.57,0,0,0,5.55-3.18,15.34,15.34,0,0,0,3.64-5.92,51.65,51.65,0,0,0,2.28-9.73,2.16,2.16,0,0,1,1.45-1.64,6.76,6.76,0,0,1,2.73-.55,7.38,7.38,0,0,1,2.64.46c.79.3,1.19.7,1.19,1.18v15.65a10.76,10.76,0,0,0,.27,3.37c.18.3.94.45,2.27.45h18.93c.85,0,1.39.49,1.64,1.46a10.8,10.8,0,0,1,.36,2.55,9.7,9.7,0,0,1-.45,2.64,1.88,1.88,0,0,1-1.91,1.55H492.67c-.85,0-1.33.21-1.45.63a30.39,30.39,0,0,0-.18,4.64Z"/><path class="cls-1" d="M562.92,314.11c0,3,.1,5.59.28,7.65a9.07,9.07,0,0,0,1.91,5.09,10.43,10.43,0,0,0,5.09,3.1,49,49,0,0,0,10,1.64,2.3,2.3,0,0,1,1.64,1,3.3,3.3,0,0,1,.55,1.91,3,3,0,0,1-.55,1.73,1.85,1.85,0,0,1-1.64.82,134,134,0,0,1-13.83-.64,110,110,0,0,0-11.46-.64,105.65,105.65,0,0,0-11.56.64,105.79,105.79,0,0,1-11.56.64,1.67,1.67,0,0,1-1.45-.82,3,3,0,0,1-.55-1.73,3.3,3.3,0,0,1,.55-1.91,2.3,2.3,0,0,1,1.63-1A32.56,32.56,0,0,0,539.9,330a8.39,8.39,0,0,0,4.1-3,10.27,10.27,0,0,0,1.54-4.74c.18-1.88.28-4.21.28-7V288.63q0-8.91-.37-14.1a22.46,22.46,0,0,0-1.73-8,6.86,6.86,0,0,0-4.27-3.73,36.63,36.63,0,0,0-8-1.27,1.47,1.47,0,0,1-1.37-.91,3.91,3.91,0,0,1,0-3.64,1.59,1.59,0,0,1,1.55-.91c2.43-.24,5.79-.52,10.1-.82a68.42,68.42,0,0,0,13.2-2.28,7.24,7.24,0,0,1,4.18-.18c1.09.36,1.58,1.4,1.46,3.09l-.37,11.65c0,.25.06.4.19.46s.3,0,.54-.28a36.58,36.58,0,0,1,9.38-12.19q5.55-4.55,14.83-4.55,7.64,0,11.28,3.91a13.51,13.51,0,0,1,3.64,9.56,8.14,8.14,0,0,1-2.36,5.64,8.75,8.75,0,0,1-6.74,2.55q-4.19,0-5.82-2a6.78,6.78,0,0,1-1.64-4.37,7,7,0,0,0-1-4c-.67-1-2.09-1.46-4.28-1.46a9.8,9.8,0,0,0-6.28,2.27,22.68,22.68,0,0,0-4.82,5.37A27.68,27.68,0,0,0,564,274.8a17.54,17.54,0,0,0-1.1,5.1Z"/><path class="cls-1" d="M677.4,316.48q0,6.38,1.18,8.92t4.64,2.55a9.72,9.72,0,0,0,3.28-.46,21.54,21.54,0,0,0,3.64-1.91,1.06,1.06,0,0,1,1.18,0,3.61,3.61,0,0,1,1.1,1,4,4,0,0,1,.63,1.46,1.39,1.39,0,0,1-.36,1.36Q685.6,338,676,338a14.47,14.47,0,0,1-9-2.82,18,18,0,0,1-5.55-6.65c-.25-.6-.61-.66-1.1-.18a41.24,41.24,0,0,1-11,6.92Q643,338,633.54,338q-10.38,0-16-5.55t-5.64-15.75q0-13.1,12.2-20.11t35.49-7c.24,0,.42-.3.54-.91a28.63,28.63,0,0,0,.18-4.18v-4.91a48.35,48.35,0,0,0-.72-8.56,22,22,0,0,0-2.46-7,12.59,12.59,0,0,0-4.82-4.73,15.56,15.56,0,0,0-7.65-1.73q-6.74,0-10.92,2.64T629.54,267a7,7,0,0,0,1.27,3.91,7,7,0,0,1,1.27,3.91,6.81,6.81,0,0,1-2.54,4.92,8.83,8.83,0,0,1-6.19,2.36q-4.92,0-7-2.64a10,10,0,0,1-2.09-6.46,16,16,0,0,1,2.55-8.64,22.94,22.94,0,0,1,6.91-7,37.44,37.44,0,0,1,10.19-4.64A42.78,42.78,0,0,1,646.1,251q14.55,0,22.93,6.73t8.37,22.39Zm-17.11-18a9.36,9.36,0,0,0-.18-2.45c-.12-.31-.43-.46-.91-.46q-14.93,1.27-22.11,6.28t-7.19,12.83a15.12,15.12,0,0,0,2.73,9.19q2.73,3.73,9.1,3.73a26.38,26.38,0,0,0,8.83-1.64,25.94,25.94,0,0,0,8.28-4.73,4.18,4.18,0,0,0,1.45-2.91Z"/><path class="cls-1" d="M419.26,179.63c.65-.2.93-.6,1.48-1.24.75-.89,1-2.37.88-4.46a46.32,46.32,0,0,0-1.26-7.21c-.67-2.72-1.54-5.62-2.61-8.68l-5.47-15.35c-5.2-12.27-5.39-12.92-12-24.31-3.38-5.64-6.29-11.16-10.15-16.43a181.08,181.08,0,0,0-12.31-15.09,169.16,169.16,0,0,0-29.45-25.12,300.66,300.66,0,0,0-34-19.59c-5.9-3-11.87-5.88-17.9-8.72l-9.06-4.25-1.13-.53-1-.47-2.09-.91c-1.43-.56-2.84-1.14-4.29-1.65a136.46,136.46,0,0,0-37-7,217.48,217.48,0,0,0-38.48,1.27,266.57,266.57,0,0,0-74.63,20.34A238.35,238.35,0,0,0,94.67,58.58a199.15,199.15,0,0,0-30.16,24,169.26,169.26,0,0,0-41.61,64,181.56,181.56,0,0,0-5.5,18.52c-1.45,6.24-2.54,12.84-3.72,19.32a340.4,340.4,0,0,0-4.09,39.38,236.19,236.19,0,0,0,1.55,39.52l.65,4.9c.2,1.65.55,3.26.82,4.89l.87,4.87,1.07,4.84c.39,1.6.69,3.23,1.15,4.81L17,292.36l.66,2.39.75,2.36L20,301.82c.53,1.56,1.14,3.09,1.71,4.65s1.12,3.11,1.79,4.62c1.29,3,2.56,6.09,4,9.05.73,1.49,1.39,3,2.18,4.46L32,329c.75,1.47,1.64,2.87,2.46,4.3s1.64,2.88,2.55,4.26A204.78,204.78,0,0,0,61.24,369c4.48,4.9,9.24,9.56,14.05,14.19s9.77,9.11,14.73,13.67l1.86,1.72,1.82,1.58,1.81,1.59,1.91,1.48,1.9,1.48,2,1.38,2,1.38,2.06,1.29a130.08,130.08,0,0,0,17.24,9A176.79,176.79,0,0,0,141,424.54c6.24,1.92,12.57,3.59,19,4.95a282.5,282.5,0,0,0,38.81,5.45,264,264,0,0,0,39,0,182,182,0,0,0,19.07-2.46c3.13-.6,6.19-1.26,9.4-2.07l4.77-1.16c1.59-.38,3.14-.86,4.72-1.28a197.43,197.43,0,0,0,36.23-13.56c11.56-5.63,22.34-12.85,33-20.64,5.32-3.91,10.59-8,15.9-12.06l7.95-6.13a78.33,78.33,0,0,0,6.94-6.18,131.73,131.73,0,0,0,12.51-14.66c3.92-5.21,7.58-10.69,11.09-16.28,7-11.19,13.38-22.91,19.42-34.81,3-6,5.95-12,8.76-18s5.59-12.17,8.23-18.32l1.65.56c-3.69,13-8.15,25.71-13.06,38.3a360.68,360.68,0,0,1-16.91,37c-6.47,12-13.67,23.78-23.15,34.39a85.18,85.18,0,0,1-7.72,7.58l-7.7,6.53q-7.69,6.53-15.67,12.91c-5.36,4.22-10.79,8.42-16.58,12.26a178.42,178.42,0,0,1-17.9,10.78,200.88,200.88,0,0,1-38.77,15.3c-1.66.46-3.31,1-5,1.41l-5,1.28c-3.28.87-6.77,1.67-10.24,2.31a172.09,172.09,0,0,1-20.83,2.62q-10.43.67-20.8.38c-3.46-.09-6.9-.28-10.35-.49s-6.87-.57-10.3-1c-6.84-.76-13.65-1.82-20.41-3.13s-13.45-2.93-20.07-4.82-13.15-4.08-19.58-6.55a183.14,183.14,0,0,1-18.89-8.44,147,147,0,0,1-17.74-10.83l-2.11-1.52-2.06-1.62-2-1.62-2-1.72-2-1.72-1.88-1.83-1.88-1.83L85.05,402c-4.67-4.78-9.45-9.52-14.14-14.37s-9.35-9.76-13.84-14.84-8.82-10.29-12.94-15.69c-1.05-1.33-2-2.73-3-4.1l-1.5-2.05c-.5-.69-1-1.4-1.45-2.1l-2.87-4.21-2.75-4.29a206.59,206.59,0,0,1-18.09-36.53c-2.3-6.41-4.51-12.87-6.19-19.48l-1.32-4.94-1.12-5c-.36-1.66-.79-3.32-1.08-5l-.9-5A267.06,267.06,0,0,1,.05,223.65a337.94,337.94,0,0,1,1.8-40.86c.85-6.77,1.55-13.48,2.77-20.4a190.32,190.32,0,0,1,5-20.3c8.25-26.76,23.59-51.29,43.23-71.17A214.63,214.63,0,0,1,85,44.08a246.89,246.89,0,0,1,36.32-20.51A264.36,264.36,0,0,1,160.39,9.3c6.68-1.88,13.46-3.43,20.28-4.76s13.69-2.41,20.62-3.15a220.13,220.13,0,0,1,41.88-.7c14,1.16,28.09,3.8,41.64,9.07,1.69.66,3.36,1.39,5,2.12l2.48,1.18,1.23.59,1.13.57c3,1.52,6,3,9,4.61q9,4.65,18,9.58c6,3.28,11.86,6.78,17.68,10.42s11.54,7.54,17.07,11.73A174,174,0,0,1,372.34,64,178.48,178.48,0,0,1,386.55,79.3a185.61,185.61,0,0,1,12.14,16.85,155.81,155.81,0,0,1,10.06,18c6.67,14.67,18.6,35.59,21.84,48.62.43,1.74.86,3.66,1.61,6a36.17,36.17,0,0,1,1.54,7.25,25.6,25.6,0,0,1-.29,7.56,14.44,14.44,0,0,1-3.27,6.79,13.53,13.53,0,0,1-6,4q-3.66,1.25-7.05-1.63a8.43,8.43,0,0,1-3-5.27,6.8,6.8,0,0,1,1.68-5.65,3.94,3.94,0,0,1,1.86-1.33Z"/></g></g></svg>