<svg xmlns="http://www.w3.org/2000/svg" viewBox="0 0 476.47 476.47"><defs><style>.cls-1{fill:#103954;}.cls-2{fill:none;stroke:#f9f8ef;stroke-linejoin:round;stroke-width:2.57px;}</style></defs><title>shroud2</title><g id="Layer_2" data-name="Layer 2"><g id="Layer_1-2" data-name="Layer 1"><circle class="cls-1" cx="238.23" cy="238.23" r="238.23"/><path class="cls-2" d="M82,317c30.18-4.27,32.16-.08,48.36,6.63C172.06,341,441,211.74,443.92,190.34s-2.32-59.77-16.2-56.48-12.33,17.74-20,20-286,75.5-301.64,79c-20.32,4.53-19.22,20-37.49,28.51-8.32,3.88-15.5,5.19-22.53,8.05-21.46,8.74-16.88,44.95,5.36,48.43C58.94,319.08,74.38,318.09,82,317Z"/><path class="cls-2" d="M142.27,325.22s38.6-46.83,44.14-113"/><path class="cls-2" d="M200.49,208.51s18.82,41.33,13.21,98.81"/><path class="cls-2" d="M417.29,212.19S347.87,183,283.47,186.76"/><path class="cls-2" d="M299.11,272.67s45-53.89,48-80.92"/><path class="cls-2" d="M350.38,169.15s64.09,2.3,93.54,21.19"/><path class="cls-2" d="M68.55,261.42s26.73,14.95,37,54"/><path class="cls-2" d="M39.27,311.4s30.59-2.19,47.78-33.17"/><path class="cls-2" d="M96.36,236.63s29.59-4.43,73.14,41.6"/></g></g></svg>