<svg xmlns="http://www.w3.org/2000/svg" viewBox="0 0 341.42 232.53"><defs><style>.cls-1{fill:#fcbe7a;}.cls-2,.cls-3{fill:none;stroke:#fcbe7a;stroke-miterlimit:10;stroke-width:5px;}.cls-3{stroke-dasharray:11.58 11.58;}</style></defs><title>cannon</title><g id="Layer_2" data-name="Layer 2"><g id="Contours"><rect class="cls-1" x="146.08" y="88.58" width="190.8" height="64.21" transform="translate(75.2 -91.98) rotate(25.42)"/><rect class="cls-1" x="202.98" y="141.56" width="94.88" height="90.97"/><circle class="cls-1" cx="34.89" cy="34.89" r="34.89"/><line class="cls-2" x1="61.65" y1="47.63" x2="67.14" y2="50.04"/><line class="cls-3" x1="77.74" y1="54.7" x2="157.26" y2="89.66"/><line class="cls-2" x1="162.56" y1="91.99" x2="168.05" y2="94.41"/><path class="cls-1" d="M78,65.84l1.19.5-1.86,4.44,0,0c.4-.25.78-.48,1.14-.68l4.26-2.27,1.47.62-5,2.51,1.37,6.8-1.41-.59-1.13-5.79-1.3.64-1.47,3.51L74.15,75Z"/><path class="cls-1" d="M85.39,79.75l.25-.87,0,0a2.67,2.67,0,0,1-2.43.14A2,2,0,0,1,82,76.25c.67-1.6,2.46-1.88,5-.79l.06-.14a1.48,1.48,0,0,0-.86-2.16,3.56,3.56,0,0,0-1.93-.23l.06-.91a4.45,4.45,0,0,1,2.42.32c2,.85,1.93,2.43,1.38,3.76l-1,2.47a10.09,10.09,0,0,0-.56,1.63Zm1.24-3.45c-1.3-.58-2.89-1-3.42.31a1.15,1.15,0,0,0,.65,1.62,1.79,1.79,0,0,0,2.06-.44,1.37,1.37,0,0,0,.23-.35Z"/><path class="cls-1" d="M88.27,81c.22-.44.52-1.1.77-1.69l3.35-8,1.19.5-1.74,4.15h0a2.67,2.67,0,0,1,2.76-.27c1.64.69,2.23,2.54,1.37,4.54-1,2.36-3,2.91-4.45,2.29a2.55,2.55,0,0,1-1.69-2.17l0,0-.51,1.07Zm2.35-2.13a2.54,2.54,0,0,0-.13.46,2,2,0,0,0,1.21,2.16c1.26.53,2.44-.18,3.07-1.7.56-1.32.35-2.74-.93-3.28a2.08,2.08,0,0,0-2.45.71,2.5,2.5,0,0,0-.27.46Z"/><path class="cls-1" d="M103.48,83.39a3.5,3.5,0,0,1-4.76,2.13A3.41,3.41,0,0,1,97,80.79a3.5,3.5,0,0,1,4.75-2.13A3.39,3.39,0,0,1,103.48,83.39Zm-5.27-2.13c-.61,1.45-.23,2.89.94,3.38s2.46-.24,3.08-1.72c.47-1.12.51-2.78-.91-3.37S98.74,80,98.21,81.26Z"/><path class="cls-1" d="M111,86.54a3.5,3.5,0,0,1-4.76,2.13,3.41,3.41,0,0,1-1.74-4.73,3.5,3.5,0,0,1,4.75-2.13A3.39,3.39,0,0,1,111,86.54Zm-5.27-2.13c-.61,1.45-.23,2.89.94,3.38s2.46-.24,3.08-1.72c.47-1.12.51-2.78-.91-3.37S106.24,83.15,105.71,84.41Z"/><path class="cls-1" d="M113.11,85.72c.29-.68.51-1.25.7-1.81l1.05.44-.39,1.09,0,0a2.47,2.47,0,0,1,2.59-.34,2.12,2.12,0,0,1,1.31,2.11h0a3,3,0,0,1,1.1-.55,2.46,2.46,0,0,1,1.66.15c.87.37,1.93,1.49,1,3.78l-1.63,3.89L119.35,94l1.57-3.74c.53-1.27.39-2.23-.58-2.64a1.68,1.68,0,0,0-1.88.5,2.08,2.08,0,0,0-.35.56l-1.71,4.08-1.17-.49,1.66-4c.44-1.05.3-2-.62-2.39a1.78,1.78,0,0,0-2,.58,1.83,1.83,0,0,0-.34.55l-1.67,4-1.17-.49Z"/><path class="cls-1" d="M122.5,94.49a.88.88,0,0,1,1.18-.52.93.93,0,1,1-1.18.52Z"/></g></g></svg>