<svg xmlns="http://www.w3.org/2000/svg" viewBox="0 0 477.34 92.39"><defs><style>.cls-1{fill:#fcbe7a;}.cls-2,.cls-3,.cls-4{fill:none;stroke-miterlimit:10;}.cls-2{stroke:#fcbe7a;}.cls-3{stroke:#231f20;}.cls-3,.cls-4{stroke-dasharray:2;}.cls-4{stroke:#fff;}</style></defs><title>car</title><g id="Layer_2" data-name="Layer 2"><g id="Layer_1-2" data-name="Layer 1"><path class="cls-1" d="M153.07,14.07,2.43,47.07,0,64.51H17c-.07-.69-.1-1.38-.1-2.09a21.26,21.26,0,1,1,42.52,0c0,.7,0,1.4-.1,2.09H164c-.07-.69-.1-1.38-.1-2.09a21.26,21.26,0,1,1,42.52,0c0,.7,0,1.4-.1,2.09h33.32V29.81Z"/><circle class="cls-1" cx="185.25" cy="62.15" r="18.16"/><circle class="cls-1" cx="38.08" cy="62.15" r="18.16"/><polyline class="cls-2" points="29.21 43.24 58.25 25.98 136.23 19.8"/><rect class="cls-1" x="204.18" y="4.7" width="35.45" height="3.84"/><rect class="cls-1" x="212.89" y="8.54" width="15.15" height="19.16"/><polyline class="cls-2" points="272.25 69.06 330.48 42.3 272.25 25.89"/><rect class="cls-1" x="392.9" y="7.95" width="83.94" height="83.94"/><rect class="cls-1" x="358.83" y="0.5" width="83.94" height="83.94"/><polygon class="cls-1" points="392.9 91.89 359.83 84.44 359.83 57.26 399.29 59.03 392.9 91.89"/><polygon class="cls-1" points="470.45 41.25 437.38 33.8 442.77 0.5 476.84 8.4 470.45 41.25"/><line class="cls-3" x1="358.83" y1="0.5" x2="392.9" y2="7.95"/><line class="cls-4" x1="358.83" y1="84.44" x2="392.9" y2="91.89"/><line class="cls-4" x1="442.77" y1="0.5" x2="476.84" y2="7.95"/><line class="cls-3" x1="442.77" y1="84.44" x2="476.84" y2="91.89"/><line class="cls-3" x1="392.9" y1="7.95" x2="392.9" y2="91.89"/><line class="cls-3" x1="476.84" y1="7.95" x2="392.9" y2="7.95"/><line class="cls-4" x1="476.84" y1="91.89" x2="392.9" y2="91.89"/><line class="cls-4" x1="358.83" y1="0.5" x2="442.77" y2="0.5"/><line class="cls-3" x1="442.77" y1="84.44" x2="442.77" y2="0.5"/><line class="cls-3" x1="358.83" y1="84.44" x2="442.77" y2="84.44"/><line class="cls-4" x1="358.83" y1="0.5" x2="358.83" y2="84.44"/><line class="cls-4" x1="476.84" y1="7.95" x2="476.84" y2="91.89"/></g></g></svg>