<svg xmlns="http://www.w3.org/2000/svg" viewBox="0 0 345.52 291.11"><defs><style>.cls-1,.cls-3,.cls-4{fill:none;}.cls-2{fill:#fcbe7a;}.cls-3,.cls-4,.cls-5{stroke:#fcbe7a;stroke-miterlimit:10;}.cls-3,.cls-5{stroke-width:4px;}.cls-4{stroke-width:5px;}.cls-5{fill:#fff;}</style></defs><title>dane</title><g id="Layer_2" data-name="Layer 2"><g id="Layer_1-2" data-name="Layer 1"><path class="cls-1" d="M263.78,66H265c-.07-1-.21-2-.37-3a14.67,14.67,0,0,1-2.11,1.7Z"/><path class="cls-1" d="M262.85,46.07q1.08,2.12,2,4.21A10.52,10.52,0,0,0,262.85,46.07Z"/><path class="cls-2" d="M265.08,52.54a10.56,10.56,0,0,0-.25-2.26q-.9-2.09-2-4.21a10.56,10.56,0,0,0-6.74-4,64.67,64.67,0,0,1,7.39,16A10.5,10.5,0,0,0,265.08,52.54Z"/><path class="cls-2" d="M264.63,63c.17,1,.3,2,.37,3h-1.23q1.82,1.94,3.55,4h1.75V68a37.43,37.43,0,0,0-1.34-9.4A14.63,14.63,0,0,1,264.63,63Z"/><path class="cls-2" d="M258.73,66.49a14.52,14.52,0,0,1-4.22.63h-107q-1.38,1.41-2.72,2.9H262.07Q260.43,68.2,258.73,66.49Z"/><path class="cls-2" d="M138.69,27.42C154.71,12.54,174.45,4,192.84,4c24.9,0,43,14.64,51.59,23.36A88.59,88.59,0,0,1,253.33,38h1.18a14.51,14.51,0,0,1,4,.57C245.66,18.82,222.1,0,192.84,0c-28.36,0-54.44,18.21-69.05,38h5.12A96.69,96.69,0,0,1,138.69,27.42Z"/><path class="cls-2" d="M111.61,67.12c0,.3,0,.6,0,.9v2h28q1.25-1.48,2.53-2.9Z"/><path class="cls-2" d="M147.55,67.12H142.1q-1.29,1.42-2.53,2.9h5.26Q146.17,68.53,147.55,67.12Z"/><path class="cls-2" d="M260.05,66q-.65.27-1.32.47,1.7,1.71,3.34,3.53h5.26q-1.74-2.06-3.55-4Z"/><path class="cls-2" d="M68.7,63.12A10.57,10.57,0,1,1,68.7,42H121q1.31-2,2.78-4H68.7a14.57,14.57,0,1,0,0,29.15h42.91a30.87,30.87,0,0,1,.4-4Z"/><path class="cls-2" d="M265.08,52.54a10.5,10.5,0,0,1-1.58,5.53A41.78,41.78,0,0,1,264.63,63a14.63,14.63,0,0,0,3.11-4.39,59,59,0,0,0-2.91-8.33A10.56,10.56,0,0,1,265.08,52.54Z"/><path class="cls-2" d="M253.33,38c1,1.37,1.91,2.75,2.78,4.13a10.56,10.56,0,0,1,6.74,4,82.65,82.65,0,0,0-4.37-7.54,14.51,14.51,0,0,0-4-.57Z"/><path class="cls-2" d="M125.89,42c.95-1.34,2-2.67,3-4h-5.12q-1.47,2-2.78,4Z"/><path class="cls-2" d="M258.73,66.49l-.48-.47H148.65l-1.1,1.1h107A14.52,14.52,0,0,0,258.73,66.49Z"/><path class="cls-2" d="M143.12,66H115.68a29.17,29.17,0,0,1,.41-2.9H112a30.87,30.87,0,0,0-.4,4H142.1Z"/><path class="cls-2" d="M258.73,66.49q.68-.21,1.32-.47h-1.8Z"/><path class="cls-2" d="M148.65,66h-5.53l-1,1.1h5.45Z"/><circle class="cls-3" cx="237.15" cy="106.09" r="18.92"/><path class="cls-1" d="M148.29,108.55a5.11,5.11,0,0,0,.14,1.42,14,14,0,0,0,2.44-.54,23.46,23.46,0,0,1,6.43-1.09,26.86,26.86,0,0,1,6.53,1c1.26.31,3.15.78,3.63.56a3.6,3.6,0,0,0,.18-1.37s0,0,0-.07l-14.55-8.27A9.67,9.67,0,0,0,148.29,108.55Z"/><path class="cls-1" d="M158.91,98.92l6.8,3.86A9.66,9.66,0,0,0,158.91,98.92Z"/><path class="cls-2" d="M167.64,108.55a3.6,3.6,0,0,1-.18,1.37c-.48.22-2.37-.25-3.63-.56a26.86,26.86,0,0,0-6.53-1,23.46,23.46,0,0,0-6.43,1.09,14,14,0,0,1-2.44.54,5.11,5.11,0,0,1-.14-1.42,9.67,9.67,0,0,1,4.79-8.34L149.24,98a13.65,13.65,0,0,0-5,10.52c0,1.45.18,3.51,1.69,4.66a3.8,3.8,0,0,0,2.39.75,14,14,0,0,0,3.58-.68,19.86,19.86,0,0,1,5.36-.95,23.73,23.73,0,0,1,5.57.91c2.67.66,5.19,1.29,7-.16a4.31,4.31,0,0,0,1.5-2.46l-3.78-2.14S167.64,108.52,167.64,108.55Z"/><path class="cls-2" d="M186,114.31,171.39,106a13.67,13.67,0,0,1,.25,2.54,8.6,8.6,0,0,1-.23,2.07L184,117.79Z"/><path class="cls-2" d="M158,98.87a9.6,9.6,0,0,0-4.88,1.34l14.55,8.27a9.61,9.61,0,0,0-1.92-5.69l-6.8-3.86C158.6,98.89,158.29,98.87,158,98.87Z"/><path class="cls-2" d="M142.45,89.57l-2,3.48,8.77,5a13.67,13.67,0,0,1,4-2.31Z"/><path class="cls-2" d="M171.39,106l-5.68-3.22a9.61,9.61,0,0,1,1.92,5.69l3.78,2.14a8.6,8.6,0,0,0,.23-2.07A13.67,13.67,0,0,0,171.39,106Z"/><path class="cls-2" d="M158,98.87c.32,0,.64,0,.95,0l-5.64-3.2a13.67,13.67,0,0,0-4,2.31l3.84,2.18A9.6,9.6,0,0,1,158,98.87Z"/><line class="cls-3" x1="253.7" y1="74.8" x2="210.13" y2="99.54"/><rect class="cls-3" x="176.93" y="160.61" width="8.95" height="4.57" rx="2.29" ry="2.29"/><rect class="cls-3" x="200.44" y="159.51" width="8.95" height="4.57" rx="2.29" ry="2.29"/><polyline class="cls-3" points="161.39 246.77 178.44 238.7 217.3 236.08"/><circle class="cls-3" cx="239.59" cy="107.53" r="2.44"/><circle class="cls-3" cx="150.84" cy="108.6" r="1.9"/><rect class="cls-4" x="133.4" y="68.18" width="129.75" height="214.14"/><polygon class="cls-2" points="265.57 114.83 281.18 73.06 296.8 114.82 312.41 73.06 328.03 114.82 345.52 68.05 341.77 66.65 328.03 103.4 312.41 61.64 296.8 103.4 281.18 61.64 265.57 103.4 261.9 93.57 261.9 104.99 265.57 114.83"/><polygon class="cls-2" points="249.96 61.64 248.14 66.5 251.78 66.5 249.96 61.64"/><polygon class="cls-2" points="126.75 64.03 111.14 105.79 95.53 64.03 79.92 105.79 64.31 64.03 48.7 105.79 33.09 64.03 17.48 105.79 3.75 69.04 0 70.44 17.48 117.22 33.09 75.46 48.7 117.22 64.31 75.46 79.92 117.22 95.53 75.46 111.14 117.22 126.75 75.46 133.81 94.36 133.81 82.93 126.75 64.03"/><polygon class="cls-2" points="126.75 93.02 111.14 134.78 95.53 93.02 79.92 134.78 64.31 93.02 48.7 134.78 33.09 93.02 17.48 134.78 3.75 98.03 0 99.43 17.48 146.2 33.09 104.44 48.7 146.2 64.31 104.44 79.92 146.2 95.53 104.44 111.14 146.2 126.75 104.44 133.81 123.34 133.81 111.92 126.75 93.02"/><polygon class="cls-2" points="265.57 143.81 281.18 102.05 296.8 143.81 312.41 102.05 328.03 143.81 345.52 97.04 341.77 95.64 328.03 132.39 312.41 90.63 296.8 132.39 281.18 90.63 265.57 132.38 261.9 122.55 261.9 133.97 265.57 143.81"/><polygon class="cls-2" points="126.75 122 111.14 163.76 95.53 122 79.92 163.76 64.31 122 48.7 163.76 33.09 122 17.48 163.76 3.75 127.01 0 128.41 17.48 175.18 33.09 133.42 48.7 175.18 64.31 133.42 79.92 175.18 95.53 133.42 111.14 175.18 126.75 133.42 133.81 152.32 133.81 140.9 126.75 122"/><polygon class="cls-2" points="265.57 172.79 281.18 131.03 296.8 172.79 312.41 131.03 328.03 172.79 345.52 126.02 341.77 124.62 328.03 161.37 312.41 119.61 296.8 161.37 281.18 119.61 265.57 161.37 261.9 151.53 261.9 162.96 265.57 172.79"/><polygon class="cls-2" points="126.75 150.98 111.14 192.74 95.53 150.98 79.92 192.74 64.31 150.98 48.7 192.74 33.09 150.98 17.48 192.74 3.75 155.99 0 157.39 17.48 204.16 33.09 162.41 48.7 204.17 64.31 162.41 79.92 204.16 95.53 162.41 111.14 204.16 126.75 162.41 133.81 181.31 133.81 169.88 126.75 150.98"/><polygon class="cls-2" points="265.57 201.77 281.18 160.01 296.8 201.77 312.41 160.01 328.03 201.77 345.52 155 341.77 153.6 328.03 190.35 312.41 148.59 296.8 190.35 281.18 148.59 265.57 190.35 261.9 180.52 261.9 191.94 265.57 201.77"/><polygon class="cls-2" points="126.75 179.96 111.14 221.72 95.53 179.96 79.92 221.72 64.31 179.96 48.7 221.72 33.09 179.96 17.48 221.72 3.75 184.98 0 186.38 17.48 233.15 33.09 191.39 48.7 233.15 64.31 191.39 79.92 233.15 95.53 191.39 111.14 233.15 126.75 191.39 133.81 210.29 133.81 198.87 126.75 179.96"/><polygon class="cls-2" points="265.57 230.76 281.18 189 296.8 230.76 312.41 189 328.03 230.75 345.52 183.99 341.77 182.59 328.03 219.34 312.41 177.57 296.8 219.33 281.18 177.57 265.57 219.33 261.9 209.5 261.9 220.92 265.57 230.76"/><polygon class="cls-2" points="265.57 259.74 281.18 217.98 296.8 259.74 312.41 217.98 328.03 259.74 345.52 212.97 341.77 211.57 328.03 248.32 312.41 206.56 296.8 248.32 281.18 206.56 265.57 248.31 261.9 238.48 261.9 249.91 265.57 259.74"/><polygon class="cls-2" points="126.75 208.95 111.14 250.71 95.53 208.95 79.92 250.71 64.31 208.95 48.7 250.71 33.09 208.95 17.48 250.71 3.75 213.96 0 215.36 17.48 262.13 33.09 220.37 48.7 262.13 64.31 220.37 79.92 262.13 95.53 220.37 111.14 262.13 126.75 220.37 133.81 239.27 133.81 227.85 126.75 208.95"/><polygon class="cls-2" points="265.57 288.72 281.18 246.96 296.8 288.72 312.41 246.96 328.03 288.72 345.52 241.95 341.77 240.55 328.03 277.3 312.41 235.54 296.8 277.3 281.18 235.54 265.57 277.3 261.9 267.47 261.9 278.89 265.57 288.72"/><polygon class="cls-2" points="142.36 291.12 145.38 283.04 139.34 283.04 142.36 291.12"/><polygon class="cls-2" points="126.75 237.93 111.14 279.69 95.53 237.93 79.92 279.69 64.31 237.93 48.7 279.69 33.09 237.93 17.48 279.69 3.75 242.94 0 244.34 17.48 291.11 33.09 249.35 48.7 291.12 64.31 249.35 79.92 291.11 95.53 249.35 111.14 291.11 126.75 249.35 133.81 268.26 133.81 256.83 126.75 237.93"/><polygon class="cls-5" points="133.81 283.04 139.34 283.04 133.81 268.26 133.81 283.04"/><polygon class="cls-3" points="261.9 66.5 251.78 66.5 261.9 93.57 261.9 66.5"/></g></g></svg>