<svg xmlns="http://www.w3.org/2000/svg" viewBox="0 0 345.45 345.45"><defs><style>.cls-1{fill:#fcbe7a;}.cls-2{fill:none;stroke:#fcbe7a;stroke-miterlimit:10;stroke-width:4px;}</style></defs><title>Asset 3</title><g id="Layer_2" data-name="Layer 2"><g id="Layer_1-2" data-name="Layer 1"><path class="cls-1" d="M175.47,308.44a141.33,141.33,0,0,1,3.41-32.59,164.77,164.77,0,0,1,8.42-26.17,214.89,214.89,0,0,1,10.93-22.26q5.91-10.43,10.93-21.06a150.14,150.14,0,0,0,8.42-22.46A95.56,95.56,0,0,0,221,157.43a74.66,74.66,0,0,0-3.41-23.77,46.92,46.92,0,0,0-9.53-16.85,38.62,38.62,0,0,0-14.44-10,48.71,48.71,0,0,0-18.15-3.31,59.46,59.46,0,0,0-15.74,2,40.76,40.76,0,0,0-12.53,5.62,28.42,28.42,0,0,0-8.22,8.52,20.17,20.17,0,0,0-3,10.73,19.61,19.61,0,0,0,2.11,9.73,64.52,64.52,0,0,0,4.51,6.92q2.41,3.21,4.51,6.52a15.23,15.23,0,0,1,2.11,8.32q0,8.83-4.81,14a15.25,15.25,0,0,1-11.63,5.21,18.54,18.54,0,0,1-8.92-2.21,22.17,22.17,0,0,1-7.22-6.32,30.84,30.84,0,0,1-4.81-9.63,40.89,40.89,0,0,1-1.7-12.13Q110.09,134,117,122a59.43,59.43,0,0,1,17.85-19.45,77,77,0,0,1,24.27-11,104.78,104.78,0,0,1,57.66,1.1,74.84,74.84,0,0,1,24.87,13.14,59.25,59.25,0,0,1,16.25,20.86,64.36,64.36,0,0,1,5.82,27.78,67.94,67.94,0,0,1-5.82,28.18,135.05,135.05,0,0,1-14.54,24.77q-8.72,11.83-18.85,23.26t-18.85,23.46a135.13,135.13,0,0,0-14.54,25.37,71.68,71.68,0,0,0-5.82,29Zm6.62,25.87a22,22,0,0,1,8.92,1.8,22.71,22.71,0,0,1,7.22,5,24.77,24.77,0,0,1,4.91,7.32,22,22,0,0,1,1.8,8.92,22.67,22.67,0,0,1-1.8,9,23.11,23.11,0,0,1-4.91,7.32,23.53,23.53,0,0,1-7.22,4.91,22,22,0,0,1-8.92,1.8,22.67,22.67,0,0,1-9-1.8,22.84,22.84,0,0,1-12.23-12.23,22.67,22.67,0,0,1-1.8-9,22,22,0,0,1,1.8-8.92,24.7,24.7,0,0,1,4.91-7.32,22.34,22.34,0,0,1,7.32-5A22.67,22.67,0,0,1,182.08,334.31Z" transform="translate(0 -59.15)"/><rect class="cls-2" x="2" y="2" width="341.45" height="341.45"/><line class="cls-2" x1="2" y1="286.54" x2="343.45" y2="286.54"/><line class="cls-2" x1="2" y1="229.63" x2="343.45" y2="229.63"/><line class="cls-2" x1="2" y1="172.73" x2="343.45" y2="172.73"/><line class="cls-2" x1="2" y1="115.82" x2="343.45" y2="115.82"/><line class="cls-2" x1="2" y1="58.91" x2="343.45" y2="58.91"/><line class="cls-2" x1="286.54" y1="2" x2="286.54" y2="343.45"/><line class="cls-2" x1="229.63" y1="2" x2="229.63" y2="343.45"/><line class="cls-2" x1="172.73" y1="2" x2="172.73" y2="343.45"/><line class="cls-2" x1="115.82" y1="2" x2="115.82" y2="343.45"/><line class="cls-2" x1="58.91" y1="2" x2="58.91" y2="343.45"/></g></g></svg>