<svg xmlns="http://www.w3.org/2000/svg" viewBox="0 0 612.48 453.55"><defs><style>.cls-1,.cls-2{fill:none;stroke:#fcbe7a;stroke-miterlimit:10;stroke-width:4px;}.cls-2{stroke-dasharray:12;}.cls-3{fill:#fcbe7a;}</style></defs><title>Asset 2</title><g id="Layer_2" data-name="Layer 2"><g id="Layer_1-2" data-name="Layer 1"><path class="cls-1" d="M610.16,90.94C590.47,57.55,551.1,34.76,505.74,34.76S421,57.55,401.32,90.94c19.69,33.39,59.06,56.18,104.42,56.18S590.47,124.34,610.16,90.94Z"/><circle class="cls-1" cx="478.73" cy="91.95" r="51.15"/><circle class="cls-1" cx="468.96" cy="97.7" r="27.01"/><line class="cls-2" x1="453.98" y1="120.17" x2="274.71" y2="284.48"/><path class="cls-1" d="M409.08,75.63c-14.93-3.2-25.37-13.42-23.35-22.86"/><path class="cls-1" d="M419.91,63.82c-13.84-6.44-21.75-18.73-17.68-27.48"/><path class="cls-1" d="M439.53,52.24c-13.84-6.44-21.75-18.73-17.68-27.48"/><path class="cls-1" d="M465,41.11c-13.84-6.44-21.75-18.73-17.68-27.48"/><path class="cls-1" d="M480.42,36.8c-10.55-11-13.44-25.35-6.47-32"/><path class="cls-1" d="M498.22,33.66C493.3,19.21,496.72,5,505.85,1.89"/><path class="cls-1" d="M524,35.61C519,21.16,522.46,7,531.6,3.85"/><path class="cls-1" d="M542.66,39.87c.67-15.25,9-27.24,18.66-26.82"/><path class="cls-1" d="M561.47,51.17c.67-15.25,9-27.24,18.66-26.82"/><path class="cls-1" d="M575,61.69c6.83-13.65,19.34-21.2,28-16.89"/><ellipse class="cls-1" cx="198.11" cy="317.99" rx="21.96" ry="18.89"/><circle class="cls-3" cx="159.59" cy="266.92" r="8.4"/><circle class="cls-3" cx="227.18" cy="264.45" r="9.76"/><ellipse class="cls-3" cx="198.11" cy="358.35" rx="15.24" ry="4.8"/><path class="cls-1" d="M273.18,267.34l13.88-65-63.25,20.49-4,1.47c-10.8-5.46-12.51-4.16-25.44-4.16-16.44,0-22.13-.53-34.82,8V223l-65-13.88,20.49,63.25,3.48,3c-5.93,11.15-3.86,11-3.86,24.54a79.74,79.74,0,0,0,159.47,0c0-15.86-.32-23-8.31-35.42Z"/><rect class="cls-1" x="210.13" y="376.88" width="17.05" height="74.66" rx="6.63" ry="6.63"/><path class="cls-1" d="M124.4,215.57c-80.23-20.89-97.62,38.22-97.62,85.36,0,12.61,8.14,24.1,21.1,34.17A6.61,6.61,0,0,0,45.72,340v73.76a6.63,6.63,0,0,0,6.63,6.63h2.57a6.63,6.63,0,0,0,6.63-6.63V344.24a215.88,215.88,0,0,0,32.82,15.22A6.62,6.62,0,0,0,91.42,365v39.79a6.63,6.63,0,0,0,13.26,0V365a6.63,6.63,0,0,0-.3-2c6.06,2,12.22,3.87,18.39,5.55a6.65,6.65,0,0,0-.12,1.22v62a6.63,6.63,0,0,0,6.63,6.63h2.31a6.63,6.63,0,0,0,6.63-6.63V372.39c20.89,4.68,40.93,7.21,56.18,7.21"/><path class="cls-1" d="M35,251.26a36.65,36.65,0,0,1-32.84-40.1,29.32,29.32,0,0,1,32.08-26.27,23.46,23.46,0,0,1,21,25.67,18.76,18.76,0,0,1-20.53,16.81A15,15,0,0,1,21.3,210.94a12,12,0,0,1,13.14-10.76A9.61,9.61,0,0,1,43,210.69a7.69,7.69,0,0,1-8.41,6.89,6.15,6.15,0,0,1-5.51-6.73,4.92,4.92,0,0,1,5.38-4.41"/></g></g></svg>