<svg xmlns="http://www.w3.org/2000/svg" viewBox="0 0 187.05 336.38"><defs><style>.cls-1{fill:#fcbe7a;}</style></defs><title>lorde</title><g id="Layer_2" data-name="Layer 2"><g id="Layer_1-2" data-name="Layer 1"><path class="cls-1" d="M14.69,173.11c-2.87-.05-3.61-1.72-3.57-7.3-.83,1-1,3.07-.78,6.72-.29-.81-.64-1.6-.84-2.43s-.25-1.68-.39-2.63c-2.29,1.42-1.51,3.43-1.09,5.6a4,4,0,0,1-1.61-4c.25-1.4.57-2.79.78-4.2A3.72,3.72,0,0,0,5.71,161c-1.57-1.15-1.58-3.53-.34-5.24a3.64,3.64,0,0,0,.85-2.53c-1.14-4.29-2-8.58-1.45-13.08l-.44,0c-.12.4-.21.82-.35,1.21a13.51,13.51,0,0,1-1.3,3.29,4.3,4.3,0,0,0-.42,4.66,14.67,14.67,0,0,1,1,3.12c.34,1.81-.9,3.08-2.89,2.94a3.38,3.38,0,0,1,.31-.58,4.28,4.28,0,0,0,.76-4.41c-.21-.58-.45-1.15-.7-1.72-1.08-2.46-1-2.38.76-4.32a4.45,4.45,0,0,0,.92-2.83,19.57,19.57,0,0,0-.69-4.78,16,16,0,0,1,1.74-12.1C5,121.69,6.94,119,8.1,115.95a16.83,16.83,0,0,1,4.23-6.87,2.37,2.37,0,0,0,.62-1.55A5.68,5.68,0,0,1,16,102.74a4.19,4.19,0,0,0,2.09-3.45,10.43,10.43,0,0,1,1.21-3.75,12.24,12.24,0,0,0,1.34-7c-.23-4-.36-8-.47-12a8.46,8.46,0,0,1,3-6.95,6.93,6.93,0,0,0,2.38-5.1C26,59,27.77,53.77,29.85,48.65c.78-1.92,1.35-3.94,2.13-5.86a3.93,3.93,0,0,1,1.44-1.85,13,13,0,0,1,3.65-1.51,21.2,21.2,0,0,0,8.51-3.82A24,24,0,0,1,57,30.93c3.23-.49,6.34-1.82,9.3-2.72-.2-1.29-.39-2.18-.46-3.08-.13-1.65-.58-3.4-.2-4.94a27.57,27.57,0,0,1,2.92-7.67,36.59,36.59,0,0,1,5.59-6.39,4.55,4.55,0,0,1,2.62-.9A80.7,80.7,0,0,0,89.34,2.81,115.4,115.4,0,0,1,104.46.12a17.82,17.82,0,0,1,6.9.55c6.1,1.73,12.4,3,17.79,6.66a20.37,20.37,0,0,1,7.78,9.23,13.47,13.47,0,0,1,.87,3.14c.57,4.1,2.41,7.11,6.59,8.39,3.36,1,6.65,2.27,10,3.25a12.67,12.67,0,0,1,9.14,8.83c1.64,5,3.81,9.82,5.83,14.68a7.72,7.72,0,0,0,1.87,2.81,7.71,7.71,0,0,1,2.5,8.5c-.88,3-.31,5.74.81,8.56,2,5,3.8,10.13,5.74,15.17a29.07,29.07,0,0,0,2.07,4.37,9.38,9.38,0,0,1,.88,7.15c-.31,1.39-.7,2.76-1,4.14a4.45,4.45,0,0,0,.88,4,35.21,35.21,0,0,1,2.92,4.37,7.58,7.58,0,0,1,.64,6.08,4.62,4.62,0,0,1-1.61,2c2-2.6.9-5.11,0-7.6a3.24,3.24,0,0,0-1-1.51,4.71,4.71,0,0,0-2.38-.95c-.29,0-.83,1.27-.87,2-.21,3.41-.29,6.83-.4,10.25-.07,2.36-.72,3.46-2.13,3.9.1-3.15.21-6.4.26-9.64,0-.36-.37-.72-.57-1.07-.23.37-.64.73-.67,1.12-.08,1,.27,2.18-.05,3.11a42.23,42.23,0,0,1-2.61,5.79,2.78,2.78,0,0,0-.39,2.21,19.74,19.74,0,0,1,.5,9.57,5.36,5.36,0,0,0,.68,3.24,9.84,9.84,0,0,1,.4,7.75,7.69,7.69,0,0,1-1.08,1.68l-.57-.25c.17-1.19.4-2.38.5-3.57a2.73,2.73,0,0,0-.25-1.73c-1.81-2.35-2.05-5-1.93-7.83a8.13,8.13,0,0,0-.5-2.87,4.41,4.41,0,0,0-1.49,4.12c1,4,.2,8.07.9,12,1.1,6.15.25,12.3.53,18.45,0,.79-.67,1.61-1.06,2.41a2.28,2.28,0,0,1-.51.68,5.48,5.48,0,0,0-1.57,6.77c.27.67.08,2.16-.32,2.34-1.11.49-1.59-.71-2-1.49a16.76,16.76,0,0,1-.92-2.36c-.94,1.58-1.44,3.07-.77,4.7.57,1.4,1.24,2.77,1.93,4.12a9.18,9.18,0,0,1,.21,8.5,3.17,3.17,0,0,1-3.37,2.14,31.69,31.69,0,0,0,0-4.19,14.59,14.59,0,0,0-1.27-3.94,2.85,2.85,0,0,0-.36,3.53,12.92,12.92,0,0,1,.86,2.61l-.64.34-2.75-3-2.65,1.57-.23-1.9-4.82,2.24,3.14,1.79-.12.23c-1.24-.56-2.47-1.53-3.73-1.57s-2.67.82-4.1,1.32c2.52,1.37,4.8,3.48,8,1.19v.57l-2.48,1,2.7,1.58c-1.59-.47-2.81-1.14-4-1.08a14.07,14.07,0,0,0-3.76,1.28c2.26,2.26,4.62,2.63,7.28.62l.06.62c-.46.21-.92.43-1.39.62s-1,.41-2,.79l3.13,1.29-3.64,1.61v.24h3.16c.34,2.57.26,2.67-2.06,3A21,21,0,0,1,140.92,209c-2.28-1-2.49-1.45-1.56-4.13,3,2.61,5.94,1.16,8.88-.12.55-.24,1.12-.45,1.84-.73-1.95-1.45-3.63-2.73-6.11-1.37a30.89,30.89,0,0,1-4.63,1.7l-.16-.41,6.7-2.49c-1.66-1-3.06-1.85-4.53-2.58-.75-.37-1.57-.19-1.66.87-.53,6.22-4.22,10.58-8.5,14.61-.24.23-.5.43-.69.59,0,.22,0,.34,0,.4a15,15,0,0,1,3,11.66c-.67,5.47-1,11-1.59,16.45-.33,3.31.29,6.51.8,9.76.65,4.16,1.09,8.38,1.36,12.58q.83,13.16,1.36,26.33c.17,4.31-.11,8.64,0,13a27.34,27.34,0,0,0,3.77,13.86c1.43,2.39,2.55,5,4,7.83-4.08-.08-7.73.31-10.64,3,.66,1.46.53,2.22-1.23,2.71a64.21,64.21,0,0,1-10.12,2.24,271.37,271.37,0,0,1-59.32,0,76.67,76.67,0,0,1-9.33-1.92c-1-.24-2.46-.65-2.25-1.93.12-.74,1.36-1.35,2.18-1.89a9.2,9.2,0,0,1,1.91-.72c-.65-1.32-1.23-2.55-1.86-3.76-1.47-2.82-5.7-3.71-7.66-1.11a9.12,9.12,0,0,1-1.45,1.27l-.34-.17c.08-.51.14-1,.25-1.52,1.66-7.12,3.43-14.22,4.93-21.37a19.23,19.23,0,0,0-.16-5.93,16.37,16.37,0,0,1,.34-6.05c1.46-5.66,3-11.31,3.29-17.19A108.44,108.44,0,0,0,50.16,247a91.77,91.77,0,0,1-.68-24.85c.22-2.36.33-4.74.43-7.11,0-.38-.23-1-.49-1.13-3.52-1.14-4.76-4-5.5-7.21a3.48,3.48,0,0,0-.17-.44c-4.08,3.47-8.8,4.17-13.87,3.31-.56-.09-1.46-.54-1.49-.88-.08-1-.72-2.22.67-2.9a4.47,4.47,0,0,0,.63-.5l-1.56-.81c2.7,1.28,4.17-1,6.37-2.19L28.23,201l.07-.38c1.92.35,3.86.62,5.76,1.07,1.16.27,1.85-.23,2.75-1.07l-8.76-1.73-.11-.44,4.49-2.8L28.53,195l0-.37a25.78,25.78,0,0,1,3.14.47,3.7,3.7,0,0,0,3.18-.74c.94-.61,1.92-1.15,3.24-1.93-2.38-.51-4.34-1-6.33-1.3-.51-.08-1.12.37-1.66.63a3.52,3.52,0,0,1-1.5.54l1.82-1.4L29,190.36c3.41.86,5-2.22,7.51-3.5l-6.73-1.8v-.25a3.64,3.64,0,0,1,.82,0,12.94,12.94,0,0,1,2.88.78c3.78,1.93,6.28-.49,9.23-2.6-2.68-.78-5.11-1.52-7.56-2.16a2,2,0,0,0-1.27.45c-1.3.83-2.57,1.71-3.84,2.56l-.23-.33,4.3-3-3.58-1.18,0-.45c2.58,1,5.12,1.83,7.16-1l-7.13-1.76-.12-.36,3.86-2.56-2.75-.67v-.22a2.14,2.14,0,0,1,.8,0c2,.78,3.74.18,5.4-1.07,1-.77,2.17-1.35,3.24-2.19-2.93-.18-5.72-2.15-8.75-.5l.49-1.26c2.84-.7,4.77-3.26,7.43-4.69l-.08-.35-6.53-1.42-2.83,7c-1.18-1.47-2.37-2.81-3.36-4.27a2.82,2.82,0,0,1-.24-2c.71-2.79-.65-5.17-1.24-7.71l-.45,0a26,26,0,0,0,0,2.94c.44,3.87,1,7.73,1.4,11.6a28.49,28.49,0,0,1-.16,4A29,29,0,0,1,23.33,170a2,2,0,0,1-.26-1.72c.82-2.3,1.63-4.58,1.16-7.08-.06-.31-.14-.62-.31-1.33A15.47,15.47,0,0,1,23,161.8c-.37.52-.78,1.22-1.32,1.39a2.5,2.5,0,0,0-1.71,2.38,14.5,14.5,0,0,0,.43,6.9,6.24,6.24,0,0,1-.56,5.87,15.86,15.86,0,0,1-2.06,2l-.36-.26.81-2.48a3.59,3.59,0,0,0-.69-3.73,3.57,3.57,0,0,1-.75-3.46c.41-1.57.7-3.18,1.11-5l-1.4.36c-.74-2.42-1.53-4.8-2.18-7.23a3.41,3.41,0,0,1,1-3.4c1.22-1.24,1.36-1.94.81-4a15.68,15.68,0,0,0-1.25,2c-1.42,3.21-2.88,6.36-1.65,10.1a11.52,11.52,0,0,1,.16,4.74C13.16,169.8,13,171.54,14.69,173.11Zm100.7-48.3c.16.76.29,1.46.45,2.15.33,1.44,3.46,3.18,4.84,2.65a14.48,14.48,0,0,0,2.83-1.34,2.27,2.27,0,0,0,.76-1.49c0-.28-.44-.77-.79-.94-1.85-.88-3.74-1.68-5.91-2.65,1.23-.6,2.18-1.1,3.17-1.53s2-.78,3-1.18c-.52-.73-1.34-1.39-1.25-1.89.11-.69.9-1.28,1.42-1.9s1.25-1.44,1.9-2.12a34.9,34.9,0,0,0,7.55-11.81c1.38-3.69,2.71-7.41,3.77-11.2A28.43,28.43,0,0,0,138,85c.12-3.07,0-6.15-.09-9.23a1.73,1.73,0,0,0-.68-1.08c-1.12-.88-2.3-1.67-3.43-2.53-1.84-1.4-3.55-3-5.5-4.21-2.74-1.71-4.43-3.85-4.52-7.23-.09-3.63-2.66-5.73-5.31-7.81a25.14,25.14,0,0,0-.2,3.11c-.13,2.26-1,3.25-3.26,3.59-3.18.5-6.38.89-9.54,1.5-1.76.34-3.22.31-4.41-1.27a1.59,1.59,0,0,0-1.56-.17A11,11,0,0,0,98,61.86a28.43,28.43,0,0,1,3.73-.19c2.93.24,5.86.59,8.78.93a18.44,18.44,0,0,1,11.37,5.68c1.06,1.09,1.08,1.62.07,2.76a2.2,2.2,0,0,1-3.56-.14,15.7,15.7,0,0,0-12.14-5.63,42.05,42.05,0,0,1-6.35-.79c-2.06-.33-2.82-1.37-3.17-3.39-.4-2.27-1-4.51-1.56-6.81-2.27.43-3.55-1.1-5-2.31A17.3,17.3,0,0,0,89,53.78c-.86,1.77-2.56,3.1-2.72,5.26,0,.22-.85.61-1.23.54a55.26,55.26,0,0,1-5.38-1.29,2.38,2.38,0,0,0-2.46.47,10.75,10.75,0,0,1-3,1.45c-1.8.66-3.63,1.22-5.45,1.82l.1.37.93-.07A54.09,54.09,0,0,1,83,62.66a6.07,6.07,0,0,1,2.24.8,1.5,1.5,0,0,1,.43,1.32c-.06.27-.7.49-1.12.58s-.64-.15-1-.17a33.67,33.67,0,0,0-6.05-.27c-4,.5-8,1.38-12.07,2a7.82,7.82,0,0,1-3.22,0c-.73-.2-1.26-1.1-1.88-1.69a7.15,7.15,0,0,1,1.79-1.37A34.77,34.77,0,0,1,65.94,63l-7-4.15a32.7,32.7,0,0,1-2.67,2.07c-3.87,2.47-7.36,5.16-7.19,10.4a2.77,2.77,0,0,1-.14.84,11.8,11.8,0,0,0,.67,9.38,3.44,3.44,0,0,1-.29,3.65c-.89,1.4-1.77,2.82-2.75,4.16a4.56,4.56,0,0,0-.32,5.42c1,1.71,2.14,3.45,1.25,5.61a.56.56,0,0,0,.05.41c1.17,2.27,2.32,4.55,3.55,6.79.6,1.09,1.46,2,2,3.15,1.16,2.36,2.19,4.68,4.6,6.21,1.26.8,2.07,2.33,3.08,3.52-1.36.19-1.95-1.68-3.36-.53-.88.73-1.87,1.33-2.77,2,2.5,2.1,4.72,1.18,6.9-.54l.09.47-2.86,1.74c3,1.26,4.88,1.33,5.1.25l-.75-1.15,3.25,1.92c3.57,2.08,7.34,3.66,10.71,6.27,8.29,6.41,21.26,5.45,29-1.56a7.07,7.07,0,0,1,1.65-1.33C110.31,126.89,112.81,125.89,115.39,124.81ZM109,144.3c-3.14-1.55-6-3-8.8-4.32a1.49,1.49,0,0,0-1.05.16c-2.2,1-4.4,2-6.58,3-.33.16-.55.54-.82.82a3.87,3.87,0,0,0,.82.67q3.46,1.5,6.94,2.92a1.82,1.82,0,0,0,1.21.14C103.43,146.67,106.07,145.54,109,144.3ZM33.12,160.18a19.7,19.7,0,0,1,2.73.66c3.64,1.51,6.68.69,9.49-2a49.36,49.36,0,0,1,5.13-3.76c-2.25-.69-4.17-1.3-6.1-1.86a1.1,1.1,0,0,0-.79.16C40.19,155.56,36.83,157.76,33.12,160.18Zm67.32-20.63c2.41,1.2,4.57,2.11,6.54,3.32a4.86,4.86,0,0,0,5.26.11c2.46-1.25,2.52-1.13,2-3.82-.19-1-4.62-3.84-5.58-3.42C106,136.92,103.38,138.19,100.44,139.56ZM60.54,158l0,.36c2.13.62,4.29,1.13,6.37,1.89a6,6,0,0,0,5-.32c1-.48,1.75-.89,1.75-2.09,0-.07.18-.15.4-.32V159l3.36-1.46c-2-1.54-3.74-2.91-5.53-4.22a1.22,1.22,0,0,0-1-.07C67.41,154.83,64,156.44,60.54,158Zm-5.49-1.43c.92.32,1.65.52,2.32.82a4,4,0,0,0,3.76-.17c2.6-1.36,5.32-2.51,8-3.75.53-.25,1-.52,1.57-.78l.05-.48c-2.11-.92-4.19-1.9-6.35-2.7a2.8,2.8,0,0,0-2,.31C59.45,151.48,57.38,154,55.05,156.6Zm20.24-5.44a13,13,0,0,0,6.52,4.23,1.29,1.29,0,0,0,.82,0c2.28-.94,4.55-1.88,6.79-2.9a1.46,1.46,0,0,0,.58-1.11,1.32,1.32,0,0,0-.57-1,9.64,9.64,0,0,0-1.68-.69l-.88,1.54-.22-.08.44-1.72c-1.16-.47-2.24-.94-3.35-1.34a2.09,2.09,0,0,0-1.33-.17C80,149,77.68,150.07,75.29,151.17Zm8.09-6.64-.25-.05a2.4,2.4,0,0,1,0-.5c.39-2.46.28-2.26-1.82-3.4s-4-.65-5.81.71a2.48,2.48,0,0,0-1.28,2.51c2.72,1.07,5.45,2.15,8.18,3.22a1,1,0,0,0,.68,0c2.1-.95,4.18-1.92,6.59-3l-5.52-2.23ZM53.5,146.32c-5.34-2.13-5.42-2.13-10,.5L41.44,148l-4.26,2.45c2.32.72,4.3,1.35,6.29,1.94a1.08,1.08,0,0,0,.79-.09C47.29,150.38,50.29,148.42,53.5,146.32Zm-13.23-4.18c2.27.6,4.13,1.16,6,1.54a3.58,3.58,0,0,0,2.23-.29c2.59-1.4,5.11-2.93,7.65-4.42a11.57,11.57,0,0,0,1-.74c-1.82-.62-3.43-1.19-5-1.7a1.56,1.56,0,0,0-1.07.07C47.57,138.36,44.12,140.15,40.27,142.14Zm4.24,10.61a25.06,25.06,0,0,1,3.32,1c2.56,1.24,4.5.82,6.2-1.59a44,44,0,0,1,4.27-4.56c-1.11-.34-2-.65-2.82-.86-.52-.13-1.23-.34-1.6-.11C50.83,148.57,47.84,150.57,44.51,152.75Zm23.4-6.85c2.24,1.65,4.29,3.17,6.35,4.67a.94.94,0,0,0,.77.15c2.26-1,4.51-2,7.11-3.23L79,146.23l-.43,1.16c.38-1.64-.94-1.7-1.85-2.07-1.32-.53-2.64-1-4-1.49a1.89,1.89,0,0,0-1.31,0C70.25,144.45,69.18,145.15,67.92,145.9Zm42.36,5.84.16.57c2.07,1,4.18,1.82,6.18,2.89a2.83,2.83,0,0,0,3.05-.19c.73-.43,1.39-1,2.09-1.48s.78-.95.14-1.5c-1.08-.93-2.13-1.89-3.27-2.73A2,2,0,0,0,117,149C114.76,149.82,112.53,150.8,110.27,151.75ZM37,141.24a4.08,4.08,0,0,0,4.38-.11c1.47-.93,3.09-1.64,4.65-2.45l4.9-2.53c-1.67-.56-3-1.1-4.35-1.42a3.45,3.45,0,0,0-2.1.2c-1.72.8-3.3,1.89-5,2.61S37.26,139.58,37,141.24Zm9.93,3.14c-2.55-.66-4.73-1.58-6.93-1.64a5.23,5.23,0,0,0-3.87,2.07c-.86,1.32-.78,3.25-1.15,5.15.8,0,1.55.33,2,.07C40.25,148.27,43.43,146.4,46.95,144.38Zm1.56,19.71c-2.52-.56-4.69-1-6.87-1.51a1.17,1.17,0,0,0-.82.07c-2.08,1.45-4.13,2.94-6.27,4.48,4.4,1.4,8.5,2.06,12.11-1.33.2-.19.52-.26.72-.45S48,164.68,48.51,164.09Zm-.36-19.89c2.08.57,3.83,1.08,5.6,1.52a1.33,1.33,0,0,0,.92-.22c2.14-1.39,4.29-2.78,6.38-4.27.33-.23.31-.94.46-1.43-1.34-.35-3-1.36-4-.92A106.8,106.8,0,0,0,48.15,144.2Zm-6.56,17.86c2.49.55,4.6,1,6.71,1.47a.74.74,0,0,0,.61-.23,15.18,15.18,0,0,0,3.42-8,10.89,10.89,0,0,0-2.14.58,18.13,18.13,0,0,0-2.09,1.47Zm63.17-5.76c2,.89,3.61,1.63,5.25,2.34a1.16,1.16,0,0,0,.8.05c2-.81,4.07-1.66,6.48-2.66-2.67-1.23-5-2.3-7.27-3.32a1.09,1.09,0,0,0-.89.19C107.73,153.94,106.37,155,104.75,156.29Zm-61.33-3.39A60.43,60.43,0,0,0,36.9,151a2.68,2.68,0,0,0-2.21,1.34A37.73,37.73,0,0,0,33.36,158a5.85,5.85,0,0,0,.11,1.41ZM90,138.18c-1.86-.19-3.67,0-5.22-.61-2.38-.88-3.8.42-5.67,1.68L90,143.57Zm11,17a4.08,4.08,0,0,0-5,0A16.23,16.23,0,0,1,93,156.6a1.79,1.79,0,0,0-1.32,1.88,1.83,1.83,0,0,0,1.32,2c.53.19,1,.6,1.52.75a1.45,1.45,0,0,0,1.2-.11C97.54,159.19,99.27,157.18,101,155.21Zm10.17,3.88c2.79,1.41,5.14,2.9,8.23,1.92a40.4,40.4,0,0,1,5.78-1,61.34,61.34,0,0,0-6.87-3.53,1.32,1.32,0,0,0-.93,0C115.4,157.33,113.44,158.15,111.16,159.1ZM73.39,138.84c-.18-1.47-1.76-2.46-2.91-1.78s-2.41,1.53-3.56,2.37c-.84.61-.72,1.41.24,1.79,1.32.53,2.65,1.06,4,1.46a2.26,2.26,0,0,0,1.56-.23c.66-.36,1.16-1,1.82-1.39,1-.57,2.09-1,3.32-1.58-1.23-.54-2.13-.89-3-1.32S73.62,137.88,73.39,138.84Zm-19.48-9c3,1.51,5.76,2.69,8.67.29a7.27,7.27,0,0,1,1.13-.59c.69-.39,1.72-2.76,1.27-3-.9-.5-2.21-1.21-2.95-.89C59.26,126.87,56.66,128.42,53.91,129.89ZM36.22,172.67l.09.33a25.07,25.07,0,0,1,3.83.73c2.48.87,4.45.15,6.35-1.45a1.94,1.94,0,0,0,.83-2.32c-1.75-.25-3.71-1.07-5.32-.62C39.93,169.92,38.13,171.52,36.22,172.67ZM29,198.34l.05.33a59.32,59.32,0,0,1,6.34,1.28c3,.95,4.54-1.4,6.6-2.63-2.65-.56-5.25-1-7.86-1.38a2.12,2.12,0,0,0-1.23.12C31.56,196.78,30.28,197.58,29,198.34Zm29.6-66.12c-1.81-.63-3.28-1.15-4.76-1.64a1.44,1.44,0,0,0-.94-.09c-2.17,1.09-4.3,2.23-6.76,3.52,1.92.63,3.47,1.17,5,1.65a1.4,1.4,0,0,0,.94-.12C54.16,134.51,56.21,133.44,58.58,132.22Zm55,14.38c-1.21-.62-2-1.06-2.79-1.4-.53-.22-1.23-.53-1.68-.36-2.64,1-5.23,2.14-8.15,3.37,1.63.7,2.93,1.36,4.31,1.8.85.27,1.62,0,1.45-1.21a2.32,2.32,0,0,1,.11-.68h.2l.39,1.4ZM63.37,133.94c-1.12-.41-2-.77-3-1.06-.52-.16-1.19-.42-1.6-.23-2.14,1-4.21,2.11-6.31,3.19l0,.5c2,.44,4.16,1.52,6,1.13A6.73,6.73,0,0,0,63.37,133.94ZM44.2,188.84c-2.38-.62-4.39-1.15-6.4-1.66a.78.78,0,0,0-.55.06c-1.66,1-3.32,2.09-5.3,3.35,2.35.51,4.28.93,6.22,1.33a1.31,1.31,0,0,0,.83,0C40.64,190.95,42.25,190,44.2,188.84Zm94.93-.25c1.81-.62,3.43-1.12,5-1.72a1.77,1.77,0,0,0,.19-2.84c-1.91-1.09-3.9-2-6.15-3.2ZM70.68,161l0,.32c2.23.56,4.49,1,6.66,1.72,1.67.55,2.91.09,4.29-1-1.22-1.24-2.4-2.45-3.61-3.62a.86.86,0,0,0-.75-.14C75.08,159.1,72.89,160,70.68,161ZM57.54,123.75a14.28,14.28,0,0,1-1.7-.63,2.54,2.54,0,0,0-3.4.56,3,3,0,0,1-1.76.65A10,10,0,0,0,45,127.07c1,.35,1.76.65,2.54.85s1.52.54,2,.29C52.19,126.87,54.7,125.37,57.54,123.75Zm52.16,35.4c-.59-.31-.91-.5-1.24-.65-4.12-1.9-4.12-1.91-7.31,1.3-1,1-2,2.15-3.05,3.22l.22.4a6.63,6.63,0,0,0,1.4-.19c1.07-.38,2.1-.87,3.17-1.27,1.35-.5,2.74-.91,2.41-2.84,0-.17.18-.37.28-.56l.2.05-.18,2.22Zm13.6-15.53c-1.19.21-1,1.13-.88,1.89a11.19,11.19,0,0,0,3.28,6c.65.63,1.24.76,1.82.24a1.67,1.67,0,0,0,.35-1.39c-.34-1.43-.82-2.82-1.24-4.23A6.09,6.09,0,0,0,123.3,143.62Zm-92.09,32.2,5.3,1.28a5.93,5.93,0,0,0,6-2.5,34.48,34.48,0,0,1-4.75-.91C35.06,172.81,33.36,174.38,31.21,175.83Zm4.2,4.55,6.7,2A4.17,4.17,0,0,0,45.86,181c.37-.62.35-1.13-.58-1.32A23.68,23.68,0,0,1,41,178.61C38.66,177.67,37.18,179,35.41,180.38ZM105,150.5c-1.43-.62-2.51-1.13-3.61-1.55a2.39,2.39,0,0,0-1.47-.25c-2.11.79-4.17,1.7-6.6,2.72,1.6.67,2.84,1.21,4.1,1.73s1.67.37,2-1c.18-.73.38-1.46.56-2.19l.33.08-.52,2.84Zm-54.88-22v.43c1.12.25,2.45,1,3.31.64,2.76-1.16,5.35-2.73,8-4.14l0-.51c-1.29-.22-2.81-1-3.83-.55A70.54,70.54,0,0,0,50.14,128.46Zm41.63,16.42c0,2-.05,3.7.06,5.43,0,.25.9.75,1.2.64,2.16-.8,4.28-1.73,6.69-2.73Zm-20.18-8.55,4.62,1.81.86-1.46L77,138.36c1.54.72,2.94.24,4.62-1.52-1.78-.95-3.56-1.91-5.36-2.84a1.11,1.11,0,0,0-.9-.06C74.13,134.66,73,135.43,71.58,136.32Zm43.56,25.32c-2.69-1.45-4.87-2.77-7.76-1.09a60.93,60.93,0,0,1-7.54,3.19l.09.33ZM34.27,195.47,43,196.84l.5-3.14C39.64,192.22,37.51,192.61,34.27,195.47ZM91.88,138V143l7.24-3.34C96.9,137.65,94.45,137.59,91.88,138ZM90,152.79l-7.15,3c1.93.85,3.56,1.61,5.21,2.28a1.25,1.25,0,0,0,1.9-1A38.83,38.83,0,0,0,90,152.79ZM119,140.06c1-.43,1.88-.74,2.69-1.12s1.48-2.86.7-3.31c-1.51-.88-3.14-1.54-5-2.45Zm-74.4,48.36.89-4.69c-.89-.12-1.78-.54-2.3-.26-1.7.89-3.27,2-5.17,3.26ZM39.43,177.8l6.81,1.59.62-3.81C43.87,174.46,42.63,174.83,39.43,177.8Zm-5.74,28.37c1.11.37,1.93,1,2.59.81,2.25-.5,4.45-1.24,6.64-2,.18-.06.19-.64.29-1-1.65-.2-3.38-.81-4.92-.49S35.43,205.13,33.68,206.17Zm117-6.58c-4.37-2.73-5.78-2.89-8.75-1.06C145.46,201.38,147,201.58,150.67,199.58ZM118.49,156l7.55,3.6c.16-.85.61-1.71.35-2.11a27.35,27.35,0,0,0-2.73-3.18s-.18,0-.27,0Zm-10.06-20.72c-1.22-1.17-2.22-1.37-3.54-.49a19.56,19.56,0,0,1-4,1.8c-1.21.45-2.49.74-3.73,1.11l0,.39c1.08.32,2.35,1.17,3.2.87C103.05,138,105.64,136.59,108.43,135.29ZM42.66,132.7l0,.38c1.08.19,2.33.82,3.2.48a61.51,61.51,0,0,0,6.37-3.26l0-.36c-1.11-.26-2.43-1-3.3-.67A53.39,53.39,0,0,0,42.66,132.7Zm32.57.73c-.39-.31-.61-.5-.84-.66-.54-.38-1.24-1.17-1.62-1A52.29,52.29,0,0,0,67.44,134c-.11.05-.11.72-.05.74,1.35.41,2.79,1.22,4.07,1S73.86,134.31,75.23,133.43Zm10,27.28,4.39,5.07.44-.2c0-1.87.1-3.74-.09-5.59,0-.33-1.29-.88-1.84-.75A13.35,13.35,0,0,0,85.2,160.71Zm-1.43-13.42c1.47.49,2.58,2.22,4.31,1-.19,1.53,1,1.27,1.83,1.55v-5.43ZM48.47,128.75c-1.18-.39-2.2-.77-3.25-1.05a1.19,1.19,0,0,0-1,.2c-1.23,1.35-2.4,2.76-3.64,4.21C42,132.74,44.78,131.48,48.47,128.75Zm68.25,3.58,5.89,2.81.56-3.33C121.07,130.18,119.08,130.35,116.72,132.33ZM107,133.66c1.1,1,2.21,1.6,3.64.62.5-.34,1.15-.47,1.65-.82a2.27,2.27,0,0,0,1-1.12,1.39,1.39,0,0,0-1.28-1.7,2.33,2.33,0,0,0-1.6.16C109.26,131.63,108.23,132.62,107,133.66Zm17.64-7.86-.34-5-5.65,2.35ZM54.91,145.91c4,1.93,6,.59,6.09-4Zm39.15,8.5-.26-.07c.09-.48.37-1,.22-1.41a2.06,2.06,0,0,0-1.13-1.08c-.27-.09-1.05.39-1.07.65-.11,1.33-.05,2.67-.05,4.27l6-3-3-1.25Zm29-11.71.26.26,2.73-.94c1.87-.66,2.35-1.34,1.89-3.22a2.07,2.07,0,0,0-1.48-1.16c-.46-.06-1.47.6-1.45.88A4.39,4.39,0,0,1,123.08,142.7ZM134,155.92v-6.2c-.75.64-2.32.16-2.21,1.74C132,155.62,131.21,154.87,134,155.92Zm-95.64-18.2,6.45-3.46C41,132.11,38.76,134.49,38.31,137.73Zm33.9-6.51-4.05-3.39-.73,5.47Zm-5.94,10.22c-.14.85-.24,1.45-.34,2.05a3,3,0,0,0,0,.42c0,.89,1.13,1.85,1.89,1.48,1.15-.56,2.23-1.28,3.58-2.07ZM99.39,154a16.74,16.74,0,0,0,1.56.66c.46.15,1.14.43,1.41.23,1.44-1.1,2.78-2.34,4.15-3.52l-.22-.4C103.7,151.08,101.7,152.83,99.39,154Zm-17.87,2.39-.43.61c1.13,1,2.24,2,3.4,3a1.13,1.13,0,0,0,1,.12c.81-.36,1.57-.82,2.73-1.45C85.68,157.91,83.91,156.16,81.51,156.34Zm63.3,50.25a7.8,7.8,0,0,0,8-1.29c-.9-.3-1.77-.93-2.43-.75A57.42,57.42,0,0,0,144.82,206.58Zm-.87-23.28a8.43,8.43,0,0,0-4.06-4.34c-.39-.21-1.17.31-1.77.49.15.36.21.89.48,1C140.35,181.48,142.15,182.38,143.94,183.31ZM37.86,203.15c-3.18-1.57-4.65.87-6.61,2.07.74.3,1.59.75,2.15.5A45.42,45.42,0,0,0,37.86,203.15ZM140,193.85c0,1.32,0,2.17,0,3,0,1,.61,1.32,1.49,1.07s1.81-.62,3-1Zm-29.78-49.47a20.3,20.3,0,0,0,3.29,1.56,1.74,1.74,0,0,0,1.44-.94,8.25,8.25,0,0,0-.26-2.56ZM47.55,165.79l-4.87,3,4.87.79Zm92.17,27.27a20.06,20.06,0,0,0,2.42-.6,1.59,1.59,0,0,0,.75-.87.88.88,0,0,0-.31-.78c-1-.62-2.1-1.17-3.44-1.91Zm-5.63-25.27c.4,1.46.22,3,2.09,3.5.8-1.28,1.3-2.54.61-4.08Zm-20-30-.64-4.28-3.84,1.78Zm19.81,29.52,3.05-.67-3.2-4.2-.52.29Zm3.12,4.79a13.94,13.94,0,0,0,1.9,1.3c.32.15,1.07.1,1.18-.1a6.27,6.27,0,0,0,.77-2.24c.11-1-.57-1.41-1.42-.85S137.9,171.4,137,172.09Zm-3.06-23,.4-.17c0-.88,0-1.77-.15-2.65a1.06,1.06,0,0,0-1.55-.94,2,2,0,0,0-1.16,1.22C131.23,148.44,133.16,148.19,134,149.07ZM39.83,192l0,.34,3.8.76.69-3.78Zm-1.4,8.4c1.67.52,3.18,1.11,4.32-.21.47-.54.33-1.6.47-2.43l-.39-.19ZM94.93,162l-3.09-1.5V165Zm41.67,12.82c.89,3,1.43,3.84,1.95,3.46l1-4.06ZM64.33,129.75l-4.62,2.36,3.7,1.24Zm75.6,59.09,3.31,1.78,1.25-3.32Zm-77.1-53.18-4.32,2.51,3.38,1.11Zm7.62.83-3.35-1.18-.5,3.76ZM36.2,201.9c2,1,2.78.9,4.08-.47C37.88,200.61,37.79,200.62,36.2,201.9ZM127.67,142l-3.78,1.39,2.65,1.46Zm-88,60.84,4.06.69c-.41-.84-.5-1.46-.82-1.63C41.71,201.29,40.7,201.74,39.63,202.82Zm93.16-44c1.07-2.37,1-2.72-.91-3C131.72,156.93,131.35,158.08,132.78,158.82Zm-12-28.68,2.61,1,.65-2.52ZM47.33,172.22l-3.19,2.2,2.8.47Zm72.14-42.06-3.17-1.28.63,2.46ZM29.12,207l3.12-.24,0-.5C31.09,205.54,30,205.27,29.12,207Zm109.13-32.73.22-.72-2.22-.83-.29,1Zm1.63,19.29,3.1,1.57-.44-2.21ZM80.15,163.67l3.27.73C82.34,162.23,82,162.14,80.15,163.67Zm44.64-28.57c.5,1.65,1.22,1.94,2.76,1.2Zm-88.51,8.56,2.7-1.32-2.2-.49Zm97.3,5.66-2.08-1.18.17,1.89c.35-.1.53-.13.7-.2S133,149.59,133.57,149.33ZM65.41,125.91c-.58-1.8-.87-1.87-2.24-.74Zm56,14-.2-.23-2.2.92,1.47.78Z"/><path class="cls-1" d="M104.76,113.22c-4-.88-7.82-1.94-11.74-2.53a18.79,18.79,0,0,0-11.64,1.57C79.74,113.1,78,114,76,113.8c-.33-2.12-.7-4.12-.94-6.13-.13-1.1.28-1.8,1.62-2,2.7-.39,5.37-1,8-1.58,4.26-1,8.48-.5,12.71.11,2,.29,4,.72,6,1a1.89,1.89,0,0,1,1.85,2.21c-.08,1.65-.1,3.3-.2,5A2.53,2.53,0,0,1,104.76,113.22Z"/><path class="cls-1" d="M122.16,76.94l-4.25,3.52a16,16,0,0,0-9.18-10c-4.72-2-9.41-2-14,.77a4.65,4.65,0,0,1,.5-.65c4-3.65,9.43-4.15,14.5-1.1A42.53,42.53,0,0,1,116,74.12a7.25,7.25,0,0,0,4.22,2.05,16.17,16.17,0,0,1,1.78.37Z"/><path class="cls-1" d="M98.93,114.92a6.61,6.61,0,0,1-6.11,2.41,21.2,21.2,0,0,0-4.64.25c-1.69.22-3.15-.9-2.86-2.35l-2.17-1.36.19-.43a7.34,7.34,0,0,1,1.42.48,2.19,2.19,0,0,0,2.61-.06c1.13-.74,2.41-1.51,3.75-.22a.74.74,0,0,0,.65.06c1.55-.67,2.82,0,4.19.65A12.43,12.43,0,0,0,98.93,114.92Z"/><path class="cls-1" d="M62.77,80.24l-4.12-3.41c.18-.19.24-.31.3-.32,2.95-.2,5.15-1.7,7.24-3.7A19.25,19.25,0,0,1,75,67.76a9.67,9.67,0,0,1,9,2.11,15.11,15.11,0,0,0-13,.66A16.48,16.48,0,0,0,62.77,80.24Z"/><path class="cls-1" d="M86.74,98.4a16.64,16.64,0,0,0,3.74,1.15,20.21,20.21,0,0,0,4.31-.65,4.5,4.5,0,0,1-3.57,1.59,6.41,6.41,0,0,1-4.62-1.69Z"/><path class="cls-1" d="M95.75,80.74c.38.5,1.09,1,1,1.48a1.28,1.28,0,0,1-2.57.06c-.08-.44.59-1,.92-1.53Z"/><path class="cls-1" d="M86.49,82.54c-.52.35-1.07,1-1.55,1s-.92-.79-1.38-1.22c.45-.44.85-1.18,1.35-1.24s1.05.57,1.58.89Z"/></g></g></svg>