<svg xmlns="http://www.w3.org/2000/svg" viewBox="0 0 208.77 114.08"><defs><style>.cls-1{fill:#fcbe7a;}.cls-2{fill:none;stroke:#fcbe7a;stroke-miterlimit:10;}</style></defs><title>Asset 5</title><g id="Layer_2" data-name="Layer 2"><g id="Layer_1-2" data-name="Layer 1"><path class="cls-1" d="M187.39,31.5S164.33-1.62,145,.06s-37.31,22.22-37.31,22.22S84.27-1.2,62.47,3,19.29,22.28,19.29,22.28-.41,59.17,0,86.42,34.8,114.08,34.8,114.08s43.6-12.58,95.58-7.13,78.39-36.05,78.39-36.05ZM108.08,91.74S11.53,95.41,3.16,80c0,0,28-32.71,46.57-38.72s54.65-2.88,54.65-2.88,25.68-24.07,40.07-19.1,52.33,48.93,52.33,48.93Z"/><path class="cls-2" d="M14.8,65.64a18.71,18.71,0,0,1,1.25,6,12.57,12.57,0,0,0,1.73,5.89c1.17,1.7,3.42,2.84,5.35,2.11,1.72-.64,2.65-2.45,3.92-3.78a27.43,27.43,0,0,0,2.86-2.83,10.6,10.6,0,0,0,1.37-3.48l1.78-6.81a11.56,11.56,0,0,0,.53-3.33C33.51,57,31.92,54.92,30.4,53"/><path class="cls-2" d="M36.36,47.27a65.2,65.2,0,0,1-1.2,6.85,22,22,0,0,0,0,9.3,11.28,11.28,0,0,0,5.39,7.33,7.67,7.67,0,0,0,8.71-1c-1.48-2.42.37-5.43,1.92-7.81A42.6,42.6,0,0,0,55.24,54a4.66,4.66,0,0,0,.43-2.79,16.26,16.26,0,0,0-1.42-2.53,7,7,0,0,1-.34-3.47l.46-6.63"/><path class="cls-2" d="M56.51,38.91c2.38,2.38,2.28,6.17,2.47,9.52a38.89,38.89,0,0,0,3.34,13.77,7.75,7.75,0,0,0,2.41,3.37,5.79,5.79,0,0,0,5,.49,17.13,17.13,0,0,0,4.51-2.52,15,15,0,0,0,3.38-2.9,13.49,13.49,0,0,0,2.15-5.06,65,65,0,0,0,2-15.59c0-1.29-.15-2.8-1.26-3.45a5,5,0,0,1-5.09.4"/><path class="cls-2" d="M85,39a5.65,5.65,0,0,0-1.43,2.83,52.64,52.64,0,0,0-1,23.44,57.23,57.23,0,0,1,17.1-1.64,25.33,25.33,0,0,0,1.66-16c-.73-3.23-2.12-6.46-1.62-9.74"/><path class="cls-2" d="M102.24,39.17A91.35,91.35,0,0,1,105.34,63l17.27-1.2-3-16.18c-1.18-6.44-2.36-12.95-2.09-19.49"/><path class="cls-2" d="M122,25.84a13.21,13.21,0,0,0-.5,9.73c.5,1.45,1.25,2.8,1.84,4.22,1.34,3.23,2,7,4.61,9.29a7.4,7.4,0,0,0,12.26-6.17,4.28,4.28,0,0,0-.37-1.5,13.38,13.38,0,0,0-1.51-2,8.17,8.17,0,0,1-1-6.44c.44-2.19,1.35-4.26,1.87-6.44a18.64,18.64,0,0,0,.08-8.28"/><path class="cls-2" d="M146.85,22.55c1.75.92,1.68,3.45,1.14,5.35-.9,3.17-2.38,6.15-3.25,9.32s-1.06,6.74.55,9.61a1.28,1.28,0,0,0,.57.61,1.32,1.32,0,0,0,.81,0,14.69,14.69,0,0,0,8.39-5.81,29.1,29.1,0,0,0,1.87-3.27l4.25-8.22"/><path class="cls-2" d="M164.4,37.08c-.84,2-2.43,3.61-3.58,5.46a13.8,13.8,0,0,0-2,7.79,4.49,4.49,0,0,0,.26,1.48,3.85,3.85,0,0,0,1.39,1.63c3.48,2.48,8.29,1.15,12.49,1.94a4.83,4.83,0,0,0,2.56.11c1.1-.41,1.6-1.64,2.21-2.64s1.82-2,2.85-1.4"/><path class="cls-2" d="M22,87.54A39.24,39.24,0,0,1,34.51,73.27a6.21,6.21,0,0,0,2.57,5.85,5.62,5.62,0,0,1,1.83,1.48,5.57,5.57,0,0,1,.36,2.71c.11,2.87,2.11,5.25,3.86,7.52.29.38.52,1.06.07,1.25"/><path class="cls-2" d="M44.59,91.47c-1-4.76-1-9.69-.91-14.56a6.31,6.31,0,0,1,.94-4c1.35-1.67,4-1.51,5.92-.51S54,75.05,55.9,76a4.71,4.71,0,0,1,1.75,1.13,3.74,3.74,0,0,1,.59,1.74l2.32,14.45"/><path class="cls-2" d="M67.24,91.26c-.92-.23-1.38-1.23-1.66-2.13a22.61,22.61,0,0,1-.82-9.77c.42-3.07,1.46-6.29.36-9.18,2.44-1.7,5.61-1.82,8.58-1.89a2.23,2.23,0,0,1,1.19.19,2.2,2.2,0,0,1,.82,1.31A113.27,113.27,0,0,1,78.95,83.5l1.69,8.76"/><path class="cls-2" d="M79.56,78.89a15.56,15.56,0,0,1,4.86-1.66,5.45,5.45,0,0,1,4.71,1.55c1.09,1.25,1.3,3,1.47,4.68l.94,9.61"/><path class="cls-2" d="M95.1,91.79a7.19,7.19,0,0,1,0-3.89c.52-2.67,1.19-5.58,3.37-7.21a4.61,4.61,0,0,1,3.28-.95,3.42,3.42,0,0,1,2.71,2,13.46,13.46,0,0,1,.45,3.2,14.27,14.27,0,0,0,2,4.46c.8,1.44,1.44,3.13,1,4.7"/><path class="cls-2" d="M112.5,89.63c3.28-5.29,2.52-12.13,4.63-18a4.15,4.15,0,0,1,1.17-1.92c1.41-1.13,3.63-.19,4.66,1.29s1.34,3.34,2.07,5a20.69,20.69,0,0,0,2.08,3.43l4.46,6.39"/><path class="cls-2" d="M138.91,83.38A32.86,32.86,0,0,1,136,71.69a8.44,8.44,0,0,1,.2-3.45A3.17,3.17,0,0,1,138.59,66a14.13,14.13,0,0,1,2.35.24c1.21.06,2.54-.48,3.56.17a3.58,3.58,0,0,1,1.25,2.11l3.49,11.23"/><path class="cls-2" d="M171.21,77.58a38.38,38.38,0,0,0-6.54-7.12l-4.48-4.12A29.3,29.3,0,0,0,155,62.27a1.19,1.19,0,0,0-.95-.21,1.24,1.24,0,0,0-.61.75l-1.61,3.71a8.24,8.24,0,0,0-.86,2.91,8.23,8.23,0,0,0,.46,2.58,13.44,13.44,0,0,0,1.67,4,5.71,5.71,0,0,1,.77,1.22c.43,1.17-.27,2.41-.85,3.52s-1,2.59-.11,3.49"/><path class="cls-2" d="M173.74,75.78c.43-3.56-.77-7.22,0-10.71a19.26,19.26,0,0,1,2.47-5.39c.85,1.9,2.67,3.15,4,4.72,2.44,2.83,3.51,6.86,6.61,9"/></g></g></svg>