<svg xmlns="http://www.w3.org/2000/svg" viewBox="0 0 226.56 153.8"><defs><style>.cls-1{fill:none;stroke:#fcbe7a;stroke-miterlimit:10;}.cls-2{fill:#fcbe7a;}</style></defs><title>psy-cat</title><g id="Layer_2" data-name="Layer 2"><g id="Layer_3" data-name="Layer 3"><path class="cls-1" d="M179.73,101.07l-8.07-6.49c0-.41,0-.82,0-1.23s0-1.1-.05-1.65L179.77,85l-11.18-4.2v0a32.43,32.43,0,0,0-3.72-5.63l-.42,2.52L144.83,61.63a65.33,65.33,0,0,0-41.29-.77l.48.24L80.8,76.46l0-.63a32,32,0,0,0-3.38,5.3l-10.12,3.8,7.27,6q-.11,1.22-.11,2.45,0,.93.07,1.85L67.29,101,77,104.72q.62,1.33,1.38,2.62l-3.93,7.44,9.52-.35c7.52,7.41,18.91,12.59,32,14v-.53h-1l1-4.57V111.25h10.88v10.94l1.24,5.7h-1.24v.73h-8.63c1.61.12,3.23.19,4.88.19,16,0,30.2-5.63,39.06-14.33l10.5.39-4.4-8.33a28.76,28.76,0,0,0,1.83-4l-.38,2.43ZM90.29,111.4c12.75,0,23.07-2.61,23.07-5.83C113.36,108.79,103,111.4,90.29,111.4ZM89,103.45c10.76,0,19.47-2.07,19.47-4.62C108.49,101.38,99.78,103.45,89,103.45Zm22-15.17L103.62,91,96,92.43,95.24,86,98.09,74.4l6.14-.67,11,6.72Zm11.63,13.57h-2.53l-3.16-8h8Zm3.63-20.72,11-6.72,6.14.67,2.85,11.56-.76,6.47-7.62-1.4L130.46,89Zm3.55,25.5c0,2.59,7.76,4.68,17.35,4.68C137.63,111.31,129.87,109.21,129.87,106.63Zm0-4.77c0,.88,8.14,1.6,18.2,1.6C138,103.45,129.87,102.74,129.87,101.85Z"/><path class="cls-1" d="M83.82,72.38,82.76,55.06,98.3,62.81q2.52-1.09,5.24-2L79.1,48.67l1.65,27.16A36.67,36.67,0,0,1,83.82,72.38Z"/><path class="cls-1" d="M104,61.09l-.48-.24q-2.71.87-5.24,2l.82.41L83.87,73.31l-.06-.92a36.67,36.67,0,0,0-3.06,3.44l0,.63Z"/><path class="cls-1" d="M83.87,73.31,99.12,63.22l-.82-.41a46.85,46.85,0,0,0-14.48,9.57Z"/><path class="cls-1" d="M147.12,62.1l17.11-6.43-2.66,16a37.44,37.44,0,0,1,3.3,3.54L169,50.28l-26.06,9.79,1.89,1.55q1.72.63,3.37,1.36Z"/><path class="cls-1" d="M164.87,75.23a37.44,37.44,0,0,0-3.3-3.54l-.33,2L148.19,63q-1.64-.72-3.37-1.36l19.62,16.12Z"/><path class="cls-1" d="M98.09,74.4,95.24,86,96,92.43l7.62-1.4,7.44-2.74,4.14-7.83-11-6.72Zm3.5,6.82a2.53,2.53,0,1,1,2.53-2.53A2.53,2.53,0,0,1,101.6,81.23Z"/><path class="cls-1" d="M137.9,91.7l7.62,1.4.76-6.47-2.85-11.56-6.14-.67-11,6.72L130.46,89Zm.64-5.56A2.53,2.53,0,1,1,136,88.68,2.53,2.53,0,0,1,138.55,86.14Z"/><circle class="cls-1" cx="101.6" cy="78.69" r="2.53"/><circle class="cls-1" cx="138.55" cy="88.68" r="2.53"/><polygon class="cls-1" points="120.16 101.85 122.69 101.85 125.01 93.84 116.99 93.84 120.16 101.85"/><polygon class="cls-1" points="115.91 123.31 114.92 127.89 115.91 127.89 115.91 126.01 115.91 123.31"/><polygon class="cls-1" points="126.79 127.89 128.03 127.89 126.79 122.19 126.79 126.01 126.79 127.89"/><path class="cls-1" d="M161.24,73.71l.33-2A47.19,47.19,0,0,0,148.19,63Z"/><polygon class="cls-2" points="68.49 73.92 64.11 42.17 53.23 53 53.12 17.5 37.75 31.32 45.73 0 14.31 39.98 27.71 34.04 32.74 48.91 44.2 33.5 49.24 67.97 59.94 55.75 68.49 73.92"/><polygon class="cls-2" points="211.84 16.78 226.56 29.81 200.94 34.8 214.93 45.84 187.01 54.06 196.41 62.2 172.31 62.99 184.31 56.52 181.59 51.22 197.49 40.13 193.52 30.62 211.84 16.78"/><polygon class="cls-2" points="9.01 125.44 0 107.97 25.7 112.58 16.64 97.23 45.65 99.66 39.83 88.68 62.58 96.65 49.05 98.35 49.67 104.26 30.84 108.86 31.1 119.16 9.01 125.44"/><polygon class="cls-2" points="217.19 137.15 207.86 153.79 199.88 130.9 190.11 146.08 181.68 107.06 195.59 124.89 206.36 116.19 217.19 137.15"/></g></g></svg>