<svg xmlns="http://www.w3.org/2000/svg" viewBox="0 0 718.91 867.17"><defs><style>.cls-1{fill:#fcbe7a;}</style></defs><title>ryan</title><g id="Layer_2" data-name="Layer 2"><g id="Contours"><path class="cls-1" d="M548.13,867.17a9.29,9.29,0,0,1-2.28-.21c-.31-.58-.34-1-.51-1.33-8.32-16.43-18.62-31.86-24.64-49.46-3.27-9.56-5.79-19.15-2.35-29.09,2.83-8.2,6-16.29,9.44-24.26,5-11.62,10.32-23.07,15.46-34.62,2.39-5.36,4.7-10.76,7-16.15a4.33,4.33,0,0,0,.09-1.41l-2,0c-5.74,0-11.48,0-17.21-.09-4-.08-8.67-1.81-11.78-.26-4.56,2.28-8,6.8-11.9,10.42-1,.92-1.72,2.13-2.73,3s-2.34,1.31-3.17,2.26c-2.27,2.6-4.17,5.53-6.55,8-1.5,1.57-3.51,3.47-5.43,3.65-2.94.26-4.67.84-5.44,3.9a10.88,10.88,0,0,1-2.58,4.29c-3.8,4.25-8.16,8.06-11.51,12.62-3,4.09-6.18,8.71-7.15,13.52-2.6,12.91-5.25,25.93-4.34,39.25.36,5.36,1.09,10.14,7.08,13.25,6.61,3.43,9.84,9.89,11.3,17.49,1.18,6.15,3.66,11.42,11,14.08,5.46,2,11.75,4.77,14.53,11.13q-143.21,0-286.64-.21c-2.94-8.74-5.4-17.38-8.47-25.8-5.85-16.07-12.12-32-18.07-48-4-10.66-7.53-21.46-11.49-32.12-2.08-5.62-4.68-11-6.91-16.61a22,22,0,0,1-1.6-5.94c-.15-1.55.48-3.18.76-4.77,1.49,1.08,3.31,1.92,4.33,3.33.57.79-.29,2.54-.31,3.86a26.63,26.63,0,0,0,.35,3.41c.76-.65,1.81-1.15,2.25-2a8,8,0,0,0-2.83-10.22c-3.46-2.43-4.17-2.15-5.49,2-.15.48-.66,1.14-1.06,1.18-.72.07-1.84,0-2.17-.47a60.72,60.72,0,0,1-3.61-5.95,9.4,9.4,0,0,1-.59-2.23c.75-.07,1.5-.21,2.24-.21,1.5,0,3.07.39,4.47.05,4.26-1,6.42-.17,8.39,3.62a9.75,9.75,0,0,0,2,2.07c3.86,3.8,8.61,7.25,4.5,13.76-.56.89-.23,2.46,0,3.68.47,3.24.94,6.48,1.71,9.66a4,4,0,0,0,2.22,2.52,37.17,37.17,0,0,0,5.84.94c.61.1,1.51.13,1.76.53,1.68,2.61-.76,9.29-3.66,11.2a3.7,3.7,0,0,0-1.17,3.25c1.79,6,3.61,12,5.89,17.85,3.39,8.67,7.07,17.24,10.81,25.77,2.52,5.73,5.27,11.36,8.15,16.92.68,1.31,2.25,2.16,3.41,3.23,0-1.44.51-3.06,0-4.28-2.67-6.49-5.68-12.84-8.37-19.32-1.12-2.71-1.5-5.73-2.62-8.44-3.43-8.25-7.21-16.35-10.52-24.64-1.25-3.13-3.39-6.56-.95-10,.91-1.29,2.67-2,4-2.94,0,1.49.06,3,.08,4.48,0,.26-.14.56-.06.79.63,1.81,1.3,3.6,2,5.4,1.55-.74,3.11-1.46,4.66-2.22.6-.29,1.15-.66,1.73-1,.25.65.48,1.32.77,2a66.49,66.49,0,0,0,2.89,6.26c1.37,2.36,3.11,4.51,4.54,6.83.78,1.27,1.27,1.84,2.48.37,1.61-1.94,1.15-2.95-1.06-3.88-1.3-.54-2.84-1.42-3.38-2.56-.46-1,.21-2.62.69-3.85.17-.44,1.68-.92,1.86-.72,3.42,3.71,7.42,3.87,11.86,2.28.39-.14,1.56.6,1.58,1a2.8,2.8,0,0,1-.8,2.22c-6.82,3.83-8.74,7.46-7.35,14.56.13.68.93,1.24,1.42,1.85a6.18,6.18,0,0,0,.53-2.29c-.58-3.18.82-4.77,3.37-3.06,2.91,2,3.95.16,5.29-1.43.89-1.06,1.21-2.63,2.15-3.62s2.17-1.24,3.28-1.82a17.31,17.31,0,0,1,1.26,3.55c.11.8-.64,1.68-.71,2.55a15.49,15.49,0,0,0,.27,2.91c.76-.69,2-1.27,2.21-2.1a7.37,7.37,0,0,1,4.35-5.17c.68-.33.83-1.62,1.46-2.22a7.33,7.33,0,0,1,2.89-1.92c.85-.23,1.91.35,2.88.56-.63.82-1.27,1.63-1.87,2.47-.18.25-.43.71-.33.85,2.51,3.6,1.41,7.34.61,11.13-.13.64.78,1.49,1.21,2.25,1.46-1.74,3.24-3.32,4.26-5.29.53-1,.17-3.54-.6-4-3.6-2.1-1-3.54.44-4.66a21.89,21.89,0,0,1,6-3.33c1.59-.56,3.47-.31,5.22-.42,0,1.44-.06,2.88-.09,4.32a6.09,6.09,0,0,0,0,2.06,12.41,12.41,0,0,0,1.36,2.24c.64-.43,1.65-.74,1.85-1.32,1.52-4.43,5.6-3.84,8.88-4.39s3.88,1.57,3.68,4.46a96.56,96.56,0,0,0,.08,10c0,.39.73.76,1.12,1.13a3.64,3.64,0,0,0,.39-.67c1.12-3.41,2.55-6.75,3.22-10.25.55-2.86,2.78-1.71,3.14-1.15a25.82,25.82,0,0,1,2.56,6.28,13.13,13.13,0,0,0-2.25,1.55c-.06.05.28.58.44.88.58-.58,1.17-1.14,1.72-1.74.16-.17.2-.46.5-.69,3.51-1.23,4-3.31,2.29-6.29a8,8,0,0,1-.45-2.8c.75.45,1.52.86,2.23,1.37.44.31.73,1,1.2,1.11a17.22,17.22,0,0,0,2.82.39,13.14,13.14,0,0,0-.12-2.58c-.73-3-1.85-5.94-2.29-9-.49-3.36,1.24-4.95,4.26-3.65,2.34,1,3.48.37,5.32-.86,2.29-1.54,5.07-2.39,7.69-3.37.67-.25,2.16-.1,2.28.22a54.27,54.27,0,0,1,2.6,8.84c.12.65-1.73,1.66-2.68,2.5a17.83,17.83,0,0,1-1.29-2.26c-.43-1.07-.42-2.44-1.12-3.22a2.87,2.87,0,0,0-2.73-.1c-1.22.75-2,2.34-3.21,3-2.53,1.28-3.95,2.84-3.81,5.9a40.16,40.16,0,0,1-.8,7.1c-.12.89-.39,1.76-.59,2.64,1-.53,2.54-.88,2.76-1.64.68-2.24.5-4.77,1.3-6.94a8,8,0,0,1,3.46-4.31c1.94-.91,2.37,1,3.31,2.7,2,3.63,1.49,6.6-.12,10-.54,1.15-.07,2.79-.06,4.2,1.08-1,2.18-1.94,3.24-2.93.17-.16.13-.52.28-.7.81-.9,1.65-1.77,2.49-2.65.23,1.48.52,3,.66,4.44s-.5,3.58.28,4.44c3.31,3.65,12.77,3.23,15.06-1.75,2.16-4.68.94-9.65-2-14-.36-.53-1.14-.77-1.73-1.15-.31.7-1,1.45-.86,2.09a50.66,50.66,0,0,0,1.37,6.05c1.46,5.28-1.17,8.68-6.37,8.08-.59-.07-1.13-.66-1.69-1,.43-.48.79-1.28,1.3-1.39,3.23-.69,3-3.13,2.82-5.45-.21-3.62-.65-7.23-.71-10.85,0-.84,1.07-2.4,1.73-2.45,4.42-.3,8.86-.29,13.29-.33.21,0,.62.54.6.82-.19,4.24-.1,8.53-.81,12.68-.39,2.28-2.32,4.26-3.22,6.51-.35.87.24,2.11.41,3.18a24.87,24.87,0,0,0,2-2.48c1.42-2.3,2.32-5.15,4.25-6.84,1.4-1.23,4.19-1.9,5.78,1.05a16.54,16.54,0,0,0,3.23,3.63,6.21,6.21,0,0,0,1.73.85c.26-.72.94-1.88.71-2.1-1.78-1.73-3.52-4.1-5.7-4.69-2.61-.71-4.72-1.37-4-4.2.46-1.88,2-4.47,3.57-4.91,3.15-.88,2,2.61,2.93,4.16.58,1,1.27,2,1.91,2.94.74-.7,2.1-1.39,2.11-2.1,0-3.09,1.84-1.9,3.3-1.59,3.49.74,5.56,2.61,6.07,6.43.18,1.33,2.06,2.44,3.16,3.64,0-1.42.36-3-.16-4.21-1.26-2.91,1-9.09-6.12-7.24-.21.05-1.37-3.33-1.93-5.15-.09-.28.85-1.22,1-1.16,1.35.66,2.64,1.44,3.93,2.22,1.45.88,2.89,1.78,4.33,2.69s2.64,1.71,4,2.56c-3.66,3.41.16,7.35-.69,11-.24,1,1.09,2.52,1.87,3.69.32.48,1.08.65,1.64,1a5.37,5.37,0,0,0,.46-1.82c-.46-3.93-1-7.87-1.57-11.78-.34-2.15,0-3.4,2.57-3a14.35,14.35,0,0,0,3-.16,25.61,25.61,0,0,0-1.64-2.86c-.36-.49-1.33-.62-1.54-1.12-.42-1-1-2.34-.61-3.21a3.69,3.69,0,0,1,2.66-1.64,4.31,4.31,0,0,1,3,.9c2.35,1.93,4.36,4.3,6.82,6.07,1.58,1.14,2.92.44,3-1.85.07-1.52.74-3,.66-4.54a13.22,13.22,0,0,0-1.26-4.22c-.11-.27-1.07-.19-1.64-.27,0,1.14-.13,2.28-.07,3.42a25.79,25.79,0,0,0,.46,2.83c-1.22-.35-3.29-.4-3.53-1.08-2.28-6.51-9.38-8.55-12.73-14.06a5.87,5.87,0,0,0-4.2-2.55c-3.68,0-4.15-3-5.74-5a5.28,5.28,0,0,0-2.29-1.83c-1.34-.42-3.16.07-4.16-.67-4.28-3.11-8.07-7-12.55-9.69-3.31-2-7.54-4-11.12-3.61-2.85.29-4-.45-5.8-1.88-5.31-4.28-10.92-7.81-18-8.58a37.11,37.11,0,0,1-9.94-2.93c-7.19-3-14.21-6.39-21.42-9.32-3-1.21-4.23-3.21-2.55-6.22.9-1.6,2-3.61,3.52-4.24,4.34-1.83,4.14-6.39,6.38-9.43.22-.3-.11-1-.18-1.54a4.33,4.33,0,0,0-1.15.79,89.43,89.43,0,0,1-5.34,7.28c-.88,1-2.65,1.15-4,1.68a10.34,10.34,0,0,1-.84-2.68c-.14-4.34,3.18-8.74,8.8-9.56,5-.73,6.81-3.9,8.5-7.63.28-.61-.35-2.37-.68-2.4-3.75-.35-1.45-2-.41-2.53a8.58,8.58,0,0,1,4.59-.82c5.62.66,11.21,1.56,16.79,2.47a2,2,0,0,1,1.28,1.37c.4,2.21.51,4.48.92,6.69a19.66,19.66,0,0,0,1.3,3.41,25,25,0,0,0,1.91-3.76c.2-.6-.49-1.44-.56-2.19-.12-1.19-.47-2.62,0-3.57,1.33-2.62,1.47-2.51-1.65-3.68-.44-.17-.7-.82-1-1.25.51-.4,1-1.12,1.53-1.14,2.76-.12,5.53.05,8.29-.08,3.21-.16,6.57-1.29,9.57-.65,7.57,1.61,14.76-.11,22-1.41,3.05-.55,6-1.53,9.1-2s9.33-4.94,9.82-7.9c.24-1.48-.3-4-1.34-4.62-4.74-2.76-9.57-5.75-14.78-7.22s-11.14-1-16.64-2c-3.2-.57-6.21-2.29-9.28-3.56-1.53-.63-2.94-1.74-4.52-2.07-6.5-1.37-13.22-2-19.55-3.91a208.42,208.42,0,0,1-25.83-9.63c-2.81-1.28-8-2.67-6-8.28a7.23,7.23,0,0,0-1.69-.6c-2.51-.32-5.24,0-7.5-.93-8.69-3.48-14.9-10.27-21.15-16.86-4-4.19-7.56-8.76-11.44-13.05-1.85-2-4.23-3.65-6-5.78-6.36-7.79-12.1-16.06-22.08-20-3.37-1.34-5.39-.37-7.78,1.44-2.69,2-5.47,4-8.32,5.77-.54.34-1.64-.2-2.48-.34a13.06,13.06,0,0,1,1.66-3.22c.38-.41,1.69.18,2.38-.13a13,13,0,0,0,2.52-1.94c-.7-.2-1.73-.17-2-.62-1.61-2.34-4.86-6.15-4.22-7,4.06-5.55-2.63-11.61,1.32-16.84a1.58,1.58,0,0,0-.23-1.5c-2.91-2.76-.5-5.49.42-7.81,1-2.58,3.17-4.74,4.94-7a38.51,38.51,0,0,1,3.15-3.19c-1.34-.7-2.72-1.34-4-2.15a4.61,4.61,0,0,1-1.3-1.55c3.28-3.38-.22-5.37-1.73-7.42-2.16-2.93-3.63.61-5.29,1.24-1.37.53-2.22,2.31-3.4,3.44-3.87,3.69-3.64,10-8.31,13.2-.34.23-.13,1.8.27,2.48,2.18,3.64-1.12,5.16-3,6.47S172,549,171,546.32c-1.49-3.94-2.54-8.08-4.28-11.9-.86-1.89-.91-2.73.84-3.86,3.17-2.05,3.35-4.53,1.23-7.6q-4.75-6.89-9.06-14.07a11.49,11.49,0,0,1-1.16-4.47c-.38-3.11,1-6.53-2.3-9.11-.67-.52.16-3,.29-4.51.66,1,1.26,2,2,2.88a6.69,6.69,0,0,0,1.44,1c.34-.55,1.1-1.42,1-1.6-1.44-1.88-1.2-5.67-5.16-4.81-2.34.51-2.55-.92-2.21-2.56.59-2.83,2.76-2.85,4.79-2.08,3.17,1.2,4.79-1.16,6.14-2.9.6-.78-.72-3.09-1.23-4.69-.43-1.33-.94-2.64-1.41-4a19.55,19.55,0,0,1,4-.32c1,.11,1.8,1,2.77,1.27,4,1,8.2,3,12.07,2.54,5.49-.65,9.36-5.32,13.67-8.64.23-.17.28-.57.41-.86a4.83,4.83,0,0,0-1.12,0c-3.54.68-7.09.86-9.63,4.37-1.17,1.62-4,2.08-6.14,2.91-.51.2-1.26-.2-1.9-.33a5.67,5.67,0,0,1,.83-1.68c.72-.71,2.4-1.37,2.33-1.81-.77-4.4,2.26-3.34,4.66-3.68a11.14,11.14,0,0,0,4.51-2c.93-.65,2.23-2.2,2-2.81-.62-1.58-2.06-2.16-3.85-1-.33.22-1.46-.76-2.21-1.19.51-.68,1-1.88,1.54-1.95,4-.44,8.06-.54,12.08-.95,2.91-.3,5.51-1.15,5.5-4.92,0-.56.61-1.57,1-1.61,3.72-.39,5.94-2.77,7.47-5.77s4.2-4.37,7.38-5.15c1.16-.28,2.12-1.39,3.16-2.15,2.76-2,5.25-5,8.34-5.86,4.64-1.37,9.69-1.48,14.59-1.77,1.54-.09,3.24.77,4.72,1.5,2,1,3.68,3,5.67,3.23,5.59.69,11.27.66,16.92,1,.85.05,2.31.45,2.42.92,1,4.27,4,6.68,7.34,9a2,2,0,0,1,.44,1.8c-.11.36-1,.7-1.53.68a8,8,0,0,1-3.47-.57c-3.24-1.83-5.76-1.3-8,1.63a10,10,0,0,1-3.14,2.36,69.71,69.71,0,0,0-18.4,15.29c-3.43,3.87-5.55,8.9-9,12.78-6.89,7.8-7.88,19.39-16.89,25.72-1.93,7.07-3.89,14.14-5.8,21.22-1.3,4.83.3,10.38-4.82,14.35-1.48,1.15-1.47,6.06-.27,8.17.83,1.46,4.9,1.41,7.51,1.39,1.51,0,3-1.84,4.51-1.91,9.74-.45,19.38-.48,28.52,4.13,4.87,2.46,10.27,3.86,15.44,5.72a4,4,0,0,0,1.32.18,19.75,19.75,0,0,1,3.81,0c1,.19,1.73,1.19,2.69,1.46,5.07,1.46,10.17,2.83,15.27,4.17,7.87,2.08,15.05,6.92,23.71,5.86a4.21,4.21,0,0,1,2.13.79c3.73,2,7.4,4.14,11.18,6a3,3,0,0,0,2.73-.16c1.71-1.81,3.46-2.33,5.75-1.28.44.2,1.46,0,1.61-.26a2,2,0,0,0-.12-1.78c-1.13-1.23-2.26-2.81-3.71-3.31-3.86-1.33-7-8.26-5-11.65s4.11-6.88,6.28-10.24c2.71-4.19,2.5-5.18-1.83-8.06-3.26-2.16-6.61-4.24-9.65-6.68-2.23-1.79-3.68-4.74-6.08-6.1-6.18-3.51-9.77-8.91-12.26-15.18-2.31-5.81-4.27-11.77-6.29-17.7a11.11,11.11,0,0,1-.15-3.06,9.84,9.84,0,0,1,2.52.55c2.9,1.51,5.58,2.69,8.36-.48.77-.87,2.68-1.06,4.05-1,3.25.09,6.5.75,9.75.71,5.14-.06,10.27-.53,15.41-.75,2.31-.1,4.66-.18,4.54,3.32,0,.53,1.15,1.25,1.91,1.61,1.27.6,2.76.76,3.94,1.47,7.62,4.6,12.71,16.22,11.63,25.16-.18,1.48,1.81,3.22,2.8,4.84.39-1.22,1.22-2.48,1.1-3.65-.37-3.55.69-5.88,4.21-7.2.7-.26.9-2.14,1.11-3.31.31-1.75-.1-4.78.7-5.11,5.18-2.17,10.57-3.86,16-5.5,3.33-1,6.86-1.43,10.13-2.58,5.65-2,11-5.11,16.8-6.34,4.64-1,7.19-6,12.27-5.42.35,0,.86-.67,1.15-1.13.53-.82.95-1.71,1.41-2.58A14.31,14.31,0,0,1,426,484c-1.46.38-3,.54-4.48.79.21-1.38.07-3,.72-4.08a9.52,9.52,0,0,1,3.23-2.73c2.72-1.74,5.71-3.1,8.21-5.1,1.56-1.24,2.36-3.4,3.61-5.07,1.91-2.56,2.32-10.24.2-11.69-2.71-1.84-1.93-3.69-1.5-6.3.67-4.08,1.35-8.75,0-12.42a77,77,0,0,1-4.67-19.18c-.25-2.55-.46-5.38.38-7.7,2.83-7.9,4.64-15.85,3.74-24.3-.43-4.06-.75-8.15-.81-12.23s-2.32-8.06.53-11.94c.22-.29-.22-1.12-.44-1.67-2.58-6.3-.64-13.74-5-19.64a4.18,4.18,0,0,1,0-3.63c2.82-5.4.77-11.07.47-16.4-.42-7.37-.2-8.64,7-8.57.78,0,1.56-1,2.34-1.58-.44-.39-.85-1.08-1.32-1.12-3-.28-3.3-.4-2-2.88,1-1.85,2.89-3.24,4.44-4.77,1-1,2.88-1.73,2.95-2.7a9.47,9.47,0,0,1,9.84-9c2.3,0,1.94,1.23,1.69,2.57-2.39,1.63-4.59,3.23-6.73,4.92-.32.25-.38.9-.41,1.37,0,.09.88.44,1,.31,2.15-2.17,4.24-4.39,6.55-6.6,2.45,0,4.81.43,6.92-.1,3.18-.8,7.83-1.46,8.92-3.64,1.93-3.85,4.83-2.37,6.07-1.6,4.58,2.86,9.48,3.36,14.6,3.81a9.5,9.5,0,0,1,5.33,2.7c2.86,2.83,5.11,3.17,8.38,1.14,2.78-1.73,1.73-4.16,2-6.45,3.15-.86,6.44,2,9.16-.7s5.54-2,8.14-.26c.94.64,1.06,2.48,1.55,3.77a18.16,18.16,0,0,1-3.58-.24c-.77-.2-1.38-1-2.07-1.48-.33.69-1,1.44-.92,2.07.29,2,.87,4,1.33,6,.46-.23,1.12-.34,1.34-.71,2.85-4.82,7.44-5.14,12.35-5.15,2.92,0,3.06,1.8,1.94,3.17-2.38,2.93-.47,4.69,1.52,5.71,2.22,1.14,2.64,2.3,1.84,4.38a2,2,0,0,0-.09.84,60.11,60.11,0,0,0,7.18,1.62c.71.09,1.57-1,2.36-1.57-.8-.55-1.58-1.12-2.4-1.64-.56-.36-1.16-.66-1.75-1,.57-.5,1.19-1.48,1.7-1.42a24.88,24.88,0,0,1,4.89,1.14c1.95.62,3.83,1.44,5.77,2.08a53,53,0,0,0,6.64,2,46,46,0,0,0,7,.63c2.52.08,5-.06,7.56-.07,3.36,0,6.73.08,10.09,0,1.55-.06,3.08-.73,4.63-.75,6.56-.11,8-2.1,5.71-8.61-1.21-3.51-2.53-6.39-7.09-7.46-3.27-.76-5.92-4.15-8.86-6.33-.18-.13-.62.1-.8,0-2.48-1.72-5-3.38-7.35-5.27-.86-.7-1.26-2-1.86-3-.5,1.26-1.07,2.51-1.46,3.8a10.53,10.53,0,0,0,0,2.06,11.48,11.48,0,0,1-.32,1.52c-.44-.46-1.18-.86-1.27-1.38-.45-2.46-.38-5.07-1.17-7.41s-1.31-3.9,2.12-3.63c.66.05,1.38-.61,2.07-.94-.52-.68-1-1.38-1.57-2-1.24-1.54-2.79-2.91-3.67-4.63s-.92-3.41,2.08-3.15,5.16-.83,5.94-4c.16-.65.92-1.19,1.46-1.72.8-.78,1.65-1.5,2.47-2.24a23.46,23.46,0,0,1-3.26-1.12c-.62-.31-1.43-1-1.47-1.58a14,14,0,0,1,.53-3.36,24,24,0,0,1,2.71,1.28c1.11.7,2.1,2.11,3.19,2.16s3.11-1,3.28-1.85c.45-2.35-4.28-5.45-6.81-5.08-1.21.18-2.54-.49-3.81-.77,1-.79,1.83-2,2.93-2.3,5.49-1.35,6.92-4,4.43-8.86-2.09-4.11-4.18-8.23-6.48-12.23a34.29,34.29,0,0,0-4.2-5.49,27.37,27.37,0,0,0-3.88-3.45c-1.37-1.05-2.88-1.93-4.33-2.89-1.47,3.21-3.15,0-3.26-.38a18.14,18.14,0,0,1-1-6.84c.39-3.25-2.73-6.63-5.91-5.85a40.94,40.94,0,0,1-6.16,1.12c-4.35.38-4.1-3.41-5-6-.23-.62.3-1.51.48-2.27,1.1,1.22,2.2,2.44,3.32,3.66.37.41.73,1,1.18,1.11s.91-.42,1.37-.66c-2.35-2.69,1.64-8.06-4-9.5-.38-.1-.49-2-.42-3,.15-2.18,1.41-4.76-2.5-4.95-.48,0-1.42-1.46-1.29-1.64a15.7,15.7,0,0,1,3.5-3.93c.3-.21,2,1.49,3,2.4.68.63,1.28,2.07,1.8,2a22.49,22.49,0,0,0,4.55-1.38,20.5,20.5,0,0,0-2.3-2c-1.29-.84-2.86-1.33-4-2.32-1.95-1.69-3.44-3.94-5.5-5.46a180.27,180.27,0,0,0-16.13-11.09c-4.72-2.75-9.95-4.62-15-6.83-8.9-3.92-15.84-11.81-26.19-12.85-1.17-.12-2.25-1.18-3.37-1.81-6.28-3.52-12.55-7-18.85-10.52a3.18,3.18,0,0,0-1.64,0,11.3,11.3,0,0,1-9.07-3.17,14.26,14.26,0,0,0-5.2-3.38c-10-2.94-20.08-5.54-30.1-8.4-4.82-1.38-10.44.29-14.57-4-.55-.56-2.52.46-3.79.36-3.09-.25-6.43,3.25-9.23-.4-1.48-1.93-2.71-1.34-4.67-.77a27.5,27.5,0,0,1-8.17.61c-2.84-.06-5.67-.78-8.5-.72a131.75,131.75,0,0,0-13.81,1c-3.72.48-7.48,2.44-11,2.08-11.36-1.14-21.23,4.63-31.87,6.63-11.53,2.16-22.16,8.89-33.69,12.41a145.68,145.68,0,0,0-19.21,7.6c-6.63,3.11-13.33,5.93-19.33,10.55-6.16,4.73-13.62,7.62-19.17,13.55-5.15,5.5-11.28,10.06-16.7,15.33-5.09,4.95-9.93,10.17-14.66,15.47-3.62,4.07-7.46,8.12-10.21,12.76-6,10.15-11.2,20.79-17.14,31C153.47,237,147,247.61,140.18,258c-8.11,12.26-12.27,26.16-17.23,39.7-4.15,11.33-5,23.67-10.26,34.79-1.45,4.61-2.8,9.21-3.86,13.86-.24,1.07.47,2.36.74,3.55a31.45,31.45,0,0,0,1.64-3.22c.41-1.08.52-2.27.88-3.37a9.06,9.06,0,0,1,1-1.71,4.82,4.82,0,0,1,.59,1.69c-.21,3.48-.34,7-.84,10.43-.65,4.52-1,9.22-2.6,13.42-1.87,4.9-1.58,9.54-.95,14.46a97.9,97.9,0,0,1,1,15c-.22,8.21-1,16.4-1.59,24.6a11.41,11.41,0,0,1-.88,3.77,2.6,2.6,0,0,1-2,1.06c-.4,0-1.24-.87-1.23-1.34.1-6.54-1.48-12.75-3.33-18.95-.92-3.08-5.53-7.93-7.68-6.74-2.91,1.61-6,4.52-7,7.54-1.36,4.08-.74,8.81-1.17,13.24a3.06,3.06,0,0,1-1.73,2.12c-1.41.47-2.39.15-2.48-1.93a5.6,5.6,0,0,0-2.32-3.71c-2.43-1.68-2.43-2.66,0-4.32,1.26-.84,2-2.6,2.72-4,.17-.32-.49-1.07-.77-1.62-3.16,2.79-7.38,5-9.16,8.53-1.55,3-3.33,5.38-6.06,6.18-4,1.18-6,2.07-5.29,7.25a35.54,35.54,0,0,0,8.43,19c3.05,3.63,7,5.35,11.41,6.58,1.23.34,1.83,1.48,3,0,.49-.62,1.59-.75,2.41-1.11a15.7,15.7,0,0,1,.65,2.47c.11,1.09,0,2.21,0,3.31,0,4.25,1.71,5.53,5.76,5.06a40.93,40.93,0,0,1,9.24.06c.9.1,2.42,1.94,2.28,2.73a26.81,26.81,0,0,0,.69,11.91c1.39,5.55,1,11.58,1.06,17.41.06,3.85-.62,7.73-.47,11.57.19,5.06,1.11,10.1,1.29,15.17.24,6.58-.54,13.24.2,19.75,1.11,9.74,3.11,19.38,4.87,29,.62,3.42,1.58,6.79,2.46,10.16,1.34,5.1,2.95,10.14,4.07,15.29a116.4,116.4,0,0,1,1.66,12.16c0,.42-.81.94-1.24,1.41-.39-.38-1-.69-1.14-1.15-1.49-5.61-2.65-11.32-4.41-16.83-3.09-9.7-7-19.16-8.06-29.4-1.38-13-2.71-25.94-4.18-38.9-.34-3-1.19-5.86-1.75-8.79a10.76,10.76,0,0,1-.19-2.83c.34-4.22,3.4-7.73,1.59-12.81-.86-2.41-.2-6.14-1.13-9.36-.71-2.47-.15-5.3-.14-8,0-3.35-.56-6.87.27-10,.58-2.21.68-3.67-1.07-4.82-1.1-.72-3.31-1.56-3.78-1.1-1.31,1.3-2.73,3.23-2.75,4.94-.09,5.68.29,11.38.73,17.06.36,4.62,1.18,9.21,1.59,13.83s.77,9.44.82,14.16c.12,10.41-.32,20.83.12,31.22.63,14.67,5.4,28.47,9.84,42.31,2.89,9,6.28,18,8.13,27.27,2.4,12,3.51,24.29,5.15,36.45,1.37,10.17,3.5,20.12,7.73,29.54,2.56,5.71,2,8.87-2,10.89a8.76,8.76,0,0,1-2.38.46c.19-.75.12-1.79.6-2.2,2.65-2.27,1-4.59.19-6.85-1.3-3.46-2.81-6.85-4.11-10.32-1.62-4.33-3.08-8.7-2.56-13.48a5.57,5.57,0,0,0-.84-3.34c-.66-1-.79-2.84-3.35-1.29A104,104,0,0,1,95.86,664c-1.29.52-3.12-.45-4.69-.4a4.64,4.64,0,0,0-2.31,1.25c-1,.78-1.86,1.71-2.78,2.57-.46-.86-.72-2-1.43-2.53a10.76,10.76,0,0,0-4.05-2c-1.23-.26-2.61.34-3.93.35a5.72,5.72,0,0,1-1.93-.76c.56-.71,1-1.92,1.71-2.05,5.66-1.1,11.34-2.09,17-2.86,1.12-.15,2.17.84,2-1.32-.2-3,1.59-4,4.43-4.71,3.55-.89,6.87-2.71,10.21-4.3.46-.22.43-1.45.62-2.22a8.65,8.65,0,0,0-2.29-.11c-2.39.52-4.76,1.16-7.12,1.8-1.48.41-2.93.93-4.4,1.39-2.08.65-4.17,1.27-6.25,1.92-7.68,2.41-12.38-4-18.44-6.35-.83-.32-1.09-2.13-1.61-3.26,1.22.16,2.44.4,3.66.47,3.7.2,7.81,1.44,11,.27,6.06-2.2,11.87-4.73,18.48-4.41a20.09,20.09,0,0,0,4.95-.11,2.82,2.82,0,0,0,.94-2.46c-1.45-2.1-9.52-2.86-12-1.89a36.83,36.83,0,0,1-8.32,1.88c-.66.09-1.85-1-2.13-1.73-.2-.57.69-1.53,1.08-2.32s1.25-1.84,1-2.21c-2.15-3.33-4-6.89-9-7a71.86,71.86,0,0,1-11.33-1.59C62.48,618,56.55,615,50.67,611.81a5.74,5.74,0,0,1-1.58-1.62c-.06-.08.41-.82.57-.8,4.07.49,8.63-1.6,12.14,1.62,3.72,3.43,8.54,3.81,12.94,4.76s9.37.46,14,.1c1.91-.15,3.77-1.52,5.52-2.56a2.57,2.57,0,0,0-.06-2.18c-3.51-1.61-6.7-4.23-11-3.48a11.6,11.6,0,0,1-5.09,0c-6.92-2.06-14-2.53-21.14-3.49-6.61-.89-13-3.81-19.4-5.85-.23-.07-.37-.43-.6-.56-2.33-1.38-4.62-2.83-7-4.09-1.57-.83-3.38-1.23-4.92-2.11-1.9-1.09-3.55-2.62-5.46-3.68-3.11-1.74-7.29-2.14-7.75-6.91-.08-.8-1.08-1.48-1.38-2.31a36.7,36.7,0,0,1-2-6.63c-.36-2.44,1.54-2.1,2.44-1,3.24,3.8,7.36,4.67,12,4.49A2.62,2.62,0,0,1,24.92,577a9.51,9.51,0,0,1-.15,3.19c-1.32-.38-2.62-.86-4-1.1-1.62-.3-3.28-.4-4.92-.59,1.33,1.17,2.65,2.36,4,3.5.16.14.56-.06.81,0,4.21,1.51,8.51,2.82,12.59,4.63s7.62,4.27,11.57,6.09c8.26,3.8,17.13,2.53,25.76,2.43,8.34-.09,16.68-.9,25-1.66,1.52-.14,3-1.44,4.31-2.45.22-.17-.48-2.29-.83-2.31a88.45,88.45,0,0,0-9.25-.08c-3.9.17-7.78.55-11.68.77a5.29,5.29,0,0,1-1.67-.48,7.92,7.92,0,0,1,1.71-.86c3-.69,6.11-1.25,9.14-2a9.56,9.56,0,0,0,2.26-1.26,10.07,10.07,0,0,0-2.34-.34c-9.72.88-18.74-2.78-28-4.55-5.41-1-10.33-3.81-16.21-4-4.58-.16-9.12-2.42-13.6-4-1.09-.38-1.87-1.66-2.79-2.52a11,11,0,0,1,3.25-.67c9.91,1,19.95,1.5,29.68,3.45,10.49,2.11,20.89,2.19,31.4,1.39,1.25-.09,3.53-1.65,3.44-2-.73-2.56-.7-5.6-3.67-7.07-7.68-3.81-15.19-8-23.05-11.39-3.81-1.64-5.65-3.56-5.46-7.69.07-1.61-.19-3.88-1.22-4.77a35.5,35.5,0,0,0-8.2-5.1c-8-3.66-17.75-3.36-24.08-10.78-.18-.21-.93.12-1.18-.08-3.14-2.5-9.7-.51-9.66-7.37,0-.57-1.82-1.5-2.89-1.66-3.08-.46-6.22-.55-9.32-.95-.79-.1-1.5-.83-2.24-1.27.52-.66,1-1.35,1.57-2s1.16-1.26,1.74-1.89a7.75,7.75,0,0,0-2.53-.56c-3.28.43-4.43-.86-4.16-4.15s0-6.63.09-9.94a6,6,0,0,1,.58-1.71,6.06,6.06,0,0,0,1.08,1.24c4.45,2.93,8.61,6.59,13.46,8.5,5.72,2.25,12,3,18.1,4.34.79.18,1.59.29,2.39.43-.78-.7-1.46-1.7-2.37-2-5.66-2-11.38-3.88-17-5.9-.83-.3-1.42-1.24-2.13-1.89,1-.46,2.16-1.47,3.06-1.29,3.4.68,6.69,1.86,10.08,2.62a14.48,14.48,0,0,0,5,.2c.92-.12,1.72-1.09,2.58-1.68a10.77,10.77,0,0,0-2.81-1.18c-1.68-.2-3.44.14-5.09-.14-.76-.13-2.06-1.53-1.93-1.82,1.7-3.78-1.35-5-3.53-6.3-3-1.71-6.6-2.38-9.35-4.34A90.5,90.5,0,0,1,1.1,474.13c-.87-.87-.67-2.81-1-4.26,1.14.07,2.45-.21,3.38.27,2.07,1.07,3.93,2.53,5.89,3.8a14,14,0,0,0,1.46.73c.29-.71,1-1.83.8-2.06-1.42-1.51-2.87-3.67-4.64-4.05-6.86-1.47-6.61-1.27-7-8.11-.2-3.35,1.49-3.86,3.84-4.52a7.1,7.1,0,0,0,1.93-1.37c-1.1-.48-.43-3.66-3-1.94a7.8,7.8,0,0,1-2.43.62c-.06-.81-.39-1.74-.08-2.37.22-.45,1.31-.72,2-.66,2,.18,3.68-.37,3.57-2.42-.05-.92-1.94-1.7-2.94-2.61a13.7,13.7,0,0,1-2.62-2.71c-.3-.49.21-1.49.35-2.26,2,.88,4.43-1.45,6.5,1.34,2.18,2.94,4.87,6.51,9.44,2.86.51-.4,1.63-.16,2.44,0a9,9,0,0,1,1.91.79,9.18,9.18,0,0,1-1.42,1c-2.44,1.11-5,2-7.34,3.29a11.88,11.88,0,0,0-3.56,3c-.16.2,1.39,1.7,2,2.67s1.32,2.21,2,3.32c-1.05.27-2.09.62-3.16.79-.81.13-1.66-.05-2.48,0-1.17.14-2.32.41-3.48.62,1.06,1.17,2.35,3.48,3.13,3.32,6.74-1.38,9.11,6.47,15.74,6.8,4.48.23,8.68,5.89,13,9.09.82.6,1.72,1.09,2.58,1.63.67-1.24,1.7-2.42,1.93-3.74.51-3,.61-6.12.91-9.18,1-10.91,2.89-21.63,7.67-31.64.28-.58-.16-1.51-.27-2.27a6.71,6.71,0,0,0-1.57,1.14c-1.83,2.41-6.6,3.72-8.31,2.21-2.35-2.07-2.31-2.05-3.35,1.09a5,5,0,0,1-1.39,1.81c-.12.12-1-.18-1-.36-.34-2.22-.59-4.45-.87-6.68,2-.22,4.07-1,5.88-.57,5.83,1.38,9.33-.5,10.71-6.15a12.27,12.27,0,0,1,1.52-3.09c3.06-5.23,6.15-10.44,9.2-15.67a2.77,2.77,0,0,0,.29-1.51,1.36,1.36,0,0,0-1.09-.29c-2,1.31-4.27,2.37-5.71,4.13-4.15,5.06-6.28,5.76-12.49,3.41-.8-.3-2.61-.13-2.7.17-1.24,4.4-3.85,2.3-6.32,1.58a5.38,5.38,0,0,0-3.58.08,2.93,2.93,0,0,0-.61,2.84,5.57,5.57,0,0,0,3.1,2.15c1.43.36,3,0,4.53.13a16.23,16.23,0,0,1,3,.91c-.69,1.35-1.15,2.93-2.15,4s-2.9,1.36-3.88,2.46c-3.69,4.14-8.59,5.68-13.69,5.72a8,8,0,0,0-7.59,4.28c-1.05,1.8-1.87,2.2-3.76,1-1.47-.93-3.5-1-5-1.9-.77-.48-.86-2-1.26-3.09.82-.19,2-.82,2.39-.5,2,1.66,3.09.28,4.44-1s2.92-2.93,4.67-3.49c3.08-1,7.75,1.82,8.61-4,0-.13.71-.18,1.1-.25l1.93-.34c-.6-.44-1.21-.86-1.8-1.32-2-1.59-3.45-.68-5.28.72-1.33,1-4.12,1.89-5.16,1.19-3.24-2.18-3.39-.62-3.46,2-.11,3.76-1.5,4.3-5.17,3-2.81-1-2.26-2.93-2.27-4.86q0-210.55,0-421.11a12.47,12.47,0,0,1,0-2.48C.29.83.82.07,1.17.07,7.66,0,14.16,0,20.65.08c.84,0,1.7,1.38,2.47,1.31C24.58,1.24,26,.07,27.42.07Q333.79,0,640.16,0h78.75q0,71.5-.21,143.21a.65.65,0,0,1-.62-.45c-2.24-5.84-2.67-12.47-7.47-17.21-.43-.42-.53-1.15-.83-1.71s-.78-1.31-1.17-2c-.16.89-.67,1.9-.4,2.63.43,1.19,1.44,2.15,2.08,3.28a36,36,0,0,1,2.78,5.47c2,5.84,3.91,11.75,5.84,17.63q0,137.83-.21,275.86c-.62,2-1,3.73-1.45,5.49-.83,3.52-1.65,7-2.49,10.56-.54,2.26-1,4.54-1.68,6.76-1.25,4.17-2.6,8.3-3.95,12.44-.55,1.7-1.4,3.32-1.8,5-.7,3.05-.58,6.41-1.82,9.19-2.64,6-7,11.33-8.69,17.48-2.4,8.92-8.79,15.36-12.52,23.41-3.09,6.65-8,12.66-13.06,18.12-3.67,4-3.25,7.27-1.37,11.48,1.4,3.14,2.88,6.42,3.31,9.77,1.18,9.07,3.52,16.95,13.08,20.91,2.25.93,2.24.64,3.05-1,2.27-4.63,5.45-8.73,10.17-10.84,2.93-1.31,6.47-1.24,9.74-1.8l9.66-1.66a16.75,16.75,0,0,1-.21,3.11c-8.24,1.74-16.18,2.82-22.64,9.08-5.09,4.93-9.51,9.85-11.23,16.85-.11.43-1.5.77-2.26.71-.36,0-1-1.47-.91-1.61,3.69-3.82-.4-3.87-2.35-4.91a13.92,13.92,0,0,0-1.64-.64,7.24,7.24,0,0,1,.43,1.71c0,1-.15,2-.23,3.06-1.12-.29-2.44-.33-3.29-1-.52-.4-.47-1.75-.4-2.65.22-3.12-1.69-3.52-3.87-2.75-1.12.4-2.67,1.93-2.59,2.81.12,1.2,1.61,2.26,2.52,3.38.75.91,1.51,1.81,2.26,2.72a19.89,19.89,0,0,1-2.77.77c-5.39.7-9.16-2.47-13.09-5.4a18.85,18.85,0,0,0-4.54-2c-.28-.11-.72.2-1.09.32a4.15,4.15,0,0,1,.9.49,72.13,72.13,0,0,0,11.54,8.76A34.77,34.77,0,0,0,682,600.31a2.78,2.78,0,0,1,2,1.84c.5,4.56-1.07,5.77-5.86,4.7s-9.6-2.12-14.36-3.33c-4.34-1.11-9-.74-12.75-4.3-7.56-7.18-8.66-6.75-11.77,3.11-.17.55-1.21,1.06-1.89,1.13-.41,0-1.25-.78-1.31-1.27-.38-3.51-.2-7.14-1-10.52-.52-2.11-2.11-4.83-3.91-5.57a12.74,12.74,0,0,1-7.66-7.55c-.64-1.59-3.06-4.06-3.76-3.79A140.91,140.91,0,0,0,601.6,583c-6.06,3.43-5.64,10.86-8.54,16.28-1,1.87-.15,4.72-.23,7.12,0,1,.07,2.61-.51,3-3.91,2.53-2.81,5.6-1,8.58,2.78,4.67,5.34,9.59,8.91,13.59,1.53,1.72,2.87,2.83,2.45,5.16-2,.28-4.14.06-5.61.92-4.39,2.58-9.2,2.86-14,3.17a28.2,28.2,0,0,1-5-.55c1.2-1.14,2.69-2.1,3.5-3.47.62-1.05.94-3,.37-3.85-.79-1.15-3.52-2.52-3.76-2.26a24.75,24.75,0,0,0-4.18,6.07c-.93,1.94-.7,4.59-1.93,6.21-6.27,8.28-7.66,17.85-8.11,27.77a15.7,15.7,0,0,1-.6,3.48c-1.7,6.06-3.67,12.06-5.1,18.18-.87,3.73-.87,7.65-1.36,11.48-.2,1.61-.65,3.19-1,4.78a19.72,19.72,0,0,0,2.57-3.95c1-2.68,3-1.44,4.69-1.63.51-.06,1.09.41,1.63.63-.75,1.21-1.25,2.73-2.3,3.56-1.37,1.08-3.22,1.53-4.75,2.45a3.53,3.53,0,0,0-1.22,1.89,354.53,354.53,0,0,1-14.14,36c-5.82,13.07-12,26-17.61,39.13a24.64,24.64,0,0,0-2.08,11.89c1.3,11.22,6.6,21.23,11.23,31.35a69.29,69.29,0,0,0,7.33,12.28c2.92,3.94,1.44,9.83,6.06,12.87.14.09,0,.52.07.79l.83,11.26M505.44,528.93c2,2.59,4,5.27,6.19,7.68.41.45,2,0,3-.36s2.07-1.51,3-1.42a94.12,94.12,0,0,1,9.67,1.62,1.64,1.64,0,0,1,.85,1.35c-1.32,3.8,1.4,1.29,1.82,1,1.77-1.15,3.22-3,5.11-3.71,1.34-.53,4.06-4,4.79.84a2,2,0,0,0,1.3.26c1.89-3.23,4.26-1,6.47-.66,1,.16,2.09.17,3.14.25a11.56,11.56,0,0,0,.08-2.82c-.39-1.81-.43-2.87,1.59-4.19,3.17-2.08,5.43-2.17,8.15.48,1,1,3.57,1.95,4.1,1.46,4-3.67,7.74-7.72,11.61-11.59.74-.74,1.82-1.14,2.63-1.83,1.23-1,3.53-2.53,3.33-3.28-.83-3.08.73-4.54,2.47-6.66,1.9-2.31,5.77-4.15,4.67-7.84a44.56,44.56,0,0,0-4.88-10,149.21,149.21,0,0,0-9.45-14.28c-1.5-1.95-4.16-4-6.41-4.14a11.68,11.68,0,0,1-8.33-4.13c-1.7-1.8-3.32-3.69-6.45-2.05-1.09.57-3.18-.09-4.52-.77-3.9-2-7.53-4.47-11.5-6.27-1.69-.76-4.63-1.28-3.1,2.77.71,1.87-.5,2.25-2.27,1.68-4-1.3-7.73-4.61-12.5-2.32-.47.23-1.42-.43-2.11-.77-2.75-1.36-5.45-2.84-8.26-4.07-.59-.26-1.55.34-2.34.54.29.63.59,1.24.85,1.88.35.85.67,1.71,1,2.56-.66.25-1.33.76-2,.71-4.56-.32-7.23-3.52-9.6-6.84-4-5.57-13.81-6.9-17.16-2.1-3.83,5.5-3.52,11.88-2.43,17.81,1.4,7.64,6.2,14.3,7.21,22.27a47.84,47.84,0,0,0,6.58,19.61,69.1,69.1,0,0,0,4.7,5.86c1.21,1.53,2.41,3.08,3.54,4.68a41.75,41.75,0,0,0,5.4,6.73M326.78,626.34a28.1,28.1,0,0,1,1.79-4.22c1.68-2.69,1-8.18-1.94-9-6.22-1.72-9.49-6.8-13.8-10.71-3.79-3.44-8.07-3.56-11.67-.2-5.11,4.77-5.11,4.77-8.64-1.84-.43-.79-1.27-1.53-1.33-2.33-.34-4.71-3.66-7.43-6.51-10.61-2.32-2.58-4-2.65-6.18,0-1,1.24-2.72,2-4.18,2.81-2.51,1.45-4.47,1.65-6.08-1.61-2.46-5-5.55-9.46-10.55-12.62-2.86-1.81-3.24-.65-3.86,1.46-.88,3-1.6,6-2.56,8.89a2.51,2.51,0,0,1-1.71,1.32c-.44.08-1.11-.61-1.53-1.09-.85-.94-1.44-2.6-2.42-2.84-2.13-.52-3.83-.86-3.47-3.65.05-.42-.76-1.26-1.28-1.37a1.86,1.86,0,0,0-1.6.87c-.86,4.24-3.42,8.53-1,12.82,2.66,4.68,5.3,9.64,11.69,10.38.82.1,1.62,1.65,2.16,2.67,1,1.8,1.56,3.79,2.55,5.56,2.14,3.84,6.43,4.43,9.68,1.43,2.39-2.2,4.53-2.73,6.27.77.52,1,1.46,1.87,2,2.9,4.07,7.78,8.55,9.72,16.74,6.92,3.1-1.06,5.12-.78,6.3,2.7a7.18,7.18,0,0,0,3,3.41c7.68,4.65,15.76,8,25,7.59a9.45,9.45,0,0,1,5.59,1.36c6.14,4.4,13.55,4.74,20.41,6.78,7.36,2.2,11-3.68,15.28-7.94a1.46,1.46,0,0,0,0-1.37,1.91,1.91,0,0,0-1.64-.15,55.78,55.78,0,0,0-5.52,4.67c-2,2.06-4.83,2.65-6.3.62-1.21-1.66-2.45-5,1.38-6.68a3.92,3.92,0,0,0,1.9-3.18c-.11-.92-1.69-1.74-2.73-2.46s-2.29-.81-2.82-1.62a31.47,31.47,0,0,1-2.89-5.82c-1.31-3.33-3.5-3.33-6.33-2.12a22,22,0,0,0-12.44,13.29,9.16,9.16,0,0,1-1.49,2c-.32-.86-1-1.76-.89-2.58a19.76,19.76,0,0,1,1.59-5.29M53.2,432.35c1.8,6.34-.93,11.54-4.11,16.67a7.62,7.62,0,0,0-.84,3c-.87,6.42-1.33,12.91-2.62,19.24-1,4.68.68,6.72,5,7.49a4,4,0,0,1,1.7.87,28.3,28.3,0,0,0,19,6.32c3.19-.07,6.49,1.07,9.56.57,2.13-.34,4.07-2.43,5.81-4,.26-.25-.8-2.43-1.68-3.29-2.69-2.66-5.7-5-8.35-7.71-1.21-1.23-2.84-3.06.73-3.88,2.28-.53,1-1.64.11-2.67-5.59-6.09-11.34-12.06-16.64-18.4a18.9,18.9,0,0,1-4.28-14.76c.12-1,.4-1.92.6-2.88-.78.65-1.57,1.28-2.34,2-.42.36-.79.78-1.59,1.58M18.38,337c0-.55,0-1.11,0-1.66.27-6,.57-11.92.79-17.88,0-.53-.44-1.07-.67-1.61a8.12,8.12,0,0,0-1,1.34,7.09,7.09,0,0,0-.74,2.17c-.6,5-1.4,10-1.58,15-.1,3,.05,6.41,1.46,8.84,2.14,3.69,1.78,6.79.2,10.26a2.56,2.56,0,0,0-.05,1.73c.45,1.3,1.53,2.55,1.52,3.82,0,4-.81,8.08-.57,12.07.09,1.53,2.16,2.95,3.33,4.42-.06-1.13-.13-2.27-.19-3.4a5.81,5.81,0,0,1,0-1.24c.54-3.13,1.34-6.25,1.57-9.4a22.54,22.54,0,0,0-.79-6.68c-.62-2.61-1.87-5.07-2.37-7.69a91.74,91.74,0,0,1-.9-10.14m9.53,56.79c.12,2.06-.34,4.41.51,6.11,1.33,2.66,3.51,4.91,5.45,7.22.32.38,1.28.23,1.94.32,0-.76.39-1.67.1-2.26-1.75-3.55-3.67-7-5.45-10.54a14.44,14.44,0,0,1-.49-2.27c-1.08-3.54-2.16-7.08-3.35-10.58-.16-.46-.93-.71-1.41-1.05-.34.55-1.12,1.31-1,1.6,1.81,3.48-.66,8.22,3.67,11.45m285.6,316.27a18.09,18.09,0,0,0,2.84-3c.26-.42-.56-1.5-.89-2.27-3.14,2.1-5.31-.7-7.94-1.4-1.13-.3-2.63.77-4,1.22.92,2.67-1.8,2.23-2.79,3.26a23.61,23.61,0,0,0-2.77,3c-.13.19,1.18,1.93,1.66,1.85a5.34,5.34,0,0,0,2.86-1.64c2.25-2.45,4.38-3.51,7.24-.74.6.59,2.2.15,3.75-.23m43.11-131a15.37,15.37,0,0,1-1.17-1.18c-2.25-2.79-4.46-3.84-7.26-.49-.69.83-2.35.89-3.58,1.24-1.49.42-3,.78-4.49,1.17a35.28,35.28,0,0,0,4.76,2.09c1.15.33,2.5-.11,3.7.11,1.37.25,2.65.94,4,1.29,1.11.29,2.56.86,3.35.42,1.5-.85,3-2.25.68-4.65M512.48,313c.4.69.64,1.78,1.22,2,3.79,1.46,7.57,3.2,11.52,3.94,3.62.68,7.45.27,11.18.22.54,0,1.08-.67,1.61-1-.38-.47-.71-1.28-1.16-1.35-2.68-.43-5.38-.7-8.08-1-2.2-.25-4.44-.29-6.6-.75-3.13-.66-6.19-1.62-9.7-2M70.2,515.67c-5.12-.28-10.23-.57-15.35-.8-.54,0-1.09.41-1.64.63a8,8,0,0,0,1.31,1,9.92,9.92,0,0,0,2.15.79c7.57,1.78,15.68-.24,23,3.31a7,7,0,0,0,3,.78c.67,0,1.33-.7,2-1.08-.44-.44-.81-1.14-1.34-1.29-4.06-1.18-8.16-2.25-13.08-3.36m579.9,51c1.38,4.12,2.73,8.26,4.2,12.35.15.43,1.5.91,1.59.81.61-.76,1.67-2,1.42-2.48-3-5.42-6.13-10.74-9.32-16-.27-.45-1.1-.55-1.67-.82,0,.57-.11,1.28.17,1.68,1,1.42,2.11,2.73,3.6,4.49M107.5,624.27l1.07-.58c-.54-.36-1.23-1.14-1.6-1-4.24,1.52-8.22.73-12.27-.8-.83-.31-2.14.64-3.23,1l2.88,1.38a5,5,0,0,1,1.36.68c4.72,4.64,7.14,2.59,11.79-.68m-87-335.76c-.41,4.5-.88,9-1.19,13.5,0,.65.63,1.36,1,2a13.09,13.09,0,0,0,.61-1.79c1.24-6.49,2.52-13,3.63-19.5a10.54,10.54,0,0,0-.49-3.91c-.09-.41-.73-.7-1.12-1-.12.5-.25,1-.34,1.51-.56,2.93-1.11,5.86-2.08,9.21m657-224.25c1.36,1.91,2.33,4.46,4.16,5.58,2.82,1.73,5.35,3.12,5.1,6.95,0,.35.72.76,1.11,1.13.13-.49.54-1.14.36-1.46a77.34,77.34,0,0,0-4-6.79c-.93-1.34-2.44-2.28-3.33-3.63-2.5-3.75-4.8-7.62-7.21-11.43-.17-.26-.57-.38-.86-.57,0,.47-.11,1,.09,1.39a99.3,99.3,0,0,1,4.63,8.81M487.2,298.46a9.11,9.11,0,0,0,2,1.13,34.68,34.68,0,0,0,3.7.62c-.91-1-1.64-2.33-2.76-2.86-4.26-2-8.63-3.81-13-5.59a6.48,6.48,0,0,0-2.28,0c.38.59.63,1.44,1.17,1.71a114.57,114.57,0,0,0,11.17,5M20,478.78c2,1.44,4,2.87,6,4.32.85.62,1.68,1.27,2.51,1.9a7.58,7.58,0,0,1,.52-5,3.25,3.25,0,0,0,.16-.8c-3.6-1.28-7.2-2.54-10.82-3.73a5.13,5.13,0,0,0-1.65,0c.21.46.3,1.06.64,1.36.68.58,1.5,1,2.67,1.9M2.63,402.5c.25,3,1.13,5.92,4.35,6.69,1.9.45,4.1-.17,6.13-.52a9.38,9.38,0,0,0,2.76-1.25,3.09,3.09,0,0,0-.27-1,14.24,14.24,0,0,1-2.54.55c-2.4,0-5.07.37-7.13-.54-2.46-1.1-2.17-3.65-.87-5.89.06-.1-.57-.85-.9-.87a11.81,11.81,0,0,0-2.32.32,9.12,9.12,0,0,1,.78,2.53m550.06,279,2.82-1.16c-.8-.58-1.56-1.58-2.42-1.67-3.08-.33-6.2-.4-9.3-.42-.46,0-.93.81-1.4,1.24.52.39,1,1.06,1.58,1.14,2.62.38,5.26.6,8.72.87m-2.07-8.7c2.41.14,4.82.4,7.22.33.65,0,1.27-1.05,1.9-1.62-.66-.54-1.3-1.49-2-1.54a56.83,56.83,0,0,0-7.79,0c-.87.06-1.7.83-2.55,1.27a22,22,0,0,1,3.22,1.57M278.7,800.44c-.13-1.51-.24-3-.46-4.52,0-.07-1.5-.18-1.62.07q-2,3.93-3.68,8a6.49,6.49,0,0,0-.09,2.22,6.74,6.74,0,0,0,1.74-.85,22.23,22.23,0,0,0,4.12-4.9m71.71-181.14c1,1.09,2,2.13,2.88,3.28a22.7,22.7,0,0,1,1.51,2.52c.54-.35,1.52-.67,1.55-1.05.08-1.1.17-2.72-.47-3.26a45.85,45.85,0,0,0-6.16-4c-.92-.55-1.93-.93-2.9-1.39.71,1,1.38,2.05,2.14,3,.2.26.69.29,1.46.85m-11.61-63-.61-3.92a30.42,30.42,0,0,0-1.71,3,36.43,36.43,0,0,0-1.41,3.93c-.46,1.48-.85,3-1.27,4.48a39.69,39.69,0,0,0,3.95-4c.56-.74.44-2,1-3.42M460.67,34.83c-4.51,2.2-.38,4.89-.35,7.33,0,.57.83,1.13,1.28,1.69.38-.66,1.17-1.38,1.07-2a38.75,38.75,0,0,0-2-7.07M263.77,802.1l-2.3-2.68a29.58,29.58,0,0,0-1,4.07,2.88,2.88,0,0,0,.81,2.06,29.35,29.35,0,0,0,3.2,2.43,28,28,0,0,0,0-3.35c-.06-.59-.51-1.13-.79-2.53m282.7-99.48-.52,2.79,5.83-1.47a15.05,15.05,0,0,0-1.35-3.1c-2-2.69-2.73.21-4,1.78M499.63,305.92c.3.28.58.77.9.79,2.59.21,5.18.33,7.77.49L502.68,304c-.12-.07-.18-.22-.3-.28-2.09-1.22-3.42-1.09-2.75,2.22M43.25,206a31.25,31.25,0,0,0-2.48,3.39,5.65,5.65,0,0,0-.19,2.23c.58-.18,1.34-.19,1.7-.57a26.33,26.33,0,0,0,4-4.88c.53-1,0-2.52,0-3.8-.72.86-1.45,1.71-2.17,2.58-.16.2-.28.43-.83,1.06m-9.12,23.21c.78.05,2.1.39,2.24.11,1.3-2.46,2.45-5,3.51-7.59.21-.52-.15-1.28-.24-1.92-.49.4-1.13.7-1.43,1.21a63.21,63.21,0,0,0-4.09,8.19m-6.22,25.29c-2.86,2-3.84,4.6-2,7.82.27.48.92.75,1.39,1.12.36-.53,1-1.05,1-1.6a35.5,35.5,0,0,0-.37-7.35M543.57,698.05c-2.34.28-4.68.49-7,.87-.57.09-1.06.71-1.58,1.08.31.39.67,1.14.91,1.1,2.87-.43,5.73-1,8.59-1.48a7,7,0,0,0-.92-1.57m-442.7-93.68A10.81,10.81,0,0,0,98,603.28a7.52,7.52,0,0,0-2.56.7,14.13,14.13,0,0,0,1.91,1.21c1.4.61,2.9,1,4.26,1.68a22.8,22.8,0,0,1,2.94,2.08c-.67-1.23-1.32-2.48-2-3.69-.2-.34-.57-.59-1.69-.88M35.38,236.28l-.29-.29c-2.5,3-5,5.93-7.42,9-.09.12,1.16,1.28,1.79,2,.18-.26.55-.55.51-.76-1-5,3.59-6.51,5.42-9.9M304,717.95l1.81-3.17a25.34,25.34,0,0,0-3,1.53,18.55,18.55,0,0,0-3.06,2.57,22,22,0,0,0-2,2.85,25.06,25.06,0,0,0,3.68-1.37,14.71,14.71,0,0,0,2.49-2.41M534.87,124c1.6,2.45,3,2.32,4.79-.75.5-.87.19-2.21.25-3.33a18.15,18.15,0,0,0-2.29,1.38c-.84.68-1.56,1.52-2.74,2.7M513.73,300.12l1.57-2.58c-.86-.46-2.43-1.38-2.48-1.31-1,1.6-1.92,3.31-2.82,5a18,18,0,0,0,3.73-1.11m90.78,8.7a11.1,11.1,0,0,0-1.9.32c0,2.13.17,4.26.37,6.39,0,.14.68.23,1,.34.44-1.72.92-3.43,1.28-5.17.09-.44-.24-1-.79-1.88M294.45,814.53l.58,1.08q2.2-4.25,4.39-8.5c.2-.38.35-.78.52-1.18-.37,0-.9-.09-1.1.11-2.14,2.16-4.89,4-4.39,8.49M102.53,616l1.9-1.42a44.35,44.35,0,0,0-5.23-1c-.36,0-.82,1.18-1.23,1.82a5,5,0,0,0,1.3.54c.8.09,1.62,0,3.26,0m360.21-305.5c1.77-.67,3.55-1.33,5.31-2,0,0-.18-.56-.27-.86a20,20,0,0,0-5,2.9M323.88,712.15c.69-1.74,1.39-3.47,2-5.22,0-.08-.54-.38-.83-.58a35.48,35.48,0,0,0-2.34,3.73c-.17.35.47,1.09,1.15,2.07m-25.7-14.09c-.14.21-.45.53-.39.63.38.63.84,1.21,1.28,1.8a26.25,26.25,0,0,0,1.95-3.67c.2-.56-.33-1.38-.52-2.07-.63,1-1.27,1.93-2.31,3.32m14.51,18.65c-.83.71-2.14,1.31-2.33,2.16-.14.62,1.2,1.57,1.88,2.37a15.26,15.26,0,0,0,.45-4.53m77.93,58,3.94,1c-1.09-1-2.17-2.07-3.27-3.1a.59.59,0,0,0-.36-.1c-.49,0-1,0-1.46,0a11.36,11.36,0,0,0,1.15,2.17M694,89.13c.37,1.2.68,2.42,1.15,3.58.14.35.73.53,1.11.79.08-.37.33-.84.2-1.11-.9-1.8-1.89-3.55-2.85-5.32a4.36,4.36,0,0,0,.39,2.05M53.62,183.23c-1.66-2.08-2.16-.24-2.46.89a7.69,7.69,0,0,0,.31,2.77,15.25,15.25,0,0,0,1.71-1.57,2.52,2.52,0,0,0,.44-2.08M88.85,57.63c-.28-1.54-.53-3.08-.85-4.61,0-.22-.39-.38-.6-.57a12.33,12.33,0,0,0-.92,3.7c0,.67,1.26,1.27,2.37,1.48M450.31,492l-3.09-2.71c.48,1.09.9,2.21,1.46,3.26a9.76,9.76,0,0,0,1.22,1.52,3.1,3.1,0,0,0,.42-2.07m125.6-228.4,2.56,2.41,1.17-1.95a10.22,10.22,0,0,0-3.73-.46m-506.53-136-1.06,2.25c.94-.51,2.2-.81,2.73-1.6s.14-2,.17-3c-.47.63-.95,1.26-1.84,2.31M26.67,269.86,25.62,267l-1.43,3.43a6.66,6.66,0,0,0,2.49-.53m634.62,313-2.89,1.26,2,2a7.73,7.73,0,0,0,.84-3.3M386.47,798,388.7,799a6.91,6.91,0,0,0-.92-2.19,8.65,8.65,0,0,0-2.22-1.3,9,9,0,0,0,.92,2.4m-165-348.19c-1.15,0-2.3,0-3.44.18-.12,0-.17.73-.25,1.11,1.13-.06,2.26-.11,3.39-.18.1,0,.19-.18.29-1.11m337.83-138c3.12-2.31-1.2-2.28-1.14-3.62-.38,0-.89-.07-1.1.13a1.1,1.1,0,0,0-.13,1.07,33.12,33.12,0,0,0,2.37,2.42m-315.86,490,1.28,3.32c.27-.23.78-.49.76-.67-.17-1.28-.46-2.54-.7-3.8-.58.25-1.16.5-1.33,1.16M381.91,765.2a13.64,13.64,0,0,0-2.55-1.65,9.23,9.23,0,0,0-2.63-.21c1.65.9,3.3,1.81,5,2.67.11.06.41-.25.21-.8M600.36,541,601,543c.62-.58,1.49-1.06,1.78-1.77s-.15-1.52-.26-2.29c-.58.53-1.16,1.05-2.15,2m5.8-219.69.91,2.57,1.43-.76a5.11,5.11,0,0,0-2.34-1.81M541.08,541.37l.47,1.66,2.43-2a7.85,7.85,0,0,0-2.9.36M79.32,107.79l1.24-1.93c-.46.09-1,0-1.35.3a22.57,22.57,0,0,0-2,2,4.39,4.39,0,0,0,2.07-.38m235,706.74.52-2.8a6,6,0,0,0-1.34.36,3.62,3.62,0,0,0,.82,2.44m12.44-87,2,2.85c.16-.31.53-.78.44-.9a5.07,5.07,0,0,0-2.45-1.95m7-17.82,1.71,1.61,1-1.43a5.41,5.41,0,0,0-2.66-.18M581.29,274l-1.14-1.14a11.59,11.59,0,0,0-.45,2.78c0,.39.87.73,1.34,1.09.08-.64.16-1.27.25-2.73M328.44,819.5l.81-2.51c-.58.32-1.47.52-1.65,1a1.39,1.39,0,0,0,.85,1.52M546.89,175.77a9.44,9.44,0,0,0,.67,2.25c.21.37.92.45,1.4.66a5.36,5.36,0,0,0-.12-1.73c-.19-.47-.73-.79-1.95-1.18M379.42,624.27l2-.35-1-2a4,4,0,0,0-1,2.31M50.3,194l-2,.35,1,2a4,4,0,0,0,1-2.31M338.39,700.12l-1.7-.79-.42,2a12.32,12.32,0,0,0,2.11-1.2M43.67,366.44l-.82-1.66-1.92,1.4c.64.08,1.27.17,2.74.25M549,163.75c.85.41,1.7.85,2.57,1.21.1,0,.37-.36.57-.56a7,7,0,0,0-3.14-.65M25.84,426.55l1.72.77.1-1.43c-.75.08-1.49.17-1.82.67M641,589l-1.88-1.24-.61,1.23a2.64,2.64,0,0,0,2.49,0M192.89,461.78l1.37,1.66.7-1.6a3.38,3.38,0,0,0-2.07-.06m21.55,337.41-1.13,3c.19,0,.51.09.54,0a4,4,0,0,0,.59-3M66.88,136.8,68.12,134a3.66,3.66,0,0,0-.76-.15,5.67,5.67,0,0,0-.48,2.93M53.2,361.88l1.66-1.3-1.12-.77a5,5,0,0,0-.54,2.07M37,74.62l1.34,1.66.73-.73A3.22,3.22,0,0,0,37,74.62M80.56,60.12l1.66-1.34L81.48,58a3.22,3.22,0,0,0-.92,2.07M188.33,766.45l-1.66,0,1.17,2a2.88,2.88,0,0,0,.49-2M525.75,11.2l-.81,1.68c.48-.21,1.17-.3,1.39-.67A9.57,9.57,0,0,0,527,10c-.29.27-.57.53-1.27,1.21M40.35,194.83l2-2c-.17-.16-.49-.45-.49-.45a4.77,4.77,0,0,0-1.52,2.47M350.82,807.9,353,809c-.73-.65-1.46-1.3-2.19-1.13M2.63,419.09l2.19,1.13c-.73-.65-1.46-1.3-2.19-1.13M341.7,791.32c-.58-.41-1.14-.85-1.75-1.21-.06,0-.37.36-.56.56a3.83,3.83,0,0,0,2.31.66M9.26,379.29l-1.42-1.07c-.08.5-.4,1.26-.19,1.44.38.33,1.05.32,1.61-.37m65.08-8.7a1.48,1.48,0,0,0-.28.29c0,.07,0,.19,0,.28a23.48,23.48,0,0,0,2.24-1,7.39,7.39,0,0,0-.41-1.17l-1.57,1.57M58.18,163.75l.55,1.11,1.11-1.94a1.65,1.65,0,0,0-1.66.83m-21.55,349-2.18-.3a2.21,2.21,0,0,0,0,.54,2.1,2.1,0,0,0,2.22-.24M28.75,11.62l.26-1.4-2.07,2.07a5,5,0,0,0,1.81-.68M19.63,308.41l-1.71.05.41,1.14C18.9,309.34,19.47,309.08,19.63,308.41Z"/><path class="cls-1" d="M.35,867.17C.14,859.58.13,852,.16,844.39c0-.93-.18-2.29.33-2.71,3.24-2.66,6.32-5.84,10.06-7.48,6.93-3,11.29-8.89,16.6-13.66,4.12-3.7,7.78-7.13,14-4.9,1.77.63,4.13-.54,6.24-.63,1,0,2,.69,3,.76a4.51,4.51,0,0,0,2.81-.5c.9-.67,1.27-2,2.15-2.76,1.85-1.51,1.85-1.3-.18-2.6-.63-.4-.84-1.59-1-2.46,0-.15,1.35-.91,1.81-.72,4.49,1.82,8.94,3.75,13.37,5.73.54.24.88.94,1.31,1.43-.55.36-1.17,1.1-1.65,1-6.09-1-10.93,2-15.91,4.69-1.77,1-3.89,1.27-5.78,2a12.48,12.48,0,0,0-2.36,1.66c.94.54,2,1.7,2.81,1.51,2.71-.67,5.26-2,8-2.72,3.39-.9,6.89-1.33,10.3-2.18,2.22-.55,4.31-1.66,6.53-2.2,1.81-.45,4-1.16,5.54-.51,7,3,14,6.36,20.77,9.87,7.41,3.82,14.62,8,22,11.93,3,1.6,6.34,2.7,9.45,4.18s6.27,3.54,9.58,4.87c4.74,1.91,9.64,3.4,14.48,5.05q3.45,1.18,6.91,2.32c1.1.36,2.22.63,3.31,1,1.81.62,4.17.78,5.3,2,2.4,2.67,5.53,2.24,8.4,2.86.71.15,1.62-.63,2.45-1-.56-.68-1-1.59-1.71-2a12.6,12.6,0,0,0-3.27-1.07c-.52-.13-1.27.21-1.63-.06-4.12-3-9.16-3.91-13.7-6-1-.47-2.09-1.41-3.12-1.4-5,.05-8.42-4.47-13.61-4.46-2.16,0-4.36-2.61-6.42-4.18a4,4,0,0,1,.88-2.1c2.07.19,4.11.67,6.18,1a10.24,10.24,0,0,0,2-.07,5.84,5.84,0,0,0-.25-1.88c-2.06-4.09-4.67-5-8.63-3.32a10.88,10.88,0,0,1-3.38.81A6,6,0,0,1,132,835c.53-.45,1.05-.9,1.59-1.34,4-3.27,4-4.31,1.87-8.34-2-3.79-2.72-2.8-4.6.1a29.88,29.88,0,0,1-6.66,6.65c-.61.49-3.35-.33-3.39-.73a13.77,13.77,0,0,1,.61-5.27c.17-.57,1.51-.81,2.33-1.18,2.84-1.26,2.83-3.09,1-5.19-1.61-1.83-3.31-3.58-5-5.36-1.72,3-3.49,6-5.13,9.06a18.47,18.47,0,0,0-.87,3c-.39,1.18-.85,2.34-1.28,3.51-1.9-1.09-4.18-1.84-5.54-3.39-.71-.82-.13-3.18.44-4.61.71-1.77,2.21-3.21,3-5a6.51,6.51,0,0,0-1.51-8.22c-1-1-1.36-2.74-1.68-4.21a2.17,2.17,0,0,1,1.11-1.85c.6-.14,1.93.43,2,.9,1.06,4.6,5.72,5.21,8.13,4.47,5.12-1.59,9.13.59,13.13,2.21,10.64,4.3,21.12,9,31.47,14,3.65,1.76,6.82,4.1,11.2,4.18,1.41,0,3.36,2.05,4.08,3.62,4.67,10.21,9.1,20.53,13.52,30.85a16.22,16.22,0,0,1,.63,4.09,18.33,18.33,0,0,1-4.77,0c.13-1.25.77-2.33.66-3.33,0-.45-1.57-.75-2.42-1.12l-.93,4.66c-20,0-40.07,0-60.31-.21-3-.41-5.9-3.17-8.5.21-14.78,0-29.57,0-44.56-.21.16-2,.72-3.48,3-3.11,4.15.66,8.3,1.3,12.44,2,1.07.18,6.26-4.56,5.65-5-3-2.18-6.28-4.1-9.47-6.08a1.28,1.28,0,0,0-.82,0c-5.48,1.1-10.93,2.43-16.46,3.2a20.7,20.7,0,0,1-7.46-.87c-1.83-.44-3.45-2.07-5.24-2.21-2.66-.21-5.4.77-8.07.63-6.41-.34-12.8-1.28-19.2-1.42-1.69,0-3.43,2-5.14,3,1.63,1.15,3.24,3.23,4.88,3.25,3,0,6.08-1.14,9.12-1.77,1-.21,2-.3,3.07-.44,0,1,.15,2.05.08,3.07-.13,2-.37,4-.57,6H.35m25.91-24c1.62,3-1.25,3.58-2.73,4-3.1.94-6.44,1.11-9.62,1.84-1.06.25-1.95,1.27-2.92,1.93.46.44,1,1.31,1.37,1.25,3.23-.54,6.47,1,9.84-1.33,2.51-1.74,5.19-5.24,9.15-3.38,2.94,1.38,4.93,0,7.1-1.59A44.5,44.5,0,0,1,56.35,838c4.29-.8,8.31-3.19,12.34-5.09.61-.29.66-1.79,1-2.74a6.33,6.33,0,0,1-1.77,1.14c-1.91.45-3.93.49-5.77,1.11-3.25,1.08-6.26,2-8.55-1.68a2.05,2.05,0,0,0-1.68-.8c-3.82.74-7.76,1.19-11.37,2.52-7.29,2.7-14.38,5.93-21.59,8.87-2.48,1-5.1,1.69-7.57,2.72-.59.24-.85,1.25-1.27,1.91a9.93,9.93,0,0,0,2.46.09c4.3-.91,8.59-1.92,13.71-2.89m142.18-.41c3.07,1.52,6.12,3.08,9.21,4.53a9.89,9.89,0,0,0,2.36.47c-.36-.66-.56-1.61-1.12-1.94q-5.92-3.51-12-6.75c-.4-.22-1.18.27-1.78.44.21.46.3,1.06.65,1.36.67.58,1.49,1,2.67,1.89m-30.67,10.78c2.35,1,4.69,2,7.06,2.89a14.78,14.78,0,0,0,2,.49c-.46-.71-.75-1.76-1.4-2.09a81.4,81.4,0,0,0-7.69-3.34,46.09,46.09,0,0,0-4.91-1.29c1.52,1,3,1.94,5,3.33m15.34,6.22-3.73,2.84a45.83,45.83,0,0,0,4.78-.41c.65-.12,1.19-.83,1.77-1.27a9.54,9.54,0,0,0-2.82-1.16M12.16,862.2a1.5,1.5,0,0,0,.28-.29c0-.07,0-.19,0-.28-.94.49-1.89,1-2.81,1.51,0,0,.14.47.22.72A27.34,27.34,0,0,0,12.16,862.2Z"/><path class="cls-1" d="M695.08,867.17c-6.55-1.79-12.92-3.49-19.24-5.38-6.61-2-13.16-4.15-19.74-6.22-2.16-.68-2.6-4.14-.91-6.35,7.82-10.26,15.51-20.61,23.41-30.8,6.49-8.38,13.29-16.53,19.82-24.88,3.75-4.8,9.34-5.34,14.57-6.78,1.85-.51,3.68-1.1,5.72-1.65a120.3,120.3,0,0,1,0,12.23,11.31,11.31,0,0,1-3.51.18,7.3,7.3,0,0,0-7.78,3.92c-.74,1.31.38,3.67.63,5.56a6.24,6.24,0,0,1,.06,2,20,20,0,0,1-.91,2.62c-.7-.6-1.35-1.25-2.1-1.77-1.1-.77-2.26-1.44-3.4-2.15l-2.43,4.58c1.8.8,3.89,2.6,5.35,2.18,3.36-.94,5-.32,5.73,3.07a33.75,33.75,0,0,0,1.11,3.67q3.72,11.37,7.46,22.74c0,7,0,14.09-.21,21.35-9.1-2.56-18-5.38-26.9-8.06-5-1.51-10.13-2.78-15.19-4.17-2-.54-4-1-5.9-1.69-2.07-.77-5.73.18-4.64-4.11,4.6-5.22,9-10.38,13.36-15.67,5.53-6.79,10.91-13.69,16.41-20.51,3.83-4.75,7.77-9.42,11.62-14.17a4.71,4.71,0,0,0,.49-1.69c-.57.15-1.35.12-1.67.49q-4,4.7-7.93,9.53c-7.72,9.62-15.48,19.22-23.09,28.93-3.3,4.22-6.27,8.7-9.6,13.07a53.48,53.48,0,0,0-4.53,3.54,7.23,7.23,0,0,0-1.06,1.62c.69.22,1.53.79,2.06.59,2.88-1.13,5.1-.21,7.46,1.54a6.89,6.89,0,0,0,4.51.93c2.94-.34,4.88.84,6.73,2.93,1.41,1.59,2.81,4.16,5.6,1.38.53-.53,2.18-.25,3.17.08,3.15,1,6.22,2.32,9.34,3.46,2.29.84,2.06,2.21.93,3.84Z"/><path class="cls-1" d="M718.91,501.37a45.47,45.47,0,0,1-5,3.11c-.55.29-1.55.62-1.85.36-2.47-2.16-4.84-4.44-7.21-6.71a13.57,13.57,0,0,1-1.2-1.52c-.15.76-.7,1.8-.39,2.22a52.47,52.47,0,0,0,4,4.42c1.69,1.8,3.93,3.34,4.93,5.47s0,4-3.07,3.72c-1.24-.1-2.52.53-3.8.75-.92.16-1.86.2-2.79.29.77.59,1.58,1.13,2.3,1.77.88.8,1.69,1.68,2.53,2.53-1.59.33-3.21,1-4.77.89-1-.07-1.88-1.34-2.91-1.9a9.83,9.83,0,0,0-2.26-.62c.3.84.35,2.12.94,2.46,2.85,1.62,1.8,3.73.77,5.65-.51,1-1.76,1.5-2.68,2.24,0-1,0-2,.15-2.94.38-3.34-1.89-5.11-4.35-6.07a2.37,2.37,0,0,1-1.09-4c7.2-6.88,7.12-6.84,8.84-17.21.47-2.85,2-5.62,5.81-5.44a5.72,5.72,0,0,0,1.51-.34,4.7,4.7,0,0,0-.5-1.4c-2.9-3.66-2.74-8.4.79-12.08,2.45-2.55,4.81-4.75,3.2-8.88-.54-1.39-1.3-4.2,2.49-4.05.72,0,2.57-3.41,2.18-4.77-1.61-5.67.55-10.58,2.2-15.66a12.23,12.23,0,0,1,1.08-2.54c.21,20,.21,40.07.21,60.31m-8.7-17.2c.29-.29.72-.53.85-.88a26.13,26.13,0,0,0,.68-2.56,17.9,17.9,0,0,0-1.86-.2,5,5,0,0,0,.33,3.65m7,14.51a10,10,0,0,0-1.74-1.68,6.12,6.12,0,0,0-2-.4c.19.75.16,1.88.63,2.16.71.42,1.77.25,3.09-.08M716,470.07l-.81,1.68,2.51.76a28.31,28.31,0,0,0-1.71-2.44m-2.9,19.48,2,2.07.53-.53a5.1,5.1,0,0,0-2.49-1.54m-10.36,17a4.93,4.93,0,0,0,.36,1.93c.34.49,1.09.69,1.67,1a15.89,15.89,0,0,0-.77-1.67A9.82,9.82,0,0,0,702.74,506.55Z"/><path class="cls-1" d="M718.91,644.79c-7.52-1.12-14.6-3.78-20.16-9-6-5.61-11.22-12-11.31-20.88a6.77,6.77,0,0,1,.86-2.24c.81.54,1.95.9,2.36,1.65,2.81,5.11,6.85,8.13,12.84,8.33a4.94,4.94,0,0,1,2.93.84c4.09,3.62,8.06,1.38,12.27,0C718.91,630.49,718.91,637.53,718.91,644.79Z"/><path class="cls-1" d="M718.91,825.52c-2.49-6.38-5-12.95-7.39-19.59-.34-1,.27-2.27.44-3.42a16,16,0,0,1,3.58,1.28,41.23,41.23,0,0,1,3.16,2.86C718.91,812.87,718.91,819.09,718.91,825.52Z"/><path class="cls-1" d="M46.78,867.17c0-1.71-1-4,2.07-4.15,2.78-.11,2.36,2.08,2.69,3.94A35.13,35.13,0,0,1,46.78,867.17Z"/><path class="cls-1" d="M718.91,542.82c-.14.21-.29.25-.41.2-1.46-.66-3.85,1.59-4.57-1.44,1.52-.35,3-.69,4.77-1A7.77,7.77,0,0,1,718.91,542.82Z"/><path class="cls-1" d="M701.71,867.17c1.52-3.05,3.54-2,5.6-.21A48.67,48.67,0,0,1,701.71,867.17Z"/><path class="cls-1" d="M642.85,867.17a35.15,35.15,0,0,1,4.77-.21A35.13,35.13,0,0,1,642.85,867.17Z"/><path class="cls-1" d="M212.37,296c3.15,1.07,5.85,2.23,8.62,3.19a11.13,11.13,0,0,0,4.57.89c6-.66,12-1.56,18-2.44a10.35,10.35,0,0,0,3.31-1c2.61-1.39,5-2.64,8.3-1.66,1.43.42,3.48-1.23,5.24-1.94-1.55-1.22-3-3.23-4.68-3.52a113,113,0,0,0-13.31-1q-10-.48-20-.8a3,3,0,0,0-2.13.75c-3.81,4.61-8.61,4.24-14.15,4.63-8,.56-14.61-2.37-21.64-4.64a4,4,0,0,1-2-1.19,9.17,9.17,0,0,1-.9-2.5,13.68,13.68,0,0,1,2.24-.19c1.89.14,3.77.38,5.66.58-1.37-1.09-2.72-2.22-4.13-3.26-4.22-3.13-8.66-6-12.56-9.5-.89-.79-.46-3.83.25-5.45,1-2.35,3.51-4.14,4.24-6.52,1.36-4.44,4.87-5.37,8.45-6.78,4.39-1.74,8.58-4,12.94-5.78,1.41-.59,3.17-.32,4.62-.85a52,52,0,0,0,5.5-2.72c-.79-1.16-1.58-2.32-2.39-3.46-.53-.75-1.09-1.48-1.63-2.23a10.15,10.15,0,0,1,2.9-.61c5.57.5,11.12,1.14,16.68,1.71a21.87,21.87,0,0,0,2.29,0c-.25-.59-.46-1.19-.75-1.75-1-2-.3-2.84,1.75-2.44a17.77,17.77,0,0,1,5.5,1.68c5.87,3.42,12.05,4,18.71,3.41,3.43-.3,7,1,10.51,1.43a10,10,0,0,0,2.92-.54,9.59,9.59,0,0,0-2.19-1.83,25.5,25.5,0,0,0-14.4-2c-3.71.6-7.84-1.37-11.77-2.23-.35-.08-.62-.48-1-.69-1-.63-2-1.24-3-1.86a19.84,19.84,0,0,1,4.54-1.48c1.18-.1,2.42.74,3.66,1,2,.5,4.64,1.93,6,1.17,6-3.45,11.07-.14,16.48,1.33a17,17,0,0,0,6.15.44,15.76,15.76,0,0,1,10.93,2.68c1.51,1,2.55,1.73,4.19,0,.64-.69,2.65-.61,3.82-.22,4.11,1.38,8.08,3.18,12.19,4.58,3.55,1.22,6.92,2.3,9.22,5.78,1.66,2.52,4.52,3.05,7.37,1.36,3.27-1.94,5.47-.2,7.5,2.15,1.4,1.63,2.7,3.35,4.21,4.86.41.41,1.45.2,2.19.27-.24-.67-.42-1.36-.72-2-.67-1.45-1.4-2.87-2.1-4.3,1.61.68,3.54,1,4.77,2.11,3.15,2.82,6,5.77,6.73,10.47.46,3.12,4.27,3.77,7.06,2.16,1.51-.87,2.58-1.54,4.8,1,3.24,3.69,4.24,8.56,7.79,11.79.47.43,1,.81,1.46,1.21a8.67,8.67,0,0,0-.06-2.23c-.13-.46-1-.76-1.07-1.19-.18-1.57-.82-3.9-.06-4.6,2-1.83,4.49-1.52,6.21.88,4.22,5.9,4.19,5.89,10.85,3.73a27.67,27.67,0,0,1,5.63-1.35c.89-.09,1.86.73,2.8,1.13-.61.42-1.26.81-1.84,1.27-1.87,1.5-3.74,3-5.57,4.56a2.32,2.32,0,0,0-.51,1.11,14.43,14.43,0,0,0,3.4,1.72,29.1,29.1,0,0,0,4.52.47c-.48,2.15-.86,4.33-1.51,6.42-.19.62-1.15,1.06-1.83,1.45-2.38,1.35-3.55,2.87-2.2,5.86.5,1.11-.57,3-1.05,4.47-.53,1.65-1.22,3.26-1.82,4.89-.27.73-.5,1.47-.74,2.21a26.76,26.76,0,0,1-2.43-1.14,9.52,9.52,0,0,1-1.39-1.21c-.37.68-1.13,1.42-1,2a24.28,24.28,0,0,0,1.5,5.58c1.44,3.36,1.59,6.51-1.38,9-3.3,2.78-5.51,6.08-6,10.39-.73,6.65-5.42,8.9-11,10.94-8.76,3.2-17.65,6-25.48,11.69-4.59,3.34-10.73,4.66-16.29,6.51-1.41.47-3.3-.47-5-.82a13.77,13.77,0,0,1-1.71-.58,11.27,11.27,0,0,1,.31,1.71c0,.75-.08,1.5-.12,2.24a7.67,7.67,0,0,1-2.5-.82c-1.29-1-2.36-2.32-3.56-3.47-2.26-2.16-4-1.82-5.19,1-.81,1.94-1.14,4.89-2.56,5.57-1.71.82-4.34-.46-6.58-.51a10.57,10.57,0,0,0-4.6.83c-5.46,2.58-7.11,2.16-10.89-2.62-1.08-1.37-2.89-2.16-4.34-3.25-.6-.46-1.68-1.35-1.61-1.46a16.09,16.09,0,0,1,2.7-3.46,11.32,11.32,0,0,1,2.92-1.4c-1.22-.38-2.45-1.09-3.67-1.07a8.75,8.75,0,0,1-6.61-2.3c-1.77-1.58-4.77-1.68-7.07-2.78-7.26-3.49-14.46-7.12-21.64-10.79-.69-.35-1.58-1.5-1.45-2.05,1.36-5.64-3.67-6.36-6.55-8.66-4.45-3.54-9.08-6.85-13.42-10.52-1-.83-1-2.74-1.52-4.16,1.42.41,2.87.74,4.23,1.29.59.24.93,1,1.5,1.39a14.37,14.37,0,0,0,2.28.92c0-.86.13-1.72.12-2.58,0-1.26-.08-2.51-.13-3.77a15.48,15.48,0,0,1,2.56,3.11c.59,1.26.24,3,1,4.12,1.14,1.67,2.69,3.86,4.38,4.19,3.53.68,7-.27,9.87,3.63,1.13,1.54,5.76.84,8.73.5.75-.08,1.21-2.69,1.8-4.13a12.9,12.9,0,0,1-3,.14c-1.24-.22-3.5-.85-3.48-1.18.31-4.86-4.37-5.37-6.7-7.83-1.19-1.26-4.62-1.31-3-3.77.62-.94,4.46-.55,6.36.3,4,1.77,7.37,4.38,11.9,5.41,4.08.92,7.58,4.22,11.51,6.13a66.91,66.91,0,0,0,9,3.22c.33.11,1.39-.77,1.33-1a3,3,0,0,0-1.14-2c-2.19-1-4.56-1.67-6.74-2.72-6.11-2.95-12.14-6.05-18.22-9-3.09-1.52-6.18-3.1-9.4-4.32-1.13-.43-2.64.07-4,.25-4.06.52-8.11,1.53-12.16,1.5-3,0-7-.42-8.81-2.32-4.66-4.89-10.62-5.31-16.43-6.65-2.53-.58-5.09-1-7.59-1.71-.64-.17-1.12-.94-1.67-1.43.57-.34,1.19-1,1.72-1,5.8.62,11.57,1.53,17.38,2,2.48.18,5-.57,7.55-.89.92-.12,1.85-.2,3.19-.29m11.19-39a10.54,10.54,0,0,0-1.72-.81c-4.09-1.11-8.17-2.22-12.29-3.21a16.63,16.63,0,0,0-3.4-.12c.76.83,1.36,1.95,2.3,2.43,2.05,1,4.49,1.36,4.17,4.73-.08.83,2.25,2.85,2.74,2.64,4.61-2,8.75.5,13.08.89.81.07,1.83-.93,2.52-1.66.14-.15-.6-1.53-1.2-1.92a30.46,30.46,0,0,0-6.2-3m-14.92,9.12c-2.69-2.69-5.4-5.37-8.06-8.09a4.81,4.81,0,0,1-.65-1.37l-1-2.14L195.08,259a24.93,24.93,0,0,1,2.51,1.37c1.1.77,2.45,1.46,3.12,2.54,2,3.18,5.59,2.69,8.35,4.08,0-.14,0-.28-.41-.83M282.43,359c-.43.68-1.35,1.82-1.21,2,3.61,3.86,5.44,3.87,9,.12a13.34,13.34,0,0,0,1.35-2,9.74,9.74,0,0,0-2.92-.83c-1.82.07-3.62.49-6.26.77M250.1,330.79c-.73-.55-1.53-1.65-2.18-1.56a55.84,55.84,0,0,0-7.13,1.61,1.43,1.43,0,0,0-.14,1.22c2.16,2.69,4.82,2.44,9.44-1.27m-9.53-70.88c-.79-.41-1.57-1.13-2.37-1.16s-1.62.63-2.43,1c.52.47,1,1.28,1.55,1.34a4.11,4.11,0,0,0,3.25-1.17m-46,22.8.76-1.73a18.7,18.7,0,0,0-3-.68c-.19,0-.76,1.36-.65,1.44a4.68,4.68,0,0,0,2.86,1m18.65,17.82-3.55-.41V302a21.06,21.06,0,0,0,3.54-1.43M229,269l-4.83-1.8c0,.26-.19.71-.13.74,1.54.76,3.11,1.47,4.67,2.17,0,0,.19-.18.29-1.11m32.75,68.39c.28,1.11.56,2.21.89,3.3,0,0,.68-.17,1-.26a6.27,6.27,0,0,0-1.93-3m-6.22-6.22c.67.94,1.29,1.91,2,2.8.13.16.7,0,1.06-.08-.51-.66-1-1.34-1.55-2A1.73,1.73,0,0,0,255.48,331.21Z"/><path class="cls-1" d="M80.35,756.71c3-3.87,6-7.45,8.66-11.21,1.95-2.73,3.44-5.77,5.33-8.55,4.92-7.23,10-14.32,14.86-21.62,1.82-2.75,2.93-6,4.58-8.85.48-.83,1.73-1.21,2.63-1.8a12.3,12.3,0,0,1-.24,3c-2.53,7.55-7,14-11.42,20.54C97.58,738.74,91,749.65,83.52,760,79.27,765.86,74,771,68.9,776.27c-1,1-3.09.82-4.69,1.19.43-1.41.47-3.16,1.35-4.19C70.31,767.72,75.26,762.35,80.35,756.71Z"/><path class="cls-1" d="M57.35,785.1c0-.69,0-1.21,0-1.21,6.15-.18,12.32-1.7,18.41.4.28.1.44.54.66.82a4.62,4.62,0,0,1-1.09.8c-1.69.59-3.39,1.18-5.12,1.65-3.15.86-3.7,3.25-2.55,5.62,1.28,2.65.05,3.37-1.91,4.4A22.08,22.08,0,0,0,61,801c-1.57,1.47-2.83,2.12-4.91.71s-2.4-2.93-1.59-5.17c.28-.78-.29-1.86-.47-2.8-.78.52-2.16,1-2.25,1.59-.74,5.14-4.35,3.07-6.79,2.47s-4.46-2.22-6.68-3.39c3.16-1.73,6.16-4.11,9.54-5,3.22-.86,6.86-.1,10.31-.24a12.26,12.26,0,0,0,3.26-1.09c-1-.45-2-.83-3-1.37A3.25,3.25,0,0,1,57.35,785.1Z"/><path class="cls-1" d="M.35,825.93c5-6.45,12-6.77,19-6.81.52,0,1,.47,1.56.72a13.75,13.75,0,0,0-1.35,1c-1.27,1.23-3,2.27-3.67,3.78-2.75,6-9.09,6.46-13.88,9.27-.22.13-1.67-1-1.74-1.6A31.69,31.69,0,0,1,.35,825.93Z"/><path class="cls-1" d="M507.51,288.31c-1.11.72-2.34,1.07-3.28,1.8s-1.41,2.49-1.78,2.41a8.66,8.66,0,0,1-4-2,12.93,12.93,0,0,0-9.24-3.76c-.82,0-2.37-1.17-2.29-1.43.34-1.17.89-2.74,1.83-3.19a17.67,17.67,0,0,1,5.32-1.08,3.61,3.61,0,0,1,1.76.42c-.66,5.74,3.41,2.78,5.45,2.77C504.31,284.27,506.55,285,507.51,288.31Z"/><path class="cls-1" d="M289.27,779.09c3.21-3.06,7.24-2.86,9.81.34.36.44.24,1.27.34,1.91a19.26,19.26,0,0,1-3,.25,22.48,22.48,0,0,1-3.17-.65l1.5,3.17a27.84,27.84,0,0,1,1.43,3.13,28.16,28.16,0,0,1,.69,3.35c-1.2.1-2.39.25-3.59.29-.76,0-1.63-.38-2.27-.14a8.44,8.44,0,0,0-2.07,1.64,29.25,29.25,0,0,0,.36-3.36C289.24,785.79,289.13,782.54,289.27,779.09Z"/><path class="cls-1" d="M46.78,542c-3.26-1.45-6.38-2.57-9.34-4-.81-.4-1.11-1.8-1.65-2.75,1-.13,2.12-.61,3-.32A121.91,121.91,0,0,1,52,539.8c2.9,1.36,5.39,3.6,8,5.55a3.24,3.24,0,0,1-.69,1.73c-1.14-.09-2.83-.1-3.27-.8C53.83,542.84,50.15,543.16,46.78,542Z"/><path class="cls-1" d="M66.47,804.17c3.43-1.71,6.84-3,7.76-7.22a7.88,7.88,0,0,1,2.32.42c.11,1.58.55,4-.28,4.64-4.42,3.45-1.1,3.36,1.49,3.86A1.66,1.66,0,0,1,78.84,807c0,.7-.21,2-.54,2-1.89.41-4.2,1.28-5.7.58C70.27,808.55,68.48,806.32,66.47,804.17Z"/><path class="cls-1" d="M563.05,293.49c-.39,6.25-3.46,8.19-8.17,5.37-.91-.55-1.42-2.1-1.69-3.28-.17-.75.65-1.67.68-2.53a24.37,24.37,0,0,0-.41-3.65c1.14.53,2.25,1.15,3.43,1.58A46.64,46.64,0,0,1,563.05,293.49Z"/><path class="cls-1" d="M545.85,277.11c-1.75,3.05.45,3.29,2.28,4a10.7,10.7,0,0,1,2.48,1.93c-1,.44-2.26,1.46-3.08,1.2-1.53-.48-4-1.71-4-2.6.06-4.29-2.55-4-5.4-3.94-.53,0-1.07-.43-1.61-.67.36-.54.62-1.44,1.09-1.56a73.48,73.48,0,0,1,8.33-1.82c1.63-.23,3.94-.59,3.67,2.18C549.57,276.3,547.3,276.55,545.85,277.11Z"/><path class="cls-1" d="M123,634.42c-.21-2.39-.68-4.57-1-6.77-.08-.54.34-1.15.53-1.73.64.43,1.55.72,1.85,1.32a6.46,6.46,0,0,1,.37,2.72c0,6.74,4.38,12.83,3,19.77a9.77,9.77,0,0,1-.81,1.89c-.43-.57-1.12-1.08-1.24-1.71C124.72,644.84,123.79,639.73,123,634.42Z"/><path class="cls-1" d="M76.62,566.86a8.31,8.31,0,0,1,.49,1.87,43.39,43.39,0,0,1-18-2.53c-.72-.27-1.2-1.18-1.79-1.8.42-.21.87-.66,1.25-.61C64.54,564.7,70.48,565.68,76.62,566.86Z"/><path class="cls-1" d="M580.26,302c-.62-3.34-1.08-6.47-1.4-9.61,0-.42.6-1.32.88-1.3,1.08.07,3,.31,3.08.7a82.59,82.59,0,0,1,.93,12c0,.75-2.2,1.47-3.39,2.2A25.55,25.55,0,0,0,580.26,302Z"/><path class="cls-1" d="M107.09,440.23c-.55,5.43-1.08,10.44-1.7,15.44-.05.42-.74.76-1.13,1.14-.44-.47-1.21-.91-1.26-1.42-.37-3.87-.67-7.76-.86-11.65C102,440.22,104.1,439.44,107.09,440.23Z"/><path class="cls-1" d="M100.66,425.1c5.28,1.42,6.6,3.12,6.38,8.48a8.34,8.34,0,0,1-1,2.5c-.76-.71-2.11-1.36-2.2-2.14-.53-4.68-3.46-6.46-7.67-7a5.52,5.52,0,0,1-1.54-.73c.49-.58.94-1.6,1.47-1.64A16.26,16.26,0,0,1,100.66,425.1Z"/><path class="cls-1" d="M219.84,230.48a4.71,4.71,0,0,1-.75-2.39,90.85,90.85,0,0,1,11-3.26c.81-.17,2,1.59,3,2.46a11.43,11.43,0,0,1-2.84,1.49C226.95,229.45,223.59,229.93,219.84,230.48Z"/><path class="cls-1" d="M196.83,234.42c.74-4.2,4.69-4.39,7.42-5.37s6.26-.25,9.42-.19c.4,0,.79.44,1.19.67-.31.32-.58.81-1,.92-1.6.48-3.23.87-4.85,1.27C205.05,232.7,201,233.66,196.83,234.42Z"/><path class="cls-1" d="M59.21,557.74c-2.63-.35-5.09-.27-7.46-.71-1.26-.24-2.36-1.37-3.52-2.09,1.08-.38,2.28-1.26,3.22-1.05,5.14,1.16,10.21,2.58,15.3,4,.51.14.92.65,1.38,1-.65.26-1.36.82-1.94.72A60.77,60.77,0,0,1,59.21,557.74Z"/><path class="cls-1" d="M158.7,717.33c-1.13.9-2.05,1.59-3,2.28,0-1.18-.42-2.76.18-3.47a48.07,48.07,0,0,1,6.93-6.89c.78-.62,2.61.08,4,.18a21,21,0,0,1-2.13,2.73C162.8,713.88,160.83,715.47,158.7,717.33Z"/><path class="cls-1" d="M14.24,489.14a56.54,56.54,0,0,1,7.66,2.39c.72.31,1,1.66,1.46,2.54-.75.29-1.62,1-2.24.8-3.42-1-6.81-2.09-10.15-3.31-.45-.16-.59-1.18-.88-1.8C11.34,489.56,12.58,489.35,14.24,489.14Z"/><path class="cls-1" d="M100.66,819.3a5,5,0,0,1-.5.5c-1.5,1-2.65,4.28-4.68,1.85-1-1.23-.83-4.71.23-6.09s3.83-1,5.86-1.43C101.34,815.77,101.1,817.43,100.66,819.3Z"/><path class="cls-1" d="M43.25,805.83A15.52,15.52,0,0,1,38.69,804c-.94-.7-1.4-2.05-2.07-3.12a9.92,9.92,0,0,1,2.74-.17,22.89,22.89,0,0,1,5.82,1.75c1.49.79,2.6,2.31,3.88,3.5Z"/><path class="cls-1" d="M229,291.83c3.49-.55,6.54-1.26,9.64-1.56.87-.09,1.86,1,2.8,1.54a12.88,12.88,0,0,1-2.77,1.64,54.65,54.65,0,0,1-7.14,1.66C229.06,295.48,226.95,295.22,229,291.83Z"/><path class="cls-1" d="M150.41,707a20.88,20.88,0,0,1,.94-3.85c.56.78,1.11,1.57,1.69,2.33a26.19,26.19,0,0,1,3.11,4.07c.46.93.07,2.29.07,3.45-1.19-.43-2.77-.53-3.49-1.37C151.7,710.41,151.29,708.68,150.41,707Z"/><path class="cls-1" d="M95.27,444.16c-1.4.9-2.92,2.63-3.09-.5-.19-3.41,4.14-6.89,7.36-5.86.7.22,1.16,1.21,1.74,1.84-.57.47-1.12,1-1.72,1.41C98.22,442,96.85,443,95.27,444.16Z"/><path class="cls-1" d="M151.65,501c-1.07-1.07-2.29-1.79-2.69-2.83s-.14-2.56-.16-3.86c1.14.48,2.31.89,3.39,1.47a4.42,4.42,0,0,1,1.46,1.44c.84,1.27,1.57,2.6,2.35,3.91A31.57,31.57,0,0,1,151.65,501Z"/><path class="cls-1" d="M44.91,421.16c-.75,1.72-1.28,3.27-2.34,4.24-.68.62-2.15.37-3.26.52.35-1,.66-2.08,1.05-3.1.3-.78.79-1.49,1-2.29a19.74,19.74,0,0,0,.38-2.69A24.48,24.48,0,0,1,44.91,421.16Z"/><path class="cls-1" d="M34.13,460.12c-.83,3.23-1.62,6-2.51,8.84a9.65,9.65,0,0,1-1.17,1.94c-.71-.63-2-1.3-2-1.89a19.67,19.67,0,0,1,1.21-4.8c.27-.84,1.15-1.64,1.09-2.39C30.47,458.66,32,458.82,34.13,460.12Z"/><path class="cls-1" d="M277.87,698.88c-1.93-.21-3.45-.41-5-.62a23.28,23.28,0,0,1,3.85-2.73,27.37,27.37,0,0,1,5.5-1.58c.4-.09,1,.52,1.43.8-.36.54-.6,1.26-1.1,1.6A30.42,30.42,0,0,1,277.87,698.88Z"/><path class="cls-1" d="M87.81,792.77c-.9-1.44-1.59-2.67-2.28-3.9l4,.38a1.36,1.36,0,0,1,.74.19c1.2,1.12,2.41,2.23,3.51,3.45.15.16-.39,1.28-.47,1.27A46,46,0,0,1,87.81,792.77Z"/><path class="cls-1" d="M269.78,706.55c1-1,1.59-2,2.5-2.39a7.18,7.18,0,0,1,3.53-.17,2.67,2.67,0,0,1,.32,2.15,6.62,6.62,0,0,1-2.63,2.6c-1,.45-2.39.17-3.61.18-.94,0-1.87,0-2.81-.07C267.92,708.15,268.75,707.45,269.78,706.55Z"/><path class="cls-1" d="M34.34,454.53c-1.6.85-3.16,1.23-2.62-1.08a30.29,30.29,0,0,1,2.66-6.32A1.92,1.92,0,0,1,36.2,447c.6.59,1.37,1.75,1.15,2.3A34.57,34.57,0,0,1,34.34,454.53Z"/><path class="cls-1" d="M79.11,442.09c1.36-1.64,2.5-3.1,3.69-4.5.7-.82,1.48-1.56,2.23-2.34.17,1.14.87,2.62.4,3.37a53.46,53.46,0,0,1-4.67,5.75A9.19,9.19,0,0,1,79.11,442.09Z"/><path class="cls-1" d="M271.24,715.46a26.36,26.36,0,0,1,5-.7c.35,0,.8,2.11.7,3.21,0,.35-1.7.76-2.63.76a42.78,42.78,0,0,1-4.7-.47A9.94,9.94,0,0,1,271.24,715.46Z"/><path class="cls-1" d="M84.5,812.25c-1.62.73-3,1.25-4.44,1.77.47-1.51.93-3,1.4-4.53a.54.54,0,0,1,.29-.29l4.23-1.7C85.55,809,85.13,810.53,84.5,812.25Z"/><path class="cls-1" d="M544,293.49a17.53,17.53,0,0,1,6,0c.44.08.59,1.73.87,2.66-1.11.18-3,.8-3.19.47C546.84,295,543.12,297.5,544,293.49Z"/><path class="cls-1" d="M321,793.39a26.39,26.39,0,0,1,1.42-3.32c.91.83,2.47,1.6,2.56,2.52.14,1.31-.79,2.74-1.26,4.12A23.31,23.31,0,0,1,321,793.39Z"/><path class="cls-1" d="M129.47,656.6c.28,2.65.59,4.88.79,7.12,0,.37-.44.78-.69,1.17-.31-.32-.81-.6-.9-1-.61-2.52-1.24-5-1.64-7.6a10.13,10.13,0,0,1,.46-3A23.35,23.35,0,0,1,129.47,656.6Z"/><path class="cls-1" d="M355.8,787.59a19.79,19.79,0,0,1-5.64-2c-.37-.2-.4-1.68-.07-2.29a2.18,2.18,0,0,1,2-.58C354.16,783.42,356.36,784.21,355.8,787.59Z"/><path class="cls-1" d="M86.16,813.08c2-1.83,3.27-1.7,3.44.3a11.56,11.56,0,0,1-.91,4.51c-.09.26-2,.24-2,.12A22,22,0,0,1,86.16,813.08Z"/><path class="cls-1" d="M219,292.66c1.84-2.49,6.34-3.12,8-1.45a1.77,1.77,0,0,1,.22,1.49,1.36,1.36,0,0,1-1,.75A36.12,36.12,0,0,1,219,292.66Z"/><path class="cls-1" d="M6.57,579.71c.7,3.2-1.62,2.44-2.89,2.18s-2.37-1.34-3.54-2.05c.65-.66,1.39-1.95,1.94-1.87A16.64,16.64,0,0,1,6.57,579.71Z"/><path class="cls-1" d="M84.7,679.81c0-1.24-.32-2.28.06-2.86A35.18,35.18,0,0,1,88,673.18c.29,1,1.15,2.57.76,3C87.5,677.61,88.73,681.69,84.7,679.81Z"/><path class="cls-1" d="M25,449.34c-1.62-.24-3.9.9-3.2-1.82.18-.69,1.76-1.11,2.77-1.46a3.71,3.71,0,0,1,2,0,7.64,7.64,0,0,1,1.73.95c-.54.5-1,1-1.61,1.49A4.88,4.88,0,0,1,25,449.34Z"/><path class="cls-1" d="M192.27,241.88a19,19,0,0,1-3.84,1.31,10.42,10.42,0,0,1-2.58-.17c.47-.86.84-2.38,1.44-2.47C189.05,240.27,191.77,237,192.27,241.88Z"/><path class="cls-1" d="M266.26,366.44c.68,1.4,1.39,2.94,1,4.13-.19.6-2.36.58-3.63.84-.14-.78-.66-1.78-.35-2.29A9.46,9.46,0,0,1,266.26,366.44Z"/><path class="cls-1" d="M262.12,361.47a9.5,9.5,0,0,1-.86,2.5c-.2.35-.68.55-1,.82-.47-2.07-1-4.13-1.35-6.23-.05-.33.88-.82,1.36-1.23.63,1.11,1.26,2.21,1.87,3.33C262.17,360.75,262.12,360.92,262.12,361.47Z"/><path class="cls-1" d="M59,775.15a15.1,15.1,0,0,1,2.49,1,15.61,15.61,0,0,1-1.25,1.44c-.15.14-.53,0-.8,0L54,777.45c1.33-.57,2.66-1.13,4-1.73A3.81,3.81,0,0,1,59,775.15Z"/><path class="cls-1" d="M175.9,662.4c-1,.28-1.55.8-2.11.78a29.15,29.15,0,0,1-3.7-.58c.14-.62.16-1.72.44-1.78a33.11,33.11,0,0,1,5.35-.8A5,5,0,0,1,175.9,662.4Z"/><path class="cls-1" d="M95.27,670.49A9.3,9.3,0,0,1,93,668.8c.57-.47,1.15-1.36,1.71-1.35a57.39,57.39,0,0,1,5.75.63C98.8,668.81,97.14,669.55,95.27,670.49Z"/><path class="cls-1" d="M170.72,690.38c-.48.21-.87.32-1,.19-1.28-1.33-2.51-2.7-3.76-4.06.46-.3,1-.94,1.37-.84C169.61,686.25,171.61,687.18,170.72,690.38Z"/><path class="cls-1" d="M83,802.51a6.29,6.29,0,0,1,0-1.63c.41-1.13.9-2.23,1.36-3.35.64,1.09,1.71,2.13,1.85,3.28C86.55,803.18,85.23,803.9,83,802.51Z"/><path class="cls-1" d="M70.61,670.69c-.13-.83.16-2.37.45-2.37a41.18,41.18,0,0,1,5.35.53c-.43.61-.77,1.66-1.3,1.76A25.67,25.67,0,0,1,70.61,670.69Z"/><path class="cls-1" d="M48.43,658.47c2.54-.08,4.88,0,7.22.17a7.58,7.58,0,0,1-.22,1.07c-2.41-.17-4.81-.4-7.21-.64A1.11,1.11,0,0,1,48.43,658.47Z"/><path class="cls-1" d="M553.1,196.49c2.19-1.39,3.44-.68,3.25,1.72-.07.84-.86,2.26-1.44,2.32C551.48,200.89,553.8,198.11,553.1,196.49Z"/><path class="cls-1" d="M523.47,281.26c.48-.21.8-.3,1-.19,1.26.62,2.5,1.29,3.74,1.94-.45.45-.86,1.24-1.37,1.3C524.78,284.59,522.92,284.36,523.47,281.26Z"/><path class="cls-1" d="M559.94,261.36a30.69,30.69,0,0,1,3.84-.72c0,.65.13,1.76-.12,1.86a32.68,32.68,0,0,1-4.05,1.14A10.07,10.07,0,0,1,559.94,261.36Z"/><path class="cls-1" d="M166.78,716.29a15.7,15.7,0,0,1,4.15-1.22c-.19.73-.37,2.09-.57,2.09A7.59,7.59,0,0,1,166.78,716.29Z"/><path class="cls-1" d="M191.65,530.59c.09-.78.07-1.24.29-1.5.77-.92,1.62-1.77,2.44-2.65.19.83.8,1.88.5,2.44C194.25,530,194.24,532.69,191.65,530.59Z"/><path class="cls-1" d="M301.91,776.81c3.33-.48,2.45,1.69,2.41,3.06,0,.38-1,.72-1.53,1.09A14.84,14.84,0,0,1,301.91,776.81Z"/><path class="cls-1" d="M370.93,785.72c-.44-2.83,1.47-3,3.26-3,.21,0,.45,1.48.68,2.27A22.15,22.15,0,0,1,370.93,785.72Z"/><path class="cls-1" d="M360.15,265.51c1.44,0,3.65-1.09,3,1.66a2.51,2.51,0,0,1-2,1.36C359.43,268.36,358.17,267.58,360.15,265.51Z"/><path class="cls-1" d="M351.44,488.93a11,11,0,0,1,2.69.18c-.18.84-.24,2.33-.57,2.39a13,13,0,0,1-3.47-.19C350.48,490.59,350.86,489.86,351.44,488.93Z"/><path class="cls-1" d="M37.66,440.43a27.39,27.39,0,0,1,1.4,4.41,4,4,0,0,1-1.45.31c-.36-.06-1-.58-.93-.82A20.51,20.51,0,0,1,37.66,440.43Z"/><path class="cls-1" d="M64,662.4a6.68,6.68,0,0,1-1.66-1.85c1.36-.21,2.72-.48,4.1-.58.27,0,.58.61.88.94A25.76,25.76,0,0,1,64,662.4Z"/><path class="cls-1" d="M35,806.65c.83,0,2.1.29,2.38,1,.35.86-.1,2-.2,3.09-.73-.26-1.87-.33-2.08-.81C34.71,809.08,35,808,35,806.65Z"/><path class="cls-1" d="M121.18,616c-3,1.25-2.52-.88-2.44-2.5,0-.56.64-1.1,1-1.64C120.21,613.08,120.7,614.32,121.18,616Z"/><path class="cls-1" d="M149.16,489.35a11.83,11.83,0,0,1,.24-3.4c.09-.37.6-.64.92-1,.23.4.77,1,.66,1.16C150.38,487.26,152.53,489.71,149.16,489.35Z"/><path class="cls-1" d="M262.95,694.74c1.38.19,2.35.39,3.32.58-.5.44-.93,1.12-1.51,1.28a20.15,20.15,0,0,1-3.29.39A7,7,0,0,1,262.95,694.74Z"/><path class="cls-1" d="M143.77,693.7a10.41,10.41,0,0,1,2-2.28l1.14,2.31A15.7,15.7,0,0,1,143.77,693.7Z"/><path class="cls-1" d="M288.65,688.1a13.45,13.45,0,0,1,2.24-2.49l1.08,1.6A9.87,9.87,0,0,1,288.65,688.1Z"/><path class="cls-1" d="M412.38,269.24c-.69-3.07,1.43-2.26,2.8-2.2.4,0,.76.95,1.13,1.46A22.13,22.13,0,0,1,412.38,269.24Z"/><path class="cls-1" d="M326.16,775.36c.47-.21.78-.29,1-.19,1,.44,2,.92,2.94,1.39-.52.36-1,1-1.57,1C327.1,777.77,325.42,778,326.16,775.36Z"/><path class="cls-1" d="M532.38,182.4a6.83,6.83,0,0,1,2.49-1.19l-.26,3.52A12.12,12.12,0,0,1,532.38,182.4Z"/><path class="cls-1" d="M70,627.38a7,7,0,0,1,1.2-2.12l1.91,2.44A17.61,17.61,0,0,1,70,627.38Z"/><path class="cls-1" d="M28.33,436.08a10.43,10.43,0,0,1-3,1.53L25,436.09A8.92,8.92,0,0,1,28.33,436.08Z"/><path class="cls-1" d="M112.89,332.66a16.5,16.5,0,0,1,2.49,1.57l-1.12,1.54C113.8,334.8,113.35,333.83,112.89,332.66Z"/><path class="cls-1" d="M169.27,467.58a18.6,18.6,0,0,1,5-.38s0,.75,0,.75A18.6,18.6,0,0,1,169.27,467.58Z"/><path class="cls-1" d="M540.88,299.08a7.79,7.79,0,0,1,2-2.23,10.43,10.43,0,0,1,1.08,1.07A13.8,13.8,0,0,1,540.88,299.08Z"/><path class="cls-1" d="M327.61,781a4.36,4.36,0,0,1,1.16,2.48c0,.24-1,.55-1.59.82A9.09,9.09,0,0,1,327.61,781Z"/><path class="cls-1" d="M317.87,743.44a7.85,7.85,0,0,1,1.15-2.28l2,1.56A13.68,13.68,0,0,1,317.87,743.44Z"/><path class="cls-1" d="M576.32,234.63a8.92,8.92,0,0,1,3.32,0l-.25,1.52A10.46,10.46,0,0,1,576.32,234.63Z"/><path class="cls-1" d="M145.22,686.45a5.05,5.05,0,0,1-2.49,0l.64-1.64A6.68,6.68,0,0,1,145.22,686.45Z"/><path class="cls-1" d="M151.86,698.88a8.38,8.38,0,0,1-3.31.37s0-.75,0-.75A8.38,8.38,0,0,1,151.86,698.88Z"/><path class="cls-1" d="M17.76,789.87a14.3,14.3,0,0,1,.33-3.11l1.05.35A11.47,11.47,0,0,1,17.76,789.87Z"/><path class="cls-1" d="M179,673.8a4.93,4.93,0,0,1,1.87.56l-1.31,1.31A4.93,4.93,0,0,1,179,673.8Z"/><path class="cls-1" d="M569.68,255.35a2.29,2.29,0,0,1-1.66,0l.63-1.64A5.74,5.74,0,0,1,569.68,255.35Z"/><path class="cls-1" d="M48.23,590.28a2.29,2.29,0,0,1,0-1.66l1.64.63A5.74,5.74,0,0,1,48.23,590.28Z"/><path class="cls-1" d="M132.17,658.88a5.24,5.24,0,0,1,1.56-1.45l.72,1.11A7.54,7.54,0,0,1,132.17,658.88Z"/><path class="cls-1" d="M296.94,775.15a4.79,4.79,0,0,1,2.49-.37,7,7,0,0,1,0,.74A4.79,4.79,0,0,1,296.94,775.15Z"/><path class="cls-1" d="M236.42,322.5a2.29,2.29,0,0,1-1.66,0l.63-1.64A5.74,5.74,0,0,1,236.42,322.5Z"/><path class="cls-1" d="M602.85,636.91c3.79.62,6.78-1.06,9.42-3.45s5.31-5.21,8-7.76a2.08,2.08,0,0,1,1.69-.52,1.72,1.72,0,0,1,.73,1.47c-.24,1.66-.16,3.78-1.15,4.85-3.61,3.91-6.74,8.32-12,10.62-5,2.21-9.75,5.14-14.56,7.84a18,18,0,0,0-2.71,2.31,11.14,11.14,0,0,1,2.89-.6,19.14,19.14,0,0,1,3.5.83c-.81,1.09-1.4,2.6-2.48,3.19-5.4,2.92-10.93,5.59-16.4,8.38a5.5,5.5,0,0,0-1,.88c.54.53,1,1.46,1.63,1.52a38.18,38.18,0,0,0,5.79.06c14.42-.73,27.86-4.17,38.77-14.33a8,8,0,0,0,1.85-3.35c.72-2.22,4.44-4,6.37-2.78.32.21.26,1.68-.13,2.2-1.42,1.91-3.58,3.43-4.49,5.52-2.54,5.82-8,8.09-12.78,11a98,98,0,0,1-11.67,5.8,17.11,17.11,0,0,1-5,.87,71.23,71.23,0,0,1-8.15.64,115.63,115.63,0,0,1-11.6-.67c-2.29-.25-4.49-1.21-6.78-1.57-5.43-.87-7-2.88-5.09-8.05,1.19-3.16.13-7.49,4.21-9.37a.53.53,0,0,0,.29-.29c1.3-5.89,1.92-6.61,9.16-6.29C589.86,646.28,596.28,641.66,602.85,636.91Z"/><path class="cls-1" d="M567.2,674c7.38.3,14.42-.88,21.28,1.54,1.19.42,2.91-.82,4.42-1.08a18.23,18.23,0,0,1,3.31,0c-.58.84-1,2-1.78,2.46-3.05,1.9-6.38,3.37-9.32,5.41-3.27,2.27-6.24,5-9.3,7.53a5,5,0,0,0-.84,1.44c.59,0,1.17.08,1.76.09,1.24,0,2.58-.28,3.69.11.74.26,1.14,1.49,1.69,2.28a8,8,0,0,1-1.79.91c-4.68,1-9.4,1.91-14.05,3.06-4.25,1.05-5.32.63-4.78-3.64C562.37,687.24,562.69,680.1,567.2,674Z"/><path class="cls-1" d="M607,629.24c2.95-2.81,5.34-5.76,8.08-8.36,1.23-1.17,3.15-1.63,4.75-2.42-.39,1.5-.37,3.34-1.26,4.44a79.86,79.86,0,0,1-6.34,6.34,25.62,25.62,0,0,1-1.94,2.09,4,4,0,0,1-2.33,1.12c-.9-.08-1.75-.85-2.62-1.33A6.79,6.79,0,0,1,607,629.24Z"/><path class="cls-1" d="M616.94,651.63c-4.95-.88-8.45,1.71-12.22,3.47a9.83,9.83,0,0,1-2.52.45c.26-.94.25-2.44.84-2.73a52.56,52.56,0,0,1,8.84-3.58c1.79-.5,3.84-.2,5.76-.05a19.31,19.31,0,0,1,3.44.9C619.84,650.6,618.6,651.11,616.94,651.63Z"/><path class="cls-1" d="M622.54,584.27c-.34.21-.49.25-.61.2l-3.33-1.34c.36-.66.63-1.8,1.1-1.89C621.81,580.83,623,581.74,622.54,584.27Z"/><path class="cls-1" d="M681.4,616.6c-.48.21-.84.32-1,.19-1-.77-2-1.59-2.92-2.39.46-.3,1.23-.95,1.34-.85A13,13,0,0,1,681.4,616.6Z"/><path class="cls-1" d="M669,609.55a27.39,27.39,0,0,1-4.4,1.4c-.12-.49-.46-1.07-.3-1.44s.83-1,1.22-.94A14.26,14.26,0,0,1,669,609.55Z"/><path class="cls-1" d="M600.15,622a10.41,10.41,0,0,1-2,2.28L597,622A15.7,15.7,0,0,1,600.15,622Z"/><path class="cls-1" d="M622.74,614.32a5.26,5.26,0,0,1,2.49.41l-1.49,2.9A33.16,33.16,0,0,1,622.74,614.32Z"/><path class="cls-1" d="M601.19,599.4a8.92,8.92,0,0,1-3.32,0l.28-1.52A10.43,10.43,0,0,1,601.19,599.4Z"/><path class="cls-1" d="M652,608.31a13.8,13.8,0,0,1,1.15-3.11,10.45,10.45,0,0,1,1.07,1.08A7.8,7.8,0,0,1,652,608.31Z"/><path class="cls-1" d="M606.78,623.23a7.87,7.87,0,0,1-2.28-1.16l1.12-1.12A7.87,7.87,0,0,1,606.78,623.23Z"/><path class="cls-1" d="M597.87,661.58a5.05,5.05,0,0,1-2.49,0l.64-1.64A6.68,6.68,0,0,1,597.87,661.58Z"/><path class="cls-1" d="M601.19,617.64a5.05,5.05,0,0,1-2.49,0l.64-1.64A6.68,6.68,0,0,1,601.19,617.64Z"/><path class="cls-1" d="M671.86,537.43c1.44,0,2.32-.53,3.33,1.57,3.44,7.16,5.13,15.53,12.4,20.4a10.85,10.85,0,0,1,1.47,1.44,15.08,15.08,0,0,1-2.29.4c-2.51.07-8.4-4.29-9.34-6.6a36.62,36.62,0,0,0-3.34-6.85A14.23,14.23,0,0,1,671.86,537.43Z"/><path class="cls-1" d="M698.39,557.33a47.24,47.24,0,0,1,5.6.43c-1.28,1.21-2.63,2.36-3.83,3.64-2.61,2.78-5.25,1.68-7.87.13-.37-.22-.49-.87-.73-1.33.43-.2.86-.42,1.3-.59C694.63,558.91,696.41,558.22,698.39,557.33Z"/><path class="cls-1" d="M709.17,531.21a31.25,31.25,0,0,1,.39,4.17c-1.13-.73-2.85-1.22-3.26-2.24-1-2.39-1-5.19-3.55-6.76-.26-.16-.17-.89-.24-1.36,1.29,0,3.26-.46,3.74.18C707.5,526.88,708.1,529,709.17,531.21Z"/><path class="cls-1" d="M689.89,529.76c-2.19,2.87-6.63,3-8.09.52-.3-.51,0-2,.25-2.1a11.93,11.93,0,0,1,4.43-.49A7.27,7.27,0,0,1,689.89,529.76Z"/><path class="cls-1" d="M694,539.71c0,1.2-.06,3.22-.75,3.44-1.77.57-3.8.37-5.73.39,0,0-.33-1.15-.1-1.45s1-.51,1.56-.71C690.55,540.81,692.09,540.26,694,539.71Z"/><path class="cls-1" d="M704.82,547.17a33.1,33.1,0,0,1-1,3.32,11.91,11.91,0,0,1-2.21-2.93c-.29-.8.3-1.9.49-2.87A14.83,14.83,0,0,1,704.82,547.17Z"/><path class="cls-1" d="M691.34,518.36c.76,1.21,1.61,2.16,1.78,3.22s-.39,2.13-.63,3.2c-.87-.77-2.38-1.48-2.45-2.32C689.92,521.07,690.72,519.6,691.34,518.36Z"/><path class="cls-1" d="M689.89,565.41a32.32,32.32,0,0,1,3.32,1c-.56.48-1.14,1.4-1.66,1.37a24.74,24.74,0,0,1-4.14-.95A13.15,13.15,0,0,1,689.89,565.41Z"/><path class="cls-1" d="M684.09,548a4.26,4.26,0,0,1-1.94,1l-.29-3.3A12.12,12.12,0,0,1,684.09,548Z"/><path class="cls-1" d="M688.24,550.49c.08,1.65-.08,1.85-1.66,1.62-.59-.09-1.1-.66-1.65-1C685.89,550.89,686.85,550.69,688.24,550.49Z"/><path class="cls-1" d="M709,554.63a2.29,2.29,0,0,1,0,1.66l-1.64-.63A5.75,5.75,0,0,1,709,554.63Z"/><path class="cls-1" d="M67.3,862.2A5.93,5.93,0,0,1,69,863.66c-.42.34-.81.9-1.28,1a8.42,8.42,0,0,1-2.86,0,5.56,5.56,0,0,1-1.67-1,7.14,7.14,0,0,1,1.7-1.39A7.94,7.94,0,0,1,67.3,862.2Z"/><path class="cls-1" d="M571.34,515.67a27.14,27.14,0,0,1,2.88,0c.44.05,1.07.29,1.21.62s.15,1.38-.11,1.51c-2.47,1.29-5,2.47-7.57,3.52-.06,0-1.51-2.55-1.29-2.75A20.94,20.94,0,0,1,571.34,515.67Z"/><path class="cls-1" d="M510,528.93a30.71,30.71,0,0,1,6-2.43,1.86,1.86,0,0,1,.56,1.17c-.11.47-.59,1.16-1,1.21A19.66,19.66,0,0,1,510,528.93Z"/><path class="cls-1" d="M565.33,525.82a7.79,7.79,0,0,1-2,2.23,10.46,10.46,0,0,1-1.08-1.07A13.8,13.8,0,0,1,565.33,525.82Z"/><path class="cls-1" d="M495.9,494.11a5.74,5.74,0,0,1,1.66,1l-1.64.63A2.29,2.29,0,0,1,495.9,494.11Z"/><path class="cls-1" d="M534,531.42a4.79,4.79,0,0,1-2.49.37,7,7,0,0,1,0-.74A4.79,4.79,0,0,1,534,531.42Z"/><path class="cls-1" d="M74.76,476.7A6.91,6.91,0,0,1,76,479.19l-7.73-1.13c.39-.45.76-1.25,1.19-1.3C71.05,476.61,72.7,476.7,74.76,476.7Z"/><path class="cls-1" d="M50.71,462.61A27.22,27.22,0,0,1,56.19,461l.1,2.21A25.58,25.58,0,0,1,50.71,462.61Z"/><path class="cls-1" d="M62.94,462a20.78,20.78,0,0,1,.72,3c-1.11-.22-2.48-.11-3.26-.74s-.89-2-1.29-3A30.7,30.7,0,0,1,62.94,462Z"/><path class="cls-1" d="M51.34,454.94a6.24,6.24,0,0,1,1.87,1.38l-1.32,1.32A10.34,10.34,0,0,1,51.34,454.94Z"/><path class="cls-1" d="M34.13,839.82a22.14,22.14,0,0,1,2.49.6c-.69.63-1.3,1.6-2.1,1.79s-1.91-.3-2.87-.5A12.94,12.94,0,0,1,34.13,839.82Z"/></g></g></svg>