<svg xmlns="http://www.w3.org/2000/svg" viewBox="0 0 144.98 118.43"><defs><style>.cls-1{fill:none;}.cls-1,.cls-2{stroke:#fcbe7a;stroke-miterlimit:10;}.cls-2,.cls-3{fill:#fcbe7a;}</style></defs><title>thanks</title><g id="Layer_2" data-name="Layer 2"><g id="Layer_1-2" data-name="Layer 1"><path class="cls-1" d="M78.39,117.93a3.28,3.28,0,0,0,2.2-.73c2.38-1.92,4.81-3.79,7.12-5.79,2.58-2.23,5-4.61,7.58-6.85a22.29,22.29,0,0,1,7.64-4.53c1.41-.47,2.82-1,4.27-1.33a19,19,0,0,1,6.71-.43,10.27,10.27,0,0,0,3.88-.37c1.64-.43,3.29-.86,4.95-1.24a19.64,19.64,0,0,1,2-.24,4.66,4.66,0,0,0,2.43-.9,7.25,7.25,0,0,1,3.22-1.2,15.37,15.37,0,0,0,4.63-1.84,11.18,11.18,0,0,0,3.52-3.07,5,5,0,0,0,1-3.66,1.93,1.93,0,0,0-1-1.38c-.73-.45-.73-1.22,0-1.8.49-.38,1-.7,1.52-1a4.38,4.38,0,0,0,1.53-4.9,6.36,6.36,0,0,0-1.63-2.86c-.29-.29-.31-.46.13-.56a3,3,0,0,0,2.14-1.57,5.73,5.73,0,0,0,.64-3,6.32,6.32,0,0,0-1.91-4.1,2.84,2.84,0,0,0-.33-.27c-.47-.38-.44-.7.07-1a11.87,11.87,0,0,0,1.9-1.29,3.63,3.63,0,0,0,.8-3.77A7.23,7.23,0,0,0,140.11,54a18.35,18.35,0,0,0-5.5-2.38,22,22,0,0,0-4.2-.58c-2.21-.12-4.42-.32-6.63-.5-.6,0-1.2-.18-1.8-.21a13.45,13.45,0,0,0-5.49,1,2.47,2.47,0,0,1-.55.07,1.68,1.68,0,0,1,0-.53c.31-.78.67-1.54,1-2.32a35.14,35.14,0,0,0,1.93-6.84c.19-1.1.33-2.21.46-3.32a9.29,9.29,0,0,0-.51-4.24,17.31,17.31,0,0,0-2.57-5,6.38,6.38,0,0,0-3.07-2.37c-.5-.16-1.1-.37-1.57.12a.73.73,0,0,0-.18.51c.15,1.43.35,2.85.5,4.28a2.22,2.22,0,0,1-.57,1.7,3.38,3.38,0,0,0-.55,1.48c-.15.8-.14,1.63-.31,2.42a2.41,2.41,0,0,1-.95,1.8.38.38,0,0,0-.16.18c-.29.8-.56,1.61-.86,2.41-.17.45-.38.88-.57,1.32s-.42.9-.59,1.37a28.19,28.19,0,0,1-2.21,4.45c-1.33,2.3-2.63,4.62-3.87,7a115.84,115.84,0,0,1-8.12,13.66,16.6,16.6,0,0,1-3.59,4c-1.37,1-2.84,1.82-4.28,2.71-2.19,1.35-4.39,2.67-6.59,4a7.57,7.57,0,0,0-.78.64,2.8,2.8,0,0,1,1.27-2.06,24.35,24.35,0,0,1,4.27-2.6,24,24,0,0,0,6.37-4,31.49,31.49,0,0,0,3.34-4,110.48,110.48,0,0,0,7-11.89c1.53-2.88,3.18-5.7,4.76-8.55.52-.93,1-1.87,1.52-2.82s.87-1.87,1.25-2.83c.25-.63.37-1.3.64-1.92s.66-1.15.92-1.76a10.91,10.91,0,0,0,.61-1.94c.16-.76.16-1.56.35-2.31a7,7,0,0,0-.21-2.88,9.82,9.82,0,0,1-.11-4.13,1,1,0,0,1,1-.86.79.79,0,0,0,.37-.06,2.67,2.67,0,0,1,2.64.15,9.69,9.69,0,0,1,4.29,4.53,16.89,16.89,0,0,1,1.63,4.31,12.39,12.39,0,0,1,.21,4,39.62,39.62,0,0,1-1.85,8.28c-.29.92-.71,1.8-1.07,2.7a1.19,1.19,0,0,0,0,.22l1.55-.36a9.78,9.78,0,0,1,3.5-.3c1.44.2,2.88.36,4.33.47s3.09.17,4.64.25a18.81,18.81,0,0,1,10.06,3.49,7.53,7.53,0,0,1,3.17,4.53,1.33,1.33,0,0,0,.12.25V60.2c-.13.36-.25.72-.4,1.07a4.56,4.56,0,0,1-2.26,2.27c-.31.16-.37.29-.09.53a3.41,3.41,0,0,1,.44.49A7.48,7.48,0,0,1,143.62,68a5.55,5.55,0,0,1-.8,4.23,12.29,12.29,0,0,1-1.57,1.6,7.54,7.54,0,0,1,1.3,3,5,5,0,0,1-1.24,4.64,18,18,0,0,1-2,1.52c-.46.34-.46.35,0,.72a3.4,3.4,0,0,1,1.19,3.39,6.9,6.9,0,0,1-1.54,3.13,15.28,15.28,0,0,1-8.53,4.85,6.84,6.84,0,0,0-2.4.86A6.61,6.61,0,0,1,125,97.17a31.34,31.34,0,0,0-6.22,1.25,12,12,0,0,1-4.72.62,20.91,20.91,0,0,0-7.22.55c-1.34.38-2.67.83-4,1.31a18.83,18.83,0,0,0-6,3.39c-2.4,2.07-4.72,4.24-7.09,6.34s-4.57,4-6.89,6a18.61,18.61,0,0,1-2,1.3h.54m29.41-86.57c.07.56.22,1.11.34,1.66h.21c.06-.54.16-1.09.17-1.63a10,10,0,0,0-.12-1.48q-.16-1.3-.37-2.6c0-.11-.15-.2-.22-.3-.08.1-.21.2-.23.32a2.74,2.74,0,0,0-.11.85"/><path class="cls-2" d="M.5,66.73c.09-1.08.17-2.16.29-3.24.16-1.49.27-3,.55-4.47a42.35,42.35,0,0,1,1.2-4.91A7.82,7.82,0,0,1,5.72,49.6,5.76,5.76,0,0,1,9.64,49c.66.08,1.31.22,2,.34,0-.16,0-.33.06-.51a8.09,8.09,0,0,1,.84-3.45,8.44,8.44,0,0,1,4.73-4.17,5.08,5.08,0,0,1,2.79,0l2.19.55c0-.63,0-1.17,0-1.7,0-3,0-6,.11-9.06s.21-6.33.31-9.49q.18-5.7.35-11.41c0-1.4,0-2.81.05-4.22A6.53,6.53,0,0,1,24,2.75,4.91,4.91,0,0,1,27.18.65,3.64,3.64,0,0,0,27.57.5h1.92a11.84,11.84,0,0,1,1.73.76A4.63,4.63,0,0,1,33,4a36.32,36.32,0,0,1,1.3,7.82c.51,6.17.87,12.35.89,18.54a1.46,1.46,0,0,0,0,.16,17,17,0,0,1,1.92-.75,5.81,5.81,0,0,1,5,.84,8.19,8.19,0,0,1,3.12,4.79,21.41,21.41,0,0,1,.55,6.42c0,1-.09,2-.14,3a14.93,14.93,0,0,1,1.47-.31A6.39,6.39,0,0,1,53.8,48.8c.73,2.57,1.23,5.17,1.73,7.79.28,1.44.6,2.88,1,4.3.6,2.21,1.09,4.45,1.5,6.71A10.22,10.22,0,0,1,57.6,72a33.83,33.83,0,0,1-3.75,8.6c-2.09,3.58-4.27,7.11-6.32,10.71-1.25,2.19-2.39,4.45-3.44,6.73a16.43,16.43,0,0,0-1.55,6.66c0,2.69,0,5.37,0,8.06a15.25,15.25,0,0,1-.59,4.4c0,.11-.08.21-.12.31a.2.2,0,0,1-.14.13c0-.09,0-.17,0-.26,0-3.85,0-7.71.05-11.56a20.88,20.88,0,0,1,2.47-9.83C46,92.51,48,89.16,49.93,85.78c1.53-2.68,3.11-5.33,4.58-8a30.85,30.85,0,0,0,2.68-7.06A10,10,0,0,0,57,65.93c-.27-1.18-.62-2.34-.91-3.51-.39-1.57-.8-3.14-1.14-4.73s-.55-3.34-.95-5a39.74,39.74,0,0,0-1.46-4.88A4.14,4.14,0,0,0,50,45.69,8,8,0,0,0,48,45.2a3.27,3.27,0,0,0-2.32.56,2,2,0,0,0-.54,1.12,11.46,11.46,0,0,0,.19,5.3c.46,2,.81,3.93,1.12,5.91a18.82,18.82,0,0,1,.08,2.68c0,1.39,0,2.78,0,4.17a.88.88,0,0,0,0,.28c.43,1.21.89,2.4,1.29,3.62a3.86,3.86,0,0,1,0,2.77,3.87,3.87,0,0,1-.16-.47c-.14-.73-.24-1.48-.41-2.2-.13-.55-.36-1.08-.53-1.63a9.26,9.26,0,0,1-.51-1.81c-.16-1.7-.2-3.41-.34-5.11-.09-1.09-.26-2.18-.41-3.27s-.36-2.33-.51-3.5a24.1,24.1,0,0,1-.33-5.68,61.67,61.67,0,0,0,.39-8.66,12.52,12.52,0,0,0-1.41-5.89,5.51,5.51,0,0,0-6.58-2.91,3.72,3.72,0,0,0-2,1.26A3.21,3.21,0,0,0,34.77,33c-.63,2.65-.4,5.34-.49,8-.12,3.8-.27,7.61-.41,11.41a1.59,1.59,0,0,1-.21.7.74.74,0,0,1-.05-.18c-.08-2.72-.18-5.43-.21-8.15,0-2.22,0-4.45.05-6.67a23.16,23.16,0,0,1,1-6.13,1.83,1.83,0,0,0,0-.52c.05-4.93-.16-9.85-.54-14.76-.16-2.07-.29-4.15-.47-6.22a30.37,30.37,0,0,0-1-6,4.07,4.07,0,0,0-2.42-3c-.15-.06-.32-.09-.43-.12A16.54,16.54,0,0,1,30.74,3a7.18,7.18,0,0,1,.64,3.63c0,.38,0,.77-.05,1.15a2.47,2.47,0,0,1-1.68,2.42,4.65,4.65,0,0,1-3.28,0,2.54,2.54,0,0,1-1.64-2.42A9.34,9.34,0,0,1,25,3.86a16.63,16.63,0,0,1,.75-1.59A3.79,3.79,0,0,1,26,1.93,3.45,3.45,0,0,0,24.1,4.47c-.51,2.38-.2,4.78-.29,7.17q-.27,6.76-.51,13.52c-.08,2.29-.17,4.57-.22,6.86Q23,36.93,23,41.85c0,1.79,0,3.58.09,5.37a14.92,14.92,0,0,1-1.31,5.84,2.46,2.46,0,0,1-.28.43l-.12,0a8.08,8.08,0,0,1,.2-1.22,20.25,20.25,0,0,0,.85-7,12.55,12.55,0,0,1,.08-1.92.63.63,0,0,0-.48-.78,11.17,11.17,0,0,0-3.87-.75,4.66,4.66,0,0,0-2.49,1.07,8.6,8.6,0,0,0-2.62,3,7.18,7.18,0,0,0-.65,3.16,18.23,18.23,0,0,0,.13,3,13.84,13.84,0,0,1-.43,5.13,28,28,0,0,1-.94,2.94,2.26,2.26,0,0,1-1.26,1.36c.14-.24.27-.48.41-.72a11.73,11.73,0,0,0,1.31-3.91,38.3,38.3,0,0,0,.29-6.36.56.56,0,0,0-.32-.43,28.16,28.16,0,0,0-3.65-.35,4.27,4.27,0,0,0-3.41,2.07,11.47,11.47,0,0,0-1.83,4.36c-.42,1.9-.76,3.81-1,5.74a50.61,50.61,0,0,0-.37,9.57c.13,2.69.39,5.38.67,8.07a37.59,37.59,0,0,0,1.58,7.57c.58,1.83,1.23,3.65,1.87,5.46.25.7.58,1.37.86,2.06a8.79,8.79,0,0,1,.5,3.53c0,2.14-.09,4.28-.1,6.42,0,2.81,0,5.63,0,8.44,0,.09,0,.18,0,.4A5.46,5.46,0,0,1,6,111.18a56.84,56.84,0,0,1,0-8.1c0-1.95,0-3.9.05-5.85a8.42,8.42,0,0,0-.71-3c-.91-2.59-1.88-5.17-2.72-7.78a23.28,23.28,0,0,1-.88-3.91C1.33,80,1.08,77.4.77,74.81.69,74.1.59,73.39.5,72.68ZM30.79,6.35h-.05c0-.34,0-.67,0-1a4.74,4.74,0,0,0-.86-2.58A2,2,0,0,0,27.08,2a3.7,3.7,0,0,0-1.22,1.42,7.9,7.9,0,0,0-.41,4.7,1.65,1.65,0,0,0,1.45,1.5,8.78,8.78,0,0,0,2.23,0,1.66,1.66,0,0,0,1.5-1.45C30.73,7.56,30.74,6.95,30.79,6.35Z"/><path class="cls-2" d="M129.39,59.17a2,2,0,0,1,1.95,1.18,1,1,0,0,0,.88.8c.68.17,1.37.29,2.06.4a18.76,18.76,0,0,1,5,1.42,1.33,1.33,0,0,1,.56.49c-.33-.12-.66-.24-1-.34-.89-.27-1.78-.6-2.69-.78-1.65-.33-3.32-.55-5-.86a1.88,1.88,0,0,1-1-.53A3.63,3.63,0,0,1,129.39,59.17Z"/><path class="cls-2" d="M139.48,73.26c-.38-.07-.75-.15-1.13-.2a11.88,11.88,0,0,0-4,.15,4.89,4.89,0,0,1-1.38.05.92.92,0,0,1-.57-.35,3.91,3.91,0,0,1-.45-.88c0-.11,0-.32,0-.37a.43.43,0,0,1,.39,0c.33.21.62.48.95.69a1.6,1.6,0,0,0,.74.32c.67,0,1.34-.13,2-.1.9,0,1.79.19,2.69.32a4.6,4.6,0,0,1,.78.25Z"/><path class="cls-3" d="M25.49,34.45a11.11,11.11,0,0,0,7.23-1.56C31.28,34.88,27.3,35.92,25.49,34.45Z"/><path class="cls-3" d="M25.34,29.84c1.61-1.84,5.67-1.76,7.17,0A10.27,10.27,0,0,0,25.34,29.84Z"/><path class="cls-2" d="M137.65,83.37l-3.36.33a4.16,4.16,0,0,0-3,1.56c-.15.19-.33.53-.69.28a.43.43,0,0,1,0-.76,9,9,0,0,1,1.72-1,12.44,12.44,0,0,1,5-.49A1.65,1.65,0,0,1,137.65,83.37Z"/><path class="cls-2" d="M115.24,51.54l-5.58,1.37,0-.06,3.65-1.31,0-.21-1.82-1.39.1-.17Z"/><path class="cls-3" d="M31.87,18.15c-1.07,1-4.31,1.09-5.54,0a23.66,23.66,0,0,0,2.77.3A23.94,23.94,0,0,0,31.87,18.15Z"/><path class="cls-3" d="M32.12,16.54a9.84,9.84,0,0,0-5.82,0C27.33,15.43,30.7,15.28,32.12,16.54Z"/><path class="cls-3" d="M110.33,38.64l1.55-.74C111.85,38.38,111.09,38.76,110.33,38.64Z"/><path class="cls-2" d="M110.29,41.25a.92.92,0,0,1-1.23.51Z"/><path class="cls-1" d="M30.79,6.35c-.05.6-.06,1.21-.17,1.81a1.66,1.66,0,0,1-1.5,1.45,8.78,8.78,0,0,1-2.23,0,1.65,1.65,0,0,1-1.45-1.5,7.9,7.9,0,0,1,.41-4.7A3.7,3.7,0,0,1,27.08,2a2,2,0,0,1,2.79.78,4.74,4.74,0,0,1,.86,2.58c0,.34,0,.67,0,1Z"/></g></g></svg>