<svg xmlns="http://www.w3.org/2000/svg" viewBox="0 0 1426 184"><defs><style>.cls-1{fill:#40394f;}</style></defs><title>hero-megaa</title><g id="Layer_2" data-name="Layer 2"><path class="cls-1" d="M55.09,59s-10.2,18.86-.46,24.2v4.45h.91V83.23C64.62,79.39,55.09,59,55.09,59Z"/><path class="cls-1" d="M76.6,68.33s-9,16.67-.4,21.39v3.94H77V89.77C85,86.38,76.6,68.33,76.6,68.33Z"/><path class="cls-1" d="M38.32,56.35S28.14,78.66,37.87,85v5.26h.91V85C47.83,80.5,38.32,56.35,38.32,56.35Z"/><path class="cls-1" d="M13,62.36S1,88.79,12.5,96.26v6.24h1.08V96.35C24.31,91,13,62.36,13,62.36Z"/><path class="cls-1" d="M26.6,62.36s-10,18.57-.45,23.82v4.38H27V86.24C36,82.46,26.6,62.36,26.6,62.36Z"/><path class="cls-1" d="M248.21,92s-5.76,10.66-.26,13.67v2.52h.52v-2.48C253.6,103.54,248.21,92,248.21,92Z"/><path class="cls-1" d="M66.44,62.36s-7.79,14.4-.35,18.48v3.4h.7V80.88C73.71,77.95,66.44,62.36,66.44,62.36Z"/><path class="cls-1" d="M267.25,86.95s-6.57,12.15-.29,15.59v2.87h.59v-2.83C273.39,100.1,267.25,86.95,267.25,86.95Z"/><path class="cls-1" d="M258.77,84.83s-7.71,14.26-.34,18.3v3.37h.69v-3.32C266,100.28,258.77,84.83,258.77,84.83Z"/><path class="cls-1" d="M1307.91,64.17h-3.67l-4.18,2,7.39,4.4-4.63-.17-7.11-4.23A17.68,17.68,0,0,0,1290.2,70a55.61,55.61,0,0,1-6.46,5.93c-1,1.06-1,4.06-1,4.06l7.28,4.48v0l.12,0,1,.25,1.56-.68.42-.18a.91.91,0,0,0,1.18.5c.76.29,1.82-.53,2.39-1.86l.05-.14.58-.24,11.4-6.88.7-.44a.87.87,0,0,0,.16.11,1,1,0,0,0,.7,0c.76.29,1.82-.53,2.39-1.86.06-.14.1-.27.15-.41l.7-.44,1.81-1.35V68.57Zm-12.61,12-6.45-4,2.35-2.31,6.54,3.94Zm2.56-.18s.93-2.38,5.23-5l3.31.25Z"/><path class="cls-1" d="M1221.59,122.94l.68,3.54,6,.47h0a4.07,4.07,0,1,1,7.59-.16h.24l17.56-1h.18a4.07,4.07,0,1,1,7.63-.44h.21l5.72-.63-.22-3.75a11.28,11.28,0,0,1-5-2.47s-3.17-.93-9.6-.5l-6.84-3.48a17.67,17.67,0,0,0-8.72.51c-5.14,1.47-11.2,4.35-12.61,4.38a5.75,5.75,0,0,1-2.62-.67,3.87,3.87,0,0,0,1.1,1.76Zm17.39-4.28-1-3.1a23.24,23.24,0,0,1,5.07-.62c2.75-.16,6.88,3.12,6.88,3.12C1245.19,118.39,1241.64,118.57,1239,118.66Zm-6.77-1a37.61,37.61,0,0,1,5.06-1.92l1,2.94a51.11,51.11,0,0,1-5.88-.08A.49.49,0,0,1,1232.21,117.66Z"/><circle class="cls-1" cx="1257.7" cy="124.13" r="3.55" transform="translate(-5.09 73.44) rotate(-3.34)"/><circle class="cls-1" cx="1232.13" cy="125.41" r="3.55" transform="translate(-5.21 71.95) rotate(-3.34)"/><path class="cls-1" d="M1382.07,121.79,1382,89.17a6.39,6.39,0,0,0-5.83-10.78l-15.2-8.72a6.39,6.39,0,0,0-11.6-2.72l-17.89,0-5.69-9.79-15.68,0-5.48,9.55,7.4,0,1.79-3.13,8.28,0,4.16,7.16L1322.12,78l-8.28,0-2.13-3.66-7.4,0,5.85,10.06,15.68,0,5.85-10.19,17.64,0a6.39,6.39,0,0,0,8.42,2l13.4,7.69a6.38,6.38,0,0,0,3.34,6.48l.09,32.14h-5.78l-20,.93L1323,124.55l-44.13,2.06-4.59.21-191.12,8.93c-17.34,1.64-35,3-52.78,4-77.19-1.5-370.16,6-623.31-11.63C376.84,126,329,109.41,299.1,105.26c-34.21-4.75-94.09,9.5-117.85,8.91S102.37,89.1,71,84.76,0,96.71,0,96.71v62.73H.12L0,184H1426V119.74Z"/></g></svg>