<svg xmlns="http://www.w3.org/2000/svg" viewBox="0 0 1426 184"><defs><style>.cls-1{fill:#40394f;}</style></defs><title>hero-megaregions-gp</title><g id="Layer_2" data-name="Layer 2"><path class="cls-1" d="M1348.82,123.35v-4.09s5.63-1.15,5.69-8.34,1-10.78-1.9-10.85-1.35,6.7-1.29,8.54a16.29,16.29,0,0,1-.61,5.9,5.35,5.35,0,0,1-1.9,2.37V84.42a2,2,0,0,0-2.31-1.9c-2.1.27-2,1.9-2,1.9v25.22s-1.42-1.22-1.22-8.27-.2-6.71-1.36-6.78-1.29,1.08-1.29,2.17,0,6.82.2,9.08a7.3,7.3,0,0,0,3.8,6.17l.06,11.53-65.91,3.08,0-5.29a6,6,0,0,0,3.13-5.08c.17-1.86.17-6.59.17-7.48s-.11-1.84-1.06-1.79-1.28-.22-1.12,5.59-1,6.81-1,6.81V98.6s.11-1.34-1.62-1.56a1.67,1.67,0,0,0-1.9,1.56v26.76a4.4,4.4,0,0,1-1.56-2,13.43,13.43,0,0,1-.5-4.86c.05-1.51,1.34-7.09-1.06-7s-1.62,3-1.56,8.94c0,3.94,2.1,5.68,3.48,6.4l-191.12,8.93c-17.34,1.64-35,3-52.78,4-87.06-1.69-447.91-8.68-718.24-13.28v-27a2.58,2.58,0,0,0,.56-.54c.79.25,1.57.47,2.36.67,1.44.36,2.87.64,4.31.87a40.75,40.75,0,0,0,4.31.45c.72,0,1.44,0,2.15,0,.36,0,.72,0,1.08-.05s.72-.06,1.08-.12v0q-.54-.25-1.08-.44c-.36-.13-.72-.26-1.08-.37-.72-.23-1.44-.43-2.16-.61a42.39,42.39,0,0,0-4.31-.83c-1.44-.2-2.87-.35-4.31-.42-.65,0-1.3,0-2,0a1.76,1.76,0,0,0,0-.22s0,0,0,0a1.65,1.65,0,0,0,0-.31c-.11-.84-.21-1.4-.63-1.7h0a1.85,1.85,0,0,0-1.08-.25,4.07,4.07,0,0,0-1.37.31,26.87,26.87,0,0,0-.63-3A39.73,39.73,0,0,0,308,88.84a37.37,37.37,0,0,0-1.81-4c-.35-.66-.72-1.31-1.12-2-.2-.32-.41-.64-.64-1s-.46-.64-.71-.95h0a10.35,10.35,0,0,0,.08,1.06c0,.35.1.7.16,1,.12.7.29,1.38.47,2.07a35.23,35.23,0,0,0,1.38,4.06,42.64,42.64,0,0,0,1.84,4,32,32,0,0,0,1.77,2.95c-1.31.64-2.62,1.75-2.73,2.92a.9.9,0,0,0,0,.35h0c-.07.09,0,.23.24.37a1.34,1.34,0,0,0,.39.24q-.52.37-1,.76a33.47,33.47,0,0,0-2.87,2.58,29.61,29.61,0,0,0-2.55,2.9c-.39.52-.77,1-1.12,1.6-.18.28-.35.56-.51.85s-.32.59-.46.91l0,0q.46-.22.89-.47c.29-.17.56-.34.84-.52.55-.36,1.07-.75,1.57-1.15a29.51,29.51,0,0,0,2.84-2.61,33.59,33.59,0,0,0,2.53-2.93c.4-.54.8-1.09,1.17-1.66a5.77,5.77,0,0,0,.75,0v26.08l-45.61-.77V90.18a3.65,3.65,0,0,0,.79-.76c1.12.36,2.23.67,3.35,1,2,.51,4.08.91,6.12,1.23a57.81,57.81,0,0,0,6.12.64c1,0,2,.07,3.06,0,.51,0,1,0,1.53-.08s1-.09,1.53-.17V92q-.77-.35-1.53-.63c-.51-.19-1-.36-1.53-.53-1-.33-2-.61-3.06-.87a60.18,60.18,0,0,0-6.12-1.18c-2-.29-4.08-.49-6.12-.59-.93,0-1.85-.06-2.77,0a2.46,2.46,0,0,0,0-.31s0,0,0-.07a2.32,2.32,0,0,0,0-.43c-.16-1.19-.29-2-.89-2.41h0a2.63,2.63,0,0,0-1.53-.36,5.77,5.77,0,0,0-1.94.44,38.15,38.15,0,0,0-.89-4.25A56.38,56.38,0,0,0,258,75a53,53,0,0,0-2.56-5.66c-.5-.93-1-1.86-1.6-2.77-.29-.46-.59-.91-.91-1.37s-.65-.9-1-1.35h0v0h0a14.64,14.64,0,0,0,.12,1.51c.06.5.14,1,.23,1.49.18,1,.41,2,.67,2.94a49.89,49.89,0,0,0,2,5.76,60.51,60.51,0,0,0,2.62,5.65A45.45,45.45,0,0,0,260,85.37c-1.85.91-3.73,2.48-3.88,4.15a1.29,1.29,0,0,0,.05.5h0c-.09.13,0,.32.34.52a1.9,1.9,0,0,0,.55.35q-.73.53-1.44,1.08a47.56,47.56,0,0,0-4.08,3.67,42.08,42.08,0,0,0-3.63,4.12c-.56.74-1.1,1.49-1.6,2.28-.25.4-.49.8-.73,1.21s-.45.84-.65,1.29l0,0q.66-.31,1.27-.67c.41-.24.8-.49,1.19-.74.78-.51,1.51-1.07,2.24-1.64a41.89,41.89,0,0,0,4-3.71,47.76,47.76,0,0,0,3.59-4.16c.57-.77,1.13-1.55,1.66-2.36a8.12,8.12,0,0,0,1.07.05v34.27c-57.48-1-109.23-1.76-151.15-2.34V95.61c.16-.19.31-.37.45-.56h0a5.79,5.79,0,0,0,1.16-3.36l.1-21v-.17L95.4,58,80.11,70.47,80,91.59a6.13,6.13,0,0,0,1.76,4.14h0L82,96v26.95c-47.37-.6-77.71-.8-82-.41V184H1426.14V119.75ZM84.44,112l9.22,5.23-9.22,5.32ZM87,123l8.38-4.82,8.91,5.05Zm19.47-.45-9.39-5.35,9.39-5.4Zm0-12.73-11.1,6.41L84.44,110V98.34l8,7.87v2.57s.67.72,2.89.75h.12c2.21,0,2.74-.75,2.74-.75l0-2.52,8.2-8.31Z"/></g></svg>