<svg xmlns="http://www.w3.org/2000/svg" viewBox="0 0 1426 184"><defs><style>.cls-1{fill:#40394f;}</style></defs><title>hero-megaaa</title><g id="Layer_2" data-name="Layer 2"><path class="cls-1" d="M21.53,131.19V135h.79v-3.84c8.4-4.6-.39-20.86-.39-20.86S13.71,127.88,21.53,131.19Z"/><rect class="cls-1" x="1126.92" y="85.78" width="35.36" height="1.91"/><rect class="cls-1" x="1128.53" y="88.12" width="1.76" height="13.07"/><rect class="cls-1" x="1132.34" y="88.12" width="1.76" height="13.07"/><rect class="cls-1" x="1136.16" y="88.12" width="1.76" height="13.07"/><rect class="cls-1" x="1139.98" y="88.12" width="1.76" height="13.07"/><rect class="cls-1" x="1143.79" y="88.12" width="1.76" height="13.07"/><rect class="cls-1" x="1147.6" y="88.12" width="1.76" height="13.07"/><rect class="cls-1" x="1151.42" y="88.12" width="1.76" height="13.07"/><rect class="cls-1" x="1155.24" y="88.12" width="1.76" height="13.07"/><rect class="cls-1" x="1159.05" y="88.12" width="1.76" height="13.07"/><path class="cls-1" d="M1144.83,75.37l-20.25,10h40.5Zm-.22,7.71a1.93,1.93,0,1,1,1.93-1.93A1.93,1.93,0,0,1,1144.61,83.09Z"/><path class="cls-1" d="M1426,114.17s-13.33-4-30.3-8.26v-2.18c8.4-4.6-.39-20.86-.39-20.86s-8.21,17.6-.39,20.91v1.93c-12.2-3-26.17-6.15-38.39-8V93.3c10.3-5.64-.48-25.57-.48-25.57s-10.07,21.58-.48,25.63v4.25a121.18,121.18,0,0,0-16.89-1.44c-1.17,0-2.33,0-3.5.06v-3c7.6-4.16-.36-18.88-.36-18.88s-7.43,15.93-.36,18.92v2.93c-4.4.15-8.76.5-13,1V96c6.21-3.4-.29-15.43-.29-15.43s-6.08,13-.29,15.47v1.32c-3.42.41-6.74.9-9.9,1.43V96c6.21-3.4-.29-15.43-.29-15.43s-6.08,13-.29,15.47v2.8h.3c-6.82,1.16-12.86,2.53-17.5,3.7V100c8.4-4.6-.39-20.86-.39-20.86s-8.21,17.6-.39,20.91v2.66c-5.48,1.41-8.81,2.48-8.81,2.48h0c-15.56,4.89-29.62,8.77-38.89,9-16.53.41-50.54-6.36-81.22-8.92v-1.58h-1v-1.91h-35.36v1.91h-1v1.7c-29.94,4.33-77.22,20.69-107.16,22.77C792.52,143.91,534.24,139.58,427,139.57l.36.52-28.92-.35-2.81,0-1.62-.1-214.45-2.62v-1.77c6.21-3.4-.29-15.43-.29-15.43s-6.08,13-.29,15.47v1.73l-12.77-.16v-1.61c6.21-3.4-.29-15.43-.29-15.43s-6.08,13-.29,15.47v1.56l-11.94-.15v-2.09c7.6-4.16-.36-18.88-.36-18.88S145.9,131.7,153,134.7v2l-15.74-.19v-3.61c10.3-5.64-.48-25.57-.48-25.57s-10.07,21.58-.48,25.63v3.54l-35.59-.44v-3.46c8.4-4.6-.39-20.86-.39-20.86s-8.21,17.6-.39,20.91v3.4l-22.37-.27v-3.18c8.4-4.6-.39-20.86-.39-20.86s-8.21,17.6-.39,20.91v3.12l-12-.15v-2.59c10.3-5.64-.48-25.57-.48-25.57s-10.07,21.58-.48,25.63v2.52l-16.49-.2v-2.81c8.4-4.6-.39-20.86-.39-20.86s-8.21,17.6-.39,20.91v2.75L36.1,135.3v-3.63c10.3-5.64-.48-25.57-.48-25.57s-10.07,21.58-.48,25.63v3.56L0,134.86V184H1426l-.12-24.56h.13Z"/></g></svg>