<svg xmlns="http://www.w3.org/2000/svg" viewBox="0 0 1426 184"><defs><style>.cls-1{fill:#40394f;}</style></defs><title>hero-megg</title><g id="Layer_2" data-name="Layer 2"><path class="cls-1" d="M1404.45,131.19V135h-.79v-3.84c-8.4-4.6.39-20.86.39-20.86S1412.27,127.88,1404.45,131.19Z"/><rect class="cls-1" x="263.7" y="85.78" width="35.36" height="1.91"/><rect class="cls-1" x="295.7" y="88.12" width="1.76" height="13.07"/><rect class="cls-1" x="291.88" y="88.12" width="1.76" height="13.07"/><rect class="cls-1" x="288.06" y="88.12" width="1.76" height="13.07"/><rect class="cls-1" x="284.25" y="88.12" width="1.76" height="13.07"/><rect class="cls-1" x="280.43" y="88.12" width="1.76" height="13.07"/><rect class="cls-1" x="276.62" y="88.12" width="1.76" height="13.07"/><rect class="cls-1" x="272.8" y="88.12" width="1.76" height="13.07"/><rect class="cls-1" x="268.99" y="88.12" width="1.76" height="13.07"/><rect class="cls-1" x="265.17" y="88.12" width="1.76" height="13.07"/><path class="cls-1" d="M260.91,85.35h40.5l-20.25-10Zm18.54-4.2a1.93,1.93,0,1,1,1.93,1.93A1.93,1.93,0,0,1,279.45,81.15Z"/><path class="cls-1" d="M0,114.17s13.33-4,30.3-8.26v-2.18c-8.4-4.6.39-20.86.39-20.86s8.21,17.6.39,20.91v1.93c12.2-3,26.17-6.15,38.39-8V93.3c-10.3-5.64.48-25.57.48-25.57S80,89.31,70.43,93.36v4.25a121.18,121.18,0,0,1,16.89-1.44c1.17,0,2.33,0,3.5.06v-3c-7.6-4.16.36-18.88.36-18.88s7.43,15.93.36,18.92v2.93c4.4.15,8.76.5,13,1V96c-6.21-3.4.29-15.43.29-15.43s6.08,13,.29,15.47v1.32c3.42.41,6.74.9,9.9,1.43V96c-6.21-3.4.29-15.43.29-15.43s6.08,13,.29,15.47v2.8h-.3c6.82,1.16,12.86,2.53,17.5,3.7V100c-8.4-4.6.39-20.86.39-20.86s8.21,17.6.39,20.91v2.66c5.48,1.41,8.81,2.48,8.81,2.48h0c15.56,4.89,29.62,8.77,38.89,9,16.53.41,50.54-6.36,81.22-8.92v-1.58h1v-1.91h35.36v1.91h1v1.7c29.94,4.33,77.22,20.69,107.16,22.77,226.42,15.77,484.7,11.44,591.94,11.42l-.36.52,28.92-.35,2.81,0,1.62-.1,214.45-2.62v-1.77c-6.21-3.4.29-15.43.29-15.43s6.08,13,.29,15.47v1.73l12.77-.16v-1.61c-6.21-3.4.29-15.43.29-15.43s6.08,13,.29,15.47v1.56l11.94-.15v-2.09c-7.6-4.16.36-18.88.36-18.88s7.43,15.93.36,18.92v2l15.74-.19v-3.61c-10.3-5.64.48-25.57.48-25.57s10.07,21.58.48,25.63v3.54l35.59-.44v-3.46c-8.4-4.6.39-20.86.39-20.86s8.21,17.6.39,20.91v3.4l22.37-.27v-3.18c-8.4-4.6.39-20.86.39-20.86s8.21,17.6.39,20.91v3.12l12-.15v-2.59c-10.3-5.64.48-25.57.48-25.57s10.07,21.58.48,25.63v2.52l16.49-.2v-2.81c-8.4-4.6.39-20.86.39-20.86s8.21,17.6.39,20.91v2.75l10.39-.13v-3.63c-10.3-5.64.48-25.57.48-25.57s10.07,21.58.48,25.63v3.56l35.15-.43V184H0l.12-24.56H0Z"/></g></svg>