<svg xmlns="http://www.w3.org/2000/svg" viewBox="0 0 1426 184"><defs><style>.cls-1{fill:#40394f;}</style></defs><title>hero-megaa</title><g id="Layer_2" data-name="Layer 2"><path class="cls-1" d="M1426,114.17s-59.9-18.07-87.33-18-55,9-55,9h0c-15.56,4.89-29.62,8.77-38.89,9-23.76.59-83.63-13.66-117.85-8.91-29.89,4.15-77.74,20.78-107.94,22.89-253.15,17.63-546.13,10.13-623.31,11.63-17.79-1.06-35.43-2.38-52.78-4l-148.2-6.93V103.63l-11.57-6.56-5.66-3.34v9.77L157.37,92.06v11.31l-18.9-11.31V102.6h-5.4V90.35h-4.63V95.8h-2.32v29.83l-10.81-.51v-60H99.2v59.24l-22-1-20-.93H51.41l-7.49-.62L0,119.74V184H1426l-.12-24.56h.13ZM141.17,112h-2.06v-4.11h2.06Zm7.59,0H146.7v-4.11h2.06Zm7.59,0h-2.06v-4.11h2.06Zm7.59,0h-2.06v-4.11h2.06Zm7.59,0h-2.06v-4.11h2.06Zm7.59,0H177v-4.11h2.06Zm7.59,0h-2.06v-4.11h2.06Z"/><path class="cls-1" d="M115.31,49.92a1,1,0,0,0-1-1H100.23a1,1,0,0,0-1,1v9.26h16.11Z"/><rect class="cls-1" x="99.2" y="61.38" width="16.11" height="1.56"/></g></svg>