<svg xmlns="http://www.w3.org/2000/svg" viewBox="0 0 1426 184"><defs><style>.cls-1{fill:#40394f;}</style></defs><title>hero-megaregions-iw</title><g id="Layer_2" data-name="Layer 2"><path class="cls-1" d="M0,119.74V184H1426V85l-34.73-17.84-10.91-1.68-28.69-33.2-11.83-13.69L1332.18,16,1321.62,2.22l-5.81,1.85-7.39,10.56-2.9,1.58-7.13,18.63-9.77,6.72L1275.44,60.3,1229.3,88.5c-4,1.28-8.2,2.57-12.62,3.86l-1.43-5.27,19.62-11.58V73.93l.07,0-.07,0,.07,0-14.63-8.36-32.8,19,.07,0h0l-.07,0,.07,0,0,1.7,14.53,8.58,6.83-4,.59,2.13,1.66,1c-9.65,2.7-20.14,5.38-31.12,8l0,.06-6.84,1.56-.4.09h0l-2.85.65h0l-4.58,1h0l-2.43.56-1.09-4,19.62-11.58,0-1.57.07,0-.07,0,.07,0-14.63-8.36-32.8,19,.07,0h0l-.07,0,.07,0v1.7l13.79,8.14-8.46,1.81c-30.79,1.76-59.82,4-84.44,6.92-127,15-164,14.21-328,20.7C617,143,472,148,342.87,135.76l-191.12-8.93c1.38-.72,3.44-2.45,3.48-6.4.06-5.92.85-8.88-1.56-8.94s-1.11,5.52-1.06,7a13.43,13.43,0,0,1-.5,4.86,4.4,4.4,0,0,1-1.56,2V98.59a1.67,1.67,0,0,0-1.9-1.56c-1.73.22-1.62,1.56-1.62,1.56v20.78s-1.17-1-1-6.81-.17-5.53-1.12-5.59-1.06.89-1.06,1.79,0,5.62.17,7.48a6,6,0,0,0,3.13,5.08l0,5.29-65.91-3.08L81.32,112a7.3,7.3,0,0,0,3.8-6.17c.2-2.26.2-8,.2-9.08s-.14-2.24-1.29-2.17-1.56-.27-1.36,6.78-1.22,8.27-1.22,8.27V84.41s.14-1.63-2-1.9a2,2,0,0,0-2.31,1.9v32.47a5.35,5.35,0,0,1-1.9-2.37,16.29,16.29,0,0,1-.61-5.9c.06-1.84,1.63-8.61-1.29-8.54s-2,3.66-1.9,10.85,5.69,8.34,5.69,8.34v4.09ZM1162.76,92.05l2.66-1.51,2.39,1.4-2.64,1.52ZM1220.11,72l2.66-1.51,2.39,1.4-2.64,1.52Zm-13.32,12.86,2.39,1.4-2.64,1.52-2.41-1.41Zm5.59-8.61-2.64,1.52-2.41-1.41,2.66-1.51Zm-.86,13,0,0,0,.11Zm-53.43,14.8,0,0,0,.11Zm-7.86,4.64,5.25-3.1.5,1.83Zm-1-10.75-2.64,1.52-2.41-1.41,2.66-1.51Z"/></g></svg>