<svg xmlns="http://www.w3.org/2000/svg" viewBox="0 0 1426 184"><defs><style>.cls-1{fill:#40394f;}</style></defs><title>hero-megaaa</title><g id="Layer_2" data-name="Layer 2"><path class="cls-1" d="M1348.75,123.77v-4.09s5.63-1.15,5.69-8.34,1-10.78-1.9-10.85-1.35,6.7-1.29,8.54a16.28,16.28,0,0,1-.61,5.9,5.34,5.34,0,0,1-1.9,2.37V84.83a2,2,0,0,0-2.31-1.9c-2.1.27-2,1.9-2,1.9v25.22s-1.42-1.22-1.22-8.27-.2-6.71-1.36-6.78-1.29,1.08-1.29,2.17,0,6.82.2,9.08a7.3,7.3,0,0,0,3.8,6.17l.06,11.53L1278.76,127l0-5.29a6,6,0,0,0,3.13-5.08c.17-1.86.17-6.59.17-7.48s-.11-1.84-1.06-1.79-1.28-.22-1.12,5.59-1,6.81-1,6.81V99s.11-1.34-1.62-1.56a1.67,1.67,0,0,0-1.9,1.56v26.76a4.4,4.4,0,0,1-1.56-2,13.43,13.43,0,0,1-.5-4.86c.05-1.51,1.34-7.09-1.06-7s-1.62,3-1.56,8.94c0,3.94,2.1,5.68,3.48,6.4l-191.12,8.93c-17.34,1.64-35,3-52.78,4v44.22h395.79V120.16Z"/><polygon class="cls-1" points="-0.07 140.2 -0.07 184.42 1024.03 184.42 1030.28 184.42 1030.28 140.2 -0.07 140.2"/><rect class="cls-1" x="213.04" y="118.86" width="6.82" height="6.82"/><rect class="cls-1" x="222.82" y="118.86" width="6.82" height="6.82"/><rect class="cls-1" x="232.59" y="118.86" width="6.82" height="6.82"/><rect class="cls-1" x="242.37" y="118.86" width="6.82" height="6.82"/><rect class="cls-1" x="252.14" y="118.86" width="6.82" height="6.82"/><rect class="cls-1" x="261.92" y="118.86" width="6.82" height="6.82"/><rect class="cls-1" x="177.27" y="92" width="1.2" height="14.46" rx="0.6" ry="0.6"/><path class="cls-1" d="M165.41,105.94v18.92H193.1V105.94Zm5,8.3h-2v-4h2Zm5,0h-2v-4h2Zm5,0h-2v-4h2Zm5,0h-2v-4h2Zm4.7,0h-2v-4h2Z"/><rect class="cls-1" x="192.94" y="113.4" width="10.27" height="11.56"/><rect class="cls-1" x="180.75" y="94.66" width="4.98" height="1.04"/><rect class="cls-1" x="180.75" y="92" width="4.98" height="2.5"/><rect class="cls-1" x="180.75" y="95.86" width="4.98" height="11.88"/><polygon class="cls-1" points="289.94 130.24 295.35 123.94 153.61 123.94 156.22 130.24 289.94 130.24"/><polygon class="cls-1" points="156.56 131.06 160.35 140.2 281.37 140.2 289.23 131.06 156.56 131.06"/></g></svg>