<svg xmlns="http://www.w3.org/2000/svg" xmlns:xlink="http://www.w3.org/1999/xlink" viewBox="0 0 504 504"><defs><style>.cls-1{fill:url(#linear-gradient);}.cls-2{fill:none;}.cls-3,.cls-6{fill:#5c515f;}.cls-4{fill:url(#linear-gradient-2);}.cls-5{fill:#556040;}.cls-16,.cls-6{opacity:0.6;}.cls-7{fill:#f47160;}.cls-8{fill:#c45c4e;}.cls-9{fill:#71c9c9;}.cls-10{fill:#61aaa8;}.cls-11{fill:#bca493;}.cls-12{fill:#79d7db;}.cls-13{fill:#d8bdab;}.cls-14{fill:#e26e5a;}.cls-15{fill:#f97e62;}.cls-17{fill:url(#linear-gradient-3);}.cls-18{fill:url(#green_halftone);}.cls-19{fill:url(#linear-gradient-4);}.cls-20{fill:url(#green_halftone-7);}.cls-21{fill:url(#linear-gradient-5);}.cls-22{fill:url(#linear-gradient-6);}.cls-23{fill:url(#linear-gradient-7);}.cls-24{fill:url(#linear-gradient-8);}.cls-25{fill:url(#linear-gradient-9);}.cls-26{fill:url(#linear-gradient-10);}.cls-27{isolation:isolate;}.cls-28{clip-path:url(#clip-path);}.cls-29{fill:#afad87;}.cls-30{fill:#fff;opacity:0.8;}.cls-31{fill:#b0eaea;}.cls-32{fill:#edd4b9;}.cls-33{fill:#aeba83;}.cls-34{fill:#c4d193;}.cls-35{fill:#c6a283;}.cls-36{fill:#ad8c74;}.cls-37{clip-path:url(#clip-path-2);}.cls-38{fill:#9e806c;}.cls-39{clip-path:url(#clip-path-3);}.cls-40{clip-path:url(#clip-path-4);}.cls-41{clip-path:url(#clip-path-5);}.cls-42{fill:url(#linear-gradient-13);}.cls-43{fill:url(#linear-gradient-14);}.cls-44{fill:url(#linear-gradient-15);}.cls-45{fill:url(#linear-gradient-16);}.cls-46{fill:url(#linear-gradient-17);}.cls-47{fill:url(#linear-gradient-18);}.cls-48{fill:url(#linear-gradient-19);}.cls-49{fill:url(#linear-gradient-20);}.cls-50{clip-path:url(#clip-path-6);}.cls-51{clip-path:url(#clip-path-7);}.cls-52{clip-path:url(#clip-path-8);}.cls-53{clip-path:url(#clip-path-9);}.cls-54{clip-path:url(#clip-path-10);}.cls-55{fill:url(#linear-gradient-23);}.cls-56{fill:url(#linear-gradient-24);}.cls-57{fill:url(#linear-gradient-25);}.cls-58{fill:url(#linear-gradient-26);}.cls-59{fill:url(#linear-gradient-27);}.cls-60{fill:url(#linear-gradient-28);}.cls-61{fill:url(#linear-gradient-29);}.cls-62{clip-path:url(#clip-path-11);}.cls-63{clip-path:url(#clip-path-12);}.cls-64{clip-path:url(#clip-path-13);}.cls-65{fill:#ccc;}.cls-66{fill:#b5b5b5;}.cls-67{fill:#727272;}.cls-68{fill:#a69bae;}.cls-69{fill:#908697;}.cls-70{fill:#8f8696;}.cls-71{fill:#85778a;}.cls-72{clip-path:url(#clip-path-14);}.cls-73{fill:#9a8aa0;}.cls-74{clip-path:url(#clip-path-15);}.cls-75{clip-path:url(#clip-path-16);}.cls-76{fill:#454048;}</style><linearGradient id="linear-gradient" x1="225.33" y1="304.12" x2="241.07" y2="304.12" gradientUnits="userSpaceOnUse"><stop offset="0" stop-color="#8c7d91"/><stop offset="1" stop-color="#5c515f"/></linearGradient><linearGradient id="linear-gradient-2" x1="117.92" y1="193.61" x2="133.66" y2="193.61" xlink:href="#linear-gradient"/><linearGradient id="linear-gradient-3" x1="258.48" y1="152.6" x2="265.81" y2="152.6" gradientUnits="userSpaceOnUse"><stop offset="0" stop-color="#bace8d"/><stop offset="1" stop-color="#899b68"/></linearGradient><pattern id="green_halftone" data-name="green halftone" width="10" height="10" patternTransform="translate(4.75 50.76) scale(0.03)" patternUnits="userSpaceOnUse" viewBox="0 0 10 10"><rect class="cls-2" width="10" height="10"/><circle class="cls-5" cx="7.5" cy="10" r="1.66" transform="translate(-3.57 15.81) rotate(-80.82)"/><circle class="cls-5" cx="2.5" cy="10" r="1.66" transform="translate(-7.77 10.87) rotate(-80.82)"/><circle class="cls-5" cx="10" cy="5" r="1.66" transform="translate(3.47 14.07) rotate(-80.82)"/><circle class="cls-5" cx="5" cy="5" r="1.66" transform="translate(-0.73 9.14) rotate(-80.82)"/><circle class="cls-5" cy="5" r="1.66" transform="translate(-4.94 4.2) rotate(-80.82)"/><circle class="cls-5" cx="7.5" r="1.66" transform="translate(6.3 7.4) rotate(-80.82)"/><circle class="cls-5" cx="2.5" r="1.66" transform="translate(2.1 2.47) rotate(-80.82)"/></pattern><linearGradient id="linear-gradient-4" x1="257.85" y1="91.17" x2="264.06" y2="91.17" xlink:href="#linear-gradient-3"/><pattern id="green_halftone-7" data-name="green halftone" width="10" height="10" patternTransform="translate(4.67 40.91) scale(0.02)" patternUnits="userSpaceOnUse" viewBox="0 0 10 10"><rect class="cls-2" width="10" height="10"/><circle class="cls-5" cx="7.5" cy="10" r="1.66" transform="translate(-3.57 15.81) rotate(-80.82)"/><circle class="cls-5" cx="2.5" cy="10" r="1.66" transform="translate(-7.77 10.87) rotate(-80.82)"/><circle class="cls-5" cx="10" cy="5" r="1.66" transform="translate(3.47 14.07) rotate(-80.82)"/><circle class="cls-5" cx="5" cy="5" r="1.66" transform="translate(-0.73 9.14) rotate(-80.82)"/><circle class="cls-5" cy="5" r="1.66" transform="translate(-4.94 4.2) rotate(-80.82)"/><circle class="cls-5" cx="7.5" r="1.66" transform="translate(6.3 7.4) rotate(-80.82)"/><circle class="cls-5" cx="2.5" r="1.66" transform="translate(2.1 2.47) rotate(-80.82)"/></pattern><linearGradient id="linear-gradient-5" x1="257.01" y1="316.81" x2="256.17" y2="326.49" gradientTransform="translate(-10.42 -17.02) rotate(0.22)" gradientUnits="userSpaceOnUse"><stop offset="0" stop-color="#9eefef"/><stop offset="0.03" stop-color="#9deded" stop-opacity="0.93"/><stop offset="0.17" stop-color="#99e4e5" stop-opacity="0.65"/><stop offset="0.31" stop-color="#95ddde" stop-opacity="0.42"/><stop offset="0.43" stop-color="#93d7d9" stop-opacity="0.24"/><stop offset="0.54" stop-color="#91d3d5" stop-opacity="0.11"/><stop offset="0.63" stop-color="#8fd1d3" stop-opacity="0.03"/><stop offset="0.7" stop-color="#8fd0d2" stop-opacity="0"/></linearGradient><linearGradient id="linear-gradient-6" x1="215.96" y1="292.11" x2="214.84" y2="305.08" xlink:href="#linear-gradient-5"/><linearGradient id="linear-gradient-7" x1="192.17" y1="281.97" x2="191.33" y2="291.65" xlink:href="#linear-gradient-5"/><linearGradient id="linear-gradient-8" x1="252.84" y1="286.99" x2="252" y2="296.66" xlink:href="#linear-gradient-5"/><linearGradient id="linear-gradient-9" x1="281.07" y1="296.15" x2="280.13" y2="306.95" xlink:href="#linear-gradient-5"/><linearGradient id="linear-gradient-10" x1="225.33" y1="303.51" x2="241.07" y2="303.51" gradientUnits="userSpaceOnUse"><stop offset="0" stop-color="#8c9591"/><stop offset="1" stop-color="#5c575f"/></linearGradient><clipPath id="clip-path"><path class="cls-1" d="M241.07,308.33h0a1.16,1.16,0,0,1-1.37,1.14c-2.2-.42-6.55-1.41-9.23-3.05a13.13,13.13,0,0,1-4.69-5.29,4.19,4.19,0,0,1-.44-1.87v-.5a13.4,13.4,0,0,0,5.13,6.28C234.12,307.27,240.85,308.3,241.07,308.33Z"/></clipPath><clipPath id="clip-path-2"><path class="cls-2" d="M185.92,195.38a57,57,0,0,0-.92-7.57h0c-.06-.27-.11-.52-.17-.74-.54-2-1.15-3.65-1.15-3.65a.52.52,0,0,0-.36,0l.08,0-.1,0h0a.54.54,0,0,0-.19,0h0c-.14,0-.26.1-.2.44a33.46,33.46,0,0,1,1.35,7c.25,3.59-.78,10.64-.25,11.46a.9.9,0,0,0,.43.36h0a1.14,1.14,0,0,0,.54.06l.3-.06a1.76,1.76,0,0,1-.3.06,1.84,1.84,0,0,0,.92-.19S185.92,196.68,185.92,195.38Z"/></clipPath><clipPath id="clip-path-3"><path class="cls-2" d="M129.69,155.42a44.14,44.14,0,0,0-.71-5.86h0c0-.21-.09-.41-.13-.57-.42-1.57-.89-2.82-.89-2.82a.4.4,0,0,0-.28,0l.07,0-.08,0h0l-.14,0h0c-.1,0-.2.08-.15.34a25.92,25.92,0,0,1,1,5.42c.19,2.78-.6,8.24-.19,8.88a.7.7,0,0,0,.33.28h0a.88.88,0,0,0,.41,0l.23,0-.23,0a1.43,1.43,0,0,0,.71-.15S129.69,156.43,129.69,155.42Z"/></clipPath><clipPath id="clip-path-4"><path class="cls-2" d="M192.56,206.09a57,57,0,0,0-.92-7.57h0c-.06-.27-.11-.52-.17-.74-.54-2-1.15-3.65-1.15-3.65a.52.52,0,0,0-.36,0l.08,0-.1,0h0a.54.54,0,0,0-.19,0h0c-.14,0-.26.1-.2.44a33.46,33.46,0,0,1,1.35,7c.25,3.59-.78,10.64-.25,11.46a.9.9,0,0,0,.43.36h0a1.14,1.14,0,0,0,.54.06l.3-.06a1.76,1.76,0,0,1-.3.06,1.84,1.84,0,0,0,.92-.19S192.56,207.39,192.56,206.09Z"/></clipPath><clipPath id="clip-path-5"><path class="cls-2" d="M184.23,211.61a62.12,62.12,0,0,0-1-8.25h0c-.06-.3-.12-.57-.18-.8-.58-2.22-1.26-4-1.26-4a.57.57,0,0,0-.39,0l.09,0-.11,0h0a.59.59,0,0,0-.2,0h0c-.15,0-.28.11-.22.48a36.48,36.48,0,0,1,1.47,7.63c.27,3.91-.85,11.6-.27,12.49a1,1,0,0,0,.47.39h0a1.25,1.25,0,0,0,.58.07l.33-.07a1.92,1.92,0,0,1-.33.07,2,2,0,0,0,1-.21S184.23,213,184.23,211.61Z"/></clipPath><linearGradient id="linear-gradient-13" x1="116.34" y1="197.9" x2="114.91" y2="214.37" xlink:href="#linear-gradient-5"/><linearGradient id="linear-gradient-14" x1="140" y1="249.65" x2="139.16" y2="259.33" xlink:href="#linear-gradient-5"/><linearGradient id="linear-gradient-15" x1="98.96" y1="224.95" x2="97.83" y2="237.93" xlink:href="#linear-gradient-5"/><linearGradient id="linear-gradient-16" x1="75.17" y1="214.81" x2="74.33" y2="224.49" xlink:href="#linear-gradient-5"/><linearGradient id="linear-gradient-17" x1="135.83" y1="219.83" x2="134.99" y2="229.51" xlink:href="#linear-gradient-5"/><linearGradient id="linear-gradient-18" x1="157.25" y1="203.72" x2="156.41" y2="213.39" xlink:href="#linear-gradient-5"/><linearGradient id="linear-gradient-19" x1="164.07" y1="229" x2="163.13" y2="239.79" xlink:href="#linear-gradient-5"/><linearGradient id="linear-gradient-20" x1="117.92" y1="193" x2="133.66" y2="193" xlink:href="#linear-gradient-10"/><clipPath id="clip-path-6"><path class="cls-4" d="M133.66,197.82h0a1.16,1.16,0,0,1-1.37,1.14c-2.2-.42-6.55-1.41-9.23-3.05a13.13,13.13,0,0,1-4.69-5.29,4.19,4.19,0,0,1-.44-1.87v-.5a13.4,13.4,0,0,0,5.13,6.28C126.7,196.76,133.44,197.79,133.66,197.82Z"/></clipPath><clipPath id="clip-path-7"><path class="cls-2" d="M304.54,200.32a57,57,0,0,1,.92-7.57h0c.06-.27.11-.52.17-.74.54-2,1.15-3.65,1.15-3.65a.52.52,0,0,1,.36,0l-.08,0,.1,0h0a.54.54,0,0,1,.19,0h0c.14,0,.26.1.2.44a33.46,33.46,0,0,0-1.35,7c-.25,3.59.78,10.64.25,11.46a.9.9,0,0,1-.43.36h0a1.14,1.14,0,0,1-.54.06l-.3-.06a1.76,1.76,0,0,0,.3.06,1.84,1.84,0,0,1-.92-.19S304.54,201.62,304.54,200.32Z"/></clipPath><clipPath id="clip-path-8"><path class="cls-2" d="M351.14,156.62a44.14,44.14,0,0,1,.71-5.86h0c0-.21.09-.41.13-.57.42-1.57.89-2.82.89-2.82a.4.4,0,0,1,.28,0l-.07,0,.08,0h0l.14,0h0c.1,0,.2.08.15.34a25.92,25.92,0,0,0-1,5.42c-.19,2.78.6,8.24.19,8.88a.7.7,0,0,1-.33.28h0a.88.88,0,0,1-.41,0l-.23,0,.23,0a1.43,1.43,0,0,1-.71-.15S351.14,157.63,351.14,156.62Z"/></clipPath><clipPath id="clip-path-9"><path class="cls-2" d="M294,211.91a57,57,0,0,1,.92-7.57h0c.06-.27.11-.52.17-.74.54-2,1.15-3.65,1.15-3.65a.52.52,0,0,1,.36,0l-.08,0,.1,0h0a.54.54,0,0,1,.19,0h0c.14,0,.26.1.2.44a33.46,33.46,0,0,0-1.35,7c-.25,3.59.78,10.64.25,11.46a.9.9,0,0,1-.43.36h0a1.14,1.14,0,0,1-.54.06l-.3-.06a1.76,1.76,0,0,0,.3.06A1.84,1.84,0,0,1,294,219S294,213.21,294,211.91Z"/></clipPath><clipPath id="clip-path-10"><path class="cls-2" d="M305.33,215.79a62.12,62.12,0,0,1,1-8.25h0c.06-.3.12-.57.18-.8.58-2.22,1.26-4,1.26-4a.57.57,0,0,1,.39,0l-.09,0,.11,0h0a.59.59,0,0,1,.2,0h0c.15,0,.28.11.22.48a36.48,36.48,0,0,0-1.47,7.63c-.27,3.91.85,11.6.27,12.49a1,1,0,0,1-.47.39h0a1.25,1.25,0,0,1-.58.07l-.33-.07a1.92,1.92,0,0,0,.33.07,2,2,0,0,1-1-.21S305.33,217.21,305.33,215.79Z"/></clipPath><linearGradient id="linear-gradient-23" x1="2535.72" y1="188.74" x2="2534.29" y2="205.21" gradientTransform="matrix(-1, 0, 0, 1, 2931.3, -17.02)" xlink:href="#linear-gradient-5"/><linearGradient id="linear-gradient-24" x1="2559.38" y1="240.49" x2="2558.54" y2="250.16" gradientTransform="matrix(-1, 0, 0, 1, 2931.3, -17.02)" xlink:href="#linear-gradient-5"/><linearGradient id="linear-gradient-25" x1="2518.34" y1="215.79" x2="2517.21" y2="228.76" gradientTransform="matrix(-1, 0, 0, 1, 2931.3, -17.02)" xlink:href="#linear-gradient-5"/><linearGradient id="linear-gradient-26" x1="2494.54" y1="205.65" x2="2493.71" y2="215.33" gradientTransform="matrix(-1, 0, 0, 1, 2931.3, -17.02)" xlink:href="#linear-gradient-5"/><linearGradient id="linear-gradient-27" x1="2555.21" y1="210.66" x2="2554.37" y2="220.34" gradientTransform="matrix(-1, 0, 0, 1, 2931.3, -17.02)" xlink:href="#linear-gradient-5"/><linearGradient id="linear-gradient-28" x1="2576.63" y1="194.55" x2="2575.79" y2="204.23" gradientTransform="matrix(-1, 0, 0, 1, 2931.3, -17.02)" xlink:href="#linear-gradient-5"/><linearGradient id="linear-gradient-29" x1="2583.45" y1="219.83" x2="2582.51" y2="230.62" gradientTransform="matrix(-1, 0, 0, 1, 2931.3, -17.02)" xlink:href="#linear-gradient-5"/><clipPath id="clip-path-11"><path class="cls-2" d="M266.94,250.93a57,57,0,0,1,.92-7.57h0c.06-.27.11-.52.17-.74.54-2,1.15-3.65,1.15-3.65a.52.52,0,0,1,.36,0l-.08,0,.1,0h0a.54.54,0,0,1,.19,0h0c.14,0,.26.1.2.44a33.46,33.46,0,0,0-1.35,7c-.25,3.59.78,10.64.25,11.46a.9.9,0,0,1-.43.36h0a1.14,1.14,0,0,1-.54.06l-.3-.06a1.76,1.76,0,0,0,.3.06,1.84,1.84,0,0,1-.92-.19S266.94,252.24,266.94,250.93Z"/></clipPath><clipPath id="clip-path-12"><path class="cls-2" d="M201.82,247.34a57,57,0,0,1,.92-7.57h0c.06-.27.11-.52.17-.74.54-2,1.15-3.65,1.15-3.65a.52.52,0,0,1,.36,0l-.08,0,.1,0h0a.54.54,0,0,1,.19,0h0c.14,0,.26.1.2.44a33.46,33.46,0,0,0-1.35,7c-.25,3.59.78,10.64.25,11.46a.9.9,0,0,1-.43.36h0a1.14,1.14,0,0,1-.54.06l-.3-.06a1.76,1.76,0,0,0,.3.06,1.84,1.84,0,0,1-.92-.19S201.82,248.65,201.82,247.34Z"/></clipPath><clipPath id="clip-path-13"><path class="cls-2" d="M219.44,252.73a57,57,0,0,1,.92-7.57h0c.06-.27.11-.52.17-.74.54-2,1.15-3.65,1.15-3.65a.52.52,0,0,1,.36,0l-.08,0,.1,0h0a.54.54,0,0,1,.19,0h0c.14,0,.26.1.2.44a33.46,33.46,0,0,0-1.35,7c-.25,3.59.78,10.64.25,11.46a.9.9,0,0,1-.43.36h0a1.14,1.14,0,0,1-.54.06l-.3-.06a1.76,1.76,0,0,0,.3.06,1.84,1.84,0,0,1-.92-.19S219.44,254,219.44,252.73Z"/></clipPath><clipPath id="clip-path-14"><path class="cls-2" d="M254.73,128.41l.26-.15a.17.17,0,0,1,.17,0l-.26.15A.17.17,0,0,0,254.73,128.41Z"/></clipPath><clipPath id="clip-path-15"><path class="cls-3" d="M261.2,133.15l-.26.15a.17.17,0,0,0,.07-.16l.26-.15A.17.17,0,0,1,261.2,133.15Z"/></clipPath><clipPath id="clip-path-16"><path class="cls-3" d="M260.77,131.81l.26-.15a.54.54,0,0,1,.24.42l-.26.15A.54.54,0,0,0,260.77,131.81Z"/></clipPath></defs><title>logos-mega</title><g id="Layer_16" data-name="Layer 16"><polygon class="cls-6" points="366.55 190.86 471.74 251.99 366.74 312.87 261.46 251.87 366.55 190.86"/><polygon class="cls-6" points="252.11 257.94 357.29 319.06 252.29 379.94 147.01 318.95 252.11 257.94"/><path class="cls-6" d="M241.33,253.86s-13.08-32.81-32.6-43.32-30-3.65-38.6-10.51-27.66-11.15-34.1-7.51S31,253.76,31,253.76l105.38,60.9Z"/><polygon class="cls-7" points="148.34 138.84 148.34 162.58 252.23 223.46 252.04 198.97 148.34 138.84"/><polygon class="cls-8" points="252.06 198.95 355.72 138.81 356.12 163.16 252.24 223.44 252.06 198.95"/><polygon class="cls-9" points="262.76 206.85 262.76 230.59 366.65 291.47 366.47 266.98 262.76 206.85"/><polygon class="cls-10" points="134.83 266.97 238.9 206.84 238.9 231.18 135.02 291.46 134.83 266.97"/><polygon class="cls-9" points="147.81 274.23 147.81 297.98 251.7 358.85 251.52 334.36 147.81 274.23"/><polygon class="cls-10" points="251.53 334.35 355.6 274.22 355.6 298.56 251.71 358.84 251.53 334.35"/><path class="cls-11" d="M258.14,233.24c2.06.55-4.06.74-4.06.74a22.43,22.43,0,0,1-8.17-6.42c-3.25-4.33.56-2.39.56-2.39A22.11,22.11,0,0,0,258.14,233.24Z"/><polygon class="cls-12" points="251.63 214.25 147.74 274.62 251.44 334.75 355.42 274.51 251.63 214.25"/><path class="cls-13" d="M263.79,230.6c-3.32.45-12.49-3.14-12.2-5.14s.9-.61,4.91-2.6,3.67,5.79,6.29,6.23S263.79,230.6,263.79,230.6Z"/><path class="cls-13" d="M258.14,233.24c2.06.55-4.06.74-4.06.74a22.43,22.43,0,0,1-8.17-6.42c-3.25-4.33.56-2.39.56-2.39A22.11,22.11,0,0,0,258.14,233.24Z"/><path class="cls-14" d="M148.11,138.82l38.47-45.34A7.66,7.66,0,0,1,193,90.79c8.47.62,28.54,1.81,36.49-.31C235.23,88.95,252,78.64,252,78.64l103.76,60.18L251.93,199Z"/><path class="cls-15" d="M148.11,138.82l38.47-45.34a3.6,3.6,0,0,1,5.44,0c2.91,2.85,3.44,12.64,7.41,15.15s11.77,1.59,16.4,8.33,18.81,47.21,25.37,52.16S251.93,199,251.93,199Z"/><path class="cls-15" d="M296.87,156.84s-11,1.84-20.51-10-12.29-23.94-20.78-25.27-9.37-7.38-7.75-9.38,9.87-12,23.93-6,13.11,21,22.09,23.67,25.66,8.16,22.28,11.89S296.87,156.84,296.87,156.84Z"/><g class="cls-16"><path class="cls-3" d="M265,162.24c.43-.11.14-.26.62-.6a4.38,4.38,0,0,1,.79-.39,5.41,5.41,0,0,1,.82-.34,8.27,8.27,0,0,1,.87-.18c.27,0,.57,0,.89-.07s.57,0,.89,0,.58.07.89.09.58,0,.85,0l.85.06.85.06c.3,0,.58,0,.85,0l.85,0c.31,0,.59.06.85.08s.59.07.84.1a3.87,3.87,0,0,1,.81.2c.36.13.53.27.53.54s-.24.38-.65.45a6,6,0,0,1-.86,0c-.27,0-.56,0-.86,0s-.58,0-.87,0-.58-.09-.86-.12l-.86-.11c-.35,0-.65-.05-.86-.07s-.53-.07-.8-.09-.54,0-.8,0-.54-.06-.8-.06-.55,0-.8,0-.56,0-.8,0a4.82,4.82,0,0,0-.86.21c-.51.16-1.17.14-.77.31s.41,0,.83.06.42.1.84.13.43,0,.85,0l.85.06c.42,0,.42,0,.85,0s.42.1.84.13.43-.06.85,0,.42.12.84.14.43,0,.85,0,.42.07.84.1.43-.05.85,0l.85.06.84,0c.42,0,.42.06.84.09s.42.06.84.09l.85,0,.85.05c.42,0,.42,0,.85,0l.85.07.85.07c.42,0,.42.05.84.08s.43,0,.85,0l.85.07.85.06.85.06c.43,0,.43,0,.85,0a1.72,1.72,0,0,1,.83.21c.29.13.53.35.43.66a.83.83,0,0,1-.58.5,1.35,1.35,0,0,1-.77.1c-.43,0-.42-.06-.85-.08l-.85-.07-.85,0c-.43,0-.43,0-.86,0l-.85-.06c-.43,0-.43,0-.86,0s-.42-.08-.85-.11-.42-.06-.85-.08-.43,0-.85,0-.43,0-.86,0-.42-.06-.85-.08-.42-.07-.85-.1-.43,0-.86,0l-.85-.07-.85-.07-.85,0c-.43,0-.43,0-.86,0s-.43-.05-.86-.08-.43-.06-.86-.09a4.2,4.2,0,0,0-.86,0c-.4,0,.17.07.77.2a7.72,7.72,0,0,0,.78.22l.8.09c.24,0,.52,0,.81,0s.51.13.79.15l.81.06c.26,0,.53,0,.82,0s.55.08.8.09.56,0,.81,0l.8,0c.31,0,.58.07.8.09s.61.05.8.09c.59.11.51.26.52.46s-.25.37-.64.4a7,7,0,0,1-.84,0l-.87,0c-.26,0-.56-.07-.88-.09s-.57-.08-.87-.1l-.88,0-.88-.08-.88-.1c-.34,0-.64,0-.88,0s-.56-.12-.88-.18-.59-.05-.89-.13a7,7,0,0,1-.84-.31,5.32,5.32,0,0,1-.79-.42,4.17,4.17,0,0,1-.71-.51,3,3,0,0,0-.8-.13l-.82,0-.82,0c-.41,0-.41,0-.82,0s-.41,0-.82,0l-.81-.07-.82,0-.82-.06c-.41,0-.41-.08-.82-.1s-.54.26-.84,0,.08-.35.1-.7-.26-.45,0-.66.38,0,.79,0,.41,0,.82,0a7.42,7.42,0,0,1,.81.11A1.45,1.45,0,0,0,265,162.24Z"/></g><path class="cls-17" d="M261.6,160.88c-.14-.38-.36,0-.79-.27a4.38,4.38,0,0,1-.64-.49,3.68,3.68,0,0,1-.62-.52,4.1,4.1,0,0,1-.42-.7,4.36,4.36,0,0,1-.33-.75,5.64,5.64,0,0,1-.11-.81,6.23,6.23,0,0,1-.09-.81c0-.31,0-.62,0-.9s-.09-.61-.1-.9,0-.62,0-.9-.06-.62-.06-.9a7.23,7.23,0,0,1,.05-.89,1.6,1.6,0,0,1,.3-.81.86.86,0,0,1,.75-.33.69.69,0,0,1,.68.34,2,2,0,0,1,.24.79,5.92,5.92,0,0,1,0,.83c0,.27-.09.55-.12.82s-.06.57-.09.83-.12.62-.12.81,0,.52,0,.78,0,.52.07.78a7.74,7.74,0,0,0,.06.78,3.87,3.87,0,0,0,.25.73,2.6,2.6,0,0,0,.4.69c.29.36.39.93.56.56s0-.42,0-.84,0-.42,0-.85,0-.42,0-.85,0-.42,0-.85,0-.42,0-.85-.07-.42-.07-.85,0-.42,0-.85,0-.42,0-.84.06-.42.06-.85,0-.42,0-.85,0-.42,0-.85,0-.42,0-.85,0-.43,0-.85,0-.42,0-.85,0-.42,0-.85,0-.42,0-.85-.05-.43-.05-.85,0-.43,0-.85.06-.43.06-.86,0-.43,0-.85,0-.5.34-.79a1,1,0,0,1,.85-.23,1.33,1.33,0,0,1,.73.31c.34.3.28.31.27.71s.06.41.06.82,0,.41,0,.82,0,.41,0,.82.08.41.08.82,0,.41,0,.82,0,.41,0,.82,0,.41,0,.82.05.41.05.82,0,.41,0,.83-.09.41-.09.82.08.41.08.82,0,.41,0,.82,0,.41,0,.83,0,.41,0,.83,0,.41,0,.83-.09.42,0,.82.11-.16.28-.8a5.07,5.07,0,0,0,.26-.85c0-.26,0-.56,0-.89s.09-.56.09-.89-.08-.57-.09-.89,0-.55,0-.8,0-.56,0-.8,0-.58,0-.8a2.91,2.91,0,0,1,.15-.78c.12-.38.3-.35.6-.36a.52.52,0,0,1,.57.38,2.27,2.27,0,0,1,.08.75c0,.14,0,.42,0,.79s0,.5,0,.79,0,.52,0,.79,0,.54,0,.8,0,.55,0,.79,0,.57,0,.79a5.79,5.79,0,0,1-.14.77,3.8,3.8,0,0,1-.26.73,3.39,3.39,0,0,1-.41.66,3.61,3.61,0,0,1-.51.6,4.45,4.45,0,0,1-.63.46,2.61,2.61,0,0,0-.06.89c0,.45,0,.45,0,.9s0,.45,0,.9-.05.45-.06.9,0,.45,0,.9,0,.45,0,.9.26.52,0,.88-.32,0-.67,0-.35.07-.71.07-.5.25-.73,0,0-.43,0-.85a4.33,4.33,0,0,1,0-.84C261.64,161.31,261.74,161.28,261.6,160.88Z"/><path class="cls-18" d="M260.28,155.33c0,.25,0,.52,0,.78s0,.53,0,.78a7.31,7.31,0,0,0,.13.77,4.35,4.35,0,0,0,.15.77,2.64,2.64,0,0,0,.44.69c.29.36.25.74.61.57.15-.07,0-.2,0-.35a2.7,2.7,0,0,1-.62-.9,4.29,4.29,0,0,1-.16-.77,7.71,7.71,0,0,1-.06-.77c0-.26-.08-.52-.09-.78s.07-.52.08-.78,0-.48.06-.82.08-.53.11-.82.06-.55.07-.83a5.85,5.85,0,0,0,0-.83,1.94,1.94,0,0,0-.27-.77.71.71,0,0,0-.64-.44,1.4,1.4,0,0,0-.19,0,.78.78,0,0,1,.53.54,2.46,2.46,0,0,1,.21.76,6.76,6.76,0,0,1,0,.8c0,.26-.05.53-.08.79s-.06.55-.09.79S260.28,155.15,260.28,155.33Z"/><path class="cls-18" d="M263.75,142.68c0,.41,0,.41,0,.82s.08.41.08.82,0,.41,0,.82,0,.41,0,.82,0,.41,0,.82,0,.41,0,.82,0,.41,0,.82,0,.41,0,.82,0,.41,0,.83,0,.41,0,.82-.06.41-.06.82,0,.41,0,.82,0,.41,0,.83,0,.41,0,.83.06.41.06.83-.2.45-.07.84.28-.19.47-.91c0-.43-.08-.44-.08-.88s.07-.44.07-.87,0-.44,0-.87-.06-.44-.06-.88,0-.44,0-.88,0-.44,0-.88,0-.44,0-.88,0-.44,0-.88.05-.44.05-.88,0-.44,0-.87,0-.44,0-.88,0-.44,0-.88,0-.44,0-.88,0-.44,0-.88,0-.37-.33-.67a1.22,1.22,0,0,0-.69-.34,1.25,1.25,0,0,0-.38,0,1.33,1.33,0,0,1,.72.27A.78.78,0,0,1,263.75,142.68Z"/><path class="cls-18" d="M265.54,148c-.08,0-.16.07-.22.08a.51.51,0,0,1,.41.43,2.5,2.5,0,0,1,.13.65c0,.14,0,.42,0,.79s0,.5,0,.79,0,.52,0,.79,0,.54,0,.8,0,.55-.06.79,0,.58,0,.79a5.84,5.84,0,0,1-.14.78,3.87,3.87,0,0,1-.27.74,3.4,3.4,0,0,1-.39.68,3.7,3.7,0,0,1-.52.6,5.08,5.08,0,0,1-.69.42c-.11.44,0,.45,0,.9s0,.45,0,.9.05.45.05.9,0,.45,0,.9,0,.45,0,.9,0,.45,0,.91-.17.49,0,.9a.2.2,0,0,0,.38,0c.18-.41,0-.44,0-.89s0-.45,0-.9,0-.45,0-.9.07-.45.07-.9-.09-.45-.08-.9,0-.45,0-.9a2.67,2.67,0,0,1,0-.91,5,5,0,0,0,.68-.42,3.83,3.83,0,0,0,.55-.58,3.54,3.54,0,0,0,.42-.68,3.87,3.87,0,0,0,.25-.76,5.91,5.91,0,0,0,.14-.78c0-.21-.05-.49,0-.79s0-.51.05-.79,0-.53,0-.79,0-.54,0-.79,0-.56,0-.79,0-.65,0-.79a2.35,2.35,0,0,0-.07-.76A.57.57,0,0,0,265.54,148Z"/><g class="cls-16"><path class="cls-3" d="M263.41,99.33c.36-.09.12-.22.52-.51a3.71,3.71,0,0,1,.67-.33,4.58,4.58,0,0,1,.69-.28,7,7,0,0,1,.74-.15c.23,0,.48,0,.75-.06l.76,0c.24,0,.49.06.76.07s.49,0,.72,0l.72,0,.72.05c.25,0,.49,0,.72,0l.72,0c.26,0,.5.05.72.07s.51.06.72.08a3.25,3.25,0,0,1,.69.17c.3.11.45.23.45.45s-.2.32-.55.38a5.07,5.07,0,0,1-.73,0c-.23,0-.47,0-.72,0s-.49,0-.73,0-.49-.08-.73-.11l-.73-.09c-.3,0-.55,0-.72-.06s-.45-.06-.67-.07l-.68,0c-.23,0-.46-.05-.68-.05s-.46,0-.68,0-.47,0-.68,0a4.08,4.08,0,0,0-.73.18c-.43.14-1,.12-.65.26s.35,0,.7.05.35.08.71.11.36,0,.72,0l.72.05c.36,0,.36,0,.72,0s.35.09.71.11.36-.05.72,0,.35.1.71.12.36,0,.71,0,.35.06.71.08.36,0,.72,0l.72.05.72,0c.36,0,.36.05.71.07s.36.05.71.08l.72,0,.72,0c.36,0,.36,0,.72,0l.72.06.72.06c.36,0,.36,0,.72.07s.36,0,.72,0l.72.06.72,0,.72,0,.72,0a1.45,1.45,0,0,1,.7.18c.24.11.45.3.36.56a.7.7,0,0,1-.49.42,1.14,1.14,0,0,1-.65.08c-.36,0-.36,0-.72-.07l-.72-.06-.72,0c-.36,0-.36,0-.72,0l-.72-.05c-.36,0-.36,0-.73,0s-.36-.07-.72-.09-.36,0-.72-.07-.36,0-.72,0-.36,0-.73,0-.36,0-.72-.07-.36-.06-.72-.08-.36,0-.73,0l-.72-.06-.72-.06-.72,0c-.36,0-.37,0-.73,0s-.36,0-.73-.07-.36-.05-.73-.08a3.57,3.57,0,0,0-.73,0c-.34,0,.14.06.65.17a6.54,6.54,0,0,0,.66.19l.68.08c.21,0,.44,0,.68,0s.43.11.67.13l.69,0c.22,0,.45,0,.69,0s.47.07.68.08.48,0,.69,0l.69,0c.26,0,.49.06.68.08s.51,0,.67.07c.5.09.43.22.44.39s-.21.31-.54.34a5.89,5.89,0,0,1-.71,0l-.74,0-.74-.07c-.24,0-.48-.07-.74-.09l-.75,0-.75-.07-.75-.08c-.28,0-.54,0-.75,0s-.48-.1-.74-.15-.5,0-.75-.11a5.94,5.94,0,0,1-.71-.26,4.5,4.5,0,0,1-.67-.36,3.53,3.53,0,0,1-.6-.43,2.49,2.49,0,0,0-.68-.11l-.69,0-.69,0c-.35,0-.35,0-.69,0l-.69,0-.69-.06-.69,0-.69-.05c-.35,0-.35-.07-.69-.09s-.45.22-.71,0,.07-.3.09-.59-.22-.38,0-.55.32,0,.67,0,.35,0,.69,0a6.28,6.28,0,0,1,.69.09A1.23,1.23,0,0,0,263.41,99.33Z"/></g><path class="cls-19" d="M260.49,98.19c-.12-.32-.3,0-.67-.23a3.71,3.71,0,0,1-.54-.42,3.11,3.11,0,0,1-.53-.44,3.47,3.47,0,0,1-.36-.59,3.69,3.69,0,0,1-.28-.63,4.77,4.77,0,0,1-.1-.68,5.28,5.28,0,0,1-.07-.69c0-.27,0-.52,0-.76s-.08-.52-.09-.76,0-.52,0-.76,0-.53-.05-.76a6.12,6.12,0,0,1,0-.76,1.36,1.36,0,0,1,.26-.69.73.73,0,0,1,.64-.28.59.59,0,0,1,.58.29,1.73,1.73,0,0,1,.21.67,5,5,0,0,1,0,.7c0,.23-.07.47-.1.7s0,.49-.08.7-.1.53-.1.69,0,.44,0,.66,0,.44.06.66a6.55,6.55,0,0,0,.05.66,3.28,3.28,0,0,0,.21.62,2.2,2.2,0,0,0,.33.59c.25.3.33.79.47.47s0-.36,0-.71,0-.36,0-.71,0-.36,0-.71,0-.36,0-.71,0-.36,0-.72-.06-.36-.06-.72,0-.36,0-.72,0-.36,0-.72,0-.36,0-.72,0-.36,0-.72,0-.36,0-.72,0-.36,0-.72,0-.36,0-.72,0-.36,0-.72,0-.36,0-.72,0-.36,0-.72,0-.36,0-.72,0-.36,0-.72.05-.36.05-.73,0-.36,0-.72,0-.42.28-.67a.87.87,0,0,1,.72-.19,1.12,1.12,0,0,1,.62.26c.29.25.23.26.23.6s.05.35.05.7,0,.35,0,.7,0,.35,0,.69.07.35.07.69,0,.35,0,.69,0,.35,0,.7,0,.35,0,.7,0,.35,0,.7,0,.35,0,.7-.07.35-.07.7.07.35.07.7,0,.35,0,.7,0,.35,0,.7,0,.35,0,.7,0,.35,0,.7-.08.36,0,.69.09-.14.24-.67a4.29,4.29,0,0,0,.22-.72c0-.22,0-.47,0-.75s.07-.47.08-.75-.07-.48-.08-.76,0-.47,0-.68,0-.48,0-.68,0-.49,0-.68a2.45,2.45,0,0,1,.13-.66c.1-.32.26-.29.5-.31a.44.44,0,0,1,.49.32,1.93,1.93,0,0,1,.07.63c0,.12,0,.36,0,.67s0,.42,0,.67,0,.44,0,.67,0,.45,0,.67,0,.46,0,.67,0,.49,0,.67a4.9,4.9,0,0,1-.12.66,3.22,3.22,0,0,1-.22.62,2.87,2.87,0,0,1-.35.56,3.06,3.06,0,0,1-.43.51,3.77,3.77,0,0,1-.53.39,2.21,2.21,0,0,0,0,.76c0,.38,0,.38,0,.76s0,.38,0,.76,0,.38,0,.76,0,.38,0,.76,0,.38,0,.77.22.44,0,.74-.27,0-.57,0-.3.06-.6.06-.42.22-.62,0,0-.37,0-.72a3.66,3.66,0,0,1,0-.71C260.52,98.54,260.61,98.52,260.49,98.19Z"/><path class="cls-20" d="M259.37,93.48c0,.22,0,.44,0,.66s0,.45,0,.66a6.19,6.19,0,0,0,.11.65,3.68,3.68,0,0,0,.13.65,2.24,2.24,0,0,0,.37.58c.25.3.21.63.52.48.13-.06,0-.17,0-.3a2.29,2.29,0,0,1-.53-.76,3.64,3.64,0,0,1-.14-.65,6.53,6.53,0,0,1-.05-.66c0-.22-.07-.44-.07-.66s.06-.44.07-.66,0-.4,0-.69.07-.45.09-.69.05-.47.06-.7a5,5,0,0,0,0-.7,1.64,1.64,0,0,0-.23-.65.61.61,0,0,0-.55-.37l-.16,0a.66.66,0,0,1,.45.46,2.08,2.08,0,0,1,.18.64,5.7,5.7,0,0,1,0,.68c0,.22,0,.45-.07.67s-.05.47-.08.67S259.38,93.33,259.37,93.48Z"/><path class="cls-20" d="M262.32,82.77c0,.35,0,.35,0,.7s.07.35.07.7,0,.35,0,.69,0,.35,0,.69,0,.35,0,.69,0,.35,0,.7,0,.35,0,.7,0,.35,0,.7,0,.35,0,.7,0,.35,0,.7-.05.35-.05.7,0,.35,0,.7,0,.35,0,.7,0,.35,0,.7.05.35.05.7-.17.38-.06.71.24-.16.39-.77c0-.37-.07-.37-.07-.74s.06-.37.06-.74,0-.37,0-.74,0-.37,0-.74,0-.37,0-.74,0-.37,0-.74,0-.37,0-.74,0-.37,0-.74,0-.37,0-.74,0-.37,0-.74,0-.37,0-.74,0-.37,0-.75,0-.37,0-.75,0-.37,0-.75,0-.31-.28-.56a1,1,0,0,0-.59-.29,1.06,1.06,0,0,0-.32,0,1.13,1.13,0,0,1,.61.23C262.38,82.43,262.33,82.44,262.32,82.77Z"/><path class="cls-20" d="M263.83,87.25c-.06,0-.13.06-.19.06a.43.43,0,0,1,.35.37,2.12,2.12,0,0,1,.11.55c0,.12,0,.36,0,.67s0,.43,0,.67,0,.44,0,.67,0,.45,0,.67,0,.46,0,.67,0,.49,0,.67a4.94,4.94,0,0,1-.12.66,3.28,3.28,0,0,1-.23.62,2.88,2.88,0,0,1-.33.58,3.14,3.14,0,0,1-.44.51,4.3,4.3,0,0,1-.58.36c-.09.37,0,.38,0,.76s0,.38,0,.76,0,.38,0,.76,0,.38,0,.76,0,.38,0,.76,0,.38,0,.77-.15.41,0,.77a.17.17,0,0,0,.32,0c.15-.35,0-.38,0-.76s0-.38,0-.76,0-.38,0-.76.06-.38.06-.76-.07-.38-.07-.76,0-.38,0-.77a2.26,2.26,0,0,1,0-.77,4.22,4.22,0,0,0,.57-.36,3.24,3.24,0,0,0,.46-.5,3,3,0,0,0,.35-.58,3.28,3.28,0,0,0,.21-.64,5,5,0,0,0,.12-.66c0-.18,0-.41,0-.67s0-.43,0-.67,0-.45,0-.67,0-.46,0-.67,0-.47,0-.67,0-.55,0-.67a2,2,0,0,0-.06-.64A.48.48,0,0,0,263.83,87.25Z"/><path class="cls-21" d="M237.26,304.42s6.46-2.52,6.66-4.08a1.33,1.33,0,0,0-1.36-1.57s5.09-1,9.36,6.88S237.26,304.42,237.26,304.42Z"/><path class="cls-22" d="M193.54,280.81s8.67-3.38,8.94-5.47a1.78,1.78,0,0,0-1.83-2.1s6.82-1.29,12.55,9.22S193.54,280.81,193.54,280.81Z"/><path class="cls-23" d="M172.55,269.34s6.46-2.52,6.66-4.08a1.33,1.33,0,0,0-1.36-1.57s5.09-1,9.36,6.88S172.55,269.34,172.55,269.34Z"/><path class="cls-24" d="M233.2,274.58s6.46-2.52,6.66-4.08a1.33,1.33,0,0,0-1.36-1.57s5.09-1,9.36,6.88S233.2,274.58,233.2,274.58Z"/><path class="cls-25" d="M260.46,284.28s7.21-2.81,7.43-4.55a1.48,1.48,0,0,0-1.52-1.75s5.68-1.07,10.44,7.68S260.46,284.28,260.46,284.28Z"/><path class="cls-26" d="M226.53,298.69a13.4,13.4,0,0,1,6.81,1.77c3.69,2.24,7.66,7.78,7.73,7.87-.22,0-7-1.06-10.61-3.29a13.4,13.4,0,0,1-5.13-6.28A9.28,9.28,0,0,1,226.53,298.69Z"/><g class="cls-27"><path class="cls-1" d="M241.07,308.33h0a1.16,1.16,0,0,1-1.37,1.14c-2.2-.42-6.55-1.41-9.23-3.05a13.13,13.13,0,0,1-4.69-5.29,4.19,4.19,0,0,1-.44-1.87v-.5a13.4,13.4,0,0,0,5.13,6.28C234.12,307.27,240.85,308.3,241.07,308.33Z"/><g class="cls-28"><g class="cls-27"><path class="cls-1" d="M241.07,308.33h0a1.16,1.16,0,0,1-1.37,1.14c-2.2-.42-6.55-1.41-9.23-3.05a13,13,0,0,1-4.54-5,5.08,5.08,0,0,1-.59-2.37v-.28a13.4,13.4,0,0,0,5.13,6.28c3.65,2.23,10.39,3.26,10.61,3.29"/></g></g></g><path class="cls-29" d="M232,302.82a.16.16,0,0,1-.16-.16V286.5a.16.16,0,0,1,.32,0v16.16A.16.16,0,0,1,232,302.82Z"/><path class="cls-30" d="M232.47,286.5s6.1,8.65,5.43,15.25l-5.43-3.27s.92-1,0-3.48A16,16,0,0,0,232.47,286.5Z"/><polygon class="cls-9" points="31.07 206.63 31.07 230.38 134.96 291.25 134.77 266.76 31.07 206.63"/><path class="cls-11" d="M141.39,165.64c2.06.55-4.06.74-4.06.74a22.43,22.43,0,0,1-8.17-6.42c-3.25-4.33.56-2.39.56-2.39A22.11,22.11,0,0,0,141.39,165.64Z"/><polygon class="cls-12" points="134.88 146.65 30.99 207.02 134.7 267.15 238.68 206.91 134.88 146.65"/><path class="cls-31" d="M118.83,156s-2.75,6,1.23,10.4,16.37,9.86,23.22,10.25,15.92,1.72,20.12,9.46,5.31,15.53,6,20.81,3.24,7.27,2.84,11.47-6,7.52-6.2,13.93,2.14,15.45,2.14,15.45l14.17-8.21L187.75,215l-13.4-36.22L147,163l-22.21-10.51Z"/><path class="cls-13" d="M122.1,154.07s-1,8.59,2.29,10.79,9.38,6,15.44,6.48,15.14,1,22.47,7.43a34.84,34.84,0,0,1,10.86,20.34c.76,5,1.77,14.08,3.79,15.88s2.25,4.13-1.15,8.52-6.68,7.67-6.68,13.61,2,8.92,2,8.92L189.5,220.9l-10.17-44.78L146,161.49l-21.21-9Z"/><path class="cls-32" d="M124.83,152.49s-2.18,7.79,3.19,12.39,24.56.47,37.68,15.34,7.73,23.13,13.94,32.63-.31,9.5-4.69,16.52S171.13,246,171.13,246l67.54-39.13-103.8-60.26Z"/><path class="cls-13" d="M174.35,175.57c0,2-.64,4.16-3.87,2.76s-3.81-7.09-7.51-7.35-6.47-3.35-4.76-4.42,10.47,3,11.08,4.45S174.35,175.57,174.35,175.57Z"/><path class="cls-13" d="M187.75,215a12.54,12.54,0,0,1-4.67-5.5C182,206.92,178,199,178.79,198s.3-5.49,1.15-6.24.65,4.19,2.26,8.83,1.5,7.33,3.61,7.83S187.75,215,187.75,215Z"/><path class="cls-13" d="M147,163c-3.32.45-12.49-3.14-12.2-5.14s.9-.61,4.91-2.6,3.67,5.79,6.29,6.23S147,163,147,163Z"/><path class="cls-13" d="M141.39,165.64c2.06.55-4.06.74-4.06.74a22.43,22.43,0,0,1-8.17-6.42c-3.25-4.33.56-2.39.56-2.39A22.11,22.11,0,0,0,141.39,165.64Z"/><path class="cls-13" d="M187.09,223.89c.45,1.32,0,2.39-1.18,4s-4.63,7.54-5.27,8.18c-2,2.05-3.94.47-4.72.22s2.4-1.93,4.73-4.63,3.17-3.4,3.61-5.11C184.64,225,186.64,222.57,187.09,223.89Z"/><path class="cls-6" d="M199.81,201.94c1.21-.23,2.27-.47,2.93-.64a.65.65,0,0,0,.55.25l.14,0-.65,5s5.46-3.3,1.3-5.54a14.33,14.33,0,0,1,3.75,2,1.75,1.75,0,0,1,1-.45,3.29,3.29,0,0,0-.78.62,13,13,0,0,1,2.12,2.4s0-.07,0-.19a4.17,4.17,0,0,0-1.68-4.26c-1.25-1-3.43-.82-4.18-.71a3.54,3.54,0,0,0,2-2.17c.58-2-1.83-3.39-1.83-3.39a6.39,6.39,0,0,1,0,3.07,3,3,0,0,0,1.24,0s-.15.21-1.23.28l-.88,2a.68.68,0,0,0-.5-.2.76.76,0,0,0-.36.09.41.41,0,0,0-.25.34.36.36,0,0,0,.13.26,45.53,45.53,0,0,1-6.53.86c-3.59.18-10.64-.55-11.46-.18a.62.62,0,0,0-.42.69,1,1,0,0,0,.19.65h7.1A74.33,74.33,0,0,0,199.81,201.94Z"/><path class="cls-33" d="M183.24,183.18l8.08.92S186.39,178.31,183.24,183.18Z"/><path class="cls-34" d="M182.8,182.85s-.44-3.39,2.07-5a8.25,8.25,0,0,1,5.16-1.15,18,18,0,0,0-3.38,2.12,3.83,3.83,0,0,1-.87-.78,1.54,1.54,0,0,0,.63,1s-2.86,2.75-2.93,4S182.8,182.85,182.8,182.85Z"/><polygon class="cls-33" points="174.9 182.38 183.2 183.53 179.4 180.88 174.9 182.38"/><path class="cls-34" d="M183.2,183.53a4.56,4.56,0,0,0-3.52-3,5.25,5.25,0,0,0-4.79,1.83,12.62,12.62,0,0,1,4.33,0,2.12,2.12,0,0,0,0-1.24s.29.15.39,1.23Z"/><path class="cls-34" d="M183.17,183.34l8.15.75S185.75,179,183.17,183.34Z"/><path class="cls-35" d="M184.3,202.25c-.53-.82.5-7.87.25-11.46a33.45,33.45,0,0,0-1.35-7c0-.26,0-.37.11-.41-.16,0-.48-.09-.39.41a33.46,33.46,0,0,1,1.35,7c.25,3.59-.78,10.64-.25,11.46a1,1,0,0,0,1,.42A.9.9,0,0,1,184.3,202.25Z"/><path class="cls-36" d="M185.92,195.38a53.41,53.41,0,0,0-1.09-8.33c-.54-2-1.15-3.65-1.15-3.65a.52.52,0,0,0-.36,0l.08,0s.62,1.61,1.15,3.65a53.42,53.42,0,0,1,1.09,8.33c0,1.31,0,7.1,0,7.1a2,2,0,0,1-.64.19,1.84,1.84,0,0,0,.92-.19S185.92,196.69,185.92,195.38Z"/><path class="cls-35" d="M185.64,195.38a53.42,53.42,0,0,0-1.09-8.33c-.54-2-1.15-3.65-1.15-3.65l-.08,0c-.09,0-.16.16-.11.41a33.45,33.45,0,0,1,1.35,7c.25,3.59-.78,10.64-.25,11.46a.9.9,0,0,0,.7.42,2,2,0,0,0,.64-.19S185.64,196.69,185.64,195.38Z"/><path class="cls-36" d="M183.11,183.32a.6.6,0,0,1,.13.36.61.61,0,0,1-.61.61.61.61,0,0,1-.41-.16.6.6,0,0,0,.48.25.61.61,0,0,0,.61-.61A.61.61,0,0,0,183.11,183.32Z"/><path class="cls-35" d="M183.24,183.68a.6.6,0,0,0-.13-.36.61.61,0,0,0-.41-.16.61.61,0,0,0-.61.61.6.6,0,0,0,.13.36.61.61,0,0,0,.41.16A.61.61,0,0,0,183.24,183.68Z"/><path class="cls-36" d="M184.08,183.13a.59.59,0,0,1,.13.36.61.61,0,0,1-.61.61.6.6,0,0,1-.4-.16.59.59,0,0,0,.48.25.61.61,0,0,0,.61-.61A.6.6,0,0,0,184.08,183.13Z"/><path class="cls-35" d="M184.21,183.49a.59.59,0,0,0-.13-.36.6.6,0,0,0-.4-.16.61.61,0,0,0-.61.61.59.59,0,0,0,.13.36.6.6,0,0,0,.4.16A.61.61,0,0,0,184.21,183.49Z"/><path class="cls-33" d="M182.8,182.85s-.82-2.92.95-4.46a7.31,7.31,0,0,1,6.28-1.65S183.85,176.06,182.8,182.85Z"/><g class="cls-37"><path class="cls-38" d="M183.19,185c.39.05.69-.22,1.09-.25h0a.84.84,0,0,1-.52.26,1.08,1.08,0,0,1-.58,0Z"/><path class="cls-38" d="M183.32,185.6c.39.05.69-.22,1.09-.25h0a.84.84,0,0,1-.52.26,1.09,1.09,0,0,1-.58,0Z"/><path class="cls-38" d="M183.54,186.18c.39.05.69-.22,1.09-.25h0a.84.84,0,0,1-.52.26,1.09,1.09,0,0,1-.58,0Z"/><path class="cls-38" d="M183.56,186.76c.45.07.81-.24,1.26-.28h0a1.06,1.06,0,0,1-.6.29,1.25,1.25,0,0,1-.67,0Z"/><path class="cls-38" d="M183.78,187.54c.45.07.81-.24,1.26-.28h0a1.06,1.06,0,0,1-.6.29,1.25,1.25,0,0,1-.67,0Z"/><path class="cls-38" d="M183.92,188.46c.45.07.81-.24,1.26-.28h0a1.06,1.06,0,0,1-.6.29,1.26,1.26,0,0,1-.67,0Z"/><path class="cls-38" d="M184.09,189.5c.45.08.81-.21,1.27-.24h0a1.06,1.06,0,0,1-.61.27,1.25,1.25,0,0,1-.67,0Z"/><path class="cls-38" d="M184.18,190.32c.44.09.82-.2,1.27-.22h0a1.06,1.06,0,0,1-.61.26,1.26,1.26,0,0,1-.67,0Z"/><path class="cls-38" d="M184.26,191.14c.44.09.82-.2,1.27-.22h0a1.06,1.06,0,0,1-.61.26,1.26,1.26,0,0,1-.67,0Z"/><path class="cls-38" d="M184.29,192.29c.5.1.94-.21,1.44-.25h0a1.31,1.31,0,0,1-.7.29,1.43,1.43,0,0,1-.75,0Z"/><path class="cls-38" d="M184.18,193.41a1.75,1.75,0,0,0,.82,0,4.46,4.46,0,0,1,.81-.19h0a1.59,1.59,0,0,1-.8.29,1.62,1.62,0,0,1-.85-.06Z"/><path class="cls-38" d="M184.2,194.5a2,2,0,0,0,.91,0,6.23,6.23,0,0,1,.91-.21h0a1.9,1.9,0,0,1-.89.32,1.81,1.81,0,0,1-.94-.06Z"/><path class="cls-38" d="M184.1,195.94a2,2,0,0,0,.95,0,7,7,0,0,1,.94-.22h0a2,2,0,0,1-.92.33,1.88,1.88,0,0,1-1-.06Z"/><path class="cls-38" d="M184,197.11a2.19,2.19,0,0,0,1,.09,9.38,9.38,0,0,1,1-.11h0a2.3,2.3,0,0,1-1,.22,2,2,0,0,1-1-.2Z"/><path class="cls-38" d="M183.89,198.77a2.41,2.41,0,0,0,1.14.11c.38-.05.76-.11,1.16-.13h0A2.69,2.69,0,0,1,185,199a2.27,2.27,0,0,1-1.15-.21Z"/><path class="cls-38" d="M183.67,200.45a2.65,2.65,0,0,0,1.25.12c.42-.06.83-.11,1.26-.14h0a3.1,3.1,0,0,1-1.26.25,2.51,2.51,0,0,1-1.26-.23Z"/></g><path class="cls-6" d="M140.45,160.51c.94-.18,1.76-.37,2.27-.49a.5.5,0,0,0,.42.19l.11,0-.51,3.88s4.23-2.56,1-4.29a11.1,11.1,0,0,1,2.9,1.58,1.36,1.36,0,0,1,.75-.35,2.55,2.55,0,0,0-.61.48,10.07,10.07,0,0,1,1.64,1.86s0-.05,0-.15a3.23,3.23,0,0,0-1.3-3.3,4.62,4.62,0,0,0-3.24-.55,2.74,2.74,0,0,0,1.57-1.68c.45-1.57-1.41-2.63-1.41-2.63a5,5,0,0,1,0,2.38,2.29,2.29,0,0,0,1,0s-.11.16-1,.21l-.68,1.53A.53.53,0,0,0,143,159a.59.59,0,0,0-.28.07.32.32,0,0,0-.2.26.28.28,0,0,0,.1.2,35.26,35.26,0,0,1-5.06.66c-2.78.14-8.24-.43-8.88-.14a.48.48,0,0,0-.33.54.78.78,0,0,0,.15.5H134A57.57,57.57,0,0,0,140.45,160.51Z"/><path class="cls-33" d="M127.62,146l6.26.71S130.06,142.2,127.62,146Z"/><path class="cls-34" d="M127.27,145.72s-.34-2.63,1.6-3.84a6.39,6.39,0,0,1,4-.89,14,14,0,0,0-2.62,1.64,3,3,0,0,1-.68-.61,1.2,1.2,0,0,0,.49.75s-2.21,2.13-2.27,3.08S127.27,145.72,127.27,145.72Z"/><polygon class="cls-33" points="121.15 145.36 127.59 146.25 124.64 144.19 121.15 145.36"/><path class="cls-34" d="M127.59,146.25a3.54,3.54,0,0,0-2.73-2.31,4.07,4.07,0,0,0-3.71,1.41,9.77,9.77,0,0,1,3.36,0,1.64,1.64,0,0,0,0-1s.23.11.3,1Z"/><path class="cls-34" d="M127.56,146.1l6.31.58S129.56,142.72,127.56,146.1Z"/><path class="cls-35" d="M128.44,160.74c-.41-.63.39-6.09.19-8.88a25.91,25.91,0,0,0-1-5.42c0-.2,0-.29.09-.32-.12,0-.37-.07-.3.32a25.92,25.92,0,0,1,1,5.42c.19,2.78-.6,8.24-.19,8.88a.74.74,0,0,0,.76.33A.7.7,0,0,1,128.44,160.74Z"/><path class="cls-36" d="M129.69,155.42a41.37,41.37,0,0,0-.84-6.45c-.42-1.57-.89-2.82-.89-2.82a.4.4,0,0,0-.28,0l.07,0s.48,1.25.89,2.82a41.37,41.37,0,0,1,.84,6.45c0,1,0,5.5,0,5.5a1.55,1.55,0,0,1-.5.15,1.43,1.43,0,0,0,.71-.15S129.69,156.43,129.69,155.42Z"/><path class="cls-35" d="M129.47,155.42a41.37,41.37,0,0,0-.84-6.45c-.42-1.57-.89-2.82-.89-2.82l-.07,0c-.07,0-.12.12-.09.32a25.91,25.91,0,0,1,1,5.42c.19,2.78-.6,8.24-.19,8.88a.7.7,0,0,0,.54.33,1.55,1.55,0,0,0,.5-.15S129.47,156.43,129.47,155.42Z"/><path class="cls-36" d="M127.51,146.08a.46.46,0,0,1,.1.28.47.47,0,0,1-.47.47.47.47,0,0,1-.32-.13.47.47,0,0,0,.37.2.47.47,0,0,0,.47-.47A.47.47,0,0,0,127.51,146.08Z"/><path class="cls-35" d="M127.62,146.36a.46.46,0,0,0-.1-.28.47.47,0,0,0-.32-.13.47.47,0,0,0-.47.47.46.46,0,0,0,.1.28.47.47,0,0,0,.32.13A.47.47,0,0,0,127.62,146.36Z"/><path class="cls-36" d="M128.27,145.94a.46.46,0,0,1,.1.28.47.47,0,0,1-.47.47.46.46,0,0,1-.31-.12.46.46,0,0,0,.37.19.47.47,0,0,0,.47-.47A.46.46,0,0,0,128.27,145.94Z"/><path class="cls-35" d="M128.37,146.21a.46.46,0,0,0-.1-.28.46.46,0,0,0-.31-.12.47.47,0,0,0-.47.47.46.46,0,0,0,.1.28.46.46,0,0,0,.31.12A.47.47,0,0,0,128.37,146.21Z"/><path class="cls-33" d="M127.27,145.72s-.63-2.26.73-3.45a5.66,5.66,0,0,1,4.86-1.28A5.13,5.13,0,0,0,127.27,145.72Z"/><g class="cls-39"><path class="cls-38" d="M127.58,147.4c.3,0,.54-.17.85-.19h0a.68.68,0,0,1-.4.2.84.84,0,0,1-.45,0Z"/><path class="cls-38" d="M127.68,147.85c.3,0,.54-.17.85-.19h0a.68.68,0,0,1-.4.2.84.84,0,0,1-.45,0Z"/><path class="cls-38" d="M127.85,148.3c.3,0,.54-.17.85-.19h0a.68.68,0,0,1-.4.2.84.84,0,0,1-.45,0Z"/><path class="cls-38" d="M127.86,148.75c.35.05.62-.18,1-.22h0a.86.86,0,0,1-.47.22,1,1,0,0,1-.52,0Z"/><path class="cls-38" d="M128,149.36c.35.05.63-.18,1-.22h0a.86.86,0,0,1-.47.22,1,1,0,0,1-.52,0Z"/><path class="cls-38" d="M128.14,150.06c.35.05.63-.18,1-.22h0a.86.86,0,0,1-.47.22,1,1,0,0,1-.52,0Z"/><path class="cls-38" d="M128.27,150.87c.35.06.63-.16,1-.18h0a.86.86,0,0,1-.47.21,1,1,0,0,1-.52,0Z"/><path class="cls-38" d="M128.35,151.5c.34.07.63-.15,1-.17h0a.85.85,0,0,1-.48.2,1,1,0,0,1-.52,0Z"/><path class="cls-38" d="M128.41,152.14c.34.07.63-.15,1-.17h0a.86.86,0,0,1-.48.2,1,1,0,0,1-.52,0Z"/><path class="cls-38" d="M128.43,153c.39.08.72-.16,1.12-.2h0a1.05,1.05,0,0,1-.54.22,1.11,1.11,0,0,1-.58,0Z"/><path class="cls-38" d="M128.34,153.89c.43.1.83-.14,1.26-.18h0a1.28,1.28,0,0,1-.62.22,1.25,1.25,0,0,1-.65,0Z"/><path class="cls-38" d="M128.36,154.74c.48.12.93-.14,1.41-.2h0a1.53,1.53,0,0,1-.69.25,1.4,1.4,0,0,1-.73,0Z"/><path class="cls-38" d="M128.28,155.86c.5.12,1-.15,1.46-.21h0a1.61,1.61,0,0,1-.71.25,1.45,1.45,0,0,1-.76,0Z"/><path class="cls-38" d="M128.17,156.76a1.7,1.7,0,0,0,.8.07c.27,0,.53-.08.81-.09h0a1.84,1.84,0,0,1-.81.17,1.59,1.59,0,0,1-.81-.15Z"/><path class="cls-38" d="M128.12,158.05a1.86,1.86,0,0,0,.88.08c.3,0,.59-.09.9-.1h0a2.15,2.15,0,0,1-.89.18,1.76,1.76,0,0,1-.89-.17Z"/><path class="cls-38" d="M128,159.35a2.06,2.06,0,0,0,1,.1c.33,0,.64-.09,1-.11h0a2.48,2.48,0,0,1-1,.19,1.94,1.94,0,0,1-1-.18Z"/></g><path class="cls-6" d="M206.45,212.65c1.21-.23,2.27-.47,2.93-.64a.65.65,0,0,0,.55.25l.14,0-.65,5s5.46-3.3,1.3-5.54a14.33,14.33,0,0,1,3.75,2,1.75,1.75,0,0,1,1-.45,3.29,3.29,0,0,0-.78.62,13,13,0,0,1,2.12,2.4s0-.07,0-.19a4.17,4.17,0,0,0-1.68-4.26c-1.25-1-3.43-.82-4.18-.71a3.54,3.54,0,0,0,2-2.17c.58-2-1.83-3.39-1.83-3.39a6.39,6.39,0,0,1,0,3.07,3,3,0,0,0,1.24,0s-.15.21-1.23.28l-.88,2a.68.68,0,0,0-.5-.2.76.76,0,0,0-.36.09.41.41,0,0,0-.25.34.36.36,0,0,0,.13.26,45.53,45.53,0,0,1-6.53.86c-3.59.18-10.64-.55-11.46-.18a.62.62,0,0,0-.42.69,1,1,0,0,0,.19.65h7.1A74.33,74.33,0,0,0,206.45,212.65Z"/><path class="cls-33" d="M189.88,193.89l8.08.92S193,189,189.88,193.89Z"/><path class="cls-34" d="M189.44,193.56s-.44-3.39,2.07-5a8.25,8.25,0,0,1,5.16-1.15,18,18,0,0,0-3.38,2.12,3.83,3.83,0,0,1-.87-.78,1.54,1.54,0,0,0,.63,1s-2.86,2.75-2.93,4S189.44,193.56,189.44,193.56Z"/><polygon class="cls-33" points="181.54 193.09 189.84 194.24 186.04 191.59 181.54 193.09"/><path class="cls-34" d="M189.84,194.24a4.56,4.56,0,0,0-3.52-3,5.25,5.25,0,0,0-4.79,1.83,12.62,12.62,0,0,1,4.33,0,2.12,2.12,0,0,0,0-1.24s.29.15.39,1.23Z"/><path class="cls-34" d="M189.81,194.05l8.15.75S192.39,189.69,189.81,194.05Z"/><path class="cls-35" d="M190.94,213c-.53-.82.5-7.87.25-11.46a33.45,33.45,0,0,0-1.35-7c0-.26,0-.37.11-.41-.16,0-.48-.09-.39.41a33.46,33.46,0,0,1,1.35,7c.25,3.59-.78,10.64-.25,11.46a1,1,0,0,0,1,.42A.9.9,0,0,1,190.94,213Z"/><path class="cls-36" d="M192.56,206.09a53.41,53.41,0,0,0-1.09-8.33c-.54-2-1.15-3.65-1.15-3.65a.52.52,0,0,0-.36,0l.08,0s.62,1.61,1.15,3.65a53.42,53.42,0,0,1,1.09,8.33c0,1.31,0,7.1,0,7.1a2,2,0,0,1-.64.19,1.84,1.84,0,0,0,.92-.19S192.56,207.39,192.56,206.09Z"/><path class="cls-35" d="M192.28,206.09a53.42,53.42,0,0,0-1.09-8.33c-.54-2-1.15-3.65-1.15-3.65l-.08,0c-.09,0-.16.16-.11.41a33.45,33.45,0,0,1,1.35,7c.25,3.59-.78,10.64-.25,11.46a.9.9,0,0,0,.7.42,2,2,0,0,0,.64-.19S192.28,207.39,192.28,206.09Z"/><path class="cls-36" d="M189.75,194a.6.6,0,0,1,.13.36.61.61,0,0,1-.61.61.61.61,0,0,1-.41-.16.6.6,0,0,0,.48.25.61.61,0,0,0,.61-.61A.61.61,0,0,0,189.75,194Z"/><path class="cls-35" d="M189.88,194.39a.6.6,0,0,0-.13-.36.61.61,0,0,0-.41-.16.61.61,0,0,0-.61.61.6.6,0,0,0,.13.36.61.61,0,0,0,.41.16A.61.61,0,0,0,189.88,194.39Z"/><path class="cls-36" d="M190.72,193.84a.59.59,0,0,1,.13.36.61.61,0,0,1-.61.61.6.6,0,0,1-.4-.16.59.59,0,0,0,.48.25.61.61,0,0,0,.61-.61A.6.6,0,0,0,190.72,193.84Z"/><path class="cls-35" d="M190.85,194.2a.59.59,0,0,0-.13-.36.6.6,0,0,0-.4-.16.61.61,0,0,0-.61.61.59.59,0,0,0,.13.36.6.6,0,0,0,.4.16A.61.61,0,0,0,190.85,194.2Z"/><path class="cls-33" d="M189.44,193.56s-.82-2.92.95-4.46a7.31,7.31,0,0,1,6.28-1.65S190.49,186.76,189.44,193.56Z"/><g class="cls-40"><path class="cls-38" d="M189.83,195.73c.39.05.69-.22,1.09-.25h0a.84.84,0,0,1-.52.26,1.09,1.09,0,0,1-.58,0Z"/><path class="cls-38" d="M190,196.31c.39.05.69-.22,1.09-.25h0a.84.84,0,0,1-.52.26,1.08,1.08,0,0,1-.58,0Z"/><path class="cls-38" d="M190.18,196.89c.39.05.69-.22,1.09-.25h0a.84.84,0,0,1-.52.26,1.08,1.08,0,0,1-.58,0Z"/><path class="cls-38" d="M190.2,197.47c.45.07.81-.24,1.26-.28h0a1.06,1.06,0,0,1-.6.29,1.26,1.26,0,0,1-.67,0Z"/><path class="cls-38" d="M190.43,198.25c.45.07.81-.24,1.26-.28h0a1.06,1.06,0,0,1-.6.29,1.25,1.25,0,0,1-.67,0Z"/><path class="cls-38" d="M190.57,199.17c.45.07.81-.24,1.26-.28h0a1.06,1.06,0,0,1-.6.29,1.25,1.25,0,0,1-.67,0Z"/><path class="cls-38" d="M190.73,200.21c.45.08.81-.21,1.27-.24h0a1.06,1.06,0,0,1-.61.27,1.25,1.25,0,0,1-.67,0Z"/><path class="cls-38" d="M190.82,201c.44.09.82-.2,1.27-.22h0a1.06,1.06,0,0,1-.61.26,1.25,1.25,0,0,1-.67,0Z"/><path class="cls-38" d="M190.9,201.85c.44.09.82-.2,1.27-.22h0a1.06,1.06,0,0,1-.61.26,1.26,1.26,0,0,1-.67,0Z"/><path class="cls-38" d="M190.93,203c.5.1.94-.21,1.44-.25h0a1.31,1.31,0,0,1-.7.29,1.43,1.43,0,0,1-.75,0Z"/><path class="cls-38" d="M190.82,204.12a1.75,1.75,0,0,0,.82,0,4.46,4.46,0,0,1,.81-.19h0a1.59,1.59,0,0,1-.8.29,1.62,1.62,0,0,1-.85-.06Z"/><path class="cls-38" d="M190.84,205.21a2,2,0,0,0,.91,0,6.25,6.25,0,0,1,.91-.21h0a1.9,1.9,0,0,1-.89.32,1.81,1.81,0,0,1-.94-.06Z"/><path class="cls-38" d="M190.74,206.65a2,2,0,0,0,.95,0,7,7,0,0,1,.94-.22h0a2,2,0,0,1-.92.33,1.87,1.87,0,0,1-1-.06Z"/><path class="cls-38" d="M190.6,207.82a2.19,2.19,0,0,0,1,.09,9.39,9.39,0,0,1,1-.11h0a2.3,2.3,0,0,1-1,.22,2,2,0,0,1-1-.2Z"/><path class="cls-38" d="M190.53,209.48a2.41,2.41,0,0,0,1.14.11c.38-.05.76-.11,1.16-.13h0a2.69,2.69,0,0,1-1.15.24,2.27,2.27,0,0,1-1.15-.21Z"/><path class="cls-38" d="M190.31,211.16a2.65,2.65,0,0,0,1.25.12c.42-.06.83-.11,1.26-.14h0a3.1,3.1,0,0,1-1.26.25,2.51,2.51,0,0,1-1.26-.23Z"/></g><path class="cls-6" d="M199.37,218.77c1.32-.25,2.47-.51,3.19-.69a.71.71,0,0,0,.59.27l.15,0-.71,5.46s6-3.6,1.42-6c1.43.28,4.08,2.23,4.08,2.23a1.91,1.91,0,0,1,1.05-.49,3.59,3.59,0,0,0-.85.68,14.17,14.17,0,0,1,2.31,2.62s0-.08,0-.21a4.55,4.55,0,0,0-1.83-4.64c-1.37-1.11-3.73-.9-4.56-.78a3.86,3.86,0,0,0,2.21-2.36c.64-2.2-2-3.7-2-3.7a7,7,0,0,1,0,3.35,3.22,3.22,0,0,0,1.35,0s-.16.23-1.34.3l-1,2.15a.75.75,0,0,0-.55-.22.83.83,0,0,0-.39.1.45.45,0,0,0-.28.37.39.39,0,0,0,.14.28,49.63,49.63,0,0,1-7.12.94c-3.91.19-11.6-.6-12.49-.19a.67.67,0,0,0-.46.75,1.1,1.1,0,0,0,.21.71h7.74A81,81,0,0,0,199.37,218.77Z"/><path class="cls-33" d="M181.31,198.31l8.81,1S184.75,193,181.31,198.31Z"/><path class="cls-34" d="M180.83,198s-.48-3.7,2.25-5.4a9,9,0,0,1,5.62-1.25,19.64,19.64,0,0,0-3.69,2.31,4.18,4.18,0,0,1-1-.85,1.68,1.68,0,0,0,.69,1.05s-3.11,3-3.19,4.34S180.83,198,180.83,198Z"/><polygon class="cls-33" points="172.22 197.45 181.27 198.7 177.13 195.81 172.22 197.45"/><path class="cls-34" d="M181.27,198.7a5,5,0,0,0-3.84-3.24,5.72,5.72,0,0,0-5.22,2,13.75,13.75,0,0,1,4.72,0,2.31,2.31,0,0,0,0-1.35s.32.16.42,1.34Z"/><path class="cls-34" d="M181.23,198.49l8.89.82S184,193.74,181.23,198.49Z"/><path class="cls-35" d="M182.47,219.1c-.58-.89.54-8.58.27-12.49a36.46,36.46,0,0,0-1.47-7.63c-.05-.28,0-.4.12-.45-.17-.05-.52-.09-.42.45a36.48,36.48,0,0,1,1.47,7.63c.27,3.91-.85,11.6-.27,12.49a1,1,0,0,0,1.06.46A1,1,0,0,1,182.47,219.1Z"/><path class="cls-36" d="M184.23,211.61a58.22,58.22,0,0,0-1.19-9.07c-.58-2.22-1.26-4-1.26-4a.57.57,0,0,0-.39,0l.09,0s.67,1.76,1.26,4a58.23,58.23,0,0,1,1.19,9.07c0,1.43,0,7.74,0,7.74a2.19,2.19,0,0,1-.7.21,2,2,0,0,0,1-.21S184.23,213,184.23,211.61Z"/><path class="cls-35" d="M183.93,211.61a58.23,58.23,0,0,0-1.19-9.07c-.58-2.22-1.26-4-1.26-4l-.09,0c-.1,0-.17.17-.12.45a36.46,36.46,0,0,1,1.47,7.63c.27,3.91-.85,11.6-.27,12.49a1,1,0,0,0,.76.46,2.19,2.19,0,0,0,.7-.21S183.93,213,183.93,211.61Z"/><path class="cls-36" d="M181.17,198.47a.65.65,0,0,1,.14.39.67.67,0,0,1-.67.67.66.66,0,0,1-.44-.18.66.66,0,0,0,.53.28.67.67,0,0,0,.67-.67A.66.66,0,0,0,181.17,198.47Z"/><path class="cls-35" d="M181.31,198.86a.65.65,0,0,0-.14-.39.66.66,0,0,0-.44-.18.67.67,0,0,0-.67.67.65.65,0,0,0,.14.39.66.66,0,0,0,.44.18A.67.67,0,0,0,181.31,198.86Z"/><path class="cls-36" d="M182.23,198.26a.64.64,0,0,1,.14.39.66.66,0,0,1-.66.66.65.65,0,0,1-.44-.17.65.65,0,0,0,.52.27.66.66,0,0,0,.66-.66A.65.65,0,0,0,182.23,198.26Z"/><path class="cls-35" d="M182.37,198.65a.64.64,0,0,0-.14-.39.65.65,0,0,0-.44-.17.66.66,0,0,0-.66.66.65.65,0,0,0,.14.39.65.65,0,0,0,.44.17A.66.66,0,0,0,182.37,198.65Z"/><path class="cls-33" d="M180.83,198s-.89-3.18,1-4.86a8,8,0,0,1,6.84-1.8S182,190.55,180.83,198Z"/><g class="cls-41"><path class="cls-38" d="M181.26,200.32a1.34,1.34,0,0,0,.6-.1,1.73,1.73,0,0,1,.59-.17h0a.91.91,0,0,1-.57.28,1.18,1.18,0,0,1-.64,0Z"/><path class="cls-38" d="M181.4,201a1.34,1.34,0,0,0,.6-.1,1.73,1.73,0,0,1,.59-.17h0a.92.92,0,0,1-.57.28,1.18,1.18,0,0,1-.64,0Z"/><path class="cls-38" d="M181.64,201.59a1.33,1.33,0,0,0,.59-.1,1.74,1.74,0,0,1,.59-.17h0a.92.92,0,0,1-.57.28,1.18,1.18,0,0,1-.64,0Z"/><path class="cls-38" d="M181.66,202.22c.49.07.88-.26,1.37-.31h0a1.16,1.16,0,0,1-.66.31,1.37,1.37,0,0,1-.73,0Z"/><path class="cls-38" d="M181.91,203.07c.49.07.88-.26,1.37-.31h0a1.16,1.16,0,0,1-.66.31,1.37,1.37,0,0,1-.73,0Z"/><path class="cls-38" d="M182.06,204.07c.49.07.88-.26,1.37-.31h0a1.16,1.16,0,0,1-.65.31,1.37,1.37,0,0,1-.73,0Z"/><path class="cls-38" d="M182.24,205.2c.49.09.89-.23,1.38-.26h0a1.16,1.16,0,0,1-.67.29,1.37,1.37,0,0,1-.73,0Z"/><path class="cls-38" d="M182.34,206.09c.48.09.89-.22,1.38-.24v0a1.16,1.16,0,0,1-.67.28,1.37,1.37,0,0,1-.73,0Z"/><path class="cls-38" d="M182.43,207c.48.09.89-.22,1.38-.24h0a1.16,1.16,0,0,1-.67.28,1.37,1.37,0,0,1-.73,0Z"/><path class="cls-38" d="M182.46,208.24a1.71,1.71,0,0,0,.79-.07,3.47,3.47,0,0,1,.78-.2h0a1.43,1.43,0,0,1-.76.31,1.56,1.56,0,0,1-.82,0Z"/><path class="cls-38" d="M182.34,209.46a1.91,1.91,0,0,0,.89,0,4.85,4.85,0,0,1,.89-.2v0a1.73,1.73,0,0,1-.87.32,1.76,1.76,0,0,1-.92-.07Z"/><path class="cls-38" d="M182.36,210.66a2.13,2.13,0,0,0,1,0,6.81,6.81,0,0,1,1-.23v0a2.07,2.07,0,0,1-1,.35,2,2,0,0,1-1-.07Z"/><path class="cls-38" d="M182.25,212.23a2.2,2.2,0,0,0,1,0,7.6,7.6,0,0,1,1-.24v0a2.19,2.19,0,0,1-1,.36,2,2,0,0,1-1.06-.07Z"/><path class="cls-38" d="M182.1,213.5a2.39,2.39,0,0,0,1.12.1,10.25,10.25,0,0,1,1.14-.12v0a2.51,2.51,0,0,1-1.14.24,2.24,2.24,0,0,1-1.14-.22Z"/><path class="cls-38" d="M182,215.31a2.62,2.62,0,0,0,1.24.12c.42-.06.83-.12,1.26-.14v0a2.93,2.93,0,0,1-1.26.26,2.47,2.47,0,0,1-1.26-.23Z"/><path class="cls-38" d="M181.78,217.14a2.89,2.89,0,0,0,1.36.14c.46-.06.91-.12,1.38-.16v0a3.38,3.38,0,0,1-1.37.27,2.74,2.74,0,0,1-1.37-.25Z"/></g><path class="cls-42" d="M91.34,187.55s11-4.29,11.34-6.95a2.26,2.26,0,0,0-2.32-2.67s8.66-1.63,15.93,11.71S91.34,187.55,91.34,187.55Z"/><path class="cls-43" d="M120.51,236.82s6.46-2.52,6.66-4.08a1.33,1.33,0,0,0-1.36-1.57s5.09-1,9.36,6.88S120.51,236.82,120.51,236.82Z"/><path class="cls-44" d="M76.79,213.21s8.67-3.38,8.94-5.47a1.78,1.78,0,0,0-1.83-2.1s6.82-1.29,12.55,9.22S76.79,213.21,76.79,213.21Z"/><path class="cls-45" d="M55.81,201.74s6.46-2.52,6.66-4.08a1.33,1.33,0,0,0-1.36-1.57s5.09-1,9.36,6.88S55.81,201.74,55.81,201.74Z"/><path class="cls-46" d="M116.45,207s6.46-2.52,6.66-4.08a1.33,1.33,0,0,0-1.36-1.57s5.09-1,9.36,6.88S116.45,207,116.45,207Z"/><path class="cls-47" d="M137.93,191s6.46-2.52,6.66-4.08a1.33,1.33,0,0,0-1.36-1.57s5.09-1,9.36,6.88S137.93,191,137.93,191Z"/><path class="cls-48" d="M143.71,216.68s7.21-2.81,7.43-4.55a1.48,1.48,0,0,0-1.52-1.75s5.68-1.07,10.44,7.68S143.71,216.68,143.71,216.68Z"/><path class="cls-49" d="M119.12,188.18a13.4,13.4,0,0,1,6.81,1.77c3.69,2.24,7.66,7.78,7.73,7.87-.22,0-7-1.06-10.61-3.29a13.4,13.4,0,0,1-5.13-6.28A9.28,9.28,0,0,1,119.12,188.18Z"/><g class="cls-27"><path class="cls-4" d="M133.66,197.82h0a1.16,1.16,0,0,1-1.37,1.14c-2.2-.42-6.55-1.41-9.23-3.05a13.13,13.13,0,0,1-4.69-5.29,4.19,4.19,0,0,1-.44-1.87v-.5a13.4,13.4,0,0,0,5.13,6.28C126.7,196.76,133.44,197.79,133.66,197.82Z"/><g class="cls-50"><g class="cls-27"><path class="cls-4" d="M133.66,197.82h0a1.16,1.16,0,0,1-1.37,1.14c-2.2-.42-6.55-1.41-9.23-3.05a13,13,0,0,1-4.54-5,5.08,5.08,0,0,1-.59-2.37v-.28a13.4,13.4,0,0,0,5.13,6.28c3.65,2.23,10.39,3.26,10.61,3.29"/></g></g></g><path class="cls-29" d="M124.58,192.31a.16.16,0,0,1-.16-.16V176a.16.16,0,1,1,.32,0v16.16A.16.16,0,0,1,124.58,192.31Z"/><path class="cls-30" d="M125.06,176s6.1,8.65,5.43,15.25L125.06,188s.92-1,0-3.48A16,16,0,0,0,125.06,176Z"/><polygon class="cls-10" points="470.42 207.09 470.42 230.84 366.53 291.71 366.71 267.22 470.42 207.09"/><path class="cls-11" d="M360.09,165.67c-2.06.55,4.06.74,4.06.74a22.43,22.43,0,0,0,8.17-6.42c3.25-4.33-.56-2.39-.56-2.39A22.11,22.11,0,0,1,360.09,165.67Z"/><polygon class="cls-12" points="366.61 146.68 470.5 207.05 366.79 267.18 262.81 206.94 366.61 146.68"/><path class="cls-31" d="M382.65,156s2.75,6-1.23,10.4-16.37,9.86-23.22,10.25-15.92,1.72-20.12,9.46-5.31,15.53-6,20.81-3.24,7.27-2.84,11.47,6,7.52,6.2,13.93-2.14,15.45-2.14,15.45l-14.17-8.21L313.74,215l13.4-36.22L354.44,163l22.21-10.51Z"/><path class="cls-13" d="M379.38,154.1s1,8.59-2.29,10.79-9.38,6-15.44,6.48-15.14,1-22.47,7.43a34.84,34.84,0,0,0-10.86,20.34c-.76,5-1.77,14.08-3.79,15.88s-2.25,4.13,1.15,8.52,6.68,7.67,6.68,13.61-2,8.92-2,8.92L312,220.93l10.17-44.78,33.28-14.63,21.21-9Z"/><path class="cls-32" d="M376.65,152.51s2.18,7.79-3.19,12.39-24.56.47-37.68,15.34-7.73,23.13-13.94,32.63.31,9.5,4.69,16.52,3.82,16.68,3.82,16.68l-67.54-39.13,103.8-60.26Z"/><path class="cls-13" d="M327.13,175.6c0,2,.64,4.16,3.87,2.76s3.81-7.09,7.51-7.35,6.47-3.35,4.76-4.42-10.47,3-11.08,4.45S327.13,175.6,327.13,175.6Z"/><path class="cls-13" d="M313.74,215a12.54,12.54,0,0,0,4.67-5.5c1.09-2.58,5-10.48,4.28-11.47s-.3-5.49-1.15-6.24-.65,4.19-2.26,8.83-1.5,7.33-3.61,7.83S313.74,215,313.74,215Z"/><path class="cls-13" d="M354.44,163c3.32.45,12.49-3.14,12.2-5.14s-.9-.61-4.91-2.6-3.67,5.79-6.29,6.23S354.44,163,354.44,163Z"/><path class="cls-6" d="M310.15,218.48c1.21-.23,2.27-.47,2.93-.64a.65.65,0,0,0,.55.25l.14,0-.65,5s5.46-3.3,1.3-5.54a14.33,14.33,0,0,1,3.75,2,1.75,1.75,0,0,1,1-.45,3.29,3.29,0,0,0-.78.62,13,13,0,0,1,2.12,2.4s0-.07,0-.19a4.17,4.17,0,0,0-1.68-4.26c-1.25-1-3.43-.82-4.18-.71a3.54,3.54,0,0,0,2-2.17c.58-2-1.83-3.39-1.83-3.39a6.39,6.39,0,0,1,0,3.07,3,3,0,0,0,1.24,0s-.15.21-1.23.28l-.88,2a.68.68,0,0,0-.5-.2.76.76,0,0,0-.36.09.41.41,0,0,0-.25.34.36.36,0,0,0,.13.26,45.53,45.53,0,0,1-6.53.86c-3.59.18-10.64-.55-11.46-.18a.62.62,0,0,0-.42.69,1,1,0,0,0,.19.65h7.1A74.33,74.33,0,0,0,310.15,218.48Z"/><path class="cls-6" d="M320.87,223c1.21-.23,2.27-.47,2.93-.64a.65.65,0,0,0,.55.25l.14,0-.65,5s5.46-3.3,1.3-5.54a14.33,14.33,0,0,1,3.75,2,1.75,1.75,0,0,1,1-.45,3.29,3.29,0,0,0-.78.62,13,13,0,0,1,2.12,2.4s0-.07,0-.19a4.17,4.17,0,0,0-1.68-4.26c-1.25-1-3.43-.82-4.18-.71a3.54,3.54,0,0,0,2-2.17c.58-2-1.83-3.39-1.83-3.39a6.39,6.39,0,0,1,0,3.07,3,3,0,0,0,1.24,0s-.15.21-1.23.28l-.88,2a.68.68,0,0,0-.5-.2.76.76,0,0,0-.36.09.41.41,0,0,0-.25.34.36.36,0,0,0,.13.26,45.53,45.53,0,0,1-6.53.86c-3.59.18-10.64-.55-11.46-.18a.62.62,0,0,0-.42.69,1,1,0,0,0,.19.65h7.1A74.33,74.33,0,0,0,320.87,223Z"/><path class="cls-13" d="M360.09,165.67c-2.06.55,4.06.74,4.06.74a22.43,22.43,0,0,0,8.17-6.42c3.25-4.33-.56-2.39-.56-2.39A22.11,22.11,0,0,1,360.09,165.67Z"/><path class="cls-6" d="M320.44,206.83c1.21-.23,2.27-.47,2.93-.64a.65.65,0,0,0,.55.25l.14,0-.65,5s5.46-3.3,1.3-5.54a14.33,14.33,0,0,1,3.75,2,1.75,1.75,0,0,1,1-.45,3.29,3.29,0,0,0-.78.62,13,13,0,0,1,2.12,2.4s0-.07,0-.19a4.17,4.17,0,0,0-1.68-4.26c-1.25-1-3.43-.82-4.18-.71a3.54,3.54,0,0,0,2-2.17c.58-2-1.83-3.39-1.83-3.39a6.39,6.39,0,0,1,0,3.07,3,3,0,0,0,1.24,0s-.15.21-1.23.28l-.88,2a.68.68,0,0,0-.5-.2.76.76,0,0,0-.36.09.41.41,0,0,0-.25.34.36.36,0,0,0,.13.26,45.53,45.53,0,0,1-6.53.86c-3.59.18-10.64-.55-11.46-.18a.62.62,0,0,0-.42.69,1,1,0,0,0,.19.65h7.1A74.33,74.33,0,0,0,320.44,206.83Z"/><path class="cls-6" d="M367.3,161.5c1.21-.23,2.27-.47,2.93-.64a.65.65,0,0,0,.55.25l.14,0-.65,5s5.46-3.3,1.3-5.54a14.33,14.33,0,0,1,3.75,2,1.75,1.75,0,0,1,1-.45,3.29,3.29,0,0,0-.78.62,13,13,0,0,1,2.12,2.4s0-.07,0-.19a4.17,4.17,0,0,0-1.68-4.26c-1.25-1-3.43-.82-4.18-.71a3.54,3.54,0,0,0,2-2.17c.58-2-1.83-3.39-1.83-3.39a6.39,6.39,0,0,1,0,3.07,3,3,0,0,0,1.24,0s-.15.21-1.23.28l-.88,2a.68.68,0,0,0-.5-.2.76.76,0,0,0-.36.09.41.41,0,0,0-.25.34.36.36,0,0,0,.13.26,45.53,45.53,0,0,1-6.53.86c-3.59.18-10.64-.55-11.46-.18a.62.62,0,0,0-.42.69,1,1,0,0,0,.19.65H359A74.33,74.33,0,0,0,367.3,161.5Z"/><path class="cls-13" d="M314.4,223.91c-.45,1.32,0,2.39,1.18,4s4.63,7.54,5.27,8.18c2,2.05,3.94.47,4.72.22s-2.4-1.93-4.73-4.63-3.17-3.4-3.61-5.11C316.84,225.06,314.85,222.6,314.4,223.91Z"/><path class="cls-33" d="M307.21,188.12l-8.08.92S304.06,183.25,307.21,188.12Z"/><path class="cls-34" d="M307.66,187.79s.44-3.39-2.07-5a8.25,8.25,0,0,0-5.16-1.15,18,18,0,0,1,3.38,2.12,3.83,3.83,0,0,0,.87-.78,1.54,1.54,0,0,1-.63,1s2.86,2.75,2.93,4S307.66,187.79,307.66,187.79Z"/><polygon class="cls-33" points="315.56 187.32 307.25 188.47 311.05 185.82 315.56 187.32"/><path class="cls-34" d="M307.25,188.47a4.56,4.56,0,0,1,3.52-3,5.25,5.25,0,0,1,4.79,1.83,12.62,12.62,0,0,0-4.33,0,2.12,2.12,0,0,1,0-1.24s-.29.15-.39,1.23Z"/><path class="cls-34" d="M307.29,188.28l-8.15.75S304.71,183.92,307.29,188.28Z"/><path class="cls-35" d="M306.15,207.18c.53-.82-.5-7.87-.25-11.46a33.45,33.45,0,0,1,1.35-7c0-.26,0-.37-.11-.41.16,0,.48-.09.39.41a33.46,33.46,0,0,0-1.35,7c-.25,3.59.78,10.64.25,11.46a1,1,0,0,1-1,.42A.9.9,0,0,0,306.15,207.18Z"/><path class="cls-36" d="M304.54,200.32a53.41,53.41,0,0,1,1.09-8.33c.54-2,1.15-3.65,1.15-3.65a.52.52,0,0,1,.36,0l-.08,0s-.62,1.61-1.15,3.65a53.42,53.42,0,0,0-1.09,8.33c0,1.31,0,7.1,0,7.1a2,2,0,0,0,.64.19,1.84,1.84,0,0,1-.92-.19S304.54,201.62,304.54,200.32Z"/><path class="cls-35" d="M304.81,200.32A53.42,53.42,0,0,1,305.9,192c.54-2,1.15-3.65,1.15-3.65l.08,0c.09,0,.16.16.11.41a33.45,33.45,0,0,0-1.35,7c-.25,3.59.78,10.64.25,11.46a.9.9,0,0,1-.7.42,2,2,0,0,1-.64-.19S304.81,201.62,304.81,200.32Z"/><path class="cls-36" d="M307.34,188.26a.6.6,0,0,0-.13.36.61.61,0,0,0,.61.61.61.61,0,0,0,.41-.16.6.6,0,0,1-.48.25.61.61,0,0,1-.61-.61A.61.61,0,0,1,307.34,188.26Z"/><path class="cls-35" d="M307.21,188.62a.6.6,0,0,1,.13-.36.61.61,0,0,1,.41-.16.61.61,0,0,1,.61.61.6.6,0,0,1-.13.36.61.61,0,0,1-.41.16A.61.61,0,0,1,307.21,188.62Z"/><path class="cls-36" d="M306.37,188.07a.59.59,0,0,0-.13.36.61.61,0,0,0,.61.61.6.6,0,0,0,.4-.16.59.59,0,0,1-.48.25.61.61,0,0,1-.61-.61A.6.6,0,0,1,306.37,188.07Z"/><path class="cls-35" d="M306.24,188.43a.59.59,0,0,1,.13-.36.6.6,0,0,1,.4-.16.61.61,0,0,1,.61.61.59.59,0,0,1-.13.36.6.6,0,0,1-.4.16A.61.61,0,0,1,306.24,188.43Z"/><path class="cls-33" d="M307.66,187.79s.82-2.92-.95-4.46a7.31,7.31,0,0,0-6.28-1.65S306.6,181,307.66,187.79Z"/><g class="cls-51"><path class="cls-38" d="M307.27,190a1.08,1.08,0,0,1-.58,0,.84.84,0,0,1-.52-.26h0c.4,0,.7.3,1.09.25Z"/><path class="cls-38" d="M307.14,190.55a1.09,1.09,0,0,1-.58,0,.84.84,0,0,1-.52-.26h0c.4,0,.7.3,1.09.25Z"/><path class="cls-38" d="M306.92,191.13a1.09,1.09,0,0,1-.58,0,.84.84,0,0,1-.52-.26h0c.4,0,.7.3,1.09.25Z"/><path class="cls-38" d="M306.9,191.71a1.25,1.25,0,0,1-.67,0,1.06,1.06,0,0,1-.6-.29h0c.45,0,.81.35,1.26.28Z"/><path class="cls-38" d="M306.67,192.5a1.25,1.25,0,0,1-.67,0,1.06,1.06,0,0,1-.6-.29h0c.45,0,.81.35,1.26.28Z"/><path class="cls-38" d="M306.54,193.41a1.26,1.26,0,0,1-.67,0,1.06,1.06,0,0,1-.6-.29h0c.45,0,.81.35,1.26.28Z"/><path class="cls-38" d="M306.37,194.45a1.26,1.26,0,0,1-.67,0,1.06,1.06,0,0,1-.61-.27h0c.45,0,.82.32,1.27.24Z"/><path class="cls-38" d="M306.28,195.27a1.26,1.26,0,0,1-.67,0A1.06,1.06,0,0,1,305,195h0c.45,0,.82.31,1.27.22Z"/><path class="cls-38" d="M306.2,196.09a1.25,1.25,0,0,1-.67,0,1.06,1.06,0,0,1-.61-.26h0c.45,0,.82.31,1.27.22Z"/><path class="cls-38" d="M306.17,197.24a1.43,1.43,0,0,1-.75,0,1.31,1.31,0,0,1-.7-.29h0c.51,0,.94.35,1.44.25Z"/><path class="cls-38" d="M306.28,198.36a1.62,1.62,0,0,1-.85.06,1.59,1.59,0,0,1-.8-.29h0a4.45,4.45,0,0,1,.81.19,1.76,1.76,0,0,0,.82,0Z"/><path class="cls-38" d="M306.26,199.45a1.81,1.81,0,0,1-.94.06,1.9,1.9,0,0,1-.89-.32h0a6.26,6.26,0,0,1,.91.21,2,2,0,0,0,.91,0Z"/><path class="cls-38" d="M306.36,200.89a1.88,1.88,0,0,1-1,.06,2,2,0,0,1-.92-.33h0a7,7,0,0,1,.94.22,2,2,0,0,0,.95,0Z"/><path class="cls-38" d="M306.5,202.06a2,2,0,0,1-1,.2,2.3,2.3,0,0,1-1-.22h0a9.39,9.39,0,0,1,1,.11,2.19,2.19,0,0,0,1-.09Z"/><path class="cls-38" d="M306.57,203.72a2.27,2.27,0,0,1-1.15.21,2.69,2.69,0,0,1-1.15-.24h0c.4,0,.77.08,1.16.13a2.41,2.41,0,0,0,1.14-.11Z"/><path class="cls-38" d="M306.79,205.4a2.51,2.51,0,0,1-1.26.23,3.1,3.1,0,0,1-1.26-.25h0c.43,0,.85.09,1.26.14a2.65,2.65,0,0,0,1.24-.12Z"/></g><path class="cls-33" d="M353.21,147.17l-6.26.71S350.77,143.4,353.21,147.17Z"/><path class="cls-34" d="M353.56,146.92s.34-2.63-1.6-3.84a6.39,6.39,0,0,0-4-.89,14,14,0,0,1,2.62,1.64,3,3,0,0,0,.68-.61,1.2,1.2,0,0,1-.49.75s2.21,2.13,2.27,3.08S353.56,146.92,353.56,146.92Z"/><polygon class="cls-33" points="359.68 146.56 353.24 147.45 356.19 145.39 359.68 146.56"/><path class="cls-34" d="M353.24,147.45a3.54,3.54,0,0,1,2.73-2.31,4.07,4.07,0,0,1,3.71,1.41,9.77,9.77,0,0,0-3.36,0,1.64,1.64,0,0,1,0-1s-.23.11-.3,1Z"/><path class="cls-34" d="M353.27,147.3l-6.31.58S351.27,143.92,353.27,147.3Z"/><path class="cls-35" d="M352.39,161.94c.41-.63-.39-6.09-.19-8.88a25.91,25.91,0,0,1,1-5.42c0-.2,0-.29-.09-.32.12,0,.37-.07.3.32a25.92,25.92,0,0,0-1,5.42c-.19,2.78.6,8.24.19,8.88a.74.74,0,0,1-.76.33A.7.7,0,0,0,352.39,161.94Z"/><path class="cls-36" d="M351.14,156.62a41.37,41.37,0,0,1,.84-6.45c.42-1.57.89-2.82.89-2.82a.4.4,0,0,1,.28,0l-.07,0s-.48,1.25-.89,2.82a41.37,41.37,0,0,0-.84,6.45c0,1,0,5.5,0,5.5a1.55,1.55,0,0,0,.5.15,1.43,1.43,0,0,1-.71-.15S351.14,157.63,351.14,156.62Z"/><path class="cls-35" d="M351.36,156.62a41.37,41.37,0,0,1,.84-6.45c.42-1.57.89-2.82.89-2.82l.07,0c.07,0,.12.12.09.32a25.91,25.91,0,0,0-1,5.42c-.19,2.78.6,8.24.19,8.88a.7.7,0,0,1-.54.33,1.55,1.55,0,0,1-.5-.15S351.36,157.63,351.36,156.62Z"/><path class="cls-36" d="M353.32,147.28a.46.46,0,0,0-.1.28.47.47,0,0,0,.47.47.47.47,0,0,0,.32-.13.47.47,0,0,1-.37.2.47.47,0,0,1-.47-.47A.47.47,0,0,1,353.32,147.28Z"/><path class="cls-35" d="M353.21,147.56a.46.46,0,0,1,.1-.28.47.47,0,0,1,.32-.13.47.47,0,0,1,.47.47.46.46,0,0,1-.1.28.47.47,0,0,1-.32.13A.47.47,0,0,1,353.21,147.56Z"/><path class="cls-36" d="M352.56,147.14a.46.46,0,0,0-.1.28.47.47,0,0,0,.47.47.46.46,0,0,0,.31-.12.46.46,0,0,1-.37.19.47.47,0,0,1-.47-.47A.46.46,0,0,1,352.56,147.14Z"/><path class="cls-35" d="M352.46,147.41a.46.46,0,0,1,.1-.28.46.46,0,0,1,.31-.12.47.47,0,0,1,.47.47.46.46,0,0,1-.1.28.46.46,0,0,1-.31.12A.47.47,0,0,1,352.46,147.41Z"/><path class="cls-33" d="M353.56,146.92s.63-2.26-.73-3.45a5.66,5.66,0,0,0-4.86-1.28A5.13,5.13,0,0,1,353.56,146.92Z"/><g class="cls-52"><path class="cls-38" d="M353.26,148.6a.84.84,0,0,1-.45,0,.68.68,0,0,1-.4-.2h0c.31,0,.54.23.85.19Z"/><path class="cls-38" d="M353.16,149.06a.84.84,0,0,1-.45,0,.68.68,0,0,1-.4-.2h0c.31,0,.54.23.85.19Z"/><path class="cls-38" d="M353,149.51a.84.84,0,0,1-.45,0,.68.68,0,0,1-.4-.2h0c.31,0,.54.23.85.19Z"/><path class="cls-38" d="M353,150a1,1,0,0,1-.52,0,.85.85,0,0,1-.47-.22h0c.35,0,.63.27,1,.22Z"/><path class="cls-38" d="M352.8,150.56a1,1,0,0,1-.52,0,.86.86,0,0,1-.47-.22h0c.35,0,.63.27,1,.22Z"/><path class="cls-38" d="M352.69,151.27a1,1,0,0,1-.52,0,.86.86,0,0,1-.47-.22h0c.35,0,.63.27,1,.22Z"/><path class="cls-38" d="M352.56,152.07a1,1,0,0,1-.52,0,.85.85,0,0,1-.47-.21h0c.35,0,.64.25,1,.18Z"/><path class="cls-38" d="M352.49,152.71a1,1,0,0,1-.52,0,.86.86,0,0,1-.48-.2h0c.35,0,.64.24,1,.17Z"/><path class="cls-38" d="M352.43,153.35a1,1,0,0,1-.52,0,.85.85,0,0,1-.48-.2h0c.35,0,.64.24,1,.17Z"/><path class="cls-38" d="M352.41,154.24a1.11,1.11,0,0,1-.58,0,1.05,1.05,0,0,1-.54-.22h0c.39,0,.73.27,1.12.2Z"/><path class="cls-38" d="M352.49,155.1a1.25,1.25,0,0,1-.65,0,1.27,1.27,0,0,1-.62-.22h0c.44,0,.83.28,1.26.18Z"/><path class="cls-38" d="M352.48,156a1.4,1.4,0,0,1-.73,0,1.52,1.52,0,0,1-.69-.25h0c.48.05.93.32,1.41.2Z"/><path class="cls-38" d="M352.55,157.07a1.45,1.45,0,0,1-.76,0,1.61,1.61,0,0,1-.71-.25h0c.5.06,1,.33,1.46.21Z"/><path class="cls-38" d="M352.66,158a1.59,1.59,0,0,1-.81.15A1.85,1.85,0,0,1,351,158h0c.28,0,.54.06.81.09a1.7,1.7,0,0,0,.8-.07Z"/><path class="cls-38" d="M352.72,159.26a1.76,1.76,0,0,1-.89.17,2.15,2.15,0,0,1-.89-.18h0c.31,0,.6.07.9.1a1.86,1.86,0,0,0,.88-.08Z"/><path class="cls-38" d="M352.89,160.56a1.94,1.94,0,0,1-1,.18,2.48,2.48,0,0,1-1-.19h0c.33,0,.65.08,1,.11a2.06,2.06,0,0,0,1-.1Z"/></g><path class="cls-33" d="M296.68,199.71l-8.08.92S293.52,194.84,296.68,199.71Z"/><path class="cls-34" d="M297.12,199.38s.44-3.39-2.07-5a8.25,8.25,0,0,0-5.16-1.15,18,18,0,0,1,3.38,2.12,3.83,3.83,0,0,0,.87-.78,1.54,1.54,0,0,1-.63,1s2.86,2.75,2.93,4S297.12,199.38,297.12,199.38Z"/><polygon class="cls-33" points="305.02 198.91 296.71 200.06 300.51 197.41 305.02 198.91"/><path class="cls-34" d="M296.71,200.06a4.56,4.56,0,0,1,3.52-3,5.25,5.25,0,0,1,4.79,1.83,12.62,12.62,0,0,0-4.33,0,2.12,2.12,0,0,1,0-1.24s-.29.15-.39,1.23Z"/><path class="cls-34" d="M296.75,199.87l-8.15.75S294.17,195.51,296.75,199.87Z"/><path class="cls-35" d="M295.61,218.77c.53-.82-.5-7.87-.25-11.46a33.45,33.45,0,0,1,1.35-7c0-.26,0-.37-.11-.41.16,0,.48-.09.39.41a33.46,33.46,0,0,0-1.35,7c-.25,3.59.78,10.64.25,11.46a1,1,0,0,1-1,.42A.9.9,0,0,0,295.61,218.77Z"/><path class="cls-36" d="M294,211.91a53.41,53.41,0,0,1,1.09-8.33c.54-2,1.15-3.65,1.15-3.65a.52.52,0,0,1,.36,0l-.08,0s-.62,1.61-1.15,3.65a53.42,53.42,0,0,0-1.09,8.33c0,1.31,0,7.1,0,7.1a2,2,0,0,0,.64.19A1.84,1.84,0,0,1,294,219S294,213.21,294,211.91Z"/><path class="cls-35" d="M294.27,211.91a53.42,53.42,0,0,1,1.09-8.33c.54-2,1.15-3.65,1.15-3.65l.08,0c.09,0,.16.16.11.41a33.45,33.45,0,0,0-1.35,7c-.25,3.59.78,10.64.25,11.46a.9.9,0,0,1-.7.42,2,2,0,0,1-.64-.19S294.28,213.21,294.27,211.91Z"/><path class="cls-36" d="M296.81,199.85a.6.6,0,0,0-.13.36.61.61,0,0,0,.61.61.61.61,0,0,0,.41-.16.6.6,0,0,1-.48.25.61.61,0,0,1-.61-.61A.61.61,0,0,1,296.81,199.85Z"/><path class="cls-35" d="M296.68,200.21a.6.6,0,0,1,.13-.36.61.61,0,0,1,.41-.16.61.61,0,0,1,.61.61.6.6,0,0,1-.13.36.61.61,0,0,1-.41.16A.61.61,0,0,1,296.68,200.21Z"/><path class="cls-36" d="M295.83,199.66a.59.59,0,0,0-.13.36.61.61,0,0,0,.61.61.6.6,0,0,0,.4-.16.59.59,0,0,1-.48.25.61.61,0,0,1-.61-.61A.6.6,0,0,1,295.83,199.66Z"/><path class="cls-35" d="M295.71,200a.59.59,0,0,1,.13-.36.6.6,0,0,1,.4-.16.61.61,0,0,1,.61.61.59.59,0,0,1-.13.36.6.6,0,0,1-.4.16A.61.61,0,0,1,295.71,200Z"/><path class="cls-33" d="M297.12,199.38s.82-2.92-.95-4.46a7.31,7.31,0,0,0-6.28-1.65S296.06,192.58,297.12,199.38Z"/><g class="cls-53"><path class="cls-38" d="M296.73,201.56a1.08,1.08,0,0,1-.58,0,.84.84,0,0,1-.52-.26h0c.4,0,.7.3,1.09.25Z"/><path class="cls-38" d="M296.6,202.14a1.08,1.08,0,0,1-.58,0,.84.84,0,0,1-.52-.26h0c.4,0,.7.3,1.09.25Z"/><path class="cls-38" d="M296.38,202.72a1.09,1.09,0,0,1-.58,0,.84.84,0,0,1-.52-.26h0c.4,0,.7.3,1.09.25Z"/><path class="cls-38" d="M296.36,203.3a1.26,1.26,0,0,1-.67,0,1.06,1.06,0,0,1-.6-.29h0c.45,0,.81.35,1.26.28Z"/><path class="cls-38" d="M296.14,204.09a1.26,1.26,0,0,1-.67,0,1.06,1.06,0,0,1-.6-.29h0c.45,0,.81.35,1.26.28Z"/><path class="cls-38" d="M296,205a1.25,1.25,0,0,1-.67,0,1.06,1.06,0,0,1-.6-.29h0c.45,0,.81.35,1.26.28Z"/><path class="cls-38" d="M295.83,206a1.26,1.26,0,0,1-.67,0,1.06,1.06,0,0,1-.61-.27h0c.45,0,.82.32,1.27.24Z"/><path class="cls-38" d="M295.74,206.86a1.26,1.26,0,0,1-.67,0,1.06,1.06,0,0,1-.61-.26h0c.45,0,.82.31,1.27.22Z"/><path class="cls-38" d="M295.66,207.68a1.26,1.26,0,0,1-.67,0,1.06,1.06,0,0,1-.61-.26h0c.45,0,.82.31,1.27.22Z"/><path class="cls-38" d="M295.63,208.83a1.43,1.43,0,0,1-.75,0,1.31,1.31,0,0,1-.7-.29h0c.51,0,.94.35,1.44.25Z"/><path class="cls-38" d="M295.74,209.95a1.62,1.62,0,0,1-.85.06,1.58,1.58,0,0,1-.8-.29h0a4.44,4.44,0,0,1,.81.19,1.76,1.76,0,0,0,.82,0Z"/><path class="cls-38" d="M295.73,211a1.81,1.81,0,0,1-.94.06,1.9,1.9,0,0,1-.89-.32h0a6.25,6.25,0,0,1,.91.21,2,2,0,0,0,.91,0Z"/><path class="cls-38" d="M295.82,212.48a1.88,1.88,0,0,1-1,.06,2,2,0,0,1-.92-.33h0a7,7,0,0,1,.94.22,2,2,0,0,0,.95,0Z"/><path class="cls-38" d="M296,213.65a2.05,2.05,0,0,1-1,.2,2.3,2.3,0,0,1-1-.22h0a9.41,9.41,0,0,1,1,.11,2.19,2.19,0,0,0,1-.09Z"/><path class="cls-38" d="M296,215.31a2.27,2.27,0,0,1-1.15.21,2.69,2.69,0,0,1-1.15-.24h0c.4,0,.77.08,1.16.13a2.41,2.41,0,0,0,1.14-.11Z"/><path class="cls-38" d="M296.25,217a2.51,2.51,0,0,1-1.26.23,3.1,3.1,0,0,1-1.26-.25h0c.43,0,.85.09,1.26.14a2.65,2.65,0,0,0,1.25-.12Z"/></g><path class="cls-33" d="M308.25,202.49l-8.81,1S304.81,197.18,308.25,202.49Z"/><path class="cls-34" d="M308.73,202.14s.48-3.7-2.25-5.4a9,9,0,0,0-5.62-1.25,19.64,19.64,0,0,1,3.69,2.31,4.18,4.18,0,0,0,1-.85,1.68,1.68,0,0,1-.69,1.05s3.11,3,3.19,4.34S308.73,202.14,308.73,202.14Z"/><polygon class="cls-33" points="317.34 201.63 308.29 202.88 312.43 199.99 317.34 201.63"/><path class="cls-34" d="M308.29,202.88a5,5,0,0,1,3.84-3.24,5.72,5.72,0,0,1,5.22,2,13.75,13.75,0,0,0-4.72,0,2.31,2.31,0,0,1,0-1.35s-.32.16-.42,1.34Z"/><path class="cls-34" d="M308.33,202.67l-8.89.82S305.52,197.91,308.33,202.67Z"/><path class="cls-35" d="M307.09,223.28c.58-.89-.54-8.58-.27-12.49a36.46,36.46,0,0,1,1.47-7.63c.05-.28,0-.4-.12-.45.17-.05.52-.09.42.45a36.48,36.48,0,0,0-1.47,7.63c-.27,3.91.85,11.6.27,12.49a1,1,0,0,1-1.06.46A1,1,0,0,0,307.09,223.28Z"/><path class="cls-36" d="M305.33,215.79a58.22,58.22,0,0,1,1.19-9.07c.58-2.22,1.26-4,1.26-4a.57.57,0,0,1,.39,0l-.09,0s-.67,1.76-1.26,4a58.23,58.23,0,0,0-1.19,9.07c0,1.43,0,7.74,0,7.74a2.19,2.19,0,0,0,.7.21,2,2,0,0,1-1-.21S305.33,217.22,305.33,215.79Z"/><path class="cls-35" d="M305.63,215.79a58.23,58.23,0,0,1,1.19-9.07c.58-2.22,1.26-4,1.26-4l.09,0c.1,0,.17.17.12.45a36.46,36.46,0,0,0-1.47,7.63c-.27,3.91.85,11.6.27,12.49a1,1,0,0,1-.76.46,2.19,2.19,0,0,1-.7-.21S305.63,217.22,305.63,215.79Z"/><path class="cls-36" d="M308.39,202.65a.65.65,0,0,0-.14.39.67.67,0,0,0,.67.67.66.66,0,0,0,.44-.18.66.66,0,0,1-.53.28.67.67,0,0,1-.67-.67A.66.66,0,0,1,308.39,202.65Z"/><path class="cls-35" d="M308.25,203a.65.65,0,0,1,.14-.39.66.66,0,0,1,.44-.18.67.67,0,0,1,.67.67.65.65,0,0,1-.14.39.66.66,0,0,1-.44.18A.67.67,0,0,1,308.25,203Z"/><path class="cls-36" d="M307.33,202.44a.64.64,0,0,0-.14.39.66.66,0,0,0,.66.66.65.65,0,0,0,.44-.17.65.65,0,0,1-.52.27.66.66,0,0,1-.66-.66A.65.65,0,0,1,307.33,202.44Z"/><path class="cls-35" d="M307.19,202.83a.64.64,0,0,1,.14-.39.65.65,0,0,1,.44-.17.66.66,0,0,1,.66.66.65.65,0,0,1-.14.39.65.65,0,0,1-.44.17A.66.66,0,0,1,307.19,202.83Z"/><path class="cls-33" d="M308.73,202.14s.89-3.18-1-4.86a8,8,0,0,0-6.84-1.8S307.58,194.73,308.73,202.14Z"/><g class="cls-54"><path class="cls-38" d="M308.31,204.51a1.18,1.18,0,0,1-.64,0,.92.92,0,0,1-.57-.28h0a1.73,1.73,0,0,1,.59.17,1.34,1.34,0,0,0,.59.1Z"/><path class="cls-38" d="M308.17,205.15a1.18,1.18,0,0,1-.64,0,.92.92,0,0,1-.57-.28h0a1.73,1.73,0,0,1,.59.17,1.33,1.33,0,0,0,.59.1Z"/><path class="cls-38" d="M307.92,205.78a1.18,1.18,0,0,1-.64,0,.92.92,0,0,1-.57-.28h0a1.74,1.74,0,0,1,.6.17,1.33,1.33,0,0,0,.59.1Z"/><path class="cls-38" d="M307.91,206.41a1.37,1.37,0,0,1-.73,0,1.16,1.16,0,0,1-.66-.31h0c.49,0,.88.38,1.37.31Z"/><path class="cls-38" d="M307.66,207.27a1.37,1.37,0,0,1-.73,0,1.16,1.16,0,0,1-.65-.31h0c.49,0,.88.38,1.37.31Z"/><path class="cls-38" d="M307.51,208.26a1.37,1.37,0,0,1-.73,0,1.16,1.16,0,0,1-.66-.31h0c.49,0,.88.38,1.37.31Z"/><path class="cls-38" d="M307.33,209.39a1.37,1.37,0,0,1-.73,0,1.16,1.16,0,0,1-.67-.29h0c.49,0,.89.35,1.38.26Z"/><path class="cls-38" d="M307.23,210.29a1.37,1.37,0,0,1-.73,0,1.16,1.16,0,0,1-.67-.28v0c.49,0,.9.34,1.38.24Z"/><path class="cls-38" d="M307.14,211.19a1.37,1.37,0,0,1-.73,0,1.16,1.16,0,0,1-.67-.28h0c.49,0,.9.34,1.38.24Z"/><path class="cls-38" d="M307.11,212.44a1.56,1.56,0,0,1-.82,0,1.42,1.42,0,0,1-.76-.31h0a3.47,3.47,0,0,1,.78.2,1.71,1.71,0,0,0,.79.07Z"/><path class="cls-38" d="M307.23,213.66a1.76,1.76,0,0,1-.92.07,1.73,1.73,0,0,1-.87-.32v0a4.85,4.85,0,0,1,.89.2,1.91,1.91,0,0,0,.89,0Z"/><path class="cls-38" d="M307.21,214.85a2,2,0,0,1-1,.07,2.07,2.07,0,0,1-1-.35v0a6.82,6.82,0,0,1,1,.23,2.13,2.13,0,0,0,1,0Z"/><path class="cls-38" d="M307.32,216.42a2,2,0,0,1-1.06.07,2.18,2.18,0,0,1-1-.36v0a7.62,7.62,0,0,1,1,.24,2.2,2.2,0,0,0,1,0Z"/><path class="cls-38" d="M307.47,217.69a2.24,2.24,0,0,1-1.14.22,2.51,2.51,0,0,1-1.14-.24v0a10.22,10.22,0,0,1,1.14.12,2.39,2.39,0,0,0,1.12-.1Z"/><path class="cls-38" d="M307.55,219.5a2.47,2.47,0,0,1-1.26.23,2.93,2.93,0,0,1-1.26-.26v0c.43,0,.84.08,1.26.14a2.62,2.62,0,0,0,1.24-.12Z"/><path class="cls-38" d="M307.79,221.33a2.74,2.74,0,0,1-1.37.25,3.38,3.38,0,0,1-1.37-.27v0c.47,0,.92.1,1.38.16a2.89,2.89,0,0,0,1.36-.14Z"/></g><path class="cls-55" d="M410.14,187.58s-11-4.29-11.34-6.95a2.26,2.26,0,0,1,2.32-2.67s-8.66-1.63-15.93,11.71S410.14,187.58,410.14,187.58Z"/><path class="cls-56" d="M381,236.85s-6.46-2.52-6.66-4.08a1.33,1.33,0,0,1,1.36-1.57s-5.09-1-9.36,6.88S381,236.85,381,236.85Z"/><path class="cls-57" d="M424.69,213.24s-8.67-3.38-8.94-5.47a1.78,1.78,0,0,1,1.83-2.1s-6.82-1.29-12.55,9.22S424.69,213.24,424.69,213.24Z"/><path class="cls-58" d="M445.68,201.76s-6.46-2.52-6.66-4.08a1.33,1.33,0,0,1,1.36-1.57s-5.09-1-9.36,6.88S445.68,201.76,445.68,201.76Z"/><path class="cls-59" d="M385,207s-6.46-2.52-6.66-4.08a1.33,1.33,0,0,1,1.36-1.57s-5.09-1-9.36,6.88S385,207,385,207Z"/><path class="cls-60" d="M363.55,191s-6.46-2.52-6.66-4.08a1.33,1.33,0,0,1,1.36-1.57s-5.09-1-9.36,6.88S363.55,191,363.55,191Z"/><path class="cls-61" d="M357.77,216.71s-7.21-2.81-7.43-4.55a1.48,1.48,0,0,1,1.52-1.75s-5.68-1.07-10.44,7.68S357.77,216.71,357.77,216.71Z"/><path class="cls-32" d="M219.56,262.25c3.5,0,20.15-4.38,27.93-2.63s13.69,8.76,23.33,7.56,32.29-17.72,40.57-18.23l-59.76-34.69L181.54,255l21.16,4.2S216.06,262.25,219.56,262.25Z"/><path class="cls-32" d="M224.51,266c10.7-.89,23.94-10.22,37.06,4.65s45.94-16.49,58.82-16.49l-9-5.23c-8.28.52-30.93,17-40.57,18.23s-15.55-5.81-23.33-7.56-24.42,2.63-27.93,2.63-16.87-3.07-16.87-3.07L181.54,255l-4,2.32S217.47,266.6,224.51,266Z"/><path class="cls-31" d="M311.39,248.95l9,5.23c-12.88,0-45.7,31.35-58.82,16.49s-26.36-5.54-37.06-4.65c-7,.59-47-8.71-47-8.71l-1.74,1,11.06,3.06c.42.12,16.86,4.48,20.21,4.32s11.74.4,14.09,1.63,11.07-1.29,14.76-1,15.26-.1,22.63,7.59,24.34.71,24.34.71,18.31-9.69,21.91-11l18-8.09Z"/><polygon class="cls-13" points="177.55 257.3 177.55 257.3 180.2 255.76 177.55 257.3"/><path class="cls-13" d="M224.51,266c10.7-.89,23.94-10.22,37.06,4.65s45.94-16.49,58.82-16.49l-9-5.23c-8.28.52-30.93,17-40.57,18.23s-15.55-5.81-23.33-7.56-24.42,2.63-27.93,2.63-16.87-3.07-16.87-3.07L181.54,255l-1.34.78-2.65,1.54S217.47,266.6,224.51,266Z"/><path class="cls-13" d="M296.24,247.81a12.54,12.54,0,0,1-5.66,4.48c-2.61,1-10.64,4.69-11.61,3.89s-5.48-.49-6.2-1.36,4.21-.51,8.9-2,7.38-1.25,7.95-3.35S296.24,247.81,296.24,247.81Z"/><path class="cls-13" d="M205.18,251.89c-.63-1.9-.73-4.14,2.78-3.85s5.88,5.5,9.47,4.55,7.2,1.1,5.93,2.66-10.87.52-11.92-.66S205.18,251.89,205.18,251.89Z"/><path class="cls-13" d="M250.82,248.75c-.62,1.25-1.67,1.72-3.68,2s-8.61,2-9.52,2c-2.9,0-3.11-2.47-3.47-3.2s3.06.35,6.61.1,4.65-.14,6.17-1C248.29,247.82,251.44,247.51,250.82,248.75Z"/><path class="cls-6" d="M283.09,257.5c1.21-.23,2.27-.47,2.93-.64a.65.65,0,0,0,.55.25l.14,0-.65,5s5.46-3.3,1.3-5.54a14.33,14.33,0,0,1,3.75,2,1.75,1.75,0,0,1,1-.45,3.29,3.29,0,0,0-.78.62,13,13,0,0,1,2.12,2.4s0-.07,0-.19a4.17,4.17,0,0,0-1.68-4.26c-1.25-1-3.43-.82-4.18-.71a3.54,3.54,0,0,0,2-2.17c.58-2-1.83-3.39-1.83-3.39a6.39,6.39,0,0,1,0,3.07,3,3,0,0,0,1.24,0s-.15.21-1.23.28l-.88,2a.68.68,0,0,0-.5-.2.76.76,0,0,0-.36.09.41.41,0,0,0-.25.34.36.36,0,0,0,.13.26,45.53,45.53,0,0,1-6.53.86c-3.59.18-10.64-.55-11.46-.18a.62.62,0,0,0-.42.69,1,1,0,0,0,.19.65h7.1A74.33,74.33,0,0,0,283.09,257.5Z"/><path class="cls-33" d="M269.61,238.73l-8.08.92S266.46,233.86,269.61,238.73Z"/><path class="cls-34" d="M270.06,238.41s.44-3.39-2.07-5a8.25,8.25,0,0,0-5.16-1.15,18,18,0,0,1,3.38,2.12,3.83,3.83,0,0,0,.87-.78,1.54,1.54,0,0,1-.63,1s2.86,2.75,2.93,4S270.06,238.41,270.06,238.41Z"/><polygon class="cls-33" points="277.96 237.94 269.65 239.09 273.45 236.43 277.96 237.94"/><path class="cls-34" d="M269.65,239.09a4.56,4.56,0,0,1,3.52-3,5.25,5.25,0,0,1,4.79,1.83,12.62,12.62,0,0,0-4.33,0,2.12,2.12,0,0,1,0-1.24s-.29.15-.39,1.23Z"/><path class="cls-34" d="M269.69,238.9l-8.15.75S267.11,234.53,269.69,238.9Z"/><path class="cls-35" d="M268.55,257.8c.53-.82-.5-7.87-.25-11.46a33.45,33.45,0,0,1,1.35-7c0-.26,0-.37-.11-.41.16,0,.48-.09.39.41a33.46,33.46,0,0,0-1.35,7c-.25,3.59.78,10.64.25,11.46a1,1,0,0,1-1,.42A.9.9,0,0,0,268.55,257.8Z"/><path class="cls-36" d="M266.94,250.93a53.41,53.41,0,0,1,1.09-8.33c.54-2,1.15-3.65,1.15-3.65a.52.52,0,0,1,.36,0l-.08,0s-.62,1.61-1.15,3.65a53.42,53.42,0,0,0-1.09,8.33c0,1.31,0,7.1,0,7.1a2,2,0,0,0,.64.19,1.84,1.84,0,0,1-.92-.19S266.94,252.24,266.94,250.93Z"/><path class="cls-35" d="M267.21,250.93a53.42,53.42,0,0,1,1.09-8.33c.54-2,1.15-3.65,1.15-3.65l.08,0c.09,0,.16.16.11.41a33.45,33.45,0,0,0-1.35,7c-.25,3.59.78,10.64.25,11.46a.9.9,0,0,1-.7.42,2,2,0,0,1-.64-.19S267.21,252.24,267.21,250.93Z"/><path class="cls-36" d="M269.74,238.88a.6.6,0,0,0-.13.36.61.61,0,0,0,.61.61.61.61,0,0,0,.41-.16.6.6,0,0,1-.48.25.61.61,0,0,1-.61-.61A.61.61,0,0,1,269.74,238.88Z"/><path class="cls-35" d="M269.61,239.24a.6.6,0,0,1,.13-.36.61.61,0,0,1,.41-.16.61.61,0,0,1,.61.61.6.6,0,0,1-.13.36.61.61,0,0,1-.41.16A.61.61,0,0,1,269.61,239.24Z"/><path class="cls-36" d="M268.77,238.69a.59.59,0,0,0-.13.36.61.61,0,0,0,.61.61.6.6,0,0,0,.4-.16.59.59,0,0,1-.48.25.61.61,0,0,1-.61-.61A.6.6,0,0,1,268.77,238.69Z"/><path class="cls-35" d="M268.64,239a.59.59,0,0,1,.13-.36.6.6,0,0,1,.4-.16.61.61,0,0,1,.61.61.59.59,0,0,1-.13.36.6.6,0,0,1-.4.16A.61.61,0,0,1,268.64,239Z"/><path class="cls-33" d="M270.06,238.41s.82-2.92-.95-4.46a7.31,7.31,0,0,0-6.28-1.65S269,231.61,270.06,238.41Z"/><g class="cls-62"><path class="cls-38" d="M269.67,240.58a1.08,1.08,0,0,1-.58,0,.84.84,0,0,1-.52-.26h0c.4,0,.7.3,1.09.25Z"/><path class="cls-38" d="M269.54,241.17a1.08,1.08,0,0,1-.58,0,.84.84,0,0,1-.52-.26h0c.4,0,.7.3,1.09.25Z"/><path class="cls-38" d="M269.32,241.75a1.09,1.09,0,0,1-.58,0,.84.84,0,0,1-.52-.26h0c.4,0,.7.3,1.09.25Z"/><path class="cls-38" d="M269.3,242.33a1.26,1.26,0,0,1-.67,0,1.06,1.06,0,0,1-.6-.29h0c.45,0,.81.35,1.26.28Z"/><path class="cls-38" d="M269.08,243.11a1.26,1.26,0,0,1-.67,0,1.06,1.06,0,0,1-.6-.29h0c.45,0,.81.35,1.26.28Z"/><path class="cls-38" d="M268.94,244a1.25,1.25,0,0,1-.67,0,1.06,1.06,0,0,1-.6-.29h0c.45,0,.81.35,1.26.28Z"/><path class="cls-38" d="M268.77,245.06a1.26,1.26,0,0,1-.67,0,1.06,1.06,0,0,1-.61-.27h0c.45,0,.82.32,1.27.24Z"/><path class="cls-38" d="M268.68,245.89a1.26,1.26,0,0,1-.67,0,1.06,1.06,0,0,1-.61-.26h0c.45,0,.82.31,1.27.22Z"/><path class="cls-38" d="M268.6,246.71a1.26,1.26,0,0,1-.67,0,1.06,1.06,0,0,1-.61-.26h0c.45,0,.82.31,1.27.22Z"/><path class="cls-38" d="M268.57,247.85a1.43,1.43,0,0,1-.75,0,1.31,1.31,0,0,1-.7-.29h0c.51,0,.94.35,1.44.25Z"/><path class="cls-38" d="M268.68,249a1.62,1.62,0,0,1-.85.06,1.58,1.58,0,0,1-.8-.29h0a4.44,4.44,0,0,1,.81.19,1.76,1.76,0,0,0,.82,0Z"/><path class="cls-38" d="M268.67,250.07a1.81,1.81,0,0,1-.94.06,1.9,1.9,0,0,1-.89-.32h0a6.25,6.25,0,0,1,.91.21,2,2,0,0,0,.91,0Z"/><path class="cls-38" d="M268.76,251.51a1.88,1.88,0,0,1-1,.06,2,2,0,0,1-.92-.33h0a7,7,0,0,1,.94.22,2,2,0,0,0,.95,0Z"/><path class="cls-38" d="M268.9,252.68a2.05,2.05,0,0,1-1,.2,2.3,2.3,0,0,1-1-.22h0a9.41,9.41,0,0,1,1,.11,2.19,2.19,0,0,0,1-.09Z"/><path class="cls-38" d="M269,254.34a2.27,2.27,0,0,1-1.15.21,2.69,2.69,0,0,1-1.15-.24h0c.4,0,.77.08,1.16.13a2.41,2.41,0,0,0,1.14-.11Z"/><path class="cls-38" d="M269.19,256a2.51,2.51,0,0,1-1.26.23,3.1,3.1,0,0,1-1.26-.25h0c.43,0,.85.09,1.26.14a2.65,2.65,0,0,0,1.25-.12Z"/></g><path class="cls-6" d="M218,253.91c1.21-.23,2.27-.47,2.93-.64a.65.65,0,0,0,.55.25l.14,0-.65,5s5.46-3.3,1.3-5.54a14.33,14.33,0,0,1,3.75,2,1.75,1.75,0,0,1,1-.45,3.29,3.29,0,0,0-.78.62,13,13,0,0,1,2.12,2.4s0-.07,0-.19a4.17,4.17,0,0,0-1.68-4.26c-1.25-1-3.43-.82-4.18-.71a3.54,3.54,0,0,0,2-2.17c.58-2-1.83-3.39-1.83-3.39a6.39,6.39,0,0,1,0,3.07,3,3,0,0,0,1.24,0s-.15.21-1.23.28l-.88,2a.68.68,0,0,0-.5-.2.76.76,0,0,0-.36.09.41.41,0,0,0-.25.34.36.36,0,0,0,.13.26,45.53,45.53,0,0,1-6.53.86c-3.59.18-10.64-.55-11.46-.18a.62.62,0,0,0-.42.69,1,1,0,0,0,.19.65h7.1A74.33,74.33,0,0,0,218,253.91Z"/><path class="cls-33" d="M204.49,235.14l-8.08.92S201.34,230.27,204.49,235.14Z"/><path class="cls-34" d="M204.94,234.82s.44-3.39-2.07-5a8.25,8.25,0,0,0-5.16-1.15,18,18,0,0,1,3.38,2.12A3.83,3.83,0,0,0,202,230a1.54,1.54,0,0,1-.63,1s2.86,2.75,2.93,4S204.94,234.82,204.94,234.82Z"/><polygon class="cls-33" points="212.84 234.35 204.53 235.5 208.33 232.84 212.84 234.35"/><path class="cls-34" d="M204.53,235.5a4.56,4.56,0,0,1,3.52-3,5.25,5.25,0,0,1,4.79,1.83,12.62,12.62,0,0,0-4.33,0,2.12,2.12,0,0,1,0-1.24s-.29.15-.39,1.23Z"/><path class="cls-34" d="M204.57,235.31l-8.15.75S202,230.94,204.57,235.31Z"/><path class="cls-35" d="M203.43,254.21c.53-.82-.5-7.87-.25-11.46a33.45,33.45,0,0,1,1.35-7c0-.26,0-.37-.11-.41.16,0,.48-.09.39.41a33.46,33.46,0,0,0-1.35,7c-.25,3.59.78,10.64.25,11.46a1,1,0,0,1-1,.42A.9.9,0,0,0,203.43,254.21Z"/><path class="cls-36" d="M201.82,247.34a53.41,53.41,0,0,1,1.09-8.33c.54-2,1.15-3.65,1.15-3.65a.52.52,0,0,1,.36,0l-.08,0s-.62,1.61-1.15,3.65a53.42,53.42,0,0,0-1.09,8.33c0,1.31,0,7.1,0,7.1a2,2,0,0,0,.64.19,1.84,1.84,0,0,1-.92-.19S201.82,248.65,201.82,247.34Z"/><path class="cls-35" d="M202.09,247.34a53.42,53.42,0,0,1,1.09-8.33c.54-2,1.15-3.65,1.15-3.65l.08,0c.09,0,.16.16.11.41a33.45,33.45,0,0,0-1.35,7c-.25,3.59.78,10.64.25,11.46a.9.9,0,0,1-.7.42,2,2,0,0,1-.64-.19S202.09,248.65,202.09,247.34Z"/><path class="cls-36" d="M204.63,235.29a.6.6,0,0,0-.13.36.61.61,0,0,0,.61.61.61.61,0,0,0,.41-.16.6.6,0,0,1-.48.25.61.61,0,0,1-.61-.61A.61.61,0,0,1,204.63,235.29Z"/><path class="cls-35" d="M204.49,235.65a.6.6,0,0,1,.13-.36.61.61,0,0,1,.41-.16.61.61,0,0,1,.61.61.6.6,0,0,1-.13.36.61.61,0,0,1-.41.16A.61.61,0,0,1,204.49,235.65Z"/><path class="cls-36" d="M203.65,235.1a.59.59,0,0,0-.13.36.61.61,0,0,0,.61.61.6.6,0,0,0,.4-.16.59.59,0,0,1-.48.25.61.61,0,0,1-.61-.61A.6.6,0,0,1,203.65,235.1Z"/><path class="cls-35" d="M203.52,235.45a.59.59,0,0,1,.13-.36.6.6,0,0,1,.4-.16.61.61,0,0,1,.61.61.59.59,0,0,1-.13.36.6.6,0,0,1-.4.16A.61.61,0,0,1,203.52,235.45Z"/><path class="cls-33" d="M204.94,234.82s.82-2.92-.95-4.46a7.31,7.31,0,0,0-6.28-1.65S203.88,228,204.94,234.82Z"/><g class="cls-63"><path class="cls-38" d="M204.55,237a1.08,1.08,0,0,1-.58,0,.84.84,0,0,1-.52-.26h0c.4,0,.7.3,1.09.25Z"/><path class="cls-38" d="M204.42,237.58a1.08,1.08,0,0,1-.58,0,.84.84,0,0,1-.52-.26h0c.4,0,.7.3,1.09.25Z"/><path class="cls-38" d="M204.2,238.16a1.09,1.09,0,0,1-.58,0,.84.84,0,0,1-.52-.26h0c.4,0,.7.3,1.09.25Z"/><path class="cls-38" d="M204.18,238.74a1.26,1.26,0,0,1-.67,0,1.06,1.06,0,0,1-.6-.29h0c.45,0,.81.35,1.26.28Z"/><path class="cls-38" d="M204,239.52a1.26,1.26,0,0,1-.67,0,1.06,1.06,0,0,1-.6-.29h0c.45,0,.81.35,1.26.28Z"/><path class="cls-38" d="M203.82,240.43a1.25,1.25,0,0,1-.67,0,1.06,1.06,0,0,1-.6-.29h0c.45,0,.81.35,1.26.28Z"/><path class="cls-38" d="M203.65,241.47a1.26,1.26,0,0,1-.67,0,1.06,1.06,0,0,1-.61-.27h0c.45,0,.82.32,1.27.24Z"/><path class="cls-38" d="M203.56,242.29a1.26,1.26,0,0,1-.67,0,1.06,1.06,0,0,1-.61-.26h0c.45,0,.82.31,1.27.22Z"/><path class="cls-38" d="M203.48,243.12a1.26,1.26,0,0,1-.67,0,1.06,1.06,0,0,1-.61-.26h0c.45,0,.82.31,1.27.22Z"/><path class="cls-38" d="M203.45,244.26a1.43,1.43,0,0,1-.75,0,1.31,1.31,0,0,1-.7-.29h0c.51,0,.94.35,1.44.25Z"/><path class="cls-38" d="M203.56,245.38a1.62,1.62,0,0,1-.85.06,1.58,1.58,0,0,1-.8-.29h0a4.44,4.44,0,0,1,.81.19,1.76,1.76,0,0,0,.82,0Z"/><path class="cls-38" d="M203.55,246.48a1.81,1.81,0,0,1-.94.06,1.9,1.9,0,0,1-.89-.32h0a6.25,6.25,0,0,1,.91.21,2,2,0,0,0,.91,0Z"/><path class="cls-38" d="M203.64,247.92a1.88,1.88,0,0,1-1,.06,2,2,0,0,1-.92-.33h0a7,7,0,0,1,.94.22,2,2,0,0,0,.95,0Z"/><path class="cls-38" d="M203.78,249.08a2.05,2.05,0,0,1-1,.2,2.3,2.3,0,0,1-1-.22h0a9.41,9.41,0,0,1,1,.11,2.19,2.19,0,0,0,1-.09Z"/><path class="cls-38" d="M203.85,250.75a2.27,2.27,0,0,1-1.15.21,2.69,2.69,0,0,1-1.15-.24h0c.4,0,.77.08,1.16.13a2.41,2.41,0,0,0,1.14-.11Z"/><path class="cls-38" d="M204.07,252.42a2.51,2.51,0,0,1-1.26.23,3.1,3.1,0,0,1-1.26-.25h0c.43,0,.85.09,1.26.14a2.65,2.65,0,0,0,1.25-.12Z"/></g><path class="cls-6" d="M235.59,259.3c1.21-.23,2.27-.47,2.93-.64a.65.65,0,0,0,.55.25l.14,0-.65,5s5.46-3.3,1.3-5.54a14.33,14.33,0,0,1,3.75,2,1.75,1.75,0,0,1,1-.45,3.29,3.29,0,0,0-.78.62,13,13,0,0,1,2.12,2.4s0-.07,0-.19a4.17,4.17,0,0,0-1.68-4.26c-1.25-1-3.43-.82-4.18-.71a3.54,3.54,0,0,0,2-2.17c.58-2-1.83-3.39-1.83-3.39a6.39,6.39,0,0,1,0,3.07,3,3,0,0,0,1.24,0s-.15.21-1.23.28l-.88,2a.68.68,0,0,0-.5-.2.76.76,0,0,0-.36.09.41.41,0,0,0-.25.34.36.36,0,0,0,.13.26,45.53,45.53,0,0,1-6.53.86c-3.59.18-10.64-.55-11.46-.18a.62.62,0,0,0-.42.69,1,1,0,0,0,.19.65h7.1A74.33,74.33,0,0,0,235.59,259.3Z"/><path class="cls-33" d="M222.12,240.53l-8.08.92S219,235.66,222.12,240.53Z"/><path class="cls-34" d="M222.56,240.21s.44-3.39-2.07-5a8.25,8.25,0,0,0-5.16-1.15,18,18,0,0,1,3.38,2.12,3.83,3.83,0,0,0,.87-.78,1.54,1.54,0,0,1-.63,1s2.86,2.75,2.93,4S222.56,240.21,222.56,240.21Z"/><polygon class="cls-33" points="230.46 239.74 222.16 240.89 225.96 238.23 230.46 239.74"/><path class="cls-34" d="M222.16,240.89a4.56,4.56,0,0,1,3.52-3,5.25,5.25,0,0,1,4.79,1.83,12.62,12.62,0,0,0-4.33,0,2.12,2.12,0,0,1,0-1.24s-.29.15-.39,1.23Z"/><path class="cls-34" d="M222.19,240.7l-8.15.75S219.61,236.33,222.19,240.7Z"/><path class="cls-35" d="M221.06,259.6c.53-.82-.5-7.87-.25-11.46a33.45,33.45,0,0,1,1.35-7c0-.26,0-.37-.11-.41.16,0,.48-.09.39.41a33.46,33.46,0,0,0-1.35,7c-.25,3.59.78,10.64.25,11.46a1,1,0,0,1-1,.42A.9.9,0,0,0,221.06,259.6Z"/><path class="cls-36" d="M219.44,252.73a53.41,53.41,0,0,1,1.09-8.33c.54-2,1.15-3.65,1.15-3.65a.52.52,0,0,1,.36,0l-.08,0s-.62,1.61-1.15,3.65a53.42,53.42,0,0,0-1.09,8.33c0,1.31,0,7.1,0,7.1a2,2,0,0,0,.64.19,1.84,1.84,0,0,1-.92-.19S219.44,254,219.44,252.73Z"/><path class="cls-35" d="M219.72,252.73a53.42,53.42,0,0,1,1.09-8.33c.54-2,1.15-3.65,1.15-3.65l.08,0c.09,0,.16.16.11.41a33.45,33.45,0,0,0-1.35,7c-.25,3.59.78,10.64.25,11.46a.9.9,0,0,1-.7.42,2,2,0,0,1-.64-.19S219.72,254,219.72,252.73Z"/><path class="cls-36" d="M222.25,240.67a.6.6,0,0,0-.13.36.61.61,0,0,0,.61.61.61.61,0,0,0,.41-.16.6.6,0,0,1-.48.25.61.61,0,0,1-.61-.61A.61.61,0,0,1,222.25,240.67Z"/><path class="cls-35" d="M222.12,241a.6.6,0,0,1,.13-.36.61.61,0,0,1,.41-.16.61.61,0,0,1,.61.61.6.6,0,0,1-.13.36.61.61,0,0,1-.41.16A.61.61,0,0,1,222.12,241Z"/><path class="cls-36" d="M221.28,240.49a.59.59,0,0,0-.13.36.61.61,0,0,0,.61.61.6.6,0,0,0,.4-.16.59.59,0,0,1-.48.25.61.61,0,0,1-.61-.61A.6.6,0,0,1,221.28,240.49Z"/><path class="cls-35" d="M221.15,240.84a.59.59,0,0,1,.13-.36.6.6,0,0,1,.4-.16.61.61,0,0,1,.61.61.59.59,0,0,1-.13.36.6.6,0,0,1-.4.16A.61.61,0,0,1,221.15,240.84Z"/><path class="cls-33" d="M222.56,240.21s.82-2.92-.95-4.46a7.31,7.31,0,0,0-6.28-1.65S221.51,233.41,222.56,240.21Z"/><g class="cls-64"><path class="cls-38" d="M222.17,242.38a1.08,1.08,0,0,1-.58,0,.84.84,0,0,1-.52-.26h0c.4,0,.7.3,1.09.25Z"/><path class="cls-38" d="M222,243a1.08,1.08,0,0,1-.58,0,.84.84,0,0,1-.52-.26h0c.4,0,.7.3,1.09.25Z"/><path class="cls-38" d="M221.82,243.55a1.09,1.09,0,0,1-.58,0,.84.84,0,0,1-.52-.26h0c.4,0,.7.3,1.09.25Z"/><path class="cls-38" d="M221.81,244.13a1.26,1.26,0,0,1-.67,0,1.06,1.06,0,0,1-.6-.29h0c.45,0,.81.35,1.26.28Z"/><path class="cls-38" d="M221.58,244.91a1.26,1.26,0,0,1-.67,0,1.06,1.06,0,0,1-.6-.29h0c.45,0,.81.35,1.26.28Z"/><path class="cls-38" d="M221.44,245.82a1.25,1.25,0,0,1-.67,0,1.06,1.06,0,0,1-.6-.29h0c.45,0,.81.35,1.26.28Z"/><path class="cls-38" d="M221.28,246.86a1.26,1.26,0,0,1-.67,0,1.06,1.06,0,0,1-.61-.27h0c.45,0,.82.32,1.27.24Z"/><path class="cls-38" d="M221.18,247.68a1.26,1.26,0,0,1-.67,0,1.06,1.06,0,0,1-.61-.26h0c.45,0,.82.31,1.27.22Z"/><path class="cls-38" d="M221.1,248.51a1.26,1.26,0,0,1-.67,0,1.06,1.06,0,0,1-.61-.26h0c.45,0,.82.31,1.27.22Z"/><path class="cls-38" d="M221.07,249.65a1.43,1.43,0,0,1-.75,0,1.31,1.31,0,0,1-.7-.29h0c.51,0,.94.35,1.44.25Z"/><path class="cls-38" d="M221.19,250.77a1.62,1.62,0,0,1-.85.06,1.58,1.58,0,0,1-.8-.29h0a4.44,4.44,0,0,1,.81.19,1.76,1.76,0,0,0,.82,0Z"/><path class="cls-38" d="M221.17,251.87a1.81,1.81,0,0,1-.94.06,1.9,1.9,0,0,1-.89-.32h0a6.25,6.25,0,0,1,.91.21,2,2,0,0,0,.91,0Z"/><path class="cls-38" d="M221.27,253.31a1.88,1.88,0,0,1-1,.06,2,2,0,0,1-.92-.33h0a7,7,0,0,1,.94.22,2,2,0,0,0,.95,0Z"/><path class="cls-38" d="M221.4,254.47a2.05,2.05,0,0,1-1,.2,2.3,2.3,0,0,1-1-.22h0a9.41,9.41,0,0,1,1,.11,2.19,2.19,0,0,0,1-.09Z"/><path class="cls-38" d="M221.48,256.14a2.27,2.27,0,0,1-1.15.21,2.69,2.69,0,0,1-1.15-.24h0c.4,0,.77.08,1.16.13a2.41,2.41,0,0,0,1.14-.11Z"/><path class="cls-38" d="M221.69,257.81a2.51,2.51,0,0,1-1.26.23,3.1,3.1,0,0,1-1.26-.25h0c.43,0,.85.09,1.26.14a2.65,2.65,0,0,0,1.25-.12Z"/></g><polygon class="cls-6" points="252.86 167.83 323.36 208.79 252.99 249.59 182.44 208.72 252.86 167.83"/><polygon class="cls-65" points="182.65 181.47 253.11 222.32 323.36 181.55 253 140.71 182.65 181.47"/><polygon class="cls-66" points="182.78 181.55 182.78 197.62 253.07 238.81 252.94 222.24 182.78 181.55"/><polygon class="cls-67" points="252.94 222.24 323.36 181.55 323.36 198.02 253.07 238.81 252.94 222.24"/><polygon class="cls-6" points="212.93 196.36 266.71 196.36 300.32 168.19 290.32 162.37 273.61 162.37 212.93 196.36"/><polygon class="cls-6" points="262.45 202.52 287.09 202.52 321.28 182.71 313.33 180.31 301.88 180.43 262.45 202.52"/><path class="cls-3" d="M194.5,191l13,5s11.65,2.06,21.76-3.53S271.17,168,271.17,168a21,21,0,0,0,7.74-15.37L243.1,171.51Z"/><path class="cls-3" d="M194.57,190.21c.1-1.71,1-8.94,16.54-15l5.36-1.55,47.3-28.33L278.43,153l.48-.38L263,144.31l-47.3,28.33-5.36,1.55c-15.55,6-16.43,13.27-16.54,15,0,.31-.07.41-.06.62a1.29,1.29,0,0,0,.81,1.18s0-.09,0-.14C194.49,190.62,194.55,190.52,194.57,190.21Z"/><path class="cls-68" d="M278,152.77a140.5,140.5,0,0,1-13.13,9.15c-6.63,4-34.6,20.43-34.6,20.43s-3.39-.71-5.78.56-8.89,5.93-12.41,6.91-10.86,2.12-15.24,1.55a9.21,9.21,0,0,1-2.31-.54s0,0,0,0a7,7,0,0,0,2.67.85c4.37.56,11.73-.58,15.25-1.57s10-5.64,12.41-6.91,5.78-.56,5.78-.56,28-16.48,34.6-20.43A140.9,140.9,0,0,0,278.43,153Z"/><path class="cls-69" d="M194.57,190.21c.1-1.71,1-8.94,16.54-15l5.36-1.55,47.3-28.33L278,152.77l.08-.06-14.67-7.66-47.3,28.33-5.36,1.55c-15.55,6-16.43,13.27-16.54,15,0,.31-.07.41-.06.62,0,0,0,.09,0,.14l.36.17h0C194.49,190.62,194.55,190.52,194.57,190.21Z"/><path class="cls-69" d="M212.05,189.83c3.53-1,10-5.64,12.41-6.91s5.78-.56,5.78-.56,28-16.48,34.6-20.43A140.5,140.5,0,0,0,278,152.77l-14.22-7.42-47.3,28.33-5.36,1.55c-15.55,6-16.43,13.27-16.54,15,0,.31-.07.41-.06.62h0a9.21,9.21,0,0,0,2.31.54C201.19,191.94,208.53,190.82,212.05,189.83Z"/><polygon class="cls-68" points="272.15 148.44 259.95 142.03 256.04 144.75 264.52 152.63 272.15 148.44"/><path class="cls-70" d="M257.81,127.79l-.42,17.32h0a.46.46,0,0,0,.27.38,1.3,1.3,0,0,0,.6.15V127.79Z"/><path class="cls-3" d="M258.72,127.79h-.45v17.86a1.35,1.35,0,0,0,.71-.15.46.46,0,0,0,.27-.38h0Z"/><path class="cls-71" d="M258.59,127.61a.2.2,0,0,1,0,.37.72.72,0,0,1-.64,0,.2.2,0,0,1,0-.38A.72.72,0,0,1,258.59,127.61Z"/><g class="cls-27"><g class="cls-72"><g class="cls-27"><path class="cls-73" d="M254.73,128.41l.26-.15a.17.17,0,0,1,.17,0l-.26.15a.17.17,0,0,0-.17,0"/></g></g></g><path class="cls-3" d="M261.2,133.15l-.26.15a.17.17,0,0,0,.07-.16l.26-.15A.17.17,0,0,1,261.2,133.15Z"/><g class="cls-74"><g class="cls-27"><path class="cls-3" d="M261,133.15l.26-.15a.17.17,0,0,1-.07.16l-.26.15a.17.17,0,0,0,.07-.16"/></g></g><polygon class="cls-3" points="261.01 132.24 261.27 132.09 261.27 133 261.01 133.15 261.01 132.24"/><polygon class="cls-3" points="254.91 128.43 255.16 128.28 261.03 131.66 260.77 131.81 254.91 128.43"/><path class="cls-70" d="M260.77,131.81a.54.54,0,0,1,.24.42v.91c0,.15-.11.22-.24.14l-5.86-3.39a.54.54,0,0,1-.24-.42v-.91c0-.15.11-.22.25-.14Z"/><path class="cls-3" d="M260.77,131.81l.26-.15a.54.54,0,0,1,.24.42l-.26.15A.54.54,0,0,0,260.77,131.81Z"/><g class="cls-75"><g class="cls-27"><path class="cls-3" d="M260.77,131.81l.26-.15a.43.43,0,0,1,.11.09l-.26.15a.43.43,0,0,0-.11-.09"/><path class="cls-3" d="M260.87,131.9l.26-.15a.59.59,0,0,1,.09.15l-.26.15a.59.59,0,0,0-.09-.15"/><path class="cls-3" d="M261,132.05l.26-.15a.46.46,0,0,1,0,.18l-.26.15a.46.46,0,0,0,0-.18"/></g></g><polygon class="cls-3" points="259.06 164.47 274.81 154.53 274.81 152.08 272.5 151.31 272.15 148.44 264.52 152.63 264.45 146.2 262.97 147.25 262.97 144.31 258.02 147.25 259.06 164.47"/><polygon class="cls-68" points="259.06 164.47 259.06 153.83 261.65 153.83 261.65 151.66 243.59 141.37 243.59 144.31 246.25 146.55 246.25 156.56 259.06 164.47"/><polygon class="cls-73" points="243.59 141.37 245.55 140.11 263.4 150.33 261.65 151.66 243.59 141.37"/><polygon class="cls-3" points="261.65 151.66 261.65 153.83 263.4 152.63 263.4 150.33 261.65 151.66"/><polygon class="cls-73" points="247.75 141.37 252.34 138.85 262.97 144.31 258.02 147.25 247.75 141.37"/><polygon class="cls-68" points="252.53 163.67 252.51 168.78 239.16 161.07 239.17 155.96 252.53 163.67"/><polygon class="cls-3" points="252.53 163.67 258.55 160.17 258.54 165.28 252.51 168.78 252.53 163.67"/><polygon class="cls-71" points="239.17 155.96 245.2 152.46 258.55 160.17 252.53 163.67 239.17 155.96"/><polygon class="cls-68" points="243.46 168.79 243.45 173.91 230.1 166.2 230.11 161.09 243.46 168.79"/><polygon class="cls-3" points="243.46 168.79 249.49 165.29 249.48 170.4 243.45 173.91 243.46 168.79"/><polygon class="cls-71" points="230.11 161.09 236.14 157.58 249.49 165.29 243.46 168.79 230.11 161.09"/><polygon class="cls-68" points="234.4 173.92 234.38 179.03 221.03 171.32 221.05 166.21 234.4 173.92"/><polygon class="cls-3" points="234.4 173.92 240.43 170.42 240.41 175.53 234.38 179.03 234.4 173.92"/><polygon class="cls-71" points="221.05 166.21 227.08 162.71 240.43 170.42 234.4 173.92 221.05 166.21"/><polygon class="cls-76" points="248.73 147.57 248.72 149.03 248.13 148.69 248.13 147.22 248.73 147.57"/><polygon class="cls-76" points="250.25 148.45 250.25 149.91 249.65 149.57 249.66 148.11 250.25 148.45"/><polygon class="cls-76" points="251.77 149.33 251.77 150.79 251.17 150.45 251.18 148.99 251.77 149.33"/><polygon class="cls-76" points="253.29 150.21 253.29 151.67 252.69 151.33 252.7 149.87 253.29 150.21"/><polygon class="cls-76" points="254.81 151.1 254.81 152.56 254.21 152.21 254.22 150.75 254.81 151.1"/><polygon class="cls-76" points="256.33 151.98 256.33 153.44 255.74 153.09 255.74 151.63 256.33 151.98"/><polygon class="cls-76" points="248.73 151.06 248.72 152.53 248.13 152.19 248.13 150.72 248.73 151.06"/><polygon class="cls-76" points="250.25 151.94 250.25 153.41 249.65 153.07 249.66 151.6 250.25 151.94"/><polygon class="cls-76" points="251.77 152.83 251.77 154.29 251.17 153.95 251.18 152.49 251.77 152.83"/><polygon class="cls-76" points="253.29 153.72 253.29 155.17 252.69 154.83 252.7 153.37 253.29 153.72"/><polygon class="cls-76" points="254.81 154.59 254.81 156.06 254.21 155.71 254.22 154.25 254.81 154.59"/><polygon class="cls-76" points="256.33 155.47 256.33 156.94 255.74 156.59 255.74 155.13 256.33 155.47"/><path class="cls-3" d="M252.11,199.79l6.3,2.44A17.85,17.85,0,0,0,269,200.51c4.9-2.71,31-18.09,31-18.09a10.16,10.16,0,0,0,3.75-7.45l-17.36,9.15Z"/><path class="cls-3" d="M252.15,199.42c.05-.83.48-4.33,8-7.26l2.6-.75,33.58-20,7.11,3.71.23-.18-7.73-4-33.58,20-2.6.75c-7.54,2.93-8,6.43-8,7.26,0,.15,0,.2,0,.3a.63.63,0,0,0,.39.57s0,0,0-.07S252.14,199.57,252.15,199.42Z"/><path class="cls-68" d="M303.23,175a68.11,68.11,0,0,1-6.36,4.44c-3.21,1.91-27.42,16.14-27.42,16.14a4.85,4.85,0,0,0-2.8.27c-1.16.62-4.31,2.87-6,3.35a23.38,23.38,0,0,1-7.39.75,4.46,4.46,0,0,1-1.12-.26s0,0,0,.06a3.71,3.71,0,0,0,1.3.35,23.38,23.38,0,0,0,7.39-.75c1.71-.48,4.86-2.74,6-3.35a4.85,4.85,0,0,1,2.8-.27s24.21-14.22,27.42-16.14a68.3,68.3,0,0,0,6.4-4.47Z"/><path class="cls-69" d="M252.15,199.42c.05-.83.48-4.33,8-7.26l2.6-.75,33.58-20,6.89,3.6,0,0-7.11-3.71-33.58,20L260,192c-7.54,2.93-8,6.43-8,7.26,0,.15,0,.2,0,.3s0,0,0,.07l.17.08h0C252.11,199.62,252.14,199.57,252.15,199.42Z"/><path class="cls-69" d="M260.62,199.24c1.71-.48,4.86-2.74,6-3.35a4.85,4.85,0,0,1,2.8-.27s24.21-14.22,27.42-16.14a68.11,68.11,0,0,0,6.36-4.44l-6.89-3.6-33.58,20-2.6.75c-7.54,2.93-8,6.43-8,7.26,0,.15,0,.2,0,.3h0a4.46,4.46,0,0,0,1.12.26A23.38,23.38,0,0,0,260.62,199.24Z"/><polygon class="cls-68" points="300.4 172.94 294.49 169.83 292.59 171.15 296.7 174.97 300.4 172.94"/><path class="cls-70" d="M260.77,186.83l-.2,8.4h0a.22.22,0,0,0,.13.18.63.63,0,0,0,.29.07v-8.66Z"/><path class="cls-3" d="M261.21,186.83H261v8.66a.65.65,0,0,0,.34-.07.22.22,0,0,0,.13-.18h0Z"/><path class="cls-71" d="M261.14,186.74c.08,0,.08.13,0,.18a.34.34,0,0,1-.31,0c-.09-.05-.08-.13,0-.18A.33.33,0,0,1,261.14,186.74Z"/><path class="cls-70" d="M259.25,187.59,259,196h0a.22.22,0,0,0,.13.18.63.63,0,0,0,.29.07v-8.66Z"/><path class="cls-3" d="M259.69,187.59h-.22v8.66a.65.65,0,0,0,.34-.07.22.22,0,0,0,.13-.18h0Z"/><path class="cls-71" d="M259.62,187.5a.09.09,0,0,1,0,.18.34.34,0,0,1-.31,0c-.09-.05-.08-.13,0-.18A.33.33,0,0,1,259.62,187.5Z"/><polygon class="cls-3" points="294.06 180.71 301.69 175.89 301.69 174.7 300.57 174.33 300.4 172.94 296.7 174.97 296.67 171.85 295.95 172.36 295.95 170.94 293.55 172.36 294.06 180.71"/><polygon class="cls-68" points="287.85 172.02 287.85 176.88 294.06 180.71 294.06 175.55 295.31 175.55 295.31 174.5 287.88 170.26 287.85 172.02"/><polygon class="cls-73" points="287.88 170.27 288.58 169.51 296.16 173.86 295.45 174.57 287.88 170.27"/><polygon class="cls-3" points="295.31 174.5 295.31 175.55 296.16 174.97 296.16 173.86 295.31 174.5"/><polygon class="cls-73" points="288.58 169.51 290.8 168.29 295.95 170.94 293.55 172.36 288.58 169.51"/><polygon class="cls-68" points="290.89 180.32 290.88 182.8 284.41 179.06 284.42 176.59 290.89 180.32"/><polygon class="cls-3" points="290.89 180.32 293.81 178.62 293.8 181.1 290.88 182.8 290.89 180.32"/><polygon class="cls-71" points="284.42 176.59 287.34 174.89 293.81 178.62 290.89 180.32 284.42 176.59"/><polygon class="cls-68" points="286.5 182.81 286.49 185.28 280.02 181.55 280.02 179.07 286.5 182.81"/><polygon class="cls-3" points="286.5 182.81 289.42 181.11 289.41 183.59 286.49 185.28 286.5 182.81"/><polygon class="cls-71" points="280.02 179.07 282.94 177.37 289.42 181.11 286.5 182.81 280.02 179.07"/><polygon class="cls-68" points="282.1 185.29 282.1 187.77 275.62 184.03 275.63 181.56 282.1 185.29"/><polygon class="cls-3" points="282.1 185.29 285.02 183.59 285.02 186.07 282.1 187.77 282.1 185.29"/><polygon class="cls-71" points="275.63 181.56 278.55 179.86 285.02 183.59 282.1 185.29 275.63 181.56"/><polygon class="cls-68" points="277.71 187.78 277.7 190.25 271.23 186.52 271.24 184.04 277.71 187.78"/><polygon class="cls-3" points="277.71 187.78 280.63 186.08 280.62 188.56 277.7 190.25 277.71 187.78"/><polygon class="cls-71" points="271.24 184.04 274.16 182.34 280.63 186.08 277.71 187.78 271.24 184.04"/><polygon class="cls-68" points="273.32 190.26 273.31 192.74 266.84 189 266.84 186.52 273.32 190.26"/><polygon class="cls-3" points="273.32 190.26 276.24 188.56 276.23 191.04 273.31 192.74 273.32 190.26"/><polygon class="cls-71" points="266.84 186.52 269.77 184.83 276.24 188.56 273.32 190.26 266.84 186.52"/><polygon class="cls-68" points="268.92 192.75 268.92 195.22 262.44 191.49 262.45 189.01 268.92 192.75"/><polygon class="cls-3" points="268.92 192.75 271.85 191.05 271.84 193.52 268.92 195.22 268.92 192.75"/><polygon class="cls-71" points="262.45 189.01 265.37 187.31 271.85 191.05 268.92 192.75 262.45 189.01"/><polygon class="cls-76" points="289.05 172.51 289.05 173.22 288.76 173.06 288.76 172.35 289.05 172.51"/><polygon class="cls-76" points="289.79 172.94 289.78 173.65 289.5 173.48 289.5 172.78 289.79 172.94"/><polygon class="cls-76" points="290.52 173.37 290.52 174.08 290.23 173.91 290.24 173.2 290.52 173.37"/><polygon class="cls-76" points="291.26 173.8 291.26 174.5 290.97 174.34 290.97 173.63 291.26 173.8"/><polygon class="cls-76" points="292 174.22 292 174.94 291.71 174.77 291.71 174.06 292 174.22"/><polygon class="cls-76" points="292.74 174.65 292.74 175.36 292.45 175.19 292.45 174.49 292.74 174.65"/><polygon class="cls-76" points="289.05 174.21 289.05 174.92 288.76 174.75 288.76 174.05 289.05 174.21"/><polygon class="cls-76" points="289.79 174.64 289.78 175.35 289.5 175.18 289.5 174.47 289.79 174.64"/><polygon class="cls-76" points="290.52 175.07 290.52 175.77 290.23 175.61 290.24 174.9 290.52 175.07"/><polygon class="cls-76" points="291.26 175.49 291.26 176.2 290.97 176.04 290.97 175.33 291.26 175.49"/><polygon class="cls-76" points="292 175.92 292 176.63 291.71 176.46 291.71 175.76 292 175.92"/><polygon class="cls-76" points="292.74 176.35 292.74 177.06 292.45 176.89 292.45 176.18 292.74 176.35"/></g></svg>