<svg xmlns="http://www.w3.org/2000/svg" xmlns:xlink="http://www.w3.org/1999/xlink" viewBox="0 0 461.08 357.78"><defs><style>.cls-1,.cls-4{fill:none;}.cls-2{fill:#556040;}.cls-3{fill:#f9d162;}.cls-4{stroke:#e5bd5c;stroke-linecap:round;stroke-linejoin:round;stroke-width:2.21px;}.cls-5{fill:#d4c0dd;}.cls-6{fill:#6c6170;}.cls-7{fill:url(#linear-gradient);}.cls-24,.cls-8{fill:#5c515f;}.cls-23,.cls-8{opacity:0.6;}.cls-9{fill:url(#linear-gradient-2);}.cls-10{fill:url(#linear-gradient-3);}.cls-11{fill:#a78746;}.cls-12{fill:#f2d651;}.cls-13{fill:#d8ae5b;}.cls-14{fill:#c19e4f;}.cls-15{fill:#d8bdab;}.cls-16{fill:#f47160;}.cls-17{fill:#c45c4e;}.cls-18{fill:url(#linear-gradient-4);}.cls-19{fill:url(#linear-gradient-5);}.cls-20{fill:url(#linear-gradient-6);}.cls-21{fill:#e26e5a;}.cls-22{fill:#f97e62;}.cls-25{fill:url(#linear-gradient-7);}.cls-26{fill:url(#green_halftone);}.cls-27{fill:url(#linear-gradient-8);}.cls-28{fill:url(#green_halftone-7);}.cls-29{fill:url(#linear-gradient-9);}.cls-30{fill:url(#linear-gradient-10);}.cls-31{fill:url(#linear-gradient-11);}.cls-32{fill:#b5b5b5;}.cls-33{fill:#727272;}.cls-34{fill:#ccc;}.cls-35{fill:#a7a0af;}.cls-36{fill:#817887;}.cls-37{fill:#bdb3c6;}.cls-38{fill:#9c93a3;}.cls-39{fill:#85778a;}</style><linearGradient id="linear-gradient" x1="165.66" y1="88.31" x2="167.68" y2="88.31" gradientUnits="userSpaceOnUse"><stop offset="0.01" stop-color="#d4c0dd"/><stop offset="1" stop-color="#464049"/></linearGradient><linearGradient id="linear-gradient-2" x1="227.35" y1="103.08" x2="229.37" y2="103.08" xlink:href="#linear-gradient"/><linearGradient id="linear-gradient-3" x1="257.53" y1="91.04" x2="259.82" y2="91.04" xlink:href="#linear-gradient"/><linearGradient id="linear-gradient-4" x1="50.92" y1="153.69" x2="52.94" y2="153.69" xlink:href="#linear-gradient"/><linearGradient id="linear-gradient-5" x1="112.61" y1="168.46" x2="114.63" y2="168.46" xlink:href="#linear-gradient"/><linearGradient id="linear-gradient-6" x1="142.8" y1="156.43" x2="145.08" y2="156.43" xlink:href="#linear-gradient"/><linearGradient id="linear-gradient-7" x1="233.86" y1="245.83" x2="241.19" y2="245.83" gradientUnits="userSpaceOnUse"><stop offset="0" stop-color="#bace8d"/><stop offset="1" stop-color="#899b68"/></linearGradient><pattern id="green_halftone" data-name="green halftone" width="10" height="10" patternTransform="translate(3.9 49.52) scale(0.03)" patternUnits="userSpaceOnUse" viewBox="0 0 10 10"><rect class="cls-1" width="10" height="10"/><circle class="cls-2" cx="7.5" cy="10" r="1.66" transform="translate(-3.57 15.81) rotate(-80.82)"/><circle class="cls-2" cx="2.5" cy="10" r="1.66" transform="translate(-7.77 10.87) rotate(-80.82)"/><circle class="cls-2" cx="10" cy="5" r="1.66" transform="translate(3.47 14.07) rotate(-80.82)"/><circle class="cls-2" cx="5" cy="5" r="1.66" transform="translate(-0.73 9.14) rotate(-80.82)"/><circle class="cls-2" cy="5" r="1.66" transform="translate(-4.94 4.2) rotate(-80.82)"/><circle class="cls-2" cx="7.5" r="1.66" transform="translate(6.3 7.4) rotate(-80.82)"/><circle class="cls-2" cx="2.5" r="1.66" transform="translate(2.1 2.47) rotate(-80.82)"/></pattern><linearGradient id="linear-gradient-8" x1="233.23" y1="184.4" x2="239.44" y2="184.4" xlink:href="#linear-gradient-7"/><pattern id="green_halftone-7" data-name="green halftone" width="10" height="10" patternTransform="translate(3.27 40.04) scale(0.02)" patternUnits="userSpaceOnUse" viewBox="0 0 10 10"><rect class="cls-1" width="10" height="10"/><circle class="cls-2" cx="7.5" cy="10" r="1.66" transform="translate(-3.57 15.81) rotate(-80.82)"/><circle class="cls-2" cx="2.5" cy="10" r="1.66" transform="translate(-7.77 10.87) rotate(-80.82)"/><circle class="cls-2" cx="10" cy="5" r="1.66" transform="translate(3.47 14.07) rotate(-80.82)"/><circle class="cls-2" cx="5" cy="5" r="1.66" transform="translate(-0.73 9.14) rotate(-80.82)"/><circle class="cls-2" cy="5" r="1.66" transform="translate(-4.94 4.2) rotate(-80.82)"/><circle class="cls-2" cx="7.5" r="1.66" transform="translate(6.3 7.4) rotate(-80.82)"/><circle class="cls-2" cx="2.5" r="1.66" transform="translate(2.1 2.47) rotate(-80.82)"/></pattern><linearGradient id="linear-gradient-9" x1="278.14" y1="154.92" x2="280.15" y2="154.92" xlink:href="#linear-gradient"/><linearGradient id="linear-gradient-10" x1="339.83" y1="169.69" x2="341.84" y2="169.69" xlink:href="#linear-gradient"/><linearGradient id="linear-gradient-11" x1="370.01" y1="157.66" x2="372.29" y2="157.66" xlink:href="#linear-gradient"/></defs><title>logos-mega2</title><g id="Layer_16" data-name="Layer 16"><polygon class="cls-3" points="125.34 100.92 229.47 161.3 333.29 101.04 229.32 40.68 125.34 100.92"/><line class="cls-4" x1="138.08" y1="100.47" x2="184.09" y2="127.29"/><line class="cls-4" x1="142.5" y1="97.72" x2="188.51" y2="124.54"/><line class="cls-4" x1="147.01" y1="95.05" x2="193.03" y2="121.87"/><line class="cls-4" x1="151.65" y1="92.51" x2="197.67" y2="119.33"/><line class="cls-4" x1="155.96" y1="89.64" x2="201.98" y2="116.46"/><line class="cls-4" x1="160.61" y1="87.1" x2="206.62" y2="113.92"/><line class="cls-4" x1="165.25" y1="84.23" x2="211.27" y2="111.04"/><line class="cls-4" x1="170.56" y1="81.35" x2="216.58" y2="108.17"/><line class="cls-4" x1="175.87" y1="78.48" x2="221.89" y2="105.3"/><line class="cls-4" x1="180.85" y1="75.61" x2="226.86" y2="102.42"/><line class="cls-4" x1="234.95" y1="100.78" x2="280.97" y2="127.6"/><line class="cls-4" x1="239.37" y1="98.03" x2="285.39" y2="124.85"/><line class="cls-4" x1="243.89" y1="95.36" x2="289.9" y2="122.18"/><line class="cls-4" x1="248.53" y1="92.82" x2="294.54" y2="119.64"/><line class="cls-4" x1="252.84" y1="89.95" x2="298.85" y2="116.77"/><line class="cls-4" x1="257.48" y1="87.41" x2="303.5" y2="114.23"/><line class="cls-4" x1="262.13" y1="84.53" x2="308.14" y2="111.35"/><line class="cls-4" x1="267.44" y1="81.66" x2="313.45" y2="108.48"/><line class="cls-4" x1="272.75" y1="78.79" x2="318.76" y2="105.6"/><line class="cls-4" x1="277.72" y1="75.91" x2="323.74" y2="102.73"/><line class="cls-4" x1="274.7" y1="72.43" x2="228.69" y2="99.24"/><line class="cls-4" x1="270.28" y1="69.68" x2="224.27" y2="96.49"/><line class="cls-4" x1="265.77" y1="67.01" x2="219.75" y2="93.83"/><line class="cls-4" x1="261.13" y1="64.47" x2="215.11" y2="91.28"/><line class="cls-4" x1="256.82" y1="61.59" x2="210.8" y2="88.41"/><line class="cls-4" x1="252.17" y1="59.05" x2="206.16" y2="85.87"/><line class="cls-4" x1="247.53" y1="56.18" x2="201.51" y2="83"/><line class="cls-4" x1="242.22" y1="53.31" x2="196.2" y2="80.12"/><line class="cls-4" x1="236.91" y1="50.43" x2="190.89" y2="77.25"/><line class="cls-4" x1="231.93" y1="47.56" x2="185.92" y2="74.38"/><line class="cls-4" x1="274.04" y1="129.16" x2="228.02" y2="155.98"/><line class="cls-4" x1="269.62" y1="126.41" x2="223.6" y2="153.23"/><line class="cls-4" x1="265.1" y1="123.74" x2="219.09" y2="150.56"/><line class="cls-4" x1="260.46" y1="121.2" x2="214.44" y2="148.02"/><line class="cls-4" x1="256.15" y1="118.33" x2="210.13" y2="145.15"/><line class="cls-4" x1="251.51" y1="115.79" x2="205.49" y2="142.61"/><line class="cls-4" x1="246.86" y1="112.92" x2="200.85" y2="139.73"/><line class="cls-4" x1="241.55" y1="110.04" x2="195.54" y2="136.86"/><line class="cls-4" x1="236.24" y1="107.17" x2="190.23" y2="133.99"/><line class="cls-4" x1="231.27" y1="104.3" x2="185.25" y2="131.11"/><path class="cls-5" d="M166.15,75.45a21,21,0,0,1-1.84-2.92,32.2,32.2,0,0,1-1.39-3,26.59,26.59,0,0,1-1-3.07c-.14-.52-.26-1-.35-1.56,0-.26-.09-.53-.12-.79a7.8,7.8,0,0,1-.06-.8h0q.29.35.54.72c.17.24.33.48.48.73.31.49.58,1,.85,1.47a28.22,28.22,0,0,1,1.36,3,30,30,0,0,1,1,3.07,16.67,16.67,0,0,1,.57,3.15Z"/><path class="cls-6" d="M161.36,63.29q.29.35.54.72c.17.24.33.48.48.73.31.49.58,1,.85,1.47a28.22,28.22,0,0,1,1.36,3,30,30,0,0,1,1,3.07,16.67,16.67,0,0,1,.57,3.15h0"/><path class="cls-5" d="M157.65,85l0,0q.16-.36.35-.69c.12-.22.25-.43.39-.64.27-.42.55-.82.85-1.21a22.39,22.39,0,0,1,1.93-2.19,25.3,25.3,0,0,1,2.17-2,15.31,15.31,0,0,1,2.48-1.64"/><path class="cls-6" d="M165.79,76.62l0,0a15.56,15.56,0,0,1-1.6,2.52,25.42,25.42,0,0,1-1.91,2.21,22.3,22.3,0,0,1-2.15,2c-.38.3-.78.6-1.19.87l-.63.4q-.32.19-.67.36"/><path class="cls-5" d="M167.12,74.32c-1.07,0-3.42,1.26-3.54,2.64s3.19.82,3.54.69,1.44-.82,1.3-1.85S168.2,74.32,167.12,74.32Z"/><rect class="cls-7" x="165.66" y="76.8" width="2.02" height="23.01"/><path class="cls-6" d="M163.6,77.22s4.15-.14,4.33-2.72c0,0,1.35,1.89-.47,3S163.37,77.55,163.6,77.22Z"/><path class="cls-6" d="M179.64,78.27v0q-.41.06-.81.09l-.81,0c-.54,0-1.08,0-1.63,0a30.76,30.76,0,0,1-3.25-.34c-1.08-.17-2.17-.38-3.26-.65a22.86,22.86,0,0,1-3.26-1.05v0"/><path class="cls-5" d="M166.62,76.33a19.62,19.62,0,0,1,3.25-.08c1.08.05,2.17.16,3.25.31a32,32,0,0,1,3.26.63c.54.14,1.09.29,1.63.46l.81.28q.41.15.81.33"/><path class="cls-8" d="M190.51,108.19a6.79,6.79,0,0,0,.37-.57c.11-.19.21-.38.31-.57.19-.38.36-.76.51-1.15a15.55,15.55,0,0,0,.69-2.29,16,16,0,0,0,.35-2.29c0-.35,0-.69,0-1h.47a2.6,2.6,0,0,0,1.41-.34h0a.73.73,0,0,0,.21-.57,1.54,1.54,0,0,0-.26-.73c.84-.08,1.67-.2,2.49-.33,1.14-.2,2.26-.44,3.38-.71s2.22-.59,3.31-1c.54-.19,1.09-.38,1.62-.6l.8-.34q.4-.18.79-.38h0v0l-.88,0-.87.08c-.58.07-1.15.15-1.72.25-1.14.2-2.26.45-3.37.73s-2.22.61-3.31,1c-.83.29-1.65.59-2.45.94A3.59,3.59,0,0,0,192,96.87a1.16,1.16,0,0,0-.29,0h0c-.08,0-.19,0-.3.13a.76.76,0,0,0-.21.21c-.21-.18-.41-.37-.63-.55a24,24,0,0,0-2.15-1.53A24.65,24.65,0,0,0,186,93.8c-.43-.21-.87-.41-1.33-.6l-.71-.27-.75-.24,0,0a5.17,5.17,0,0,0,.39.47c.14.15.29.3.44.45.3.29.62.57,1,.84A21.47,21.47,0,0,0,187.09,96c.77.47,1.58.93,2.44,1.34.45.21.91.42,1.38.62a2,2,0,0,0,0,.4H166.8v1.42h24.77a1.93,1.93,0,0,0,.45.3c-.21.42-.39.84-.56,1.25a17.85,17.85,0,0,0-.72,2.29,14.21,14.21,0,0,0-.38,2.29,10.48,10.48,0,0,0,0,1.15c0,.19,0,.38,0,.57a4.26,4.26,0,0,0,.1.57Z"/><path class="cls-5" d="M227.84,90.22A21,21,0,0,1,226,87.3a32.2,32.2,0,0,1-1.39-3,26.59,26.59,0,0,1-1-3.07c-.14-.52-.26-1-.35-1.56,0-.26-.09-.53-.12-.79a7.8,7.8,0,0,1-.06-.8h0q.29.35.54.72c.17.24.33.48.48.73.31.49.58,1,.85,1.47a28.22,28.22,0,0,1,1.36,3,30,30,0,0,1,1,3.07,16.67,16.67,0,0,1,.57,3.15Z"/><path class="cls-6" d="M223,78.06q.29.35.54.72c.17.24.33.48.48.73.31.49.58,1,.85,1.47a28.22,28.22,0,0,1,1.36,3,30,30,0,0,1,1,3.07,16.67,16.67,0,0,1,.57,3.15h0"/><path class="cls-5" d="M219.34,99.74l0,0q.16-.36.35-.69c.12-.22.25-.43.39-.64.27-.42.55-.82.85-1.21A22.39,22.39,0,0,1,222.83,95,25.3,25.3,0,0,1,225,93a15.31,15.31,0,0,1,2.48-1.64"/><path class="cls-6" d="M227.48,91.39l0,0a15.56,15.56,0,0,1-1.6,2.52A25.42,25.42,0,0,1,224,96.15a22.3,22.3,0,0,1-2.15,2c-.38.3-.78.6-1.19.87l-.63.4q-.32.19-.67.36"/><path class="cls-5" d="M228.81,89.09c-1.07,0-3.42,1.26-3.54,2.64s3.19.82,3.54.69,1.44-.82,1.3-1.85S229.88,89.09,228.81,89.09Z"/><rect class="cls-9" x="227.35" y="91.57" width="2.02" height="23.01"/><path class="cls-6" d="M225.29,92s4.15-.14,4.33-2.72c0,0,1.35,1.89-.47,3S225.06,92.32,225.29,92Z"/><path class="cls-6" d="M241.33,93v0q-.41.06-.81.09l-.81,0c-.54,0-1.08,0-1.63,0a30.76,30.76,0,0,1-3.25-.34c-1.08-.17-2.17-.38-3.26-.65a22.86,22.86,0,0,1-3.26-1.05v0"/><path class="cls-5" d="M228.31,91.11a19.62,19.62,0,0,1,3.25-.08c1.08.05,2.17.16,3.25.31a32,32,0,0,1,3.26.63c.54.14,1.09.29,1.63.46l.81.28q.41.15.81.33"/><path class="cls-8" d="M252.2,123a6.79,6.79,0,0,0,.37-.57c.11-.19.21-.38.31-.57.19-.38.36-.76.51-1.15a15.55,15.55,0,0,0,.69-2.29,16,16,0,0,0,.35-2.29c0-.35,0-.69,0-1h.47a2.6,2.6,0,0,0,1.41-.34h0a.73.73,0,0,0,.21-.57,1.54,1.54,0,0,0-.26-.73c.84-.08,1.67-.2,2.49-.33,1.14-.2,2.26-.44,3.38-.71s2.22-.59,3.31-1c.54-.19,1.09-.38,1.62-.6l.8-.34q.4-.18.79-.38h0v0l-.88,0-.87.08c-.58.07-1.15.15-1.72.25-1.14.2-2.26.45-3.37.73s-2.22.61-3.31,1c-.83.29-1.65.59-2.45.94a3.59,3.59,0,0,0-2.43-1.45,1.16,1.16,0,0,0-.29,0h0c-.08,0-.19,0-.3.13a.76.76,0,0,0-.21.21c-.21-.18-.41-.37-.63-.55a24,24,0,0,0-2.15-1.53,24.65,24.65,0,0,0-2.41-1.36c-.43-.21-.87-.41-1.33-.6l-.71-.27-.75-.24,0,0a5.17,5.17,0,0,0,.39.47c.14.15.29.3.44.45.3.29.62.57,1,.84a21.47,21.47,0,0,0,2.17,1.51c.77.47,1.58.93,2.44,1.34.45.21.91.42,1.38.62a2,2,0,0,0,0,.4H228.49v1.42h24.77a1.93,1.93,0,0,0,.45.3c-.21.42-.39.84-.56,1.25a17.85,17.85,0,0,0-.72,2.29,14.21,14.21,0,0,0-.38,2.29,10.48,10.48,0,0,0,0,1.15c0,.19,0,.38,0,.57a4.26,4.26,0,0,0,.1.57Z"/><path class="cls-5" d="M258.08,76.49A23.72,23.72,0,0,1,256,73.18a36.44,36.44,0,0,1-1.58-3.4,30.09,30.09,0,0,1-1.18-3.47c-.15-.59-.29-1.17-.4-1.77-.05-.3-.1-.6-.14-.9a8.83,8.83,0,0,1-.07-.91h0q.33.4.61.81c.19.27.37.55.54.82.35.55.66,1.11,1,1.67a32,32,0,0,1,1.54,3.41,34,34,0,0,1,1.15,3.48,18.87,18.87,0,0,1,.64,3.57Z"/><path class="cls-6" d="M252.66,62.73q.33.4.61.81c.19.27.37.55.54.82.35.55.66,1.11,1,1.67a32,32,0,0,1,1.54,3.41,34,34,0,0,1,1.15,3.48,18.87,18.87,0,0,1,.64,3.57h0"/><path class="cls-5" d="M248.47,87.27l0,0q.18-.4.39-.78c.14-.25.29-.49.44-.73.3-.48.63-.93,1-1.37a25.34,25.34,0,0,1,2.18-2.48,28.63,28.63,0,0,1,2.46-2.21,17.33,17.33,0,0,1,2.8-1.86"/><path class="cls-6" d="M257.68,77.82l0,0a17.61,17.61,0,0,1-1.81,2.85,28.77,28.77,0,0,1-2.16,2.5,25.24,25.24,0,0,1-2.43,2.23c-.43.34-.88.68-1.35,1-.23.15-.47.31-.72.45s-.5.28-.76.4"/><path class="cls-5" d="M259.19,75.21c-1.22,0-3.87,1.43-4,3s3.61.93,4,.78,1.62-.93,1.47-2.09S260.4,75.21,259.19,75.21Z"/><rect class="cls-10" x="257.53" y="78.02" width="2.28" height="26.05"/><path class="cls-6" d="M255.2,78.5s4.7-.16,4.91-3.08c0,0,1.53,2.14-.54,3.34S254.94,78.87,255.2,78.5Z"/><path class="cls-6" d="M273.36,79.69v0q-.46.07-.92.1l-.92,0c-.61,0-1.23,0-1.84,0a34.82,34.82,0,0,1-3.68-.39c-1.23-.19-2.46-.43-3.68-.74a25.87,25.87,0,0,1-3.69-1.19v0"/><path class="cls-5" d="M258.62,77.5a22.21,22.21,0,0,1,3.68-.09c1.23.06,2.45.18,3.68.36a36.22,36.22,0,0,1,3.68.71c.61.16,1.23.32,1.84.52l.92.32q.46.17.92.38"/><path class="cls-8" d="M221,74s8.08.37,10.75,0c.93-.13,4.68-1.32,3-2.85s-10.48-.94-10.48-.94Z"/><path class="cls-11" d="M222,66.35c1.53-.68,2.77.45,2.77,2.51s-1.22,4.29-2.75,5-2.77-.44-2.77-2.51S220.52,67,222,66.35Z"/><path class="cls-12" d="M222.85,66.15h0a1.66,1.66,0,0,1,.35,0h0a1.56,1.56,0,0,1,.33.11h0l-3.76-1.68h0l-.14-.05-.14,0h-.57l-.17,0h-.1l-.13,0-.25.1a3.17,3.17,0,0,0-.59.35l0,0-.23.19-.18.17,0,0,0,0-.11.11-.15.18-.15.19,0,.06,0,0-.08.11-.14.22-.15.25,0,0,0,0-.12.22-.15.32,0,.1,0,.1-.07.19q-.08.23-.15.47v0l0,.12c0,.17-.08.33-.11.5s0,0,0,.07a5.59,5.59,0,0,0-.07.88,2.65,2.65,0,0,0,1.25,2.57l3.76,1.68a2.65,2.65,0,0,1-1.25-2.57,5.59,5.59,0,0,1,.07-.88c0-.19.07-.38.12-.57l0-.12a6.63,6.63,0,0,1,.23-.68l0-.1a6.43,6.43,0,0,1,.3-.64l0,0a6,6,0,0,1,.39-.61l0,0a5.08,5.08,0,0,1,.45-.53l0,0a4,4,0,0,1,.47-.41,3.17,3.17,0,0,1,.59-.35,2.4,2.4,0,0,1,.38-.13h.05A1.94,1.94,0,0,1,222.85,66.15Z"/><path class="cls-12" d="M235.6,123.23h0a1.66,1.66,0,0,1,.35,0h0a1.56,1.56,0,0,1,.33.11h0l-3.76-1.68h0l-.14-.05-.14,0h-.57l-.17,0h-.1l-.13,0-.25.1a3.17,3.17,0,0,0-.59.35l0,0-.23.19-.18.17,0,0,0,0-.11.11-.15.18-.15.19,0,.06,0,0-.08.11-.14.22-.15.25,0,0,0,0L229,124l-.15.32,0,.1,0,.1-.07.19q-.08.23-.15.47v0l0,.12c0,.17-.08.33-.11.5s0,0,0,.07a5.59,5.59,0,0,0-.07.88,2.65,2.65,0,0,0,1.25,2.57L233.3,131A2.65,2.65,0,0,1,232,128.4a5.59,5.59,0,0,1,.07-.88c0-.19.07-.38.12-.57l0-.12a6.63,6.63,0,0,1,.23-.68l0-.1a6.43,6.43,0,0,1,.3-.64l0,0a6,6,0,0,1,.39-.61l0,0a5.08,5.08,0,0,1,.45-.53l0,0a4,4,0,0,1,.47-.41,3.17,3.17,0,0,1,.59-.35,2.4,2.4,0,0,1,.38-.13h.05A1.94,1.94,0,0,1,235.6,123.23Z"/><path class="cls-8" d="M204.57,133.94s8.08.37,10.75,0c.93-.13,4.68-1.32,3-2.85s-10.48-.94-10.48-.94Z"/><path class="cls-11" d="M205.64,126.26c1.53-.68,2.77.45,2.77,2.51s-1.22,4.29-2.75,5-2.77-.44-2.77-2.51S204.11,126.94,205.64,126.26Z"/><path class="cls-12" d="M206.44,126.06h0a1.66,1.66,0,0,1,.35,0h0a1.56,1.56,0,0,1,.33.11h0l-3.76-1.68h0l-.14-.05-.14,0h-.57l-.17,0h-.1l-.13,0-.25.1a3.17,3.17,0,0,0-.59.35l0,0-.23.19-.18.17,0,0,0,0-.11.11-.15.18-.15.19,0,.06,0,0-.08.11-.14.22-.15.25,0,0,0,0-.12.22-.15.32,0,.1,0,.1-.07.19q-.08.23-.15.47v0l0,.12c0,.17-.08.33-.11.5s0,0,0,.07a5.59,5.59,0,0,0-.07.88,2.65,2.65,0,0,0,1.25,2.57l3.76,1.68a2.65,2.65,0,0,1-1.25-2.57,5.59,5.59,0,0,1,.07-.88c0-.19.07-.38.12-.57l0-.12a6.63,6.63,0,0,1,.23-.68l0-.1a6.43,6.43,0,0,1,.3-.64l0,0a6,6,0,0,1,.39-.61l0,0a5.08,5.08,0,0,1,.45-.53l0,0a4,4,0,0,1,.47-.41,3.17,3.17,0,0,1,.59-.35,2.4,2.4,0,0,1,.38-.13h.05A1.94,1.94,0,0,1,206.44,126.06Z"/><polygon class="cls-8" points="228.16 218.01 124.27 278.38 227.98 338.51 331.96 278.27 228.16 218.01"/><polygon class="cls-13" points="125.42 101.11 125.42 124.86 229.31 185.73 229.13 161.24 125.42 101.11"/><polygon class="cls-14" points="229.14 161.12 333.21 100.99 333.21 125.33 229.33 185.61 229.14 161.12"/><polygon class="cls-8" points="115.13 151.76 11.24 212.13 114.94 272.26 218.92 212.02 115.13 151.76"/><polygon class="cls-14" points="114.4 226.5 218.47 166.37 218.47 190.72 114.59 250.99 114.4 226.5"/><path class="cls-8" d="M238.8,214S251.72,181.57,271,171.2s29.65-3.6,38.12-10.38,27.32-11,33.68-7.41,103.75,60.48,103.75,60.48L342.47,274Z"/><polygon class="cls-13" points="10.69 166.39 10.69 190.14 114.58 251.01 114.39 226.52 10.69 166.39"/><path class="cls-15" d="M153.9,134.38c0,2-.64,4.16-3.87,2.76s-3.81-7.09-7.51-7.35-6.47-3.35-4.76-4.42,10.47,3,11.08,4.45S153.9,134.38,153.9,134.38Z"/><path class="cls-15" d="M189.77,169.26a12.54,12.54,0,0,1-4.67-5.5c-1.09-2.58-5-10.48-4.28-11.47s.3-5.49,1.15-6.24.65,4.19,2.26,8.83,1.5,7.33,3.61,7.83S189.77,169.26,189.77,169.26Z"/><path class="cls-15" d="M192.34,156c1.36-.31,2.39.21,3.86,1.59s7,5.4,7.58,6.1c1.82,2.25.06,4-.28,4.71s-1.67-2.59-4.1-5.19-3-3.52-4.7-4.12C193.22,158.5,191,156.26,192.34,156Z"/><polygon class="cls-16" points="123.58 232.08 123.58 255.83 227.47 316.7 227.28 292.21 123.58 232.08"/><polygon class="cls-13" points="238.07 167.61 238.07 191.35 341.96 252.23 341.78 227.74 238.07 167.61"/><polygon class="cls-17" points="227.29 292.19 331.36 232.06 331.36 256.41 227.47 316.68 227.29 292.19"/><polygon class="cls-14" points="341.79 227.76 445.86 167.63 445.86 191.97 341.97 252.25 341.79 227.76"/><path class="cls-8" d="M119,196.49s8.08.37,10.75,0c.93-.13,4.68-1.32,3-2.85s-10.48-.94-10.48-.94Z"/><path class="cls-11" d="M120.06,188.81c1.53-.68,2.77.45,2.77,2.51s-1.22,4.29-2.75,5-2.77-.44-2.77-2.51S118.53,189.49,120.06,188.81Z"/><polygon class="cls-3" points="10.6 166.31 114.74 226.69 218.56 166.43 114.58 106.06 10.6 166.31"/><line class="cls-4" x1="23.34" y1="165.86" x2="69.35" y2="192.67"/><line class="cls-4" x1="27.76" y1="163.11" x2="73.77" y2="189.92"/><line class="cls-4" x1="32.27" y1="160.44" x2="78.29" y2="187.25"/><line class="cls-4" x1="36.92" y1="157.9" x2="82.93" y2="184.71"/><line class="cls-4" x1="41.23" y1="155.02" x2="87.24" y2="181.84"/><line class="cls-4" x1="45.87" y1="152.48" x2="91.88" y2="179.3"/><line class="cls-4" x1="50.51" y1="149.61" x2="96.53" y2="176.43"/><line class="cls-4" x1="55.82" y1="146.74" x2="101.84" y2="173.55"/><line class="cls-4" x1="61.13" y1="143.86" x2="107.15" y2="170.68"/><line class="cls-4" x1="66.11" y1="140.99" x2="112.12" y2="167.81"/><line class="cls-4" x1="120.22" y1="166.16" x2="166.23" y2="192.98"/><line class="cls-4" x1="124.63" y1="163.41" x2="170.65" y2="190.23"/><line class="cls-4" x1="129.15" y1="160.75" x2="175.16" y2="187.56"/><line class="cls-4" x1="133.79" y1="158.21" x2="179.81" y2="185.02"/><line class="cls-4" x1="138.1" y1="155.33" x2="184.12" y2="182.15"/><line class="cls-4" x1="142.75" y1="152.79" x2="188.76" y2="179.61"/><line class="cls-4" x1="147.39" y1="149.92" x2="193.4" y2="176.73"/><line class="cls-4" x1="152.7" y1="147.04" x2="198.71" y2="173.86"/><line class="cls-4" x1="158.01" y1="144.17" x2="204.02" y2="170.99"/><line class="cls-4" x1="162.99" y1="141.3" x2="209" y2="168.11"/><line class="cls-4" x1="159.97" y1="137.81" x2="113.95" y2="164.63"/><line class="cls-4" x1="155.55" y1="135.06" x2="109.53" y2="161.88"/><line class="cls-4" x1="151.03" y1="132.39" x2="105.02" y2="159.21"/><line class="cls-4" x1="146.39" y1="129.85" x2="100.37" y2="156.67"/><line class="cls-4" x1="142.08" y1="126.98" x2="96.06" y2="153.79"/><line class="cls-4" x1="137.43" y1="124.44" x2="91.42" y2="151.25"/><line class="cls-4" x1="132.79" y1="121.56" x2="86.78" y2="148.38"/><line class="cls-4" x1="127.48" y1="118.69" x2="81.47" y2="145.51"/><line class="cls-4" x1="122.17" y1="115.82" x2="76.16" y2="142.63"/><line class="cls-4" x1="117.19" y1="112.94" x2="71.18" y2="139.76"/><line class="cls-4" x1="159.3" y1="194.55" x2="113.29" y2="221.36"/><line class="cls-4" x1="154.88" y1="191.8" x2="108.87" y2="218.61"/><line class="cls-4" x1="150.37" y1="189.13" x2="104.35" y2="215.94"/><line class="cls-4" x1="145.72" y1="186.59" x2="99.71" y2="213.4"/><line class="cls-4" x1="141.41" y1="183.71" x2="95.4" y2="210.53"/><line class="cls-4" x1="136.77" y1="181.17" x2="90.75" y2="207.99"/><line class="cls-4" x1="132.12" y1="178.3" x2="86.11" y2="205.12"/><line class="cls-4" x1="126.81" y1="175.43" x2="80.8" y2="202.24"/><line class="cls-4" x1="121.51" y1="172.55" x2="75.49" y2="199.37"/><line class="cls-4" x1="116.53" y1="169.68" x2="70.51" y2="196.5"/><path class="cls-5" d="M51.41,140.83a21,21,0,0,1-1.84-2.92,32.2,32.2,0,0,1-1.39-3,26.59,26.59,0,0,1-1-3.07c-.14-.52-.26-1-.35-1.56,0-.26-.09-.53-.12-.79a7.8,7.8,0,0,1-.06-.8h0q.29.35.54.72c.17.24.33.48.48.73.31.49.58,1,.85,1.47a28.22,28.22,0,0,1,1.36,3,30,30,0,0,1,1,3.07,16.67,16.67,0,0,1,.57,3.15Z"/><path class="cls-6" d="M46.62,128.67q.29.35.54.72c.17.24.33.48.48.73.31.49.58,1,.85,1.47a28.22,28.22,0,0,1,1.36,3,30,30,0,0,1,1,3.07,16.67,16.67,0,0,1,.57,3.15h0"/><path class="cls-5" d="M42.92,150.35l0,0q.16-.36.35-.69c.12-.22.25-.43.39-.64.27-.42.55-.82.85-1.21a22.39,22.39,0,0,1,1.93-2.19,25.3,25.3,0,0,1,2.17-2A15.31,15.31,0,0,1,51.05,142"/><path class="cls-6" d="M51.05,142l0,0a15.56,15.56,0,0,1-1.6,2.52,25.42,25.42,0,0,1-1.91,2.21,22.3,22.3,0,0,1-2.15,2c-.38.3-.78.6-1.19.87l-.63.4q-.32.19-.67.36"/><path class="cls-5" d="M52.38,139.7c-1.07,0-3.42,1.26-3.54,2.64s3.19.82,3.54.69,1.44-.82,1.3-1.85S53.46,139.7,52.38,139.7Z"/><rect class="cls-18" x="50.92" y="142.18" width="2.02" height="23.01"/><path class="cls-6" d="M48.87,142.61s4.15-.14,4.33-2.72c0,0,1.35,1.89-.47,3S48.64,142.93,48.87,142.61Z"/><path class="cls-6" d="M64.9,143.65v0q-.41.06-.81.09l-.81,0c-.54,0-1.08,0-1.63,0a30.76,30.76,0,0,1-3.25-.34c-1.08-.17-2.17-.38-3.26-.65a22.86,22.86,0,0,1-3.26-1.05v0"/><path class="cls-5" d="M51.88,141.72a19.62,19.62,0,0,1,3.25-.08c1.08.05,2.17.16,3.25.31a32,32,0,0,1,3.26.63c.54.14,1.09.29,1.63.46l.81.28q.41.15.81.33"/><path class="cls-8" d="M75.77,173.57a6.79,6.79,0,0,0,.37-.57c.11-.19.21-.38.31-.57.19-.38.36-.76.51-1.15a15.55,15.55,0,0,0,.69-2.29,16,16,0,0,0,.35-2.29c0-.35,0-.69,0-1h.47a2.6,2.6,0,0,0,1.41-.34h0a.73.73,0,0,0,.21-.57,1.54,1.54,0,0,0-.26-.73c.84-.08,1.67-.2,2.49-.33,1.14-.2,2.26-.44,3.38-.71s2.22-.59,3.31-1c.54-.19,1.09-.38,1.62-.6l.8-.34q.4-.18.79-.38h0v0l-.88,0-.87.08c-.58.07-1.15.15-1.72.25-1.14.2-2.26.45-3.37.73s-2.22.61-3.31,1c-.83.29-1.65.59-2.45.94a3.59,3.59,0,0,0-2.43-1.45,1.16,1.16,0,0,0-.29,0h0c-.08,0-.19,0-.3.13a.76.76,0,0,0-.21.21c-.21-.18-.41-.37-.63-.55a24,24,0,0,0-2.15-1.53,24.65,24.65,0,0,0-2.41-1.36c-.43-.21-.87-.41-1.33-.6l-.71-.27-.75-.24,0,0a5.17,5.17,0,0,0,.39.47c.14.15.29.3.44.45.3.29.62.57,1,.84a21.47,21.47,0,0,0,2.17,1.51c.77.47,1.58.93,2.44,1.34.45.21.91.42,1.38.62a2,2,0,0,0,0,.4H52.06v1.42H76.83a1.93,1.93,0,0,0,.45.3c-.21.42-.39.84-.56,1.25A17.85,17.85,0,0,0,76,169a14.21,14.21,0,0,0-.38,2.29,10.48,10.48,0,0,0,0,1.15c0,.19,0,.38,0,.57a4.26,4.26,0,0,0,.1.57Z"/><path class="cls-5" d="M113.1,155.61a21,21,0,0,1-1.84-2.92,32.2,32.2,0,0,1-1.39-3,26.59,26.59,0,0,1-1-3.07c-.14-.52-.26-1-.35-1.56,0-.26-.09-.53-.12-.79a7.8,7.8,0,0,1-.06-.8h0q.29.35.54.72c.17.24.33.48.48.73.31.49.58,1,.85,1.47a28.22,28.22,0,0,1,1.36,3,30,30,0,0,1,1,3.07,16.67,16.67,0,0,1,.57,3.15Z"/><path class="cls-6" d="M108.31,143.45q.29.35.54.72c.17.24.33.48.48.73.31.49.58,1,.85,1.47a28.22,28.22,0,0,1,1.36,3,30,30,0,0,1,1,3.07,16.67,16.67,0,0,1,.57,3.15h0"/><path class="cls-5" d="M104.61,165.13l0,0q.16-.36.35-.69c.12-.22.25-.43.39-.64.27-.42.55-.82.85-1.21a22.39,22.39,0,0,1,1.93-2.19,25.3,25.3,0,0,1,2.17-2,15.31,15.31,0,0,1,2.48-1.64"/><path class="cls-6" d="M112.74,156.78l0,0a15.56,15.56,0,0,1-1.6,2.52,25.42,25.42,0,0,1-1.91,2.21,22.3,22.3,0,0,1-2.15,2c-.38.3-.78.6-1.19.87l-.63.4q-.32.19-.67.36"/><path class="cls-5" d="M114.07,154.48c-1.07,0-3.42,1.26-3.54,2.64s3.19.82,3.54.69,1.44-.82,1.3-1.85S115.15,154.48,114.07,154.48Z"/><rect class="cls-19" x="112.61" y="156.96" width="2.02" height="23.01"/><path class="cls-6" d="M110.56,157.38s4.15-.14,4.33-2.72c0,0,1.35,1.89-.47,3S110.33,157.7,110.56,157.38Z"/><path class="cls-6" d="M126.59,158.43v0q-.41.06-.81.09l-.81,0c-.54,0-1.08,0-1.63,0a30.76,30.76,0,0,1-3.25-.34c-1.08-.17-2.17-.38-3.26-.65a22.86,22.86,0,0,1-3.26-1.05v0"/><path class="cls-5" d="M113.57,156.49a19.62,19.62,0,0,1,3.25-.08c1.08.05,2.17.16,3.25.31a32,32,0,0,1,3.26.63c.54.14,1.09.29,1.63.46l.81.28q.41.15.81.33"/><path class="cls-8" d="M137.46,188.35a6.79,6.79,0,0,0,.37-.57c.11-.19.21-.38.31-.57.19-.38.36-.76.51-1.15a15.55,15.55,0,0,0,.69-2.29,16,16,0,0,0,.35-2.29c0-.35,0-.69,0-1h.47a2.6,2.6,0,0,0,1.41-.34h0a.73.73,0,0,0,.21-.57,1.54,1.54,0,0,0-.26-.73c.84-.08,1.67-.2,2.49-.33,1.14-.2,2.26-.44,3.38-.71s2.22-.59,3.31-1c.54-.19,1.09-.38,1.62-.6l.8-.34q.4-.18.79-.38h0v0l-.88,0-.87.08c-.58.07-1.15.15-1.72.25-1.14.2-2.26.45-3.37.73s-2.22.61-3.31,1c-.83.29-1.65.59-2.45.94A3.59,3.59,0,0,0,138.9,177a1.16,1.16,0,0,0-.29,0h0c-.08,0-.19,0-.3.13a.76.76,0,0,0-.21.21c-.21-.18-.41-.37-.63-.55a24,24,0,0,0-2.15-1.53,24.65,24.65,0,0,0-2.41-1.36c-.43-.21-.87-.41-1.33-.6l-.71-.27-.75-.24,0,0a5.17,5.17,0,0,0,.39.47c.14.15.29.3.44.45.3.29.62.57,1,.84a21.47,21.47,0,0,0,2.17,1.51c.77.47,1.58.93,2.44,1.34.45.21.91.42,1.38.62a2,2,0,0,0,0,.4H113.75v1.42h24.77a1.93,1.93,0,0,0,.45.3c-.21.42-.39.84-.56,1.25a17.85,17.85,0,0,0-.72,2.29,14.21,14.21,0,0,0-.38,2.29,10.48,10.48,0,0,0,0,1.15c0,.19,0,.38,0,.57a4.26,4.26,0,0,0,.1.57Z"/><path class="cls-5" d="M143.35,141.88a23.72,23.72,0,0,1-2.08-3.31,36.44,36.44,0,0,1-1.58-3.4,30.09,30.09,0,0,1-1.18-3.47c-.15-.59-.29-1.17-.4-1.77-.05-.3-.1-.6-.14-.9a8.83,8.83,0,0,1-.07-.91h0q.33.4.61.81c.19.27.37.55.54.82.35.55.66,1.11,1,1.67a32,32,0,0,1,1.54,3.41,34,34,0,0,1,1.15,3.48,18.87,18.87,0,0,1,.64,3.57Z"/><path class="cls-6" d="M137.93,128.11q.33.4.61.81c.19.27.37.55.54.82.35.55.66,1.11,1,1.67a32,32,0,0,1,1.54,3.41,34,34,0,0,1,1.15,3.48,18.87,18.87,0,0,1,.64,3.57h0"/><path class="cls-5" d="M133.73,152.65l0,0q.18-.4.39-.78c.14-.25.29-.49.44-.73.3-.48.63-.93,1-1.37a25.34,25.34,0,0,1,2.18-2.48,28.63,28.63,0,0,1,2.46-2.21,17.33,17.33,0,0,1,2.8-1.86"/><path class="cls-6" d="M142.94,143.2l0,0a17.61,17.61,0,0,1-1.81,2.85,28.77,28.77,0,0,1-2.16,2.5,25.24,25.24,0,0,1-2.43,2.23c-.43.34-.88.68-1.35,1-.23.15-.47.31-.72.45s-.5.28-.76.4"/><path class="cls-5" d="M144.45,140.6c-1.22,0-3.87,1.43-4,3s3.61.93,4,.78,1.62-.93,1.47-2.09S145.67,140.6,144.45,140.6Z"/><rect class="cls-20" x="142.8" y="143.4" width="2.28" height="26.05"/><path class="cls-6" d="M140.47,143.89s4.7-.16,4.91-3.08c0,0,1.53,2.14-.54,3.34S140.21,144.25,140.47,143.89Z"/><path class="cls-6" d="M158.62,145.07v0q-.46.07-.92.1l-.92,0c-.61,0-1.23,0-1.84,0a34.82,34.82,0,0,1-3.68-.39c-1.23-.19-2.46-.43-3.68-.74a25.87,25.87,0,0,1-3.69-1.19v0"/><path class="cls-5" d="M143.88,142.88a22.21,22.21,0,0,1,3.68-.09c1.23.06,2.45.18,3.68.36a36.22,36.22,0,0,1,3.68.71c.61.16,1.23.32,1.84.52l.92.32q.46.17.92.38"/><path class="cls-8" d="M106.24,139.41s8.08.37,10.75,0c.93-.13,4.68-1.32,3-2.85s-10.48-.94-10.48-.94Z"/><path class="cls-11" d="M107.31,131.73c1.53-.68,2.77.45,2.77,2.51s-1.22,4.29-2.75,5-2.77-.44-2.77-2.51S105.78,132.41,107.31,131.73Z"/><path class="cls-12" d="M108.11,131.54h0a1.66,1.66,0,0,1,.35,0h0a1.56,1.56,0,0,1,.33.11h0L105.07,130h0l-.14-.05-.14,0h-.57l-.17,0h-.1l-.13,0-.25.1a3.17,3.17,0,0,0-.59.35l0,0-.23.19-.18.17,0,0,0,0-.11.11-.15.18-.15.19,0,.06,0,0-.08.11-.14.22-.15.25,0,0,0,0-.12.22-.15.32,0,.1,0,.1-.07.19q-.08.23-.15.47v0l0,.12c0,.17-.08.33-.11.5s0,0,0,.07a5.59,5.59,0,0,0-.07.88,2.65,2.65,0,0,0,1.25,2.57l3.76,1.68a2.65,2.65,0,0,1-1.25-2.57,5.59,5.59,0,0,1,.07-.88c0-.19.07-.38.12-.57l0-.12a6.63,6.63,0,0,1,.23-.68l0-.1a6.43,6.43,0,0,1,.3-.64l0,0a6,6,0,0,1,.39-.61l0,0a5.08,5.08,0,0,1,.45-.53l0,0a4,4,0,0,1,.47-.41,3.17,3.17,0,0,1,.59-.35,2.4,2.4,0,0,1,.38-.13h.05A1.94,1.94,0,0,1,108.11,131.54Z"/><path class="cls-12" d="M120.86,188.62h0a1.66,1.66,0,0,1,.35,0h0a1.56,1.56,0,0,1,.33.11h0l-3.76-1.68h0l-.14-.05-.14,0h-.57l-.17,0h-.1l-.13,0-.25.1a3.17,3.17,0,0,0-.59.35l0,0-.23.19-.18.17,0,0,0,0-.11.11-.15.18-.15.19,0,.06,0,0-.08.11-.14.22-.15.25,0,0,0,0-.12.22-.15.32,0,.1,0,.1-.07.19q-.08.23-.15.47v0l0,.12c0,.17-.08.33-.11.5s0,0,0,.07a5.59,5.59,0,0,0-.07.88,2.65,2.65,0,0,0,1.25,2.57l3.76,1.68a2.65,2.65,0,0,1-1.25-2.57,5.59,5.59,0,0,1,.07-.88c0-.19.07-.38.12-.57l0-.12a6.63,6.63,0,0,1,.23-.68l0-.1a6.43,6.43,0,0,1,.3-.64l0,0a6,6,0,0,1,.39-.61l0,0a5.08,5.08,0,0,1,.45-.53l0,0a4,4,0,0,1,.47-.41,3.17,3.17,0,0,1,.59-.35,2.4,2.4,0,0,1,.38-.13h.05A1.94,1.94,0,0,1,120.86,188.62Z"/><path class="cls-8" d="M89.83,199.32s8.08.37,10.75,0c.93-.13,4.68-1.32,3-2.85s-10.48-.94-10.48-.94Z"/><path class="cls-11" d="M90.9,191.64c1.53-.68,2.77.45,2.77,2.51s-1.22,4.29-2.75,5-2.77-.44-2.77-2.51S89.37,192.32,90.9,191.64Z"/><path class="cls-12" d="M91.71,191.44h0a1.66,1.66,0,0,1,.35,0h0a1.56,1.56,0,0,1,.33.11h0l-3.76-1.68h0l-.14-.05-.14,0h-.57l-.17,0h-.1l-.13,0-.25.1a3.17,3.17,0,0,0-.59.35l0,0-.23.19-.18.17,0,0,0,0-.11.11-.15.18-.15.19,0,.06,0,0-.08.11-.14.22-.15.25,0,0,0,0-.12.22-.15.32,0,.1,0,.1-.07.19q-.08.23-.15.47v0l0,.12c0,.17-.08.33-.11.5s0,0,0,.07a5.59,5.59,0,0,0-.07.88,2.65,2.65,0,0,0,1.25,2.57l3.76,1.68a2.65,2.65,0,0,1-1.25-2.57,5.59,5.59,0,0,1,.07-.88c0-.19.07-.38.12-.57l0-.12a6.63,6.63,0,0,1,.23-.68l0-.1a6.43,6.43,0,0,1,.3-.64l0,0a6,6,0,0,1,.39-.61l0,0a5.08,5.08,0,0,1,.45-.53l0,0a4,4,0,0,1,.47-.41,3.17,3.17,0,0,1,.59-.35,2.4,2.4,0,0,1,.38-.13h.05A1.94,1.94,0,0,1,91.71,191.44Z"/><path class="cls-21" d="M123.49,232,162,186.71a7.66,7.66,0,0,1,6.41-2.69c8.47.62,28.54,1.81,36.49-.31,5.75-1.53,22.47-11.84,22.47-11.84L331.1,232,227.31,292.26Z"/><path class="cls-22" d="M123.49,232,162,186.71a3.6,3.6,0,0,1,5.44,0c2.91,2.85,3.44,12.64,7.41,15.15s11.77,1.59,16.4,8.33S210,257.4,216.58,262.35s10.73,29.91,10.73,29.91Z"/><path class="cls-22" d="M272.25,250.07s-11,1.84-20.51-10S239.45,216.11,231,214.78s-9.37-7.38-7.75-9.38,9.87-12,23.93-6,13.11,21,22.09,23.67,25.66,8.16,22.28,11.89S272.25,250.07,272.25,250.07Z"/><g class="cls-23"><path class="cls-24" d="M240.43,255.47c.43-.11.14-.26.62-.6a4.38,4.38,0,0,1,.79-.39,5.41,5.41,0,0,1,.82-.34,8.27,8.27,0,0,1,.87-.18c.27,0,.57,0,.89-.07s.57,0,.89,0,.58.07.89.09.58,0,.85,0l.85.06.85.06c.3,0,.58,0,.85,0l.85,0c.31,0,.59.06.85.08s.59.07.84.1a3.87,3.87,0,0,1,.81.2c.36.13.53.27.53.54s-.24.38-.65.45a6,6,0,0,1-.86,0c-.27,0-.56,0-.86,0s-.58,0-.87,0-.58-.09-.86-.12l-.86-.11c-.35,0-.65-.05-.86-.07s-.53-.07-.8-.09-.54,0-.8,0-.54-.06-.8-.06-.55,0-.8,0-.56,0-.8,0a4.82,4.82,0,0,0-.86.21c-.51.16-1.17.14-.77.31s.41,0,.83.06.42.1.84.13.43,0,.85,0l.85.06c.42,0,.42,0,.85,0s.42.1.84.13.43-.06.85,0,.42.12.84.14.43,0,.85,0,.42.07.84.1.43-.05.85,0l.85.06.84,0c.42,0,.42.06.84.09s.42.06.84.09l.85,0,.85.05c.42,0,.42,0,.85,0l.85.07.85.07c.42,0,.42.05.84.08s.43,0,.85,0l.85.07.85.06.85.06c.43,0,.43,0,.85,0a1.72,1.72,0,0,1,.83.21c.29.13.53.35.43.66a.83.83,0,0,1-.58.5,1.35,1.35,0,0,1-.77.1c-.43,0-.42-.06-.85-.08l-.85-.07-.85,0c-.43,0-.43,0-.86,0l-.85-.06c-.43,0-.43,0-.86,0s-.42-.08-.85-.11-.42-.06-.85-.08-.43,0-.85,0-.43,0-.86,0-.42-.06-.85-.08-.42-.07-.85-.1-.43,0-.86,0l-.85-.07-.85-.07-.85,0c-.43,0-.43,0-.86,0s-.43-.05-.86-.08-.43-.06-.86-.09a4.2,4.2,0,0,0-.86,0c-.4,0,.17.07.77.2a7.72,7.72,0,0,0,.78.22l.8.09c.24,0,.52,0,.81,0s.51.13.79.15l.81.06c.26,0,.53,0,.82,0s.55.08.8.09.56,0,.81,0l.8,0c.31,0,.58.07.8.09s.61.05.8.09c.59.11.51.26.52.46s-.25.37-.64.4a7,7,0,0,1-.84,0l-.87,0c-.26,0-.56-.07-.88-.09s-.57-.08-.87-.1l-.88,0-.88-.08-.88-.1c-.34,0-.64,0-.88,0s-.56-.12-.88-.18-.59-.05-.89-.13a7,7,0,0,1-.84-.31,5.32,5.32,0,0,1-.79-.42,4.17,4.17,0,0,1-.71-.51,3,3,0,0,0-.8-.13l-.82,0-.82,0c-.41,0-.41,0-.82,0s-.41,0-.82,0l-.81-.07-.82,0-.82-.06c-.41,0-.41-.08-.82-.1s-.54.26-.84,0,.08-.35.1-.7-.26-.45,0-.66.38,0,.79,0,.41,0,.82,0a7.42,7.42,0,0,1,.81.11A1.45,1.45,0,0,0,240.43,255.47Z"/></g><path class="cls-25" d="M237,254.11c-.14-.38-.36,0-.79-.27a4.38,4.38,0,0,1-.64-.49,3.68,3.68,0,0,1-.62-.52,4.1,4.1,0,0,1-.42-.7,4.36,4.36,0,0,1-.33-.75,5.64,5.64,0,0,1-.11-.81,6.23,6.23,0,0,1-.09-.81c0-.31,0-.62,0-.9s-.09-.61-.1-.9,0-.62,0-.9-.06-.62-.06-.9a7.23,7.23,0,0,1,.05-.89,1.6,1.6,0,0,1,.3-.81.86.86,0,0,1,.75-.33.69.69,0,0,1,.68.34,2,2,0,0,1,.24.79,5.92,5.92,0,0,1,0,.83c0,.27-.09.55-.12.82s-.06.57-.09.83-.12.62-.12.81,0,.52,0,.78,0,.52.07.78a7.74,7.74,0,0,0,.06.78,3.87,3.87,0,0,0,.25.73,2.6,2.6,0,0,0,.4.69c.29.36.39.93.56.56s0-.42,0-.84,0-.42,0-.85,0-.42,0-.85,0-.42,0-.85,0-.42,0-.85-.07-.42-.07-.85,0-.42,0-.85,0-.42,0-.84.06-.42.06-.85,0-.42,0-.85,0-.42,0-.85,0-.42,0-.85,0-.43,0-.85,0-.42,0-.85,0-.42,0-.85,0-.42,0-.85-.05-.43-.05-.85,0-.43,0-.85.06-.43.06-.86,0-.43,0-.85,0-.5.34-.79a1,1,0,0,1,.85-.23,1.33,1.33,0,0,1,.73.31c.34.3.28.31.27.71s.06.41.06.82,0,.41,0,.82,0,.41,0,.82.08.41.08.82,0,.41,0,.82,0,.41,0,.82,0,.41,0,.82.05.41.05.82,0,.41,0,.83-.09.41-.09.82.08.41.08.82,0,.41,0,.82,0,.41,0,.83,0,.41,0,.83,0,.41,0,.83-.09.42,0,.82.11-.16.28-.8a5.07,5.07,0,0,0,.26-.85c0-.26,0-.56,0-.89s.09-.56.09-.89-.08-.57-.09-.89,0-.55,0-.8,0-.56,0-.8,0-.58,0-.8a2.91,2.91,0,0,1,.15-.78c.12-.38.3-.35.6-.36a.52.52,0,0,1,.57.38,2.27,2.27,0,0,1,.08.75c0,.14,0,.42,0,.79s0,.5,0,.79,0,.52,0,.79,0,.54,0,.8,0,.55,0,.79,0,.57,0,.79a5.79,5.79,0,0,1-.14.77,3.8,3.8,0,0,1-.26.73,3.39,3.39,0,0,1-.41.66,3.61,3.61,0,0,1-.51.6,4.45,4.45,0,0,1-.63.46,2.61,2.61,0,0,0-.06.89c0,.45,0,.45,0,.9s0,.45,0,.9-.05.45-.06.9,0,.45,0,.9,0,.45,0,.9.26.52,0,.88-.32,0-.67,0-.35.07-.71.07-.5.25-.73,0,0-.43,0-.85a4.33,4.33,0,0,1,0-.84C237,254.53,237.11,254.51,237,254.11Z"/><path class="cls-26" d="M235.66,248.56c0,.25,0,.52,0,.78s0,.53,0,.78a7.31,7.31,0,0,0,.13.77,4.35,4.35,0,0,0,.15.77,2.64,2.64,0,0,0,.44.69,2.26,2.26,0,0,0,.63.54.61.61,0,0,0-.05-.32,2.7,2.7,0,0,1-.62-.9,4.29,4.29,0,0,1-.16-.77,7.71,7.71,0,0,1-.06-.77c0-.26-.08-.52-.09-.78s.07-.52.08-.78,0-.48.06-.82.08-.53.11-.82.06-.55.07-.83a5.85,5.85,0,0,0,0-.83,1.94,1.94,0,0,0-.27-.77.71.71,0,0,0-.64-.44,1.4,1.4,0,0,0-.19,0,.78.78,0,0,1,.53.54,2.46,2.46,0,0,1,.21.76,6.76,6.76,0,0,1,0,.8c0,.26-.05.53-.08.79s-.06.55-.09.79S235.66,248.38,235.66,248.56Z"/><path class="cls-26" d="M239.13,235.91c0,.41,0,.41,0,.82s.08.41.08.82,0,.41,0,.82,0,.41,0,.82,0,.41,0,.82,0,.41,0,.82,0,.41,0,.82,0,.41,0,.82,0,.41,0,.83,0,.41,0,.82-.06.41-.06.82,0,.41,0,.82,0,.41,0,.83,0,.41,0,.83.06.41.06.83-.2.45-.07.84.28-.19.47-.91c0-.43-.08-.44-.08-.88s.07-.44.07-.87,0-.44,0-.87-.06-.44-.06-.88,0-.44,0-.88,0-.44,0-.88,0-.44,0-.88,0-.44,0-.88.05-.44.05-.88,0-.44,0-.87,0-.44,0-.88,0-.44,0-.88,0-.44,0-.88,0-.44,0-.88,0-.37-.33-.67a1.22,1.22,0,0,0-.69-.34,1.25,1.25,0,0,0-.38,0,1.33,1.33,0,0,1,.72.27C239.21,235.51,239.14,235.52,239.13,235.91Z"/><path class="cls-26" d="M240.92,241.2c-.08,0-.16.07-.22.08a.51.51,0,0,1,.41.43,2.5,2.5,0,0,1,.13.65c0,.14,0,.42,0,.79s0,.5,0,.79,0,.52,0,.79,0,.54,0,.8,0,.55-.06.79,0,.58,0,.79a5.84,5.84,0,0,1-.14.78,3.87,3.87,0,0,1-.27.74,3.4,3.4,0,0,1-.39.68,3.7,3.7,0,0,1-.52.6,5.08,5.08,0,0,1-.69.42c-.11.44,0,.45,0,.9s0,.45,0,.9.05.45.05.9,0,.45,0,.9,0,.45,0,.9,0,.45,0,.91-.17.49,0,.9a.2.2,0,0,0,.38,0c.18-.41,0-.44,0-.89s0-.45,0-.9,0-.45,0-.9.07-.45.07-.9-.09-.45-.08-.9,0-.45,0-.9a2.67,2.67,0,0,1,0-.91,5,5,0,0,0,.68-.42,3.83,3.83,0,0,0,.55-.58,3.54,3.54,0,0,0,.42-.68,3.87,3.87,0,0,0,.25-.76,5.91,5.91,0,0,0,.14-.78c0-.21-.05-.49,0-.79s0-.51.05-.79,0-.53,0-.79,0-.54,0-.79,0-.56,0-.79,0-.65,0-.79a2.35,2.35,0,0,0-.07-.76A.57.57,0,0,0,240.92,241.2Z"/><g class="cls-23"><path class="cls-24" d="M238.79,192.56c.36-.09.12-.22.52-.51a3.71,3.71,0,0,1,.67-.33,4.58,4.58,0,0,1,.69-.28,7,7,0,0,1,.74-.15c.23,0,.48,0,.75-.06l.76,0c.24,0,.49.06.76.07s.49,0,.72,0l.72,0,.72.05c.25,0,.49,0,.72,0l.72,0c.26,0,.5.05.72.07s.51.06.72.08a3.25,3.25,0,0,1,.69.17c.3.11.45.23.45.45s-.2.32-.55.38a5.07,5.07,0,0,1-.73,0c-.23,0-.47,0-.72,0s-.49,0-.73,0-.49-.08-.73-.11l-.73-.09c-.3,0-.55,0-.72-.06s-.45-.06-.67-.07l-.68,0c-.23,0-.46-.05-.68-.05s-.46,0-.68,0-.47,0-.68,0a4.08,4.08,0,0,0-.73.18c-.43.14-1,.12-.65.26s.35,0,.7.05.35.08.71.11.36,0,.72,0l.72.05c.36,0,.36,0,.72,0s.35.09.71.11.36-.05.72,0,.35.1.71.12.36,0,.71,0,.35.06.71.08.36,0,.72,0l.72.05.72,0c.36,0,.36.05.71.07s.36.05.71.08l.72,0,.72,0c.36,0,.36,0,.72,0l.72.06.72.06c.36,0,.36,0,.72.07s.36,0,.72,0l.72.06.72,0,.72,0,.72,0a1.45,1.45,0,0,1,.7.18c.24.11.45.3.36.56a.7.7,0,0,1-.49.42,1.14,1.14,0,0,1-.65.08c-.36,0-.36,0-.72-.07l-.72-.06-.72,0c-.36,0-.36,0-.72,0l-.72-.05c-.36,0-.36,0-.73,0s-.36-.07-.72-.09-.36,0-.72-.07-.36,0-.72,0-.36,0-.73,0-.36,0-.72-.07-.36-.06-.72-.08-.36,0-.73,0l-.72-.06-.72-.06-.72,0c-.36,0-.37,0-.73,0s-.36,0-.73-.07-.36-.05-.73-.08a3.57,3.57,0,0,0-.73,0c-.34,0,.14.06.65.17a6.54,6.54,0,0,0,.66.19l.68.08c.21,0,.44,0,.68,0s.43.11.67.13l.69,0c.22,0,.45,0,.69,0s.47.07.68.08.48,0,.69,0l.69,0c.26,0,.49.06.68.08s.51,0,.67.07c.5.09.43.22.44.39s-.21.31-.54.34a5.89,5.89,0,0,1-.71,0l-.74,0-.74-.07c-.24,0-.48-.07-.74-.09l-.75,0-.75-.07-.75-.08c-.28,0-.54,0-.75,0s-.48-.1-.74-.15-.5,0-.75-.11a5.94,5.94,0,0,1-.71-.26,4.5,4.5,0,0,1-.67-.36,3.53,3.53,0,0,1-.6-.43,2.49,2.49,0,0,0-.68-.11l-.69,0-.69,0c-.35,0-.35,0-.69,0l-.69,0-.69-.06-.69,0-.69-.05c-.35,0-.35-.07-.69-.09s-.45.22-.71,0,.07-.3.09-.59-.22-.38,0-.55.32,0,.67,0,.35,0,.69,0a6.28,6.28,0,0,1,.69.09A1.23,1.23,0,0,0,238.79,192.56Z"/></g><path class="cls-27" d="M235.87,191.41c-.12-.32-.3,0-.67-.23a3.71,3.71,0,0,1-.54-.42,3.11,3.11,0,0,1-.53-.44,3.47,3.47,0,0,1-.36-.59,3.69,3.69,0,0,1-.28-.63,4.77,4.77,0,0,1-.1-.68,5.28,5.28,0,0,1-.07-.69c0-.27,0-.52,0-.76s-.08-.52-.09-.76,0-.52,0-.76,0-.53-.05-.76a6.12,6.12,0,0,1,0-.76,1.36,1.36,0,0,1,.26-.69.73.73,0,0,1,.64-.28.59.59,0,0,1,.58.29,1.73,1.73,0,0,1,.21.67,5,5,0,0,1,0,.7c0,.23-.07.47-.1.7s0,.49-.08.7-.1.53-.1.69,0,.44,0,.66,0,.44.06.66a6.55,6.55,0,0,0,.05.66,3.28,3.28,0,0,0,.21.62,2.2,2.2,0,0,0,.33.59c.25.3.33.79.47.47s0-.36,0-.71,0-.36,0-.71,0-.36,0-.71,0-.36,0-.71,0-.36,0-.72-.06-.36-.06-.72,0-.36,0-.72,0-.36,0-.72,0-.36,0-.72,0-.36,0-.72,0-.36,0-.72,0-.36,0-.72,0-.36,0-.72,0-.36,0-.72,0-.36,0-.72,0-.36,0-.72,0-.36,0-.72,0-.36,0-.72.05-.36.05-.73,0-.36,0-.72,0-.42.28-.67a.87.87,0,0,1,.72-.19,1.12,1.12,0,0,1,.62.26c.29.25.23.26.23.6s.05.35.05.7,0,.35,0,.7,0,.35,0,.69.07.35.07.69,0,.35,0,.69,0,.35,0,.7,0,.35,0,.7,0,.35,0,.7,0,.35,0,.7-.07.35-.07.7.07.35.07.7,0,.35,0,.7,0,.35,0,.7,0,.35,0,.7,0,.35,0,.7-.08.36,0,.69.09-.14.24-.67a4.29,4.29,0,0,0,.22-.72c0-.22,0-.47,0-.75s.07-.47.08-.75-.07-.48-.08-.76,0-.47,0-.68,0-.48,0-.68,0-.49,0-.68a2.45,2.45,0,0,1,.13-.66c.1-.32.26-.29.5-.31a.44.44,0,0,1,.49.32,1.93,1.93,0,0,1,.07.63c0,.12,0,.36,0,.67s0,.42,0,.67,0,.44,0,.67,0,.45,0,.67,0,.46,0,.67,0,.49,0,.67a4.9,4.9,0,0,1-.12.66,3.22,3.22,0,0,1-.22.62,2.87,2.87,0,0,1-.35.56,3.06,3.06,0,0,1-.43.51,3.77,3.77,0,0,1-.53.39,2.21,2.21,0,0,0,0,.76c0,.38,0,.38,0,.76s0,.38,0,.76,0,.38,0,.76,0,.38,0,.76,0,.38,0,.77.22.44,0,.74-.27,0-.57,0-.3.06-.6.06-.42.22-.62,0,0-.37,0-.72a3.66,3.66,0,0,1,0-.71C235.9,191.76,236,191.75,235.87,191.41Z"/><path class="cls-28" d="M234.75,186.71c0,.22,0,.44,0,.66s0,.45,0,.66a6.19,6.19,0,0,0,.11.65,3.68,3.68,0,0,0,.13.65,2.24,2.24,0,0,0,.37.58,1.91,1.91,0,0,0,.53.45.52.52,0,0,0,0-.27,2.29,2.29,0,0,1-.53-.76,3.64,3.64,0,0,1-.14-.65,6.53,6.53,0,0,1-.05-.66c0-.22-.07-.44-.07-.66s.06-.44.07-.66,0-.4,0-.69.07-.45.09-.69.05-.47.06-.7a5,5,0,0,0,0-.7,1.64,1.64,0,0,0-.23-.65.61.61,0,0,0-.55-.37l-.16,0a.66.66,0,0,1,.45.46,2.08,2.08,0,0,1,.18.64,5.7,5.7,0,0,1,0,.68c0,.22,0,.45-.07.67s-.05.47-.08.67S234.76,186.56,234.75,186.71Z"/><path class="cls-28" d="M237.69,176c0,.35,0,.35,0,.69s.07.35.07.7,0,.35,0,.69,0,.35,0,.69,0,.35,0,.69,0,.35,0,.7,0,.35,0,.7,0,.35,0,.7,0,.35,0,.7,0,.35,0,.7-.05.35-.05.7,0,.35,0,.7,0,.35,0,.7,0,.35,0,.7.05.35.05.7-.17.38-.06.71.24-.16.39-.77c0-.37-.07-.37-.07-.74s.06-.37.06-.74,0-.37,0-.74,0-.37,0-.74,0-.37,0-.74,0-.37,0-.74,0-.37,0-.74,0-.37,0-.74,0-.37,0-.74,0-.37,0-.74,0-.37,0-.74,0-.37,0-.75,0-.37,0-.75,0-.37,0-.75,0-.31-.28-.56a1,1,0,0,0-.59-.29,1.06,1.06,0,0,0-.32,0,1.13,1.13,0,0,1,.61.23A.66.66,0,0,1,237.69,176Z"/><path class="cls-28" d="M239.2,180.47c-.06,0-.13.06-.19.06a.43.43,0,0,1,.35.37,2.12,2.12,0,0,1,.11.55c0,.12,0,.36,0,.67s0,.43,0,.67,0,.44,0,.67,0,.45,0,.67,0,.46,0,.67,0,.49,0,.67a4.94,4.94,0,0,1-.12.66,3.28,3.28,0,0,1-.23.62,2.88,2.88,0,0,1-.33.58,3.14,3.14,0,0,1-.44.51,4.3,4.3,0,0,1-.58.36c-.09.37,0,.38,0,.76s0,.38,0,.76,0,.38,0,.76,0,.38,0,.76,0,.38,0,.76,0,.38,0,.77-.15.41,0,.77a.17.17,0,0,0,.32,0c.15-.35,0-.38,0-.76s0-.38,0-.76,0-.38,0-.76.06-.38.06-.76-.07-.38-.07-.76,0-.38,0-.77a2.26,2.26,0,0,1,0-.77,4.22,4.22,0,0,0,.57-.36,3.24,3.24,0,0,0,.46-.5,3,3,0,0,0,.35-.58,3.28,3.28,0,0,0,.21-.64,5,5,0,0,0,.12-.66c0-.18,0-.41,0-.67s0-.43,0-.67,0-.45,0-.67,0-.46,0-.67,0-.47,0-.67,0-.55,0-.67a2,2,0,0,0-.06-.64A.48.48,0,0,0,239.2,180.47Z"/><polygon class="cls-3" points="237.81 167.54 341.95 227.92 445.77 167.66 341.79 107.29 237.81 167.54"/><line class="cls-4" x1="250.55" y1="167.09" x2="296.57" y2="193.91"/><line class="cls-4" x1="254.97" y1="164.34" x2="300.99" y2="191.15"/><line class="cls-4" x1="259.49" y1="161.67" x2="305.5" y2="188.49"/><line class="cls-4" x1="264.13" y1="159.13" x2="310.14" y2="185.95"/><line class="cls-4" x1="268.44" y1="156.26" x2="314.45" y2="183.07"/><line class="cls-4" x1="273.08" y1="153.72" x2="319.1" y2="180.53"/><line class="cls-4" x1="277.73" y1="150.84" x2="323.74" y2="177.66"/><line class="cls-4" x1="283.04" y1="147.97" x2="329.05" y2="174.78"/><line class="cls-4" x1="288.35" y1="145.09" x2="334.36" y2="171.91"/><line class="cls-4" x1="293.32" y1="142.22" x2="339.34" y2="169.04"/><line class="cls-4" x1="347.43" y1="167.4" x2="393.44" y2="194.21"/><line class="cls-4" x1="351.85" y1="164.65" x2="397.86" y2="191.46"/><line class="cls-4" x1="356.36" y1="161.98" x2="402.38" y2="188.79"/><line class="cls-4" x1="361.01" y1="159.44" x2="407.02" y2="186.25"/><line class="cls-4" x1="365.32" y1="156.56" x2="411.33" y2="183.38"/><line class="cls-4" x1="369.96" y1="154.02" x2="415.97" y2="180.84"/><line class="cls-4" x1="374.6" y1="151.15" x2="420.62" y2="177.97"/><line class="cls-4" x1="379.91" y1="148.28" x2="425.93" y2="175.09"/><line class="cls-4" x1="385.22" y1="145.4" x2="431.24" y2="172.22"/><line class="cls-4" x1="390.2" y1="142.53" x2="436.21" y2="169.35"/><line class="cls-4" x1="387.18" y1="139.04" x2="341.16" y2="165.86"/><line class="cls-4" x1="382.76" y1="136.29" x2="336.75" y2="163.11"/><line class="cls-4" x1="378.25" y1="133.62" x2="332.23" y2="160.44"/><line class="cls-4" x1="373.6" y1="131.08" x2="327.59" y2="157.9"/><line class="cls-4" x1="369.29" y1="128.21" x2="323.28" y2="155.03"/><line class="cls-4" x1="364.65" y1="125.67" x2="318.63" y2="152.49"/><line class="cls-4" x1="360" y1="122.8" x2="313.99" y2="149.61"/><line class="cls-4" x1="354.69" y1="119.92" x2="308.68" y2="146.74"/><line class="cls-4" x1="349.38" y1="117.05" x2="303.37" y2="143.87"/><line class="cls-4" x1="344.41" y1="114.18" x2="298.39" y2="140.99"/><line class="cls-4" x1="386.51" y1="195.78" x2="340.5" y2="222.6"/><line class="cls-4" x1="382.09" y1="193.03" x2="336.08" y2="219.84"/><line class="cls-4" x1="377.58" y1="190.36" x2="331.56" y2="217.18"/><line class="cls-4" x1="372.94" y1="187.82" x2="326.92" y2="214.64"/><line class="cls-4" x1="368.62" y1="184.95" x2="322.61" y2="211.76"/><line class="cls-4" x1="363.98" y1="182.41" x2="317.97" y2="209.22"/><line class="cls-4" x1="359.34" y1="179.53" x2="313.32" y2="206.35"/><line class="cls-4" x1="354.03" y1="176.66" x2="308.01" y2="203.48"/><line class="cls-4" x1="348.72" y1="173.79" x2="302.7" y2="200.6"/><line class="cls-4" x1="343.74" y1="170.91" x2="297.73" y2="197.73"/><path class="cls-5" d="M278.62,142.07a21,21,0,0,1-1.84-2.92,32.2,32.2,0,0,1-1.39-3,26.59,26.59,0,0,1-1-3.07c-.14-.52-.26-1-.35-1.56,0-.26-.09-.53-.12-.79a7.8,7.8,0,0,1-.06-.8h0q.29.35.54.72c.17.24.33.48.48.73.31.49.58,1,.85,1.47a28.22,28.22,0,0,1,1.36,3,30,30,0,0,1,1,3.07,16.67,16.67,0,0,1,.57,3.15Z"/><path class="cls-6" d="M273.83,129.9q.29.35.54.72c.17.24.33.48.48.73.31.49.58,1,.85,1.47a28.22,28.22,0,0,1,1.36,3,30,30,0,0,1,1,3.07,16.67,16.67,0,0,1,.57,3.15h0"/><path class="cls-5" d="M270.13,151.59l0,0q.16-.36.35-.69c.12-.22.25-.43.39-.64.27-.42.55-.82.85-1.21a22.39,22.39,0,0,1,1.93-2.19,25.3,25.3,0,0,1,2.17-2,15.31,15.31,0,0,1,2.48-1.64"/><path class="cls-6" d="M278.26,143.23l0,0a15.56,15.56,0,0,1-1.6,2.52,25.42,25.42,0,0,1-1.91,2.21,22.3,22.3,0,0,1-2.15,2c-.38.3-.78.6-1.19.87l-.63.4q-.32.19-.67.36"/><path class="cls-5" d="M279.6,140.93c-1.07,0-3.42,1.26-3.54,2.64s3.19.82,3.54.69,1.44-.82,1.3-1.85S280.67,140.93,279.6,140.93Z"/><rect class="cls-29" x="278.14" y="143.41" width="2.02" height="23.01"/><path class="cls-6" d="M276.08,143.84s4.15-.14,4.33-2.72c0,0,1.35,1.89-.47,3S275.85,144.16,276.08,143.84Z"/><path class="cls-6" d="M292.12,144.89v0q-.41.06-.81.09l-.81,0c-.54,0-1.08,0-1.63,0a30.76,30.76,0,0,1-3.25-.34c-1.08-.17-2.17-.38-3.26-.65A22.86,22.86,0,0,1,279.1,143v0"/><path class="cls-5" d="M279.1,142.95a19.62,19.62,0,0,1,3.25-.08c1.08.05,2.17.16,3.25.31a32,32,0,0,1,3.26.63c.54.14,1.09.29,1.63.46l.81.28q.41.15.81.33"/><path class="cls-8" d="M303,174.8a6.79,6.79,0,0,0,.37-.57c.11-.19.21-.38.31-.57.19-.38.36-.76.51-1.15a15.55,15.55,0,0,0,.69-2.29,16,16,0,0,0,.35-2.29c0-.35,0-.69,0-1h.47a2.6,2.6,0,0,0,1.41-.34h0a.73.73,0,0,0,.21-.57,1.54,1.54,0,0,0-.26-.73c.84-.08,1.67-.2,2.49-.33,1.14-.2,2.26-.44,3.38-.71s2.22-.59,3.31-1c.54-.19,1.09-.38,1.62-.6l.8-.34q.4-.18.79-.38h0v0l-.88,0-.87.08c-.58.07-1.15.15-1.72.25-1.14.2-2.26.45-3.37.73s-2.22.61-3.31,1c-.83.29-1.65.59-2.45.94a3.59,3.59,0,0,0-2.43-1.45,1.16,1.16,0,0,0-.29,0h0c-.08,0-.19,0-.3.13a.76.76,0,0,0-.21.21c-.21-.18-.41-.37-.63-.55a24,24,0,0,0-2.15-1.53,24.65,24.65,0,0,0-2.41-1.36c-.43-.21-.87-.41-1.33-.6l-.71-.27-.75-.24,0,0a5.17,5.17,0,0,0,.39.47c.14.15.29.3.44.45.3.29.62.57,1,.84a21.47,21.47,0,0,0,2.17,1.51c.77.47,1.58.93,2.44,1.34.45.21.91.42,1.38.62a2,2,0,0,0,0,.4H279.27v1.42H304a1.93,1.93,0,0,0,.45.3c-.21.42-.39.84-.56,1.25a17.85,17.85,0,0,0-.72,2.29,14.21,14.21,0,0,0-.38,2.29,10.48,10.48,0,0,0,0,1.15c0,.19,0,.38,0,.57a4.26,4.26,0,0,0,.1.57Z"/><path class="cls-5" d="M340.31,156.84a21,21,0,0,1-1.84-2.92,32.2,32.2,0,0,1-1.39-3,26.59,26.59,0,0,1-1-3.07c-.14-.52-.26-1-.35-1.56,0-.26-.09-.53-.12-.79a7.8,7.8,0,0,1-.06-.8h0q.29.35.54.72c.17.24.33.48.48.73.31.49.58,1,.85,1.47a28.22,28.22,0,0,1,1.36,3,30,30,0,0,1,1,3.07,16.67,16.67,0,0,1,.57,3.15Z"/><path class="cls-6" d="M335.52,144.68q.29.35.54.72c.17.24.33.48.48.73.31.49.58,1,.85,1.47a28.22,28.22,0,0,1,1.36,3,30,30,0,0,1,1,3.07,16.67,16.67,0,0,1,.57,3.15h0"/><path class="cls-5" d="M331.82,166.36l0,0q.16-.36.35-.69c.12-.22.25-.43.39-.64.27-.42.55-.82.85-1.21a22.39,22.39,0,0,1,1.93-2.19,25.3,25.3,0,0,1,2.17-2A15.31,15.31,0,0,1,340,158"/><path class="cls-6" d="M340,158l0,0a15.56,15.56,0,0,1-1.6,2.52,25.42,25.42,0,0,1-1.91,2.21,22.3,22.3,0,0,1-2.15,2c-.38.3-.78.6-1.19.87l-.63.4q-.32.19-.67.36"/><path class="cls-5" d="M341.29,155.71c-1.07,0-3.42,1.26-3.54,2.64s3.19.82,3.54.69,1.44-.82,1.3-1.85S342.36,155.71,341.29,155.71Z"/><rect class="cls-30" x="339.83" y="158.19" width="2.02" height="23.01"/><path class="cls-6" d="M337.77,158.61s4.15-.14,4.33-2.72c0,0,1.35,1.89-.47,3S337.54,158.94,337.77,158.61Z"/><path class="cls-6" d="M353.81,159.66v0q-.41.06-.81.09l-.81,0c-.54,0-1.08,0-1.63,0a30.76,30.76,0,0,1-3.25-.34c-1.08-.17-2.17-.38-3.26-.65a22.86,22.86,0,0,1-3.26-1.05v0"/><path class="cls-5" d="M340.79,157.72a19.62,19.62,0,0,1,3.25-.08c1.08.05,2.17.16,3.25.31a32,32,0,0,1,3.26.63c.54.14,1.09.29,1.63.46l.81.28q.41.15.81.33"/><path class="cls-8" d="M364.67,189.58A6.79,6.79,0,0,0,365,189c.11-.19.21-.38.31-.57.19-.38.36-.76.51-1.15a15.55,15.55,0,0,0,.69-2.29,16,16,0,0,0,.35-2.29c0-.35,0-.69,0-1h.47a2.6,2.6,0,0,0,1.41-.34h0a.73.73,0,0,0,.21-.57,1.54,1.54,0,0,0-.26-.73c.84-.08,1.67-.2,2.49-.33,1.14-.2,2.26-.44,3.38-.71s2.22-.59,3.31-1c.54-.19,1.09-.38,1.62-.6l.8-.34q.4-.18.79-.38h0v0l-.88,0-.87.08c-.58.07-1.15.15-1.72.25-1.14.2-2.26.45-3.37.73s-2.22.61-3.31,1c-.83.29-1.65.59-2.45.94a3.59,3.59,0,0,0-2.43-1.45,1.16,1.16,0,0,0-.29,0h0c-.08,0-.19,0-.3.13a.76.76,0,0,0-.21.21c-.21-.18-.41-.37-.63-.55a24,24,0,0,0-2.15-1.53,24.65,24.65,0,0,0-2.41-1.36c-.43-.21-.87-.41-1.33-.6l-.71-.27-.75-.24,0,0a5.17,5.17,0,0,0,.39.47c.14.15.29.3.44.45.3.29.62.57,1,.84a21.47,21.47,0,0,0,2.17,1.51c.77.47,1.58.93,2.44,1.34.45.21.91.42,1.38.62a2,2,0,0,0,0,.4H341v1.42h24.77a1.93,1.93,0,0,0,.45.3c-.21.42-.39.84-.56,1.25a17.85,17.85,0,0,0-.72,2.29,14.21,14.21,0,0,0-.38,2.29,10.48,10.48,0,0,0,0,1.15c0,.19,0,.38,0,.57a4.26,4.26,0,0,0,.1.57Z"/><path class="cls-5" d="M370.56,143.11a23.72,23.72,0,0,1-2.08-3.31,36.44,36.44,0,0,1-1.58-3.4,30.09,30.09,0,0,1-1.18-3.47c-.15-.59-.29-1.17-.4-1.77-.05-.3-.1-.6-.14-.9a8.83,8.83,0,0,1-.07-.91h0q.33.4.61.81c.19.27.37.55.54.82.35.55.66,1.11,1,1.67a32,32,0,0,1,1.54,3.41,34,34,0,0,1,1.15,3.48,18.87,18.87,0,0,1,.64,3.57Z"/><path class="cls-6" d="M365.14,129.34q.33.4.61.81c.19.27.37.55.54.82.35.55.66,1.11,1,1.67a32,32,0,0,1,1.54,3.41,34,34,0,0,1,1.15,3.48,18.87,18.87,0,0,1,.64,3.57h0"/><path class="cls-5" d="M360.95,153.88l0,0q.18-.4.39-.78c.14-.25.29-.49.44-.73.3-.48.63-.93,1-1.37a25.34,25.34,0,0,1,2.18-2.48,28.63,28.63,0,0,1,2.46-2.21,17.33,17.33,0,0,1,2.8-1.86"/><path class="cls-6" d="M370.15,144.43l0,0a17.61,17.61,0,0,1-1.81,2.85,28.77,28.77,0,0,1-2.16,2.5,25.24,25.24,0,0,1-2.43,2.23c-.43.34-.88.68-1.35,1-.23.15-.47.31-.72.45s-.5.28-.76.4"/><path class="cls-5" d="M371.66,141.83c-1.22,0-3.87,1.43-4,3s3.61.93,4,.78,1.62-.93,1.47-2.09S372.88,141.83,371.66,141.83Z"/><rect class="cls-31" x="370.01" y="144.64" width="2.28" height="26.05"/><path class="cls-6" d="M367.68,145.12s4.7-.16,4.91-3.08c0,0,1.53,2.14-.54,3.34S367.42,145.48,367.68,145.12Z"/><path class="cls-6" d="M385.83,146.3v0q-.46.07-.92.1l-.92,0c-.61,0-1.23,0-1.84,0a34.82,34.82,0,0,1-3.68-.39c-1.23-.19-2.46-.43-3.68-.74a25.87,25.87,0,0,1-3.69-1.19v0"/><path class="cls-5" d="M371.1,144.11a22.21,22.21,0,0,1,3.68-.09c1.23.06,2.45.18,3.68.36a36.22,36.22,0,0,1,3.68.71c.61.16,1.23.32,1.84.52l.92.32q.46.17.92.38"/><path class="cls-8" d="M333.45,140.65s8.08.37,10.75,0c.93-.13,4.68-1.32,3-2.85s-10.48-.94-10.48-.94Z"/><path class="cls-11" d="M334.52,133c1.53-.68,2.77.45,2.77,2.51s-1.22,4.29-2.75,5-2.77-.44-2.77-2.51S333,133.64,334.52,133Z"/><path class="cls-12" d="M335.33,132.77h0a1.66,1.66,0,0,1,.35,0h0a1.56,1.56,0,0,1,.33.11h0l-3.76-1.68h0l-.14-.05-.14,0h-.57l-.17,0h-.1l-.13,0-.25.1a3.17,3.17,0,0,0-.59.35l0,0-.23.19-.18.17,0,0,0,0-.11.11-.15.18-.15.19,0,.06,0,0-.08.11L329,133l-.15.25,0,0,0,0-.12.22-.15.32,0,.1,0,.1-.07.19q-.08.23-.15.47v0l0,.12c0,.17-.08.33-.11.5s0,0,0,.07a5.59,5.59,0,0,0-.07.88,2.65,2.65,0,0,0,1.25,2.57L333,140.5a2.65,2.65,0,0,1-1.25-2.57,5.59,5.59,0,0,1,.07-.88c0-.19.07-.38.12-.57l0-.12a6.63,6.63,0,0,1,.23-.68l0-.1a6.43,6.43,0,0,1,.3-.64l0,0a6,6,0,0,1,.39-.61l0,0a5.08,5.08,0,0,1,.45-.53l0,0a4,4,0,0,1,.47-.41,3.17,3.17,0,0,1,.59-.35,2.4,2.4,0,0,1,.38-.13H335A1.94,1.94,0,0,1,335.33,132.77Z"/><path class="cls-12" d="M348.08,189.85h0a1.66,1.66,0,0,1,.35,0h0a1.56,1.56,0,0,1,.33.11h0L345,188.3h0l-.14-.05-.14,0h-.57l-.17,0h-.1l-.13,0-.25.1a3.17,3.17,0,0,0-.59.35l0,0-.23.19-.18.17,0,0,0,0-.11.11-.15.18-.15.19,0,.06,0,0-.08.11-.14.22-.15.25,0,0,0,0-.12.22-.15.32,0,.1,0,.1-.07.19q-.08.23-.15.47v0l0,.12c0,.17-.08.33-.11.5s0,0,0,.07a5.59,5.59,0,0,0-.07.88A2.65,2.65,0,0,0,342,195.9l3.76,1.68a2.65,2.65,0,0,1-1.25-2.57,5.59,5.59,0,0,1,.07-.88c0-.19.07-.38.12-.57l0-.12a6.63,6.63,0,0,1,.23-.68l0-.1a6.43,6.43,0,0,1,.3-.64l0,0a6,6,0,0,1,.39-.61l0,0a5.08,5.08,0,0,1,.45-.53l0,0a4,4,0,0,1,.47-.41,3.17,3.17,0,0,1,.59-.35,2.4,2.4,0,0,1,.38-.13h.05A1.94,1.94,0,0,1,348.08,189.85Z"/><path class="cls-8" d="M317,200.55s8.08.37,10.75,0c.93-.13,4.68-1.32,3-2.85s-10.48-.94-10.48-.94Z"/><path class="cls-11" d="M318.11,192.87c1.53-.68,2.77.45,2.77,2.51s-1.22,4.29-2.75,5-2.77-.44-2.77-2.51S316.59,193.55,318.11,192.87Z"/><path class="cls-12" d="M318.92,192.68h0a1.66,1.66,0,0,1,.35,0h0a1.56,1.56,0,0,1,.33.11h0l-3.76-1.68h0l-.14-.05-.14,0H315l-.17,0h-.1l-.13,0-.25.1a3.17,3.17,0,0,0-.59.35l0,0-.23.19-.18.17,0,0,0,0-.11.11-.15.18-.15.19,0,.06,0,0-.08.11-.14.22-.15.25,0,0,0,0-.12.22-.15.32,0,.1,0,.1-.07.19q-.08.23-.15.47v0l0,.12c0,.17-.08.33-.11.5s0,0,0,.07a5.59,5.59,0,0,0-.07.88,2.65,2.65,0,0,0,1.25,2.57l3.76,1.68a2.65,2.65,0,0,1-1.25-2.57,5.59,5.59,0,0,1,.07-.88c0-.19.07-.38.12-.57l0-.12a6.63,6.63,0,0,1,.23-.68l0-.1a6.43,6.43,0,0,1,.3-.64l0,0a6,6,0,0,1,.39-.61l0,0a5.08,5.08,0,0,1,.45-.53l0,0a4,4,0,0,1,.47-.41,3.17,3.17,0,0,1,.59-.35,2.4,2.4,0,0,1,.38-.13h.05A1.94,1.94,0,0,1,318.92,192.68Z"/><polygon class="cls-8" points="225.51 149.12 296 190.08 225.63 230.88 155.08 190 225.51 149.12"/><polygon class="cls-32" points="155.64 162.84 155.64 178.9 225.93 220.09 225.81 203.52 155.64 162.84"/><polygon class="cls-33" points="225.81 203.52 296.22 162.84 296.22 179.31 225.93 220.09 225.81 203.52"/><polygon class="cls-34" points="240.59 173.74 239.41 173.11 226.23 164.84 211.34 174.15 267.42 174.15 266.25 173.74 240.59 173.74"/><polygon class="cls-34" points="239.41 153.16 240.59 152.54 265.22 152.54 266.35 152.12 211.34 152.12 226.23 161.44 239.41 153.16"/><path class="cls-34" d="M237.43,160.17h7.12l16-5.91H243.13l-14.19,8.88L243.13,172h18.28l-17-6.06-7,0a2.85,2.85,0,0,1-2.08-2.75s0-.08,0-.12A3.21,3.21,0,0,1,237.43,160.17Z"/><path class="cls-34" d="M204.91,174.82l1.07-.67,17.54-11-17.54-11-1.07-.67,2.56-1.75h65.41l.44-.15L225.87,122l-70.35,40.76L226,203.61l46.57-27H207.47Z"/><path class="cls-34" d="M273.33,149.54l-.44.15H207.47l-2.56,1.75,1.07.67,17.54,11-17.54,11-1.07.67,2.56,1.75h65.08l23.67-13.74Zm-62,2.58h55l-1.13.42H240.59l-1.18.62-13.18,8.28Zm26.08,13.81,7,0,17,6.06H243.13l-14.19-8.88,14.19-8.88h17.43l-16,5.91h-7.12a3.21,3.21,0,0,0-2.07,2.89s0,.08,0,.12A2.85,2.85,0,0,0,237.43,165.93Zm-26.08,8.22,14.88-9.31,13.18,8.28,1.18.62h25.66l1.17.42Z"/><path class="cls-8" d="M273.33,149.54l-.44.15H207.47l-2.56,1.75,1.07.67,17.54,11-17.54,11-1.07.67,2.56,1.75h65.08l23.67-13.74Zm-62,2.58h55l-1.13.42H240.59l-1.18.62-13.18,8.28Zm26.08,13.81,7,0,17,6.06H243.13l-14.19-8.88,14.19-8.88h17.43l-16,5.91h-7.12a3.21,3.21,0,0,0-2.07,2.89s0,.08,0,.12A2.85,2.85,0,0,0,237.43,165.93Zm-26.08,8.22,14.88-9.31,13.18,8.28,1.18.62h25.66l1.17.42Z"/><path class="cls-35" d="M220.17,149.67v5.14s1.34,1.44,5.78,1.5v-6.58Z"/><path class="cls-36" d="M226,149.72v6.58h.25c4.42,0,5.49-1.5,5.49-1.5l0-5Z"/><polyline class="cls-37" points="246.05 151.95 246.05 131.28 247.29 131.28 247.29 152.53 246.05 153.38"/><polygon class="cls-24" points="243.85 150.69 243.85 134.62 246.05 134.89 246.05 151.95 243.85 150.69"/><polygon class="cls-24" points="204.08 175.9 246.05 151.95 246.05 153.38 204.08 177.52 204.08 175.9"/><polygon class="cls-37" points="202.74 177.03 246.05 151.95 243.85 150.69 199.24 176.44 202.74 177.03"/><polyline class="cls-37" points="206.16 151.95 206.16 131.28 204.91 131.28 204.91 152.53 206.16 153.38"/><polygon class="cls-24" points="208.36 150.69 208.36 134.62 206.16 134.89 206.16 151.95 208.36 150.69"/><path class="cls-37" d="M226.1,150.89V112.83s-26.53-.77-27.35,15.87l21.42,21A14.59,14.59,0,0,0,226.1,150.89Z"/><path class="cls-38" d="M225.9,112.83l.18,38.05a15.52,15.52,0,0,0,5.65-1.12l22.14-22.45C253.06,110.68,225.9,112.83,225.9,112.83Z"/><rect class="cls-35" x="195.42" y="78.18" width="30.59" height="20.47"/><polygon class="cls-36" points="226 78.18 256.39 78.18 256.02 98.64 226 98.64 226 78.18"/><path class="cls-39" d="M226,53.28l-.2,42.65s29.76-1.11,30.59-17.74Z"/><path class="cls-37" d="M226,53.28V95.92s-29.76-1.11-30.59-17.74Z"/><path class="cls-35" d="M204.42,90.75a19.94,19.94,0,0,1-7.28-6.69A12.39,12.39,0,0,1,196,81.57q-.14-.42-.24-.84a10.47,10.47,0,0,1-.31-2.55l-.19,42.24c0,4.55,3,9.1,9,12.57s13.91,5.2,21.78,5.17V95.92C218.2,95.92,210.39,94.2,204.42,90.75Z"/><path class="cls-24" d="M247.53,90.75C241.6,94.2,233.8,95.92,226,95.92v42.24c7.74,0,15.45-1.75,21.33-5.17s8.84-7.91,8.86-12.4l.19-42.24C256.37,82.84,253.42,87.32,247.53,90.75Z"/><polygon class="cls-37" points="199.24 120.13 199.24 176.44 202.74 178.29 202.74 121.98 199.24 120.13"/><polygon class="cls-24" points="202.74 121.98 204.08 121.28 204.08 177.52 202.74 178.29 202.74 121.98"/><polygon class="cls-24" points="248.12 175.9 206.16 151.95 206.16 153.38 248.12 177.52 248.12 175.9"/><polygon class="cls-37" points="249.46 177.03 206.16 151.95 208.36 150.69 252.97 176.44 249.46 177.03"/><polygon class="cls-24" points="252.97 120.13 252.97 176.44 249.46 178.29 249.46 121.98 252.97 120.13"/><polygon class="cls-37" points="249.46 121.98 248.12 121.28 248.12 177.52 249.46 178.29 249.46 121.98"/><ellipse class="cls-37" cx="200.62" cy="123.7" rx="0.78" ry="0.89"/><path class="cls-24" d="M200.62,122.82h.57a.93.93,0,0,1,.47.89,1.17,1.17,0,0,1-.48.89h-.56a1,1,0,0,0,0-1.77Z"/><ellipse class="cls-24" cx="251.89" cy="123.7" rx="0.78" ry="0.89"/><path class="cls-36" d="M251.89,122.82h-.57a.93.93,0,0,0-.47.89,1.17,1.17,0,0,0,.48.89h.56a1,1,0,0,1,0-1.77Z"/></g></svg>