<svg xmlns="http://www.w3.org/2000/svg" xmlns:xlink="http://www.w3.org/1999/xlink" viewBox="0 0 461.08 357.78"><defs><style>.cls-1{fill:none;}.cls-2{fill:url(#linear-gradient);}.cls-3{fill:#97a072;}.cls-4,.cls-58{fill:#5c515f;}.cls-4{opacity:0.6;}.cls-5{fill:url(#linear-gradient-2);}.cls-6{fill:#71c9c9;}.cls-7{fill:#61aaa8;}.cls-8{fill:#bca493;}.cls-9{fill:#79d7db;}.cls-10{fill:#b0eaea;}.cls-11{fill:#d8bdab;}.cls-12{fill:#edd4b9;}.cls-13{fill:url(#linear-gradient-3);}.cls-14{fill:url(#linear-gradient-4);}.cls-15{fill:url(#linear-gradient-5);}.cls-16{fill:url(#linear-gradient-6);}.cls-17{fill:url(#linear-gradient-7);}.cls-18{fill:url(#linear-gradient-8);}.cls-19{fill:url(#linear-gradient-9);}.cls-20{fill:#818963;}.cls-21{fill:#97a073;}.cls-22{fill:#aeba83;}.cls-23{fill:#c4d193;}.cls-24{fill:#c6a283;}.cls-25{fill:#ad8c74;}.cls-26{clip-path:url(#clip-path);}.cls-27{fill:#9e806c;}.cls-28{clip-path:url(#clip-path-2);}.cls-29{clip-path:url(#clip-path-3);}.cls-30{clip-path:url(#clip-path-4);}.cls-31{fill:url(#linear-gradient-10);}.cls-32{fill:url(#linear-gradient-11);}.cls-33{fill:url(#linear-gradient-12);}.cls-34{fill:url(#linear-gradient-13);}.cls-35{fill:url(#linear-gradient-14);}.cls-36{fill:url(#linear-gradient-15);}.cls-37{fill:url(#linear-gradient-16);}.cls-38{fill:#67b7b7;}.cls-39{fill:url(#linear-gradient-17);}.cls-40{isolation:isolate;}.cls-41{clip-path:url(#clip-path-5);}.cls-42{fill:#afad87;}.cls-43{fill:#fff;opacity:0.8;}.cls-44{fill:url(#linear-gradient-20);}.cls-45{fill:#15160f;opacity:0.1;}.cls-46{fill:url(#linear-gradient-21);}.cls-47{fill:url(#linear-gradient-22);}.cls-48{fill:url(#linear-gradient-23);}.cls-49{fill:url(#linear-gradient-24);}.cls-50{fill:url(#linear-gradient-25);}.cls-51{fill:url(#linear-gradient-26);}.cls-52{fill:url(#linear-gradient-27);}.cls-53{fill:url(#linear-gradient-28);}.cls-54{fill:url(#linear-gradient-29);}.cls-55{fill:#ccc;}.cls-56{fill:#b5b5b5;}.cls-57{fill:#727272;}.cls-59{fill:#a69bae;}.cls-60{fill:#908697;}.cls-61{fill:url(#linear-gradient-30);}.cls-62{fill:url(#linear-gradient-31);}.cls-63{fill:url(#linear-gradient-32);}</style><linearGradient id="linear-gradient" x1="7691.33" y1="254.96" x2="7707.1" y2="254.96" gradientTransform="matrix(-1, 0, 0, 1, 7928.84, 0)" gradientUnits="userSpaceOnUse"><stop offset="0" stop-color="#8c7d91"/><stop offset="1" stop-color="#5c515f"/></linearGradient><linearGradient id="linear-gradient-2" x1="232.99" y1="143.58" x2="337.12" y2="143.58" gradientUnits="userSpaceOnUse"><stop offset="0" stop-color="#6c7b52"/><stop offset="0.3" stop-color="#7c8c5e"/><stop offset="0.63" stop-color="#869766"/><stop offset="1" stop-color="#899b68"/></linearGradient><linearGradient id="linear-gradient-3" x1="7563.19" y1="127.48" x2="7561.76" y2="143.99" gradientTransform="matrix(-1, 0, 0, 1, 7935.49, -14.26)" gradientUnits="userSpaceOnUse"><stop offset="0" stop-color="#9eefef"/><stop offset="0.03" stop-color="#9deded" stop-opacity="0.93"/><stop offset="0.17" stop-color="#99e4e5" stop-opacity="0.65"/><stop offset="0.31" stop-color="#95ddde" stop-opacity="0.42"/><stop offset="0.43" stop-color="#93d7d9" stop-opacity="0.24"/><stop offset="0.54" stop-color="#91d3d5" stop-opacity="0.11"/><stop offset="0.63" stop-color="#8fd1d3" stop-opacity="0.03"/><stop offset="0.7" stop-color="#8fd0d2" stop-opacity="0"/></linearGradient><linearGradient id="linear-gradient-4" x1="7586.91" y1="179.35" x2="7586.07" y2="189.05" xlink:href="#linear-gradient-3"/><linearGradient id="linear-gradient-5" x1="7545.77" y1="154.59" x2="7544.64" y2="167.6" xlink:href="#linear-gradient-3"/><linearGradient id="linear-gradient-6" x1="7521.92" y1="144.43" x2="7521.08" y2="154.13" xlink:href="#linear-gradient-3"/><linearGradient id="linear-gradient-7" x1="7582.73" y1="149.45" x2="7581.89" y2="159.15" xlink:href="#linear-gradient-3"/><linearGradient id="linear-gradient-8" x1="7604.2" y1="133.3" x2="7603.36" y2="143" xlink:href="#linear-gradient-3"/><linearGradient id="linear-gradient-9" x1="7611.03" y1="158.64" x2="7610.09" y2="169.46" xlink:href="#linear-gradient-3"/><clipPath id="clip-path"><path class="cls-1" d="M179.91,221.51a57.12,57.12,0,0,1,.92-7.59h0c.06-.27.11-.52.17-.74.54-2,1.16-3.65,1.16-3.65a.52.52,0,0,1,.36,0l-.08,0,.1,0h0a.54.54,0,0,1,.19,0h0c.14,0,.26.1.2.44a33.54,33.54,0,0,0-1.35,7c-.25,3.6.78,10.67.25,11.49a.9.9,0,0,1-.43.36h0a1.14,1.14,0,0,1-.54.06l-.3-.06a1.77,1.77,0,0,0,.3.06,1.84,1.84,0,0,1-.92-.19S179.91,222.82,179.91,221.51Z"/></clipPath><clipPath id="clip-path-2"><path class="cls-1" d="M236.27,181.46a44.24,44.24,0,0,1,.71-5.88h0c0-.21.09-.41.13-.57.42-1.58.9-2.83.9-2.83a.4.4,0,0,1,.28,0l-.07,0,.08,0h0l.14,0h0c.1,0,.2.08.15.34a26,26,0,0,0-1,5.43c-.19,2.79.61,8.26.19,8.9a.7.7,0,0,1-.34.28h0a.89.89,0,0,1-.42,0l-.23,0,.23,0a1.43,1.43,0,0,1-.71-.15S236.27,182.48,236.27,181.46Z"/></clipPath><clipPath id="clip-path-3"><path class="cls-1" d="M173.25,232.25a57.12,57.12,0,0,1,.92-7.59h0c.06-.27.11-.52.17-.74.54-2,1.16-3.65,1.16-3.65a.52.52,0,0,1,.36,0l-.08,0,.1,0h0a.54.54,0,0,1,.19,0h0c.14,0,.26.1.2.44a33.54,33.54,0,0,0-1.35,7c-.25,3.6.78,10.67.25,11.49a.9.9,0,0,1-.43.36h0a1.14,1.14,0,0,1-.54.06l-.3-.06a1.77,1.77,0,0,0,.3.06,1.84,1.84,0,0,1-.92-.19S173.25,233.56,173.25,232.25Z"/></clipPath><clipPath id="clip-path-4"><path class="cls-1" d="M181.6,237.79a62.26,62.26,0,0,1,1-8.27h0c.06-.3.12-.57.18-.8.59-2.22,1.26-4,1.26-4a.57.57,0,0,1,.39,0l-.09,0,.11,0h0a.59.59,0,0,1,.2,0h0c.15,0,.28.11.22.48a36.56,36.56,0,0,0-1.47,7.65c-.27,3.92.85,11.63.27,12.52a1,1,0,0,1-.47.39h0a1.25,1.25,0,0,1-.59.07l-.33-.07a1.93,1.93,0,0,0,.33.07,2,2,0,0,1-1-.21S181.6,239.21,181.6,237.79Z"/></clipPath><linearGradient id="linear-gradient-10" x1="7676.75" y1="193.45" x2="7675.32" y2="209.96" xlink:href="#linear-gradient-3"/><linearGradient id="linear-gradient-11" x1="7700.47" y1="245.33" x2="7699.63" y2="255.03" xlink:href="#linear-gradient-3"/><linearGradient id="linear-gradient-12" x1="7659.32" y1="220.57" x2="7658.2" y2="233.57" xlink:href="#linear-gradient-3"/><linearGradient id="linear-gradient-13" x1="7635.48" y1="210.41" x2="7634.63" y2="220.11" xlink:href="#linear-gradient-3"/><linearGradient id="linear-gradient-14" x1="7696.29" y1="215.43" x2="7695.45" y2="225.13" xlink:href="#linear-gradient-3"/><linearGradient id="linear-gradient-15" x1="7717.75" y1="199.28" x2="7716.91" y2="208.98" xlink:href="#linear-gradient-3"/><linearGradient id="linear-gradient-16" x1="7724.59" y1="224.62" x2="7723.65" y2="235.44" xlink:href="#linear-gradient-3"/><linearGradient id="linear-gradient-17" x1="7691.33" y1="254.35" x2="7707.1" y2="254.35" gradientTransform="matrix(-1, 0, 0, 1, 7928.84, 0)" gradientUnits="userSpaceOnUse"><stop offset="0" stop-color="#8c9591"/><stop offset="1" stop-color="#5c575f"/></linearGradient><clipPath id="clip-path-5"><path class="cls-2" d="M221.74,259.18h0a1.16,1.16,0,0,0,1.37,1.14c2.21-.42,6.57-1.42,9.26-3.06a13.16,13.16,0,0,0,4.7-5.3,4.2,4.2,0,0,0,.44-1.88v-.5a13.43,13.43,0,0,1-5.14,6.3C228.71,258.12,222,259.15,221.74,259.18Z"/></clipPath><linearGradient id="linear-gradient-20" x1="129.05" y1="101.01" x2="337.29" y2="101.01" gradientUnits="userSpaceOnUse"><stop offset="0" stop-color="#899b68"/><stop offset="0.09" stop-color="#9da567"/><stop offset="0.26" stop-color="#beb565"/><stop offset="0.43" stop-color="#d8c164"/><stop offset="0.61" stop-color="#eaca63"/><stop offset="0.79" stop-color="#f5cf62"/><stop offset="1" stop-color="#f9d162"/></linearGradient><linearGradient id="linear-gradient-21" x1="129.05" y1="93.28" x2="337.29" y2="93.28" xlink:href="#linear-gradient-2"/><linearGradient id="linear-gradient-22" x1="129.05" y1="122.01" x2="337.29" y2="122.01" xlink:href="#linear-gradient-2"/><linearGradient id="linear-gradient-23" x1="181.63" y1="122.01" x2="332.4" y2="122.01" gradientUnits="userSpaceOnUse"><stop offset="0" stop-color="#f97e62"/><stop offset="0.15" stop-color="#f99662"/><stop offset="0.35" stop-color="#f9b062"/><stop offset="0.55" stop-color="#f9c262"/><stop offset="0.76" stop-color="#f9cd62"/><stop offset="1" stop-color="#f9d162"/></linearGradient><linearGradient id="linear-gradient-24" x1="1490.39" y1="168.58" x2="1698.63" y2="168.58" gradientTransform="matrix(-1, 0, 0, 1, 1710.99, 0)" xlink:href="#linear-gradient-20"/><linearGradient id="linear-gradient-25" x1="1490.39" y1="167.03" x2="1698.63" y2="167.03" gradientTransform="matrix(-1, 0, 0, 1, 1710.99, 0)" xlink:href="#linear-gradient-2"/><linearGradient id="linear-gradient-26" x1="1490.39" y1="189.58" x2="1698.63" y2="189.58" gradientTransform="matrix(-1, 0, 0, 1, 1710.99, 0)" xlink:href="#linear-gradient-2"/><linearGradient id="linear-gradient-27" x1="1521.58" y1="171.12" x2="1718.05" y2="171.12" gradientTransform="matrix(-1, 0, 0, 1, 1710.99, 0)" xlink:href="#linear-gradient-23"/><linearGradient id="linear-gradient-28" x1="1521.58" y1="196" x2="1718.05" y2="196" gradientTransform="matrix(-1, 0, 0, 1, 1710.99, 0)" xlink:href="#linear-gradient-23"/><linearGradient id="linear-gradient-29" x1="1521.58" y1="187.35" x2="1718.05" y2="187.35" gradientTransform="matrix(-1, 0, 0, 1, 1710.99, 0)" xlink:href="#linear-gradient-23"/><linearGradient id="linear-gradient-30" x1="193.54" y1="119.21" x2="219.07" y2="119.21" gradientUnits="userSpaceOnUse"><stop offset="0" stop-color="#8c7d91"/><stop offset="0.96" stop-color="#5c515f"/><stop offset="1"/></linearGradient><linearGradient id="linear-gradient-31" x1="207.66" y1="127.56" x2="233.56" y2="127.56" xlink:href="#linear-gradient-30"/><linearGradient id="linear-gradient-32" x1="222.14" y1="136.16" x2="248" y2="136.16" gradientUnits="userSpaceOnUse"><stop offset="0" stop-color="#8c7d91"/><stop offset="0.9" stop-color="#5c515f"/></linearGradient></defs><title>logos-mega2</title><g id="Layer_16" data-name="Layer 16"><polygon class="cls-3" points="233.16 161.43 128.85 101.16 128.85 125.56 232.97 185.98 233.16 161.43"/><polygon class="cls-4" points="343.68 152.67 447.81 213.19 343.86 273.46 239.63 213.07 343.68 152.67"/><polygon class="cls-4" points="230.37 219.08 334.51 279.59 230.56 339.87 126.33 279.48 230.37 219.08"/><path class="cls-4" d="M219.71,215s-13-32.48-32.27-42.89-29.72-3.61-38.22-10.4-27.39-11-33.76-7.43-104,60.63-104,60.63l104.32,60.29Z"/><polygon class="cls-5" points="337.12 101.17 337.12 124.98 232.99 186 233.17 161.45 337.12 101.17"/><polygon class="cls-6" points="448.51 166.77 448.51 190.58 344.38 251.6 344.56 227.05 448.51 166.77"/><polygon class="cls-7" points="344.55 227.03 240.24 166.76 240.24 191.16 344.37 251.58 344.55 227.03"/><path class="cls-8" d="M337.85,125.3c-2.07.55,4.07.74,4.07.74a22.48,22.48,0,0,0,8.19-6.43c3.26-4.34-.56-2.4-.56-2.4A22.17,22.17,0,0,1,337.85,125.3Z"/><polygon class="cls-9" points="344.38 106.26 448.51 166.78 344.56 227.05 240.33 166.67 344.38 106.26"/><path class="cls-10" d="M360.46,115.61s2.75,6-1.24,10.43-16.4,9.89-23.28,10.28-16,1.72-20.17,9.48-7.78,5.7-8.45,11-13.17,4.35-15.93,7.56c-3.43,4-6.51,7.75-6.33,14.18s-17.69,3.81-17.69,3.81l-11.32-6.56,17.32-9.12,31.42-28.19,27.37-15.81,22.26-10.54Z"/><path class="cls-11" d="M280.91,175.78c0,5.95-20.11,2.74-20.11,2.74l-15.72-9.11,54.74-33.62,33.36-14.66,21.26-9,2.74,1.59s1,8.62-2.3,10.81-9.4,6-15.48,6.5-15.18,1-22.53,7.45-7.92,14.19-12.8,15.74c-5.76,1.83-14.46,5.08-16.1,7.24C285.55,164.63,280.91,175.78,280.91,175.78Z"/><path class="cls-12" d="M354.44,112.11s2.18,7.81-3.2,12.42-24.62.47-37.77,15.37-17.63,4.47-23.85,14-11.92,8.07-11.7,16.85c.21,8.29-23.94,3.83-23.94,3.83l-13.66-7.91,104-60.4Z"/><path class="cls-11" d="M304.81,135.25c0,2,.64,4.17,3.88,2.76s3.82-7.11,7.53-7.37,6.48-3.36,4.78-4.43-10.49,3-11.1,4.46S304.81,135.25,304.81,135.25Z"/><path class="cls-11" d="M268.85,170.21a12.57,12.57,0,0,0,4.68-5.52c1.09-2.58,5.05-10.5,4.29-11.5s-.31-5.51-1.15-6.25-.65,4.2-2.27,8.85-1.5,7.35-3.62,7.85S268.85,170.21,268.85,170.21Z"/><path class="cls-11" d="M332.18,122.65c3.32.45,12.52-3.15,12.23-5.16s-.9-.61-4.93-2.61-3.68,5.81-6.31,6.25S332.18,122.65,332.18,122.65Z"/><path class="cls-11" d="M337.85,125.3c-2.07.55,4.07.74,4.07.74a22.48,22.48,0,0,0,8.19-6.43c3.26-4.34-.56-2.4-.56-2.4A22.17,22.17,0,0,1,337.85,125.3Z"/><path class="cls-11" d="M266.28,156.87c-1.36-.31-2.39.21-3.87,1.6s-7,5.41-7.6,6.12c-1.83,2.26-.06,4,.28,4.72s1.67-2.59,4.11-5.2,3.06-3.52,4.71-4.13C265.39,159.43,267.64,157.18,266.28,156.87Z"/><path class="cls-13" d="M386.69,148.2s-11-4.3-11.37-7a2.27,2.27,0,0,1,2.33-2.68s-8.68-1.64-16,11.74S386.69,148.2,386.69,148.2Z"/><path class="cls-14" d="M357.46,197.58s-6.48-2.52-6.68-4.09a1.33,1.33,0,0,1,1.37-1.57s-5.1-1-9.38,6.9S357.46,197.58,357.46,197.58Z"/><path class="cls-15" d="M401.28,173.92s-8.69-3.38-9-5.49a1.79,1.79,0,0,1,1.83-2.11s-6.84-1.29-12.58,9.25S401.28,173.92,401.28,173.92Z"/><path class="cls-16" d="M422.31,162.42s-6.48-2.52-6.68-4.09a1.33,1.33,0,0,1,1.37-1.57s-5.1-1-9.38,6.9S422.31,162.42,422.31,162.42Z"/><path class="cls-17" d="M361.52,167.67s-6.48-2.52-6.68-4.09a1.33,1.33,0,0,1,1.37-1.57s-5.1-1-9.38,6.9S361.52,167.67,361.52,167.67Z"/><path class="cls-18" d="M340,151.6s-6.48-2.52-6.68-4.09a1.33,1.33,0,0,1,1.37-1.57s-5.1-1-9.38,6.9S340,151.6,340,151.6Z"/><path class="cls-19" d="M334.2,177.39s-7.23-2.82-7.45-4.56a1.49,1.49,0,0,1,1.52-1.76s-5.69-1.07-10.47,7.69S334.2,177.39,334.2,177.39Z"/><polygon class="cls-6" points="335.21 233.18 335.21 256.98 231.07 318 231.25 293.46 335.21 233.18"/><polygon class="cls-20" points="220.44 168.55 220.44 192.35 116.3 253.38 116.49 228.83 220.44 168.55"/><polygon class="cls-7" points="231.25 293.44 126.93 233.17 126.93 257.57 231.06 317.99 231.25 293.44"/><polygon class="cls-21" points="116.47 228.85 12.16 168.58 12.16 192.98 116.29 253.4 116.47 228.85"/><path class="cls-8" d="M224.54,191.71c-2.07.55,4.07.74,4.07.74A22.48,22.48,0,0,0,236.8,186c3.26-4.34-.56-2.4-.56-2.4A22.17,22.17,0,0,1,224.54,191.71Z"/><polygon class="cls-9" points="231.07 172.67 335.21 233.19 231.25 293.46 127.03 233.07 231.07 172.67"/><path class="cls-10" d="M247.16,182s2.75,6-1.24,10.43-16.4,9.89-23.28,10.28-16,1.72-20.17,9.48-5.32,15.57-6,20.86-3.25,7.29-2.84,11.5,6,7.54,6.21,14S197.7,274,197.7,274l-14.21-8.23-5.42-24.61,13.43-36.31,27.37-15.81,22.26-10.54Z"/><path class="cls-11" d="M243.88,180.11s1,8.62-2.3,10.81-9.4,6-15.48,6.5-15.18,1-22.53,7.45a34.92,34.92,0,0,0-10.88,20.39c-.76,5.06-1.77,14.12-3.8,15.92s-2.25,4.14,1.15,8.54,6.7,7.69,6.7,13.64-2,8.94-2,8.94l-18.41-25.2,10.2-44.89,33.36-14.66,21.26-9Z"/><path class="cls-12" d="M241.14,178.52s2.18,7.81-3.2,12.42-24.62.47-37.77,15.37-7.75,23.18-14,32.7.31,9.52,4.7,16.56,3.83,16.72,3.83,16.72L127,233.07l104-60.4Z"/><path class="cls-11" d="M204.38,192.12c0,1.33.42,2.76,2.56,1.83s2.52-4.7,5-4.87,4.28-2.22,3.16-2.93-6.94,2-7.34,2.95S204.38,192.12,204.38,192.12Z"/><path class="cls-11" d="M178.07,241.18a12.57,12.57,0,0,0,4.68-5.52c1.09-2.58,5.05-10.5,4.29-11.5s-.31-5.51-1.15-6.25-.65,4.2-2.27,8.85-1.5,7.35-3.62,7.85S178.07,241.18,178.07,241.18Z"/><path class="cls-11" d="M218.88,189.06c3.32.45,12.52-3.15,12.23-5.16s-.9-.61-4.93-2.61-3.68,5.81-6.31,6.25S218.88,189.06,218.88,189.06Z"/><path class="cls-11" d="M224.54,191.71c-2.07.55,4.07.74,4.07.74A22.48,22.48,0,0,0,236.8,186c3.26-4.34-.56-2.4-.56-2.4A22.17,22.17,0,0,1,224.54,191.71Z"/><path class="cls-11" d="M178.74,250.09c-.45,1.32,0,2.4,1.18,4s4.64,7.56,5.28,8.2c2.05,2.06,4,.48,4.73.22s-2.4-1.93-4.74-4.64-3.18-3.41-3.61-5.12C181.19,251.24,179.19,248.77,178.74,250.09Z"/><path class="cls-4" d="M166,228.1c-1.22-.23-2.27-.47-2.93-.64a.65.65,0,0,1-.55.25l-.14,0,.65,5s-5.48-3.31-1.3-5.55a14.36,14.36,0,0,0-3.75,2,1.76,1.76,0,0,0-1-.45,3.3,3.3,0,0,1,.78.62,13,13,0,0,0-2.12,2.41s0-.07,0-.19a4.18,4.18,0,0,1,1.68-4.27c1.26-1,3.43-.82,4.19-.72a3.55,3.55,0,0,1-2-2.17c-.59-2,1.83-3.4,1.83-3.4a6.41,6.41,0,0,0,0,3.08,3,3,0,0,1-1.25,0s.15.21,1.23.28l.88,2a.69.69,0,0,1,.5-.2.77.77,0,0,1,.36.09.41.41,0,0,1,.25.34.36.36,0,0,1-.13.26,45.64,45.64,0,0,0,6.55.86c3.6.18,10.67-.55,11.49-.18a.62.62,0,0,1,.43.69,1,1,0,0,1-.19.65h-7.12A74.5,74.5,0,0,1,166,228.1Z"/><path class="cls-22" d="M182.6,209.28l-8.1.92S179.43,204.4,182.6,209.28Z"/><path class="cls-23" d="M183,209s.44-3.4-2.07-5a8.27,8.27,0,0,0-5.17-1.15,18.06,18.06,0,0,1,3.39,2.12,3.84,3.84,0,0,0,.88-.78,1.55,1.55,0,0,1-.63,1s2.86,2.76,2.93,4S183,209,183,209Z"/><polygon class="cls-22" points="190.96 208.49 182.63 209.64 186.44 206.98 190.96 208.49"/><path class="cls-23" d="M182.63,209.64a4.57,4.57,0,0,1,3.53-3,5.26,5.26,0,0,1,4.8,1.83,12.65,12.65,0,0,0-4.34,0,2.12,2.12,0,0,1,0-1.25s-.29.15-.39,1.23Z"/><path class="cls-23" d="M182.67,209.45l-8.17.75S180.08,205.08,182.67,209.45Z"/><path class="cls-24" d="M181.53,228.4c.53-.82-.5-7.89-.25-11.49a33.53,33.53,0,0,1,1.35-7c0-.26,0-.37-.11-.41.16,0,.48-.09.39.41a33.54,33.54,0,0,0-1.35,7c-.25,3.6.78,10.67.25,11.49a1,1,0,0,1-1,.43A.91.91,0,0,0,181.53,228.4Z"/><path class="cls-25" d="M179.91,221.51a53.54,53.54,0,0,1,1.09-8.34c.54-2,1.16-3.65,1.16-3.65a.52.52,0,0,1,.36,0l-.08,0s-.62,1.62-1.16,3.65a53.54,53.54,0,0,0-1.09,8.34c0,1.31,0,7.12,0,7.12a2,2,0,0,0,.64.19,1.84,1.84,0,0,1-.92-.19S179.91,222.83,179.91,221.51Z"/><path class="cls-24" d="M180.19,221.51a53.54,53.54,0,0,1,1.09-8.34c.54-2,1.16-3.65,1.16-3.65l.08,0c.09,0,.16.16.11.41a33.53,33.53,0,0,0-1.35,7c-.25,3.6.78,10.67.25,11.49a.91.91,0,0,1-.7.43,2,2,0,0,1-.64-.19S180.19,222.83,180.19,221.51Z"/><path class="cls-25" d="M182.73,209.43a.6.6,0,0,0-.13.36.61.61,0,0,0,.61.61.61.61,0,0,0,.41-.16.6.6,0,0,1-.48.25.61.61,0,0,1-.61-.61A.61.61,0,0,1,182.73,209.43Z"/><path class="cls-24" d="M182.6,209.79a.6.6,0,0,1,.13-.36.61.61,0,0,1,.41-.16.61.61,0,0,1,.61.61.6.6,0,0,1-.13.36.61.61,0,0,1-.41.16A.61.61,0,0,1,182.6,209.79Z"/><path class="cls-25" d="M181.75,209.24a.59.59,0,0,0-.13.36.61.61,0,0,0,.61.61.6.6,0,0,0,.4-.16.6.6,0,0,1-.48.25.61.61,0,0,1-.61-.61A.6.6,0,0,1,181.75,209.24Z"/><path class="cls-24" d="M181.62,209.6a.59.59,0,0,1,.13-.36.6.6,0,0,1,.4-.16.61.61,0,0,1,.61.61.59.59,0,0,1-.13.36.6.6,0,0,1-.4.16A.61.61,0,0,1,181.62,209.6Z"/><path class="cls-22" d="M183,209s.82-2.93-.95-4.47a7.33,7.33,0,0,0-6.29-1.65S182,202.15,183,209Z"/><g class="cls-26"><path class="cls-27" d="M182.65,211.14a1.09,1.09,0,0,1-.58,0,.84.84,0,0,1-.52-.26h0c.4,0,.7.3,1.09.25Z"/><path class="cls-27" d="M182.52,211.73a1.09,1.09,0,0,1-.58,0,.84.84,0,0,1-.52-.26h0c.4,0,.7.3,1.09.25Z"/><path class="cls-27" d="M182.3,212.31a1.09,1.09,0,0,1-.58,0,.84.84,0,0,1-.52-.26h0c.4,0,.7.3,1.09.25Z"/><path class="cls-27" d="M182.28,212.89a1.26,1.26,0,0,1-.67,0,1.06,1.06,0,0,1-.6-.29h0c.45,0,.81.35,1.26.28Z"/><path class="cls-27" d="M182.06,213.68a1.26,1.26,0,0,1-.67,0,1.06,1.06,0,0,1-.6-.29h0c.45,0,.81.35,1.26.28Z"/><path class="cls-27" d="M181.92,214.59a1.26,1.26,0,0,1-.67,0,1.06,1.06,0,0,1-.6-.29h0c.45,0,.81.35,1.26.28Z"/><path class="cls-27" d="M181.75,215.63a1.26,1.26,0,0,1-.67,0,1.06,1.06,0,0,1-.61-.27h0c.45,0,.82.32,1.27.24Z"/><path class="cls-27" d="M181.66,216.46a1.26,1.26,0,0,1-.67,0,1.07,1.07,0,0,1-.62-.26h0c.45,0,.83.31,1.27.22Z"/><path class="cls-27" d="M181.58,217.28a1.26,1.26,0,0,1-.67,0,1.06,1.06,0,0,1-.62-.26h0c.45,0,.83.31,1.27.22Z"/><path class="cls-27" d="M181.55,218.43a1.43,1.43,0,0,1-.76,0,1.31,1.31,0,0,1-.7-.29h0c.51,0,.94.35,1.44.25Z"/><path class="cls-27" d="M181.66,219.55a1.62,1.62,0,0,1-.85.06,1.59,1.59,0,0,1-.8-.29h0a4.47,4.47,0,0,1,.82.19,1.76,1.76,0,0,0,.82,0Z"/><path class="cls-27" d="M181.64,220.65a1.82,1.82,0,0,1-.95.06,1.9,1.9,0,0,1-.89-.32h0a6.29,6.29,0,0,1,.91.22,2,2,0,0,0,.92,0Z"/><path class="cls-27" d="M181.74,222.09a1.88,1.88,0,0,1-1,.06,2,2,0,0,1-.92-.33h0a7,7,0,0,1,.94.22,2,2,0,0,0,.95,0Z"/><path class="cls-27" d="M181.88,223.26a2.06,2.06,0,0,1-1,.2,2.31,2.31,0,0,1-1-.22h0a9.39,9.39,0,0,1,1,.11,2.19,2.19,0,0,0,1-.09Z"/><path class="cls-27" d="M182,224.93a2.27,2.27,0,0,1-1.16.22,2.69,2.69,0,0,1-1.16-.24h0c.4,0,.78.08,1.16.13a2.41,2.41,0,0,0,1.14-.11Z"/><path class="cls-27" d="M182.17,226.61a2.52,2.52,0,0,1-1.26.23,3.11,3.11,0,0,1-1.26-.25h0c.43,0,.85.09,1.27.14a2.66,2.66,0,0,0,1.25-.12Z"/></g><path class="cls-4" d="M225.49,186.56c-.94-.18-1.76-.37-2.27-.49a.5.5,0,0,1-.42.19l-.11,0,.51,3.89s-4.24-2.56-1-4.3a11.13,11.13,0,0,0-2.91,1.59,1.36,1.36,0,0,0-.75-.35,2.56,2.56,0,0,1,.61.48,10.1,10.1,0,0,0-1.64,1.86s0-.05,0-.15a3.24,3.24,0,0,1,1.3-3.31,4.63,4.63,0,0,1,3.25-.55,2.75,2.75,0,0,1-1.57-1.68c-.45-1.57,1.42-2.63,1.42-2.63a5,5,0,0,0,0,2.39,2.29,2.29,0,0,1-1,0s.11.16,1,.21l.69,1.53a.53.53,0,0,1,.39-.15.59.59,0,0,1,.28.07.32.32,0,0,1,.2.27.28.28,0,0,1-.1.2,35.35,35.35,0,0,0,5.07.67c2.79.14,8.26-.43,8.9-.14a.48.48,0,0,1,.33.54.79.79,0,0,1-.15.5H232A57.71,57.71,0,0,1,225.49,186.56Z"/><path class="cls-22" d="M238.35,172l-6.27.71S235.9,168.21,238.35,172Z"/><path class="cls-23" d="M238.7,171.74s.34-2.63-1.6-3.85a6.4,6.4,0,0,0-4-.89,14,14,0,0,1,2.63,1.64,3,3,0,0,0,.68-.61,1.2,1.2,0,0,1-.49.75s2.22,2.14,2.27,3.09S238.7,171.74,238.7,171.74Z"/><polygon class="cls-22" points="244.83 171.38 238.38 172.27 241.33 170.21 244.83 171.38"/><path class="cls-23" d="M238.38,172.27a3.54,3.54,0,0,1,2.73-2.31,4.08,4.08,0,0,1,3.72,1.42,9.79,9.79,0,0,0-3.36,0,1.64,1.64,0,0,1,0-1s-.23.11-.3,1Z"/><path class="cls-23" d="M238.41,172.12l-6.33.58S236.41,168.73,238.41,172.12Z"/><path class="cls-24" d="M237.53,186.8c.41-.63-.39-6.11-.19-8.9a26,26,0,0,1,1-5.43c0-.2,0-.29-.09-.32.12,0,.37-.07.3.32a26,26,0,0,0-1,5.43c-.19,2.79.61,8.26.19,8.9a.75.75,0,0,1-.76.33A.7.7,0,0,0,237.53,186.8Z"/><path class="cls-25" d="M236.27,181.46a41.47,41.47,0,0,1,.85-6.46c.42-1.58.9-2.83.9-2.83a.4.4,0,0,1,.28,0l-.07,0s-.48,1.25-.9,2.83a41.47,41.47,0,0,0-.85,6.46c0,1,0,5.51,0,5.51a1.56,1.56,0,0,0,.5.15,1.43,1.43,0,0,1-.71-.15S236.27,182.48,236.27,181.46Z"/><path class="cls-24" d="M236.49,181.46a41.47,41.47,0,0,1,.85-6.46c.42-1.58.9-2.83.9-2.83l.07,0c.07,0,.12.12.09.32a26,26,0,0,0-1,5.43c-.19,2.79.61,8.26.19,8.9a.7.7,0,0,1-.54.33,1.56,1.56,0,0,1-.5-.15S236.49,182.48,236.49,181.46Z"/><path class="cls-25" d="M238.45,172.1a.46.46,0,0,0-.1.28.48.48,0,0,0,.48.48.47.47,0,0,0,.32-.13.47.47,0,0,1-.37.2.48.48,0,0,1-.48-.48A.47.47,0,0,1,238.45,172.1Z"/><path class="cls-24" d="M238.35,172.38a.46.46,0,0,1,.1-.28.47.47,0,0,1,.32-.13.48.48,0,0,1,.48.48.47.47,0,0,1-.1.28.47.47,0,0,1-.32.13A.48.48,0,0,1,238.35,172.38Z"/><path class="cls-25" d="M237.7,172a.46.46,0,0,0-.1.28.47.47,0,0,0,.47.47.47.47,0,0,0,.31-.12.46.46,0,0,1-.37.19.47.47,0,0,1-.47-.47A.46.46,0,0,1,237.7,172Z"/><path class="cls-24" d="M237.6,172.23a.46.46,0,0,1,.1-.28.46.46,0,0,1,.31-.12.47.47,0,0,1,.47.47.46.46,0,0,1-.1.28.47.47,0,0,1-.31.12A.47.47,0,0,1,237.6,172.23Z"/><path class="cls-22" d="M238.7,171.74s.63-2.27-.73-3.46a5.68,5.68,0,0,0-4.87-1.28A5.15,5.15,0,0,1,238.7,171.74Z"/><g class="cls-28"><path class="cls-27" d="M238.4,173.43a.84.84,0,0,1-.45,0,.68.68,0,0,1-.4-.2h0c.31,0,.54.23.85.19Z"/><path class="cls-27" d="M238.3,173.88a.84.84,0,0,1-.45,0,.68.68,0,0,1-.4-.2h0c.31,0,.54.23.85.19Z"/><path class="cls-27" d="M238.12,174.33a.84.84,0,0,1-.45,0,.68.68,0,0,1-.4-.2h0c.31,0,.54.23.85.19Z"/><path class="cls-27" d="M238.11,174.78a1,1,0,0,1-.52,0,.86.86,0,0,1-.47-.22h0c.35,0,.63.27,1,.22Z"/><path class="cls-27" d="M237.93,175.39a1,1,0,0,1-.52,0,.86.86,0,0,1-.47-.22h0c.35,0,.63.27,1,.22Z"/><path class="cls-27" d="M237.83,176.1a1,1,0,0,1-.52,0,.86.86,0,0,1-.47-.22h0c.35,0,.63.27,1,.22Z"/><path class="cls-27" d="M237.7,176.91a1,1,0,0,1-.52,0,.86.86,0,0,1-.47-.21h0c.35,0,.64.25,1,.18Z"/><path class="cls-27" d="M237.63,177.55a1,1,0,0,1-.52,0,.86.86,0,0,1-.48-.2h0c.35,0,.64.24,1,.17Z"/><path class="cls-27" d="M237.56,178.19a1,1,0,0,1-.52,0,.86.86,0,0,1-.48-.2h0c.35,0,.64.24,1,.17Z"/><path class="cls-27" d="M237.54,179.07a1.11,1.11,0,0,1-.59,0,1.06,1.06,0,0,1-.54-.22h0c.39,0,.73.27,1.12.2Z"/><path class="cls-27" d="M237.63,179.94a1.25,1.25,0,0,1-.66,0,1.28,1.28,0,0,1-.62-.22h0c.44,0,.83.28,1.27.18Z"/><path class="cls-27" d="M237.62,180.79a1.41,1.41,0,0,1-.73,0,1.53,1.53,0,0,1-.69-.25h0c.49.05.93.32,1.42.2Z"/><path class="cls-27" d="M237.69,181.91a1.46,1.46,0,0,1-.76,0,1.61,1.61,0,0,1-.72-.25h0c.5.06,1,.33,1.46.21Z"/><path class="cls-27" d="M237.8,182.82a1.59,1.59,0,0,1-.81.15,1.85,1.85,0,0,1-.81-.17h0c.28,0,.54.06.81.09a1.7,1.7,0,0,0,.8-.07Z"/><path class="cls-27" d="M237.86,184.11a1.76,1.76,0,0,1-.9.17,2.16,2.16,0,0,1-.89-.18h0c.31,0,.6.07.9.1a1.87,1.87,0,0,0,.88-.08Z"/><path class="cls-27" d="M238,185.41a2,2,0,0,1-1,.18,2.49,2.49,0,0,1-1-.19h0c.34,0,.66.08,1,.11a2.06,2.06,0,0,0,1-.1Z"/></g><path class="cls-4" d="M159.33,238.83c-1.22-.23-2.27-.47-2.93-.64a.65.65,0,0,1-.55.25l-.14,0,.65,5s-5.48-3.31-1.3-5.55a14.36,14.36,0,0,0-3.75,2,1.76,1.76,0,0,0-1-.45,3.3,3.3,0,0,1,.78.62,13,13,0,0,0-2.12,2.41s0-.07,0-.19a4.18,4.18,0,0,1,1.68-4.27c1.26-1,3.43-.82,4.19-.72a3.55,3.55,0,0,1-2-2.17c-.59-2,1.83-3.4,1.83-3.4a6.41,6.41,0,0,0,0,3.08,3,3,0,0,1-1.25,0s.15.21,1.23.28l.88,2a.69.69,0,0,1,.5-.2.77.77,0,0,1,.36.09.41.41,0,0,1,.25.34.36.36,0,0,1-.13.26,45.64,45.64,0,0,0,6.55.86c3.6.18,10.67-.55,11.49-.18a.62.62,0,0,1,.43.69,1,1,0,0,1-.19.65h-7.12A74.5,74.5,0,0,1,159.33,238.83Z"/><path class="cls-22" d="M175.94,220l-8.1.92S172.78,215.14,175.94,220Z"/><path class="cls-23" d="M176.38,219.7s.44-3.4-2.07-5a8.27,8.27,0,0,0-5.17-1.15,18.06,18.06,0,0,1,3.39,2.12,3.84,3.84,0,0,0,.88-.78,1.55,1.55,0,0,1-.63,1s2.86,2.76,2.93,4S176.38,219.7,176.38,219.7Z"/><polygon class="cls-22" points="184.3 219.22 175.98 220.38 179.79 217.72 184.3 219.22"/><path class="cls-23" d="M176,220.38a4.57,4.57,0,0,1,3.53-3,5.26,5.26,0,0,1,4.8,1.83,12.65,12.65,0,0,0-4.34,0,2.12,2.12,0,0,1,0-1.25s-.29.15-.39,1.23Z"/><path class="cls-23" d="M176,220.19l-8.17.75S173.43,215.81,176,220.19Z"/><path class="cls-24" d="M174.87,239.13c.53-.82-.5-7.89-.25-11.49a33.53,33.53,0,0,1,1.35-7c0-.26,0-.37-.11-.41.16,0,.48-.09.39.41a33.54,33.54,0,0,0-1.35,7c-.25,3.6.78,10.67.25,11.49a1,1,0,0,1-1,.43A.91.91,0,0,0,174.87,239.13Z"/><path class="cls-25" d="M173.25,232.25a53.54,53.54,0,0,1,1.09-8.34c.54-2,1.16-3.65,1.16-3.65a.52.52,0,0,1,.36,0l-.08,0s-.62,1.62-1.16,3.65a53.54,53.54,0,0,0-1.09,8.34c0,1.31,0,7.12,0,7.12a2,2,0,0,0,.64.19,1.84,1.84,0,0,1-.92-.19S173.25,233.56,173.25,232.25Z"/><path class="cls-24" d="M173.53,232.25a53.54,53.54,0,0,1,1.09-8.34c.54-2,1.16-3.65,1.16-3.65l.08,0c.09,0,.16.16.11.41a33.53,33.53,0,0,0-1.35,7c-.25,3.6.78,10.67.25,11.49a.91.91,0,0,1-.7.43,2,2,0,0,1-.64-.19S173.53,233.56,173.53,232.25Z"/><path class="cls-25" d="M176.07,220.17a.6.6,0,0,0-.13.36.61.61,0,0,0,.61.61A.61.61,0,0,0,177,221a.6.6,0,0,1-.48.25.61.61,0,0,1-.61-.61A.61.61,0,0,1,176.07,220.17Z"/><path class="cls-24" d="M175.94,220.53a.6.6,0,0,1,.13-.36.61.61,0,0,1,.41-.16.61.61,0,0,1,.61.61.6.6,0,0,1-.13.36.61.61,0,0,1-.41.16A.61.61,0,0,1,175.94,220.53Z"/><path class="cls-25" d="M175.09,220a.59.59,0,0,0-.13.36.61.61,0,0,0,.61.61.6.6,0,0,0,.4-.16.6.6,0,0,1-.48.25.61.61,0,0,1-.61-.61A.6.6,0,0,1,175.09,220Z"/><path class="cls-24" d="M175,220.33a.59.59,0,0,1,.13-.36.6.6,0,0,1,.4-.16.61.61,0,0,1,.61.61.59.59,0,0,1-.13.36.6.6,0,0,1-.4.16A.61.61,0,0,1,175,220.33Z"/><path class="cls-22" d="M176.38,219.7s.82-2.93-.95-4.47a7.33,7.33,0,0,0-6.29-1.65S175.33,212.88,176.38,219.7Z"/><g class="cls-29"><path class="cls-27" d="M176,221.88a1.09,1.09,0,0,1-.58,0,.84.84,0,0,1-.52-.26h0c.4,0,.7.3,1.09.25Z"/><path class="cls-27" d="M175.87,222.46a1.09,1.09,0,0,1-.58,0,.84.84,0,0,1-.52-.26h0c.4,0,.7.3,1.09.25Z"/><path class="cls-27" d="M175.64,223a1.09,1.09,0,0,1-.58,0,.84.84,0,0,1-.52-.26h0c.4,0,.7.3,1.09.25Z"/><path class="cls-27" d="M175.63,223.63a1.26,1.26,0,0,1-.67,0,1.06,1.06,0,0,1-.6-.29h0c.45,0,.81.35,1.26.28Z"/><path class="cls-27" d="M175.4,224.41a1.26,1.26,0,0,1-.67,0,1.06,1.06,0,0,1-.6-.29h0c.45,0,.81.35,1.26.28Z"/><path class="cls-27" d="M175.26,225.32a1.26,1.26,0,0,1-.67,0,1.06,1.06,0,0,1-.6-.29h0c.45,0,.81.35,1.26.28Z"/><path class="cls-27" d="M175.09,226.37a1.26,1.26,0,0,1-.67,0,1.06,1.06,0,0,1-.61-.27h0c.45,0,.82.32,1.27.24Z"/><path class="cls-27" d="M175,227.19a1.26,1.26,0,0,1-.67,0,1.06,1.06,0,0,1-.62-.26h0c.45,0,.83.31,1.27.22Z"/><path class="cls-27" d="M174.92,228a1.26,1.26,0,0,1-.67,0,1.06,1.06,0,0,1-.62-.26h0c.45,0,.83.31,1.27.22Z"/><path class="cls-27" d="M174.89,229.16a1.43,1.43,0,0,1-.76,0,1.31,1.31,0,0,1-.7-.29h0c.51,0,.94.35,1.44.25Z"/><path class="cls-27" d="M175,230.29a1.62,1.62,0,0,1-.85.06,1.59,1.59,0,0,1-.8-.29h0a4.48,4.48,0,0,1,.82.19,1.76,1.76,0,0,0,.82,0Z"/><path class="cls-27" d="M175,231.39a1.82,1.82,0,0,1-.95.06,1.9,1.9,0,0,1-.89-.32h0a6.28,6.28,0,0,1,.91.22,2,2,0,0,0,.92,0Z"/><path class="cls-27" d="M175.08,232.83a1.88,1.88,0,0,1-1,.06,2,2,0,0,1-.92-.33h0a7,7,0,0,1,.94.22,2,2,0,0,0,.95,0Z"/><path class="cls-27" d="M175.22,234a2.06,2.06,0,0,1-1,.2,2.31,2.31,0,0,1-1-.22h0a9.39,9.39,0,0,1,1,.11,2.19,2.19,0,0,0,1-.09Z"/><path class="cls-27" d="M175.3,235.66a2.27,2.27,0,0,1-1.16.22,2.7,2.7,0,0,1-1.16-.24h0c.4,0,.78.08,1.16.13a2.41,2.41,0,0,0,1.14-.11Z"/><path class="cls-27" d="M175.51,237.34a2.52,2.52,0,0,1-1.26.23,3.11,3.11,0,0,1-1.26-.25h0c.43,0,.85.09,1.27.14a2.66,2.66,0,0,0,1.25-.12Z"/></g><path class="cls-4" d="M166.42,245c-1.32-.25-2.48-.52-3.2-.69a.71.71,0,0,1-.6.27l-.15,0,.71,5.47s-6-3.61-1.42-6.05c-1.43.28-4.09,2.23-4.09,2.23a1.92,1.92,0,0,0-1.06-.49,3.6,3.6,0,0,1,.86.68,14.21,14.21,0,0,0-2.31,2.62s0-.08,0-.21a4.56,4.56,0,0,1,1.83-4.65c1.37-1.11,3.74-.9,4.57-.78a3.87,3.87,0,0,1-2.21-2.37c-.64-2.21,2-3.71,2-3.71a7,7,0,0,0,0,3.36,3.22,3.22,0,0,1-1.36,0s.16.23,1.34.3l1,2.16a.75.75,0,0,1,.55-.22.83.83,0,0,1,.39.1.45.45,0,0,1,.28.37.39.39,0,0,1-.14.28,49.74,49.74,0,0,0,7.14.94c3.92.19,11.63-.6,12.52-.19a.67.67,0,0,1,.46.76,1.11,1.11,0,0,1-.21.71h-7.76A81.21,81.21,0,0,1,166.42,245Z"/><path class="cls-22" d="M184.53,224.46l-8.83,1S181.08,219.14,184.53,224.46Z"/><path class="cls-23" d="M185,224.1s.48-3.71-2.26-5.42a9,9,0,0,0-5.63-1.26,19.69,19.69,0,0,1,3.7,2.31,4.19,4.19,0,0,0,1-.86,1.69,1.69,0,0,1-.69,1.06s3.12,3,3.2,4.35S185,224.1,185,224.1Z"/><polygon class="cls-22" points="193.64 223.59 184.57 224.85 188.72 221.94 193.64 223.59"/><path class="cls-23" d="M184.57,224.85a5,5,0,0,1,3.85-3.25,5.74,5.74,0,0,1,5.23,2,13.78,13.78,0,0,0-4.73,0,2.31,2.31,0,0,1,0-1.36s-.32.16-.42,1.34Z"/><path class="cls-23" d="M184.61,224.64l-8.91.82S181.79,219.87,184.61,224.64Z"/><path class="cls-24" d="M183.37,245.29c.58-.89-.55-8.6-.27-12.52a36.55,36.55,0,0,1,1.47-7.65c.05-.28,0-.4-.12-.45.17-.05.52-.09.42.45a36.56,36.56,0,0,0-1.47,7.65c-.27,3.92.85,11.63.27,12.52a1.05,1.05,0,0,1-1.07.46A1,1,0,0,0,183.37,245.29Z"/><path class="cls-25" d="M181.6,237.79a58.36,58.36,0,0,1,1.19-9.1c.59-2.22,1.26-4,1.26-4a.57.57,0,0,1,.39,0l-.09,0s-.68,1.76-1.26,4a58.36,58.36,0,0,0-1.19,9.1c0,1.43,0,7.76,0,7.76a2.19,2.19,0,0,0,.7.21,2,2,0,0,1-1-.21S181.6,239.22,181.6,237.79Z"/><path class="cls-24" d="M181.9,237.79a58.36,58.36,0,0,1,1.19-9.1c.59-2.22,1.26-4,1.26-4l.09,0c.1,0,.17.17.12.45a36.55,36.55,0,0,0-1.47,7.65c-.27,3.92.85,11.63.27,12.52a1,1,0,0,1-.76.46,2.19,2.19,0,0,1-.7-.21S181.9,239.22,181.9,237.79Z"/><path class="cls-25" d="M184.67,224.61a.65.65,0,0,0-.14.39.67.67,0,0,0,.67.67.66.66,0,0,0,.44-.18.66.66,0,0,1-.53.28.67.67,0,0,1-.67-.67A.66.66,0,0,1,184.67,224.61Z"/><path class="cls-24" d="M184.53,225a.65.65,0,0,1,.14-.39.66.66,0,0,1,.44-.18.67.67,0,0,1,.67.67.65.65,0,0,1-.14.39.66.66,0,0,1-.44.18A.67.67,0,0,1,184.53,225Z"/><path class="cls-25" d="M183.61,224.41a.65.65,0,0,0-.14.39.66.66,0,0,0,.66.66.65.65,0,0,0,.44-.17.65.65,0,0,1-.52.27.66.66,0,0,1-.66-.66A.65.65,0,0,1,183.61,224.41Z"/><path class="cls-24" d="M183.47,224.8a.65.65,0,0,1,.14-.39.65.65,0,0,1,.44-.17.66.66,0,0,1,.66.66.65.65,0,0,1-.14.39.65.65,0,0,1-.44.17A.66.66,0,0,1,183.47,224.8Z"/><path class="cls-22" d="M185,224.1s.89-3.19-1-4.87a8,8,0,0,0-6.86-1.8S183.86,216.67,185,224.1Z"/><g class="cls-30"><path class="cls-27" d="M184.59,226.48a1.19,1.19,0,0,1-.64,0,.92.92,0,0,1-.57-.28h0a1.74,1.74,0,0,1,.6.17,1.34,1.34,0,0,0,.6.1Z"/><path class="cls-27" d="M184.45,227.12a1.18,1.18,0,0,1-.64,0,.92.92,0,0,1-.57-.28h0a1.74,1.74,0,0,1,.6.17,1.34,1.34,0,0,0,.6.1Z"/><path class="cls-27" d="M184.2,227.75a1.18,1.18,0,0,1-.64,0,.92.92,0,0,1-.57-.28h0a1.74,1.74,0,0,1,.6.17,1.34,1.34,0,0,0,.6.1Z"/><path class="cls-27" d="M184.19,228.39a1.37,1.37,0,0,1-.73,0,1.16,1.16,0,0,1-.66-.31h0c.49,0,.88.38,1.37.31Z"/><path class="cls-27" d="M183.94,229.24a1.37,1.37,0,0,1-.73,0,1.16,1.16,0,0,1-.66-.31h0c.49,0,.88.38,1.37.31Z"/><path class="cls-27" d="M183.79,230.24a1.37,1.37,0,0,1-.73,0,1.16,1.16,0,0,1-.66-.31h0c.49,0,.88.38,1.37.31Z"/><path class="cls-27" d="M183.61,231.37a1.37,1.37,0,0,1-.73,0,1.16,1.16,0,0,1-.67-.29h0c.49,0,.9.35,1.38.26Z"/><path class="cls-27" d="M183.5,232.27a1.37,1.37,0,0,1-.73,0,1.16,1.16,0,0,1-.67-.28v0c.49,0,.9.34,1.39.24Z"/><path class="cls-27" d="M183.42,233.17a1.37,1.37,0,0,1-.73,0,1.16,1.16,0,0,1-.67-.28h0c.49,0,.9.34,1.39.24Z"/><path class="cls-27" d="M183.39,234.42a1.56,1.56,0,0,1-.82,0,1.43,1.43,0,0,1-.76-.31h0a3.47,3.47,0,0,1,.78.2,1.72,1.72,0,0,0,.79.07Z"/><path class="cls-27" d="M183.51,235.65a1.76,1.76,0,0,1-.92.07,1.73,1.73,0,0,1-.87-.32v0a4.86,4.86,0,0,1,.89.2,1.92,1.92,0,0,0,.89,0Z"/><path class="cls-27" d="M183.49,236.84a2,2,0,0,1-1,.07,2.07,2.07,0,0,1-1-.35v0a6.84,6.84,0,0,1,1,.23,2.13,2.13,0,0,0,1,0Z"/><path class="cls-27" d="M183.6,238.42a2,2,0,0,1-1.07.07,2.19,2.19,0,0,1-1-.36v0a7.65,7.65,0,0,1,1,.24,2.2,2.2,0,0,0,1,0Z"/><path class="cls-27" d="M183.75,239.69a2.24,2.24,0,0,1-1.14.22,2.51,2.51,0,0,1-1.14-.24v0a10.24,10.24,0,0,1,1.14.12,2.39,2.39,0,0,0,1.13-.1Z"/><path class="cls-27" d="M183.83,241.51a2.48,2.48,0,0,1-1.26.23,2.94,2.94,0,0,1-1.26-.26v0c.43,0,.85.08,1.26.14a2.63,2.63,0,0,0,1.24-.12Z"/><path class="cls-27" d="M184.06,243.34a2.74,2.74,0,0,1-1.38.25,3.39,3.39,0,0,1-1.38-.27v0c.47,0,.92.1,1.38.16a2.9,2.9,0,0,0,1.36-.14Z"/></g><path class="cls-31" d="M273.39,214.61s-11-4.3-11.37-7a2.27,2.27,0,0,1,2.33-2.68s-8.68-1.64-16,11.74S273.39,214.61,273.39,214.61Z"/><path class="cls-32" d="M244.15,264s-6.48-2.52-6.68-4.09a1.33,1.33,0,0,1,1.37-1.57s-5.1-1-9.38,6.9S244.15,264,244.15,264Z"/><path class="cls-33" d="M288,240.33s-8.69-3.38-9-5.49a1.79,1.79,0,0,1,1.83-2.11S274,231.44,268.27,242,288,240.33,288,240.33Z"/><path class="cls-34" d="M309,228.82s-6.48-2.52-6.68-4.09a1.33,1.33,0,0,1,1.37-1.57s-5.1-1-9.38,6.9S309,228.82,309,228.82Z"/><path class="cls-35" d="M248.22,234.08s-6.48-2.52-6.68-4.09a1.33,1.33,0,0,1,1.37-1.57s-5.1-1-9.38,6.9S248.22,234.08,248.22,234.08Z"/><path class="cls-36" d="M226.69,218s-6.48-2.52-6.68-4.09a1.33,1.33,0,0,1,1.37-1.57s-5.1-1-9.38,6.9S226.69,218,226.69,218Z"/><path class="cls-37" d="M220.89,243.8s-7.23-2.82-7.45-4.56a1.49,1.49,0,0,1,1.52-1.76s-5.69-1.07-10.47,7.69S220.89,243.8,220.89,243.8Z"/><path class="cls-38" d="M195.68,193.22s18.25,6.49,21.28,10.1l-7.28-2.43s-13.17-6.58-16-6.49Z"/><path class="cls-9" d="M203.22,211s-7.2-12.3-16.83-12.3l8-4.69,7.28,2.5a6.69,6.69,0,0,1,1.13.51L217,203.32Z"/><path class="cls-9" d="M200.42,216.55a14.51,14.51,0,0,0-2.06-11.8c-4-6,6-1.11,6-1.11l1.6,10.54Z"/><path class="cls-39" d="M236.31,249.52a13.43,13.43,0,0,0-6.83,1.77c-3.69,2.24-7.68,7.8-7.75,7.89.22,0,7-1.06,10.63-3.3a13.43,13.43,0,0,0,5.14-6.3A9.3,9.3,0,0,0,236.31,249.52Z"/><g class="cls-40"><path class="cls-2" d="M221.74,259.18h0a1.16,1.16,0,0,0,1.37,1.14c2.21-.42,6.57-1.42,9.26-3.06a13.16,13.16,0,0,0,4.7-5.3,4.2,4.2,0,0,0,.44-1.88v-.5a13.43,13.43,0,0,1-5.14,6.3C228.71,258.12,222,259.15,221.74,259.18Z"/><g class="cls-41"><g class="cls-40"><path class="cls-2" d="M221.74,259.18h0a1.16,1.16,0,0,0,1.37,1.14c2.21-.42,6.57-1.42,9.26-3.06a13,13,0,0,0,4.55-5,5.09,5.09,0,0,0,.59-2.38v-.28a13.43,13.43,0,0,1-5.14,6.3c-3.66,2.23-10.41,3.27-10.63,3.3"/></g></g></g><path class="cls-42" d="M230.84,253.66a.16.16,0,0,0,.16-.16V237.3a.16.16,0,1,0-.32,0v16.2A.16.16,0,0,0,230.84,253.66Z"/><path class="cls-43" d="M230.36,237.3s-6.11,8.67-5.44,15.28l5.44-3.27s-.92-1,0-3.48A16,16,0,0,1,230.36,237.3Z"/><path class="cls-44" d="M129,101.45S142,69,161.32,58.56,191,55,199.53,48.16s26.54-8.64,33.76-7.43c23.72,4,104,60.63,104,60.63L233,161.64Z"/><path class="cls-45" d="M179.33,52.54s29.57,5.66,39.82,30.34,37.87-17,37.87-17S201,47.37,179.33,52.54Z"/><path class="cls-46" d="M205,100.56c14-10.4,21.52-3.61,27.67-10.4s19.21-8.64,24.44-7.43c9.52,2.2,31.61,20.59,49.42,36.54l30.77-17.82s-32.86-44.75-54.54-48.11c-23-3.56-36.57,16.34-70,16.34-30.52,0-83.72,31.68-83.72,31.68l55.9,32.3C188.85,123.22,196,107.29,205,100.56Z"/><path class="cls-47" d="M306.52,119.27c-17.81-16-39.9-34.34-49.42-36.54-5.23-1.21-18.29.64-24.44,7.43s-13.68,0-27.67,10.4c-9,6.72-16.15,22.65-20,33.09l48.43,28Z"/><path class="cls-45" d="M278.45,52.91s25.53,12.53,30.15,30-18.49,45.8-18.49,45.8l47.18-27.33S300.56,50.92,278.45,52.91Z"/><path class="cls-48" d="M306.52,119.27c-17.81-16-39.9-34.34-49.42-36.54-5.23-1.21-18.29.64-24.44,7.43s-13.68,0-27.67,10.4c-9,6.72-16.15,22.65-20,33.09l48.43,28Z"/><path class="cls-45" d="M213.3,95.88s11.3-4.79,24.41,11.59,38,29.45,38,29.45l30.78-17.65s-28.13,4.17-43-6S230,88.25,213.3,95.88Z"/><path class="cls-49" d="M220.59,169s-13-32.48-32.27-42.89-29.72-3.61-38.22-10.4-26.54-8.64-33.76-7.43c-23.72,4-104,60.63-104,60.63l104.32,60.29Z"/><path class="cls-45" d="M170.32,120.1s-29.57,5.66-39.82,30.34-37.87-17-37.87-17S148.63,114.93,170.32,120.1Z"/><path class="cls-50" d="M144.65,168.13c-14-10.4-21.52-3.61-27.67-10.4s-19.21-8.64-24.44-7.43c-9.52,2.2-31.61,20.59-49.42,36.54L12.35,169s32.86-31.79,54.54-35.15c23-3.56,36.57,3.38,70,3.38,30.52,0,83.72,31.68,83.72,31.68l-55.9,32.3C160.79,190.78,153.69,174.85,144.65,168.13Z"/><path class="cls-51" d="M43.12,186.83c17.81-16,39.9-34.34,49.42-36.54,5.23-1.21,18.29.64,24.44,7.43s13.68,0,27.67,10.4c9,6.72,16.15,22.65,20,33.09l-48.43,28Z"/><path class="cls-52" d="M125.88,161.38c-3.46-.34-6.3-.79-8.89-3.65-6.15-6.79-19.21-8.64-24.44-7.43-9.52,2.2-44.75,20-65.89,27l25.91,15c11.37-2.14,26-5.81,34.33-11.48C98.53,172.85,112.39,162.08,125.88,161.38Z"/><path class="cls-53" d="M144.65,168.13a33,33,0,0,0-9.84-5.21c-3.93-.52-12.56.12-22.16,12.12C104,185.87,94.37,203,88.86,213.33l27.41,15.88,68.82-39.63C164.7,189.58,153.69,174.85,144.65,168.13Z"/><path class="cls-54" d="M134.81,162.92a40.47,40.47,0,0,0-8.93-1.54c-13.48.7-27.34,11.48-39,19.44-8.3,5.67-23,9.34-34.33,11.48l36.3,21C94.37,203,104,185.87,112.65,175,122.25,163,130.87,162.4,134.81,162.92Z"/><path class="cls-45" d="M134.81,162.92a40.47,40.47,0,0,0-8.93-1.54c-13.48.7-27.34,11.48-39,19.44-8.3,5.67-23,9.34-34.33,11.48l36.3,21C94.37,203,104,185.87,112.65,175,122.25,163,130.87,162.4,134.81,162.92Z"/><polygon class="cls-4" points="228.37 139.29 298.86 180.25 228.49 221.05 157.94 180.18 228.37 139.29"/><polygon class="cls-55" points="158.43 153.54 228.89 194.4 299.13 153.62 228.78 112.78 158.43 153.54"/><polygon class="cls-56" points="158.55 153.62 158.55 169.69 228.84 210.88 228.72 194.31 158.55 153.62"/><polygon class="cls-57" points="228.72 194.31 299.13 153.62 299.13 170.09 228.84 210.88 228.72 194.31"/><polygon class="cls-4" points="236.47 180.17 253.18 180.17 299.13 153.62 260.95 131.46 236.47 180.17"/><path class="cls-58" d="M233.11,140a6,6,0,0,0,.16-1.34l.21-72.56c0,.08,0,.15,0,.23s0,.16,0,.23,0,.17,0,.25,0,.16,0,.23,0,.17-.05.25,0,.16,0,.23,0,.16-.07.25,0,.15-.07.23l-.09.25-.09.23-.11.25-.11.23-.13.24-.12.22-.16.24-.14.22-.18.24-.16.21-.2.24-.18.21-.23.24-.19.2-.25.23-.21.19-.28.23-.21.18-.32.24-.22.16-.4.27-.18.12-.62.38a25.5,25.5,0,0,1-13.19,3v72.57a25.41,25.41,0,0,0,13-3,10.83,10.83,0,0,0,4.36-4.25,6.9,6.9,0,0,0,.35-.81A6.4,6.4,0,0,0,233.11,140Z"/><path class="cls-59" d="M203.68,73.16l-.62-.38-.19-.13-.4-.27-.2-.15-.34-.25-.22-.18-.29-.24-.21-.19-.26-.24-.19-.2-.23-.24-.18-.21-.21-.24L200,70l-.18-.24-.14-.22-.16-.24-.12-.22-.14-.25-.11-.23L199,68.4l-.09-.23-.09-.25c0-.08,0-.16-.07-.23s-.05-.17-.07-.25v0c0-.07,0-.14,0-.21s0-.17-.05-.25,0-.16,0-.24,0-.17,0-.25,0-.16,0-.24,0-.17,0-.25,0,0,0,0l-.21,72.56c0,2.61,1.72,5.22,5.16,7.21a25,25,0,0,0,11.74,3V76.12A24.89,24.89,0,0,1,203.68,73.16Z"/><path class="cls-1" d="M233,68.43l-.11.25Z"/><path class="cls-1" d="M231.49,70.72l-.23.24Z"/><path class="cls-1" d="M233.16,68l-.09.25Z"/><path class="cls-1" d="M232.76,68.9l-.13.24Z"/><path class="cls-1" d="M230.62,71.58l-.28.23Z"/><path class="cls-1" d="M231.87,70.28l-.2.24Z"/><path class="cls-1" d="M231.08,71.16l-.25.23Z"/><path class="cls-1" d="M230.13,72l-.32.24Z"/><path class="cls-1" d="M232.21,69.83l-.18.24Z"/><path class="cls-1" d="M229,72.79l-.62.38Z"/><path class="cls-1" d="M232.51,69.37l-.16.24Z"/><path class="cls-1" d="M229.59,72.4l-.4.27Z"/><path class="cls-1" d="M233.45,66.51c0,.08,0,.17,0,.25C233.43,66.68,233.45,66.6,233.45,66.51Z"/><path class="cls-1" d="M233.4,67c0,.08,0,.17-.05.25C233.36,67.16,233.38,67.08,233.4,67Z"/><path class="cls-1" d="M233.3,67.48c0,.08,0,.16-.07.25C233.25,67.64,233.28,67.56,233.3,67.48Z"/><path class="cls-60" d="M198.53,66.47c0,.08,0,.17,0,.25s0,.16,0,.24,0,.17.05.25,0,.16.05.23,0,.17.07.25,0,.16.07.23l.09.25.09.23.11.25.11.23.14.25.12.22.16.24.14.22L200,70l.16.21.21.24.18.21.23.24.19.2.26.24.21.19.29.24.22.18.34.25.2.15.4.27.19.13.62.38a24.89,24.89,0,0,0,11.53,3,25.5,25.5,0,0,0,13.19-3l.62-.38.18-.12.4-.27.22-.16.32-.24.21-.18.28-.23.21-.19.25-.23.19-.2.23-.24.18-.21.2-.24.16-.21.18-.24.14-.22.16-.24.12-.22.13-.24.11-.23.11-.25.09-.23.09-.25c0-.08,0-.15.07-.23s.05-.16.07-.25,0-.16,0-.23,0-.17.05-.25,0-.16,0-.23,0-.17,0-.25,0-.16,0-.23c.11-2.68-1.6-5.39-5.15-7.44-6.85-4-17.92-4-24.72,0-3.39,2-5.09,4.55-5.08,7.14,0,.08,0,.17,0,.25S198.53,66.39,198.53,66.47Z"/><path class="cls-58" d="M264.46,159.79a6,6,0,0,0,.16-1.34l.21-72.56c0,.08,0,.15,0,.23s0,.16,0,.23,0,.17,0,.25,0,.16,0,.23,0,.17-.05.25,0,.16,0,.23,0,.16-.07.25,0,.15-.07.23l-.09.25-.09.23-.11.25-.11.23L264,89l-.12.22-.16.24-.14.22-.18.24-.16.21-.2.24-.18.21-.23.24-.19.2-.25.23-.21.19-.28.23-.21.18-.32.24-.22.16-.4.27-.18.12-.62.38a25.5,25.5,0,0,1-13.19,3v72.57a25.41,25.41,0,0,0,13-3,10.83,10.83,0,0,0,4.36-4.25,6.9,6.9,0,0,0,.35-.81A6.4,6.4,0,0,0,264.46,159.79Z"/><path class="cls-59" d="M235,93l-.62-.38-.19-.13-.4-.27-.2-.15-.34-.25-.22-.18-.29-.24-.21-.19-.26-.24-.19-.2-.23-.24-.18-.21-.21-.24-.16-.21-.18-.24-.14-.22-.16-.24-.12-.22-.14-.25-.11-.23-.11-.25-.09-.23-.09-.25c0-.08,0-.16-.07-.23s-.05-.17-.07-.25v0c0-.07,0-.14,0-.21s0-.17-.05-.25,0-.16,0-.24,0-.17,0-.25,0-.16,0-.24,0-.17,0-.25,0,0,0,0l-.21,72.56c0,2.61,1.72,5.22,5.16,7.21a25,25,0,0,0,11.74,3V95.94A24.89,24.89,0,0,1,235,93Z"/><path class="cls-60" d="M229.89,86.29c0,.08,0,.17,0,.25s0,.16,0,.24,0,.17.05.25,0,.16.05.23,0,.17.07.25,0,.16.07.23l.09.25.09.23.11.25.11.23.14.25.12.22.16.24.14.22.18.24.16.21.21.24.18.21.23.24.19.2.26.24.21.19.29.24.22.18.34.25.2.15.4.27.19.13L235,93a24.89,24.89,0,0,0,11.53,3,25.5,25.5,0,0,0,13.19-3l.62-.38.18-.12.4-.27.22-.16.32-.24.21-.18.28-.23.21-.19.25-.23.19-.2.23-.24.18-.21.2-.24.16-.21.18-.24.14-.22.16-.24L264,89l.13-.24.11-.23.11-.25.09-.23.09-.25c0-.08,0-.15.07-.23s.05-.16.07-.25,0-.16,0-.23,0-.17.05-.25,0-.16,0-.23,0-.17,0-.25,0-.16,0-.23c.11-2.68-1.6-5.39-5.15-7.44-6.85-4-17.92-4-24.72,0-3.39,2-5.09,4.55-5.08,7.14,0,.08,0,.17,0,.25S229.88,86.21,229.89,86.29Z"/><path class="cls-60" d="M231.67,70.51l-.18.21Z"/><path class="cls-60" d="M232,70.06l-.16.21Z"/><path class="cls-60" d="M232.63,69.14l-.12.22Z"/><path class="cls-60" d="M233.07,68.2l-.09.23Z"/><path class="cls-60" d="M232.87,68.68l-.11.23Z"/><path class="cls-60" d="M233.35,67.24c0,.08,0,.16,0,.23C233.32,67.4,233.33,67.32,233.35,67.24Z"/><path class="cls-60" d="M233.42,66.76c0,.08,0,.16,0,.23C233.41,66.92,233.42,66.84,233.42,66.76Z"/><path class="cls-60" d="M232.35,69.61l-.14.22Z"/><path class="cls-60" d="M233.46,66.28c0,.08,0,.16,0,.23C233.46,66.43,233.46,66.36,233.46,66.28Z"/><path class="cls-60" d="M233.23,67.72c0,.08,0,.15-.07.23C233.18,67.88,233.2,67.8,233.23,67.72Z"/><path class="cls-60" d="M231.27,71l-.19.2Z"/><path class="cls-60" d="M229.19,72.67l-.18.12Z"/><path class="cls-60" d="M230.34,71.82l-.21.18Z"/><path class="cls-60" d="M230.83,71.39l-.21.19Z"/><path class="cls-60" d="M229.81,72.23l-.22.16Z"/><polygon class="cls-60" points="188.89 135.06 200.33 128.41 202.93 129.91 191.49 136.56 188.89 135.06"/><polygon class="cls-58" points="188.91 128.24 200.35 121.59 200.33 128.41 188.89 135.06 188.91 128.24"/><polygon class="cls-60" points="196.89 139.68 208.33 133.03 210.93 134.53 199.49 141.18 196.89 139.68"/><polygon class="cls-58" points="196.91 132.86 208.35 126.21 208.33 133.03 196.89 139.68 196.91 132.86"/><polygon class="cls-60" points="190.31 121.45 201.74 114.81 204.96 116.66 193.51 123.31 190.31 121.45"/><polygon class="cls-60" points="204.9 144.3 216.33 137.65 218.94 139.16 207.5 145.8 204.9 144.3"/><polygon class="cls-58" points="204.91 137.48 216.35 130.83 216.33 137.65 204.9 144.3 204.91 137.48"/><polygon class="cls-60" points="212.9 148.92 224.34 142.27 226.94 143.78 215.5 150.42 212.9 148.92"/><polygon class="cls-60" points="183.97 101.9 195.41 95.25 201.79 98.93 190.35 105.58 183.97 101.9"/><polygon class="cls-58" points="190.35 105.58 201.79 98.93 201.74 114.81 190.31 121.45 190.35 105.58"/><polygon class="cls-58" points="212.92 142.1 224.36 135.45 224.34 142.27 212.9 148.92 212.92 142.1"/><polygon class="cls-61" points="193.54 113.6 204.98 106.95 219.07 124.81 207.63 131.46 193.54 113.6"/><polygon class="cls-60" points="220.9 153.54 232.34 146.89 234.94 148.4 223.5 155.04 220.9 153.54"/><polygon class="cls-58" points="220.92 146.72 232.36 140.07 232.34 146.89 220.9 153.54 220.92 146.72"/><polygon class="cls-60" points="228.9 158.16 240.34 151.51 242.94 153.02 231.5 159.66 228.9 158.16"/><polygon class="cls-62" points="207.66 121.94 219.1 115.3 233.56 133.18 222.12 139.82 207.66 121.94"/><polygon class="cls-58" points="228.92 151.34 240.36 144.69 240.34 151.51 228.9 158.16 228.92 151.34"/><polygon class="cls-58" points="236.56 148.16 248 141.51 247.91 173.52 236.47 180.17 236.56 148.16"/><polygon class="cls-63" points="222.15 130.81 233.59 124.16 248 141.51 236.56 148.16 222.15 130.81"/><path class="cls-59" d="M222.14,130.81l14.42,17.35-.09,32-52.63-30.39.09-32,0-15.87,6.38,3.68,0,15.87,3.21,1.85,0-9.7,14.09,17.85,0-9.51,14.46,17.88Zm-14.65,15,0-6.82-2.6-1.5,0,6.82,2.6,1.5m-8-4.62,0-6.82-2.6-1.5,0,6.82,2.6,1.5m-8-4.62,0-6.82-2.6-1.5,0,6.82,2.6,1.5m32,18.48,0-6.82-2.6-1.5,0,6.82,2.6,1.5m-8-4.62,0-6.82-2.6-1.5,0,6.82,2.6,1.5m16,9.24,0-6.82-2.6-1.5,0,6.82,2.6,1.5"/><path class="cls-1" d="M213.33,79.71l-.14-.22Z"/><path class="cls-1" d="M214.94,81.48l-.21-.19Z"/><path class="cls-1" d="M215.44,81.9l-.22-.18Z"/><path class="cls-1" d="M214.48,81.05l-.19-.2Z"/><path class="cls-1" d="M214.05,80.61l-.18-.21Z"/><path class="cls-1" d="M216,82.3l-.2-.15Z"/><path class="cls-1" d="M216.57,82.69l-.19-.13Z"/><path class="cls-1" d="M213.67,80.17l-.16-.21Z"/><path class="cls-1" d="M212.36,77.83c0-.08,0-.16-.07-.23C212.31,77.67,212.33,77.75,212.36,77.83Z"/><path class="cls-1" d="M212.54,78.31l-.09-.23Z"/><path class="cls-1" d="M212,76.14c0,.08,0,.16,0,.24C212,76.3,212,76.22,212,76.14Z"/><path class="cls-1" d="M246.63,149.87a6.4,6.4,0,0,1-.21.71A6.4,6.4,0,0,0,246.63,149.87Z"/><path class="cls-1" d="M212.08,76.63c0,.08,0,.16,0,.24C212.1,76.78,212.09,76.71,212.08,76.63Z"/><path class="cls-1" d="M212.76,78.78l-.11-.23Z"/><path class="cls-1" d="M212.17,77.11c0,.07,0,.14,0,.21v0C212.2,77.27,212.18,77.19,212.17,77.11Z"/><path class="cls-1" d="M213,79.25,212.9,79Z"/><path class="cls-60" d="M212.45,78.08l-.09-.25Z"/><path class="cls-60" d="M213.18,79.49l-.16-.24Z"/><path class="cls-60" d="M212.9,79l-.14-.25Z"/><path class="cls-60" d="M213.87,80.41l-.21-.24Z"/><path class="cls-60" d="M213.51,80l-.18-.24Z"/><path class="cls-60" d="M212.08,76.63c0-.08,0-.17,0-.25C212.06,76.46,212.07,76.54,212.08,76.63Z"/><path class="cls-60" d="M214.28,80.85l-.23-.24Z"/><path class="cls-60" d="M212,76.14c0-.08,0-.17,0-.25C212,76,212,76.06,212,76.14Z"/><path class="cls-60" d="M212.17,77.11c0-.08,0-.17-.05-.25C212.13,76.95,212.15,77,212.17,77.11Z"/><path class="cls-60" d="M212.29,77.6c0-.08-.05-.17-.07-.25C212.24,77.43,212.26,77.51,212.29,77.6Z"/><path class="cls-60" d="M212.65,78.55l-.11-.25Z"/><path class="cls-60" d="M214.73,81.29l-.26-.24Z"/><path class="cls-60" d="M215.23,81.72l-.29-.24Z"/><path class="cls-60" d="M215.78,82.15l-.34-.25Z"/><path class="cls-60" d="M216.38,82.57l-.4-.27Z"/><path class="cls-60" d="M217.2,83.07l-.62-.38Z"/><path class="cls-60" d="M197.56,84.44c1.25.72,1.25,1.89,0,2.61a5,5,0,0,1-4.51,0c-1.25-.72-1.26-1.89,0-2.61A5,5,0,0,1,197.56,84.44Z"/><path class="cls-59" d="M193.07,87.05a1.85,1.85,0,0,1-.88-1,1.11,1.11,0,0,1-.06-.35l0,13.23a1.6,1.6,0,0,0,.94,1.31,4.62,4.62,0,0,0,2.26.54V87.59A4.6,4.6,0,0,1,193.07,87.05Z"/><path class="cls-58" d="M198.5,85.76a1.58,1.58,0,0,1-.93,1.3,4.59,4.59,0,0,1-2.28.54v13.23a4.57,4.57,0,0,0,2.24-.54,1.69,1.69,0,0,0,.91-1.12,1.09,1.09,0,0,0,0-.18Z"/><path class="cls-60" d="M192.91,92.35a.88.88,0,0,1,0,1.66,3.15,3.15,0,0,1-2.86,0,.88.88,0,0,1,0-1.66A3.15,3.15,0,0,1,192.91,92.35Z"/><path class="cls-59" d="M190.06,94a1.17,1.17,0,0,1-.56-.61.7.7,0,0,1,0-.23l0,8.4a1,1,0,0,0,.6.83,2.93,2.93,0,0,0,1.44.34v-8.4A2.92,2.92,0,0,1,190.06,94Z"/><path class="cls-58" d="M193.51,93.18a1,1,0,0,1-.59.82,2.91,2.91,0,0,1-1.45.34v8.4a2.9,2.9,0,0,0,1.42-.34,1.07,1.07,0,0,0,.58-.71.69.69,0,0,0,0-.11Z"/></g></svg>