<svg xmlns="http://www.w3.org/2000/svg" xmlns:xlink="http://www.w3.org/1999/xlink" viewBox="0 0 461.08 357.78"><defs><style>.cls-1{fill:url(#linear-gradient);}.cls-2{fill:none;}.cls-3,.cls-6{fill:#5c515f;}.cls-4{fill:url(#linear-gradient-2);}.cls-5{fill:#556040;}.cls-16,.cls-6{opacity:0.6;}.cls-7{fill:#f47160;}.cls-8{fill:#c45c4e;}.cls-9{fill:#71c9c9;}.cls-10{fill:#61aaa8;}.cls-11{fill:#bca493;}.cls-12{fill:#79d7db;}.cls-13{fill:#d8bdab;}.cls-14{fill:#e26e5a;}.cls-15{fill:#f97e62;}.cls-17{fill:url(#linear-gradient-3);}.cls-18{fill:url(#green_halftone);}.cls-19{fill:url(#linear-gradient-4);}.cls-20{fill:url(#green_halftone-7);}.cls-21{fill:url(#linear-gradient-5);}.cls-22{fill:url(#linear-gradient-6);}.cls-23{fill:url(#linear-gradient-7);}.cls-24{fill:url(#linear-gradient-8);}.cls-25{fill:url(#linear-gradient-9);}.cls-26{fill:url(#linear-gradient-10);}.cls-27{isolation:isolate;}.cls-28{clip-path:url(#clip-path);}.cls-29{fill:#afad87;}.cls-30{fill:#fff;opacity:0.8;}.cls-31{fill:#b0eaea;}.cls-32{fill:#edd4b9;}.cls-33{fill:#aeba83;}.cls-34{fill:#c4d193;}.cls-35{fill:#c6a283;}.cls-36{fill:#ad8c74;}.cls-37{clip-path:url(#clip-path-2);}.cls-38{fill:#9e806c;}.cls-39{clip-path:url(#clip-path-3);}.cls-40{clip-path:url(#clip-path-4);}.cls-41{clip-path:url(#clip-path-5);}.cls-42{fill:url(#linear-gradient-13);}.cls-43{fill:url(#linear-gradient-14);}.cls-44{fill:url(#linear-gradient-15);}.cls-45{fill:url(#linear-gradient-16);}.cls-46{fill:url(#linear-gradient-17);}.cls-47{fill:url(#linear-gradient-18);}.cls-48{fill:url(#linear-gradient-19);}.cls-49{fill:url(#linear-gradient-20);}.cls-50{clip-path:url(#clip-path-6);}.cls-51{clip-path:url(#clip-path-7);}.cls-52{clip-path:url(#clip-path-8);}.cls-53{clip-path:url(#clip-path-9);}.cls-54{clip-path:url(#clip-path-10);}.cls-55{fill:url(#linear-gradient-23);}.cls-56{fill:url(#linear-gradient-24);}.cls-57{fill:url(#linear-gradient-25);}.cls-58{fill:url(#linear-gradient-26);}.cls-59{fill:url(#linear-gradient-27);}.cls-60{fill:url(#linear-gradient-28);}.cls-61{fill:url(#linear-gradient-29);}.cls-62{clip-path:url(#clip-path-11);}.cls-63{clip-path:url(#clip-path-12);}.cls-64{clip-path:url(#clip-path-13);}.cls-65{fill:#ccc;}.cls-66{fill:#b5b5b5;}.cls-67{fill:#727272;}.cls-68{fill:#a69bae;}.cls-69{fill:#908697;}.cls-70{fill:#8f8696;}.cls-71{fill:#85778a;}.cls-72{clip-path:url(#clip-path-14);}.cls-73{fill:#9a8aa0;}.cls-74{clip-path:url(#clip-path-15);}.cls-75{clip-path:url(#clip-path-16);}.cls-76{fill:#454048;}</style><linearGradient id="linear-gradient" x1="206.5" y1="261.59" x2="222.24" y2="261.59" gradientUnits="userSpaceOnUse"><stop offset="0" stop-color="#8c7d91"/><stop offset="1" stop-color="#5c515f"/></linearGradient><linearGradient id="linear-gradient-2" x1="99.09" y1="151.08" x2="114.83" y2="151.08" xlink:href="#linear-gradient"/><linearGradient id="linear-gradient-3" x1="239.65" y1="110.07" x2="246.98" y2="110.07" gradientUnits="userSpaceOnUse"><stop offset="0" stop-color="#bace8d"/><stop offset="1" stop-color="#899b68"/></linearGradient><pattern id="green_halftone" data-name="green halftone" width="10" height="10" patternTransform="translate(4.93 50.49) scale(0.03)" patternUnits="userSpaceOnUse" viewBox="0 0 10 10"><rect class="cls-2" width="10" height="10"/><circle class="cls-5" cx="7.5" cy="10" r="1.66" transform="translate(-3.57 15.81) rotate(-80.82)"/><circle class="cls-5" cx="2.5" cy="10" r="1.66" transform="translate(-7.77 10.87) rotate(-80.82)"/><circle class="cls-5" cx="10" cy="5" r="1.66" transform="translate(3.47 14.07) rotate(-80.82)"/><circle class="cls-5" cx="5" cy="5" r="1.66" transform="translate(-0.73 9.14) rotate(-80.82)"/><circle class="cls-5" cy="5" r="1.66" transform="translate(-4.94 4.2) rotate(-80.82)"/><circle class="cls-5" cx="7.5" r="1.66" transform="translate(6.3 7.4) rotate(-80.82)"/><circle class="cls-5" cx="2.5" r="1.66" transform="translate(2.1 2.47) rotate(-80.82)"/></pattern><linearGradient id="linear-gradient-4" x1="239.02" y1="48.64" x2="245.23" y2="48.64" xlink:href="#linear-gradient-3"/><pattern id="green_halftone-7" data-name="green halftone" width="10" height="10" patternTransform="translate(4.79 40.87) scale(0.02)" patternUnits="userSpaceOnUse" viewBox="0 0 10 10"><rect class="cls-2" width="10" height="10"/><circle class="cls-5" cx="7.5" cy="10" r="1.66" transform="translate(-3.57 15.81) rotate(-80.82)"/><circle class="cls-5" cx="2.5" cy="10" r="1.66" transform="translate(-7.77 10.87) rotate(-80.82)"/><circle class="cls-5" cx="10" cy="5" r="1.66" transform="translate(3.47 14.07) rotate(-80.82)"/><circle class="cls-5" cx="5" cy="5" r="1.66" transform="translate(-0.73 9.14) rotate(-80.82)"/><circle class="cls-5" cy="5" r="1.66" transform="translate(-4.94 4.2) rotate(-80.82)"/><circle class="cls-5" cx="7.5" r="1.66" transform="translate(6.3 7.4) rotate(-80.82)"/><circle class="cls-5" cx="2.5" r="1.66" transform="translate(2.1 2.47) rotate(-80.82)"/></pattern><linearGradient id="linear-gradient-5" x1="238.11" y1="271.6" x2="237.27" y2="281.27" gradientTransform="translate(-10.52 -14.27) rotate(0.22)" gradientUnits="userSpaceOnUse"><stop offset="0" stop-color="#9eefef"/><stop offset="0.03" stop-color="#9deded" stop-opacity="0.93"/><stop offset="0.17" stop-color="#99e4e5" stop-opacity="0.65"/><stop offset="0.31" stop-color="#95ddde" stop-opacity="0.42"/><stop offset="0.43" stop-color="#93d7d9" stop-opacity="0.24"/><stop offset="0.54" stop-color="#91d3d5" stop-opacity="0.11"/><stop offset="0.63" stop-color="#8fd1d3" stop-opacity="0.03"/><stop offset="0.7" stop-color="#8fd0d2" stop-opacity="0"/></linearGradient><linearGradient id="linear-gradient-6" x1="197.06" y1="246.9" x2="195.93" y2="259.87" xlink:href="#linear-gradient-5"/><linearGradient id="linear-gradient-7" x1="173.27" y1="236.76" x2="172.43" y2="246.44" xlink:href="#linear-gradient-5"/><linearGradient id="linear-gradient-8" x1="233.94" y1="241.77" x2="233.1" y2="251.45" xlink:href="#linear-gradient-5"/><linearGradient id="linear-gradient-9" x1="262.17" y1="250.94" x2="261.23" y2="261.74" xlink:href="#linear-gradient-5"/><linearGradient id="linear-gradient-10" x1="206.5" y1="260.98" x2="222.24" y2="260.98" gradientUnits="userSpaceOnUse"><stop offset="0" stop-color="#8c9591"/><stop offset="1" stop-color="#5c575f"/></linearGradient><clipPath id="clip-path"><path class="cls-1" d="M222.24,265.8h0a1.16,1.16,0,0,1-1.37,1.14c-2.2-.42-6.55-1.41-9.23-3.05a13.13,13.13,0,0,1-4.69-5.29,4.19,4.19,0,0,1-.44-1.87v-.5a13.4,13.4,0,0,0,5.13,6.28C215.29,264.74,222,265.77,222.24,265.8Z"/></clipPath><clipPath id="clip-path-2"><path class="cls-2" d="M167.09,152.85a57,57,0,0,0-.92-7.57h0c-.06-.27-.11-.52-.17-.74-.54-2-1.15-3.65-1.15-3.65a.52.52,0,0,0-.36,0l.08,0-.1,0h0a.54.54,0,0,0-.19,0h0c-.14,0-.26.1-.2.44a33.46,33.46,0,0,1,1.35,7c.25,3.59-.78,10.64-.25,11.46a.9.9,0,0,0,.43.36h0a1.14,1.14,0,0,0,.54.06l.3-.06a1.76,1.76,0,0,1-.3.06,1.84,1.84,0,0,0,.92-.19S167.09,154.15,167.09,152.85Z"/></clipPath><clipPath id="clip-path-3"><path class="cls-2" d="M110.86,112.89a44.14,44.14,0,0,0-.71-5.86h0c0-.21-.09-.41-.13-.57-.42-1.57-.89-2.82-.89-2.82a.4.4,0,0,0-.28,0l.07,0-.08,0h0l-.14,0h0c-.1,0-.2.08-.15.34a25.92,25.92,0,0,1,1,5.42c.19,2.78-.6,8.24-.19,8.88a.7.7,0,0,0,.33.28h0a.88.88,0,0,0,.41,0l.23,0-.23,0a1.43,1.43,0,0,0,.71-.15S110.86,113.9,110.86,112.89Z"/></clipPath><clipPath id="clip-path-4"><path class="cls-2" d="M173.73,163.56a57,57,0,0,0-.92-7.57h0c-.06-.27-.11-.52-.17-.74-.54-2-1.15-3.65-1.15-3.65a.52.52,0,0,0-.36,0l.08,0-.1,0h0a.54.54,0,0,0-.19,0h0c-.14,0-.26.1-.2.44a33.46,33.46,0,0,1,1.35,7c.25,3.59-.78,10.64-.25,11.46a.9.9,0,0,0,.43.36h0a1.14,1.14,0,0,0,.54.06l.3-.06a1.76,1.76,0,0,1-.3.06,1.84,1.84,0,0,0,.92-.19S173.73,164.86,173.73,163.56Z"/></clipPath><clipPath id="clip-path-5"><path class="cls-2" d="M165.4,169.08a62.12,62.12,0,0,0-1-8.25h0c-.06-.3-.12-.57-.18-.8-.58-2.22-1.26-4-1.26-4a.57.57,0,0,0-.39,0l.09,0-.11,0h0a.59.59,0,0,0-.2,0h0c-.15,0-.28.11-.22.48a36.48,36.48,0,0,1,1.47,7.63c.27,3.91-.85,11.6-.27,12.49a1,1,0,0,0,.47.39h0a1.25,1.25,0,0,0,.58.07l.33-.07a1.92,1.92,0,0,1-.33.07,2,2,0,0,0,1-.21S165.4,170.5,165.4,169.08Z"/></clipPath><linearGradient id="linear-gradient-13" x1="97.44" y1="152.69" x2="96.01" y2="169.16" xlink:href="#linear-gradient-5"/><linearGradient id="linear-gradient-14" x1="121.1" y1="204.44" x2="120.26" y2="214.12" xlink:href="#linear-gradient-5"/><linearGradient id="linear-gradient-15" x1="80.05" y1="179.74" x2="78.93" y2="192.71" xlink:href="#linear-gradient-5"/><linearGradient id="linear-gradient-16" x1="56.26" y1="169.6" x2="55.43" y2="179.28" xlink:href="#linear-gradient-5"/><linearGradient id="linear-gradient-17" x1="116.93" y1="174.62" x2="116.09" y2="184.29" xlink:href="#linear-gradient-5"/><linearGradient id="linear-gradient-18" x1="138.35" y1="158.5" x2="137.51" y2="168.18" xlink:href="#linear-gradient-5"/><linearGradient id="linear-gradient-19" x1="145.16" y1="183.78" x2="144.23" y2="194.58" xlink:href="#linear-gradient-5"/><linearGradient id="linear-gradient-20" x1="99.09" y1="150.47" x2="114.83" y2="150.47" xlink:href="#linear-gradient-10"/><clipPath id="clip-path-6"><path class="cls-4" d="M114.83,155.29h0a1.16,1.16,0,0,1-1.37,1.14c-2.2-.42-6.55-1.41-9.23-3.05a13.13,13.13,0,0,1-4.69-5.29,4.19,4.19,0,0,1-.44-1.87v-.5a13.4,13.4,0,0,0,5.13,6.28C107.87,154.23,114.61,155.26,114.83,155.29Z"/></clipPath><clipPath id="clip-path-7"><path class="cls-2" d="M285.71,157.79a57,57,0,0,1,.92-7.57h0c.06-.27.11-.52.17-.74.54-2,1.15-3.65,1.15-3.65a.52.52,0,0,1,.36,0l-.08,0,.1,0h0a.54.54,0,0,1,.19,0h0c.14,0,.26.1.2.44a33.46,33.46,0,0,0-1.35,7c-.25,3.59.78,10.64.25,11.46a.9.9,0,0,1-.43.36h0a1.14,1.14,0,0,1-.54.06l-.3-.06a1.76,1.76,0,0,0,.3.06,1.84,1.84,0,0,1-.92-.19S285.71,159.09,285.71,157.79Z"/></clipPath><clipPath id="clip-path-8"><path class="cls-2" d="M332.31,114.09a44.14,44.14,0,0,1,.71-5.86h0c0-.21.09-.41.13-.57.42-1.57.89-2.82.89-2.82a.4.4,0,0,1,.28,0l-.07,0,.08,0h0l.14,0h0c.1,0,.2.08.15.34a25.92,25.92,0,0,0-1,5.42c-.19,2.78.6,8.24.19,8.88a.7.7,0,0,1-.33.28h0a.88.88,0,0,1-.41,0l-.23,0,.23,0a1.43,1.43,0,0,1-.71-.15S332.31,115.1,332.31,114.09Z"/></clipPath><clipPath id="clip-path-9"><path class="cls-2" d="M275.17,169.38a57,57,0,0,1,.92-7.57h0c.06-.27.11-.52.17-.74.54-2,1.15-3.65,1.15-3.65a.52.52,0,0,1,.36,0l-.08,0,.1,0h0a.54.54,0,0,1,.19,0h0c.14,0,.26.1.2.44a33.46,33.46,0,0,0-1.35,7c-.25,3.59.78,10.64.25,11.46a.9.9,0,0,1-.43.36h0a1.14,1.14,0,0,1-.54.06l-.3-.06a1.76,1.76,0,0,0,.3.06,1.84,1.84,0,0,1-.92-.19S275.17,170.68,275.17,169.38Z"/></clipPath><clipPath id="clip-path-10"><path class="cls-2" d="M286.5,173.26a62.12,62.12,0,0,1,1-8.25h0c.06-.3.12-.57.18-.8.58-2.22,1.26-4,1.26-4a.57.57,0,0,1,.39,0l-.09,0,.11,0h0a.59.59,0,0,1,.2,0h0c.15,0,.28.11.22.48a36.48,36.48,0,0,0-1.47,7.63c-.27,3.91.85,11.6.27,12.49a1,1,0,0,1-.47.39h0a1.25,1.25,0,0,1-.58.07l-.33-.07a1.92,1.92,0,0,0,.33.07,2,2,0,0,1-1-.21S286.5,174.68,286.5,173.26Z"/></clipPath><linearGradient id="linear-gradient-23" x1="1105.51" y1="148.89" x2="1104.08" y2="165.36" gradientTransform="matrix(-1, 0, 0, 1, 1482.43, -14.27)" xlink:href="#linear-gradient-5"/><linearGradient id="linear-gradient-24" x1="1129.17" y1="200.64" x2="1128.33" y2="210.31" gradientTransform="matrix(-1, 0, 0, 1, 1482.43, -14.27)" xlink:href="#linear-gradient-5"/><linearGradient id="linear-gradient-25" x1="1088.13" y1="175.94" x2="1087" y2="188.91" gradientTransform="matrix(-1, 0, 0, 1, 1482.43, -14.27)" xlink:href="#linear-gradient-5"/><linearGradient id="linear-gradient-26" x1="1064.34" y1="165.8" x2="1063.5" y2="175.48" gradientTransform="matrix(-1, 0, 0, 1, 1482.43, -14.27)" xlink:href="#linear-gradient-5"/><linearGradient id="linear-gradient-27" x1="1125" y1="170.81" x2="1124.16" y2="180.49" gradientTransform="matrix(-1, 0, 0, 1, 1482.43, -14.27)" xlink:href="#linear-gradient-5"/><linearGradient id="linear-gradient-28" x1="1146.42" y1="154.7" x2="1145.58" y2="164.38" gradientTransform="matrix(-1, 0, 0, 1, 1482.43, -14.27)" xlink:href="#linear-gradient-5"/><linearGradient id="linear-gradient-29" x1="1153.24" y1="179.98" x2="1152.3" y2="190.78" gradientTransform="matrix(-1, 0, 0, 1, 1482.43, -14.27)" xlink:href="#linear-gradient-5"/><clipPath id="clip-path-11"><path class="cls-2" d="M248.11,208.4a57,57,0,0,1,.92-7.57h0c.06-.27.11-.52.17-.74.54-2,1.15-3.65,1.15-3.65a.52.52,0,0,1,.36,0l-.08,0,.1,0h0a.54.54,0,0,1,.19,0h0c.14,0,.26.1.2.44a33.46,33.46,0,0,0-1.35,7c-.25,3.59.78,10.64.25,11.46a.9.9,0,0,1-.43.36h0a1.14,1.14,0,0,1-.54.06l-.3-.06a1.76,1.76,0,0,0,.3.06,1.84,1.84,0,0,1-.92-.19S248.11,209.71,248.11,208.4Z"/></clipPath><clipPath id="clip-path-12"><path class="cls-2" d="M183,204.81a57,57,0,0,1,.92-7.57h0c.06-.27.11-.52.17-.74.54-2,1.15-3.65,1.15-3.65a.52.52,0,0,1,.36,0l-.08,0,.1,0h0a.54.54,0,0,1,.19,0h0c.14,0,.26.1.2.44a33.46,33.46,0,0,0-1.35,7c-.25,3.59.78,10.64.25,11.46a.9.9,0,0,1-.43.36h0a1.14,1.14,0,0,1-.54.06l-.3-.06a1.76,1.76,0,0,0,.3.06,1.84,1.84,0,0,1-.92-.19S183,206.12,183,204.81Z"/></clipPath><clipPath id="clip-path-13"><path class="cls-2" d="M200.61,210.2a57,57,0,0,1,.92-7.57h0c.06-.27.11-.52.17-.74.54-2,1.15-3.65,1.15-3.65a.52.52,0,0,1,.36,0l-.08,0,.1,0h0a.54.54,0,0,1,.19,0h0c.14,0,.26.1.2.44a33.46,33.46,0,0,0-1.35,7c-.25,3.59.78,10.64.25,11.46a.9.9,0,0,1-.43.36h0a1.14,1.14,0,0,1-.54.06l-.3-.06a1.76,1.76,0,0,0,.3.06,1.84,1.84,0,0,1-.92-.19S200.61,211.51,200.61,210.2Z"/></clipPath><clipPath id="clip-path-14"><path class="cls-2" d="M235.9,85.88l.26-.15a.17.17,0,0,1,.17,0l-.26.15A.17.17,0,0,0,235.9,85.88Z"/></clipPath><clipPath id="clip-path-15"><path class="cls-3" d="M242.37,90.62l-.26.15a.17.17,0,0,0,.07-.16l.26-.15A.17.17,0,0,1,242.37,90.62Z"/></clipPath><clipPath id="clip-path-16"><path class="cls-3" d="M241.94,89.28l.26-.15a.54.54,0,0,1,.24.42l-.26.15A.54.54,0,0,0,241.94,89.28Z"/></clipPath></defs><title>logos-mega2</title><g id="Layer_16" data-name="Layer 16"><polygon class="cls-6" points="347.72 148.33 452.91 209.46 347.91 270.34 242.63 209.34 347.72 148.33"/><polygon class="cls-6" points="233.28 215.41 338.46 276.53 233.46 337.41 128.18 276.42 233.28 215.41"/><path class="cls-6" d="M222.5,211.33s-13.08-32.81-32.6-43.32-30-3.65-38.6-10.51-27.66-11.15-34.1-7.51-105,61.24-105,61.24l105.38,60.9Z"/><polygon class="cls-7" points="129.51 96.31 129.51 120.05 233.4 180.93 233.21 156.44 129.51 96.31"/><polygon class="cls-8" points="233.22 156.42 336.89 96.28 337.29 120.63 233.41 180.91 233.22 156.42"/><polygon class="cls-9" points="243.93 164.32 243.93 188.06 347.82 248.94 347.64 224.45 243.93 164.32"/><polygon class="cls-10" points="116 224.44 220.07 164.31 220.07 188.65 116.19 248.93 116 224.44"/><polygon class="cls-9" points="128.98 231.7 128.98 255.45 232.87 316.32 232.69 291.83 128.98 231.7"/><polygon class="cls-10" points="232.7 291.82 336.76 231.69 336.76 256.03 232.88 316.31 232.7 291.82"/><path class="cls-11" d="M239.31,190.71c2.06.55-4.06.74-4.06.74a22.43,22.43,0,0,1-8.17-6.42c-3.25-4.33.56-2.39.56-2.39A22.11,22.11,0,0,0,239.31,190.71Z"/><polygon class="cls-12" points="232.8 171.72 128.91 232.09 232.61 292.22 336.59 231.98 232.8 171.72"/><path class="cls-13" d="M245,188.07c-3.32.45-12.49-3.14-12.2-5.14s.9-.61,4.91-2.6,3.67,5.79,6.29,6.23S245,188.07,245,188.07Z"/><path class="cls-13" d="M239.31,190.71c2.06.55-4.06.74-4.06.74a22.43,22.43,0,0,1-8.17-6.42c-3.25-4.33.56-2.39.56-2.39A22.11,22.11,0,0,0,239.31,190.71Z"/><path class="cls-14" d="M129.28,96.29l38.47-45.34a7.66,7.66,0,0,1,6.41-2.69c8.47.62,28.54,1.81,36.49-.31,5.75-1.53,22.47-11.84,22.47-11.84L336.89,96.28,233.1,156.51Z"/><path class="cls-15" d="M129.28,96.29l38.47-45.34a3.6,3.6,0,0,1,5.44,0c2.91,2.85,3.44,12.64,7.41,15.15s11.77,1.59,16.4,8.33,18.81,47.21,25.37,52.16,10.73,29.91,10.73,29.91Z"/><path class="cls-15" d="M278,114.31s-11,1.84-20.51-10S245.24,80.35,236.75,79s-9.37-7.38-7.75-9.38,9.87-12,23.93-6S266,84.57,275,87.27s25.66,8.16,22.28,11.89S278,114.31,278,114.31Z"/><g class="cls-16"><path class="cls-3" d="M246.22,119.71c.43-.11.14-.26.62-.6a4.38,4.38,0,0,1,.79-.39,5.41,5.41,0,0,1,.82-.34,8.27,8.27,0,0,1,.87-.18c.27,0,.57,0,.89-.07s.57,0,.89,0,.58.07.89.09.58,0,.85,0l.85.06.85.06c.3,0,.58,0,.85,0l.85,0c.31,0,.59.06.85.08s.59.07.84.1a3.87,3.87,0,0,1,.81.2c.36.13.53.27.53.54s-.24.38-.65.45a6,6,0,0,1-.86,0c-.27,0-.56,0-.86,0s-.58,0-.87,0-.58-.09-.86-.12l-.86-.11c-.35,0-.65-.05-.86-.07s-.53-.07-.8-.09-.54,0-.8,0-.54-.06-.8-.06-.55,0-.8,0-.56,0-.8,0a4.82,4.82,0,0,0-.86.21c-.51.16-1.17.14-.77.31s.41,0,.83.06.42.1.84.13.43,0,.85,0l.85.06c.42,0,.42,0,.85,0s.42.1.84.13.43-.06.85,0,.42.12.84.14.43,0,.85,0,.42.07.84.1.43-.05.85,0l.85.06.84,0c.42,0,.42.06.84.09s.42.06.84.09l.85,0,.85.05c.42,0,.42,0,.85,0l.85.07.85.07c.42,0,.42.05.84.08s.43,0,.85,0l.85.07.85.06.85.06c.43,0,.43,0,.85,0a1.72,1.72,0,0,1,.83.21c.29.13.53.35.43.66a.83.83,0,0,1-.58.5,1.35,1.35,0,0,1-.77.1c-.43,0-.42-.06-.85-.08l-.85-.07-.85,0c-.43,0-.43,0-.86,0l-.85-.06c-.43,0-.43,0-.86,0s-.42-.08-.85-.11-.42-.06-.85-.08-.43,0-.85,0-.43,0-.86,0-.42-.06-.85-.08-.42-.07-.85-.1-.43,0-.86,0l-.85-.07-.85-.07-.85,0c-.43,0-.43,0-.86,0s-.43-.05-.86-.08-.43-.06-.86-.09a4.2,4.2,0,0,0-.86,0c-.4,0,.17.07.77.2a7.72,7.72,0,0,0,.78.22l.8.09c.24,0,.52,0,.81,0s.51.13.79.15l.81.06c.26,0,.53,0,.82,0s.55.08.8.09.56,0,.81,0l.8,0c.31,0,.58.07.8.09s.61.05.8.09c.59.11.51.26.52.46s-.25.37-.64.4a7,7,0,0,1-.84,0l-.87,0c-.26,0-.56-.07-.88-.09s-.57-.08-.87-.1l-.88,0-.88-.08L256,123c-.34,0-.64,0-.88,0s-.56-.12-.88-.18-.59-.05-.89-.13a7,7,0,0,1-.84-.31,5.32,5.32,0,0,1-.79-.42,4.17,4.17,0,0,1-.71-.51,3,3,0,0,0-.8-.13l-.82,0-.82,0c-.41,0-.41,0-.82,0s-.41,0-.82,0l-.81-.07-.82,0-.82-.06c-.41,0-.41-.08-.82-.1s-.54.26-.84,0,.08-.35.1-.7-.26-.45,0-.66.38,0,.79,0,.41,0,.82,0a7.42,7.42,0,0,1,.81.11A1.45,1.45,0,0,0,246.22,119.71Z"/></g><path class="cls-17" d="M242.77,118.35c-.14-.38-.36,0-.79-.27a4.38,4.38,0,0,1-.64-.49,3.68,3.68,0,0,1-.62-.52,4.1,4.1,0,0,1-.42-.7,4.36,4.36,0,0,1-.33-.75,5.64,5.64,0,0,1-.11-.81,6.23,6.23,0,0,1-.09-.81c0-.31,0-.62,0-.9s-.09-.61-.1-.9,0-.62,0-.9-.06-.62-.06-.9a7.23,7.23,0,0,1,.05-.89,1.6,1.6,0,0,1,.3-.81.86.86,0,0,1,.75-.33.69.69,0,0,1,.68.34,2,2,0,0,1,.24.79,5.92,5.92,0,0,1,0,.83c0,.27-.09.55-.12.82s-.06.57-.09.83-.12.62-.12.81,0,.52,0,.78,0,.52.07.78a7.74,7.74,0,0,0,.06.78,3.87,3.87,0,0,0,.25.73,2.6,2.6,0,0,0,.4.69c.29.36.39.93.56.56s0-.42,0-.84,0-.42,0-.85,0-.42,0-.85,0-.42,0-.85,0-.42,0-.85-.07-.42-.07-.85,0-.42,0-.85,0-.42,0-.84.06-.42.06-.85,0-.42,0-.85,0-.42,0-.85,0-.42,0-.85,0-.43,0-.85,0-.42,0-.85,0-.42,0-.85,0-.42,0-.85-.05-.43-.05-.85,0-.43,0-.85.06-.43.06-.86,0-.43,0-.85,0-.5.34-.79a1,1,0,0,1,.85-.23,1.33,1.33,0,0,1,.73.31c.34.3.28.31.27.71s.06.41.06.82,0,.41,0,.82,0,.41,0,.82.08.41.08.82,0,.41,0,.82,0,.41,0,.82,0,.41,0,.82.05.41.05.82,0,.41,0,.83-.09.41-.09.82.08.41.08.82,0,.41,0,.82,0,.41,0,.83,0,.41,0,.83,0,.41,0,.83-.09.42,0,.82.11-.16.28-.8a5.07,5.07,0,0,0,.26-.85c0-.26,0-.56,0-.89s.09-.56.09-.89-.08-.57-.09-.89,0-.55,0-.8,0-.56,0-.8,0-.58,0-.8a2.91,2.91,0,0,1,.15-.78c.12-.38.3-.35.6-.36a.52.52,0,0,1,.57.38,2.27,2.27,0,0,1,.08.75c0,.14,0,.42,0,.79s0,.5,0,.79,0,.52,0,.79,0,.54,0,.8,0,.55,0,.79,0,.57,0,.79a5.79,5.79,0,0,1-.14.77,3.8,3.8,0,0,1-.26.73,3.39,3.39,0,0,1-.41.66,3.61,3.61,0,0,1-.51.6,4.45,4.45,0,0,1-.63.46,2.61,2.61,0,0,0-.06.89c0,.45,0,.45,0,.9s0,.45,0,.9-.05.45-.06.9,0,.45,0,.9,0,.45,0,.9.26.52,0,.88-.32,0-.67,0-.35.07-.71.07-.5.25-.73,0,0-.43,0-.85a4.33,4.33,0,0,1,0-.84C242.81,118.78,242.91,118.75,242.77,118.35Z"/><path class="cls-18" d="M241.45,112.8c0,.25,0,.52,0,.78s0,.53,0,.78a7.31,7.31,0,0,0,.13.77,4.35,4.35,0,0,0,.15.77,2.64,2.64,0,0,0,.44.69c.29.36.25.74.61.57.15-.07,0-.2,0-.35a2.7,2.7,0,0,1-.62-.9,4.29,4.29,0,0,1-.16-.77,7.71,7.71,0,0,1-.06-.77c0-.26-.08-.52-.09-.78s.07-.52.08-.78,0-.48.06-.82.08-.53.11-.82.06-.55.07-.83a5.85,5.85,0,0,0,0-.83,1.94,1.94,0,0,0-.27-.77.71.71,0,0,0-.64-.44,1.4,1.4,0,0,0-.19,0,.78.78,0,0,1,.53.54,2.46,2.46,0,0,1,.21.76,6.76,6.76,0,0,1,0,.8c0,.26-.05.53-.08.79s-.06.55-.09.79S241.45,112.62,241.45,112.8Z"/><path class="cls-18" d="M244.92,100.15c0,.41,0,.41,0,.82s.08.41.08.82,0,.41,0,.82,0,.41,0,.82,0,.41,0,.82,0,.41,0,.82,0,.41,0,.82,0,.41,0,.82,0,.41,0,.83,0,.41,0,.82-.06.41-.06.82,0,.41,0,.82,0,.41,0,.83,0,.41,0,.83.06.41.06.83-.2.45-.07.84.28-.19.47-.91c0-.43-.08-.44-.08-.88s.07-.44.07-.87,0-.44,0-.87-.06-.44-.06-.88,0-.44,0-.88,0-.44,0-.88,0-.44,0-.88,0-.44,0-.88.05-.44.05-.88,0-.44,0-.87,0-.44,0-.88,0-.44,0-.88,0-.44,0-.88,0-.44,0-.88,0-.37-.33-.67a1.22,1.22,0,0,0-.69-.34,1.25,1.25,0,0,0-.38,0,1.33,1.33,0,0,1,.72.27C245,99.75,244.93,99.76,244.92,100.15Z"/><path class="cls-18" d="M246.71,105.44c-.08,0-.16.07-.22.08a.51.51,0,0,1,.41.43,2.5,2.5,0,0,1,.13.65c0,.14,0,.42,0,.79s0,.5,0,.79,0,.52,0,.79,0,.54,0,.8,0,.55-.06.79,0,.58,0,.79a5.84,5.84,0,0,1-.14.78,3.87,3.87,0,0,1-.27.74,3.4,3.4,0,0,1-.39.68,3.7,3.7,0,0,1-.52.6,5.08,5.08,0,0,1-.69.42c-.11.44,0,.45,0,.9s0,.45,0,.9.05.45.05.9,0,.45,0,.9,0,.45,0,.9,0,.45,0,.91-.17.49,0,.9a.2.2,0,0,0,.38,0c.18-.41,0-.44,0-.89s0-.45,0-.9,0-.45,0-.9.07-.45.07-.9-.09-.45-.08-.9,0-.45,0-.9a2.67,2.67,0,0,1,0-.91,5,5,0,0,0,.68-.42,3.83,3.83,0,0,0,.55-.58,3.54,3.54,0,0,0,.42-.68,3.87,3.87,0,0,0,.25-.76,5.91,5.91,0,0,0,.14-.78c0-.21-.05-.49,0-.79s0-.51.05-.79,0-.53,0-.79,0-.54,0-.79,0-.56,0-.79,0-.65,0-.79a2.35,2.35,0,0,0-.07-.76A.57.57,0,0,0,246.71,105.44Z"/><g class="cls-16"><path class="cls-3" d="M244.58,56.8c.36-.09.12-.22.52-.51a3.71,3.71,0,0,1,.67-.33,4.58,4.58,0,0,1,.69-.28,7,7,0,0,1,.74-.15c.23,0,.48,0,.75-.06l.76,0c.24,0,.49.06.76.07s.49,0,.72,0l.72,0,.72.05c.25,0,.49,0,.72,0l.72,0c.26,0,.5.05.72.07s.51.06.72.08a3.25,3.25,0,0,1,.69.17c.3.11.45.23.45.45s-.2.32-.55.38a5.07,5.07,0,0,1-.73,0c-.23,0-.47,0-.72,0s-.49,0-.73,0-.49-.08-.73-.11l-.73-.09c-.3,0-.55,0-.72-.06s-.45-.06-.67-.07l-.68,0c-.23,0-.46-.05-.68-.05s-.46,0-.68,0-.47,0-.68,0a4.08,4.08,0,0,0-.73.18c-.43.14-1,.12-.65.26s.35,0,.7.05.35.08.71.11.36,0,.72,0l.72.05c.36,0,.36,0,.72,0s.35.09.71.11.36-.05.72,0,.35.1.71.12.36,0,.71,0,.35.06.71.08.36,0,.72,0l.72.05.72,0c.36,0,.36.05.71.07s.36.05.71.08l.72,0,.72,0c.36,0,.36,0,.72,0l.72.06.72.06c.36,0,.36,0,.72.07s.36,0,.72,0l.72.06.72,0,.72,0,.72,0a1.45,1.45,0,0,1,.7.18c.24.11.45.3.36.56a.7.7,0,0,1-.49.42,1.14,1.14,0,0,1-.65.08c-.36,0-.36,0-.72-.07l-.72-.06-.72,0c-.36,0-.36,0-.72,0l-.72-.05c-.36,0-.36,0-.73,0s-.36-.07-.72-.09-.36,0-.72-.07-.36,0-.72,0-.36,0-.73,0-.36,0-.72-.07-.36-.06-.72-.08-.36,0-.73,0l-.72-.06-.72-.06-.72,0c-.36,0-.37,0-.73,0s-.36,0-.73-.07-.36-.05-.73-.08a3.57,3.57,0,0,0-.73,0c-.34,0,.14.06.65.17a6.54,6.54,0,0,0,.66.19l.68.08c.21,0,.44,0,.68,0s.43.11.67.13l.69,0c.22,0,.45,0,.69,0s.47.07.68.08.48,0,.69,0l.69,0c.26,0,.49.06.68.08s.51,0,.67.07c.5.09.43.22.44.39s-.21.31-.54.34a5.89,5.89,0,0,1-.71,0l-.74,0-.74-.07c-.24,0-.48-.07-.74-.09l-.75,0-.75-.07-.75-.08c-.28,0-.54,0-.75,0s-.48-.1-.74-.15-.5,0-.75-.11a5.94,5.94,0,0,1-.71-.26,4.5,4.5,0,0,1-.67-.36,3.53,3.53,0,0,1-.6-.43,2.49,2.49,0,0,0-.68-.11l-.69,0-.69,0c-.35,0-.35,0-.69,0l-.69,0-.69-.06-.69,0-.69-.05c-.35,0-.35-.07-.69-.09s-.45.22-.71,0,.07-.3.09-.59-.22-.38,0-.55.32,0,.67,0,.35,0,.69,0a6.28,6.28,0,0,1,.69.09A1.23,1.23,0,0,0,244.58,56.8Z"/></g><path class="cls-19" d="M241.66,55.65c-.12-.32-.3,0-.67-.23a3.71,3.71,0,0,1-.54-.42,3.11,3.11,0,0,1-.53-.44,3.47,3.47,0,0,1-.36-.59,3.69,3.69,0,0,1-.28-.63,4.77,4.77,0,0,1-.1-.68,5.28,5.28,0,0,1-.07-.69c0-.27,0-.52,0-.76s-.08-.52-.09-.76,0-.52,0-.76,0-.53-.05-.76a6.12,6.12,0,0,1,0-.76,1.36,1.36,0,0,1,.26-.69.73.73,0,0,1,.64-.28.59.59,0,0,1,.58.29,1.73,1.73,0,0,1,.21.67,5,5,0,0,1,0,.7c0,.23-.07.47-.1.7s0,.49-.08.7-.1.53-.1.69,0,.44,0,.66,0,.44.06.66a6.55,6.55,0,0,0,.05.66,3.28,3.28,0,0,0,.21.62,2.2,2.2,0,0,0,.33.59c.25.3.33.79.47.47s0-.36,0-.71,0-.36,0-.71,0-.36,0-.71,0-.36,0-.71,0-.36,0-.72-.06-.36-.06-.72,0-.36,0-.72,0-.36,0-.72,0-.36,0-.72,0-.36,0-.72,0-.36,0-.72,0-.36,0-.72,0-.36,0-.72,0-.36,0-.72,0-.36,0-.72,0-.36,0-.72,0-.36,0-.72,0-.36,0-.72.05-.36.05-.73,0-.36,0-.72,0-.42.28-.67a.87.87,0,0,1,.72-.19,1.12,1.12,0,0,1,.62.26c.29.25.23.26.23.6s.05.35.05.7,0,.35,0,.7,0,.35,0,.69.07.35.07.69,0,.35,0,.69,0,.35,0,.7,0,.35,0,.7,0,.35,0,.7,0,.35,0,.7-.07.35-.07.7.07.35.07.7,0,.35,0,.7,0,.35,0,.7,0,.35,0,.7,0,.35,0,.7-.08.36,0,.69.09-.14.24-.67A4.29,4.29,0,0,0,244,50c0-.22,0-.47,0-.75s.07-.47.08-.75S244,48,244,47.74s0-.47,0-.68,0-.48,0-.68,0-.49,0-.68a2.45,2.45,0,0,1,.13-.66c.1-.32.26-.29.5-.31a.44.44,0,0,1,.49.32,1.93,1.93,0,0,1,.07.63c0,.12,0,.36,0,.67s0,.42,0,.67,0,.44,0,.67,0,.45,0,.67,0,.46,0,.67,0,.49,0,.67a4.9,4.9,0,0,1-.12.66,3.22,3.22,0,0,1-.22.62,2.87,2.87,0,0,1-.35.56,3.06,3.06,0,0,1-.43.51,3.77,3.77,0,0,1-.53.39,2.21,2.21,0,0,0,0,.76c0,.38,0,.38,0,.76s0,.38,0,.76,0,.38,0,.76,0,.38,0,.76,0,.38,0,.77.22.44,0,.74-.27,0-.57,0-.3.06-.6.06-.42.22-.62,0,0-.37,0-.72a3.66,3.66,0,0,1,0-.71C241.69,56,241.78,56,241.66,55.65Z"/><path class="cls-20" d="M240.54,51c0,.22,0,.44,0,.66s0,.45,0,.66a6.19,6.19,0,0,0,.11.65,3.68,3.68,0,0,0,.13.65,2.24,2.24,0,0,0,.37.58c.25.3.21.63.52.48.13-.06,0-.17,0-.3a2.29,2.29,0,0,1-.53-.76,3.64,3.64,0,0,1-.14-.65,6.53,6.53,0,0,1-.05-.66c0-.22-.07-.44-.07-.66s.06-.44.07-.66,0-.4,0-.69.07-.45.09-.69.05-.47.06-.7a5,5,0,0,0,0-.7,1.64,1.64,0,0,0-.23-.65.61.61,0,0,0-.55-.37l-.16,0a.66.66,0,0,1,.45.46,2.08,2.08,0,0,1,.18.64,5.7,5.7,0,0,1,0,.68c0,.22,0,.45-.07.67s-.05.47-.08.67S240.55,50.8,240.54,51Z"/><path class="cls-20" d="M243.49,40.24c0,.35,0,.35,0,.7s.07.35.07.7,0,.35,0,.69,0,.35,0,.69,0,.35,0,.69,0,.35,0,.7,0,.35,0,.7,0,.35,0,.7,0,.35,0,.7,0,.35,0,.7-.05.35-.05.7,0,.35,0,.7,0,.35,0,.7,0,.35,0,.7.05.35.05.7-.17.38-.06.71.24-.16.39-.77c0-.37-.07-.37-.07-.74s.06-.37.06-.74,0-.37,0-.74,0-.37,0-.74,0-.37,0-.74,0-.37,0-.74,0-.37,0-.74,0-.37,0-.74,0-.37,0-.74,0-.37,0-.74,0-.37,0-.74,0-.37,0-.75,0-.37,0-.75,0-.37,0-.75,0-.31-.28-.56a1,1,0,0,0-.59-.29,1.06,1.06,0,0,0-.32,0,1.13,1.13,0,0,1,.61.23C243.55,39.9,243.49,39.91,243.49,40.24Z"/><path class="cls-20" d="M245,44.72c-.06,0-.13.06-.19.06a.43.43,0,0,1,.35.37,2.12,2.12,0,0,1,.11.55c0,.12,0,.36,0,.67s0,.43,0,.67,0,.44,0,.67,0,.45,0,.67,0,.46,0,.67,0,.49,0,.67a4.94,4.94,0,0,1-.12.66,3.28,3.28,0,0,1-.23.62,2.88,2.88,0,0,1-.33.58,3.14,3.14,0,0,1-.44.51,4.3,4.3,0,0,1-.58.36c-.09.37,0,.38,0,.76s0,.38,0,.76,0,.38,0,.76,0,.38,0,.76,0,.38,0,.76,0,.38,0,.77-.15.41,0,.77a.17.17,0,0,0,.32,0c.15-.35,0-.38,0-.76s0-.38,0-.76,0-.38,0-.76.06-.38.06-.76-.07-.38-.07-.76,0-.38,0-.77a2.26,2.26,0,0,1,0-.77,4.22,4.22,0,0,0,.57-.36,3.24,3.24,0,0,0,.46-.5,3,3,0,0,0,.35-.58,3.28,3.28,0,0,0,.21-.64,5,5,0,0,0,.12-.66c0-.18,0-.41,0-.67s0-.43,0-.67,0-.45,0-.67,0-.46,0-.67,0-.47,0-.67,0-.55,0-.67a2,2,0,0,0-.06-.64A.48.48,0,0,0,245,44.72Z"/><path class="cls-21" d="M218.43,261.89s6.46-2.52,6.66-4.08a1.33,1.33,0,0,0-1.36-1.57s5.09-1,9.36,6.88S218.43,261.89,218.43,261.89Z"/><path class="cls-22" d="M174.71,238.28s8.67-3.38,8.94-5.47a1.78,1.78,0,0,0-1.83-2.1s6.82-1.29,12.55,9.22S174.71,238.28,174.71,238.28Z"/><path class="cls-23" d="M153.72,226.81s6.46-2.52,6.66-4.08a1.33,1.33,0,0,0-1.36-1.57s5.09-1,9.36,6.88S153.72,226.81,153.72,226.81Z"/><path class="cls-24" d="M214.37,232.05s6.46-2.52,6.66-4.08a1.33,1.33,0,0,0-1.36-1.57s5.09-1,9.36,6.88S214.37,232.05,214.37,232.05Z"/><path class="cls-25" d="M241.63,241.75s7.21-2.81,7.43-4.55a1.48,1.48,0,0,0-1.52-1.75s5.68-1.07,10.44,7.68S241.63,241.75,241.63,241.75Z"/><path class="cls-26" d="M207.7,256.16a13.4,13.4,0,0,1,6.81,1.77c3.69,2.24,7.66,7.78,7.73,7.87-.22,0-7-1.06-10.61-3.29a13.4,13.4,0,0,1-5.13-6.28A9.28,9.28,0,0,1,207.7,256.16Z"/><g class="cls-27"><path class="cls-1" d="M222.24,265.8h0a1.16,1.16,0,0,1-1.37,1.14c-2.2-.42-6.55-1.41-9.23-3.05a13.13,13.13,0,0,1-4.69-5.29,4.19,4.19,0,0,1-.44-1.87v-.5a13.4,13.4,0,0,0,5.13,6.28C215.29,264.74,222,265.77,222.24,265.8Z"/><g class="cls-28"><g class="cls-27"><path class="cls-1" d="M222.24,265.8h0a1.16,1.16,0,0,1-1.37,1.14c-2.2-.42-6.55-1.41-9.23-3.05a13,13,0,0,1-4.54-5,5.08,5.08,0,0,1-.59-2.37v-.28a13.4,13.4,0,0,0,5.13,6.28c3.65,2.23,10.39,3.26,10.61,3.29"/></g></g></g><path class="cls-29" d="M213.16,260.29a.16.16,0,0,1-.16-.16V244a.16.16,0,0,1,.32,0v16.16A.16.16,0,0,1,213.16,260.29Z"/><path class="cls-30" d="M213.64,244s6.1,8.65,5.43,15.25L213.64,256s.92-1,0-3.48A16,16,0,0,0,213.64,244Z"/><polygon class="cls-9" points="12.24 164.1 12.24 187.85 116.13 248.72 115.94 224.23 12.24 164.1"/><path class="cls-11" d="M122.56,123.11c2.06.55-4.06.74-4.06.74a22.43,22.43,0,0,1-8.17-6.42c-3.25-4.33.56-2.39.56-2.39A22.11,22.11,0,0,0,122.56,123.11Z"/><polygon class="cls-12" points="116.05 104.12 12.16 164.49 115.86 224.62 219.84 164.38 116.05 104.12"/><path class="cls-31" d="M100,113.45s-2.75,6,1.23,10.4,16.37,9.86,23.22,10.25,15.92,1.72,20.12,9.46,5.31,15.53,6,20.81,3.24,7.27,2.84,11.47-6,7.52-6.2,13.93,2.14,15.45,2.14,15.45L163.51,197l5.41-24.55-13.4-36.22-27.31-15.77L106,110Z"/><path class="cls-13" d="M103.27,111.54s-1,8.59,2.29,10.79,9.38,6,15.44,6.48,15.14,1,22.47,7.43a34.84,34.84,0,0,1,10.86,20.34c.76,5,1.77,14.08,3.79,15.88s2.25,4.13-1.15,8.52-6.68,7.67-6.68,13.61,2,8.92,2,8.92l18.37-25.14L160.5,133.59,127.22,119,106,110Z"/><path class="cls-32" d="M106,110s-2.18,7.79,3.19,12.39,24.56.47,37.68,15.34,7.73,23.13,13.94,32.63-.31,9.5-4.69,16.52-3.82,16.68-3.82,16.68l67.54-39.13L116,104.12Z"/><path class="cls-13" d="M155.52,133c0,2-.64,4.16-3.87,2.76s-3.81-7.09-7.51-7.35-6.47-3.35-4.76-4.42,10.47,3,11.08,4.45S155.52,133,155.52,133Z"/><path class="cls-13" d="M168.92,172.47a12.54,12.54,0,0,1-4.67-5.5c-1.09-2.58-5-10.48-4.28-11.47s.3-5.49,1.15-6.24.65,4.19,2.26,8.83,1.5,7.33,3.61,7.83S168.92,172.47,168.92,172.47Z"/><path class="cls-13" d="M128.21,120.47c-3.32.45-12.49-3.14-12.2-5.14s.9-.61,4.91-2.6,3.67,5.79,6.29,6.23S128.21,120.47,128.21,120.47Z"/><path class="cls-13" d="M122.56,123.11c2.06.55-4.06.74-4.06.74a22.43,22.43,0,0,1-8.17-6.42c-3.25-4.33.56-2.39.56-2.39A22.11,22.11,0,0,0,122.56,123.11Z"/><path class="cls-13" d="M168.26,181.36c.45,1.32,0,2.39-1.18,4s-4.63,7.54-5.27,8.18c-2,2.05-3.94.47-4.72.22s2.4-1.93,4.73-4.63,3.17-3.4,3.61-5.11C165.81,182.5,167.81,180,168.26,181.36Z"/><path class="cls-6" d="M181,159.41c1.21-.23,2.27-.47,2.93-.64a.65.65,0,0,0,.55.25l.14,0-.65,5s5.46-3.3,1.3-5.54a14.33,14.33,0,0,1,3.75,2,1.75,1.75,0,0,1,1-.45,3.29,3.29,0,0,0-.78.62,13,13,0,0,1,2.12,2.4s0-.07,0-.19a4.17,4.17,0,0,0-1.68-4.26c-1.25-1-3.43-.82-4.18-.71a3.54,3.54,0,0,0,2-2.17c.58-2-1.83-3.39-1.83-3.39a6.39,6.39,0,0,1,0,3.07,3,3,0,0,0,1.24,0s-.15.21-1.23.28l-.88,2a.68.68,0,0,0-.5-.2.76.76,0,0,0-.36.09.41.41,0,0,0-.25.34.36.36,0,0,0,.13.26,45.53,45.53,0,0,1-6.53.86c-3.59.18-10.64-.55-11.46-.18a.62.62,0,0,0-.42.69,1,1,0,0,0,.19.65h7.1A74.33,74.33,0,0,0,181,159.41Z"/><path class="cls-33" d="M164.41,140.65l8.08.92S167.56,135.78,164.41,140.65Z"/><path class="cls-34" d="M164,140.32s-.44-3.39,2.07-5a8.25,8.25,0,0,1,5.16-1.15,18,18,0,0,0-3.38,2.12,3.83,3.83,0,0,1-.87-.78,1.54,1.54,0,0,0,.63,1s-2.86,2.75-2.93,4S164,140.32,164,140.32Z"/><polygon class="cls-33" points="156.06 139.85 164.37 141 160.57 138.35 156.06 139.85"/><path class="cls-34" d="M164.37,141a4.56,4.56,0,0,0-3.52-3,5.25,5.25,0,0,0-4.79,1.83,12.62,12.62,0,0,1,4.33,0,2.12,2.12,0,0,0,0-1.24s.29.15.39,1.23Z"/><path class="cls-34" d="M164.34,140.81l8.15.75S166.92,136.45,164.34,140.81Z"/><path class="cls-35" d="M165.47,159.71c-.53-.82.5-7.87.25-11.46a33.45,33.45,0,0,0-1.35-7c0-.26,0-.37.11-.41-.16,0-.48-.09-.39.41a33.46,33.46,0,0,1,1.35,7c.25,3.59-.78,10.64-.25,11.46a1,1,0,0,0,1,.42A.9.9,0,0,1,165.47,159.71Z"/><path class="cls-36" d="M167.09,152.85a53.41,53.41,0,0,0-1.09-8.33c-.54-2-1.15-3.65-1.15-3.65a.52.52,0,0,0-.36,0l.08,0s.62,1.61,1.15,3.65a53.42,53.42,0,0,1,1.09,8.33c0,1.31,0,7.1,0,7.1a2,2,0,0,1-.64.19,1.84,1.84,0,0,0,.92-.19S167.09,154.15,167.09,152.85Z"/><path class="cls-35" d="M166.81,152.85a53.42,53.42,0,0,0-1.09-8.33c-.54-2-1.15-3.65-1.15-3.65l-.08,0c-.09,0-.16.16-.11.41a33.45,33.45,0,0,1,1.35,7c.25,3.59-.78,10.64-.25,11.46a.9.9,0,0,0,.7.42,2,2,0,0,0,.64-.19S166.81,154.15,166.81,152.85Z"/><path class="cls-36" d="M164.28,140.79a.6.6,0,0,1,.13.36.61.61,0,0,1-.61.61.61.61,0,0,1-.41-.16.6.6,0,0,0,.48.25.61.61,0,0,0,.61-.61A.61.61,0,0,0,164.28,140.79Z"/><path class="cls-35" d="M164.41,141.15a.6.6,0,0,0-.13-.36.61.61,0,0,0-.41-.16.61.61,0,0,0-.61.61.6.6,0,0,0,.13.36.61.61,0,0,0,.41.16A.61.61,0,0,0,164.41,141.15Z"/><path class="cls-36" d="M165.25,140.6a.59.59,0,0,1,.13.36.61.61,0,0,1-.61.61.6.6,0,0,1-.4-.16.59.59,0,0,0,.48.25.61.61,0,0,0,.61-.61A.6.6,0,0,0,165.25,140.6Z"/><path class="cls-35" d="M165.38,141a.59.59,0,0,0-.13-.36.6.6,0,0,0-.4-.16.61.61,0,0,0-.61.61.59.59,0,0,0,.13.36.6.6,0,0,0,.4.16A.61.61,0,0,0,165.38,141Z"/><path class="cls-33" d="M164,140.32s-.82-2.92.95-4.46a7.31,7.31,0,0,1,6.28-1.65S165,133.52,164,140.32Z"/><g class="cls-37"><path class="cls-38" d="M164.36,142.49c.39.05.69-.22,1.09-.25h0a.84.84,0,0,1-.52.26,1.08,1.08,0,0,1-.58,0Z"/><path class="cls-38" d="M164.49,143.07c.39.05.69-.22,1.09-.25h0a.84.84,0,0,1-.52.26,1.09,1.09,0,0,1-.58,0Z"/><path class="cls-38" d="M164.71,143.65c.39.05.69-.22,1.09-.25h0a.84.84,0,0,1-.52.26,1.09,1.09,0,0,1-.58,0Z"/><path class="cls-38" d="M164.73,144.23c.45.07.81-.24,1.26-.28h0a1.06,1.06,0,0,1-.6.29,1.25,1.25,0,0,1-.67,0Z"/><path class="cls-38" d="M165,145c.45.07.81-.24,1.26-.28h0a1.06,1.06,0,0,1-.6.29,1.25,1.25,0,0,1-.67,0Z"/><path class="cls-38" d="M165.09,145.92c.45.07.81-.24,1.26-.28h0a1.06,1.06,0,0,1-.6.29,1.26,1.26,0,0,1-.67,0Z"/><path class="cls-38" d="M165.26,147c.45.08.81-.21,1.27-.24h0a1.06,1.06,0,0,1-.61.27,1.25,1.25,0,0,1-.67,0Z"/><path class="cls-38" d="M165.35,147.79c.44.09.82-.2,1.27-.22h0a1.06,1.06,0,0,1-.61.26,1.26,1.26,0,0,1-.67,0Z"/><path class="cls-38" d="M165.43,148.61c.44.09.82-.2,1.27-.22h0a1.06,1.06,0,0,1-.61.26,1.26,1.26,0,0,1-.67,0Z"/><path class="cls-38" d="M165.46,149.76c.5.1.94-.21,1.44-.25h0a1.31,1.31,0,0,1-.7.29,1.43,1.43,0,0,1-.75,0Z"/><path class="cls-38" d="M165.35,150.88a1.75,1.75,0,0,0,.82,0,4.46,4.46,0,0,1,.81-.19h0a1.59,1.59,0,0,1-.8.29,1.62,1.62,0,0,1-.85-.06Z"/><path class="cls-38" d="M165.37,152a2,2,0,0,0,.91,0,6.23,6.23,0,0,1,.91-.21h0a1.9,1.9,0,0,1-.89.32,1.81,1.81,0,0,1-.94-.06Z"/><path class="cls-38" d="M165.27,153.41a2,2,0,0,0,.95,0,7,7,0,0,1,.94-.22h0a2,2,0,0,1-.92.33,1.88,1.88,0,0,1-1-.06Z"/><path class="cls-38" d="M165.13,154.58a2.19,2.19,0,0,0,1,.09,9.38,9.38,0,0,1,1-.11h0a2.3,2.3,0,0,1-1,.22,2,2,0,0,1-1-.2Z"/><path class="cls-38" d="M165.06,156.24a2.41,2.41,0,0,0,1.14.11c.38-.05.76-.11,1.16-.13h0a2.69,2.69,0,0,1-1.15.24,2.27,2.27,0,0,1-1.15-.21Z"/><path class="cls-38" d="M164.84,157.92a2.65,2.65,0,0,0,1.25.12c.42-.06.83-.11,1.26-.14h0a3.1,3.1,0,0,1-1.26.25,2.51,2.51,0,0,1-1.26-.23Z"/></g><path class="cls-6" d="M121.62,118c.94-.18,1.76-.37,2.27-.49a.5.5,0,0,0,.42.19l.11,0-.51,3.88s4.23-2.56,1-4.29a11.1,11.1,0,0,1,2.9,1.58,1.36,1.36,0,0,1,.75-.35,2.55,2.55,0,0,0-.61.48,10.07,10.07,0,0,1,1.64,1.86s0-.05,0-.15a3.23,3.23,0,0,0-1.3-3.3,4.62,4.62,0,0,0-3.24-.55,2.74,2.74,0,0,0,1.57-1.68c.45-1.57-1.41-2.63-1.41-2.63a5,5,0,0,1,0,2.38,2.29,2.29,0,0,0,1,0s-.11.16-1,.21l-.68,1.53a.53.53,0,0,0-.39-.15.59.59,0,0,0-.28.07.32.32,0,0,0-.2.26.28.28,0,0,0,.1.2,35.26,35.26,0,0,1-5.06.66c-2.78.14-8.24-.43-8.88-.14a.48.48,0,0,0-.33.54.78.78,0,0,0,.15.5h5.5A57.57,57.57,0,0,0,121.62,118Z"/><path class="cls-33" d="M108.78,103.44l6.26.71S111.23,99.67,108.78,103.44Z"/><path class="cls-34" d="M108.44,103.19s-.34-2.63,1.6-3.84a6.39,6.39,0,0,1,4-.89,14,14,0,0,0-2.62,1.64,3,3,0,0,1-.68-.61,1.2,1.2,0,0,0,.49.75s-2.21,2.13-2.27,3.08S108.44,103.19,108.44,103.19Z"/><polygon class="cls-33" points="102.32 102.83 108.75 103.72 105.81 101.66 102.32 102.83"/><path class="cls-34" d="M108.76,103.72a3.54,3.54,0,0,0-2.73-2.31,4.07,4.07,0,0,0-3.71,1.41,9.77,9.77,0,0,1,3.36,0,1.64,1.64,0,0,0,0-1s.23.11.3,1Z"/><path class="cls-34" d="M108.73,103.57l6.31.58S110.73,100.19,108.73,103.57Z"/><path class="cls-35" d="M109.61,118.21c-.41-.63.39-6.09.19-8.88a25.91,25.91,0,0,0-1-5.42c0-.2,0-.29.09-.32-.12,0-.37-.07-.3.32a25.92,25.92,0,0,1,1,5.42c.19,2.78-.6,8.24-.19,8.88a.74.74,0,0,0,.76.33A.7.7,0,0,1,109.61,118.21Z"/><path class="cls-36" d="M110.86,112.89a41.37,41.37,0,0,0-.84-6.45c-.42-1.57-.89-2.82-.89-2.82a.4.4,0,0,0-.28,0l.07,0s.48,1.25.89,2.82a41.37,41.37,0,0,1,.84,6.45c0,1,0,5.5,0,5.5a1.55,1.55,0,0,1-.5.15,1.43,1.43,0,0,0,.71-.15S110.86,113.9,110.86,112.89Z"/><path class="cls-35" d="M110.64,112.89a41.37,41.37,0,0,0-.84-6.45c-.42-1.57-.89-2.82-.89-2.82l-.07,0c-.07,0-.12.12-.09.32a25.91,25.91,0,0,1,1,5.42c.19,2.78-.6,8.24-.19,8.88a.7.7,0,0,0,.54.33,1.55,1.55,0,0,0,.5-.15S110.64,113.9,110.64,112.89Z"/><path class="cls-36" d="M108.68,103.55a.46.46,0,0,1,.1.28.47.47,0,0,1-.47.47.47.47,0,0,1-.32-.13.47.47,0,0,0,.37.2.47.47,0,0,0,.47-.47A.47.47,0,0,0,108.68,103.55Z"/><path class="cls-35" d="M108.78,103.83a.46.46,0,0,0-.1-.28.47.47,0,0,0-.32-.13.47.47,0,0,0-.47.47.46.46,0,0,0,.1.28.47.47,0,0,0,.32.13A.47.47,0,0,0,108.78,103.83Z"/><path class="cls-36" d="M109.44,103.41a.46.46,0,0,1,.1.28.47.47,0,0,1-.47.47.46.46,0,0,1-.31-.12.46.46,0,0,0,.37.19.47.47,0,0,0,.47-.47A.46.46,0,0,0,109.44,103.41Z"/><path class="cls-35" d="M109.54,103.68a.46.46,0,0,0-.1-.28.46.46,0,0,0-.31-.12.47.47,0,0,0-.47.47.46.46,0,0,0,.1.28.46.46,0,0,0,.31.12A.47.47,0,0,0,109.54,103.68Z"/><path class="cls-33" d="M108.44,103.19s-.63-2.26.73-3.45A5.66,5.66,0,0,1,114,98.46,5.13,5.13,0,0,0,108.44,103.19Z"/><g class="cls-39"><path class="cls-38" d="M108.75,104.87c.3,0,.54-.17.85-.19h0a.68.68,0,0,1-.4.2.84.84,0,0,1-.45,0Z"/><path class="cls-38" d="M108.85,105.32c.3,0,.54-.17.85-.19h0a.68.68,0,0,1-.4.2.84.84,0,0,1-.45,0Z"/><path class="cls-38" d="M109,105.77c.3,0,.54-.17.85-.19h0a.68.68,0,0,1-.4.2.84.84,0,0,1-.45,0Z"/><path class="cls-38" d="M109,106.22c.35.05.62-.18,1-.22h0a.86.86,0,0,1-.47.22,1,1,0,0,1-.52,0Z"/><path class="cls-38" d="M109.21,106.82c.35.05.63-.18,1-.22h0a.86.86,0,0,1-.47.22,1,1,0,0,1-.52,0Z"/><path class="cls-38" d="M109.31,107.53c.35.05.63-.18,1-.22h0a.86.86,0,0,1-.47.22,1,1,0,0,1-.52,0Z"/><path class="cls-38" d="M109.44,108.34c.35.06.63-.16,1-.18h0a.86.86,0,0,1-.47.21,1,1,0,0,1-.52,0Z"/><path class="cls-38" d="M109.51,109c.34.07.63-.15,1-.17h0a.85.85,0,0,1-.48.2,1,1,0,0,1-.52,0Z"/><path class="cls-38" d="M109.58,109.61c.34.07.63-.15,1-.17h0a.86.86,0,0,1-.48.2,1,1,0,0,1-.52,0Z"/><path class="cls-38" d="M109.6,110.5c.39.08.72-.16,1.12-.2h0a1.05,1.05,0,0,1-.54.22,1.11,1.11,0,0,1-.58,0Z"/><path class="cls-38" d="M109.51,111.36c.43.1.83-.14,1.26-.18h0a1.28,1.28,0,0,1-.62.22,1.25,1.25,0,0,1-.65,0Z"/><path class="cls-38" d="M109.52,112.21c.48.12.93-.14,1.41-.2h0a1.53,1.53,0,0,1-.69.25,1.4,1.4,0,0,1-.73,0Z"/><path class="cls-38" d="M109.45,113.33c.5.12,1-.15,1.46-.21h0a1.61,1.61,0,0,1-.71.25,1.45,1.45,0,0,1-.76,0Z"/><path class="cls-38" d="M109.34,114.23a1.7,1.7,0,0,0,.8.07c.27,0,.53-.08.81-.09h0a1.84,1.84,0,0,1-.81.17,1.59,1.59,0,0,1-.81-.15Z"/><path class="cls-38" d="M109.29,115.52a1.86,1.86,0,0,0,.88.08c.3,0,.59-.09.9-.1h0a2.15,2.15,0,0,1-.89.18,1.76,1.76,0,0,1-.89-.17Z"/><path class="cls-38" d="M109.12,116.82a2.06,2.06,0,0,0,1,.1c.33,0,.64-.09,1-.11h0a2.48,2.48,0,0,1-1,.19,1.94,1.94,0,0,1-1-.18Z"/></g><path class="cls-6" d="M187.62,170.12c1.21-.23,2.27-.47,2.93-.64a.65.65,0,0,0,.55.25l.14,0-.65,5s5.46-3.3,1.3-5.54a14.33,14.33,0,0,1,3.75,2,1.75,1.75,0,0,1,1-.45,3.29,3.29,0,0,0-.78.62,13,13,0,0,1,2.12,2.4s0-.07,0-.19a4.17,4.17,0,0,0-1.68-4.26c-1.25-1-3.43-.82-4.18-.71a3.54,3.54,0,0,0,2-2.17c.58-2-1.83-3.39-1.83-3.39a6.39,6.39,0,0,1,0,3.07,3,3,0,0,0,1.24,0s-.15.21-1.23.28l-.88,2a.68.68,0,0,0-.5-.2.76.76,0,0,0-.36.09.41.41,0,0,0-.25.34.36.36,0,0,0,.13.26,45.53,45.53,0,0,1-6.53.86c-3.59.18-10.64-.55-11.46-.18a.62.62,0,0,0-.42.69,1,1,0,0,0,.19.65h7.1A74.33,74.33,0,0,0,187.62,170.12Z"/><path class="cls-33" d="M171.05,151.36l8.08.92S174.21,146.49,171.05,151.36Z"/><path class="cls-34" d="M170.61,151s-.44-3.39,2.07-5a8.25,8.25,0,0,1,5.16-1.15,18,18,0,0,0-3.38,2.12,3.83,3.83,0,0,1-.87-.78,1.54,1.54,0,0,0,.63,1s-2.86,2.75-2.93,4S170.61,151,170.61,151Z"/><polygon class="cls-33" points="162.71 150.56 171.01 151.71 167.21 149.06 162.71 150.56"/><path class="cls-34" d="M171,151.71a4.56,4.56,0,0,0-3.52-3,5.25,5.25,0,0,0-4.79,1.83,12.62,12.62,0,0,1,4.33,0,2.12,2.12,0,0,0,0-1.24s.29.15.39,1.23Z"/><path class="cls-34" d="M171,151.52l8.15.75S173.56,147.16,171,151.52Z"/><path class="cls-35" d="M172.11,170.42c-.53-.82.5-7.87.25-11.46a33.45,33.45,0,0,0-1.35-7c0-.26,0-.37.11-.41-.16,0-.48-.09-.39.41a33.46,33.46,0,0,1,1.35,7c.25,3.59-.78,10.64-.25,11.46a1,1,0,0,0,1,.42A.9.9,0,0,1,172.11,170.42Z"/><path class="cls-36" d="M173.73,163.56a53.41,53.41,0,0,0-1.09-8.33c-.54-2-1.15-3.65-1.15-3.65a.52.52,0,0,0-.36,0l.08,0s.62,1.61,1.15,3.65a53.42,53.42,0,0,1,1.09,8.33c0,1.31,0,7.1,0,7.1a2,2,0,0,1-.64.19,1.84,1.84,0,0,0,.92-.19S173.73,164.86,173.73,163.56Z"/><path class="cls-35" d="M173.45,163.56a53.42,53.42,0,0,0-1.09-8.33c-.54-2-1.15-3.65-1.15-3.65l-.08,0c-.09,0-.16.16-.11.41a33.45,33.45,0,0,1,1.35,7c.25,3.59-.78,10.64-.25,11.46a.9.9,0,0,0,.7.42,2,2,0,0,0,.64-.19S173.45,164.86,173.45,163.56Z"/><path class="cls-36" d="M170.92,151.5a.6.6,0,0,1,.13.36.61.61,0,0,1-.61.61.61.61,0,0,1-.41-.16.6.6,0,0,0,.48.25.61.61,0,0,0,.61-.61A.61.61,0,0,0,170.92,151.5Z"/><path class="cls-35" d="M171.05,151.86a.6.6,0,0,0-.13-.36.61.61,0,0,0-.41-.16.61.61,0,0,0-.61.61.6.6,0,0,0,.13.36.61.61,0,0,0,.41.16A.61.61,0,0,0,171.05,151.86Z"/><path class="cls-36" d="M171.89,151.31a.59.59,0,0,1,.13.36.61.61,0,0,1-.61.61.6.6,0,0,1-.4-.16.59.59,0,0,0,.48.25.61.61,0,0,0,.61-.61A.6.6,0,0,0,171.89,151.31Z"/><path class="cls-35" d="M172,151.67a.59.59,0,0,0-.13-.36.6.6,0,0,0-.4-.16.61.61,0,0,0-.61.61.59.59,0,0,0,.13.36.6.6,0,0,0,.4.16A.61.61,0,0,0,172,151.67Z"/><path class="cls-33" d="M170.61,151s-.82-2.92.95-4.46a7.31,7.31,0,0,1,6.28-1.65S171.66,144.23,170.61,151Z"/><g class="cls-40"><path class="cls-38" d="M171,153.2c.39.05.69-.22,1.09-.25h0a.84.84,0,0,1-.52.26,1.09,1.09,0,0,1-.58,0Z"/><path class="cls-38" d="M171.13,153.78c.39.05.69-.22,1.09-.25h0a.84.84,0,0,1-.52.26,1.08,1.08,0,0,1-.58,0Z"/><path class="cls-38" d="M171.35,154.36c.39.05.69-.22,1.09-.25h0a.84.84,0,0,1-.52.26,1.08,1.08,0,0,1-.58,0Z"/><path class="cls-38" d="M171.37,154.94c.45.07.81-.24,1.26-.28h0a1.06,1.06,0,0,1-.6.29,1.26,1.26,0,0,1-.67,0Z"/><path class="cls-38" d="M171.6,155.72c.45.07.81-.24,1.26-.28h0a1.06,1.06,0,0,1-.6.29,1.25,1.25,0,0,1-.67,0Z"/><path class="cls-38" d="M171.73,156.63c.45.07.81-.24,1.26-.28h0a1.06,1.06,0,0,1-.6.29,1.25,1.25,0,0,1-.67,0Z"/><path class="cls-38" d="M171.9,157.67c.45.08.81-.21,1.27-.24h0a1.06,1.06,0,0,1-.61.27,1.25,1.25,0,0,1-.67,0Z"/><path class="cls-38" d="M172,158.5c.44.09.82-.2,1.27-.22h0a1.06,1.06,0,0,1-.61.26,1.25,1.25,0,0,1-.67,0Z"/><path class="cls-38" d="M172.07,159.32c.44.09.82-.2,1.27-.22h0a1.06,1.06,0,0,1-.61.26,1.26,1.26,0,0,1-.67,0Z"/><path class="cls-38" d="M172.1,160.47c.5.1.94-.21,1.44-.25h0a1.31,1.31,0,0,1-.7.29,1.43,1.43,0,0,1-.75,0Z"/><path class="cls-38" d="M172,161.58a1.75,1.75,0,0,0,.82,0,4.46,4.46,0,0,1,.81-.19h0a1.59,1.59,0,0,1-.8.29,1.62,1.62,0,0,1-.85-.06Z"/><path class="cls-38" d="M172,162.68a2,2,0,0,0,.91,0,6.25,6.25,0,0,1,.91-.21h0a1.9,1.9,0,0,1-.89.32,1.81,1.81,0,0,1-.94-.06Z"/><path class="cls-38" d="M171.91,164.12a2,2,0,0,0,.95,0,7,7,0,0,1,.94-.22h0a2,2,0,0,1-.92.33,1.87,1.87,0,0,1-1-.06Z"/><path class="cls-38" d="M171.77,165.29a2.19,2.19,0,0,0,1,.09,9.39,9.39,0,0,1,1-.11h0a2.3,2.3,0,0,1-1,.22,2,2,0,0,1-1-.2Z"/><path class="cls-38" d="M171.7,167a2.41,2.41,0,0,0,1.14.11c.38-.05.76-.11,1.16-.13h0a2.69,2.69,0,0,1-1.15.24,2.27,2.27,0,0,1-1.15-.21Z"/><path class="cls-38" d="M171.48,168.63a2.65,2.65,0,0,0,1.25.12c.42-.06.83-.11,1.26-.14h0a3.1,3.1,0,0,1-1.26.25,2.51,2.51,0,0,1-1.26-.23Z"/></g><path class="cls-6" d="M180.54,176.24c1.32-.25,2.47-.51,3.19-.69a.71.71,0,0,0,.59.27l.15,0-.71,5.46s6-3.6,1.42-6c1.43.28,4.08,2.23,4.08,2.23a1.91,1.91,0,0,1,1.05-.49,3.59,3.59,0,0,0-.85.68,14.17,14.17,0,0,1,2.31,2.62s0-.08,0-.21A4.55,4.55,0,0,0,190,175.4c-1.37-1.11-3.73-.9-4.56-.78a3.86,3.86,0,0,0,2.21-2.36c.64-2.2-2-3.7-2-3.7a7,7,0,0,1,0,3.35,3.22,3.22,0,0,0,1.35,0s-.16.23-1.34.3l-1,2.15a.75.75,0,0,0-.55-.22.83.83,0,0,0-.39.1.45.45,0,0,0-.28.37.39.39,0,0,0,.14.28,49.63,49.63,0,0,1-7.12.94c-3.91.19-11.6-.6-12.49-.19a.67.67,0,0,0-.46.75,1.1,1.1,0,0,0,.21.71h7.74A81,81,0,0,0,180.54,176.24Z"/><path class="cls-33" d="M162.48,155.78l8.81,1S165.92,150.47,162.48,155.78Z"/><path class="cls-34" d="M162,155.43s-.48-3.7,2.25-5.4a9,9,0,0,1,5.62-1.25,19.64,19.64,0,0,0-3.69,2.31,4.18,4.18,0,0,1-1-.85,1.68,1.68,0,0,0,.69,1.05s-3.11,3-3.19,4.34S162,155.43,162,155.43Z"/><polygon class="cls-33" points="153.39 154.92 162.44 156.17 158.3 153.28 153.39 154.92"/><path class="cls-34" d="M162.44,156.17a5,5,0,0,0-3.84-3.24,5.72,5.72,0,0,0-5.22,2,13.75,13.75,0,0,1,4.72,0,2.31,2.31,0,0,0,0-1.35s.32.16.42,1.34Z"/><path class="cls-34" d="M162.4,156l8.89.82S165.21,151.2,162.4,156Z"/><path class="cls-35" d="M163.64,176.57c-.58-.89.54-8.58.27-12.49a36.46,36.46,0,0,0-1.47-7.63c-.05-.28,0-.4.12-.45-.17-.05-.52-.09-.42.45a36.48,36.48,0,0,1,1.47,7.63c.27,3.91-.85,11.6-.27,12.49a1,1,0,0,0,1.06.46A1,1,0,0,1,163.64,176.57Z"/><path class="cls-36" d="M165.4,169.08a58.22,58.22,0,0,0-1.19-9.07c-.58-2.22-1.26-4-1.26-4a.57.57,0,0,0-.39,0l.09,0s.67,1.76,1.26,4a58.23,58.23,0,0,1,1.19,9.07c0,1.43,0,7.74,0,7.74a2.19,2.19,0,0,1-.7.21,2,2,0,0,0,1-.21S165.4,170.51,165.4,169.08Z"/><path class="cls-35" d="M165.1,169.08a58.23,58.23,0,0,0-1.19-9.07c-.58-2.22-1.26-4-1.26-4l-.09,0c-.1,0-.17.17-.12.45a36.46,36.46,0,0,1,1.47,7.63c.27,3.91-.85,11.6-.27,12.49a1,1,0,0,0,.76.46,2.19,2.19,0,0,0,.7-.21S165.1,170.51,165.1,169.08Z"/><path class="cls-36" d="M162.34,155.94a.65.65,0,0,1,.14.39.67.67,0,0,1-.67.67.66.66,0,0,1-.44-.18.66.66,0,0,0,.53.28.67.67,0,0,0,.67-.67A.66.66,0,0,0,162.34,155.94Z"/><path class="cls-35" d="M162.48,156.33a.65.65,0,0,0-.14-.39.66.66,0,0,0-.44-.18.67.67,0,0,0-.67.67.65.65,0,0,0,.14.39.66.66,0,0,0,.44.18A.67.67,0,0,0,162.48,156.33Z"/><path class="cls-36" d="M163.4,155.73a.64.64,0,0,1,.14.39.66.66,0,0,1-.66.66.65.65,0,0,1-.44-.17.65.65,0,0,0,.52.27.66.66,0,0,0,.66-.66A.65.65,0,0,0,163.4,155.73Z"/><path class="cls-35" d="M163.54,156.12a.64.64,0,0,0-.14-.39.65.65,0,0,0-.44-.17.66.66,0,0,0-.66.66.65.65,0,0,0,.14.39.65.65,0,0,0,.44.17A.66.66,0,0,0,163.54,156.12Z"/><path class="cls-33" d="M162,155.43s-.89-3.18,1-4.86a8,8,0,0,1,6.84-1.8S163.15,148,162,155.43Z"/><g class="cls-41"><path class="cls-38" d="M162.43,157.79a1.34,1.34,0,0,0,.6-.1,1.73,1.73,0,0,1,.59-.17h0a.91.91,0,0,1-.57.28,1.18,1.18,0,0,1-.64,0Z"/><path class="cls-38" d="M162.57,158.42a1.34,1.34,0,0,0,.6-.1,1.73,1.73,0,0,1,.59-.17h0a.92.92,0,0,1-.57.28,1.18,1.18,0,0,1-.64,0Z"/><path class="cls-38" d="M162.81,159.06a1.33,1.33,0,0,0,.59-.1,1.74,1.74,0,0,1,.59-.17h0a.92.92,0,0,1-.57.28,1.18,1.18,0,0,1-.64,0Z"/><path class="cls-38" d="M162.83,159.69c.49.07.88-.26,1.37-.31h0a1.16,1.16,0,0,1-.66.31,1.37,1.37,0,0,1-.73,0Z"/><path class="cls-38" d="M163.08,160.54c.49.07.88-.26,1.37-.31h0a1.16,1.16,0,0,1-.66.31,1.37,1.37,0,0,1-.73,0Z"/><path class="cls-38" d="M163.23,161.53c.49.07.88-.26,1.37-.31h0a1.16,1.16,0,0,1-.65.31,1.37,1.37,0,0,1-.73,0Z"/><path class="cls-38" d="M163.41,162.67c.49.09.89-.23,1.38-.26h0a1.16,1.16,0,0,1-.67.29,1.37,1.37,0,0,1-.73,0Z"/><path class="cls-38" d="M163.51,163.56c.48.09.89-.22,1.38-.24v0a1.16,1.16,0,0,1-.67.28,1.37,1.37,0,0,1-.73,0Z"/><path class="cls-38" d="M163.6,164.46c.48.09.89-.22,1.38-.24h0a1.16,1.16,0,0,1-.67.28,1.37,1.37,0,0,1-.73,0Z"/><path class="cls-38" d="M163.63,165.71a1.71,1.71,0,0,0,.79-.07,3.47,3.47,0,0,1,.78-.2h0a1.43,1.43,0,0,1-.76.31,1.56,1.56,0,0,1-.82,0Z"/><path class="cls-38" d="M163.51,166.93a1.91,1.91,0,0,0,.89,0,4.85,4.85,0,0,1,.89-.2v0a1.73,1.73,0,0,1-.87.32,1.76,1.76,0,0,1-.92-.07Z"/><path class="cls-38" d="M163.52,168.13a2.13,2.13,0,0,0,1,0,6.81,6.81,0,0,1,1-.23v0a2.07,2.07,0,0,1-1,.35,2,2,0,0,1-1-.07Z"/><path class="cls-38" d="M163.42,169.69a2.2,2.2,0,0,0,1,0,7.6,7.6,0,0,1,1-.24v0a2.19,2.19,0,0,1-1,.36,2,2,0,0,1-1.06-.07Z"/><path class="cls-38" d="M163.27,171a2.39,2.39,0,0,0,1.12.1,10.25,10.25,0,0,1,1.14-.12v0a2.51,2.51,0,0,1-1.14.24,2.24,2.24,0,0,1-1.14-.22Z"/><path class="cls-38" d="M163.19,172.78a2.62,2.62,0,0,0,1.24.12c.42-.06.83-.12,1.26-.14v0a2.93,2.93,0,0,1-1.26.26,2.47,2.47,0,0,1-1.26-.23Z"/><path class="cls-38" d="M163,174.61a2.89,2.89,0,0,0,1.36.14c.46-.06.91-.12,1.38-.16v0a3.38,3.38,0,0,1-1.37.27,2.74,2.74,0,0,1-1.37-.25Z"/></g><path class="cls-42" d="M72.51,145s11-4.29,11.34-6.95a2.26,2.26,0,0,0-2.32-2.67s8.66-1.63,15.93,11.71S72.51,145,72.51,145Z"/><path class="cls-43" d="M101.68,194.29s6.46-2.52,6.66-4.08a1.33,1.33,0,0,0-1.36-1.57s5.09-1,9.36,6.88S101.68,194.29,101.68,194.29Z"/><path class="cls-44" d="M58,170.68s8.67-3.38,8.94-5.47a1.78,1.78,0,0,0-1.83-2.1s6.82-1.29,12.55,9.22S58,170.68,58,170.68Z"/><path class="cls-45" d="M37,159.21s6.46-2.52,6.66-4.08a1.33,1.33,0,0,0-1.36-1.57s5.09-1,9.36,6.88S37,159.21,37,159.21Z"/><path class="cls-46" d="M97.62,164.45s6.46-2.52,6.66-4.08a1.33,1.33,0,0,0-1.36-1.57s5.09-1,9.36,6.88S97.62,164.45,97.62,164.45Z"/><path class="cls-47" d="M119.1,148.42s6.46-2.52,6.66-4.08a1.33,1.33,0,0,0-1.36-1.57s5.09-1,9.36,6.88S119.1,148.42,119.1,148.42Z"/><path class="cls-48" d="M124.88,174.15s7.21-2.81,7.43-4.55a1.48,1.48,0,0,0-1.52-1.75s5.68-1.07,10.44,7.68S124.88,174.15,124.88,174.15Z"/><path class="cls-49" d="M100.29,145.65a13.4,13.4,0,0,1,6.81,1.77c3.69,2.24,7.66,7.78,7.73,7.87-.22,0-7-1.06-10.61-3.29a13.4,13.4,0,0,1-5.13-6.28A9.28,9.28,0,0,1,100.29,145.65Z"/><g class="cls-27"><path class="cls-4" d="M114.83,155.29h0a1.16,1.16,0,0,1-1.37,1.14c-2.2-.42-6.55-1.41-9.23-3.05a13.13,13.13,0,0,1-4.69-5.29,4.19,4.19,0,0,1-.44-1.87v-.5a13.4,13.4,0,0,0,5.13,6.28C107.87,154.23,114.61,155.26,114.83,155.29Z"/><g class="cls-50"><g class="cls-27"><path class="cls-4" d="M114.83,155.29h0a1.16,1.16,0,0,1-1.37,1.14c-2.2-.42-6.55-1.41-9.23-3.05a13,13,0,0,1-4.54-5,5.08,5.08,0,0,1-.59-2.37v-.28a13.4,13.4,0,0,0,5.13,6.28c3.65,2.23,10.39,3.26,10.61,3.29"/></g></g></g><path class="cls-29" d="M105.75,149.78a.16.16,0,0,1-.16-.16V133.46a.16.16,0,0,1,.32,0v16.16A.16.16,0,0,1,105.75,149.78Z"/><path class="cls-30" d="M106.23,133.46s6.1,8.65,5.43,15.25l-5.43-3.27s.92-1,0-3.48A16,16,0,0,0,106.23,133.46Z"/><polygon class="cls-10" points="451.59 164.56 451.59 188.31 347.7 249.18 347.88 224.69 451.59 164.56"/><path class="cls-11" d="M341.26,123.14c-2.06.55,4.06.74,4.06.74a22.43,22.43,0,0,0,8.17-6.42c3.25-4.33-.56-2.39-.56-2.39A22.11,22.11,0,0,1,341.26,123.14Z"/><polygon class="cls-12" points="347.77 104.14 451.66 164.52 347.96 224.65 243.98 164.41 347.77 104.14"/><path class="cls-31" d="M363.82,113.47s2.75,6-1.23,10.4-16.37,9.86-23.22,10.25-15.92,1.72-20.12,9.46-5.31,15.53-6,20.81-3.24,7.27-2.84,11.47,6,7.52,6.2,13.93-2.14,15.45-2.14,15.45L300.31,197l-5.41-24.55,13.4-36.22,27.31-15.77L357.82,110Z"/><path class="cls-13" d="M360.55,111.57s1,8.59-2.29,10.79-9.38,6-15.44,6.48-15.14,1-22.47,7.43a34.84,34.84,0,0,0-10.86,20.34c-.76,5-1.77,14.08-3.79,15.88s-2.25,4.13,1.15,8.52,6.68,7.67,6.68,13.61-2,8.92-2,8.92L293.15,178.4l10.17-44.78L336.61,119l21.21-9Z"/><path class="cls-32" d="M357.82,110s2.18,7.79-3.19,12.39-24.56.47-37.68,15.34-7.73,23.13-13.94,32.63.31,9.5,4.69,16.52,3.82,16.68,3.82,16.68L244,164.4l103.8-60.26Z"/><path class="cls-13" d="M308.3,133.07c0,2,.64,4.16,3.87,2.76s3.81-7.09,7.51-7.35,6.47-3.35,4.76-4.42-10.47,3-11.08,4.45S308.3,133.07,308.3,133.07Z"/><path class="cls-13" d="M294.9,172.49a12.54,12.54,0,0,0,4.67-5.5c1.09-2.58,5-10.48,4.28-11.47s-.3-5.49-1.15-6.24-.65,4.19-2.26,8.83-1.5,7.33-3.61,7.83S294.9,172.49,294.9,172.49Z"/><path class="cls-13" d="M335.61,120.5c3.32.45,12.49-3.14,12.2-5.14s-.9-.61-4.91-2.6-3.67,5.79-6.29,6.23S335.61,120.5,335.61,120.5Z"/><path class="cls-6" d="M291.32,175.95c1.21-.23,2.27-.47,2.93-.64a.65.65,0,0,0,.55.25l.14,0-.65,5s5.46-3.3,1.3-5.54a14.33,14.33,0,0,1,3.75,2,1.75,1.75,0,0,1,1-.45,3.29,3.29,0,0,0-.78.62,13,13,0,0,1,2.12,2.4s0-.07,0-.19a4.17,4.17,0,0,0-1.68-4.26c-1.25-1-3.43-.82-4.18-.71a3.54,3.54,0,0,0,2-2.17c.58-2-1.83-3.39-1.83-3.39a6.39,6.39,0,0,1,0,3.07,3,3,0,0,0,1.24,0s-.15.21-1.23.28l-.88,2a.68.68,0,0,0-.5-.2.76.76,0,0,0-.36.09.41.41,0,0,0-.25.34.36.36,0,0,0,.13.26,45.53,45.53,0,0,1-6.53.86c-3.59.18-10.64-.55-11.46-.18a.62.62,0,0,0-.42.69,1,1,0,0,0,.19.65H283A74.33,74.33,0,0,0,291.32,175.95Z"/><path class="cls-6" d="M302,180.51c1.21-.23,2.27-.47,2.93-.64a.65.65,0,0,0,.55.25l.14,0-.65,5s5.46-3.3,1.3-5.54a14.33,14.33,0,0,1,3.75,2,1.75,1.75,0,0,1,1-.45,3.29,3.29,0,0,0-.78.62,13,13,0,0,1,2.12,2.4s0-.07,0-.19a4.17,4.17,0,0,0-1.68-4.26c-1.25-1-3.43-.82-4.18-.71a3.54,3.54,0,0,0,2-2.17c.58-2-1.83-3.39-1.83-3.39a6.39,6.39,0,0,1,0,3.07,3,3,0,0,0,1.24,0s-.15.21-1.23.28l-.88,2a.68.68,0,0,0-.5-.2.76.76,0,0,0-.36.09.41.41,0,0,0-.25.34.36.36,0,0,0,.13.26,45.53,45.53,0,0,1-6.53.86c-3.59.18-10.64-.55-11.46-.18a.62.62,0,0,0-.42.69,1,1,0,0,0,.19.65h7.1A74.33,74.33,0,0,0,302,180.51Z"/><path class="cls-13" d="M341.26,123.14c-2.06.55,4.06.74,4.06.74a22.43,22.43,0,0,0,8.17-6.42c3.25-4.33-.56-2.39-.56-2.39A22.11,22.11,0,0,1,341.26,123.14Z"/><path class="cls-6" d="M301.61,164.3c1.21-.23,2.27-.47,2.93-.64a.65.65,0,0,0,.55.25l.14,0-.65,5s5.46-3.3,1.3-5.54a14.33,14.33,0,0,1,3.75,2,1.75,1.75,0,0,1,1-.45,3.29,3.29,0,0,0-.78.62,13,13,0,0,1,2.12,2.4s0-.07,0-.19a4.17,4.17,0,0,0-1.68-4.26c-1.25-1-3.43-.82-4.18-.71a3.54,3.54,0,0,0,2-2.17c.58-2-1.83-3.39-1.83-3.39a6.39,6.39,0,0,1,0,3.07,3,3,0,0,0,1.24,0s-.15.21-1.23.28l-.88,2a.68.68,0,0,0-.5-.2.76.76,0,0,0-.36.09.41.41,0,0,0-.25.34.36.36,0,0,0,.13.26,45.53,45.53,0,0,1-6.53.86c-3.59.18-10.64-.55-11.46-.18a.62.62,0,0,0-.42.69,1,1,0,0,0,.19.65h7.1A74.33,74.33,0,0,0,301.61,164.3Z"/><path class="cls-6" d="M348.47,119c1.21-.23,2.27-.47,2.93-.64a.65.65,0,0,0,.55.25l.14,0-.65,5s5.46-3.3,1.3-5.54a14.33,14.33,0,0,1,3.75,2,1.75,1.75,0,0,1,1-.45,3.29,3.29,0,0,0-.78.62,13,13,0,0,1,2.12,2.4s0-.07,0-.19a4.17,4.17,0,0,0-1.68-4.26c-1.25-1-3.43-.82-4.18-.71a3.54,3.54,0,0,0,2-2.17c.58-2-1.83-3.39-1.83-3.39a6.39,6.39,0,0,1,0,3.07,3,3,0,0,0,1.24,0s-.15.21-1.23.28l-.88,2a.68.68,0,0,0-.5-.2.76.76,0,0,0-.36.09.41.41,0,0,0-.25.34.36.36,0,0,0,.13.26,45.53,45.53,0,0,1-6.53.86c-3.59.18-10.64-.55-11.46-.18a.62.62,0,0,0-.42.69,1,1,0,0,0,.19.65h7.1A74.33,74.33,0,0,0,348.47,119Z"/><path class="cls-13" d="M295.57,181.38c-.45,1.32,0,2.39,1.18,4s4.63,7.54,5.27,8.18c2,2.05,3.94.47,4.72.22s-2.4-1.93-4.73-4.63-3.17-3.4-3.61-5.11C298,182.53,296,180.07,295.57,181.38Z"/><path class="cls-33" d="M288.38,145.59l-8.08.92S285.23,140.72,288.38,145.59Z"/><path class="cls-34" d="M288.83,145.26s.44-3.39-2.07-5a8.25,8.25,0,0,0-5.16-1.15,18,18,0,0,1,3.38,2.12,3.83,3.83,0,0,0,.87-.78,1.54,1.54,0,0,1-.63,1s2.86,2.75,2.93,4S288.83,145.26,288.83,145.26Z"/><polygon class="cls-33" points="296.73 144.79 288.42 145.94 292.22 143.29 296.73 144.79"/><path class="cls-34" d="M288.42,145.94a4.56,4.56,0,0,1,3.52-3,5.25,5.25,0,0,1,4.79,1.83,12.62,12.62,0,0,0-4.33,0,2.12,2.12,0,0,1,0-1.24s-.29.15-.39,1.23Z"/><path class="cls-34" d="M288.46,145.75l-8.15.75S285.88,141.39,288.46,145.75Z"/><path class="cls-35" d="M287.32,164.65c.53-.82-.5-7.87-.25-11.46a33.45,33.45,0,0,1,1.35-7c0-.26,0-.37-.11-.41.16,0,.48-.09.39.41a33.46,33.46,0,0,0-1.35,7c-.25,3.59.78,10.64.25,11.46a1,1,0,0,1-1,.42A.9.9,0,0,0,287.32,164.65Z"/><path class="cls-36" d="M285.71,157.79a53.41,53.41,0,0,1,1.09-8.33c.54-2,1.15-3.65,1.15-3.65a.52.52,0,0,1,.36,0l-.08,0s-.62,1.61-1.15,3.65a53.42,53.42,0,0,0-1.09,8.33c0,1.31,0,7.1,0,7.1a2,2,0,0,0,.64.19,1.84,1.84,0,0,1-.92-.19S285.71,159.09,285.71,157.79Z"/><path class="cls-35" d="M286,157.79a53.42,53.42,0,0,1,1.09-8.33c.54-2,1.15-3.65,1.15-3.65l.08,0c.09,0,.16.16.11.41a33.45,33.45,0,0,0-1.35,7c-.25,3.59.78,10.64.25,11.46a.9.9,0,0,1-.7.42,2,2,0,0,1-.64-.19S286,159.09,286,157.79Z"/><path class="cls-36" d="M288.51,145.73a.6.6,0,0,0-.13.36.61.61,0,0,0,.61.61.61.61,0,0,0,.41-.16.6.6,0,0,1-.48.25.61.61,0,0,1-.61-.61A.61.61,0,0,1,288.51,145.73Z"/><path class="cls-35" d="M288.38,146.09a.6.6,0,0,1,.13-.36.61.61,0,0,1,.41-.16.61.61,0,0,1,.61.61.6.6,0,0,1-.13.36.61.61,0,0,1-.41.16A.61.61,0,0,1,288.38,146.09Z"/><path class="cls-36" d="M287.54,145.54a.59.59,0,0,0-.13.36.61.61,0,0,0,.61.61.6.6,0,0,0,.4-.16.59.59,0,0,1-.48.25.61.61,0,0,1-.61-.61A.6.6,0,0,1,287.54,145.54Z"/><path class="cls-35" d="M287.41,145.9a.59.59,0,0,1,.13-.36.6.6,0,0,1,.4-.16.61.61,0,0,1,.61.61.59.59,0,0,1-.13.36.6.6,0,0,1-.4.16A.61.61,0,0,1,287.41,145.9Z"/><path class="cls-33" d="M288.83,145.26s.82-2.92-.95-4.46a7.31,7.31,0,0,0-6.28-1.65S287.77,138.46,288.83,145.26Z"/><g class="cls-51"><path class="cls-38" d="M288.44,147.44a1.08,1.08,0,0,1-.58,0,.84.84,0,0,1-.52-.26h0c.4,0,.7.3,1.09.25Z"/><path class="cls-38" d="M288.31,148a1.09,1.09,0,0,1-.58,0,.84.84,0,0,1-.52-.26h0c.4,0,.7.3,1.09.25Z"/><path class="cls-38" d="M288.09,148.6a1.09,1.09,0,0,1-.58,0,.84.84,0,0,1-.52-.26h0c.4,0,.7.3,1.09.25Z"/><path class="cls-38" d="M288.07,149.18a1.25,1.25,0,0,1-.67,0,1.06,1.06,0,0,1-.6-.29h0c.45,0,.81.35,1.26.28Z"/><path class="cls-38" d="M287.84,150a1.25,1.25,0,0,1-.67,0,1.06,1.06,0,0,1-.6-.29h0c.45,0,.81.35,1.26.28Z"/><path class="cls-38" d="M287.71,150.88a1.26,1.26,0,0,1-.67,0,1.06,1.06,0,0,1-.6-.29h0c.45,0,.81.35,1.26.28Z"/><path class="cls-38" d="M287.54,151.92a1.26,1.26,0,0,1-.67,0,1.06,1.06,0,0,1-.61-.27h0c.45,0,.82.32,1.27.24Z"/><path class="cls-38" d="M287.45,152.74a1.26,1.26,0,0,1-.67,0,1.06,1.06,0,0,1-.61-.26h0c.45,0,.82.31,1.27.22Z"/><path class="cls-38" d="M287.37,153.56a1.25,1.25,0,0,1-.67,0,1.06,1.06,0,0,1-.61-.26h0c.45,0,.82.31,1.27.22Z"/><path class="cls-38" d="M287.34,154.71a1.43,1.43,0,0,1-.75,0,1.31,1.31,0,0,1-.7-.29h0c.51,0,.94.35,1.44.25Z"/><path class="cls-38" d="M287.45,155.83a1.62,1.62,0,0,1-.85.06,1.59,1.59,0,0,1-.8-.29h0a4.45,4.45,0,0,1,.81.19,1.76,1.76,0,0,0,.82,0Z"/><path class="cls-38" d="M287.43,156.92a1.81,1.81,0,0,1-.94.06,1.9,1.9,0,0,1-.89-.32h0a6.26,6.26,0,0,1,.91.21,2,2,0,0,0,.91,0Z"/><path class="cls-38" d="M287.53,158.36a1.88,1.88,0,0,1-1,.06,2,2,0,0,1-.92-.33h0a7,7,0,0,1,.94.22,2,2,0,0,0,.95,0Z"/><path class="cls-38" d="M287.67,159.53a2,2,0,0,1-1,.2,2.3,2.3,0,0,1-1-.22h0a9.39,9.39,0,0,1,1,.11,2.19,2.19,0,0,0,1-.09Z"/><path class="cls-38" d="M287.74,161.19a2.27,2.27,0,0,1-1.15.21,2.69,2.69,0,0,1-1.15-.24h0c.4,0,.77.08,1.16.13a2.41,2.41,0,0,0,1.14-.11Z"/><path class="cls-38" d="M288,162.87a2.51,2.51,0,0,1-1.26.23,3.1,3.1,0,0,1-1.26-.25h0c.43,0,.85.09,1.26.14a2.65,2.65,0,0,0,1.24-.12Z"/></g><path class="cls-33" d="M334.38,104.64l-6.26.71S331.94,100.87,334.38,104.64Z"/><path class="cls-34" d="M334.73,104.39s.34-2.63-1.6-3.84a6.39,6.39,0,0,0-4-.89,14,14,0,0,1,2.62,1.64,3,3,0,0,0,.68-.61,1.2,1.2,0,0,1-.49.75s2.21,2.13,2.27,3.08S334.73,104.39,334.73,104.39Z"/><polygon class="cls-33" points="340.85 104.02 334.41 104.92 337.36 102.86 340.85 104.02"/><path class="cls-34" d="M334.41,104.92a3.54,3.54,0,0,1,2.73-2.31,4.07,4.07,0,0,1,3.71,1.41,9.77,9.77,0,0,0-3.36,0,1.64,1.64,0,0,1,0-1s-.23.11-.3,1Z"/><path class="cls-34" d="M334.44,104.77l-6.31.58S332.44,101.39,334.44,104.77Z"/><path class="cls-35" d="M333.56,119.41c.41-.63-.39-6.09-.19-8.88a25.91,25.91,0,0,1,1-5.42c0-.2,0-.29-.09-.32.12,0,.37-.07.3.32a25.92,25.92,0,0,0-1,5.42c-.19,2.78.6,8.24.19,8.88a.74.74,0,0,1-.76.33A.7.7,0,0,0,333.56,119.41Z"/><path class="cls-36" d="M332.31,114.09a41.37,41.37,0,0,1,.84-6.45c.42-1.57.89-2.82.89-2.82a.4.4,0,0,1,.28,0l-.07,0s-.48,1.25-.89,2.82a41.37,41.37,0,0,0-.84,6.45c0,1,0,5.5,0,5.5a1.55,1.55,0,0,0,.5.15,1.43,1.43,0,0,1-.71-.15S332.31,115.1,332.31,114.09Z"/><path class="cls-35" d="M332.52,114.09a41.37,41.37,0,0,1,.84-6.45c.42-1.57.89-2.82.89-2.82l.07,0c.07,0,.12.12.09.32a25.91,25.91,0,0,0-1,5.42c-.19,2.78.6,8.24.19,8.88a.7.7,0,0,1-.54.33,1.55,1.55,0,0,1-.5-.15S332.53,115.1,332.52,114.09Z"/><path class="cls-36" d="M334.49,104.75a.46.46,0,0,0-.1.28.47.47,0,0,0,.47.47.47.47,0,0,0,.32-.13.47.47,0,0,1-.37.2.47.47,0,0,1-.47-.47A.47.47,0,0,1,334.49,104.75Z"/><path class="cls-35" d="M334.38,105a.46.46,0,0,1,.1-.28.47.47,0,0,1,.32-.13.47.47,0,0,1,.47.47.46.46,0,0,1-.1.28.47.47,0,0,1-.32.13A.47.47,0,0,1,334.38,105Z"/><path class="cls-36" d="M333.73,104.61a.46.46,0,0,0-.1.28.47.47,0,0,0,.47.47.46.46,0,0,0,.31-.12.46.46,0,0,1-.37.19.47.47,0,0,1-.47-.47A.46.46,0,0,1,333.73,104.61Z"/><path class="cls-35" d="M333.63,104.88a.46.46,0,0,1,.1-.28.46.46,0,0,1,.31-.12.47.47,0,0,1,.47.47.46.46,0,0,1-.1.28.46.46,0,0,1-.31.12A.47.47,0,0,1,333.63,104.88Z"/><path class="cls-33" d="M334.73,104.39s.63-2.26-.73-3.45a5.66,5.66,0,0,0-4.86-1.28A5.13,5.13,0,0,1,334.73,104.39Z"/><g class="cls-52"><path class="cls-38" d="M334.43,106.07a.84.84,0,0,1-.45,0,.68.68,0,0,1-.4-.2h0c.31,0,.54.23.85.19Z"/><path class="cls-38" d="M334.33,106.53a.84.84,0,0,1-.45,0,.68.68,0,0,1-.4-.2h0c.31,0,.54.23.85.19Z"/><path class="cls-38" d="M334.15,107a.84.84,0,0,1-.45,0,.68.68,0,0,1-.4-.2h0c.31,0,.54.23.85.19Z"/><path class="cls-38" d="M334.14,107.43a1,1,0,0,1-.52,0,.85.85,0,0,1-.47-.22h0c.35,0,.63.27,1,.22Z"/><path class="cls-38" d="M334,108a1,1,0,0,1-.52,0,.86.86,0,0,1-.47-.22h0c.35,0,.63.27,1,.22Z"/><path class="cls-38" d="M333.86,108.74a1,1,0,0,1-.52,0,.86.86,0,0,1-.47-.22h0c.35,0,.63.27,1,.22Z"/><path class="cls-38" d="M333.73,109.54a1,1,0,0,1-.52,0,.85.85,0,0,1-.47-.21h0c.35,0,.64.25,1,.18Z"/><path class="cls-38" d="M333.66,110.18a1,1,0,0,1-.52,0,.86.86,0,0,1-.48-.2h0c.35,0,.64.24,1,.17Z"/><path class="cls-38" d="M333.6,110.82a1,1,0,0,1-.52,0,.85.85,0,0,1-.48-.2h0c.35,0,.64.24,1,.17Z"/><path class="cls-38" d="M333.58,111.71a1.11,1.11,0,0,1-.58,0,1.05,1.05,0,0,1-.54-.22h0c.39,0,.73.27,1.12.2Z"/><path class="cls-38" d="M333.66,112.57a1.25,1.25,0,0,1-.65,0,1.27,1.27,0,0,1-.62-.22h0c.44,0,.83.28,1.26.18Z"/><path class="cls-38" d="M333.65,113.42a1.4,1.4,0,0,1-.73,0,1.52,1.52,0,0,1-.69-.25h0c.48.05.93.32,1.41.2Z"/><path class="cls-38" d="M333.72,114.54a1.45,1.45,0,0,1-.76,0,1.61,1.61,0,0,1-.71-.25h0c.5.06,1,.33,1.46.21Z"/><path class="cls-38" d="M333.83,115.44a1.59,1.59,0,0,1-.81.15,1.85,1.85,0,0,1-.81-.17h0c.28,0,.54.06.81.09a1.7,1.7,0,0,0,.8-.07Z"/><path class="cls-38" d="M333.89,116.73a1.76,1.76,0,0,1-.89.17,2.15,2.15,0,0,1-.89-.18h0c.31,0,.6.07.9.1a1.86,1.86,0,0,0,.88-.08Z"/><path class="cls-38" d="M334.06,118a1.94,1.94,0,0,1-1,.18,2.48,2.48,0,0,1-1-.19h0c.33,0,.65.08,1,.11a2.06,2.06,0,0,0,1-.1Z"/></g><path class="cls-33" d="M277.84,157.17l-8.08.92S274.69,152.31,277.84,157.17Z"/><path class="cls-34" d="M278.29,156.85s.44-3.39-2.07-5a8.25,8.25,0,0,0-5.16-1.15,18,18,0,0,1,3.38,2.12,3.83,3.83,0,0,0,.87-.78,1.54,1.54,0,0,1-.63,1s2.86,2.75,2.93,4S278.29,156.85,278.29,156.85Z"/><polygon class="cls-33" points="286.19 156.38 277.88 157.53 281.68 154.88 286.19 156.38"/><path class="cls-34" d="M277.88,157.53a4.56,4.56,0,0,1,3.52-3,5.25,5.25,0,0,1,4.79,1.83,12.62,12.62,0,0,0-4.33,0,2.12,2.12,0,0,1,0-1.24s-.29.15-.39,1.23Z"/><path class="cls-34" d="M277.92,157.34l-8.15.75S275.34,153,277.92,157.34Z"/><path class="cls-35" d="M276.78,176.24c.53-.82-.5-7.87-.25-11.46a33.45,33.45,0,0,1,1.35-7c0-.26,0-.37-.11-.41.16,0,.48-.09.39.41a33.46,33.46,0,0,0-1.35,7c-.25,3.59.78,10.64.25,11.46a1,1,0,0,1-1,.42A.9.9,0,0,0,276.78,176.24Z"/><path class="cls-36" d="M275.17,169.38a53.41,53.41,0,0,1,1.09-8.33c.54-2,1.15-3.65,1.15-3.65a.52.52,0,0,1,.36,0l-.08,0s-.62,1.61-1.15,3.65a53.42,53.42,0,0,0-1.09,8.33c0,1.31,0,7.1,0,7.1a2,2,0,0,0,.64.19,1.84,1.84,0,0,1-.92-.19S275.17,170.68,275.17,169.38Z"/><path class="cls-35" d="M275.44,169.38a53.42,53.42,0,0,1,1.09-8.33c.54-2,1.15-3.65,1.15-3.65l.08,0c.09,0,.16.16.11.41a33.45,33.45,0,0,0-1.35,7c-.25,3.59.78,10.64.25,11.46a.9.9,0,0,1-.7.42,2,2,0,0,1-.64-.19S275.44,170.68,275.44,169.38Z"/><path class="cls-36" d="M278,157.32a.6.6,0,0,0-.13.36.61.61,0,0,0,.61.61.61.61,0,0,0,.41-.16.6.6,0,0,1-.48.25.61.61,0,0,1-.61-.61A.61.61,0,0,1,278,157.32Z"/><path class="cls-35" d="M277.84,157.68a.6.6,0,0,1,.13-.36.61.61,0,0,1,.41-.16.61.61,0,0,1,.61.61.6.6,0,0,1-.13.36.61.61,0,0,1-.41.16A.61.61,0,0,1,277.84,157.68Z"/><path class="cls-36" d="M277,157.13a.59.59,0,0,0-.13.36.61.61,0,0,0,.61.61.6.6,0,0,0,.4-.16.59.59,0,0,1-.48.25.61.61,0,0,1-.61-.61A.6.6,0,0,1,277,157.13Z"/><path class="cls-35" d="M276.87,157.49a.59.59,0,0,1,.13-.36.6.6,0,0,1,.4-.16.61.61,0,0,1,.61.61.59.59,0,0,1-.13.36.6.6,0,0,1-.4.16A.61.61,0,0,1,276.87,157.49Z"/><path class="cls-33" d="M278.29,156.85s.82-2.92-.95-4.46a7.31,7.31,0,0,0-6.28-1.65S277.23,150.05,278.29,156.85Z"/><g class="cls-53"><path class="cls-38" d="M277.9,159a1.08,1.08,0,0,1-.58,0,.84.84,0,0,1-.52-.26h0c.4,0,.7.3,1.09.25Z"/><path class="cls-38" d="M277.77,159.61a1.08,1.08,0,0,1-.58,0,.84.84,0,0,1-.52-.26h0c.4,0,.7.3,1.09.25Z"/><path class="cls-38" d="M277.55,160.19a1.09,1.09,0,0,1-.58,0,.84.84,0,0,1-.52-.26h0c.4,0,.7.3,1.09.25Z"/><path class="cls-38" d="M277.53,160.77a1.26,1.26,0,0,1-.67,0,1.06,1.06,0,0,1-.6-.29h0c.45,0,.81.35,1.26.28Z"/><path class="cls-38" d="M277.31,161.56a1.26,1.26,0,0,1-.67,0,1.06,1.06,0,0,1-.6-.29h0c.45,0,.81.35,1.26.28Z"/><path class="cls-38" d="M277.17,162.47a1.25,1.25,0,0,1-.67,0,1.06,1.06,0,0,1-.6-.29h0c.45,0,.81.35,1.26.28Z"/><path class="cls-38" d="M277,163.51a1.26,1.26,0,0,1-.67,0,1.06,1.06,0,0,1-.61-.27h0c.45,0,.82.32,1.27.24Z"/><path class="cls-38" d="M276.91,164.33a1.26,1.26,0,0,1-.67,0,1.06,1.06,0,0,1-.61-.26h0c.45,0,.82.31,1.27.22Z"/><path class="cls-38" d="M276.83,165.15a1.26,1.26,0,0,1-.67,0,1.06,1.06,0,0,1-.61-.26h0c.45,0,.82.31,1.27.22Z"/><path class="cls-38" d="M276.8,166.3a1.43,1.43,0,0,1-.75,0,1.31,1.31,0,0,1-.7-.29h0c.51,0,.94.35,1.44.25Z"/><path class="cls-38" d="M276.91,167.42a1.62,1.62,0,0,1-.85.06,1.58,1.58,0,0,1-.8-.29h0a4.44,4.44,0,0,1,.81.19,1.76,1.76,0,0,0,.82,0Z"/><path class="cls-38" d="M276.9,168.51a1.81,1.81,0,0,1-.94.06,1.9,1.9,0,0,1-.89-.32h0a6.25,6.25,0,0,1,.91.21,2,2,0,0,0,.91,0Z"/><path class="cls-38" d="M277,170a1.88,1.88,0,0,1-1,.06,2,2,0,0,1-.92-.33h0a7,7,0,0,1,.94.22,2,2,0,0,0,.95,0Z"/><path class="cls-38" d="M277.13,171.12a2.05,2.05,0,0,1-1,.2,2.3,2.3,0,0,1-1-.22h0a9.41,9.41,0,0,1,1,.11,2.19,2.19,0,0,0,1-.09Z"/><path class="cls-38" d="M277.2,172.78a2.27,2.27,0,0,1-1.15.21,2.69,2.69,0,0,1-1.15-.24h0c.4,0,.77.08,1.16.13a2.41,2.41,0,0,0,1.14-.11Z"/><path class="cls-38" d="M277.42,174.46a2.51,2.51,0,0,1-1.26.23,3.1,3.1,0,0,1-1.26-.25h0c.43,0,.85.09,1.26.14a2.65,2.65,0,0,0,1.25-.12Z"/></g><path class="cls-33" d="M289.42,160l-8.81,1S286,154.65,289.42,160Z"/><path class="cls-34" d="M289.9,159.61s.48-3.7-2.25-5.4A9,9,0,0,0,282,153a19.64,19.64,0,0,1,3.69,2.31,4.18,4.18,0,0,0,1-.85,1.68,1.68,0,0,1-.69,1.05s3.11,3,3.19,4.34S289.9,159.61,289.9,159.61Z"/><polygon class="cls-33" points="298.51 159.09 289.46 160.35 293.6 157.46 298.51 159.09"/><path class="cls-34" d="M289.46,160.35a5,5,0,0,1,3.84-3.24,5.72,5.72,0,0,1,5.22,2,13.75,13.75,0,0,0-4.72,0,2.31,2.31,0,0,1,0-1.35s-.32.16-.42,1.34Z"/><path class="cls-34" d="M289.5,160.14l-8.89.82S286.68,155.38,289.5,160.14Z"/><path class="cls-35" d="M288.26,180.75c.58-.89-.54-8.58-.27-12.49a36.46,36.46,0,0,1,1.47-7.63c.05-.28,0-.4-.12-.45.17-.05.52-.09.42.45a36.48,36.48,0,0,0-1.47,7.63c-.27,3.91.85,11.6.27,12.49a1,1,0,0,1-1.06.46A1,1,0,0,0,288.26,180.75Z"/><path class="cls-36" d="M286.5,173.26a58.22,58.22,0,0,1,1.19-9.07c.58-2.22,1.26-4,1.26-4a.57.57,0,0,1,.39,0l-.09,0s-.67,1.76-1.26,4a58.23,58.23,0,0,0-1.19,9.07c0,1.43,0,7.74,0,7.74a2.19,2.19,0,0,0,.7.21,2,2,0,0,1-1-.21S286.5,174.68,286.5,173.26Z"/><path class="cls-35" d="M286.8,173.26a58.23,58.23,0,0,1,1.19-9.07c.58-2.22,1.26-4,1.26-4l.09,0c.1,0,.17.17.12.45a36.46,36.46,0,0,0-1.47,7.63c-.27,3.91.85,11.6.27,12.49a1,1,0,0,1-.76.46,2.19,2.19,0,0,1-.7-.21S286.8,174.68,286.8,173.26Z"/><path class="cls-36" d="M289.56,160.12a.65.65,0,0,0-.14.39.67.67,0,0,0,.67.67.66.66,0,0,0,.44-.18.66.66,0,0,1-.53.28.67.67,0,0,1-.67-.67A.66.66,0,0,1,289.56,160.12Z"/><path class="cls-35" d="M289.42,160.51a.65.65,0,0,1,.14-.39.66.66,0,0,1,.44-.18.67.67,0,0,1,.67.67.65.65,0,0,1-.14.39.66.66,0,0,1-.44.18A.67.67,0,0,1,289.42,160.51Z"/><path class="cls-36" d="M288.5,159.91a.64.64,0,0,0-.14.39.66.66,0,0,0,.66.66.65.65,0,0,0,.44-.17.65.65,0,0,1-.52.27.66.66,0,0,1-.66-.66A.65.65,0,0,1,288.5,159.91Z"/><path class="cls-35" d="M288.36,160.3a.64.64,0,0,1,.14-.39.65.65,0,0,1,.44-.17.66.66,0,0,1,.66.66.65.65,0,0,1-.14.39.65.65,0,0,1-.44.17A.66.66,0,0,1,288.36,160.3Z"/><path class="cls-33" d="M289.9,159.61s.89-3.18-1-4.86A8,8,0,0,0,282,153S288.75,152.2,289.9,159.61Z"/><g class="cls-54"><path class="cls-38" d="M289.48,162a1.18,1.18,0,0,1-.64,0,.92.92,0,0,1-.57-.28h0a1.73,1.73,0,0,1,.59.17,1.34,1.34,0,0,0,.59.1Z"/><path class="cls-38" d="M289.34,162.61a1.18,1.18,0,0,1-.64,0,.92.92,0,0,1-.57-.28h0a1.73,1.73,0,0,1,.59.17,1.33,1.33,0,0,0,.59.1Z"/><path class="cls-38" d="M289.09,163.25a1.18,1.18,0,0,1-.64,0,.92.92,0,0,1-.57-.28h0a1.74,1.74,0,0,1,.6.17,1.33,1.33,0,0,0,.59.1Z"/><path class="cls-38" d="M289.08,163.88a1.37,1.37,0,0,1-.73,0,1.16,1.16,0,0,1-.66-.31h0c.49,0,.88.38,1.37.31Z"/><path class="cls-38" d="M288.83,164.74a1.37,1.37,0,0,1-.73,0,1.16,1.16,0,0,1-.65-.31h0c.49,0,.88.38,1.37.31Z"/><path class="cls-38" d="M288.68,165.73a1.37,1.37,0,0,1-.73,0,1.16,1.16,0,0,1-.66-.31h0c.49,0,.88.38,1.37.31Z"/><path class="cls-38" d="M288.5,166.86a1.37,1.37,0,0,1-.73,0,1.16,1.16,0,0,1-.67-.29h0c.49,0,.89.35,1.38.26Z"/><path class="cls-38" d="M288.4,167.76a1.37,1.37,0,0,1-.73,0,1.16,1.16,0,0,1-.67-.28v0c.49,0,.9.34,1.38.24Z"/><path class="cls-38" d="M288.31,168.66a1.37,1.37,0,0,1-.73,0,1.16,1.16,0,0,1-.67-.28h0c.49,0,.9.34,1.38.24Z"/><path class="cls-38" d="M288.28,169.9a1.56,1.56,0,0,1-.82,0,1.42,1.42,0,0,1-.76-.31h0a3.47,3.47,0,0,1,.78.2,1.71,1.71,0,0,0,.79.07Z"/><path class="cls-38" d="M288.4,171.12a1.76,1.76,0,0,1-.92.07,1.73,1.73,0,0,1-.87-.32v0a4.85,4.85,0,0,1,.89.2,1.91,1.91,0,0,0,.89,0Z"/><path class="cls-38" d="M288.38,172.32a2,2,0,0,1-1,.07,2.07,2.07,0,0,1-1-.35v0a6.82,6.82,0,0,1,1,.23,2.13,2.13,0,0,0,1,0Z"/><path class="cls-38" d="M288.49,173.89a2,2,0,0,1-1.06.07,2.18,2.18,0,0,1-1-.36v0a7.62,7.62,0,0,1,1,.24,2.2,2.2,0,0,0,1,0Z"/><path class="cls-38" d="M288.64,175.16a2.24,2.24,0,0,1-1.14.22,2.51,2.51,0,0,1-1.14-.24v0a10.22,10.22,0,0,1,1.14.12,2.39,2.39,0,0,0,1.12-.1Z"/><path class="cls-38" d="M288.72,177a2.47,2.47,0,0,1-1.26.23,2.93,2.93,0,0,1-1.26-.26v0c.43,0,.84.08,1.26.14a2.62,2.62,0,0,0,1.24-.12Z"/><path class="cls-38" d="M289,178.8a2.74,2.74,0,0,1-1.37.25,3.38,3.38,0,0,1-1.37-.27v0c.47,0,.92.1,1.38.16a2.89,2.89,0,0,0,1.36-.14Z"/></g><path class="cls-55" d="M391.31,145s-11-4.29-11.34-6.95a2.26,2.26,0,0,1,2.32-2.67s-8.66-1.63-15.93,11.71S391.31,145,391.31,145Z"/><path class="cls-56" d="M362.14,194.32s-6.46-2.52-6.66-4.08a1.33,1.33,0,0,1,1.36-1.57s-5.09-1-9.36,6.88S362.14,194.32,362.14,194.32Z"/><path class="cls-57" d="M405.86,170.71s-8.67-3.38-8.94-5.47a1.78,1.78,0,0,1,1.83-2.1s-6.82-1.29-12.55,9.22S405.86,170.71,405.86,170.71Z"/><path class="cls-58" d="M426.85,159.23s-6.46-2.52-6.66-4.08a1.33,1.33,0,0,1,1.36-1.57s-5.09-1-9.36,6.88S426.85,159.23,426.85,159.23Z"/><path class="cls-59" d="M366.2,164.48s-6.46-2.52-6.66-4.08a1.33,1.33,0,0,1,1.36-1.57s-5.09-1-9.36,6.88S366.2,164.48,366.2,164.48Z"/><path class="cls-60" d="M344.72,148.45s-6.46-2.52-6.66-4.08a1.33,1.33,0,0,1,1.36-1.57s-5.09-1-9.36,6.88S344.72,148.45,344.72,148.45Z"/><path class="cls-61" d="M338.94,174.17s-7.21-2.81-7.43-4.55a1.48,1.48,0,0,1,1.52-1.75s-5.68-1.07-10.44,7.68S338.94,174.17,338.94,174.17Z"/><path class="cls-32" d="M200.73,219.72c3.5,0,20.15-4.38,27.93-2.63s13.69,8.76,23.33,7.56,32.29-17.72,40.57-18.23L232.8,171.72l-70.09,40.73,21.16,4.2S197.23,219.72,200.73,219.72Z"/><path class="cls-32" d="M205.68,223.48c10.7-.89,23.94-10.22,37.06,4.65s45.94-16.49,58.82-16.49l-9-5.23c-8.28.52-30.93,17-40.57,18.23s-15.55-5.81-23.33-7.56-24.42,2.63-27.93,2.63-16.87-3.07-16.87-3.07l-21.16-4.2-4,2.32S198.64,224.07,205.68,223.48Z"/><path class="cls-31" d="M292.56,206.41l9,5.23c-12.88,0-45.7,31.35-58.82,16.49s-26.36-5.54-37.06-4.65c-7,.59-47-8.71-47-8.71l-1.74,1L168,218.84c.42.12,16.86,4.48,20.21,4.32s11.74.4,14.09,1.63,11.07-1.29,14.76-1,15.26-.1,22.63,7.59,24.34.71,24.34.71,18.31-9.69,21.91-11L304,213Z"/><polygon class="cls-13" points="158.72 214.77 158.72 214.77 161.37 213.23 158.72 214.77"/><path class="cls-13" d="M205.68,223.48c10.7-.89,23.94-10.22,37.06,4.65s45.94-16.49,58.82-16.49l-9-5.23c-8.28.52-30.93,17-40.57,18.23s-15.55-5.81-23.33-7.56-24.42,2.63-27.93,2.63-16.87-3.07-16.87-3.07l-21.16-4.2-1.34.78-2.65,1.54S198.64,224.07,205.68,223.48Z"/><path class="cls-13" d="M277.41,205.28a12.54,12.54,0,0,1-5.66,4.48c-2.61,1-10.64,4.69-11.61,3.89s-5.48-.49-6.2-1.36,4.21-.51,8.9-2,7.38-1.25,7.95-3.35S277.41,205.28,277.41,205.28Z"/><path class="cls-13" d="M186.35,209.35c-.63-1.9-.73-4.14,2.78-3.85s5.88,5.5,9.47,4.55,7.2,1.1,5.93,2.66-10.87.52-11.92-.66S186.35,209.35,186.35,209.35Z"/><path class="cls-13" d="M232,206.22c-.62,1.25-1.67,1.72-3.68,2s-8.61,2-9.52,2c-2.9,0-3.11-2.47-3.47-3.2s3.06.35,6.61.1,4.65-.14,6.17-1C229.46,205.29,232.61,205,232,206.22Z"/><path class="cls-6" d="M264.26,215c1.21-.23,2.27-.47,2.93-.64a.65.65,0,0,0,.55.25l.14,0-.65,5s5.46-3.3,1.3-5.54a14.33,14.33,0,0,1,3.75,2,1.75,1.75,0,0,1,1-.45,3.29,3.29,0,0,0-.78.62,13,13,0,0,1,2.12,2.4s0-.07,0-.19a4.17,4.17,0,0,0-1.68-4.26c-1.25-1-3.43-.82-4.18-.71a3.54,3.54,0,0,0,2-2.17c.58-2-1.83-3.39-1.83-3.39a6.39,6.39,0,0,1,0,3.07,3,3,0,0,0,1.24,0s-.15.21-1.23.28l-.88,2a.68.68,0,0,0-.5-.2.76.76,0,0,0-.36.09.41.41,0,0,0-.25.34.36.36,0,0,0,.13.26,45.53,45.53,0,0,1-6.53.86c-3.59.18-10.64-.55-11.46-.18a.62.62,0,0,0-.42.69,1,1,0,0,0,.19.65h7.1A74.33,74.33,0,0,0,264.26,215Z"/><path class="cls-33" d="M250.78,196.2l-8.08.92S247.63,191.33,250.78,196.2Z"/><path class="cls-34" d="M251.23,195.88s.44-3.39-2.07-5a8.25,8.25,0,0,0-5.16-1.15,18,18,0,0,1,3.38,2.12,3.83,3.83,0,0,0,.87-.78,1.54,1.54,0,0,1-.63,1s2.86,2.75,2.93,4S251.23,195.88,251.23,195.88Z"/><polygon class="cls-33" points="259.13 195.41 250.82 196.56 254.62 193.9 259.13 195.41"/><path class="cls-34" d="M250.82,196.56a4.56,4.56,0,0,1,3.52-3,5.25,5.25,0,0,1,4.79,1.83,12.62,12.62,0,0,0-4.33,0,2.12,2.12,0,0,1,0-1.24s-.29.15-.39,1.23Z"/><path class="cls-34" d="M250.86,196.37l-8.15.75S248.28,192,250.86,196.37Z"/><path class="cls-35" d="M249.72,215.27c.53-.82-.5-7.87-.25-11.46a33.45,33.45,0,0,1,1.35-7c0-.26,0-.37-.11-.41.16,0,.48-.09.39.41a33.46,33.46,0,0,0-1.35,7c-.25,3.59.78,10.64.25,11.46a1,1,0,0,1-1,.42A.9.9,0,0,0,249.72,215.27Z"/><path class="cls-36" d="M248.11,208.4a53.41,53.41,0,0,1,1.09-8.33c.54-2,1.15-3.65,1.15-3.65a.52.52,0,0,1,.36,0l-.08,0s-.62,1.61-1.15,3.65a53.42,53.42,0,0,0-1.09,8.33c0,1.31,0,7.1,0,7.1a2,2,0,0,0,.64.19,1.84,1.84,0,0,1-.92-.19S248.11,209.71,248.11,208.4Z"/><path class="cls-35" d="M248.38,208.4a53.42,53.42,0,0,1,1.09-8.33c.54-2,1.15-3.65,1.15-3.65l.08,0c.09,0,.16.16.11.41a33.45,33.45,0,0,0-1.35,7c-.25,3.59.78,10.64.25,11.46a.9.9,0,0,1-.7.42,2,2,0,0,1-.64-.19S248.38,209.71,248.38,208.4Z"/><path class="cls-36" d="M250.91,196.35a.6.6,0,0,0-.13.36.61.61,0,0,0,.61.61.61.61,0,0,0,.41-.16.6.6,0,0,1-.48.25.61.61,0,0,1-.61-.61A.61.61,0,0,1,250.91,196.35Z"/><path class="cls-35" d="M250.78,196.71a.6.6,0,0,1,.13-.36.61.61,0,0,1,.41-.16.61.61,0,0,1,.61.61.6.6,0,0,1-.13.36.61.61,0,0,1-.41.16A.61.61,0,0,1,250.78,196.71Z"/><path class="cls-36" d="M249.94,196.16a.59.59,0,0,0-.13.36.61.61,0,0,0,.61.61.6.6,0,0,0,.4-.16.59.59,0,0,1-.48.25.61.61,0,0,1-.61-.61A.6.6,0,0,1,249.94,196.16Z"/><path class="cls-35" d="M249.81,196.51a.59.59,0,0,1,.13-.36.6.6,0,0,1,.4-.16.61.61,0,0,1,.61.61.59.59,0,0,1-.13.36.6.6,0,0,1-.4.16A.61.61,0,0,1,249.81,196.51Z"/><path class="cls-33" d="M251.23,195.88s.82-2.92-.95-4.46a7.31,7.31,0,0,0-6.28-1.65S250.17,189.08,251.23,195.88Z"/><g class="cls-62"><path class="cls-38" d="M250.84,198.05a1.08,1.08,0,0,1-.58,0,.84.84,0,0,1-.52-.26h0c.4,0,.7.3,1.09.25Z"/><path class="cls-38" d="M250.71,198.64a1.08,1.08,0,0,1-.58,0,.84.84,0,0,1-.52-.26h0c.4,0,.7.3,1.09.25Z"/><path class="cls-38" d="M250.49,199.22a1.09,1.09,0,0,1-.58,0,.84.84,0,0,1-.52-.26h0c.4,0,.7.3,1.09.25Z"/><path class="cls-38" d="M250.47,199.8a1.26,1.26,0,0,1-.67,0,1.06,1.06,0,0,1-.6-.29h0c.45,0,.81.35,1.26.28Z"/><path class="cls-38" d="M250.24,200.58a1.26,1.26,0,0,1-.67,0,1.06,1.06,0,0,1-.6-.29h0c.45,0,.81.35,1.26.28Z"/><path class="cls-38" d="M250.11,201.49a1.25,1.25,0,0,1-.67,0,1.06,1.06,0,0,1-.6-.29h0c.45,0,.81.35,1.26.28Z"/><path class="cls-38" d="M249.94,202.53a1.26,1.26,0,0,1-.67,0,1.06,1.06,0,0,1-.61-.27h0c.45,0,.82.32,1.27.24Z"/><path class="cls-38" d="M249.85,203.35a1.26,1.26,0,0,1-.67,0,1.06,1.06,0,0,1-.61-.26h0c.45,0,.82.31,1.27.22Z"/><path class="cls-38" d="M249.77,204.18a1.26,1.26,0,0,1-.67,0,1.06,1.06,0,0,1-.61-.26h0c.45,0,.82.31,1.27.22Z"/><path class="cls-38" d="M249.74,205.32a1.43,1.43,0,0,1-.75,0,1.31,1.31,0,0,1-.7-.29h0c.51,0,.94.35,1.44.25Z"/><path class="cls-38" d="M249.85,206.44a1.62,1.62,0,0,1-.85.06,1.58,1.58,0,0,1-.8-.29h0a4.44,4.44,0,0,1,.81.19,1.76,1.76,0,0,0,.82,0Z"/><path class="cls-38" d="M249.83,207.54a1.81,1.81,0,0,1-.94.06,1.9,1.9,0,0,1-.89-.32h0a6.25,6.25,0,0,1,.91.21,2,2,0,0,0,.91,0Z"/><path class="cls-38" d="M249.93,209a1.88,1.88,0,0,1-1,.06,2,2,0,0,1-.92-.33h0a7,7,0,0,1,.94.22,2,2,0,0,0,.95,0Z"/><path class="cls-38" d="M250.07,210.15a2.05,2.05,0,0,1-1,.2,2.3,2.3,0,0,1-1-.22h0a9.41,9.41,0,0,1,1,.11,2.19,2.19,0,0,0,1-.09Z"/><path class="cls-38" d="M250.14,211.81A2.27,2.27,0,0,1,249,212a2.69,2.69,0,0,1-1.15-.24h0c.4,0,.77.08,1.16.13a2.41,2.41,0,0,0,1.14-.11Z"/><path class="cls-38" d="M250.36,213.48a2.51,2.51,0,0,1-1.26.23,3.1,3.1,0,0,1-1.26-.25h0c.43,0,.85.09,1.26.14a2.65,2.65,0,0,0,1.25-.12Z"/></g><path class="cls-6" d="M199.14,211.38c1.21-.23,2.27-.47,2.93-.64a.65.65,0,0,0,.55.25l.14,0-.65,5s5.46-3.3,1.3-5.54a14.33,14.33,0,0,1,3.75,2,1.75,1.75,0,0,1,1-.45,3.29,3.29,0,0,0-.78.62,13,13,0,0,1,2.12,2.4s0-.07,0-.19a4.17,4.17,0,0,0-1.68-4.26c-1.25-1-3.43-.82-4.18-.71a3.54,3.54,0,0,0,2-2.17c.58-2-1.83-3.39-1.83-3.39a6.39,6.39,0,0,1,0,3.07,3,3,0,0,0,1.24,0s-.15.21-1.23.28l-.88,2a.68.68,0,0,0-.5-.2.76.76,0,0,0-.36.09.41.41,0,0,0-.25.34.36.36,0,0,0,.13.26,45.53,45.53,0,0,1-6.53.86c-3.59.18-10.64-.55-11.46-.18a.62.62,0,0,0-.42.69,1,1,0,0,0,.19.65h7.1A74.33,74.33,0,0,0,199.14,211.38Z"/><path class="cls-33" d="M185.66,192.61l-8.08.92S182.51,187.74,185.66,192.61Z"/><path class="cls-34" d="M186.11,192.29s.44-3.39-2.07-5a8.25,8.25,0,0,0-5.16-1.15,18,18,0,0,1,3.38,2.12,3.83,3.83,0,0,0,.87-.78,1.54,1.54,0,0,1-.63,1s2.86,2.75,2.93,4S186.11,192.29,186.11,192.29Z"/><polygon class="cls-33" points="194.01 191.82 185.7 192.97 189.5 190.31 194.01 191.82"/><path class="cls-34" d="M185.7,193a4.56,4.56,0,0,1,3.52-3,5.25,5.25,0,0,1,4.79,1.83,12.62,12.62,0,0,0-4.33,0,2.12,2.12,0,0,1,0-1.24s-.29.15-.39,1.23Z"/><path class="cls-34" d="M185.74,192.78l-8.15.75S183.16,188.41,185.74,192.78Z"/><path class="cls-35" d="M184.6,211.68c.53-.82-.5-7.87-.25-11.46a33.45,33.45,0,0,1,1.35-7c0-.26,0-.37-.11-.41.16,0,.48-.09.39.41a33.46,33.46,0,0,0-1.35,7c-.25,3.59.78,10.64.25,11.46a1,1,0,0,1-1,.42A.9.9,0,0,0,184.6,211.68Z"/><path class="cls-36" d="M183,204.81a53.41,53.41,0,0,1,1.09-8.33c.54-2,1.15-3.65,1.15-3.65a.52.52,0,0,1,.36,0l-.08,0s-.62,1.61-1.15,3.65a53.42,53.42,0,0,0-1.09,8.33c0,1.31,0,7.1,0,7.1a2,2,0,0,0,.64.19,1.84,1.84,0,0,1-.92-.19S183,206.12,183,204.81Z"/><path class="cls-35" d="M183.26,204.81a53.42,53.42,0,0,1,1.09-8.33c.54-2,1.15-3.65,1.15-3.65l.08,0c.09,0,.16.16.11.41a33.45,33.45,0,0,0-1.35,7c-.25,3.59.78,10.64.25,11.46a.9.9,0,0,1-.7.42,2,2,0,0,1-.64-.19S183.26,206.12,183.26,204.81Z"/><path class="cls-36" d="M185.79,192.75a.6.6,0,0,0-.13.36.61.61,0,0,0,.61.61.61.61,0,0,0,.41-.16.6.6,0,0,1-.48.25.61.61,0,0,1-.61-.61A.61.61,0,0,1,185.79,192.75Z"/><path class="cls-35" d="M185.66,193.12a.6.6,0,0,1,.13-.36.61.61,0,0,1,.41-.16.61.61,0,0,1,.61.61.6.6,0,0,1-.13.36.61.61,0,0,1-.41.16A.61.61,0,0,1,185.66,193.12Z"/><path class="cls-36" d="M184.82,192.57a.59.59,0,0,0-.13.36.61.61,0,0,0,.61.61.6.6,0,0,0,.4-.16.59.59,0,0,1-.48.25.61.61,0,0,1-.61-.61A.6.6,0,0,1,184.82,192.57Z"/><path class="cls-35" d="M184.69,192.92a.59.59,0,0,1,.13-.36.6.6,0,0,1,.4-.16.61.61,0,0,1,.61.61.59.59,0,0,1-.13.36.6.6,0,0,1-.4.16A.61.61,0,0,1,184.69,192.92Z"/><path class="cls-33" d="M186.11,192.29s.82-2.92-.95-4.46a7.31,7.31,0,0,0-6.28-1.65S185.05,185.49,186.11,192.29Z"/><g class="cls-63"><path class="cls-38" d="M185.72,194.46a1.08,1.08,0,0,1-.58,0,.84.84,0,0,1-.52-.26h0c.4,0,.7.3,1.09.25Z"/><path class="cls-38" d="M185.59,195a1.08,1.08,0,0,1-.58,0,.84.84,0,0,1-.52-.26h0c.4,0,.7.3,1.09.25Z"/><path class="cls-38" d="M185.37,195.63a1.09,1.09,0,0,1-.58,0,.84.84,0,0,1-.52-.26h0c.4,0,.7.3,1.09.25Z"/><path class="cls-38" d="M185.35,196.21a1.26,1.26,0,0,1-.67,0,1.06,1.06,0,0,1-.6-.29h0c.45,0,.81.35,1.26.28Z"/><path class="cls-38" d="M185.13,197a1.26,1.26,0,0,1-.67,0,1.06,1.06,0,0,1-.6-.29h0c.45,0,.81.35,1.26.28Z"/><path class="cls-38" d="M185,197.9a1.25,1.25,0,0,1-.67,0,1.06,1.06,0,0,1-.6-.29h0c.45,0,.81.35,1.26.28Z"/><path class="cls-38" d="M184.82,198.94a1.26,1.26,0,0,1-.67,0,1.06,1.06,0,0,1-.61-.27h0c.45,0,.82.32,1.27.24Z"/><path class="cls-38" d="M184.73,199.76a1.26,1.26,0,0,1-.67,0,1.06,1.06,0,0,1-.61-.26h0c.45,0,.82.31,1.27.22Z"/><path class="cls-38" d="M184.65,200.59a1.26,1.26,0,0,1-.67,0,1.06,1.06,0,0,1-.61-.26h0c.45,0,.82.31,1.27.22Z"/><path class="cls-38" d="M184.62,201.73a1.43,1.43,0,0,1-.75,0,1.31,1.31,0,0,1-.7-.29h0c.51,0,.94.35,1.44.25Z"/><path class="cls-38" d="M184.73,202.85a1.62,1.62,0,0,1-.85.06,1.58,1.58,0,0,1-.8-.29h0a4.44,4.44,0,0,1,.81.19,1.76,1.76,0,0,0,.82,0Z"/><path class="cls-38" d="M184.72,203.95a1.81,1.81,0,0,1-.94.06,1.9,1.9,0,0,1-.89-.32h0a6.25,6.25,0,0,1,.91.21,2,2,0,0,0,.91,0Z"/><path class="cls-38" d="M184.81,205.39a1.88,1.88,0,0,1-1,.06,2,2,0,0,1-.92-.33h0a7,7,0,0,1,.94.22,2,2,0,0,0,.95,0Z"/><path class="cls-38" d="M184.95,206.55a2.05,2.05,0,0,1-1,.2,2.3,2.3,0,0,1-1-.22h0a9.41,9.41,0,0,1,1,.11,2.19,2.19,0,0,0,1-.09Z"/><path class="cls-38" d="M185,208.22a2.27,2.27,0,0,1-1.15.21,2.69,2.69,0,0,1-1.15-.24h0c.4,0,.77.08,1.16.13a2.41,2.41,0,0,0,1.14-.11Z"/><path class="cls-38" d="M185.24,209.89a2.51,2.51,0,0,1-1.26.23,3.1,3.1,0,0,1-1.26-.25h0c.43,0,.85.09,1.26.14a2.65,2.65,0,0,0,1.25-.12Z"/></g><path class="cls-6" d="M216.76,216.77c1.21-.23,2.27-.47,2.93-.64a.65.65,0,0,0,.55.25l.14,0-.65,5s5.46-3.3,1.3-5.54a14.33,14.33,0,0,1,3.75,2,1.75,1.75,0,0,1,1-.45,3.29,3.29,0,0,0-.78.62,13,13,0,0,1,2.12,2.4s0-.07,0-.19a4.17,4.17,0,0,0-1.68-4.26c-1.25-1-3.43-.82-4.18-.71a3.54,3.54,0,0,0,2-2.17c.58-2-1.83-3.39-1.83-3.39a6.39,6.39,0,0,1,0,3.07,3,3,0,0,0,1.24,0s-.15.21-1.23.28l-.88,2a.68.68,0,0,0-.5-.2.76.76,0,0,0-.36.09.41.41,0,0,0-.25.34.36.36,0,0,0,.13.26,45.53,45.53,0,0,1-6.53.86c-3.59.18-10.64-.55-11.46-.18a.62.62,0,0,0-.42.69,1,1,0,0,0,.19.65h7.1A74.33,74.33,0,0,0,216.76,216.77Z"/><path class="cls-33" d="M203.29,198l-8.08.92S200.13,193.13,203.29,198Z"/><path class="cls-34" d="M203.73,197.68s.44-3.39-2.07-5a8.25,8.25,0,0,0-5.16-1.15,18,18,0,0,1,3.38,2.12,3.83,3.83,0,0,0,.87-.78,1.54,1.54,0,0,1-.63,1s2.86,2.75,2.93,4S203.73,197.68,203.73,197.68Z"/><polygon class="cls-33" points="211.63 197.21 203.32 198.36 207.13 195.7 211.63 197.21"/><path class="cls-34" d="M203.33,198.36a4.56,4.56,0,0,1,3.52-3,5.25,5.25,0,0,1,4.79,1.83,12.62,12.62,0,0,0-4.33,0,2.12,2.12,0,0,1,0-1.24s-.29.15-.39,1.23Z"/><path class="cls-34" d="M203.36,198.16l-8.15.75S200.78,193.8,203.36,198.16Z"/><path class="cls-35" d="M202.23,217.07c.53-.82-.5-7.87-.25-11.46a33.45,33.45,0,0,1,1.35-7c0-.26,0-.37-.11-.41.16,0,.48-.09.39.41a33.46,33.46,0,0,0-1.35,7c-.25,3.59.78,10.64.25,11.46a1,1,0,0,1-1,.42A.9.9,0,0,0,202.23,217.07Z"/><path class="cls-36" d="M200.61,210.2a53.41,53.41,0,0,1,1.09-8.33c.54-2,1.15-3.65,1.15-3.65a.52.52,0,0,1,.36,0l-.08,0s-.62,1.61-1.15,3.65a53.42,53.42,0,0,0-1.09,8.33c0,1.31,0,7.1,0,7.1a2,2,0,0,0,.64.19,1.84,1.84,0,0,1-.92-.19S200.61,211.51,200.61,210.2Z"/><path class="cls-35" d="M200.89,210.2a53.42,53.42,0,0,1,1.09-8.33c.54-2,1.15-3.65,1.15-3.65l.08,0c.09,0,.16.16.11.41a33.45,33.45,0,0,0-1.35,7c-.25,3.59.78,10.64.25,11.46a.9.9,0,0,1-.7.42,2,2,0,0,1-.64-.19S200.89,211.51,200.89,210.2Z"/><path class="cls-36" d="M203.42,198.14a.6.6,0,0,0-.13.36.61.61,0,0,0,.61.61.61.61,0,0,0,.41-.16.6.6,0,0,1-.48.25.61.61,0,0,1-.61-.61A.61.61,0,0,1,203.42,198.14Z"/><path class="cls-35" d="M203.29,198.5a.6.6,0,0,1,.13-.36.61.61,0,0,1,.41-.16.61.61,0,0,1,.61.61.6.6,0,0,1-.13.36.61.61,0,0,1-.41.16A.61.61,0,0,1,203.29,198.5Z"/><path class="cls-36" d="M202.45,198a.59.59,0,0,0-.13.36.61.61,0,0,0,.61.61.6.6,0,0,0,.4-.16.59.59,0,0,1-.48.25.61.61,0,0,1-.61-.61A.6.6,0,0,1,202.45,198Z"/><path class="cls-35" d="M202.32,198.31a.59.59,0,0,1,.13-.36.6.6,0,0,1,.4-.16.61.61,0,0,1,.61.61.59.59,0,0,1-.13.36.6.6,0,0,1-.4.16A.61.61,0,0,1,202.32,198.31Z"/><path class="cls-33" d="M203.73,197.68s.82-2.92-.95-4.46a7.31,7.31,0,0,0-6.28-1.65S202.68,190.88,203.73,197.68Z"/><g class="cls-64"><path class="cls-38" d="M203.34,199.85a1.08,1.08,0,0,1-.58,0,.84.84,0,0,1-.52-.26h0c.4,0,.7.3,1.09.25Z"/><path class="cls-38" d="M203.22,200.43a1.08,1.08,0,0,1-.58,0,.84.84,0,0,1-.52-.26h0c.4,0,.7.3,1.09.25Z"/><path class="cls-38" d="M203,201a1.09,1.09,0,0,1-.58,0,.84.84,0,0,1-.52-.26h0c.4,0,.7.3,1.09.25Z"/><path class="cls-38" d="M203,201.6a1.26,1.26,0,0,1-.67,0,1.06,1.06,0,0,1-.6-.29h0c.45,0,.81.35,1.26.28Z"/><path class="cls-38" d="M202.75,202.38a1.26,1.26,0,0,1-.67,0,1.06,1.06,0,0,1-.6-.29h0c.45,0,.81.35,1.26.28Z"/><path class="cls-38" d="M202.61,203.29a1.25,1.25,0,0,1-.67,0,1.06,1.06,0,0,1-.6-.29h0c.45,0,.81.35,1.26.28Z"/><path class="cls-38" d="M202.45,204.33a1.26,1.26,0,0,1-.67,0,1.06,1.06,0,0,1-.61-.27h0c.45,0,.82.32,1.27.24Z"/><path class="cls-38" d="M202.35,205.15a1.26,1.26,0,0,1-.67,0,1.06,1.06,0,0,1-.61-.26h0c.45,0,.82.31,1.27.22Z"/><path class="cls-38" d="M202.27,206a1.26,1.26,0,0,1-.67,0,1.06,1.06,0,0,1-.61-.26h0c.45,0,.82.31,1.27.22Z"/><path class="cls-38" d="M202.24,207.12a1.43,1.43,0,0,1-.75,0,1.31,1.31,0,0,1-.7-.29h0c.51,0,.94.35,1.44.25Z"/><path class="cls-38" d="M202.36,208.24a1.62,1.62,0,0,1-.85.06,1.58,1.58,0,0,1-.8-.29h0a4.44,4.44,0,0,1,.81.19,1.76,1.76,0,0,0,.82,0Z"/><path class="cls-38" d="M202.34,209.34a1.81,1.81,0,0,1-.94.06,1.9,1.9,0,0,1-.89-.32h0a6.25,6.25,0,0,1,.91.21,2,2,0,0,0,.91,0Z"/><path class="cls-38" d="M202.44,210.78a1.88,1.88,0,0,1-1,.06,2,2,0,0,1-.92-.33h0a7,7,0,0,1,.94.22,2,2,0,0,0,.95,0Z"/><path class="cls-38" d="M202.57,211.94a2.05,2.05,0,0,1-1,.2,2.3,2.3,0,0,1-1-.22h0a9.41,9.41,0,0,1,1,.11,2.19,2.19,0,0,0,1-.09Z"/><path class="cls-38" d="M202.65,213.61a2.27,2.27,0,0,1-1.15.21,2.69,2.69,0,0,1-1.15-.24h0c.4,0,.77.08,1.16.13a2.41,2.41,0,0,0,1.14-.11Z"/><path class="cls-38" d="M202.86,215.28a2.51,2.51,0,0,1-1.26.23,3.1,3.1,0,0,1-1.26-.25h0c.43,0,.85.09,1.26.14a2.65,2.65,0,0,0,1.25-.12Z"/></g><polygon class="cls-6" points="234.03 125.3 304.52 166.26 234.16 207.06 163.6 166.19 234.03 125.3"/><polygon class="cls-65" points="163.82 138.94 234.28 179.79 304.52 139.02 234.18 98.18 163.82 138.94"/><polygon class="cls-66" points="163.94 139.02 163.94 155.09 234.24 196.28 234.11 179.71 163.94 139.02"/><polygon class="cls-67" points="234.11 179.71 304.52 139.02 304.52 155.49 234.24 196.28 234.11 179.71"/><polygon class="cls-6" points="194.1 153.83 247.88 153.83 281.49 125.66 271.49 119.84 254.78 119.84 194.1 153.83"/><polygon class="cls-6" points="243.62 159.99 268.26 159.99 302.45 140.18 294.5 137.78 283.05 137.9 243.62 159.99"/><path class="cls-3" d="M175.67,148.43l13,5s11.65,2.06,21.76-3.53,41.91-24.45,41.91-24.45a21,21,0,0,0,7.74-15.37L224.27,129Z"/><path class="cls-3" d="M175.74,147.68c.1-1.71,1-8.94,16.54-15l5.36-1.55,47.3-28.33,14.67,7.66.48-.38-15.94-8.32-47.3,28.33-5.36,1.55c-15.55,6-16.43,13.27-16.54,15,0,.31-.07.41-.06.62a1.29,1.29,0,0,0,.81,1.18s0-.09,0-.14C175.66,148.09,175.72,148,175.74,147.68Z"/><path class="cls-68" d="M259.15,110.24A140.5,140.5,0,0,1,246,119.39c-6.63,4-34.6,20.43-34.6,20.43s-3.39-.71-5.78.56-8.89,5.93-12.41,6.91-10.86,2.12-15.24,1.55a9.21,9.21,0,0,1-2.31-.54s0,0,0,0a7,7,0,0,0,2.67.85c4.37.56,11.73-.58,15.25-1.57s10-5.64,12.41-6.91,5.78-.56,5.78-.56,28-16.48,34.6-20.43a140.9,140.9,0,0,0,13.21-9.22Z"/><path class="cls-69" d="M175.74,147.68c.1-1.71,1-8.94,16.54-15l5.36-1.55,47.3-28.33,14.22,7.42.08-.06-14.67-7.66-47.3,28.33-5.36,1.55c-15.55,6-16.43,13.27-16.54,15,0,.31-.07.41-.06.62,0,0,0,.09,0,.14l.36.17h0C175.66,148.09,175.72,148,175.74,147.68Z"/><path class="cls-69" d="M193.22,147.3c3.53-1,10-5.64,12.41-6.91s5.78-.56,5.78-.56,28-16.48,34.6-20.43a140.5,140.5,0,0,0,13.13-9.15l-14.22-7.42-47.3,28.33-5.36,1.55c-15.55,6-16.43,13.27-16.54,15,0,.31-.07.41-.06.62h0a9.21,9.21,0,0,0,2.31.54C182.36,149.41,189.7,148.29,193.22,147.3Z"/><polygon class="cls-68" points="253.32 105.91 241.12 99.5 237.21 102.22 245.69 110.1 253.32 105.91"/><path class="cls-70" d="M239,85.26l-.42,17.32h0a.46.46,0,0,0,.27.38,1.3,1.3,0,0,0,.6.15V85.26Z"/><path class="cls-3" d="M239.89,85.26h-.45v17.86a1.35,1.35,0,0,0,.71-.15.46.46,0,0,0,.27-.38h0Z"/><path class="cls-71" d="M239.76,85.08a.2.2,0,0,1,0,.37.72.72,0,0,1-.64,0,.2.2,0,0,1,0-.38A.72.72,0,0,1,239.76,85.08Z"/><g class="cls-27"><g class="cls-72"><g class="cls-27"><path class="cls-73" d="M235.9,85.88l.26-.15a.17.17,0,0,1,.17,0l-.26.15a.17.17,0,0,0-.17,0"/></g></g></g><path class="cls-3" d="M242.37,90.62l-.26.15a.17.17,0,0,0,.07-.16l.26-.15A.17.17,0,0,1,242.37,90.62Z"/><g class="cls-74"><g class="cls-27"><path class="cls-3" d="M242.18,90.62l.26-.15a.17.17,0,0,1-.07.16l-.26.15a.17.17,0,0,0,.07-.16"/></g></g><polygon class="cls-3" points="242.18 89.7 242.44 89.55 242.44 90.47 242.18 90.61 242.18 89.7"/><polygon class="cls-3" points="236.07 85.9 236.33 85.75 242.2 89.13 241.94 89.28 236.07 85.9"/><path class="cls-70" d="M241.94,89.28a.54.54,0,0,1,.24.42v.91c0,.15-.11.22-.24.14l-5.86-3.39a.54.54,0,0,1-.24-.42V86c0-.15.11-.22.25-.14Z"/><path class="cls-3" d="M241.94,89.28l.26-.15a.54.54,0,0,1,.24.42l-.26.15A.54.54,0,0,0,241.94,89.28Z"/><g class="cls-75"><g class="cls-27"><path class="cls-3" d="M241.94,89.28l.26-.15a.43.43,0,0,1,.11.09l-.26.15a.43.43,0,0,0-.11-.09"/><path class="cls-3" d="M242,89.37l.26-.15a.59.59,0,0,1,.09.15l-.26.15a.59.59,0,0,0-.09-.15"/><path class="cls-3" d="M242.14,89.52l.26-.15a.46.46,0,0,1,0,.18l-.26.15a.46.46,0,0,0,0-.18"/></g></g><polygon class="cls-3" points="240.23 121.94 255.98 112 255.98 109.55 253.67 108.78 253.32 105.91 245.69 110.1 245.62 103.67 244.14 104.72 244.14 101.78 239.19 104.72 240.23 121.94"/><polygon class="cls-68" points="240.23 121.94 240.23 111.3 242.82 111.3 242.82 109.13 224.76 98.84 224.76 101.78 227.42 104.02 227.42 114.03 240.23 121.94"/><polygon class="cls-73" points="224.76 98.84 226.72 97.58 244.57 107.8 242.82 109.13 224.76 98.84"/><polygon class="cls-3" points="242.82 109.13 242.82 111.3 244.57 110.1 244.57 107.8 242.82 109.13"/><polygon class="cls-73" points="228.92 98.84 233.51 96.32 244.14 101.78 239.19 104.72 228.92 98.84"/><polygon class="cls-68" points="233.69 121.14 233.68 126.25 220.33 118.54 220.34 113.43 233.69 121.14"/><polygon class="cls-3" points="233.69 121.14 239.72 117.64 239.71 122.75 233.68 126.25 233.69 121.14"/><polygon class="cls-71" points="220.34 113.43 226.37 109.93 239.72 117.64 233.69 121.14 220.34 113.43"/><polygon class="cls-68" points="224.63 126.26 224.62 131.37 211.27 123.67 211.28 118.56 224.63 126.26"/><polygon class="cls-3" points="224.63 126.26 230.66 122.76 230.65 127.87 224.62 131.37 224.63 126.26"/><polygon class="cls-71" points="211.28 118.56 217.31 115.05 230.66 122.76 224.63 126.26 211.28 118.56"/><polygon class="cls-68" points="215.57 131.39 215.56 136.5 202.2 128.79 202.22 123.68 215.57 131.39"/><polygon class="cls-3" points="215.57 131.39 221.6 127.89 221.58 133 215.56 136.5 215.57 131.39"/><polygon class="cls-71" points="202.22 123.68 208.25 120.18 221.6 127.89 215.57 131.39 202.22 123.68"/><polygon class="cls-76" points="229.9 105.04 229.89 106.5 229.3 106.15 229.3 104.69 229.9 105.04"/><polygon class="cls-76" points="231.42 105.92 231.41 107.38 230.82 107.04 230.82 105.58 231.42 105.92"/><polygon class="cls-76" points="232.94 106.8 232.94 108.26 232.34 107.92 232.35 106.46 232.94 106.8"/><polygon class="cls-76" points="234.46 107.68 234.46 109.14 233.86 108.8 233.87 107.34 234.46 107.68"/><polygon class="cls-76" points="235.98 108.56 235.98 110.03 235.38 109.68 235.39 108.22 235.98 108.56"/><polygon class="cls-76" points="237.5 109.45 237.5 110.91 236.91 110.56 236.91 109.1 237.5 109.45"/><polygon class="cls-76" points="229.9 108.53 229.89 110 229.3 109.65 229.3 108.19 229.9 108.53"/><polygon class="cls-76" points="231.42 109.41 231.41 110.88 230.82 110.54 230.82 109.07 231.42 109.41"/><polygon class="cls-76" points="232.94 110.3 232.94 111.76 232.34 111.42 232.35 109.96 232.94 110.3"/><polygon class="cls-76" points="234.46 111.18 234.46 112.64 233.86 112.3 233.87 110.84 234.46 111.18"/><polygon class="cls-76" points="235.98 112.06 235.98 113.53 235.38 113.18 235.39 111.72 235.98 112.06"/><polygon class="cls-76" points="237.5 112.94 237.5 114.41 236.91 114.06 236.91 112.6 237.5 112.94"/><path class="cls-3" d="M233.28,157.26l6.3,2.44A17.85,17.85,0,0,0,250.13,158c4.9-2.71,31-18.09,31-18.09a10.16,10.16,0,0,0,3.75-7.45l-17.36,9.15Z"/><path class="cls-3" d="M233.31,156.89c.05-.83.48-4.33,8-7.26l2.6-.75,33.58-20,7.11,3.71.23-.18-7.73-4-33.58,20-2.6.75c-7.54,2.93-8,6.43-8,7.26,0,.15,0,.2,0,.3a.63.63,0,0,0,.39.57s0,0,0-.07S233.31,157,233.31,156.89Z"/><path class="cls-68" d="M284.4,132.51a68.11,68.11,0,0,1-6.36,4.44c-3.21,1.91-27.42,16.14-27.42,16.14a4.85,4.85,0,0,0-2.8.27c-1.16.62-4.31,2.87-6,3.35a23.38,23.38,0,0,1-7.39.75,4.46,4.46,0,0,1-1.12-.26s0,0,0,.06a3.71,3.71,0,0,0,1.3.35,23.38,23.38,0,0,0,7.39-.75c1.71-.48,4.86-2.74,6-3.35a4.85,4.85,0,0,1,2.8-.27S275,139,278.21,137.09a68.3,68.3,0,0,0,6.4-4.47Z"/><path class="cls-69" d="M233.31,156.89c.05-.83.48-4.33,8-7.26l2.6-.75,33.58-20,6.89,3.6,0,0-7.11-3.71-33.58,20-2.6.75c-7.54,2.93-8,6.43-8,7.26,0,.15,0,.2,0,.3s0,0,0,.07l.17.08h0C233.28,157.09,233.31,157,233.31,156.89Z"/><path class="cls-69" d="M241.79,156.71c1.71-.48,4.86-2.74,6-3.35a4.85,4.85,0,0,1,2.8-.27s24.21-14.22,27.42-16.14a68.11,68.11,0,0,0,6.36-4.44l-6.89-3.6-33.58,20-2.6.75c-7.54,2.93-8,6.43-8,7.26,0,.15,0,.2,0,.3h0a4.46,4.46,0,0,0,1.12.26A23.38,23.38,0,0,0,241.79,156.71Z"/><polygon class="cls-68" points="281.57 130.41 275.66 127.3 273.76 128.62 277.87 132.44 281.57 130.41"/><path class="cls-70" d="M241.94,144.3l-.2,8.4h0a.22.22,0,0,0,.13.18.63.63,0,0,0,.29.07V144.3Z"/><path class="cls-3" d="M242.38,144.3h-.22V153a.65.65,0,0,0,.34-.07.22.22,0,0,0,.13-.18h0Z"/><path class="cls-71" d="M242.31,144.2c.08,0,.08.13,0,.18a.34.34,0,0,1-.31,0c-.09-.05-.08-.13,0-.18A.33.33,0,0,1,242.31,144.2Z"/><path class="cls-70" d="M240.42,145.06l-.2,8.4h0a.22.22,0,0,0,.13.18.63.63,0,0,0,.29.07v-8.66Z"/><path class="cls-3" d="M240.86,145.06h-.22v8.66a.65.65,0,0,0,.34-.07.22.22,0,0,0,.13-.18h0Z"/><path class="cls-71" d="M240.79,145a.09.09,0,0,1,0,.18.34.34,0,0,1-.31,0c-.09-.05-.08-.13,0-.18A.33.33,0,0,1,240.79,145Z"/><polygon class="cls-3" points="275.23 138.18 282.86 133.36 282.86 132.17 281.74 131.8 281.57 130.41 277.87 132.44 277.84 129.32 277.12 129.83 277.12 128.41 274.72 129.83 275.23 138.18"/><polygon class="cls-68" points="269.02 129.49 269.02 134.34 275.23 138.18 275.23 133.02 276.48 133.02 276.48 131.97 269.05 127.73 269.02 129.49"/><polygon class="cls-73" points="269.05 127.73 269.75 126.98 277.33 131.32 276.62 132.04 269.05 127.73"/><polygon class="cls-3" points="276.48 131.97 276.48 133.02 277.33 132.44 277.33 131.32 276.48 131.97"/><polygon class="cls-73" points="269.75 126.98 271.97 125.76 277.12 128.41 274.72 129.83 269.75 126.98"/><polygon class="cls-68" points="272.06 137.79 272.05 140.27 265.58 136.53 265.59 134.06 272.06 137.79"/><polygon class="cls-3" points="272.06 137.79 274.98 136.09 274.97 138.57 272.05 140.27 272.06 137.79"/><polygon class="cls-71" points="265.59 134.06 268.51 132.36 274.98 136.09 272.06 137.79 265.59 134.06"/><polygon class="cls-68" points="267.67 140.28 267.66 142.75 261.19 139.02 261.19 136.54 267.67 140.28"/><polygon class="cls-3" points="267.67 140.28 270.59 138.58 270.58 141.06 267.66 142.75 267.67 140.28"/><polygon class="cls-71" points="261.19 136.54 264.12 134.84 270.59 138.58 267.67 140.28 261.19 136.54"/><polygon class="cls-68" points="263.27 142.76 263.26 145.24 256.79 141.5 256.8 139.02 263.27 142.76"/><polygon class="cls-3" points="263.27 142.76 266.19 141.06 266.19 143.54 263.26 145.24 263.27 142.76"/><polygon class="cls-71" points="256.8 139.02 259.72 137.33 266.19 141.06 263.27 142.76 256.8 139.02"/><polygon class="cls-68" points="258.88 145.25 258.87 147.72 252.4 143.99 252.41 141.51 258.88 145.25"/><polygon class="cls-3" points="258.88 145.25 261.8 143.55 261.79 146.02 258.87 147.72 258.88 145.25"/><polygon class="cls-71" points="252.41 141.51 255.33 139.81 261.8 143.55 258.88 145.25 252.41 141.51"/><polygon class="cls-68" points="254.49 147.73 254.48 150.21 248.01 146.47 248.01 143.99 254.49 147.73"/><polygon class="cls-3" points="254.49 147.73 257.41 146.03 257.4 148.51 254.48 150.21 254.49 147.73"/><polygon class="cls-71" points="248.01 143.99 250.94 142.29 257.41 146.03 254.49 147.73 248.01 143.99"/><polygon class="cls-68" points="250.09 150.22 250.09 152.69 243.61 148.96 243.62 146.48 250.09 150.22"/><polygon class="cls-3" points="250.09 150.22 253.01 148.52 253.01 150.99 250.09 152.69 250.09 150.22"/><polygon class="cls-71" points="243.62 146.48 246.54 144.78 253.01 148.52 250.09 150.22 243.62 146.48"/><polygon class="cls-76" points="270.22 129.98 270.21 130.69 269.93 130.53 269.93 129.82 270.22 129.98"/><polygon class="cls-76" points="270.95 130.41 270.95 131.12 270.67 130.95 270.67 130.25 270.95 130.41"/><polygon class="cls-76" points="271.69 130.84 271.69 131.55 271.4 131.38 271.4 130.67 271.69 130.84"/><polygon class="cls-76" points="272.43 131.27 272.43 131.97 272.14 131.81 272.14 131.1 272.43 131.27"/><polygon class="cls-76" points="273.17 131.69 273.17 132.4 272.88 132.24 272.88 131.53 273.17 131.69"/><polygon class="cls-76" points="273.91 132.12 273.9 132.83 273.62 132.66 273.62 131.96 273.91 132.12"/><polygon class="cls-76" points="270.22 131.68 270.21 132.39 269.93 132.22 269.93 131.52 270.22 131.68"/><polygon class="cls-76" points="270.95 132.11 270.95 132.82 270.67 132.65 270.67 131.94 270.95 132.11"/><polygon class="cls-76" points="271.69 132.54 271.69 133.24 271.4 133.08 271.4 132.37 271.69 132.54"/><polygon class="cls-76" points="272.43 132.96 272.43 133.67 272.14 133.51 272.14 132.8 272.43 132.96"/><polygon class="cls-76" points="273.17 133.39 273.17 134.1 272.88 133.93 272.88 133.23 273.17 133.39"/><polygon class="cls-76" points="273.91 133.82 273.9 134.53 273.62 134.36 273.62 133.65 273.91 133.82"/></g></svg>