<svg xmlns="http://www.w3.org/2000/svg" xmlns:xlink="http://www.w3.org/1999/xlink" viewBox="0 0 504 504"><defs><style>.cls-1{fill:none;}.cls-2{fill:url(#linear-gradient);}.cls-3{fill:#97a072;}.cls-4,.cls-58{fill:#5c515f;}.cls-4{opacity:0.6;}.cls-5{fill:url(#linear-gradient-2);}.cls-6{fill:#71c9c9;}.cls-7{fill:#61aaa8;}.cls-8{fill:#bca493;}.cls-9{fill:#79d7db;}.cls-10{fill:#b0eaea;}.cls-11{fill:#d8bdab;}.cls-12{fill:#edd4b9;}.cls-13{fill:url(#linear-gradient-3);}.cls-14{fill:url(#linear-gradient-4);}.cls-15{fill:url(#linear-gradient-5);}.cls-16{fill:url(#linear-gradient-6);}.cls-17{fill:url(#linear-gradient-7);}.cls-18{fill:url(#linear-gradient-8);}.cls-19{fill:url(#linear-gradient-9);}.cls-20{fill:#818963;}.cls-21{fill:#97a073;}.cls-22{fill:#aeba83;}.cls-23{fill:#c4d193;}.cls-24{fill:#c6a283;}.cls-25{fill:#ad8c74;}.cls-26{clip-path:url(#clip-path);}.cls-27{fill:#9e806c;}.cls-28{clip-path:url(#clip-path-2);}.cls-29{clip-path:url(#clip-path-3);}.cls-30{clip-path:url(#clip-path-4);}.cls-31{fill:url(#linear-gradient-10);}.cls-32{fill:url(#linear-gradient-11);}.cls-33{fill:url(#linear-gradient-12);}.cls-34{fill:url(#linear-gradient-13);}.cls-35{fill:url(#linear-gradient-14);}.cls-36{fill:url(#linear-gradient-15);}.cls-37{fill:url(#linear-gradient-16);}.cls-38{fill:#67b7b7;}.cls-39{fill:url(#linear-gradient-17);}.cls-40{isolation:isolate;}.cls-41{clip-path:url(#clip-path-5);}.cls-42{fill:#afad87;}.cls-43{fill:#fff;opacity:0.8;}.cls-44{fill:url(#linear-gradient-20);}.cls-45{fill:#15160f;opacity:0.1;}.cls-46{fill:url(#linear-gradient-21);}.cls-47{fill:url(#linear-gradient-22);}.cls-48{fill:url(#linear-gradient-23);}.cls-49{fill:url(#linear-gradient-24);}.cls-50{fill:url(#linear-gradient-25);}.cls-51{fill:url(#linear-gradient-26);}.cls-52{fill:url(#linear-gradient-27);}.cls-53{fill:url(#linear-gradient-28);}.cls-54{fill:url(#linear-gradient-29);}.cls-55{fill:#ccc;}.cls-56{fill:#b5b5b5;}.cls-57{fill:#727272;}.cls-59{fill:#a69bae;}.cls-60{fill:#908697;}.cls-61{fill:url(#linear-gradient-30);}.cls-62{fill:url(#linear-gradient-31);}.cls-63{fill:url(#linear-gradient-32);}</style><linearGradient id="linear-gradient" x1="9121.47" y1="289.83" x2="9137.25" y2="289.83" gradientTransform="matrix(-1, 0, 0, 1, 9377.82, 0)" gradientUnits="userSpaceOnUse"><stop offset="0" stop-color="#8c7d91"/><stop offset="1" stop-color="#5c515f"/></linearGradient><linearGradient id="linear-gradient-2" x1="251.82" y1="178.45" x2="355.95" y2="178.45" gradientUnits="userSpaceOnUse"><stop offset="0" stop-color="#6c7b52"/><stop offset="0.3" stop-color="#7c8c5e"/><stop offset="0.63" stop-color="#869766"/><stop offset="1" stop-color="#899b68"/></linearGradient><linearGradient id="linear-gradient-3" x1="8993.4" y1="159.66" x2="8991.97" y2="176.17" gradientTransform="matrix(-1, 0, 0, 1, 9384.4, -17.01)" gradientUnits="userSpaceOnUse"><stop offset="0" stop-color="#9eefef"/><stop offset="0.03" stop-color="#9deded" stop-opacity="0.93"/><stop offset="0.17" stop-color="#99e4e5" stop-opacity="0.65"/><stop offset="0.31" stop-color="#95ddde" stop-opacity="0.42"/><stop offset="0.43" stop-color="#93d7d9" stop-opacity="0.24"/><stop offset="0.54" stop-color="#91d3d5" stop-opacity="0.11"/><stop offset="0.63" stop-color="#8fd1d3" stop-opacity="0.03"/><stop offset="0.7" stop-color="#8fd0d2" stop-opacity="0"/></linearGradient><linearGradient id="linear-gradient-4" x1="9017.12" y1="211.53" x2="9016.28" y2="221.23" xlink:href="#linear-gradient-3"/><linearGradient id="linear-gradient-5" x1="8975.98" y1="186.77" x2="8974.85" y2="199.78" xlink:href="#linear-gradient-3"/><linearGradient id="linear-gradient-6" x1="8952.13" y1="176.61" x2="8951.29" y2="186.31" xlink:href="#linear-gradient-3"/><linearGradient id="linear-gradient-7" x1="9012.94" y1="181.64" x2="9012.1" y2="191.34" xlink:href="#linear-gradient-3"/><linearGradient id="linear-gradient-8" x1="9034.41" y1="165.49" x2="9033.57" y2="175.19" xlink:href="#linear-gradient-3"/><linearGradient id="linear-gradient-9" x1="9041.24" y1="190.83" x2="9040.3" y2="201.65" xlink:href="#linear-gradient-3"/><clipPath id="clip-path"><path class="cls-1" d="M198.74,256.38a57.12,57.12,0,0,1,.92-7.59h0c.06-.27.11-.52.17-.74.54-2,1.16-3.65,1.16-3.65a.52.52,0,0,1,.36,0l-.08,0,.1,0h0a.54.54,0,0,1,.19,0h0c.14,0,.26.1.2.44a33.54,33.54,0,0,0-1.35,7c-.25,3.6.78,10.67.25,11.49a.9.9,0,0,1-.43.36h0a1.14,1.14,0,0,1-.54.06l-.3-.06a1.77,1.77,0,0,0,.3.06,1.84,1.84,0,0,1-.92-.19S198.74,257.69,198.74,256.38Z"/></clipPath><clipPath id="clip-path-2"><path class="cls-1" d="M255.1,216.33a44.24,44.24,0,0,1,.71-5.88h0c0-.21.09-.41.13-.57.42-1.58.9-2.83.9-2.83a.4.4,0,0,1,.28,0l-.07,0,.08,0h0l.14,0h0c.1,0,.2.08.15.34a26,26,0,0,0-1,5.43c-.19,2.79.61,8.26.19,8.9a.7.7,0,0,1-.34.28h0a.89.89,0,0,1-.42,0l-.23,0,.23,0a1.43,1.43,0,0,1-.71-.15S255.1,217.34,255.1,216.33Z"/></clipPath><clipPath id="clip-path-3"><path class="cls-1" d="M192.08,267.11a57.12,57.12,0,0,1,.92-7.59h0c.06-.27.11-.52.17-.74.54-2,1.16-3.65,1.16-3.65a.52.52,0,0,1,.36,0l-.08,0,.1,0h0a.54.54,0,0,1,.19,0h0c.14,0,.26.1.2.44a33.54,33.54,0,0,0-1.35,7c-.25,3.6.78,10.67.25,11.49a.9.9,0,0,1-.43.36h0a1.14,1.14,0,0,1-.54.06l-.3-.06a1.77,1.77,0,0,0,.3.06,1.84,1.84,0,0,1-.92-.19S192.09,268.43,192.08,267.11Z"/></clipPath><clipPath id="clip-path-4"><path class="cls-1" d="M200.43,272.65a62.26,62.26,0,0,1,1-8.27h0c.06-.3.12-.57.18-.8.59-2.22,1.26-4,1.26-4a.57.57,0,0,1,.39,0l-.09,0,.11,0h0a.59.59,0,0,1,.2,0h0c.15,0,.28.11.22.48a36.56,36.56,0,0,0-1.47,7.65c-.27,3.92.85,11.63.27,12.52a1,1,0,0,1-.47.39h0a1.25,1.25,0,0,1-.59.07l-.33-.07a1.93,1.93,0,0,0,.33.07,2,2,0,0,1-1-.21S200.43,274.08,200.43,272.65Z"/></clipPath><linearGradient id="linear-gradient-10" x1="9106.96" y1="225.64" x2="9105.53" y2="242.15" xlink:href="#linear-gradient-3"/><linearGradient id="linear-gradient-11" x1="9130.68" y1="277.51" x2="9129.83" y2="287.21" xlink:href="#linear-gradient-3"/><linearGradient id="linear-gradient-12" x1="9089.53" y1="252.75" x2="9088.4" y2="265.76" xlink:href="#linear-gradient-3"/><linearGradient id="linear-gradient-13" x1="9065.68" y1="242.59" x2="9064.84" y2="252.29" xlink:href="#linear-gradient-3"/><linearGradient id="linear-gradient-14" x1="9126.5" y1="247.62" x2="9125.66" y2="257.32" xlink:href="#linear-gradient-3"/><linearGradient id="linear-gradient-15" x1="9147.96" y1="231.46" x2="9147.12" y2="241.16" xlink:href="#linear-gradient-3"/><linearGradient id="linear-gradient-16" x1="9154.8" y1="256.8" x2="9153.86" y2="267.63" xlink:href="#linear-gradient-3"/><linearGradient id="linear-gradient-17" x1="9121.47" y1="289.22" x2="9137.25" y2="289.22" gradientTransform="matrix(-1, 0, 0, 1, 9377.82, 0)" gradientUnits="userSpaceOnUse"><stop offset="0" stop-color="#8c9591"/><stop offset="1" stop-color="#5c575f"/></linearGradient><clipPath id="clip-path-5"><path class="cls-2" d="M240.57,294h0a1.16,1.16,0,0,0,1.37,1.14c2.21-.42,6.57-1.42,9.26-3.06a13.16,13.16,0,0,0,4.7-5.3,4.2,4.2,0,0,0,.44-1.88v-.5a13.43,13.43,0,0,1-5.14,6.3C247.54,293,240.79,294,240.57,294Z"/></clipPath><linearGradient id="linear-gradient-20" x1="147.88" y1="135.88" x2="356.12" y2="135.88" gradientUnits="userSpaceOnUse"><stop offset="0" stop-color="#899b68"/><stop offset="0.09" stop-color="#9da567"/><stop offset="0.26" stop-color="#beb565"/><stop offset="0.43" stop-color="#d8c164"/><stop offset="0.61" stop-color="#eaca63"/><stop offset="0.79" stop-color="#f5cf62"/><stop offset="1" stop-color="#f9d162"/></linearGradient><linearGradient id="linear-gradient-21" x1="147.88" y1="128.15" x2="356.12" y2="128.15" xlink:href="#linear-gradient-2"/><linearGradient id="linear-gradient-22" x1="147.88" y1="156.88" x2="356.12" y2="156.88" xlink:href="#linear-gradient-2"/><linearGradient id="linear-gradient-23" x1="200.46" y1="156.88" x2="351.23" y2="156.88" gradientUnits="userSpaceOnUse"><stop offset="0" stop-color="#f97e62"/><stop offset="0.15" stop-color="#f99662"/><stop offset="0.35" stop-color="#f9b062"/><stop offset="0.55" stop-color="#f9c262"/><stop offset="0.76" stop-color="#f9cd62"/><stop offset="1" stop-color="#f9d162"/></linearGradient><linearGradient id="linear-gradient-24" x1="2920.54" y1="203.44" x2="3128.78" y2="203.44" gradientTransform="matrix(-1, 0, 0, 1, 3159.96, 0)" xlink:href="#linear-gradient-20"/><linearGradient id="linear-gradient-25" x1="2920.54" y1="201.9" x2="3128.78" y2="201.9" gradientTransform="matrix(-1, 0, 0, 1, 3159.96, 0)" xlink:href="#linear-gradient-2"/><linearGradient id="linear-gradient-26" x1="2920.54" y1="224.44" x2="3128.78" y2="224.44" gradientTransform="matrix(-1, 0, 0, 1, 3159.96, 0)" xlink:href="#linear-gradient-2"/><linearGradient id="linear-gradient-27" x1="2951.72" y1="205.99" x2="3148.2" y2="205.99" gradientTransform="matrix(-1, 0, 0, 1, 3159.96, 0)" xlink:href="#linear-gradient-23"/><linearGradient id="linear-gradient-28" x1="2951.72" y1="230.87" x2="3148.2" y2="230.87" gradientTransform="matrix(-1, 0, 0, 1, 3159.96, 0)" xlink:href="#linear-gradient-23"/><linearGradient id="linear-gradient-29" x1="2951.72" y1="222.22" x2="3148.2" y2="222.22" gradientTransform="matrix(-1, 0, 0, 1, 3159.96, 0)" xlink:href="#linear-gradient-23"/><linearGradient id="linear-gradient-30" x1="212.37" y1="154.07" x2="237.9" y2="154.07" gradientUnits="userSpaceOnUse"><stop offset="0" stop-color="#8c7d91"/><stop offset="0.96" stop-color="#5c515f"/><stop offset="1"/></linearGradient><linearGradient id="linear-gradient-31" x1="226.49" y1="162.42" x2="252.39" y2="162.42" xlink:href="#linear-gradient-30"/><linearGradient id="linear-gradient-32" x1="240.98" y1="171.02" x2="266.83" y2="171.02" gradientUnits="userSpaceOnUse"><stop offset="0" stop-color="#8c7d91"/><stop offset="0.9" stop-color="#5c515f"/></linearGradient></defs><title>logos-mega</title><g id="Layer_16" data-name="Layer 16"><polygon class="cls-3" points="251.99 196.3 147.68 136.02 147.68 160.42 251.81 220.84 251.99 196.3"/><polygon class="cls-4" points="362.51 187.53 466.64 248.05 362.69 308.32 258.46 247.94 362.51 187.53"/><polygon class="cls-4" points="249.2 253.94 353.34 314.46 249.39 374.73 145.16 314.35 249.2 253.94"/><path class="cls-4" d="M238.54,249.9s-13-32.48-32.27-42.89-29.72-3.61-38.22-10.4-27.39-11-33.76-7.43-104,60.63-104,60.63L134.62,310.1Z"/><polygon class="cls-5" points="355.95 136.04 355.95 159.84 251.82 220.86 252 196.31 355.95 136.04"/><polygon class="cls-6" points="467.34 201.64 467.34 225.44 363.21 286.46 363.39 261.91 467.34 201.64"/><polygon class="cls-7" points="363.38 261.9 259.07 201.62 259.07 226.02 363.2 286.44 363.38 261.9"/><path class="cls-8" d="M356.68,160.17c-2.07.55,4.07.74,4.07.74a22.48,22.48,0,0,0,8.19-6.43c3.26-4.34-.56-2.4-.56-2.4A22.17,22.17,0,0,1,356.68,160.17Z"/><polygon class="cls-9" points="363.21 141.13 467.34 201.64 363.39 261.92 259.16 201.53 363.21 141.13"/><path class="cls-10" d="M379.29,150.48s2.75,6-1.24,10.43-16.4,9.89-23.28,10.28-16,1.72-20.17,9.48-7.78,5.7-8.45,11S313,196,310.23,199.21c-3.43,4-6.51,7.75-6.33,14.18s-17.69,3.81-17.69,3.81l-11.32-6.56,17.32-9.12,31.42-28.19L351,157.52,373.28,147Z"/><path class="cls-11" d="M299.74,210.65c0,5.95-20.11,2.74-20.11,2.74l-15.72-9.11,54.74-33.62L352,156l21.26-9,2.74,1.59s1,8.62-2.3,10.81-9.4,6-15.48,6.5-15.18,1-22.53,7.45-7.92,14.19-12.8,15.74c-5.76,1.83-14.46,5.08-16.1,7.24C304.38,199.49,299.74,210.65,299.74,210.65Z"/><path class="cls-12" d="M373.28,147s2.18,7.81-3.2,12.42-24.62.47-37.77,15.37-17.63,4.47-23.85,14-11.92,8.07-11.7,16.85c.21,8.29-23.94,3.83-23.94,3.83l-13.66-7.91,104-60.4Z"/><path class="cls-11" d="M323.64,170.12c0,2,.64,4.17,3.88,2.76s3.82-7.11,7.53-7.37,6.48-3.36,4.78-4.43-10.49,3-11.1,4.46S323.64,170.12,323.64,170.12Z"/><path class="cls-11" d="M287.68,205.07a12.57,12.57,0,0,0,4.68-5.52c1.09-2.58,5.05-10.5,4.29-11.5s-.31-5.51-1.15-6.25-.65,4.2-2.27,8.85-1.5,7.35-3.62,7.85S287.68,205.07,287.68,205.07Z"/><path class="cls-11" d="M351,157.52c3.32.45,12.52-3.15,12.23-5.16s-.9-.61-4.93-2.61-3.68,5.81-6.31,6.25S351,157.52,351,157.52Z"/><path class="cls-11" d="M356.68,160.17c-2.07.55,4.07.74,4.07.74a22.48,22.48,0,0,0,8.19-6.43c3.26-4.34-.56-2.4-.56-2.4A22.17,22.17,0,0,1,356.68,160.17Z"/><path class="cls-11" d="M285.11,191.74c-1.36-.31-2.39.21-3.87,1.6s-7,5.41-7.6,6.12c-1.83,2.26-.06,4,.28,4.72s1.67-2.59,4.11-5.2,3.06-3.52,4.71-4.13C284.22,194.29,286.47,192,285.11,191.74Z"/><path class="cls-13" d="M405.52,183.06s-11-4.3-11.37-7a2.27,2.27,0,0,1,2.33-2.68s-8.68-1.64-16,11.74S405.52,183.06,405.52,183.06Z"/><path class="cls-14" d="M376.29,232.45s-6.48-2.52-6.68-4.09a1.33,1.33,0,0,1,1.37-1.57s-5.1-1-9.38,6.9S376.29,232.45,376.29,232.45Z"/><path class="cls-15" d="M420.11,208.78s-8.69-3.38-9-5.49a1.79,1.79,0,0,1,1.83-2.11s-6.84-1.29-12.58,9.25S420.11,208.78,420.11,208.78Z"/><path class="cls-16" d="M441.15,197.28s-6.48-2.52-6.68-4.09a1.33,1.33,0,0,1,1.37-1.57s-5.1-1-9.38,6.9S441.15,197.28,441.15,197.28Z"/><path class="cls-17" d="M380.35,202.54s-6.48-2.52-6.68-4.09a1.33,1.33,0,0,1,1.37-1.57s-5.1-1-9.38,6.9S380.35,202.54,380.35,202.54Z"/><path class="cls-18" d="M358.82,186.47s-6.48-2.52-6.68-4.09a1.33,1.33,0,0,1,1.37-1.57s-5.1-1-9.38,6.9S358.82,186.47,358.82,186.47Z"/><path class="cls-19" d="M353,212.26s-7.23-2.82-7.45-4.56a1.49,1.49,0,0,1,1.52-1.76s-5.69-1.07-10.47,7.69S353,212.26,353,212.26Z"/><polygon class="cls-6" points="354.04 268.05 354.04 291.85 249.9 352.87 250.09 328.32 354.04 268.05"/><polygon class="cls-20" points="239.27 203.42 239.27 227.22 135.13 288.24 135.32 263.69 239.27 203.42"/><polygon class="cls-7" points="250.08 328.3 145.76 268.03 145.76 292.43 249.89 352.85 250.08 328.3"/><polygon class="cls-21" points="135.3 263.71 30.99 203.44 30.99 227.84 135.12 288.26 135.3 263.71"/><path class="cls-8" d="M243.37,226.57c-2.07.55,4.07.74,4.07.74a22.48,22.48,0,0,0,8.19-6.43c3.26-4.34-.56-2.4-.56-2.4A22.17,22.17,0,0,1,243.37,226.57Z"/><polygon class="cls-9" points="249.9 207.54 354.04 268.05 250.09 328.32 145.86 267.94 249.9 207.54"/><path class="cls-10" d="M266,216.88s2.75,6-1.24,10.43-16.4,9.89-23.28,10.28-16,1.72-20.17,9.48-5.32,15.57-6,20.86-3.25,7.29-2.84,11.5,6,7.54,6.21,14-2.15,15.49-2.15,15.49l-14.21-8.23L196.91,276l13.43-36.31,27.37-15.81L260,213.39Z"/><path class="cls-11" d="M262.71,215s1,8.62-2.3,10.81-9.4,6-15.48,6.5-15.18,1-22.53,7.45a34.92,34.92,0,0,0-10.88,20.39c-.76,5.06-1.77,14.12-3.8,15.92s-2.25,4.14,1.15,8.54,6.7,7.69,6.7,13.64-2,8.94-2,8.94L195.15,282l10.2-44.89,33.36-14.66,21.26-9Z"/><path class="cls-12" d="M260,213.39s2.18,7.81-3.2,12.42-24.62.47-37.77,15.37-7.75,23.18-14,32.7.31,9.52,4.7,16.56,3.83,16.72,3.83,16.72l-67.7-39.23,104-60.4Z"/><path class="cls-11" d="M223.21,227c0,1.33.42,2.76,2.56,1.83s2.52-4.7,5-4.87,4.28-2.22,3.16-2.93-6.94,2-7.34,2.95S223.21,227,223.21,227Z"/><path class="cls-11" d="M196.91,276a12.57,12.57,0,0,0,4.68-5.52c1.09-2.58,5.05-10.5,4.29-11.5s-.31-5.51-1.15-6.25-.65,4.2-2.27,8.85-1.5,7.35-3.62,7.85S196.91,276,196.91,276Z"/><path class="cls-11" d="M237.71,223.93c3.32.45,12.52-3.15,12.23-5.16s-.9-.61-4.93-2.61-3.68,5.81-6.31,6.25S237.71,223.93,237.71,223.93Z"/><path class="cls-11" d="M243.37,226.57c-2.07.55,4.07.74,4.07.74a22.48,22.48,0,0,0,8.19-6.43c3.26-4.34-.56-2.4-.56-2.4A22.17,22.17,0,0,1,243.37,226.57Z"/><path class="cls-11" d="M197.57,285c-.45,1.32,0,2.4,1.18,4s4.64,7.56,5.28,8.2c2.05,2.06,4,.48,4.73.22s-2.4-1.93-4.74-4.64-3.18-3.41-3.61-5.12C200,286.11,198,283.64,197.57,285Z"/><path class="cls-4" d="M184.82,263c-1.22-.23-2.27-.47-2.93-.64a.65.65,0,0,1-.55.25l-.14,0,.65,5s-5.48-3.31-1.3-5.55a14.36,14.36,0,0,0-3.75,2,1.76,1.76,0,0,0-1-.45,3.3,3.3,0,0,1,.78.62,13,13,0,0,0-2.12,2.41s0-.07,0-.19a4.18,4.18,0,0,1,1.68-4.27c1.26-1,3.43-.82,4.19-.72a3.55,3.55,0,0,1-2-2.17c-.59-2,1.83-3.4,1.83-3.4a6.41,6.41,0,0,0,0,3.08,3,3,0,0,1-1.25,0s.15.21,1.23.28l.88,2a.69.69,0,0,1,.5-.2.77.77,0,0,1,.36.09.41.41,0,0,1,.25.34.36.36,0,0,1-.13.26,45.64,45.64,0,0,0,6.55.86c3.6.18,10.67-.55,11.49-.18a.62.62,0,0,1,.43.69,1,1,0,0,1-.19.65h-7.12A74.5,74.5,0,0,1,184.82,263Z"/><path class="cls-22" d="M201.43,244.15l-8.1.92S198.26,239.27,201.43,244.15Z"/><path class="cls-23" d="M201.87,243.83s.44-3.4-2.07-5a8.27,8.27,0,0,0-5.17-1.15,18.06,18.06,0,0,1,3.39,2.12,3.84,3.84,0,0,0,.88-.78,1.55,1.55,0,0,1-.63,1s2.86,2.76,2.93,4S201.87,243.83,201.87,243.83Z"/><polygon class="cls-22" points="209.79 243.35 201.46 244.51 205.27 241.85 209.79 243.35"/><path class="cls-23" d="M201.46,244.51a4.57,4.57,0,0,1,3.53-3,5.26,5.26,0,0,1,4.8,1.83,12.65,12.65,0,0,0-4.34,0,2.12,2.12,0,0,1,0-1.25s-.29.15-.39,1.23Z"/><path class="cls-23" d="M201.5,244.32l-8.17.75S198.91,239.94,201.5,244.32Z"/><path class="cls-24" d="M200.36,263.26c.53-.82-.5-7.89-.25-11.49a33.53,33.53,0,0,1,1.35-7c0-.26,0-.37-.11-.41.16,0,.48-.09.39.41a33.54,33.54,0,0,0-1.35,7c-.25,3.6.78,10.67.25,11.49a1,1,0,0,1-1,.43A.91.91,0,0,0,200.36,263.26Z"/><path class="cls-25" d="M198.74,256.38a53.54,53.54,0,0,1,1.09-8.34c.54-2,1.16-3.65,1.16-3.65a.52.52,0,0,1,.36,0l-.08,0s-.62,1.62-1.16,3.65a53.54,53.54,0,0,0-1.09,8.34c0,1.31,0,7.12,0,7.12a2,2,0,0,0,.64.19,1.84,1.84,0,0,1-.92-.19S198.74,257.69,198.74,256.38Z"/><path class="cls-24" d="M199,256.38a53.54,53.54,0,0,1,1.09-8.34c.54-2,1.16-3.65,1.16-3.65l.08,0c.09,0,.16.16.11.41a33.53,33.53,0,0,0-1.35,7c-.25,3.6.78,10.67.25,11.49a.91.91,0,0,1-.7.43,2,2,0,0,1-.64-.19S199,257.69,199,256.38Z"/><path class="cls-25" d="M201.56,244.3a.6.6,0,0,0-.13.36.61.61,0,0,0,.61.61.61.61,0,0,0,.41-.16.6.6,0,0,1-.48.25.61.61,0,0,1-.61-.61A.61.61,0,0,1,201.56,244.3Z"/><path class="cls-24" d="M201.43,244.66a.6.6,0,0,1,.13-.36.61.61,0,0,1,.41-.16.61.61,0,0,1,.61.61.6.6,0,0,1-.13.36.61.61,0,0,1-.41.16A.61.61,0,0,1,201.43,244.66Z"/><path class="cls-25" d="M200.58,244.11a.59.59,0,0,0-.13.36.61.61,0,0,0,.61.61.6.6,0,0,0,.4-.16.6.6,0,0,1-.48.25.61.61,0,0,1-.61-.61A.6.6,0,0,1,200.58,244.11Z"/><path class="cls-24" d="M200.45,244.46a.59.59,0,0,1,.13-.36.6.6,0,0,1,.4-.16.61.61,0,0,1,.61.61.59.59,0,0,1-.13.36.6.6,0,0,1-.4.16A.61.61,0,0,1,200.45,244.46Z"/><path class="cls-22" d="M201.87,243.83s.82-2.93-.95-4.47a7.33,7.33,0,0,0-6.29-1.65S200.81,237,201.87,243.83Z"/><g class="cls-26"><path class="cls-27" d="M201.48,246a1.09,1.09,0,0,1-.58,0,.84.84,0,0,1-.52-.26h0c.4,0,.7.3,1.09.25Z"/><path class="cls-27" d="M201.35,246.59a1.09,1.09,0,0,1-.58,0,.84.84,0,0,1-.52-.26h0c.4,0,.7.3,1.09.25Z"/><path class="cls-27" d="M201.13,247.18a1.09,1.09,0,0,1-.58,0,.84.84,0,0,1-.52-.26h0c.4,0,.7.3,1.09.25Z"/><path class="cls-27" d="M201.11,247.76a1.26,1.26,0,0,1-.67,0,1.06,1.06,0,0,1-.6-.29h0c.45,0,.81.35,1.26.28Z"/><path class="cls-27" d="M200.89,248.54a1.26,1.26,0,0,1-.67,0,1.06,1.06,0,0,1-.6-.29h0c.45,0,.81.35,1.26.28Z"/><path class="cls-27" d="M200.75,249.46a1.26,1.26,0,0,1-.67,0,1.06,1.06,0,0,1-.6-.29h0c.45,0,.81.35,1.26.28Z"/><path class="cls-27" d="M200.58,250.5a1.26,1.26,0,0,1-.67,0,1.06,1.06,0,0,1-.61-.27h0c.45,0,.82.32,1.27.24Z"/><path class="cls-27" d="M200.49,251.32a1.26,1.26,0,0,1-.67,0,1.07,1.07,0,0,1-.62-.26h0c.45,0,.83.31,1.27.22Z"/><path class="cls-27" d="M200.41,252.15a1.26,1.26,0,0,1-.67,0,1.06,1.06,0,0,1-.62-.26h0c.45,0,.83.31,1.27.22Z"/><path class="cls-27" d="M200.38,253.29a1.43,1.43,0,0,1-.76,0,1.31,1.31,0,0,1-.7-.29h0c.51,0,.94.35,1.44.25Z"/><path class="cls-27" d="M200.49,254.42a1.62,1.62,0,0,1-.85.06,1.59,1.59,0,0,1-.8-.29h0a4.47,4.47,0,0,1,.82.19,1.76,1.76,0,0,0,.82,0Z"/><path class="cls-27" d="M200.47,255.52a1.82,1.82,0,0,1-.95.06,1.9,1.9,0,0,1-.89-.32h0a6.29,6.29,0,0,1,.91.22,2,2,0,0,0,.92,0Z"/><path class="cls-27" d="M200.57,257a1.88,1.88,0,0,1-1,.06,2,2,0,0,1-.92-.33h0a7,7,0,0,1,.94.22,2,2,0,0,0,.95,0Z"/><path class="cls-27" d="M200.71,258.13a2.06,2.06,0,0,1-1,.2,2.31,2.31,0,0,1-1-.22h0a9.39,9.39,0,0,1,1,.11,2.19,2.19,0,0,0,1-.09Z"/><path class="cls-27" d="M200.78,259.79a2.27,2.27,0,0,1-1.16.22,2.69,2.69,0,0,1-1.16-.24h0c.4,0,.78.08,1.16.13a2.41,2.41,0,0,0,1.14-.11Z"/><path class="cls-27" d="M201,261.47a2.52,2.52,0,0,1-1.26.23,3.11,3.11,0,0,1-1.26-.25h0c.43,0,.85.09,1.27.14a2.66,2.66,0,0,0,1.25-.12Z"/></g><path class="cls-4" d="M244.32,221.43c-.94-.18-1.76-.37-2.27-.49a.5.5,0,0,1-.42.19l-.11,0L242,225s-4.24-2.56-1-4.3a11.13,11.13,0,0,0-2.91,1.59,1.36,1.36,0,0,0-.75-.35,2.56,2.56,0,0,1,.61.48,10.1,10.1,0,0,0-1.64,1.86s0-.05,0-.15a3.24,3.24,0,0,1,1.3-3.31,4.63,4.63,0,0,1,3.25-.55,2.75,2.75,0,0,1-1.57-1.68c-.45-1.57,1.42-2.63,1.42-2.63a5,5,0,0,0,0,2.39,2.29,2.29,0,0,1-1,0s.11.16,1,.21l.69,1.53a.53.53,0,0,1,.39-.15.59.59,0,0,1,.28.07.32.32,0,0,1,.2.27.28.28,0,0,1-.1.2,35.35,35.35,0,0,0,5.07.67c2.79.14,8.26-.43,8.9-.14a.48.48,0,0,1,.33.54.79.79,0,0,1-.15.5h-5.51A57.71,57.71,0,0,1,244.32,221.43Z"/><path class="cls-22" d="M257.18,206.86l-6.27.71S254.73,203.08,257.18,206.86Z"/><path class="cls-23" d="M257.53,206.61s.34-2.63-1.6-3.85a6.4,6.4,0,0,0-4-.89,14,14,0,0,1,2.63,1.64,3,3,0,0,0,.68-.61,1.2,1.2,0,0,1-.49.75s2.22,2.14,2.27,3.09S257.53,206.61,257.53,206.61Z"/><polygon class="cls-22" points="263.66 206.24 257.21 207.13 260.16 205.07 263.66 206.24"/><path class="cls-23" d="M257.21,207.13a3.54,3.54,0,0,1,2.73-2.31,4.08,4.08,0,0,1,3.72,1.42,9.79,9.79,0,0,0-3.36,0,1.64,1.64,0,0,1,0-1s-.23.11-.3,1Z"/><path class="cls-23" d="M257.24,207l-6.33.58S255.24,203.6,257.24,207Z"/><path class="cls-24" d="M256.36,221.66c.41-.63-.39-6.11-.19-8.9a26,26,0,0,1,1-5.43c0-.2,0-.29-.09-.32.12,0,.37-.07.3.32a26,26,0,0,0-1,5.43c-.19,2.79.61,8.26.19,8.9a.75.75,0,0,1-.76.33A.7.7,0,0,0,256.36,221.66Z"/><path class="cls-25" d="M255.1,216.33a41.47,41.47,0,0,1,.85-6.46c.42-1.58.9-2.83.9-2.83a.4.4,0,0,1,.28,0l-.07,0s-.48,1.25-.9,2.83a41.47,41.47,0,0,0-.85,6.46c0,1,0,5.51,0,5.51a1.56,1.56,0,0,0,.5.15,1.43,1.43,0,0,1-.71-.15S255.11,217.34,255.1,216.33Z"/><path class="cls-24" d="M255.32,216.33a41.47,41.47,0,0,1,.85-6.46c.42-1.58.9-2.83.9-2.83l.07,0c.07,0,.12.12.09.32a26,26,0,0,0-1,5.43c-.19,2.79.61,8.26.19,8.9a.7.7,0,0,1-.54.33,1.56,1.56,0,0,1-.5-.15S255.32,217.34,255.32,216.33Z"/><path class="cls-25" d="M257.28,207a.46.46,0,0,0-.1.28.48.48,0,0,0,.48.48.47.47,0,0,0,.32-.13.47.47,0,0,1-.37.2.48.48,0,0,1-.48-.48A.47.47,0,0,1,257.28,207Z"/><path class="cls-24" d="M257.18,207.25a.46.46,0,0,1,.1-.28.47.47,0,0,1,.32-.13.48.48,0,0,1,.48.48.47.47,0,0,1-.1.28.47.47,0,0,1-.32.13A.48.48,0,0,1,257.18,207.25Z"/><path class="cls-25" d="M256.53,206.82a.46.46,0,0,0-.1.28.47.47,0,0,0,.47.47.47.47,0,0,0,.31-.12.46.46,0,0,1-.37.19.47.47,0,0,1-.47-.47A.46.46,0,0,1,256.53,206.82Z"/><path class="cls-24" d="M256.43,207.1a.46.46,0,0,1,.1-.28.46.46,0,0,1,.31-.12.47.47,0,0,1,.47.47.46.46,0,0,1-.1.28.47.47,0,0,1-.31.12A.47.47,0,0,1,256.43,207.1Z"/><path class="cls-22" d="M257.53,206.61s.63-2.27-.73-3.46a5.68,5.68,0,0,0-4.87-1.28A5.15,5.15,0,0,1,257.53,206.61Z"/><g class="cls-28"><path class="cls-27" d="M257.23,208.3a.84.84,0,0,1-.45,0,.68.68,0,0,1-.4-.2h0c.31,0,.54.23.85.19Z"/><path class="cls-27" d="M257.13,208.75a.84.84,0,0,1-.45,0,.68.68,0,0,1-.4-.2h0c.31,0,.54.23.85.19Z"/><path class="cls-27" d="M257,209.2a.84.84,0,0,1-.45,0,.68.68,0,0,1-.4-.2h0c.31,0,.54.23.85.19Z"/><path class="cls-27" d="M256.94,209.65a1,1,0,0,1-.52,0,.86.86,0,0,1-.47-.22h0c.35,0,.63.27,1,.22Z"/><path class="cls-27" d="M256.77,210.26a1,1,0,0,1-.52,0,.86.86,0,0,1-.47-.22h0c.35,0,.63.27,1,.22Z"/><path class="cls-27" d="M256.66,211a1,1,0,0,1-.52,0,.86.86,0,0,1-.47-.22h0c.35,0,.63.27,1,.22Z"/><path class="cls-27" d="M256.53,211.77a1,1,0,0,1-.52,0,.86.86,0,0,1-.47-.21h0c.35,0,.64.25,1,.18Z"/><path class="cls-27" d="M256.46,212.41a1,1,0,0,1-.52,0,.86.86,0,0,1-.48-.2h0c.35,0,.64.24,1,.17Z"/><path class="cls-27" d="M256.4,213.05a1,1,0,0,1-.52,0,.86.86,0,0,1-.48-.2h0c.35,0,.64.24,1,.17Z"/><path class="cls-27" d="M256.37,213.94a1.11,1.11,0,0,1-.59,0,1.06,1.06,0,0,1-.54-.22h0c.39,0,.73.27,1.12.2Z"/><path class="cls-27" d="M256.46,214.81a1.25,1.25,0,0,1-.66,0,1.28,1.28,0,0,1-.62-.22h0c.44,0,.83.28,1.27.18Z"/><path class="cls-27" d="M256.45,215.66a1.41,1.41,0,0,1-.73,0,1.53,1.53,0,0,1-.69-.25h0c.49.05.93.32,1.42.2Z"/><path class="cls-27" d="M256.52,216.78a1.46,1.46,0,0,1-.76,0,1.61,1.61,0,0,1-.72-.25h0c.5.06,1,.33,1.46.21Z"/><path class="cls-27" d="M256.63,217.68a1.59,1.59,0,0,1-.81.15,1.85,1.85,0,0,1-.81-.17h0c.28,0,.54.06.81.09a1.7,1.7,0,0,0,.8-.07Z"/><path class="cls-27" d="M256.69,219a1.76,1.76,0,0,1-.9.17,2.16,2.16,0,0,1-.89-.18h0c.31,0,.6.07.9.1a1.87,1.87,0,0,0,.88-.08Z"/><path class="cls-27" d="M256.85,220.27a2,2,0,0,1-1,.18,2.49,2.49,0,0,1-1-.19h0c.34,0,.66.08,1,.11a2.06,2.06,0,0,0,1-.1Z"/></g><path class="cls-4" d="M178.16,273.7c-1.22-.23-2.27-.47-2.93-.64a.65.65,0,0,1-.55.25l-.14,0,.65,5s-5.48-3.31-1.3-5.55a14.36,14.36,0,0,0-3.75,2,1.76,1.76,0,0,0-1-.45,3.3,3.3,0,0,1,.78.62,13,13,0,0,0-2.12,2.41s0-.07,0-.19a4.18,4.18,0,0,1,1.68-4.27c1.26-1,3.43-.82,4.19-.72a3.55,3.55,0,0,1-2-2.17c-.59-2,1.83-3.4,1.83-3.4a6.41,6.41,0,0,0,0,3.08,3,3,0,0,1-1.25,0s.15.21,1.23.28l.88,2a.69.69,0,0,1,.5-.2.77.77,0,0,1,.36.09.41.41,0,0,1,.25.34.36.36,0,0,1-.13.26,45.64,45.64,0,0,0,6.55.86c3.6.18,10.67-.55,11.49-.18a.62.62,0,0,1,.43.69,1,1,0,0,1-.19.65h-7.12A74.5,74.5,0,0,1,178.16,273.7Z"/><path class="cls-22" d="M194.77,254.88l-8.1.92S191.61,250,194.77,254.88Z"/><path class="cls-23" d="M195.21,254.56s.44-3.4-2.07-5a8.27,8.27,0,0,0-5.17-1.15,18.06,18.06,0,0,1,3.39,2.12,3.84,3.84,0,0,0,.88-.78,1.55,1.55,0,0,1-.63,1s2.86,2.76,2.93,4S195.21,254.56,195.21,254.56Z"/><polygon class="cls-22" points="203.13 254.09 194.81 255.24 198.62 252.58 203.13 254.09"/><path class="cls-23" d="M194.81,255.24a4.57,4.57,0,0,1,3.53-3,5.26,5.26,0,0,1,4.8,1.83,12.65,12.65,0,0,0-4.34,0,2.12,2.12,0,0,1,0-1.25s-.29.15-.39,1.23Z"/><path class="cls-23" d="M194.84,255.05l-8.17.75S192.26,250.68,194.84,255.05Z"/><path class="cls-24" d="M193.7,274c.53-.82-.5-7.89-.25-11.49a33.53,33.53,0,0,1,1.35-7c0-.26,0-.37-.11-.41.16,0,.48-.09.39.41a33.54,33.54,0,0,0-1.35,7c-.25,3.6.78,10.67.25,11.49a1,1,0,0,1-1,.43A.91.91,0,0,0,193.7,274Z"/><path class="cls-25" d="M192.08,267.12a53.54,53.54,0,0,1,1.09-8.34c.54-2,1.16-3.65,1.16-3.65a.52.52,0,0,1,.36,0l-.08,0s-.62,1.62-1.16,3.65a53.54,53.54,0,0,0-1.09,8.34c0,1.31,0,7.12,0,7.12a2,2,0,0,0,.64.19,1.84,1.84,0,0,1-.92-.19S192.09,268.43,192.08,267.12Z"/><path class="cls-24" d="M192.36,267.12a53.54,53.54,0,0,1,1.09-8.34c.54-2,1.16-3.65,1.16-3.65l.08,0c.09,0,.16.16.11.41a33.53,33.53,0,0,0-1.35,7c-.25,3.6.78,10.67.25,11.49a.91.91,0,0,1-.7.43,2,2,0,0,1-.64-.19S192.36,268.43,192.36,267.12Z"/><path class="cls-25" d="M194.9,255a.6.6,0,0,0-.13.36.61.61,0,0,0,.61.61.61.61,0,0,0,.41-.16.6.6,0,0,1-.48.25.61.61,0,0,1-.61-.61A.61.61,0,0,1,194.9,255Z"/><path class="cls-24" d="M194.77,255.39a.6.6,0,0,1,.13-.36.61.61,0,0,1,.41-.16.61.61,0,0,1,.61.61.6.6,0,0,1-.13.36.61.61,0,0,1-.41.16A.61.61,0,0,1,194.77,255.39Z"/><path class="cls-25" d="M193.93,254.84a.59.59,0,0,0-.13.36.61.61,0,0,0,.61.61.6.6,0,0,0,.4-.16.6.6,0,0,1-.48.25.61.61,0,0,1-.61-.61A.6.6,0,0,1,193.93,254.84Z"/><path class="cls-24" d="M193.8,255.2a.59.59,0,0,1,.13-.36.6.6,0,0,1,.4-.16.61.61,0,0,1,.61.61.59.59,0,0,1-.13.36.6.6,0,0,1-.4.16A.61.61,0,0,1,193.8,255.2Z"/><path class="cls-22" d="M195.21,254.56s.82-2.93-.95-4.47a7.33,7.33,0,0,0-6.29-1.65S194.16,247.75,195.21,254.56Z"/><g class="cls-29"><path class="cls-27" d="M194.82,256.74a1.09,1.09,0,0,1-.58,0,.84.84,0,0,1-.52-.26h0c.4,0,.7.3,1.09.25Z"/><path class="cls-27" d="M194.7,257.33a1.09,1.09,0,0,1-.58,0,.84.84,0,0,1-.52-.26h0c.4,0,.7.3,1.09.25Z"/><path class="cls-27" d="M194.47,257.91a1.09,1.09,0,0,1-.58,0,.84.84,0,0,1-.52-.26h0c.4,0,.7.3,1.09.25Z"/><path class="cls-27" d="M194.46,258.49a1.26,1.26,0,0,1-.67,0,1.06,1.06,0,0,1-.6-.29h0c.45,0,.81.35,1.26.28Z"/><path class="cls-27" d="M194.23,259.28a1.26,1.26,0,0,1-.67,0,1.06,1.06,0,0,1-.6-.29h0c.45,0,.81.35,1.26.28Z"/><path class="cls-27" d="M194.09,260.19a1.26,1.26,0,0,1-.67,0,1.06,1.06,0,0,1-.6-.29h0c.45,0,.81.35,1.26.28Z"/><path class="cls-27" d="M193.93,261.23a1.26,1.26,0,0,1-.67,0,1.06,1.06,0,0,1-.61-.27h0c.45,0,.82.32,1.27.24Z"/><path class="cls-27" d="M193.83,262.06a1.26,1.26,0,0,1-.67,0,1.06,1.06,0,0,1-.62-.26h0c.45,0,.83.31,1.27.22Z"/><path class="cls-27" d="M193.75,262.88a1.26,1.26,0,0,1-.67,0,1.06,1.06,0,0,1-.62-.26h0c.45,0,.83.31,1.27.22Z"/><path class="cls-27" d="M193.72,264a1.43,1.43,0,0,1-.76,0,1.31,1.31,0,0,1-.7-.29h0c.51,0,.94.35,1.44.25Z"/><path class="cls-27" d="M193.83,265.15a1.62,1.62,0,0,1-.85.06,1.59,1.59,0,0,1-.8-.29h0a4.48,4.48,0,0,1,.82.19,1.76,1.76,0,0,0,.82,0Z"/><path class="cls-27" d="M193.82,266.25a1.82,1.82,0,0,1-.95.06A1.9,1.9,0,0,1,192,266h0a6.28,6.28,0,0,1,.91.22,2,2,0,0,0,.92,0Z"/><path class="cls-27" d="M193.91,267.69a1.88,1.88,0,0,1-1,.06,2,2,0,0,1-.92-.33h0a7,7,0,0,1,.94.22,2,2,0,0,0,.95,0Z"/><path class="cls-27" d="M194.05,268.86a2.06,2.06,0,0,1-1,.2,2.31,2.31,0,0,1-1-.22h0a9.39,9.39,0,0,1,1,.11,2.19,2.19,0,0,0,1-.09Z"/><path class="cls-27" d="M194.13,270.53a2.27,2.27,0,0,1-1.16.22,2.7,2.7,0,0,1-1.16-.24h0c.4,0,.78.08,1.16.13a2.41,2.41,0,0,0,1.14-.11Z"/><path class="cls-27" d="M194.34,272.21a2.52,2.52,0,0,1-1.26.23,3.11,3.11,0,0,1-1.26-.25h0c.43,0,.85.09,1.27.14a2.66,2.66,0,0,0,1.25-.12Z"/></g><path class="cls-4" d="M185.25,279.83c-1.32-.25-2.48-.52-3.2-.69a.71.71,0,0,1-.6.27l-.15,0,.71,5.47s-6-3.61-1.42-6.05c-1.43.28-4.09,2.23-4.09,2.23a1.92,1.92,0,0,0-1.06-.49,3.6,3.6,0,0,1,.86.68,14.21,14.21,0,0,0-2.31,2.62s0-.08,0-.21A4.56,4.56,0,0,1,175.8,279c1.37-1.11,3.74-.9,4.57-.78a3.87,3.87,0,0,1-2.21-2.37c-.64-2.21,2-3.71,2-3.71a7,7,0,0,0,0,3.36,3.22,3.22,0,0,1-1.36,0s.16.23,1.34.3l1,2.16a.75.75,0,0,1,.55-.22.83.83,0,0,1,.39.1.45.45,0,0,1,.28.37.39.39,0,0,1-.14.28,49.74,49.74,0,0,0,7.14.94c3.92.19,11.63-.6,12.52-.19a.67.67,0,0,1,.46.76,1.11,1.11,0,0,1-.21.71h-7.76A81.21,81.21,0,0,1,185.25,279.83Z"/><path class="cls-22" d="M203.36,259.32l-8.83,1S199.91,254,203.36,259.32Z"/><path class="cls-23" d="M203.84,259s.48-3.71-2.26-5.42a9,9,0,0,0-5.63-1.26,19.69,19.69,0,0,1,3.7,2.31,4.19,4.19,0,0,0,1-.86,1.69,1.69,0,0,1-.69,1.06s3.12,3,3.2,4.35S203.84,259,203.84,259Z"/><polygon class="cls-22" points="212.47 258.45 203.4 259.71 207.55 256.81 212.47 258.45"/><path class="cls-23" d="M203.4,259.71a5,5,0,0,1,3.85-3.25,5.74,5.74,0,0,1,5.23,2,13.78,13.78,0,0,0-4.73,0,2.31,2.31,0,0,1,0-1.36s-.32.16-.42,1.34Z"/><path class="cls-23" d="M203.44,259.5l-8.91.82S200.62,254.73,203.44,259.5Z"/><path class="cls-24" d="M202.2,280.16c.58-.89-.55-8.6-.27-12.52A36.55,36.55,0,0,1,203.4,260c.05-.28,0-.4-.12-.45.17-.05.52-.09.42.45a36.56,36.56,0,0,0-1.47,7.65c-.27,3.92.85,11.63.27,12.52a1.05,1.05,0,0,1-1.07.46A1,1,0,0,0,202.2,280.16Z"/><path class="cls-25" d="M200.43,272.65a58.36,58.36,0,0,1,1.19-9.1c.59-2.22,1.26-4,1.26-4a.57.57,0,0,1,.39,0l-.09,0s-.68,1.76-1.26,4a58.36,58.36,0,0,0-1.19,9.1c0,1.43,0,7.76,0,7.76a2.19,2.19,0,0,0,.7.21,2,2,0,0,1-1-.21S200.43,274.08,200.43,272.65Z"/><path class="cls-24" d="M200.73,272.65a58.36,58.36,0,0,1,1.19-9.1c.59-2.22,1.26-4,1.26-4l.09,0c.1,0,.17.17.12.45a36.55,36.55,0,0,0-1.47,7.65c-.27,3.92.85,11.63.27,12.52a1,1,0,0,1-.76.46,2.19,2.19,0,0,1-.7-.21S200.74,274.08,200.73,272.65Z"/><path class="cls-25" d="M203.5,259.48a.65.65,0,0,0-.14.39.67.67,0,0,0,.67.67.66.66,0,0,0,.44-.18.66.66,0,0,1-.53.28.67.67,0,0,1-.67-.67A.66.66,0,0,1,203.5,259.48Z"/><path class="cls-24" d="M203.36,259.87a.65.65,0,0,1,.14-.39.66.66,0,0,1,.44-.18.67.67,0,0,1,.67.67.65.65,0,0,1-.14.39.66.66,0,0,1-.44.18A.67.67,0,0,1,203.36,259.87Z"/><path class="cls-25" d="M202.44,259.27a.65.65,0,0,0-.14.39.66.66,0,0,0,.66.66.65.65,0,0,0,.44-.17.65.65,0,0,1-.52.27.66.66,0,0,1-.66-.66A.65.65,0,0,1,202.44,259.27Z"/><path class="cls-24" d="M202.3,259.66a.65.65,0,0,1,.14-.39.65.65,0,0,1,.44-.17.66.66,0,0,1,.66.66.65.65,0,0,1-.14.39.65.65,0,0,1-.44.17A.66.66,0,0,1,202.3,259.66Z"/><path class="cls-22" d="M203.84,259s.89-3.19-1-4.87a8,8,0,0,0-6.86-1.8S202.69,251.54,203.84,259Z"/><g class="cls-30"><path class="cls-27" d="M203.42,261.35a1.19,1.19,0,0,1-.64,0,.92.92,0,0,1-.57-.28h0a1.74,1.74,0,0,1,.6.17,1.34,1.34,0,0,0,.6.1Z"/><path class="cls-27" d="M203.28,262a1.18,1.18,0,0,1-.64,0,.92.92,0,0,1-.57-.28h0a1.74,1.74,0,0,1,.6.17,1.34,1.34,0,0,0,.6.1Z"/><path class="cls-27" d="M203,262.62a1.18,1.18,0,0,1-.64,0,.92.92,0,0,1-.57-.28h0a1.74,1.74,0,0,1,.6.17,1.34,1.34,0,0,0,.6.1Z"/><path class="cls-27" d="M203,263.25a1.37,1.37,0,0,1-.73,0,1.16,1.16,0,0,1-.66-.31h0c.49,0,.88.38,1.37.31Z"/><path class="cls-27" d="M202.77,264.11a1.37,1.37,0,0,1-.73,0,1.16,1.16,0,0,1-.66-.31h0c.49,0,.88.38,1.37.31Z"/><path class="cls-27" d="M202.62,265.1a1.37,1.37,0,0,1-.73,0,1.16,1.16,0,0,1-.66-.31h0c.49,0,.88.38,1.37.31Z"/><path class="cls-27" d="M202.44,266.24a1.37,1.37,0,0,1-.73,0A1.16,1.16,0,0,1,201,266h0c.49,0,.9.35,1.38.26Z"/><path class="cls-27" d="M202.33,267.14a1.37,1.37,0,0,1-.73,0,1.16,1.16,0,0,1-.67-.28v0c.49,0,.9.34,1.39.24Z"/><path class="cls-27" d="M202.25,268a1.37,1.37,0,0,1-.73,0,1.16,1.16,0,0,1-.67-.28h0c.49,0,.9.34,1.39.24Z"/><path class="cls-27" d="M202.22,269.29a1.56,1.56,0,0,1-.82,0,1.43,1.43,0,0,1-.76-.31h0a3.47,3.47,0,0,1,.78.2,1.72,1.72,0,0,0,.79.07Z"/><path class="cls-27" d="M202.34,270.51a1.76,1.76,0,0,1-.92.07,1.73,1.73,0,0,1-.87-.32v0a4.86,4.86,0,0,1,.89.2,1.92,1.92,0,0,0,.89,0Z"/><path class="cls-27" d="M202.32,271.71a2,2,0,0,1-1,.07,2.07,2.07,0,0,1-1-.35v0a6.84,6.84,0,0,1,1,.23,2.13,2.13,0,0,0,1,0Z"/><path class="cls-27" d="M202.43,273.28a2,2,0,0,1-1.07.07,2.19,2.19,0,0,1-1-.36v0a7.65,7.65,0,0,1,1,.24,2.2,2.2,0,0,0,1,0Z"/><path class="cls-27" d="M202.58,274.56a2.24,2.24,0,0,1-1.14.22,2.51,2.51,0,0,1-1.14-.24v0a10.24,10.24,0,0,1,1.14.12,2.39,2.39,0,0,0,1.13-.1Z"/><path class="cls-27" d="M202.66,276.37a2.48,2.48,0,0,1-1.26.23,2.94,2.94,0,0,1-1.26-.26v0c.43,0,.85.08,1.26.14a2.63,2.63,0,0,0,1.24-.12Z"/><path class="cls-27" d="M202.89,278.2a2.74,2.74,0,0,1-1.38.25,3.39,3.39,0,0,1-1.38-.27v0c.47,0,.92.1,1.38.16a2.9,2.9,0,0,0,1.36-.14Z"/></g><path class="cls-31" d="M292.22,249.47s-11-4.3-11.37-7a2.27,2.27,0,0,1,2.33-2.68s-8.68-1.64-16,11.74S292.22,249.47,292.22,249.47Z"/><path class="cls-32" d="M263,298.86s-6.48-2.52-6.68-4.09a1.33,1.33,0,0,1,1.37-1.57s-5.1-1-9.38,6.9S263,298.86,263,298.86Z"/><path class="cls-33" d="M306.81,275.19s-8.69-3.38-9-5.49a1.79,1.79,0,0,1,1.83-2.11s-6.84-1.29-12.58,9.25S306.81,275.19,306.81,275.19Z"/><path class="cls-34" d="M327.84,263.69s-6.48-2.52-6.68-4.09a1.33,1.33,0,0,1,1.37-1.57s-5.1-1-9.38,6.9S327.84,263.69,327.84,263.69Z"/><path class="cls-35" d="M267,268.95s-6.48-2.52-6.68-4.09a1.33,1.33,0,0,1,1.37-1.57s-5.1-1-9.38,6.9S267,268.95,267,268.95Z"/><path class="cls-36" d="M245.52,252.88s-6.48-2.52-6.68-4.09a1.33,1.33,0,0,1,1.37-1.57s-5.1-1-9.38,6.9S245.52,252.88,245.52,252.88Z"/><path class="cls-37" d="M239.72,278.67s-7.23-2.82-7.45-4.56a1.49,1.49,0,0,1,1.52-1.76s-5.69-1.07-10.47,7.69S239.72,278.67,239.72,278.67Z"/><path class="cls-38" d="M214.51,228.08s18.25,6.49,21.28,10.1l-7.28-2.43s-13.17-6.58-16-6.49Z"/><path class="cls-9" d="M222.05,245.83s-7.2-12.3-16.83-12.3l8-4.69,7.28,2.5a6.69,6.69,0,0,1,1.13.51l14.15,6.33Z"/><path class="cls-9" d="M219.25,251.41a14.51,14.51,0,0,0-2.06-11.8c-4-6,6-1.11,6-1.11l1.6,10.54Z"/><path class="cls-39" d="M255.14,284.39a13.43,13.43,0,0,0-6.83,1.77c-3.69,2.24-7.68,7.8-7.75,7.89.22,0,7-1.06,10.63-3.3a13.43,13.43,0,0,0,5.14-6.3A9.3,9.3,0,0,0,255.14,284.39Z"/><g class="cls-40"><path class="cls-2" d="M240.57,294h0a1.16,1.16,0,0,0,1.37,1.14c2.21-.42,6.57-1.42,9.26-3.06a13.16,13.16,0,0,0,4.7-5.3,4.2,4.2,0,0,0,.44-1.88v-.5a13.43,13.43,0,0,1-5.14,6.3C247.54,293,240.79,294,240.57,294Z"/><g class="cls-41"><g class="cls-40"><path class="cls-2" d="M240.57,294h0a1.16,1.16,0,0,0,1.37,1.14c2.21-.42,6.57-1.42,9.26-3.06a13,13,0,0,0,4.55-5,5.09,5.09,0,0,0,.59-2.38v-.28a13.43,13.43,0,0,1-5.14,6.3c-3.66,2.23-10.41,3.27-10.63,3.3"/></g></g></g><path class="cls-42" d="M249.67,288.53a.16.16,0,0,0,.16-.16v-16.2a.16.16,0,1,0-.32,0v16.2A.16.16,0,0,0,249.67,288.53Z"/><path class="cls-43" d="M249.19,272.17s-6.11,8.67-5.44,15.28l5.44-3.27s-.92-1,0-3.48A16,16,0,0,1,249.19,272.17Z"/><path class="cls-44" d="M147.88,136.31s13-32.48,32.27-42.89,29.72-3.61,38.22-10.4,26.54-8.64,33.76-7.43c23.72,4,104,60.63,104,60.63L251.8,196.51Z"/><path class="cls-45" d="M198.16,87.4s29.57,5.66,39.82,30.34,37.87-17,37.87-17S219.84,82.23,198.16,87.4Z"/><path class="cls-46" d="M223.82,135.43c14-10.4,21.52-3.61,27.67-10.4s19.21-8.64,24.44-7.43c9.52,2.2,31.61,20.59,49.42,36.54l30.77-17.82S323.26,91.56,301.58,88.2c-23-3.56-36.57,16.34-70,16.34-30.52,0-83.72,31.68-83.72,31.68l55.9,32.3C207.68,158.08,214.79,142.15,223.82,135.43Z"/><path class="cls-47" d="M325.35,154.14c-17.81-16-39.9-34.34-49.42-36.54-5.23-1.21-18.29.64-24.44,7.43s-13.68,0-27.67,10.4c-9,6.72-16.15,22.65-20,33.09l48.43,28Z"/><path class="cls-45" d="M297.28,87.77s25.53,12.53,30.15,30-18.49,45.8-18.49,45.8l47.18-27.33S319.39,85.79,297.28,87.77Z"/><path class="cls-48" d="M325.35,154.14c-17.81-16-39.9-34.34-49.42-36.54-5.23-1.21-18.29.64-24.44,7.43s-13.68,0-27.67,10.4c-9,6.72-16.15,22.65-20,33.09l48.43,28Z"/><path class="cls-45" d="M232.13,130.75s11.3-4.79,24.41,11.59,38,29.45,38,29.45l30.78-17.65s-28.13,4.17-43-6S248.86,123.12,232.13,130.75Z"/><path class="cls-49" d="M239.42,203.88s-13-32.48-32.27-42.89-29.72-3.61-38.22-10.4-26.54-8.64-33.76-7.43c-23.72,4-104,60.63-104,60.63l104.32,60.29Z"/><path class="cls-45" d="M189.15,155s-29.57,5.66-39.82,30.34-37.87-17-37.87-17S167.46,149.79,189.15,155Z"/><path class="cls-50" d="M163.48,203c-14-10.4-21.52-3.61-27.67-10.4s-19.21-8.64-24.44-7.43c-9.52,2.2-31.61,20.59-49.42,36.54L31.18,203.88S64,172.08,85.72,168.72c23-3.56,36.57,3.38,70,3.38,30.52,0,83.72,31.68,83.72,31.68l-55.9,32.3C179.63,225.65,172.52,209.71,163.48,203Z"/><path class="cls-51" d="M62,221.7c17.81-16,39.9-34.34,49.42-36.54,5.23-1.21,18.29.64,24.44,7.43s13.68,0,27.67,10.4c9,6.72,16.15,22.65,20,33.09l-48.43,28Z"/><path class="cls-52" d="M144.71,196.24c-3.46-.34-6.3-.79-8.89-3.65-6.15-6.79-19.21-8.64-24.44-7.43-9.52,2.2-44.75,20-65.89,27l25.91,15c11.37-2.14,26-5.81,34.33-11.48C117.36,207.72,131.23,196.94,144.71,196.24Z"/><path class="cls-53" d="M163.48,203a33,33,0,0,0-9.84-5.21c-3.93-.52-12.56.12-22.16,12.12-8.67,10.84-18.28,27.95-23.79,38.29l27.41,15.88,68.82-39.63C183.53,224.44,172.52,209.71,163.48,203Z"/><path class="cls-54" d="M153.64,197.78a40.47,40.47,0,0,0-8.93-1.54c-13.48.7-27.34,11.48-39,19.44-8.3,5.67-23,9.34-34.33,11.48l36.3,21c5.51-10.34,15.12-27.45,23.79-38.29C141.08,197.9,149.7,197.26,153.64,197.78Z"/><path class="cls-45" d="M153.64,197.78a40.47,40.47,0,0,0-8.93-1.54c-13.48.7-27.34,11.48-39,19.44-8.3,5.67-23,9.34-34.33,11.48l36.3,21c5.51-10.34,15.12-27.45,23.79-38.29C141.08,197.9,149.7,197.26,153.64,197.78Z"/><polygon class="cls-4" points="247.2 174.16 317.69 215.12 247.32 255.92 176.77 215.04 247.2 174.16"/><polygon class="cls-55" points="177.26 188.41 247.72 229.26 317.96 188.49 247.61 147.65 177.26 188.41"/><polygon class="cls-56" points="177.38 188.49 177.38 204.56 247.67 245.74 247.55 229.17 177.38 188.49"/><polygon class="cls-57" points="247.55 229.17 317.96 188.49 317.96 204.96 247.67 245.74 247.55 229.17"/><polygon class="cls-4" points="255.3 215.04 272.01 215.04 317.96 188.49 279.78 166.32 255.3 215.04"/><path class="cls-58" d="M251.94,174.83a6,6,0,0,0,.16-1.34l.21-72.56c0,.08,0,.15,0,.23s0,.16,0,.23,0,.17,0,.25,0,.16,0,.23,0,.17-.05.25,0,.16,0,.23,0,.16-.07.25,0,.15-.07.23l-.09.25-.09.23-.11.25-.11.23-.13.24-.12.22-.16.24-.14.22-.18.24-.16.21-.2.24-.18.21-.23.24-.19.2-.25.23-.21.19-.28.23-.21.18-.32.24-.22.16-.4.27-.18.12-.62.38A25.5,25.5,0,0,1,234,111v72.57a25.41,25.41,0,0,0,13-3,10.83,10.83,0,0,0,4.36-4.25,6.9,6.9,0,0,0,.35-.81A6.4,6.4,0,0,0,251.94,174.83Z"/><path class="cls-59" d="M222.51,108l-.62-.38-.19-.13-.4-.27-.2-.15-.34-.25-.22-.18-.29-.24-.21-.19-.26-.24-.19-.2-.23-.24-.18-.21-.21-.24-.16-.21-.18-.24-.14-.22-.16-.24-.12-.22-.14-.25-.11-.23-.11-.25-.09-.23-.09-.25c0-.08,0-.16-.07-.23s-.05-.17-.07-.25v0c0-.07,0-.14,0-.21s0-.17-.05-.25,0-.16,0-.24,0-.17,0-.25,0-.16,0-.24,0-.17,0-.25,0,0,0,0l-.21,72.56c0,2.61,1.72,5.22,5.16,7.21a25,25,0,0,0,11.74,3V111A24.89,24.89,0,0,1,222.51,108Z"/><path class="cls-1" d="M251.81,103.3l-.11.25Z"/><path class="cls-1" d="M250.33,105.59l-.23.24Z"/><path class="cls-1" d="M252,102.82l-.09.25Z"/><path class="cls-1" d="M251.59,103.77l-.13.24Z"/><path class="cls-1" d="M249.45,106.45l-.28.23Z"/><path class="cls-1" d="M250.7,105.14l-.2.24Z"/><path class="cls-1" d="M249.91,106l-.25.23Z"/><path class="cls-1" d="M249,106.86l-.32.24Z"/><path class="cls-1" d="M251,104.69l-.18.24Z"/><path class="cls-1" d="M247.85,107.65l-.62.38Z"/><path class="cls-1" d="M251.34,104.23l-.16.24Z"/><path class="cls-1" d="M248.42,107.26l-.4.27Z"/><path class="cls-1" d="M252.28,101.38c0,.08,0,.17,0,.25C252.27,101.54,252.28,101.46,252.28,101.38Z"/><path class="cls-1" d="M252.23,101.86c0,.08,0,.17-.05.25C252.19,102,252.21,101.94,252.23,101.86Z"/><path class="cls-1" d="M252.13,102.34c0,.08,0,.16-.07.25C252.08,102.51,252.11,102.42,252.13,102.34Z"/><path class="cls-60" d="M217.36,101.33c0,.08,0,.17,0,.25s0,.16,0,.24,0,.17.05.25,0,.16.05.23,0,.17.07.25,0,.16.07.23l.09.25.09.23.11.25.11.23.14.25.12.22.16.24.14.22.18.24.16.21.21.24.18.21.23.24.19.2.26.24.21.19.29.24.22.18.34.25.2.15.4.27.19.13.62.38A24.89,24.89,0,0,0,234,111a25.5,25.5,0,0,0,13.19-3l.62-.38.18-.12.4-.27.22-.16.32-.24.21-.18.28-.23.21-.19.25-.23.19-.2.23-.24.18-.21.2-.24.16-.21.18-.24.14-.22.16-.24.12-.22.13-.24.11-.23.11-.25.09-.23.09-.25c0-.08,0-.15.07-.23s.05-.16.07-.25,0-.16,0-.23,0-.17.05-.25,0-.16,0-.23,0-.17,0-.25,0-.16,0-.23c.11-2.68-1.6-5.39-5.15-7.44-6.85-4-17.92-4-24.72,0-3.39,2-5.09,4.55-5.08,7.14,0,.08,0,.17,0,.25S217.36,101.25,217.36,101.33Z"/><path class="cls-58" d="M283.29,194.65a6,6,0,0,0,.16-1.34l.21-72.56c0,.08,0,.15,0,.23s0,.16,0,.23,0,.17,0,.25,0,.16,0,.23,0,.17-.05.25,0,.16,0,.23,0,.16-.07.25,0,.15-.07.23l-.09.25-.09.23-.11.25-.11.23-.13.24-.12.22-.16.24-.14.22-.18.24-.16.21-.2.24-.18.21-.23.24-.19.2-.25.23-.21.19-.28.23-.21.18-.32.24-.22.16-.4.27-.18.12-.62.38a25.5,25.5,0,0,1-13.19,3v72.57a25.41,25.41,0,0,0,13-3,10.83,10.83,0,0,0,4.36-4.25,6.9,6.9,0,0,0,.35-.81A6.4,6.4,0,0,0,283.29,194.65Z"/><path class="cls-59" d="M253.86,127.85l-.62-.38-.19-.13-.4-.27-.2-.15-.34-.25-.22-.18-.29-.24-.21-.19-.26-.24-.19-.2-.23-.24-.18-.21-.21-.24-.16-.21-.18-.24-.14-.22-.16-.24-.12-.22-.14-.25-.11-.23-.11-.25-.09-.23-.09-.25c0-.08,0-.16-.07-.23s-.05-.17-.07-.25v0c0-.07,0-.14,0-.21s0-.17-.05-.25,0-.16,0-.24,0-.17,0-.25,0-.16,0-.24,0-.17,0-.25,0,0,0,0l-.21,72.56c0,2.61,1.72,5.22,5.16,7.21a25,25,0,0,0,11.74,3V130.81A24.89,24.89,0,0,1,253.86,127.85Z"/><path class="cls-60" d="M248.72,121.16c0,.08,0,.17,0,.25s0,.16,0,.24,0,.17.05.25,0,.16.05.23,0,.17.07.25,0,.16.07.23l.09.25.09.23.11.25.11.23.14.25.12.22.16.24.14.22.18.24.16.21.21.24.18.21.23.24.19.2.26.24.21.19.29.24.22.18.34.25.2.15.4.27.19.13.62.38a24.89,24.89,0,0,0,11.53,3,25.5,25.5,0,0,0,13.19-3l.62-.38.18-.12.4-.27.22-.16.32-.24.21-.18.28-.23.21-.19.25-.23.19-.2.23-.24.18-.21.2-.24.16-.21.18-.24.14-.22.16-.24.12-.22.13-.24.11-.23.11-.25.09-.23.09-.25c0-.08,0-.15.07-.23s.05-.16.07-.25,0-.16,0-.23,0-.17.05-.25,0-.16,0-.23,0-.17,0-.25,0-.16,0-.23c.11-2.68-1.6-5.39-5.15-7.44-6.85-4-17.92-4-24.72,0-3.39,2-5.09,4.55-5.08,7.14,0,.08,0,.17,0,.25S248.71,121.08,248.72,121.16Z"/><path class="cls-60" d="M250.5,105.38l-.18.21Z"/><path class="cls-60" d="M250.86,104.93l-.16.21Z"/><path class="cls-60" d="M251.46,104l-.12.22Z"/><path class="cls-60" d="M251.9,103.07l-.09.23Z"/><path class="cls-60" d="M251.7,103.54l-.11.23Z"/><path class="cls-60" d="M252.18,102.11c0,.08,0,.16,0,.23C252.15,102.26,252.16,102.19,252.18,102.11Z"/><path class="cls-60" d="M252.26,101.63c0,.08,0,.16,0,.23C252.24,101.78,252.25,101.71,252.26,101.63Z"/><path class="cls-60" d="M251.18,104.47l-.14.22Z"/><path class="cls-60" d="M252.3,101.14c0,.08,0,.16,0,.23C252.29,101.3,252.29,101.22,252.3,101.14Z"/><path class="cls-60" d="M252.06,102.59c0,.08,0,.15-.07.23C252,102.74,252,102.67,252.06,102.59Z"/><path class="cls-60" d="M250.1,105.82l-.19.2Z"/><path class="cls-60" d="M248,107.53l-.18.12Z"/><path class="cls-60" d="M249.17,106.68l-.21.18Z"/><path class="cls-60" d="M249.66,106.25l-.21.19Z"/><path class="cls-60" d="M248.64,107.1l-.22.16Z"/><polygon class="cls-60" points="207.72 169.93 219.16 163.28 221.76 164.78 210.32 171.43 207.72 169.93"/><polygon class="cls-58" points="207.74 163.1 219.18 156.46 219.16 163.28 207.72 169.93 207.74 163.1"/><polygon class="cls-60" points="215.72 174.55 227.16 167.9 229.76 169.4 218.32 176.05 215.72 174.55"/><polygon class="cls-58" points="215.74 167.72 227.18 161.08 227.16 167.9 215.72 174.55 215.74 167.72"/><polygon class="cls-60" points="209.13 156.32 220.57 149.67 223.79 151.53 212.35 158.17 209.13 156.32"/><polygon class="cls-60" points="223.72 179.17 235.16 172.52 237.77 174.02 226.33 180.67 223.72 179.17"/><polygon class="cls-58" points="223.74 172.34 235.18 165.7 235.16 172.52 223.72 179.17 223.74 172.34"/><polygon class="cls-60" points="231.73 183.79 243.17 177.14 245.77 178.64 234.33 185.29 231.73 183.79"/><polygon class="cls-60" points="202.81 136.77 214.25 130.12 220.62 133.8 209.18 140.45 202.81 136.77"/><polygon class="cls-58" points="209.18 140.45 220.62 133.8 220.57 149.67 209.13 156.32 209.18 140.45"/><polygon class="cls-58" points="231.75 176.97 243.19 170.32 243.17 177.14 231.73 183.79 231.75 176.97"/><polygon class="cls-61" points="212.37 148.47 223.81 141.82 237.9 159.68 226.46 166.32 212.37 148.47"/><polygon class="cls-60" points="239.73 188.41 251.17 181.76 253.77 183.26 242.33 189.91 239.73 188.41"/><polygon class="cls-58" points="239.75 181.59 251.19 174.94 251.17 181.76 239.73 188.41 239.75 181.59"/><polygon class="cls-60" points="247.73 193.03 259.17 186.38 261.77 187.88 250.34 194.53 247.73 193.03"/><polygon class="cls-62" points="226.49 156.81 237.93 150.16 252.39 168.04 240.95 174.69 226.49 156.81"/><polygon class="cls-58" points="247.75 186.21 259.19 179.56 259.17 186.38 247.73 193.03 247.75 186.21"/><polygon class="cls-58" points="255.39 183.03 266.83 176.38 266.74 208.39 255.3 215.04 255.39 183.03"/><polygon class="cls-63" points="240.97 165.67 252.41 159.02 266.83 176.38 255.39 183.03 240.97 165.67"/><path class="cls-59" d="M241,165.67,255.39,183l-.09,32-52.63-30.39.09-32,0-15.87,6.38,3.68,0,15.87,3.21,1.85,0-9.7,14.09,17.85,0-9.51,14.46,17.88Zm-14.65,15,0-6.82-2.6-1.5,0,6.82,2.6,1.5m-8-4.62,0-6.82-2.6-1.5,0,6.82,2.6,1.5m-8-4.62,0-6.82-2.6-1.5,0,6.82,2.6,1.5m32,18.48,0-6.82-2.6-1.5,0,6.82,2.6,1.5m-8-4.62,0-6.82-2.6-1.5,0,6.82,2.6,1.5m16,9.24,0-6.82-2.6-1.5,0,6.82,2.6,1.5"/><path class="cls-1" d="M232.16,114.58l-.14-.22Z"/><path class="cls-1" d="M233.77,116.34l-.21-.19Z"/><path class="cls-1" d="M234.27,116.76l-.22-.18Z"/><path class="cls-1" d="M233.31,115.92l-.19-.2Z"/><path class="cls-1" d="M232.88,115.48l-.18-.21Z"/><path class="cls-1" d="M234.82,117.17l-.2-.15Z"/><path class="cls-1" d="M235.4,117.56l-.19-.13Z"/><path class="cls-1" d="M232.5,115l-.16-.21Z"/><path class="cls-1" d="M231.19,112.69c0-.08,0-.16-.07-.23C231.14,112.54,231.16,112.62,231.19,112.69Z"/><path class="cls-1" d="M231.37,113.17l-.09-.23Z"/><path class="cls-1" d="M230.87,111c0,.08,0,.16,0,.24C230.88,111.16,230.88,111.08,230.87,111Z"/><path class="cls-1" d="M265.46,184.74a6.4,6.4,0,0,1-.21.71A6.4,6.4,0,0,0,265.46,184.74Z"/><path class="cls-1" d="M230.91,111.49c0,.08,0,.16,0,.24C230.93,111.65,230.92,111.57,230.91,111.49Z"/><path class="cls-1" d="M231.59,113.65l-.11-.23Z"/><path class="cls-1" d="M231,112c0,.07,0,.14,0,.21v0C231,112.13,231,112.06,231,112Z"/><path class="cls-1" d="M231.85,114.11l-.12-.22Z"/><path class="cls-60" d="M231.28,112.94l-.09-.25Z"/><path class="cls-60" d="M232,114.36l-.16-.24Z"/><path class="cls-60" d="M231.73,113.89l-.14-.25Z"/><path class="cls-60" d="M232.71,115.27l-.21-.24Z"/><path class="cls-60" d="M232.34,114.82l-.18-.24Z"/><path class="cls-60" d="M230.91,111.49c0-.08,0-.17,0-.25C230.89,111.33,230.9,111.41,230.91,111.49Z"/><path class="cls-60" d="M233.11,115.72l-.23-.24Z"/><path class="cls-60" d="M230.87,111c0-.08,0-.17,0-.25C230.86,110.84,230.87,110.92,230.87,111Z"/><path class="cls-60" d="M231,112c0-.08,0-.17-.05-.25C231,111.81,231,111.89,231,112Z"/><path class="cls-60" d="M231.12,112.46c0-.08-.05-.17-.07-.25C231.07,112.3,231.09,112.38,231.12,112.46Z"/><path class="cls-60" d="M231.48,113.42l-.11-.25Z"/><path class="cls-60" d="M233.56,116.15l-.26-.24Z"/><path class="cls-60" d="M234.06,116.58l-.29-.24Z"/><path class="cls-60" d="M234.61,117l-.34-.25Z"/><path class="cls-60" d="M235.21,117.43l-.4-.27Z"/><path class="cls-60" d="M236,117.94l-.62-.38Z"/><path class="cls-60" d="M216.39,119.31c1.25.72,1.25,1.89,0,2.61a5,5,0,0,1-4.51,0c-1.25-.72-1.26-1.89,0-2.61A5,5,0,0,1,216.39,119.31Z"/><path class="cls-59" d="M211.9,121.92a1.85,1.85,0,0,1-.88-1,1.11,1.11,0,0,1-.06-.35l0,13.23a1.6,1.6,0,0,0,.94,1.31,4.62,4.62,0,0,0,2.26.54V122.46A4.6,4.6,0,0,1,211.9,121.92Z"/><path class="cls-58" d="M217.33,120.62a1.58,1.58,0,0,1-.93,1.3,4.59,4.59,0,0,1-2.28.54v13.23a4.57,4.57,0,0,0,2.24-.54,1.69,1.69,0,0,0,.91-1.12,1.09,1.09,0,0,0,0-.18Z"/><path class="cls-60" d="M211.75,127.21a.88.88,0,0,1,0,1.66,3.15,3.15,0,0,1-2.86,0,.88.88,0,0,1,0-1.66A3.15,3.15,0,0,1,211.75,127.21Z"/><path class="cls-59" d="M208.89,128.87a1.17,1.17,0,0,1-.56-.61.7.7,0,0,1,0-.23l0,8.4a1,1,0,0,0,.6.83,2.93,2.93,0,0,0,1.44.34v-8.4A2.92,2.92,0,0,1,208.89,128.87Z"/><path class="cls-58" d="M212.34,128a1,1,0,0,1-.59.82,2.91,2.91,0,0,1-1.45.34v8.4a2.9,2.9,0,0,0,1.42-.34,1.07,1.07,0,0,0,.58-.71.69.69,0,0,0,0-.11Z"/></g></svg>