<svg xmlns="http://www.w3.org/2000/svg" xmlns:xlink="http://www.w3.org/1999/xlink" viewBox="0 0 504 504"><defs><style>.cls-1,.cls-4{fill:none;}.cls-2{fill:#556040;}.cls-3{fill:#f9d162;}.cls-4{stroke:#e5bd5c;stroke-linecap:round;stroke-linejoin:round;stroke-width:2.21px;}.cls-5{fill:#d4c0dd;}.cls-6{fill:#6c6170;}.cls-7{fill:url(#linear-gradient);}.cls-24,.cls-8{fill:#5c515f;}.cls-23,.cls-8{opacity:0.6;}.cls-9{fill:url(#linear-gradient-2);}.cls-10{fill:url(#linear-gradient-3);}.cls-11{fill:#a78746;}.cls-12{fill:#f2d651;}.cls-13{fill:#d8ae5b;}.cls-14{fill:#c19e4f;}.cls-15{fill:#d8bdab;}.cls-16{fill:#f47160;}.cls-17{fill:#c45c4e;}.cls-18{fill:url(#linear-gradient-4);}.cls-19{fill:url(#linear-gradient-5);}.cls-20{fill:url(#linear-gradient-6);}.cls-21{fill:#e26e5a;}.cls-22{fill:#f97e62;}.cls-25{fill:url(#linear-gradient-7);}.cls-26{fill:url(#green_halftone);}.cls-27{fill:url(#linear-gradient-8);}.cls-28{fill:url(#green_halftone-7);}.cls-29{fill:url(#linear-gradient-9);}.cls-30{fill:url(#linear-gradient-10);}.cls-31{fill:url(#linear-gradient-11);}.cls-32{fill:#b5b5b5;}.cls-33{fill:#727272;}.cls-34{fill:#ccc;}.cls-35{fill:#a7a0af;}.cls-36{fill:#817887;}.cls-37{fill:#bdb3c6;}.cls-38{fill:#9c93a3;}.cls-39{fill:#85778a;}</style><linearGradient id="linear-gradient" x1="184.49" y1="125.38" x2="186.51" y2="125.38" gradientUnits="userSpaceOnUse"><stop offset="0.01" stop-color="#d4c0dd"/><stop offset="1" stop-color="#464049"/></linearGradient><linearGradient id="linear-gradient-2" x1="246.18" y1="140.15" x2="248.2" y2="140.15" xlink:href="#linear-gradient"/><linearGradient id="linear-gradient-3" x1="276.36" y1="128.12" x2="278.65" y2="128.12" xlink:href="#linear-gradient"/><linearGradient id="linear-gradient-4" x1="69.75" y1="190.76" x2="71.77" y2="190.76" xlink:href="#linear-gradient"/><linearGradient id="linear-gradient-5" x1="131.44" y1="205.54" x2="133.46" y2="205.54" xlink:href="#linear-gradient"/><linearGradient id="linear-gradient-6" x1="161.63" y1="193.5" x2="163.91" y2="193.5" xlink:href="#linear-gradient"/><linearGradient id="linear-gradient-7" x1="252.69" y1="282.9" x2="260.02" y2="282.9" gradientUnits="userSpaceOnUse"><stop offset="0" stop-color="#bace8d"/><stop offset="1" stop-color="#899b68"/></linearGradient><pattern id="green_halftone" data-name="green halftone" width="10" height="10" patternTransform="translate(3.72 49.79) scale(0.03)" patternUnits="userSpaceOnUse" viewBox="0 0 10 10"><rect class="cls-1" width="10" height="10"/><circle class="cls-2" cx="7.5" cy="10" r="1.66" transform="translate(-3.57 15.81) rotate(-80.82)"/><circle class="cls-2" cx="2.5" cy="10" r="1.66" transform="translate(-7.77 10.87) rotate(-80.82)"/><circle class="cls-2" cx="10" cy="5" r="1.66" transform="translate(3.47 14.07) rotate(-80.82)"/><circle class="cls-2" cx="5" cy="5" r="1.66" transform="translate(-0.73 9.14) rotate(-80.82)"/><circle class="cls-2" cy="5" r="1.66" transform="translate(-4.94 4.2) rotate(-80.82)"/><circle class="cls-2" cx="7.5" r="1.66" transform="translate(6.3 7.4) rotate(-80.82)"/><circle class="cls-2" cx="2.5" r="1.66" transform="translate(2.1 2.47) rotate(-80.82)"/></pattern><linearGradient id="linear-gradient-8" x1="252.06" y1="221.47" x2="258.27" y2="221.47" xlink:href="#linear-gradient-7"/><pattern id="green_halftone-7" data-name="green halftone" width="10" height="10" patternTransform="translate(3.15 40.08) scale(0.02)" patternUnits="userSpaceOnUse" viewBox="0 0 10 10"><rect class="cls-1" width="10" height="10"/><circle class="cls-2" cx="7.5" cy="10" r="1.66" transform="translate(-3.57 15.81) rotate(-80.82)"/><circle class="cls-2" cx="2.5" cy="10" r="1.66" transform="translate(-7.77 10.87) rotate(-80.82)"/><circle class="cls-2" cx="10" cy="5" r="1.66" transform="translate(3.47 14.07) rotate(-80.82)"/><circle class="cls-2" cx="5" cy="5" r="1.66" transform="translate(-0.73 9.14) rotate(-80.82)"/><circle class="cls-2" cy="5" r="1.66" transform="translate(-4.94 4.2) rotate(-80.82)"/><circle class="cls-2" cx="7.5" r="1.66" transform="translate(6.3 7.4) rotate(-80.82)"/><circle class="cls-2" cx="2.5" r="1.66" transform="translate(2.1 2.47) rotate(-80.82)"/></pattern><linearGradient id="linear-gradient-9" x1="296.97" y1="191.99" x2="298.98" y2="191.99" xlink:href="#linear-gradient"/><linearGradient id="linear-gradient-10" x1="358.66" y1="206.77" x2="360.67" y2="206.77" xlink:href="#linear-gradient"/><linearGradient id="linear-gradient-11" x1="388.84" y1="194.73" x2="391.12" y2="194.73" xlink:href="#linear-gradient"/></defs><title>logos-mega</title><g id="Layer_16" data-name="Layer 16"><polygon class="cls-3" points="144.17 138 248.31 198.38 352.12 138.12 248.15 77.75 144.17 138"/><line class="cls-4" x1="156.91" y1="137.55" x2="202.92" y2="164.36"/><line class="cls-4" x1="161.33" y1="134.79" x2="207.34" y2="161.61"/><line class="cls-4" x1="165.84" y1="132.13" x2="211.86" y2="158.94"/><line class="cls-4" x1="170.49" y1="129.59" x2="216.5" y2="156.4"/><line class="cls-4" x1="174.8" y1="126.71" x2="220.81" y2="153.53"/><line class="cls-4" x1="179.44" y1="124.17" x2="225.45" y2="150.99"/><line class="cls-4" x1="184.08" y1="121.3" x2="230.1" y2="148.12"/><line class="cls-4" x1="189.39" y1="118.43" x2="235.41" y2="145.24"/><line class="cls-4" x1="194.7" y1="115.55" x2="240.72" y2="142.37"/><line class="cls-4" x1="199.68" y1="112.68" x2="245.69" y2="139.5"/><line class="cls-4" x1="253.78" y1="137.85" x2="299.8" y2="164.67"/><line class="cls-4" x1="258.2" y1="135.1" x2="304.22" y2="161.92"/><line class="cls-4" x1="262.72" y1="132.44" x2="308.73" y2="159.25"/><line class="cls-4" x1="267.36" y1="129.89" x2="313.38" y2="156.71"/><line class="cls-4" x1="271.67" y1="127.02" x2="317.69" y2="153.84"/><line class="cls-4" x1="276.31" y1="124.48" x2="322.33" y2="151.3"/><line class="cls-4" x1="280.96" y1="121.61" x2="326.97" y2="148.42"/><line class="cls-4" x1="286.27" y1="118.73" x2="332.28" y2="145.55"/><line class="cls-4" x1="291.58" y1="115.86" x2="337.59" y2="142.68"/><line class="cls-4" x1="296.55" y1="112.99" x2="342.57" y2="139.8"/><line class="cls-4" x1="293.53" y1="109.5" x2="247.52" y2="136.32"/><line class="cls-4" x1="289.11" y1="106.75" x2="243.1" y2="133.57"/><line class="cls-4" x1="284.6" y1="104.08" x2="238.59" y2="130.9"/><line class="cls-4" x1="279.96" y1="101.54" x2="233.94" y2="128.36"/><line class="cls-4" x1="275.65" y1="98.67" x2="229.63" y2="125.48"/><line class="cls-4" x1="271" y1="96.13" x2="224.99" y2="122.94"/><line class="cls-4" x1="266.36" y1="93.25" x2="220.35" y2="120.07"/><line class="cls-4" x1="261.05" y1="90.38" x2="215.04" y2="117.2"/><line class="cls-4" x1="255.74" y1="87.51" x2="209.73" y2="114.32"/><line class="cls-4" x1="250.76" y1="84.63" x2="204.75" y2="111.45"/><line class="cls-4" x1="292.87" y1="166.24" x2="246.85" y2="193.05"/><line class="cls-4" x1="288.45" y1="163.49" x2="242.43" y2="190.3"/><line class="cls-4" x1="283.93" y1="160.82" x2="237.92" y2="187.63"/><line class="cls-4" x1="279.29" y1="158.28" x2="233.28" y2="185.09"/><line class="cls-4" x1="274.98" y1="155.4" x2="228.97" y2="182.22"/><line class="cls-4" x1="270.34" y1="152.86" x2="224.32" y2="179.68"/><line class="cls-4" x1="265.69" y1="149.99" x2="219.68" y2="176.81"/><line class="cls-4" x1="260.38" y1="147.12" x2="214.37" y2="173.93"/><line class="cls-4" x1="255.07" y1="144.24" x2="209.06" y2="171.06"/><line class="cls-4" x1="250.1" y1="141.37" x2="204.08" y2="168.19"/><path class="cls-5" d="M185,112.52a21,21,0,0,1-1.84-2.92,32.2,32.2,0,0,1-1.39-3,26.59,26.59,0,0,1-1-3.07c-.14-.52-.26-1-.35-1.56,0-.26-.09-.53-.12-.79a7.8,7.8,0,0,1-.06-.8h0q.29.35.54.72c.17.24.33.48.48.73.31.49.58,1,.85,1.47a28.22,28.22,0,0,1,1.36,3,30,30,0,0,1,1,3.07,16.67,16.67,0,0,1,.57,3.15Z"/><path class="cls-6" d="M180.19,100.36q.29.35.54.72c.17.24.33.48.48.73.31.49.58,1,.85,1.47a28.22,28.22,0,0,1,1.36,3,30,30,0,0,1,1,3.07,16.67,16.67,0,0,1,.57,3.15h0"/><path class="cls-5" d="M176.48,122l0,0q.16-.36.35-.69c.12-.22.25-.43.39-.64.27-.42.55-.82.85-1.21a22.39,22.39,0,0,1,1.93-2.19,25.3,25.3,0,0,1,2.17-2,15.31,15.31,0,0,1,2.48-1.64"/><path class="cls-6" d="M184.62,113.69l0,0a15.56,15.56,0,0,1-1.6,2.52,25.42,25.42,0,0,1-1.91,2.21,22.3,22.3,0,0,1-2.15,2c-.38.3-.78.6-1.19.87l-.63.4q-.32.19-.67.36"/><path class="cls-5" d="M186,111.39c-1.07,0-3.42,1.26-3.54,2.64s3.19.82,3.54.69,1.44-.82,1.3-1.85S187,111.39,186,111.39Z"/><rect class="cls-7" x="184.49" y="113.87" width="2.02" height="23.01"/><path class="cls-6" d="M182.43,114.3s4.15-.14,4.33-2.72c0,0,1.35,1.89-.47,3S182.2,114.62,182.43,114.3Z"/><path class="cls-6" d="M198.47,115.34v0q-.41.06-.81.09l-.81,0c-.54,0-1.08,0-1.63,0a30.76,30.76,0,0,1-3.25-.34c-1.08-.17-2.17-.38-3.26-.65a22.86,22.86,0,0,1-3.26-1.05v0"/><path class="cls-5" d="M185.45,113.41a19.62,19.62,0,0,1,3.25-.08c1.08.05,2.17.16,3.25.31a32,32,0,0,1,3.26.63c.54.14,1.09.29,1.63.46l.81.28q.41.15.81.33"/><path class="cls-8" d="M209.34,145.26a6.79,6.79,0,0,0,.37-.57c.11-.19.21-.38.31-.57.19-.38.36-.76.51-1.15a15.55,15.55,0,0,0,.69-2.29,16,16,0,0,0,.35-2.29c0-.35,0-.69,0-1h.47a2.6,2.6,0,0,0,1.41-.34h0a.73.73,0,0,0,.21-.57,1.54,1.54,0,0,0-.26-.73c.84-.08,1.67-.2,2.49-.33,1.14-.2,2.26-.44,3.38-.71s2.22-.59,3.31-1c.54-.19,1.09-.38,1.62-.6l.8-.34q.4-.18.79-.38h0v0l-.88,0-.87.08c-.58.07-1.15.15-1.72.25-1.14.2-2.26.45-3.37.73s-2.22.61-3.31,1c-.83.29-1.65.59-2.45.94a3.59,3.59,0,0,0-2.43-1.45,1.16,1.16,0,0,0-.29,0h0c-.08,0-.19,0-.3.13a.76.76,0,0,0-.21.21c-.21-.18-.41-.37-.63-.55a24,24,0,0,0-2.15-1.53,24.65,24.65,0,0,0-2.41-1.36c-.43-.21-.87-.41-1.33-.6l-.71-.27-.75-.24,0,0a5.17,5.17,0,0,0,.39.47c.14.15.29.3.44.45.3.29.62.57,1,.84a21.47,21.47,0,0,0,2.17,1.51c.77.47,1.58.93,2.44,1.34.45.21.91.42,1.38.62a2,2,0,0,0,0,.4H185.63v1.42h24.77a1.93,1.93,0,0,0,.45.3c-.21.42-.39.84-.56,1.25a17.85,17.85,0,0,0-.72,2.29,14.21,14.21,0,0,0-.38,2.29,10.48,10.48,0,0,0,0,1.15c0,.19,0,.38,0,.57a4.26,4.26,0,0,0,.1.57Z"/><path class="cls-5" d="M246.67,127.3a21,21,0,0,1-1.84-2.92,32.2,32.2,0,0,1-1.39-3,26.59,26.59,0,0,1-1-3.07c-.14-.52-.26-1-.35-1.56,0-.26-.09-.53-.12-.79a7.8,7.8,0,0,1-.06-.8h0q.29.35.54.72c.17.24.33.48.48.73.31.49.58,1,.85,1.47a28.22,28.22,0,0,1,1.36,3,30,30,0,0,1,1,3.07,16.67,16.67,0,0,1,.57,3.15Z"/><path class="cls-6" d="M241.88,115.14q.29.35.54.72c.17.24.33.48.48.73.31.49.58,1,.85,1.47a28.22,28.22,0,0,1,1.36,3,30,30,0,0,1,1,3.07,16.67,16.67,0,0,1,.57,3.15h0"/><path class="cls-5" d="M238.17,136.82l0,0q.16-.36.35-.69c.12-.22.25-.43.39-.64.27-.42.55-.82.85-1.21a22.39,22.39,0,0,1,1.93-2.19,25.3,25.3,0,0,1,2.17-2,15.31,15.31,0,0,1,2.48-1.64"/><path class="cls-6" d="M246.31,128.47l0,0a15.56,15.56,0,0,1-1.6,2.52,25.42,25.42,0,0,1-1.91,2.21,22.3,22.3,0,0,1-2.15,2c-.38.3-.78.6-1.19.87l-.63.4q-.32.19-.67.36"/><path class="cls-5" d="M247.64,126.17c-1.07,0-3.42,1.26-3.54,2.64s3.19.82,3.54.69,1.44-.82,1.3-1.85S248.72,126.17,247.64,126.17Z"/><rect class="cls-9" x="246.18" y="128.65" width="2.02" height="23.01"/><path class="cls-6" d="M244.12,129.07s4.15-.14,4.33-2.72c0,0,1.35,1.89-.47,3S243.89,129.39,244.12,129.07Z"/><path class="cls-6" d="M260.16,130.12v0q-.41.06-.81.09l-.81,0c-.54,0-1.08,0-1.63,0a30.76,30.76,0,0,1-3.25-.34c-1.08-.17-2.17-.38-3.26-.65a22.86,22.86,0,0,1-3.26-1.05v0"/><path class="cls-5" d="M247.14,128.18a19.62,19.62,0,0,1,3.25-.08c1.08.05,2.17.16,3.25.31a32,32,0,0,1,3.26.63c.54.14,1.09.29,1.63.46l.81.28q.41.15.81.33"/><path class="cls-8" d="M271,160a6.79,6.79,0,0,0,.37-.57c.11-.19.21-.38.31-.57.19-.38.36-.76.51-1.15a15.55,15.55,0,0,0,.69-2.29,16,16,0,0,0,.35-2.29c0-.35,0-.69,0-1h.47a2.6,2.6,0,0,0,1.41-.34h0a.73.73,0,0,0,.21-.57,1.54,1.54,0,0,0-.26-.73c.84-.08,1.67-.2,2.49-.33,1.14-.2,2.26-.44,3.38-.71s2.22-.59,3.31-1c.54-.19,1.09-.38,1.62-.6l.8-.34q.4-.18.79-.38h0v0l-.88,0-.87.08c-.58.07-1.15.15-1.72.25-1.14.2-2.26.45-3.37.73s-2.22.61-3.31,1c-.83.29-1.65.59-2.45.94a3.59,3.59,0,0,0-2.43-1.45,1.16,1.16,0,0,0-.29,0h0c-.08,0-.19,0-.3.13a.76.76,0,0,0-.21.21c-.21-.18-.41-.37-.63-.55a24,24,0,0,0-2.15-1.53,24.65,24.65,0,0,0-2.41-1.36c-.43-.21-.87-.41-1.33-.6l-.71-.27-.75-.24,0,0a5.17,5.17,0,0,0,.39.47c.14.15.29.3.44.45.3.29.62.57,1,.84a21.47,21.47,0,0,0,2.17,1.51c.77.47,1.58.93,2.44,1.34.45.21.91.42,1.38.62a2,2,0,0,0,0,.4H247.32v1.42h24.77a1.93,1.93,0,0,0,.45.3c-.21.42-.39.84-.56,1.25a17.85,17.85,0,0,0-.72,2.29,14.21,14.21,0,0,0-.38,2.29,10.48,10.48,0,0,0,0,1.15c0,.19,0,.38,0,.57a4.26,4.26,0,0,0,.1.57Z"/><path class="cls-5" d="M276.91,113.57a23.72,23.72,0,0,1-2.08-3.31,36.44,36.44,0,0,1-1.58-3.4,30.09,30.09,0,0,1-1.18-3.47c-.15-.59-.29-1.17-.4-1.77-.05-.3-.1-.6-.14-.9a8.83,8.83,0,0,1-.07-.91h0q.33.4.61.81c.19.27.37.55.54.82.35.55.66,1.11,1,1.67a32,32,0,0,1,1.54,3.41,34,34,0,0,1,1.15,3.48,18.87,18.87,0,0,1,.64,3.57Z"/><path class="cls-6" d="M271.49,99.8q.33.4.61.81c.19.27.37.55.54.82.35.55.66,1.11,1,1.67a32,32,0,0,1,1.54,3.41A34,34,0,0,1,276.3,110a18.87,18.87,0,0,1,.64,3.57h0"/><path class="cls-5" d="M267.3,124.34l0,0q.18-.4.39-.78c.14-.25.29-.49.44-.73.3-.48.63-.93,1-1.37a25.34,25.34,0,0,1,2.18-2.48,28.63,28.63,0,0,1,2.46-2.21,17.33,17.33,0,0,1,2.8-1.86"/><path class="cls-6" d="M276.51,114.89l0,0a17.61,17.61,0,0,1-1.81,2.85,28.77,28.77,0,0,1-2.16,2.5,25.24,25.24,0,0,1-2.43,2.23c-.43.34-.88.68-1.35,1-.23.15-.47.31-.72.45s-.5.28-.76.4"/><path class="cls-5" d="M278,112.29c-1.22,0-3.87,1.43-4,3s3.61.93,4,.78,1.62-.93,1.47-2.09S279.23,112.29,278,112.29Z"/><rect class="cls-10" x="276.36" y="115.09" width="2.28" height="26.05"/><path class="cls-6" d="M274,115.58s4.7-.16,4.91-3.08c0,0,1.53,2.14-.54,3.34S273.78,115.94,274,115.58Z"/><path class="cls-6" d="M292.19,116.76v0q-.46.07-.92.1l-.92,0c-.61,0-1.23,0-1.84,0a34.82,34.82,0,0,1-3.68-.39c-1.23-.19-2.46-.43-3.68-.74a25.87,25.87,0,0,1-3.69-1.19v0"/><path class="cls-5" d="M277.45,114.57a22.21,22.21,0,0,1,3.68-.09c1.23.06,2.45.18,3.68.36a36.22,36.22,0,0,1,3.68.71c.61.16,1.23.32,1.84.52l.92.32q.46.17.92.38"/><path class="cls-8" d="M239.81,111.1s8.08.37,10.75,0c.93-.13,4.68-1.32,3-2.85s-10.48-.94-10.48-.94Z"/><path class="cls-11" d="M240.87,103.42c1.53-.68,2.77.45,2.77,2.51s-1.22,4.29-2.75,5-2.77-.44-2.77-2.51S239.35,104.1,240.87,103.42Z"/><path class="cls-12" d="M241.68,103.23h0a1.66,1.66,0,0,1,.35,0h0a1.56,1.56,0,0,1,.33.11h0l-3.76-1.68h0l-.14-.05-.14,0h-.57l-.17,0h-.1l-.13,0-.25.1a3.17,3.17,0,0,0-.59.35l0,0-.23.19-.18.17,0,0,0,0-.11.11-.15.18-.15.19,0,.06,0,0-.08.11-.14.22-.15.25,0,0,0,0-.12.22-.15.32,0,.1,0,.1-.07.19q-.08.23-.15.47v0l0,.12c0,.17-.08.33-.11.5s0,0,0,.07a5.59,5.59,0,0,0-.07.88,2.65,2.65,0,0,0,1.25,2.57l3.76,1.68a2.65,2.65,0,0,1-1.25-2.57,5.59,5.59,0,0,1,.07-.88c0-.19.07-.38.12-.57l0-.12a6.63,6.63,0,0,1,.23-.68l0-.1a6.43,6.43,0,0,1,.3-.64l0,0a6,6,0,0,1,.39-.61l0,0a5.08,5.08,0,0,1,.45-.53l0,0a4,4,0,0,1,.47-.41,3.17,3.17,0,0,1,.59-.35,2.4,2.4,0,0,1,.38-.13h.05A1.94,1.94,0,0,1,241.68,103.23Z"/><path class="cls-12" d="M254.43,160.31h0a1.66,1.66,0,0,1,.35,0h0a1.56,1.56,0,0,1,.33.11h0l-3.76-1.68h0l-.14-.05-.14,0h-.57l-.17,0h-.1l-.13,0-.25.1a3.17,3.17,0,0,0-.59.35l0,0-.23.19-.18.17,0,0,0,0-.11.11-.15.18-.15.19,0,.06,0,0-.08.11-.14.22-.15.25,0,0,0,0-.12.22-.15.32,0,.1,0,.1-.07.19q-.08.23-.15.47v0l0,.12c0,.17-.08.33-.11.5s0,0,0,.07a5.59,5.59,0,0,0-.07.88,2.65,2.65,0,0,0,1.25,2.57l3.76,1.68a2.65,2.65,0,0,1-1.25-2.57,5.59,5.59,0,0,1,.07-.88c0-.19.07-.38.12-.57l0-.12a6.63,6.63,0,0,1,.23-.68l0-.1a6.43,6.43,0,0,1,.3-.64l0,0a6,6,0,0,1,.39-.61l0,0a5.08,5.08,0,0,1,.45-.53l0,0a4,4,0,0,1,.47-.41,3.17,3.17,0,0,1,.59-.35,2.4,2.4,0,0,1,.38-.13h.05A1.94,1.94,0,0,1,254.43,160.31Z"/><path class="cls-8" d="M223.4,171s8.08.37,10.75,0c.93-.13,4.68-1.32,3-2.85s-10.48-.94-10.48-.94Z"/><path class="cls-11" d="M224.47,163.33c1.53-.68,2.77.45,2.77,2.51s-1.22,4.29-2.75,5-2.77-.44-2.77-2.51S222.94,164,224.47,163.33Z"/><path class="cls-12" d="M225.27,163.13h0a1.66,1.66,0,0,1,.35,0h0a1.56,1.56,0,0,1,.33.11h0l-3.76-1.68h0l-.14-.05-.14,0h-.57l-.17,0h-.1l-.13,0-.25.1a3.17,3.17,0,0,0-.59.35l0,0-.23.19-.18.17,0,0,0,0-.11.11-.15.18-.15.19,0,.06,0,0-.08.11-.14.22-.15.25,0,0,0,0-.12.22-.15.32,0,.1,0,.1-.07.19q-.08.23-.15.47v0l0,.12c0,.17-.08.33-.11.5s0,0,0,.07a5.59,5.59,0,0,0-.07.88,2.65,2.65,0,0,0,1.25,2.57l3.76,1.68a2.65,2.65,0,0,1-1.25-2.57,5.59,5.59,0,0,1,.07-.88c0-.19.07-.38.12-.57l0-.12a6.63,6.63,0,0,1,.23-.68l0-.1a6.43,6.43,0,0,1,.3-.64l0,0a6,6,0,0,1,.39-.61l0,0a5.08,5.08,0,0,1,.45-.53l0,0a4,4,0,0,1,.47-.41,3.17,3.17,0,0,1,.59-.35,2.4,2.4,0,0,1,.38-.13h.05A1.94,1.94,0,0,1,225.27,163.13Z"/><polygon class="cls-8" points="246.99 255.08 143.1 315.45 246.81 375.58 350.79 315.34 246.99 255.08"/><polygon class="cls-13" points="144.26 138.19 144.26 161.93 248.15 222.81 247.96 198.32 144.26 138.19"/><polygon class="cls-14" points="247.97 198.19 352.04 138.06 352.04 162.41 248.16 222.68 247.97 198.19"/><polygon class="cls-8" points="133.96 188.83 30.07 249.2 133.77 309.33 237.75 249.09 133.96 188.83"/><polygon class="cls-14" points="133.23 263.58 237.3 203.45 237.3 227.79 133.42 288.07 133.23 263.58"/><path class="cls-8" d="M257.63,251.05s12.92-32.41,32.19-42.78,29.65-3.6,38.12-10.38,27.32-11,33.68-7.41S465.38,251,465.38,251L361.3,311.11Z"/><polygon class="cls-13" points="29.52 203.46 29.52 227.21 133.41 288.08 133.22 263.59 29.52 203.46"/><path class="cls-15" d="M172.73,171.46c0,2-.64,4.16-3.87,2.76s-3.81-7.09-7.51-7.35-6.47-3.35-4.76-4.42,10.47,3,11.08,4.45S172.73,171.46,172.73,171.46Z"/><path class="cls-15" d="M208.6,206.33a12.54,12.54,0,0,1-4.67-5.5c-1.09-2.58-5-10.48-4.28-11.47s.3-5.49,1.15-6.24.65,4.19,2.26,8.83,1.5,7.33,3.61,7.83S208.6,206.33,208.6,206.33Z"/><path class="cls-15" d="M211.17,193c1.36-.31,2.39.21,3.86,1.59s7,5.4,7.58,6.1c1.82,2.25.06,4-.28,4.71s-1.67-2.59-4.1-5.19-3-3.52-4.7-4.12C212.05,195.58,209.82,193.33,211.17,193Z"/><polygon class="cls-16" points="142.41 269.15 142.41 292.9 246.3 353.77 246.11 329.28 142.41 269.15"/><polygon class="cls-13" points="256.9 204.68 256.9 228.42 360.79 289.3 360.61 264.81 256.9 204.68"/><polygon class="cls-17" points="246.12 329.27 350.19 269.14 350.19 293.48 246.31 353.76 246.12 329.27"/><polygon class="cls-14" points="360.62 264.83 464.69 204.7 464.69 229.04 360.81 289.32 360.62 264.83"/><path class="cls-8" d="M137.82,233.57s8.08.37,10.75,0c.93-.13,4.68-1.32,3-2.85s-10.48-.94-10.48-.94Z"/><path class="cls-11" d="M138.89,225.89c1.53-.68,2.77.45,2.77,2.51s-1.22,4.29-2.75,5-2.77-.44-2.77-2.51S137.36,226.57,138.89,225.89Z"/><polygon class="cls-3" points="29.43 203.38 133.57 263.76 237.38 203.5 133.41 143.13 29.43 203.38"/><line class="cls-4" x1="42.17" y1="202.93" x2="88.18" y2="229.75"/><line class="cls-4" x1="46.59" y1="200.18" x2="92.6" y2="226.99"/><line class="cls-4" x1="51.1" y1="197.51" x2="97.12" y2="224.33"/><line class="cls-4" x1="55.75" y1="194.97" x2="101.76" y2="221.79"/><line class="cls-4" x1="60.06" y1="192.1" x2="106.07" y2="218.91"/><line class="cls-4" x1="64.7" y1="189.56" x2="110.72" y2="216.37"/><line class="cls-4" x1="69.35" y1="186.68" x2="115.36" y2="213.5"/><line class="cls-4" x1="74.65" y1="183.81" x2="120.67" y2="210.63"/><line class="cls-4" x1="79.96" y1="180.94" x2="125.98" y2="207.75"/><line class="cls-4" x1="84.94" y1="178.06" x2="130.96" y2="204.88"/><line class="cls-4" x1="139.05" y1="203.24" x2="185.06" y2="230.05"/><line class="cls-4" x1="143.47" y1="200.49" x2="189.48" y2="227.3"/><line class="cls-4" x1="147.98" y1="197.82" x2="193.99" y2="224.63"/><line class="cls-4" x1="152.62" y1="195.28" x2="198.64" y2="222.09"/><line class="cls-4" x1="156.93" y1="192.4" x2="202.95" y2="219.22"/><line class="cls-4" x1="161.58" y1="189.86" x2="207.59" y2="216.68"/><line class="cls-4" x1="166.22" y1="186.99" x2="212.24" y2="213.81"/><line class="cls-4" x1="171.53" y1="184.12" x2="217.55" y2="210.93"/><line class="cls-4" x1="176.84" y1="181.24" x2="222.85" y2="208.06"/><line class="cls-4" x1="181.82" y1="178.37" x2="227.83" y2="205.19"/><line class="cls-4" x1="178.8" y1="174.88" x2="132.78" y2="201.7"/><line class="cls-4" x1="174.38" y1="172.13" x2="128.36" y2="198.95"/><line class="cls-4" x1="169.86" y1="169.46" x2="123.85" y2="196.28"/><line class="cls-4" x1="165.22" y1="166.92" x2="119.21" y2="193.74"/><line class="cls-4" x1="160.91" y1="164.05" x2="114.89" y2="190.87"/><line class="cls-4" x1="156.27" y1="161.51" x2="110.25" y2="188.33"/><line class="cls-4" x1="151.62" y1="158.64" x2="105.61" y2="185.45"/><line class="cls-4" x1="146.31" y1="155.76" x2="100.3" y2="182.58"/><line class="cls-4" x1="141" y1="152.89" x2="94.99" y2="179.71"/><line class="cls-4" x1="136.03" y1="150.02" x2="90.01" y2="176.83"/><line class="cls-4" x1="178.13" y1="231.62" x2="132.12" y2="258.44"/><line class="cls-4" x1="173.71" y1="228.87" x2="127.7" y2="255.69"/><line class="cls-4" x1="169.2" y1="226.2" x2="123.18" y2="253.02"/><line class="cls-4" x1="164.55" y1="223.66" x2="118.54" y2="250.48"/><line class="cls-4" x1="160.24" y1="220.79" x2="114.23" y2="247.6"/><line class="cls-4" x1="155.6" y1="218.25" x2="109.58" y2="245.06"/><line class="cls-4" x1="150.96" y1="215.37" x2="104.94" y2="242.19"/><line class="cls-4" x1="145.65" y1="212.5" x2="99.63" y2="239.32"/><line class="cls-4" x1="140.34" y1="209.63" x2="94.32" y2="236.44"/><line class="cls-4" x1="135.36" y1="206.75" x2="89.35" y2="233.57"/><path class="cls-5" d="M70.24,177.91A21,21,0,0,1,68.4,175,32.2,32.2,0,0,1,67,172a26.59,26.59,0,0,1-1-3.07c-.14-.52-.26-1-.35-1.56,0-.26-.09-.53-.12-.79a7.8,7.8,0,0,1-.06-.8h0q.29.35.54.72c.17.24.33.48.48.73.31.49.58,1,.85,1.47a28.22,28.22,0,0,1,1.36,3,30,30,0,0,1,1,3.07,16.67,16.67,0,0,1,.57,3.15Z"/><path class="cls-6" d="M65.45,165.74q.29.35.54.72c.17.24.33.48.48.73.31.49.58,1,.85,1.47a28.22,28.22,0,0,1,1.36,3,30,30,0,0,1,1,3.07,16.67,16.67,0,0,1,.57,3.15h0"/><path class="cls-5" d="M61.75,187.43l0,0q.16-.36.35-.69c.12-.22.25-.43.39-.64.27-.42.55-.82.85-1.21a22.39,22.39,0,0,1,1.93-2.19,25.3,25.3,0,0,1,2.17-2,15.31,15.31,0,0,1,2.48-1.64"/><path class="cls-6" d="M69.88,179.08l0,0a15.56,15.56,0,0,1-1.6,2.52,25.42,25.42,0,0,1-1.91,2.21,22.3,22.3,0,0,1-2.15,2c-.38.3-.78.6-1.19.87l-.63.4q-.32.19-.67.36"/><path class="cls-5" d="M71.21,176.78c-1.07,0-3.42,1.26-3.54,2.64s3.19.82,3.54.69,1.44-.82,1.3-1.85S72.29,176.78,71.21,176.78Z"/><rect class="cls-18" x="69.75" y="179.26" width="2.02" height="23.01"/><path class="cls-6" d="M67.7,179.68s4.15-.14,4.33-2.72c0,0,1.35,1.89-.47,3S67.47,180,67.7,179.68Z"/><path class="cls-6" d="M83.73,180.73v0q-.41.06-.81.09l-.81,0c-.54,0-1.08,0-1.63,0a30.76,30.76,0,0,1-3.25-.34c-1.08-.17-2.17-.38-3.26-.65a22.86,22.86,0,0,1-3.26-1.05v0"/><path class="cls-5" d="M70.71,178.79a19.62,19.62,0,0,1,3.25-.08c1.08.05,2.17.16,3.25.31a32,32,0,0,1,3.26.63c.54.14,1.09.29,1.63.46l.81.28q.41.15.81.33"/><path class="cls-8" d="M94.6,210.64a6.79,6.79,0,0,0,.37-.57c.11-.19.21-.38.31-.57.19-.38.36-.76.51-1.15a15.55,15.55,0,0,0,.69-2.29,16,16,0,0,0,.35-2.29c0-.35,0-.69,0-1h.47a2.6,2.6,0,0,0,1.41-.34h0a.73.73,0,0,0,.21-.57,1.54,1.54,0,0,0-.26-.73c.84-.08,1.67-.2,2.49-.33,1.14-.2,2.26-.44,3.38-.71s2.22-.59,3.31-1c.54-.19,1.09-.38,1.62-.6l.8-.34q.4-.18.79-.38h0v0l-.88,0-.87.08c-.58.07-1.15.15-1.72.25-1.14.2-2.26.45-3.37.73s-2.22.61-3.31,1c-.83.29-1.65.59-2.45.94A3.59,3.59,0,0,0,96,199.33a1.16,1.16,0,0,0-.29,0h0c-.08,0-.19,0-.3.13a.76.76,0,0,0-.21.21c-.21-.18-.41-.37-.63-.55a24,24,0,0,0-2.15-1.53,24.65,24.65,0,0,0-2.41-1.36c-.43-.21-.87-.41-1.33-.6l-.71-.27-.75-.24,0,0a5.17,5.17,0,0,0,.39.47c.14.15.29.3.44.45.3.29.62.57,1,.84a21.47,21.47,0,0,0,2.17,1.51c.77.47,1.58.93,2.44,1.34.45.21.91.42,1.38.62a2,2,0,0,0,0,.4H70.89v1.42H95.66a1.93,1.93,0,0,0,.45.3c-.21.42-.39.84-.56,1.25a17.85,17.85,0,0,0-.72,2.29,14.21,14.21,0,0,0-.38,2.29,10.48,10.48,0,0,0,0,1.15c0,.19,0,.38,0,.57a4.26,4.26,0,0,0,.1.57Z"/><path class="cls-5" d="M131.93,192.68a21,21,0,0,1-1.84-2.92,32.2,32.2,0,0,1-1.39-3,26.59,26.59,0,0,1-1-3.07c-.14-.52-.26-1-.35-1.56,0-.26-.09-.53-.12-.79a7.8,7.8,0,0,1-.06-.8h0q.29.35.54.72c.17.24.33.48.48.73.31.49.58,1,.85,1.47a28.22,28.22,0,0,1,1.36,3,30,30,0,0,1,1,3.07,16.67,16.67,0,0,1,.57,3.15Z"/><path class="cls-6" d="M127.14,180.52q.29.35.54.72c.17.24.33.48.48.73.31.49.58,1,.85,1.47a28.22,28.22,0,0,1,1.36,3,30,30,0,0,1,1,3.07,16.67,16.67,0,0,1,.57,3.15h0"/><path class="cls-5" d="M123.44,202.2l0,0q.16-.36.35-.69c.12-.22.25-.43.39-.64.27-.42.55-.82.85-1.21a22.39,22.39,0,0,1,1.93-2.19,25.3,25.3,0,0,1,2.17-2,15.31,15.31,0,0,1,2.48-1.64"/><path class="cls-6" d="M131.57,193.85l0,0a15.56,15.56,0,0,1-1.6,2.52,25.42,25.42,0,0,1-1.91,2.21,22.3,22.3,0,0,1-2.15,2c-.38.3-.78.6-1.19.87l-.63.4q-.32.19-.67.36"/><path class="cls-5" d="M132.9,191.55c-1.07,0-3.42,1.26-3.54,2.64s3.19.82,3.54.69,1.44-.82,1.3-1.85S134,191.55,132.9,191.55Z"/><rect class="cls-19" x="131.44" y="194.03" width="2.02" height="23.01"/><path class="cls-6" d="M129.39,194.45s4.15-.14,4.33-2.72c0,0,1.35,1.89-.47,3S129.16,194.78,129.39,194.45Z"/><path class="cls-6" d="M145.42,195.5v0q-.41.06-.81.09l-.81,0c-.54,0-1.08,0-1.63,0a30.76,30.76,0,0,1-3.25-.34c-1.08-.17-2.17-.38-3.26-.65a22.86,22.86,0,0,1-3.26-1.05v0"/><path class="cls-5" d="M132.4,193.56a19.62,19.62,0,0,1,3.25-.08c1.08.05,2.17.16,3.25.31a32,32,0,0,1,3.26.63c.54.14,1.09.29,1.63.46l.81.28q.41.15.81.33"/><path class="cls-8" d="M156.29,225.42a6.79,6.79,0,0,0,.37-.57c.11-.19.21-.38.31-.57.19-.38.36-.76.51-1.15a15.55,15.55,0,0,0,.69-2.29,16,16,0,0,0,.35-2.29c0-.35,0-.69,0-1H159a2.6,2.6,0,0,0,1.41-.34h0a.73.73,0,0,0,.21-.57,1.54,1.54,0,0,0-.26-.73c.84-.08,1.67-.2,2.49-.33,1.14-.2,2.26-.44,3.38-.71s2.22-.59,3.31-1c.54-.19,1.09-.38,1.62-.6l.8-.34q.4-.18.79-.38h0v0l-.88,0-.87.08c-.58.07-1.15.15-1.72.25-1.14.2-2.26.45-3.37.73s-2.22.61-3.31,1c-.83.29-1.65.59-2.45.94a3.59,3.59,0,0,0-2.43-1.45,1.16,1.16,0,0,0-.29,0h0c-.08,0-.19,0-.3.13a.76.76,0,0,0-.21.21c-.21-.18-.41-.37-.63-.55a24,24,0,0,0-2.15-1.53,24.65,24.65,0,0,0-2.41-1.36c-.43-.21-.87-.41-1.33-.6l-.71-.27-.75-.24,0,0a5.17,5.17,0,0,0,.39.47c.14.15.29.3.44.45.3.29.62.57,1,.84a21.47,21.47,0,0,0,2.17,1.51c.77.47,1.58.93,2.44,1.34.45.21.91.42,1.38.62a2,2,0,0,0,0,.4H132.58V217h24.77a1.93,1.93,0,0,0,.45.3c-.21.42-.39.84-.56,1.25a17.85,17.85,0,0,0-.72,2.29,14.21,14.21,0,0,0-.38,2.29,10.48,10.48,0,0,0,0,1.15c0,.19,0,.38,0,.57a4.26,4.26,0,0,0,.1.57Z"/><path class="cls-5" d="M162.18,178.95a23.72,23.72,0,0,1-2.08-3.31,36.44,36.44,0,0,1-1.58-3.4,30.09,30.09,0,0,1-1.18-3.47c-.15-.59-.29-1.17-.4-1.77-.05-.3-.1-.6-.14-.9a8.83,8.83,0,0,1-.07-.91h0q.33.4.61.81c.19.27.37.55.54.82.35.55.66,1.11,1,1.67a32,32,0,0,1,1.54,3.41,34,34,0,0,1,1.15,3.48,18.87,18.87,0,0,1,.64,3.57Z"/><path class="cls-6" d="M156.76,165.18q.33.4.61.81c.19.27.37.55.54.82.35.55.66,1.11,1,1.67a32,32,0,0,1,1.54,3.41,34,34,0,0,1,1.15,3.48,18.87,18.87,0,0,1,.64,3.57h0"/><path class="cls-5" d="M152.57,189.73l0,0q.18-.4.39-.78c.14-.25.29-.49.44-.73.3-.48.63-.93,1-1.37a25.34,25.34,0,0,1,2.18-2.48,28.63,28.63,0,0,1,2.46-2.21,17.33,17.33,0,0,1,2.8-1.86"/><path class="cls-6" d="M161.77,180.27l0,0a17.61,17.61,0,0,1-1.81,2.85,28.77,28.77,0,0,1-2.16,2.5,25.24,25.24,0,0,1-2.43,2.23c-.43.34-.88.68-1.35,1-.23.15-.47.31-.72.45s-.5.28-.76.4"/><path class="cls-5" d="M163.28,177.67c-1.22,0-3.87,1.43-4,3s3.61.93,4,.78,1.62-.93,1.47-2.09S164.5,177.67,163.28,177.67Z"/><rect class="cls-20" x="161.63" y="180.48" width="2.28" height="26.05"/><path class="cls-6" d="M159.3,181s4.7-.16,4.91-3.08c0,0,1.53,2.14-.54,3.34S159,181.32,159.3,181Z"/><path class="cls-6" d="M177.45,182.14v0q-.46.07-.92.1l-.92,0c-.61,0-1.23,0-1.84,0a34.82,34.82,0,0,1-3.68-.39c-1.23-.19-2.46-.43-3.68-.74a25.87,25.87,0,0,1-3.69-1.19v0"/><path class="cls-5" d="M162.71,180a22.21,22.21,0,0,1,3.68-.09c1.23.06,2.45.18,3.68.36a36.22,36.22,0,0,1,3.68.71c.61.16,1.23.32,1.84.52l.92.32q.46.17.92.38"/><path class="cls-8" d="M125.07,176.49s8.08.37,10.75,0c.93-.13,4.68-1.32,3-2.85s-10.48-.94-10.48-.94Z"/><path class="cls-11" d="M126.14,168.81c1.53-.68,2.77.45,2.77,2.51s-1.22,4.29-2.75,5-2.77-.44-2.77-2.51S124.61,169.49,126.14,168.81Z"/><path class="cls-12" d="M126.94,168.61h0a1.66,1.66,0,0,1,.35,0h0a1.56,1.56,0,0,1,.33.11h0l-3.76-1.68h0l-.14-.05-.14,0H123l-.17,0h-.1l-.13,0-.25.1a3.17,3.17,0,0,0-.59.35l0,0-.23.19-.18.17,0,0,0,0-.11.11-.15.18-.15.19,0,.06,0,0-.08.11-.14.22-.15.25,0,0,0,0-.12.22-.15.32,0,.1,0,.1L120,170q-.08.23-.15.47v0l0,.12c0,.17-.08.33-.11.5s0,0,0,.07a5.59,5.59,0,0,0-.07.88,2.65,2.65,0,0,0,1.25,2.57l3.76,1.68a2.65,2.65,0,0,1-1.25-2.57,5.59,5.59,0,0,1,.07-.88c0-.19.07-.38.12-.57l0-.12a6.63,6.63,0,0,1,.23-.68l0-.1a6.43,6.43,0,0,1,.3-.64l0,0a6,6,0,0,1,.39-.61l0,0a5.08,5.08,0,0,1,.45-.53l0,0a4,4,0,0,1,.47-.41,3.17,3.17,0,0,1,.59-.35,2.4,2.4,0,0,1,.38-.13h.05A1.94,1.94,0,0,1,126.94,168.61Z"/><path class="cls-12" d="M139.69,225.69h0a1.66,1.66,0,0,1,.35,0h0a1.56,1.56,0,0,1,.33.11h0l-3.76-1.68h0l-.14-.05-.14,0h-.57l-.17,0h-.1l-.13,0-.25.1a3.17,3.17,0,0,0-.59.35l0,0-.23.19-.18.17,0,0,0,0-.11.11-.15.18-.15.19,0,.06,0,0-.08.11-.14.22-.15.25,0,0,0,0-.12.22-.15.32,0,.1,0,.1-.07.19q-.08.23-.15.47v0l0,.12c0,.17-.08.33-.11.5s0,0,0,.07a5.59,5.59,0,0,0-.07.88,2.65,2.65,0,0,0,1.25,2.57l3.76,1.68a2.65,2.65,0,0,1-1.25-2.57,5.59,5.59,0,0,1,.07-.88c0-.19.07-.38.12-.57l0-.12a6.63,6.63,0,0,1,.23-.68l0-.1a6.43,6.43,0,0,1,.3-.64l0,0a6,6,0,0,1,.39-.61l0,0a5.08,5.08,0,0,1,.45-.53l0,0a4,4,0,0,1,.47-.41,3.17,3.17,0,0,1,.59-.35,2.4,2.4,0,0,1,.38-.13h.05A1.94,1.94,0,0,1,139.69,225.69Z"/><path class="cls-8" d="M108.66,236.39s8.08.37,10.75,0c.93-.13,4.68-1.32,3-2.85s-10.48-.94-10.48-.94Z"/><path class="cls-11" d="M109.73,228.71c1.53-.68,2.77.45,2.77,2.51s-1.22,4.29-2.75,5-2.77-.44-2.77-2.51S108.2,229.39,109.73,228.71Z"/><path class="cls-12" d="M110.54,228.52h0a1.66,1.66,0,0,1,.35,0h0a1.56,1.56,0,0,1,.33.11h0L107.49,227h0l-.14-.05-.14,0h-.57l-.17,0h-.1l-.13,0-.25.1a3.17,3.17,0,0,0-.59.35l0,0-.23.19-.18.17,0,0,0,0-.11.11-.15.18-.15.19,0,.06,0,0-.08.11-.14.22L104,229l0,0,0,0-.12.22-.15.32,0,.1,0,.1-.07.19q-.08.23-.15.47v0l0,.12c0,.17-.08.33-.11.5s0,0,0,.07a5.59,5.59,0,0,0-.07.88,2.65,2.65,0,0,0,1.25,2.57l3.76,1.68a2.65,2.65,0,0,1-1.25-2.57,5.59,5.59,0,0,1,.07-.88c0-.19.07-.38.12-.57l0-.12a6.63,6.63,0,0,1,.23-.68l0-.1a6.43,6.43,0,0,1,.3-.64l0,0a6,6,0,0,1,.39-.61l0,0a5.08,5.08,0,0,1,.45-.53l0,0a4,4,0,0,1,.47-.41,3.17,3.17,0,0,1,.59-.35,2.4,2.4,0,0,1,.38-.13h.05A1.94,1.94,0,0,1,110.54,228.52Z"/><path class="cls-21" d="M142.32,269.12l38.47-45.34a7.66,7.66,0,0,1,6.41-2.69c8.47.62,28.54,1.81,36.49-.31,5.75-1.53,22.47-11.84,22.47-11.84l103.76,60.18L246.14,329.34Z"/><path class="cls-22" d="M142.32,269.12l38.47-45.34a3.6,3.6,0,0,1,5.44,0c2.91,2.85,3.44,12.64,7.41,15.15s11.77,1.59,16.4,8.33,18.81,47.21,25.37,52.16,10.73,29.91,10.73,29.91Z"/><path class="cls-22" d="M291.08,287.14s-11,1.84-20.51-10-12.29-23.94-20.78-25.27-9.37-7.38-7.75-9.38,9.87-12,23.93-6,13.11,21,22.09,23.67,25.66,8.16,22.28,11.89S291.08,287.14,291.08,287.14Z"/><g class="cls-23"><path class="cls-24" d="M259.26,292.54c.43-.11.14-.26.62-.6a4.38,4.38,0,0,1,.79-.39,5.41,5.41,0,0,1,.82-.34,8.27,8.27,0,0,1,.87-.18c.27,0,.57,0,.89-.07s.57,0,.89,0,.58.07.89.09.58,0,.85,0l.85.06.85.06c.3,0,.58,0,.85,0l.85,0c.31,0,.59.06.85.08s.59.07.84.1a3.87,3.87,0,0,1,.81.2c.36.13.53.27.53.54s-.24.38-.65.45a6,6,0,0,1-.86,0c-.27,0-.56,0-.86,0s-.58,0-.87,0-.58-.09-.86-.12l-.86-.11c-.35,0-.65-.05-.86-.07s-.53-.07-.8-.09-.54,0-.8,0-.54-.06-.8-.06-.55,0-.8,0-.56,0-.8,0a4.82,4.82,0,0,0-.86.21c-.51.16-1.17.14-.77.31s.41,0,.83.06.42.1.84.13.43,0,.85,0l.85.06c.42,0,.42,0,.85,0s.42.1.84.13.43-.06.85,0,.42.12.84.14.43,0,.85,0,.42.07.84.1.43-.05.85,0l.85.06.84,0c.42,0,.42.06.84.09s.42.06.84.09l.85,0,.85.05c.42,0,.42,0,.85,0l.85.07.85.07c.42,0,.42.05.84.08s.43,0,.85,0l.85.07.85.06.85.06c.43,0,.43,0,.85,0a1.72,1.72,0,0,1,.83.21c.29.13.53.35.43.66a.83.83,0,0,1-.58.5,1.35,1.35,0,0,1-.77.1c-.43,0-.42-.06-.85-.08l-.85-.07-.85,0c-.43,0-.43,0-.86,0l-.85-.06c-.43,0-.43,0-.86,0s-.42-.08-.85-.11-.42-.06-.85-.08-.43,0-.85,0-.43,0-.86,0-.42-.06-.85-.08-.42-.07-.85-.1-.43,0-.86,0l-.85-.07-.85-.07-.85,0c-.43,0-.43,0-.86,0s-.43-.05-.86-.08-.43-.06-.86-.09a4.2,4.2,0,0,0-.86,0c-.4,0,.17.07.77.2a7.72,7.72,0,0,0,.78.22l.8.09c.24,0,.52,0,.81,0s.51.13.79.15l.81.06c.26,0,.53,0,.82,0s.55.08.8.09.56,0,.81,0l.8,0c.31,0,.58.07.8.09s.61.05.8.09c.59.11.51.26.52.46s-.25.37-.64.4a7,7,0,0,1-.84,0l-.87,0c-.26,0-.56-.07-.88-.09s-.57-.08-.87-.1l-.88,0-.88-.08-.88-.1c-.34,0-.64,0-.88,0s-.56-.12-.88-.18-.59-.05-.89-.13a7,7,0,0,1-.84-.31,5.32,5.32,0,0,1-.79-.42,4.17,4.17,0,0,1-.71-.51,3,3,0,0,0-.8-.13l-.82,0-.82,0c-.41,0-.41,0-.82,0s-.41,0-.82,0l-.81-.07-.82,0-.82-.06c-.41,0-.41-.08-.82-.1s-.54.26-.84,0,.08-.35.1-.7-.26-.45,0-.66.38,0,.79,0,.41,0,.82,0a7.42,7.42,0,0,1,.81.11A1.45,1.45,0,0,0,259.26,292.54Z"/></g><path class="cls-25" d="M255.8,291.18c-.14-.38-.36,0-.79-.27a4.38,4.38,0,0,1-.64-.49,3.68,3.68,0,0,1-.62-.52,4.1,4.1,0,0,1-.42-.7,4.36,4.36,0,0,1-.33-.75,5.64,5.64,0,0,1-.11-.81,6.23,6.23,0,0,1-.09-.81c0-.31,0-.62,0-.9s-.09-.61-.1-.9,0-.62,0-.9-.06-.62-.06-.9a7.23,7.23,0,0,1,.05-.89,1.6,1.6,0,0,1,.3-.81.86.86,0,0,1,.75-.33.69.69,0,0,1,.68.34,2,2,0,0,1,.24.79,5.92,5.92,0,0,1,0,.83c0,.27-.09.55-.12.82s-.06.57-.09.83-.12.62-.12.81,0,.52,0,.78,0,.52.07.78a7.74,7.74,0,0,0,.06.78,3.87,3.87,0,0,0,.25.73,2.6,2.6,0,0,0,.4.69c.29.36.39.93.56.56s0-.42,0-.84,0-.42,0-.85,0-.42,0-.85,0-.42,0-.85,0-.42,0-.85-.07-.42-.07-.85,0-.42,0-.85,0-.42,0-.84.06-.42.06-.85,0-.42,0-.85,0-.42,0-.85,0-.42,0-.85,0-.43,0-.85,0-.42,0-.85,0-.42,0-.85,0-.42,0-.85-.05-.43-.05-.85,0-.43,0-.85.06-.43.06-.86,0-.43,0-.85,0-.5.34-.79A1,1,0,0,1,257,272a1.33,1.33,0,0,1,.73.31c.34.3.28.31.27.71s.06.41.06.82,0,.41,0,.82,0,.41,0,.82.08.41.08.82,0,.41,0,.82,0,.41,0,.82,0,.41,0,.82.05.41.05.82,0,.41,0,.83-.09.41-.09.82.08.41.08.82,0,.41,0,.82,0,.41,0,.83,0,.41,0,.83,0,.41,0,.83-.09.42,0,.82.11-.16.28-.8a5.07,5.07,0,0,0,.26-.85c0-.26,0-.56,0-.89s.09-.56.09-.89-.08-.57-.09-.89,0-.55,0-.8,0-.56,0-.8,0-.58,0-.8a2.91,2.91,0,0,1,.15-.78c.12-.38.3-.35.6-.36a.52.52,0,0,1,.57.38,2.27,2.27,0,0,1,.08.75c0,.14,0,.42,0,.79s0,.5,0,.79,0,.52,0,.79,0,.54,0,.8,0,.55,0,.79,0,.57,0,.79a5.79,5.79,0,0,1-.14.77,3.8,3.8,0,0,1-.26.73,3.39,3.39,0,0,1-.41.66,3.61,3.61,0,0,1-.51.6,4.45,4.45,0,0,1-.63.46,2.61,2.61,0,0,0-.06.89c0,.45,0,.45,0,.9s0,.45,0,.9-.05.45-.06.9,0,.45,0,.9,0,.45,0,.9.26.52,0,.88-.32,0-.67,0-.35.07-.71.07-.5.25-.73,0,0-.43,0-.85a4.33,4.33,0,0,1,0-.84C255.84,291.61,255.94,291.58,255.8,291.18Z"/><path class="cls-26" d="M254.49,285.63c0,.25,0,.52,0,.78s0,.53,0,.78a7.31,7.31,0,0,0,.13.77,4.35,4.35,0,0,0,.15.77,2.64,2.64,0,0,0,.44.69c.29.36.25.74.61.57.15-.07,0-.2,0-.35a2.7,2.7,0,0,1-.62-.9A4.29,4.29,0,0,1,255,288a7.71,7.71,0,0,1-.06-.77c0-.26-.08-.52-.09-.78s.07-.52.08-.78,0-.48.06-.82.08-.53.11-.82.06-.55.07-.83a5.85,5.85,0,0,0,0-.83,1.94,1.94,0,0,0-.27-.77.71.71,0,0,0-.64-.44,1.4,1.4,0,0,0-.19,0,.78.78,0,0,1,.53.54,2.46,2.46,0,0,1,.21.76,6.76,6.76,0,0,1,0,.8c0,.26-.05.53-.08.79s-.06.55-.09.79S254.49,285.45,254.49,285.63Z"/><path class="cls-26" d="M258,273c0,.41,0,.41,0,.82s.08.41.08.82,0,.41,0,.82,0,.41,0,.82,0,.41,0,.82,0,.41,0,.82,0,.41,0,.82,0,.41,0,.82,0,.41,0,.83,0,.41,0,.82-.06.41-.06.82,0,.41,0,.82,0,.41,0,.83,0,.41,0,.83.06.41.06.83-.2.45-.07.84.28-.19.47-.91c0-.43-.08-.44-.08-.88s.07-.44.07-.87,0-.44,0-.87-.06-.44-.06-.88,0-.44,0-.88,0-.44,0-.88,0-.44,0-.88,0-.44,0-.88.05-.44.05-.88,0-.44,0-.87,0-.44,0-.88,0-.44,0-.88,0-.44,0-.88,0-.44,0-.88,0-.37-.33-.67a1.22,1.22,0,0,0-.69-.34,1.25,1.25,0,0,0-.38,0,1.33,1.33,0,0,1,.72.27C258,272.58,258,272.59,258,273Z"/><path class="cls-26" d="M259.75,278.27c-.08,0-.16.07-.22.08a.51.51,0,0,1,.41.43,2.5,2.5,0,0,1,.13.65c0,.14,0,.42,0,.79s0,.5,0,.79,0,.52,0,.79,0,.54,0,.8,0,.55-.06.79,0,.58,0,.79a5.84,5.84,0,0,1-.14.78,3.87,3.87,0,0,1-.27.74,3.4,3.4,0,0,1-.39.68,3.7,3.7,0,0,1-.52.6,5.08,5.08,0,0,1-.69.42c-.11.44,0,.45,0,.9s0,.45,0,.9.05.45.05.9,0,.45,0,.9,0,.45,0,.9,0,.45,0,.91-.17.49,0,.9a.2.2,0,0,0,.38,0c.18-.41,0-.44,0-.89s0-.45,0-.9,0-.45,0-.9.07-.45.07-.9-.09-.45-.08-.9,0-.45,0-.9a2.67,2.67,0,0,1,0-.91A5,5,0,0,0,259,287a3.83,3.83,0,0,0,.55-.58,3.54,3.54,0,0,0,.42-.68,3.87,3.87,0,0,0,.25-.76,5.91,5.91,0,0,0,.14-.78c0-.21-.05-.49,0-.79s0-.51.05-.79,0-.53,0-.79,0-.54,0-.79,0-.56,0-.79,0-.65,0-.79a2.35,2.35,0,0,0-.07-.76A.57.57,0,0,0,259.75,278.27Z"/><g class="cls-23"><path class="cls-24" d="M257.62,229.63c.36-.09.12-.22.52-.51a3.71,3.71,0,0,1,.67-.33,4.58,4.58,0,0,1,.69-.28,7,7,0,0,1,.74-.15c.23,0,.48,0,.75-.06l.76,0c.24,0,.49.06.76.07s.49,0,.72,0l.72,0,.72.05c.25,0,.49,0,.72,0l.72,0c.26,0,.5.05.72.07s.51.06.72.08a3.25,3.25,0,0,1,.69.17c.3.11.45.23.45.45s-.2.32-.55.38a5.07,5.07,0,0,1-.73,0c-.23,0-.47,0-.72,0s-.49,0-.73,0-.49-.08-.73-.11l-.73-.09c-.3,0-.55,0-.72-.06s-.45-.06-.67-.07l-.68,0c-.23,0-.46-.05-.68-.05s-.46,0-.68,0-.47,0-.68,0a4.08,4.08,0,0,0-.73.18c-.43.14-1,.12-.65.26s.35,0,.7.05.35.08.71.11.36,0,.72,0l.72.05c.36,0,.36,0,.72,0s.35.09.71.11.36-.05.72,0,.35.1.71.12.36,0,.71,0,.35.06.71.08.36,0,.72,0l.72.05.72,0c.36,0,.36.05.71.07s.36.05.71.08l.72,0,.72,0c.36,0,.36,0,.72,0l.72.06.72.06c.36,0,.36,0,.72.07s.36,0,.72,0l.72.06.72,0,.72,0,.72,0a1.45,1.45,0,0,1,.7.18c.24.11.45.3.36.56a.7.7,0,0,1-.49.42,1.14,1.14,0,0,1-.65.08c-.36,0-.36,0-.72-.07l-.72-.06-.72,0c-.36,0-.36,0-.72,0l-.72-.05c-.36,0-.36,0-.73,0s-.36-.07-.72-.09-.36,0-.72-.07-.36,0-.72,0-.36,0-.73,0-.36,0-.72-.07-.36-.06-.72-.08-.36,0-.73,0l-.72-.06-.72-.06-.72,0c-.36,0-.37,0-.73,0s-.36,0-.73-.07-.36-.05-.73-.08a3.57,3.57,0,0,0-.73,0c-.34,0,.14.06.65.17a6.54,6.54,0,0,0,.66.19l.68.08c.21,0,.44,0,.68,0s.43.11.67.13l.69,0c.22,0,.45,0,.69,0s.47.07.68.08.48,0,.69,0l.69,0c.26,0,.49.06.68.08s.51,0,.67.07c.5.09.43.22.44.39s-.21.31-.54.34a5.89,5.89,0,0,1-.71,0l-.74,0-.74-.07c-.24,0-.48-.07-.74-.09l-.75,0-.75-.07-.75-.08c-.28,0-.54,0-.75,0s-.48-.1-.74-.15-.5,0-.75-.11a5.94,5.94,0,0,1-.71-.26,4.5,4.5,0,0,1-.67-.36,3.53,3.53,0,0,1-.6-.43A2.49,2.49,0,0,0,261,231l-.69,0-.69,0c-.35,0-.35,0-.69,0l-.69,0-.69-.06-.69,0-.69-.05c-.35,0-.35-.07-.69-.09s-.45.22-.71,0,.07-.3.09-.59-.22-.38,0-.55.32,0,.67,0,.35,0,.69,0a6.28,6.28,0,0,1,.69.09A1.23,1.23,0,0,0,257.62,229.63Z"/></g><path class="cls-27" d="M254.7,228.48c-.12-.32-.3,0-.67-.23a3.71,3.71,0,0,1-.54-.42,3.11,3.11,0,0,1-.53-.44,3.47,3.47,0,0,1-.36-.59,3.69,3.69,0,0,1-.28-.63,4.77,4.77,0,0,1-.1-.68,5.28,5.28,0,0,1-.07-.69c0-.27,0-.52,0-.76s-.08-.52-.09-.76,0-.52,0-.76,0-.53-.05-.76a6.12,6.12,0,0,1,0-.76,1.36,1.36,0,0,1,.26-.69A.73.73,0,0,1,253,220a.59.59,0,0,1,.58.29,1.73,1.73,0,0,1,.21.67,5,5,0,0,1,0,.7c0,.23-.07.47-.1.7s0,.49-.08.7-.1.53-.1.69,0,.44,0,.66,0,.44.06.66a6.55,6.55,0,0,0,.05.66,3.28,3.28,0,0,0,.21.62,2.2,2.2,0,0,0,.33.59c.25.3.33.79.47.47s0-.36,0-.71,0-.36,0-.71,0-.36,0-.71,0-.36,0-.71,0-.36,0-.72-.06-.36-.06-.72,0-.36,0-.72,0-.36,0-.72,0-.36,0-.72,0-.36,0-.72,0-.36,0-.72,0-.36,0-.72,0-.36,0-.72,0-.36,0-.72,0-.36,0-.72,0-.36,0-.72,0-.36,0-.72,0-.36,0-.72.05-.36.05-.73,0-.36,0-.72,0-.42.28-.67a.87.87,0,0,1,.72-.19,1.12,1.12,0,0,1,.62.26c.29.25.23.26.23.6s.05.35.05.7,0,.35,0,.7,0,.35,0,.69.07.35.07.69,0,.35,0,.69,0,.35,0,.7,0,.35,0,.7,0,.35,0,.7,0,.35,0,.7-.07.35-.07.7.07.35.07.7,0,.35,0,.7,0,.35,0,.7,0,.35,0,.7,0,.35,0,.7-.08.36,0,.69.09-.14.24-.67a4.29,4.29,0,0,0,.22-.72c0-.22,0-.47,0-.75s.07-.47.08-.75-.07-.48-.08-.76,0-.47,0-.68,0-.48,0-.68,0-.49,0-.68a2.45,2.45,0,0,1,.13-.66c.1-.32.26-.29.5-.31a.44.44,0,0,1,.49.32,1.93,1.93,0,0,1,.07.63c0,.12,0,.36,0,.67s0,.42,0,.67,0,.44,0,.67,0,.45,0,.67,0,.46,0,.67,0,.49,0,.67a4.9,4.9,0,0,1-.12.66,3.22,3.22,0,0,1-.22.62,2.87,2.87,0,0,1-.35.56,3.06,3.06,0,0,1-.43.51,3.77,3.77,0,0,1-.53.39,2.21,2.21,0,0,0,0,.76c0,.38,0,.38,0,.76s0,.38,0,.76,0,.38,0,.76,0,.38,0,.76,0,.38,0,.77.22.44,0,.74-.27,0-.57,0-.3.06-.6.06-.42.22-.62,0,0-.37,0-.72a3.66,3.66,0,0,1,0-.71C254.73,228.84,254.82,228.82,254.7,228.48Z"/><path class="cls-28" d="M253.58,223.78c0,.22,0,.44,0,.66s0,.45,0,.66a6.19,6.19,0,0,0,.11.65,3.68,3.68,0,0,0,.13.65,2.24,2.24,0,0,0,.37.58c.25.3.21.63.52.48.13-.06,0-.17,0-.3a2.29,2.29,0,0,1-.53-.76,3.64,3.64,0,0,1-.14-.65,6.53,6.53,0,0,1-.05-.66c0-.22-.07-.44-.07-.66s.06-.44.07-.66,0-.4,0-.69.07-.45.09-.69.05-.47.06-.7a5,5,0,0,0,0-.7,1.64,1.64,0,0,0-.23-.65.61.61,0,0,0-.55-.37l-.16,0a.66.66,0,0,1,.45.46,2.08,2.08,0,0,1,.18.64,5.7,5.7,0,0,1,0,.68c0,.22,0,.45-.07.67s-.05.47-.08.67S253.59,223.63,253.58,223.78Z"/><path class="cls-28" d="M256.52,213.07c0,.35,0,.35,0,.7s.07.35.07.7,0,.35,0,.69,0,.35,0,.69,0,.35,0,.69,0,.35,0,.7,0,.35,0,.7,0,.35,0,.7,0,.35,0,.7,0,.35,0,.7-.05.35-.05.7,0,.35,0,.7,0,.35,0,.7,0,.35,0,.7.05.35.05.7-.17.38-.06.71.24-.16.39-.77c0-.37-.07-.37-.07-.74s.06-.37.06-.74,0-.37,0-.74,0-.37,0-.74,0-.37,0-.74,0-.37,0-.74,0-.37,0-.74,0-.37,0-.74,0-.37,0-.74,0-.37,0-.74,0-.37,0-.74,0-.37,0-.75,0-.37,0-.75,0-.37,0-.75,0-.31-.28-.56a1,1,0,0,0-.59-.29,1.06,1.06,0,0,0-.32,0,1.13,1.13,0,0,1,.61.23C256.59,212.73,256.53,212.74,256.52,213.07Z"/><path class="cls-28" d="M258,217.55c-.06,0-.13.06-.19.06a.43.43,0,0,1,.35.37,2.12,2.12,0,0,1,.11.55c0,.12,0,.36,0,.67s0,.43,0,.67,0,.44,0,.67,0,.45,0,.67,0,.46,0,.67,0,.49,0,.67a4.94,4.94,0,0,1-.12.66,3.28,3.28,0,0,1-.23.62,2.88,2.88,0,0,1-.33.58,3.14,3.14,0,0,1-.44.51,4.3,4.3,0,0,1-.58.36c-.09.37,0,.38,0,.76s0,.38,0,.76,0,.38,0,.76,0,.38,0,.76,0,.38,0,.76,0,.38,0,.77-.15.41,0,.77a.17.17,0,0,0,.32,0c.15-.35,0-.38,0-.76s0-.38,0-.76,0-.38,0-.76.06-.38.06-.76-.07-.38-.07-.76,0-.38,0-.77a2.26,2.26,0,0,1,0-.77,4.22,4.22,0,0,0,.57-.36,3.24,3.24,0,0,0,.46-.5,3,3,0,0,0,.35-.58,3.28,3.28,0,0,0,.21-.64,5,5,0,0,0,.12-.66c0-.18,0-.41,0-.67s0-.43,0-.67,0-.45,0-.67,0-.46,0-.67,0-.47,0-.67,0-.55,0-.67a2,2,0,0,0-.06-.64A.48.48,0,0,0,258,217.55Z"/><polygon class="cls-3" points="256.64 204.61 360.78 264.99 464.6 204.73 360.62 144.37 256.64 204.61"/><line class="cls-4" x1="269.38" y1="204.16" x2="315.4" y2="230.98"/><line class="cls-4" x1="273.8" y1="201.41" x2="319.82" y2="228.23"/><line class="cls-4" x1="278.32" y1="198.74" x2="324.33" y2="225.56"/><line class="cls-4" x1="282.96" y1="196.2" x2="328.98" y2="223.02"/><line class="cls-4" x1="287.27" y1="193.33" x2="333.29" y2="220.14"/><line class="cls-4" x1="291.92" y1="190.79" x2="337.93" y2="217.6"/><line class="cls-4" x1="296.56" y1="187.91" x2="342.57" y2="214.73"/><line class="cls-4" x1="301.87" y1="185.04" x2="347.88" y2="211.86"/><line class="cls-4" x1="307.18" y1="182.17" x2="353.19" y2="208.98"/><line class="cls-4" x1="312.15" y1="179.29" x2="358.17" y2="206.11"/><line class="cls-4" x1="366.26" y1="204.47" x2="412.27" y2="231.29"/><line class="cls-4" x1="370.68" y1="201.72" x2="416.69" y2="228.54"/><line class="cls-4" x1="375.19" y1="199.05" x2="421.21" y2="225.87"/><line class="cls-4" x1="379.84" y1="196.51" x2="425.85" y2="223.33"/><line class="cls-4" x1="384.15" y1="193.64" x2="430.16" y2="220.45"/><line class="cls-4" x1="388.79" y1="191.1" x2="434.81" y2="217.91"/><line class="cls-4" x1="393.43" y1="188.22" x2="439.45" y2="215.04"/><line class="cls-4" x1="398.74" y1="185.35" x2="444.76" y2="212.17"/><line class="cls-4" x1="404.05" y1="182.48" x2="450.07" y2="209.29"/><line class="cls-4" x1="409.03" y1="179.6" x2="455.04" y2="206.42"/><line class="cls-4" x1="406.01" y1="176.12" x2="360" y2="202.93"/><line class="cls-4" x1="401.59" y1="173.36" x2="355.58" y2="200.18"/><line class="cls-4" x1="397.08" y1="170.7" x2="351.06" y2="197.51"/><line class="cls-4" x1="392.43" y1="168.16" x2="346.42" y2="194.97"/><line class="cls-4" x1="388.12" y1="165.28" x2="342.11" y2="192.1"/><line class="cls-4" x1="383.48" y1="162.74" x2="337.46" y2="189.56"/><line class="cls-4" x1="378.84" y1="159.87" x2="332.82" y2="186.69"/><line class="cls-4" x1="373.53" y1="157" x2="327.51" y2="183.81"/><line class="cls-4" x1="368.22" y1="154.12" x2="322.2" y2="180.94"/><line class="cls-4" x1="363.24" y1="151.25" x2="317.23" y2="178.07"/><line class="cls-4" x1="405.34" y1="232.85" x2="359.33" y2="259.67"/><line class="cls-4" x1="400.92" y1="230.1" x2="354.91" y2="256.92"/><line class="cls-4" x1="396.41" y1="227.43" x2="350.4" y2="254.25"/><line class="cls-4" x1="391.77" y1="224.89" x2="345.75" y2="251.71"/><line class="cls-4" x1="387.46" y1="222.02" x2="341.44" y2="248.84"/><line class="cls-4" x1="382.81" y1="219.48" x2="336.8" y2="246.3"/><line class="cls-4" x1="378.17" y1="216.6" x2="332.15" y2="243.42"/><line class="cls-4" x1="372.86" y1="213.73" x2="326.85" y2="240.55"/><line class="cls-4" x1="367.55" y1="210.86" x2="321.54" y2="237.67"/><line class="cls-4" x1="362.57" y1="207.98" x2="316.56" y2="234.8"/><path class="cls-5" d="M297.45,179.14a21,21,0,0,1-1.84-2.92,32.2,32.2,0,0,1-1.39-3,26.59,26.59,0,0,1-1-3.07c-.14-.52-.26-1-.35-1.56,0-.26-.09-.53-.12-.79a7.8,7.8,0,0,1-.06-.8h0q.29.35.54.72c.17.24.33.48.48.73.31.49.58,1,.85,1.47a28.22,28.22,0,0,1,1.36,3,30,30,0,0,1,1,3.07,16.67,16.67,0,0,1,.57,3.15Z"/><path class="cls-6" d="M292.66,167q.29.35.54.72c.17.24.33.48.48.73.31.49.58,1,.85,1.47a28.22,28.22,0,0,1,1.36,3,30,30,0,0,1,1,3.07,16.67,16.67,0,0,1,.57,3.15h0"/><path class="cls-5" d="M289,188.66l0,0q.16-.36.35-.69c.12-.22.25-.43.39-.64.27-.42.55-.82.85-1.21a22.39,22.39,0,0,1,1.93-2.19,25.3,25.3,0,0,1,2.17-2,15.31,15.31,0,0,1,2.48-1.64"/><path class="cls-6" d="M297.09,180.31l0,0a15.56,15.56,0,0,1-1.6,2.52,25.42,25.42,0,0,1-1.91,2.21,22.3,22.3,0,0,1-2.15,2c-.38.3-.78.6-1.19.87l-.63.4q-.32.19-.67.36"/><path class="cls-5" d="M298.43,178c-1.07,0-3.42,1.26-3.54,2.64s3.19.82,3.54.69,1.44-.82,1.3-1.85S299.5,178,298.43,178Z"/><rect class="cls-29" x="296.97" y="180.49" width="2.02" height="23.01"/><path class="cls-6" d="M294.91,180.91s4.15-.14,4.33-2.72c0,0,1.35,1.89-.47,3S294.68,181.24,294.91,180.91Z"/><path class="cls-6" d="M310.95,182v0q-.41.06-.81.09l-.81,0c-.54,0-1.08,0-1.63,0a30.76,30.76,0,0,1-3.25-.34c-1.08-.17-2.17-.38-3.26-.65a22.86,22.86,0,0,1-3.26-1.05v0"/><path class="cls-5" d="M297.93,180a19.62,19.62,0,0,1,3.25-.08c1.08.05,2.17.16,3.25.31a32,32,0,0,1,3.26.63c.54.14,1.09.29,1.63.46l.81.28q.41.15.81.33"/><path class="cls-8" d="M321.81,211.88a6.79,6.79,0,0,0,.37-.57c.11-.19.21-.38.31-.57.19-.38.36-.76.51-1.15a15.55,15.55,0,0,0,.69-2.29A16,16,0,0,0,324,205c0-.35,0-.69,0-1h.47a2.6,2.6,0,0,0,1.41-.34h0a.73.73,0,0,0,.21-.57,1.54,1.54,0,0,0-.26-.73c.84-.08,1.67-.2,2.49-.33,1.14-.2,2.26-.44,3.38-.71s2.22-.59,3.31-1c.54-.19,1.09-.38,1.62-.6l.8-.34q.4-.18.79-.38h0v0l-.88,0-.87.08c-.58.07-1.15.15-1.72.25-1.14.2-2.26.45-3.37.73s-2.22.61-3.31,1c-.83.29-1.65.59-2.45.94a3.59,3.59,0,0,0-2.43-1.45,1.16,1.16,0,0,0-.29,0h0c-.08,0-.19,0-.3.13a.76.76,0,0,0-.21.21c-.21-.18-.41-.37-.63-.55a24,24,0,0,0-2.15-1.53,24.65,24.65,0,0,0-2.41-1.36c-.43-.21-.87-.41-1.33-.6l-.71-.27-.75-.24,0,0a5.17,5.17,0,0,0,.39.47c.14.15.29.3.44.45.3.29.62.57,1,.84a21.47,21.47,0,0,0,2.17,1.51c.77.47,1.58.93,2.44,1.34.45.21.91.42,1.38.62a2,2,0,0,0,0,.4H298.1v1.42h24.77a1.93,1.93,0,0,0,.45.3c-.21.42-.39.84-.56,1.25a17.85,17.85,0,0,0-.72,2.29,14.21,14.21,0,0,0-.38,2.29,10.48,10.48,0,0,0,0,1.15c0,.19,0,.38,0,.57a4.26,4.26,0,0,0,.1.57Z"/><path class="cls-5" d="M359.14,193.91A21,21,0,0,1,357.3,191a32.2,32.2,0,0,1-1.39-3,26.59,26.59,0,0,1-1-3.07c-.14-.52-.26-1-.35-1.56,0-.26-.09-.53-.12-.79a7.8,7.8,0,0,1-.06-.8h0q.29.35.54.72c.17.24.33.48.48.73.31.49.58,1,.85,1.47a28.22,28.22,0,0,1,1.36,3,30,30,0,0,1,1,3.07,16.67,16.67,0,0,1,.57,3.15Z"/><path class="cls-6" d="M354.35,181.75q.29.35.54.72c.17.24.33.48.48.73.31.49.58,1,.85,1.47a28.22,28.22,0,0,1,1.36,3,30,30,0,0,1,1,3.07,16.67,16.67,0,0,1,.57,3.15h0"/><path class="cls-5" d="M350.65,203.43l0,0q.16-.36.35-.69c.12-.22.25-.43.39-.64.27-.42.55-.82.85-1.21a22.39,22.39,0,0,1,1.93-2.19,25.3,25.3,0,0,1,2.17-2,15.31,15.31,0,0,1,2.48-1.64"/><path class="cls-6" d="M358.78,195.08l0,0a15.56,15.56,0,0,1-1.6,2.52,25.42,25.42,0,0,1-1.91,2.21,22.3,22.3,0,0,1-2.15,2c-.38.3-.78.6-1.19.87l-.63.4q-.32.19-.67.36"/><path class="cls-5" d="M360.12,192.78c-1.07,0-3.42,1.26-3.54,2.64s3.19.82,3.54.69,1.44-.82,1.3-1.85S361.19,192.78,360.12,192.78Z"/><rect class="cls-30" x="358.66" y="195.26" width="2.02" height="23.01"/><path class="cls-6" d="M356.6,195.69s4.15-.14,4.33-2.72c0,0,1.35,1.89-.47,3S356.37,196,356.6,195.69Z"/><path class="cls-6" d="M372.64,196.73v0q-.41.06-.81.09l-.81,0c-.54,0-1.08,0-1.63,0a30.76,30.76,0,0,1-3.25-.34c-1.08-.17-2.17-.38-3.26-.65a22.86,22.86,0,0,1-3.26-1.05v0"/><path class="cls-5" d="M359.62,194.8a19.62,19.62,0,0,1,3.25-.08c1.08.05,2.17.16,3.25.31a32,32,0,0,1,3.26.63c.54.14,1.09.29,1.63.46l.81.28q.41.15.81.33"/><path class="cls-8" d="M383.5,226.65a6.79,6.79,0,0,0,.37-.57c.11-.19.21-.38.31-.57.19-.38.36-.76.51-1.15a15.55,15.55,0,0,0,.69-2.29,16,16,0,0,0,.35-2.29c0-.35,0-.69,0-1h.47a2.6,2.6,0,0,0,1.41-.34h0a.73.73,0,0,0,.21-.57,1.54,1.54,0,0,0-.26-.73c.84-.08,1.67-.2,2.49-.33,1.14-.2,2.26-.44,3.38-.71s2.22-.59,3.31-1c.54-.19,1.09-.38,1.62-.6l.8-.34q.4-.18.79-.38h0v0l-.88,0-.87.08c-.58.07-1.15.15-1.72.25-1.14.2-2.26.45-3.37.73s-2.22.61-3.31,1c-.83.29-1.65.59-2.45.94a3.59,3.59,0,0,0-2.43-1.45,1.16,1.16,0,0,0-.29,0h0c-.08,0-.19,0-.3.13a.76.76,0,0,0-.21.21c-.21-.18-.41-.37-.63-.55a24,24,0,0,0-2.15-1.53,24.65,24.65,0,0,0-2.41-1.36c-.43-.21-.87-.41-1.33-.6l-.71-.27-.75-.24,0,0a5.17,5.17,0,0,0,.39.47c.14.15.29.3.44.45.3.29.62.57,1,.84a21.47,21.47,0,0,0,2.17,1.51c.77.47,1.58.93,2.44,1.34.45.21.91.42,1.38.62a2,2,0,0,0,0,.4H359.79v1.42h24.77a1.93,1.93,0,0,0,.45.3c-.21.42-.39.84-.56,1.25a17.85,17.85,0,0,0-.72,2.29,14.21,14.21,0,0,0-.38,2.29,10.48,10.48,0,0,0,0,1.15c0,.19,0,.38,0,.57a4.26,4.26,0,0,0,.1.57Z"/><path class="cls-5" d="M389.39,180.18a23.72,23.72,0,0,1-2.08-3.31,36.44,36.44,0,0,1-1.58-3.4,30.09,30.09,0,0,1-1.18-3.47c-.15-.59-.29-1.17-.4-1.77-.05-.3-.1-.6-.14-.9a8.83,8.83,0,0,1-.07-.91h0q.33.4.61.81c.19.27.37.55.54.82.35.55.66,1.11,1,1.67a32,32,0,0,1,1.54,3.41,34,34,0,0,1,1.15,3.48,18.87,18.87,0,0,1,.64,3.57Z"/><path class="cls-6" d="M384,166.42q.33.4.61.81c.19.27.37.55.54.82.35.55.66,1.11,1,1.67a32,32,0,0,1,1.54,3.41,34,34,0,0,1,1.15,3.48,18.87,18.87,0,0,1,.64,3.57h0"/><path class="cls-5" d="M379.78,191l0,0q.18-.4.39-.78c.14-.25.29-.49.44-.73.3-.48.63-.93,1-1.37a25.34,25.34,0,0,1,2.18-2.48,28.63,28.63,0,0,1,2.46-2.21,17.33,17.33,0,0,1,2.8-1.86"/><path class="cls-6" d="M389,181.51l0,0a17.61,17.61,0,0,1-1.81,2.85,28.77,28.77,0,0,1-2.16,2.5,25.24,25.24,0,0,1-2.43,2.23c-.43.34-.88.68-1.35,1-.23.15-.47.31-.72.45s-.5.28-.76.4"/><path class="cls-5" d="M390.49,178.9c-1.22,0-3.87,1.43-4,3s3.61.93,4,.78,1.62-.93,1.47-2.09S391.71,178.9,390.49,178.9Z"/><rect class="cls-31" x="388.84" y="181.71" width="2.28" height="26.05"/><path class="cls-6" d="M386.51,182.19s4.7-.16,4.91-3.08c0,0,1.53,2.14-.54,3.34S386.25,182.56,386.51,182.19Z"/><path class="cls-6" d="M404.66,183.37v0q-.46.07-.92.1l-.92,0c-.61,0-1.23,0-1.84,0a34.82,34.82,0,0,1-3.68-.39c-1.23-.19-2.46-.43-3.68-.74a25.87,25.87,0,0,1-3.69-1.19v0"/><path class="cls-5" d="M389.93,181.18a22.21,22.21,0,0,1,3.68-.09c1.23.06,2.45.18,3.68.36a36.22,36.22,0,0,1,3.68.71c.61.16,1.23.32,1.84.52l.92.32q.46.17.92.38"/><path class="cls-8" d="M352.28,177.72s8.08.37,10.75,0c.93-.13,4.68-1.32,3-2.85s-10.48-.94-10.48-.94Z"/><path class="cls-11" d="M353.35,170c1.53-.68,2.77.45,2.77,2.51s-1.22,4.29-2.75,5-2.77-.44-2.77-2.51S351.82,170.72,353.35,170Z"/><path class="cls-12" d="M354.16,169.84h0a1.66,1.66,0,0,1,.35,0h0a1.56,1.56,0,0,1,.33.11h0l-3.76-1.68h0l-.14-.05-.14,0h-.57l-.17,0H350l-.13,0-.25.1a3.17,3.17,0,0,0-.59.35l0,0-.23.19-.18.17,0,0,0,0-.11.11-.15.18-.15.19,0,.06,0,0-.08.11-.14.22-.15.25,0,0,0,0-.12.22-.15.32,0,.1,0,.1-.07.19q-.08.23-.15.47v0l0,.12c0,.17-.08.33-.11.5s0,0,0,.07a5.59,5.59,0,0,0-.07.88,2.65,2.65,0,0,0,1.25,2.57l3.76,1.68A2.65,2.65,0,0,1,350.6,175a5.59,5.59,0,0,1,.07-.88c0-.19.07-.38.12-.57l0-.12a6.63,6.63,0,0,1,.23-.68l0-.1a6.43,6.43,0,0,1,.3-.64l0,0a6,6,0,0,1,.39-.61l0,0a5.08,5.08,0,0,1,.45-.53l0,0a4,4,0,0,1,.47-.41,3.17,3.17,0,0,1,.59-.35,2.4,2.4,0,0,1,.38-.13h.05A1.94,1.94,0,0,1,354.16,169.84Z"/><path class="cls-12" d="M366.91,226.92h0a1.66,1.66,0,0,1,.35,0h0a1.56,1.56,0,0,1,.33.11h0l-3.76-1.68h0l-.14-.05-.14,0H363l-.17,0h-.1l-.13,0-.25.1a3.17,3.17,0,0,0-.59.35l0,0-.23.19-.18.17,0,0,0,0-.11.11-.15.18-.15.19,0,.06,0,0-.08.11-.14.22-.15.25,0,0,0,0-.12.22-.15.32,0,.1,0,.1-.07.19q-.08.23-.15.47v0l0,.12c0,.17-.08.33-.11.5s0,0,0,.07a5.59,5.59,0,0,0-.07.88,2.65,2.65,0,0,0,1.25,2.57l3.76,1.68a2.65,2.65,0,0,1-1.25-2.57,5.59,5.59,0,0,1,.07-.88c0-.19.07-.38.12-.57l0-.12a6.63,6.63,0,0,1,.23-.68l0-.1a6.43,6.43,0,0,1,.3-.64l0,0a6,6,0,0,1,.39-.61l0,0a5.08,5.08,0,0,1,.45-.53l0,0a4,4,0,0,1,.47-.41,3.17,3.17,0,0,1,.59-.35,2.4,2.4,0,0,1,.38-.13h.05A1.94,1.94,0,0,1,366.91,226.92Z"/><path class="cls-8" d="M335.87,237.63s8.08.37,10.75,0c.93-.13,4.68-1.32,3-2.85s-10.48-.94-10.48-.94Z"/><path class="cls-11" d="M336.94,229.94c1.53-.68,2.77.45,2.77,2.51s-1.22,4.29-2.75,5-2.77-.44-2.77-2.51S335.42,230.62,336.94,229.94Z"/><path class="cls-12" d="M337.75,229.75h0a1.66,1.66,0,0,1,.35,0h0a1.56,1.56,0,0,1,.33.11h0l-3.76-1.68h0l-.14-.05-.14,0h-.57l-.17,0h-.1l-.13,0-.25.1a3.17,3.17,0,0,0-.59.35l0,0-.23.19-.18.17,0,0,0,0-.11.11-.15.18-.15.19,0,.06,0,0-.08.11-.14.22-.15.25,0,0,0,0-.12.22-.15.32,0,.1,0,.1-.07.19q-.08.23-.15.47v0l0,.12c0,.17-.08.33-.11.5s0,0,0,.07a5.59,5.59,0,0,0-.07.88,2.65,2.65,0,0,0,1.25,2.57l3.76,1.68a2.65,2.65,0,0,1-1.25-2.57,5.59,5.59,0,0,1,.07-.88c0-.19.07-.38.12-.57l0-.12a6.63,6.63,0,0,1,.23-.68l0-.1a6.43,6.43,0,0,1,.3-.64l0,0a6,6,0,0,1,.39-.61l0,0a5.08,5.08,0,0,1,.45-.53l0,0a4,4,0,0,1,.47-.41,3.17,3.17,0,0,1,.59-.35,2.4,2.4,0,0,1,.38-.13h.05A1.94,1.94,0,0,1,337.75,229.75Z"/><polygon class="cls-8" points="244.34 186.19 314.83 227.15 244.46 267.95 173.91 227.07 244.34 186.19"/><polygon class="cls-32" points="174.47 199.91 174.47 215.97 244.76 257.16 244.64 240.59 174.47 199.91"/><polygon class="cls-33" points="244.64 240.59 315.05 199.91 315.05 216.38 244.76 257.16 244.64 240.59"/><polygon class="cls-34" points="259.42 210.81 258.24 210.19 245.06 201.91 230.17 211.22 286.25 211.22 285.08 210.81 259.42 210.81"/><polygon class="cls-34" points="258.24 190.23 259.42 189.61 284.05 189.61 285.18 189.19 230.17 189.19 245.06 198.51 258.24 190.23"/><path class="cls-34" d="M256.26,197.24h7.12l16-5.91H262l-14.19,8.88L262,209.09h18.28l-17-6.06-7,0a2.85,2.85,0,0,1-2.08-2.75s0-.08,0-.12A3.21,3.21,0,0,1,256.26,197.24Z"/><path class="cls-34" d="M223.74,211.89l1.07-.67,17.54-11-17.54-11-1.07-.67,2.56-1.75h65.41l.44-.15L244.7,159.07l-70.35,40.76,70.46,40.85,46.57-27H226.3Z"/><path class="cls-34" d="M292.16,186.62l-.44.15H226.3l-2.56,1.75,1.07.67,17.54,11-17.54,11-1.07.67,2.56,1.75h65.08l23.67-13.74Zm-62,2.58h55l-1.13.42H259.42l-1.18.62-13.18,8.28ZM256.26,203l7,0,17,6.06H262l-14.19-8.88L262,191.33h17.43l-16,5.91h-7.12a3.21,3.21,0,0,0-2.07,2.89s0,.08,0,.12A2.85,2.85,0,0,0,256.26,203Zm-26.08,8.22,14.88-9.31,13.18,8.28,1.18.62h25.66l1.17.42Z"/><path class="cls-8" d="M292.16,186.62l-.44.15H226.3l-2.56,1.75,1.07.67,17.54,11-17.54,11-1.07.67,2.56,1.75h65.08l23.67-13.74Zm-62,2.58h55l-1.13.42H259.42l-1.18.62-13.18,8.28ZM256.26,203l7,0,17,6.06H262l-14.19-8.88L262,191.33h17.43l-16,5.91h-7.12a3.21,3.21,0,0,0-2.07,2.89s0,.08,0,.12A2.85,2.85,0,0,0,256.26,203Zm-26.08,8.22,14.88-9.31,13.18,8.28,1.18.62h25.66l1.17.42Z"/><path class="cls-35" d="M239,186.74v5.14s1.34,1.44,5.78,1.5v-6.58Z"/><path class="cls-36" d="M244.78,186.79v6.58H245c4.42,0,5.49-1.5,5.49-1.5l0-5Z"/><polyline class="cls-37" points="264.88 189.02 264.88 168.35 266.12 168.35 266.12 189.6 264.88 190.45"/><polygon class="cls-24" points="262.68 187.76 262.68 171.69 264.88 171.96 264.88 189.02 262.68 187.76"/><polygon class="cls-24" points="222.91 212.97 264.88 189.02 264.88 190.45 222.91 214.59 222.91 212.97"/><polygon class="cls-37" points="221.57 214.1 264.88 189.02 262.68 187.76 218.07 213.51 221.57 214.1"/><polyline class="cls-37" points="224.99 189.02 224.99 168.35 223.74 168.35 223.74 189.6 224.99 190.45"/><polygon class="cls-24" points="227.19 187.76 227.19 171.69 224.99 171.96 224.99 189.02 227.19 187.76"/><path class="cls-37" d="M244.93,188V149.91s-26.53-.77-27.35,15.87l21.42,21A14.59,14.59,0,0,0,244.93,188Z"/><path class="cls-38" d="M244.74,149.91l.18,38.05a15.52,15.52,0,0,0,5.65-1.12l22.14-22.45C271.89,147.76,244.74,149.91,244.74,149.91Z"/><rect class="cls-35" x="214.25" y="115.25" width="30.59" height="20.47"/><polygon class="cls-36" points="244.83 115.25 275.22 115.25 274.85 135.72 244.83 135.72 244.83 115.25"/><path class="cls-39" d="M244.83,90.35l-.2,42.65s29.76-1.11,30.59-17.74Z"/><path class="cls-37" d="M244.83,90.35V133s-29.76-1.11-30.59-17.74Z"/><path class="cls-35" d="M223.25,127.82a19.94,19.94,0,0,1-7.28-6.69,12.39,12.39,0,0,1-1.16-2.49q-.14-.42-.24-.84a10.47,10.47,0,0,1-.31-2.55l-.19,42.24c0,4.55,3,9.1,9,12.57s13.91,5.2,21.78,5.17V133C237,133,229.22,131.27,223.25,127.82Z"/><path class="cls-24" d="M266.36,127.82c-5.93,3.45-13.72,5.17-21.53,5.17v42.24c7.74,0,15.45-1.75,21.33-5.17s8.84-7.91,8.86-12.4l.19-42.24C275.2,119.91,272.25,124.4,266.36,127.82Z"/><polygon class="cls-37" points="218.07 157.21 218.07 213.51 221.57 215.36 221.57 159.05 218.07 157.21"/><polygon class="cls-24" points="221.57 159.05 222.91 158.35 222.91 214.59 221.57 215.36 221.57 159.05"/><polygon class="cls-24" points="266.95 212.97 224.99 189.02 224.99 190.45 266.95 214.59 266.95 212.97"/><polygon class="cls-37" points="268.29 214.1 224.99 189.02 227.19 187.76 271.8 213.51 268.29 214.1"/><polygon class="cls-24" points="271.8 157.21 271.8 213.51 268.29 215.36 268.29 159.05 271.8 157.21"/><polygon class="cls-37" points="268.29 159.05 266.95 158.35 266.95 214.59 268.29 215.36 268.29 159.05"/><ellipse class="cls-37" cx="219.45" cy="160.78" rx="0.78" ry="0.89"/><path class="cls-24" d="M219.45,159.89H220a.93.93,0,0,1,.47.89,1.17,1.17,0,0,1-.48.89h-.56a1,1,0,0,0,0-1.77Z"/><ellipse class="cls-24" cx="270.72" cy="160.78" rx="0.78" ry="0.89"/><path class="cls-36" d="M270.72,159.89h-.57a.93.93,0,0,0-.47.89,1.17,1.17,0,0,0,.48.89h.56a1,1,0,0,1,0-1.77Z"/></g></svg>