<?xml version="1.0" encoding="utf-8"?>
<!-- Generator: Adobe Illustrator 19.1.0, SVG Export Plug-In . SVG Version: 6.00 Build 0)  -->
<svg version="1.1" id="svg2" xmlns:svg="http://www.w3.org/2000/svg"
	 xmlns="http://www.w3.org/2000/svg" xmlns:xlink="http://www.w3.org/1999/xlink" x="0px" y="0px" viewBox="84 10 959 593"
	 style="enable-background:new 84 10 959 593;" xml:space="preserve">
<style type="text/css">
	.st0{fill:#199974;}
	.st1{fill:#2048A0;}
	.st2{fill:#F20C8B;}
	.st3{fill:#366B17;}
	.st4{fill:#D82E12;}
	.st5{fill:#600B3E;}
	.st6{fill:#DFEF0F;}
</style>
<path class="st0" d="M215.5,46.7l-9.1-2.6l-4.1-1.4l-1.1,0.8l-0.3,0.8l2.3,4.6l1.1,2.4l-1.7,3.3v2.1l0.6,1.4l-0.8,1.7l0.5,3l0.9,1.2
	l-0.2,1.2l-1.4,0.2l-0.6-1.8l-1.1-2.3l-1.7-1.4l0.3-2l2.1-0.5l-0.3-1.7l-0.3-1.1l-2,1.2l-1.2,1.1v2.3l-2.1,0.2l-3.2-0.9l-2.7-1.4
	l-2.9-0.6l-4.3-2l-3-1.8l-2.6-2.4l-2.3-2.7l-2-0.5l-2.1,8.8l1.7,3v7.5l-0.6,2.7l1.4,6.7l2.6,2.6l-4.1,0.6l-0.2,3.5l2.4,1.1l-1.5,3.8
	l-2.6,0.3l-0.3,2.7l2.1,2.7l-2,2.4l-2.1,6.1l-3,9.4l-3,6.1l-4.7,13.2l-6.1,12.8l-7.6,11.9l-1.8,2.7L140,166l-1.2,5.6l2.5,3.3
	l-0.5,0.9l-1.5,4.4l-0.2,7l-4.9,11.1l-2.9,2.4l-0.3,1.1l-1.7,0.8l-1.4,4l-0.8,3l2.6,4l1.5,4l1.1,3.3l-0.3,6.1l-1.7,2.9l-0.6,5.5
	l-0.9,3.5l1.7,3.7l2.6,4.3l2.1,4.6l1.2,3.8l-0.3,3l-0.3,0.5v2l5.3,5.9l-0.5,2.3l-0.6,2.1l-0.6,1.8l0.2,7.8l2,3.5l1.8,2.4l2.6,0.5
	l0.9,2.6l-1.1,3.3l-2,1.5h-1.1l-0.8,3.7l0.5,2.7l3,4.1l1.5,5l1.4,4.4l1.2,2.9l3.2,5.5l1.4,2.4l0.5,2.7l1.5,0.9v2.3l-0.8,1.8
	l-1.7,6.7l-0.5,1.8l2.3,2.6l4,0.5l4.3,1.7l3.7,2h2.7l2.7,2.9l2.4,4.6l1.1,2.1l3.7,2l4.6,0.8l1.4,2l0.6,3l-1.4,0.6l0.3,0.9l3,0.8
	l2.6,0.2l2.7,4.4l3.7,4l0.8,2.1l2.4,4l0.1,0.8c18.6-25.4-5.5-57.7-24.2-82.1c-5-7,3-18-2-27c-5-17-21-31-18-47c4-17,9-32,10-49
	c1-8,11-9,14-15c13-24,17-51,21-78c1.9-10.2,16.5-26.9,19.2-37.3c-0.9-2.2-4.4,2.8-4.7-0.8L215.5,46.7z"/>
<path class="st1" d="M417.5,454.7c-8-8-1-22,4-32c1-2-2-6-2-8c-3-31-2-63,12-93c4-8,2-18-4-27c-18-30-15-63-25-95c-1-4-3-8-7-11
	c-3-2-7,0-11-1c-10-3-26-5-20-18c1-2,5-4,4-7c-6-14-23-19-31-31c-6-11-7-25-13-37c-2-3-6-7-5-12c1-3.5,3.6-7.4,5.2-10.9l-2-0.4
	l-30.8-6.5l-1.1-0.2l-12.2-2.4l-0.7-0.4l-14.3-3.2L242,53.5l-18.9-5.3l-1.5-0.3c-0.1,0.3-0.1,0.6-0.2,0.9c0.1-0.3,0.2-0.6,0.2-0.9
	l-0.6-0.1c-4.3,13.3-15.1,22.2-19.7,37c-4,27-8,54-21,78c-3,6-13,7-14,15c-1,17-6,32-10,49c-3,16,13,30,18,47c5,9-3,20,2,27
	c18.8,24.4,42.8,56.7,24.2,82.1l0.2,2.3v8.8l0.5,1.7l9.4,1.4l18.6,2.6l13.1,0.9l0.9,0.7l-2.5,2l-0.3,1.4l0.5,0.9l17.8,10l11.4,7.2
	l13.8,8.1l15.8,9.4l11.6,2.3l23.7,2.5l1.5,0.8l14.6,1.9l1.2-9.4l15.7,2.4l11.7,1.5l0.9,0l1.8,0.5l2.4,2.7l1.4,4.1l4.4,2.1l1.2,3
	l6.7,7.5l1.2,1.5l4.7,2l1.1,2l1.5,0.9l0.5,2.6l3,6.1v7.6l2.1,4.4l7,7.3l4.9,2l1.7,1.8v0.6l3.7,2.1l1.8,0.6l1.7,1.1l2.4,0.9l2.3-2.3
	l4.1-5.8l0.9-3.5l2.1-3l3.3-1.4l0.3-0.1C442.3,475.6,429.9,465.5,417.5,454.7z"/>
<path class="st2" d="M649.8,336.4c0.1-0.1,0.1-0.2,0.2-0.4C649.4,336.6,649.5,336.6,649.8,336.4z"/>
<path class="st2" d="M650.4,336c0.2,0.3,0.4,0.6,0.6,1C652.8,334.6,651.4,335.4,650.4,336z"/>
<path class="st2" d="M527.2,514.8c1-1,4-3,5-5c15-15,21-33,39-46c11-8,28,3,32-4c10-13-6-32-7-48c0-14-4-27-4-42c0-4-6-11-4-12
	c20.9-9,51.7,5.9,62.8-21.6c-0.3,0.2-0.4,0.2,0.2-0.4c-0.1,0.1-0.1,0.2-0.2,0.4c0.1-0.1,0.3-0.2,0.5-0.3c-2.4-3.1-7.6-3.4-9.4-7
	c-15-38-19-83-2-122c1-2-3-6-4-9c-2,1-5-1-5-1c-8-9-17-12-23-20c-3-4,2-7,3-10c1-1-1-4,0-5c20.9-12.7-2.7-39.4-5.8-59.9l-1.7,0.5
	l-1.1,1.1l-0.3,1.2h-4.6v-2l-5.9-0.3l-0.3-1.4H587l-1.5-1.5l-1.4-5.8l-0.8-5.2l-1.8-0.8l-2.1-0.5l-0.6,0.2l-0.3,7.8l-28.4,0l-1,0
	l-26.8-0.5L504.8,94l-25-1.2L456.4,91l-1.2-0.5l-28.9-2.6l-27.5-3.3l-27.5-3.8l-30.4-5l-15.4-2.8c-1.6,3.5-4.2,7.3-5.2,10.9
	c-1,5,3,9,5,12c6,12,7,26,13,37c8,12,25,17,31,31c1,3-3,5-4,7c-6,13,10,15,20,18c4,1,8-1,11,1c4,3,6,7,7,11c10,32,7,65,25,95
	c6,9,8,19,4,27c-14,30-15,62-12,93c0,2,3,6,2,8c-5,10-12,24-4,32c12.4,10.8,24.9,20.9,31.6,34.8l4-1.6l2.9,2.1l7,0.6l6.4,1.1l2.4,2
	v1.1l2.4,2.9l5.6,5l0.2,1.4l1.7,1.8l0.8,4l5,11.6l-0.2,1.8l4,2.4l3.3,6.2l3.2,4.1l3,1.2l1.5,2.1l-1.2,4.1l0.6,0.9l1.2,0.6l-0.3,3.2
	l-0.6,0.6l0.6,2.1l3,1.8l1.2,6.1l2,3.7l1.6,0.7c0.9-1.8,1.5-3.7,1.9-4.5C519.2,544.8,519.2,528.8,527.2,514.8z"/>
<path class="st3" d="M784.5,312.1c21-1,22-21,30-36c3-6,11-7,15-11c12-11,3-29,8-39c6.3-12.6,13.4-30.1,8.9-40.7l-0.3,0.1l-2,1.2
	l-1.5-0.2l-1.8-1.2l-5.9,0.2l-3,0.5l-3.8,1.2l-4.1,1.4l-2.7,1.7l1.8,5.8l1.7,0.2l1.2,2.9l0.2,0.9l-1.1,0.9l-2,2.6l-0.5,1.5l-1.8,1.7
	l-1.7,1.1l-0.9,1.5l-1.2,1.1l-1.3,1.1l-0.9,0.5l-5.2,5.3l-1.2,0.5l-4,2.8l-1-0.1l-5.7,3.8l-3.7,2.1l-3.2,3.5l-3.8,3.7l-3,0.8
	l-2.7,0.5l-5.2,2.4l-2,0.2l-3.2-2.9L766,235l-2.4-1.4l-2.2-1.3l-1.1-0.3l0.1-0.6l0.2-1.4l2-3.5l1.9-1.6l-0.2-4.8l1.5-1.5l1-0.3
	l0.2-3.3l1.4-2.9l1,0.6l0.2,0.6l0.8,0.2l1.8-0.9l-0.3-9l-3-7.8l-2.1-8.5l-2.3-3l-2.4-1.7l-1.5,1.1l-3.7,1.7l-1.8,4.7l-2.6,3.5
	l-1.1,0.6l-1.4-0.6c0,0-2.4-1.4-2.3-2c0.2-0.6,0.5-4.7,0.5-4.7l3.2-1.2l0.8-3.2l0.6-2.4l2.3-1.5l-0.3-9.4L753,167l-1.2-0.8l-0.8-2
	l0.8-0.8l1.5,0.3l0.2-1.5l-2.3-2.1l-1.2-2.4h-2.4l-4.3-1.4l-5.2-3.2h-2.6l-0.6,0.6l-0.9-0.5l-2.9-2.1l-2.7,1.7l-2.7,2.1l0.3,3.3
	l0.9,0.3l2,0.5l0.5,0.8l-2.4,0.8l-2.4,0.3l-1.4,1.7l-0.3,2l0.3,1.5l0.3,5.2l-3.3,2l-0.6-0.2v-4l1.2-2.3l0.6-2.3l-0.8-0.8l-1.8,0.8
	l-0.9,4l-2.6,1.1l-1.7,1.8l-0.2,0.9l0.6,0.8l-0.6,2.4l-2.1,0.5v1.1l0.8,2.3l-1.1,5.8l-1.5,3.8l0.6,4.4l0.5,1.1l-0.8,2.3l-0.3,0.8
	L709,200l3.3,5.6l2.7,6.1l1.4,4.6l-0.8,4.4l-0.9,5.6l-2.3,4.9l-0.3,2.6l-3.1,2.9l-1,0.7l-2.7,1.5l-2,1.8l-1.1,0.3l-1.4-0.9l-2.9-0.8
	l-0.8,0.2l-0.3-0.9l-0.8-2.4l-1.2-3.5l-1.5-1.7l-1.4-2.4l-0.2-5.2l-0.3-1l0.3-2.8l-1.5-4.3l-0.6-5.8l-1.1-2.3l0.9-2.9l0.8-2.7
	l1.4-2.4l-0.6-3.2l-0.6-3.3l0.5-1.7l1.8-2.3l0.2-2.6l-0.8-1.2l0.6-2.4l0.5-3l2.6-5.3l2.7-6.4l0.2-2.1l-0.3-0.9l-0.8,0.5l-4,5.9
	l-2.6,3.8l-1.8,1.7l-0.8,2.1l-1.4,0.8l-1.1,1.8L685,181l-0.2-1.7l1.2-2.3l2-4.4l1.7-1.5l1-2.2l0.5-0.8l3-6.6l0.9-3.8l1.8-4.1
	l0.8-0.2l1.1,1.5h0.6l4.3-2.3l1.4,1.5l0.5,0.2l1.2-1.1l1.1-2.9l2.3-0.8l6.5-0.6l1.8-2.4l4.9-0.2l5.5,1.2h1.7l3-1.4l2.1,0.2l2-0.6
	l3.5,0.5l0.8,0.3l1.2-0.3l-1.2-0.9l-1.2-0.6l-3-2.9v-6.5l-1.4-0.5l-1.1,1.1l-5.8,1.5l-1.8,0.5l-2.7-0.8l-0.5-0.3v-5.3l-1.4-0.2
	l-2.4,1.2l-4.3,1.8l-6.2,0.3l-3.2,1.1l-3.8,3.3l-1.5,0.9h-1.1l-1.2,0.8l-1.5-0.5l-1.5-1.2l-1.4,0.9l-3.7,0.2l-2.6-2.6l-1.4-2.9
	l-1.4-1.1l-3-0.9h-2.1l-1.2-1.2l-3.3,2.7l-0.9,1.1l-0.8-0.5l0.3-2.4l2.3-3l0.5-2.3l2.1-0.8l1.4-2.9l3.5-0.9l0.3-0.9l-1.1-1.1
	l-4.4,0.5l-4.1,2.3l-2.1,2.1l-1.2,1.7l-1.7,0.8l-1.8,2.7l-0.2,1.2l-4.1,2l-2.3,1.8l-5.6,0.9l-0.6,0.6v0.9l-3.3,2.1l-2.6,0.8
	l-0.7,0.5l-1,0.4l-0.5,1.2l-1.1-0.2l-0.6-1.1l-2.6-0.8l-1.1,0.2l-1.7,0.9l-0.9-0.6l0.6-1.8l1.8-2.9l1.1-1.1l-1.8-1.4l-2,0.8
	l-2.7,1.8l-7,3l-2.7,0.6l-2.7-0.5l-0.9-0.8l-0.4-0.5l3.6-2.8l1.2-0.2l4.3-4.7l1.7-0.8l2.1-3.7l2.3-3.3l2.9-2.4l4.5-1.9l8.7-3.8
	l3.7-1.7l0.6-2.1l-4.2,0.3l-0.7,1h-0.6l-1.7-2.9l-8.4,0.3l-0.9,0.8H641l-0.5-1.2l-0.8-1.7l-2.4,0.5l-3,3l-1.5,0.8h-2.9l-2.4-0.9v-2
	l-1.2-0.2l-0.5,0.5l-2.4-1.2l-0.5-2.7l-1.4,0.5l-0.5,0.9l-2.3-0.5l-5-2.3l-3.7-2.4h-2.7l-1.2-0.9l-0.4,0.1
	c3.1,20.5,26.6,47.2,5.8,59.9c-1,1,1,4,0,5c-1,3-6,6-3,10c6,8,15,11,23,20c0,0,3,2,5,1c1,3,5,7,4,9c-17,39-13,84,2,122
	c1.6,3.2,5.7,3.8,8.3,6c1.4-0.6,3-1.6,4.7-3c6-3,12-8,16-6c6,3-3,14,6,14c1-1,1-3,1-5c23,9,45,0,63-17
	C752.5,308.1,769.5,313.1,784.5,312.1z"/>
<path class="st2" d="M892.3,307.5l0.4-0.4c-0.2,0-0.3,0-0.5,0L892.3,307.5z"/>
<path class="st2" d="M848,407.1l2-3.3l2.3-0.6l1.1-2.6l1.5-0.8l0.4-5c-3.5,4.8-6.8,9.7-9.7,14.8L848,407.1z"/>
<path class="st4" d="M813,477c-13-7-33-6-43-14c-25-20-56-28-85-11c-11,7-28,1-39,8c-8,6-18,10-25,7c-6.8-2.9-13.5-3.9-17.6-7.6
	c-0.1,0.2-0.3,0.4-0.4,0.6c-4,7-21-4-32,4c-18,13-24,31-39,46c-1,2-4,4-5,5c-8,14-8,30-14,45c-0.4,0.8-1,2.7-1.9,4.5l5.6,2.5
	l4.9,1.1l4,2.9l3,0.6l1.2-0.5l5.2,1.1l5.3,3.7l2.9-1.8l0.9-1.4l-1.7-2.6l-0.9-5.8l-1.7-6.5l-0.8-2.3l0.8-4.3l1.1-3.7l1.2-4.3
	l1.4-5.2l-2.1-1.8l0.9-1.8l3.8-0.3l3.7-5.2l3.2-0.6l5.5-3.3l1.7-1.4l5.9-3.2l5.3-2.3l5-3l2.6-2l5.3-5l1.2-0.8l2-1.4l2.4-1.8l0.9-1.8
	l9.3-4.3l5.3-1.5l0.6-0.1l4.4-1.4l7.6-0.3l9.7,3.3l6.1,1.1l3.5-1.4l3,1.1l3,0.9l0.8-2l-3-1.1l-2.4,0.5l-2.6-1.5c0,0,0.2-1.2,0.8-1.4
	s2.9-0.9,2.9-0.9l1.7,1.4l1.7-0.9l3,0.6l1.4,2.3l0.3,2.1l4.3,0.3l1.7,1.7l-0.8,1.5l-1.2,0.8l1.5,1.5l7.9,3.3l3.3-1.2l0.9-2.3
	l2.4-0.6l1.7-1.4l1.2,0.9l0.8,2.7l-2.1,0.8l0.6,0.6l3.2-1.2l2.1-3.2l0.8-0.5l-2-0.3l0.8-1.5l-0.2-1.4l2-0.5l1.1-1.2l0.6,0.8
	c0,0-0.2,2.9,0.6,2.9c0.8,0,4,0.6,4,0.6l3.8,1.8l0.9,1.4h2.7l1.1,0.9l2.1-2.9v-1.4h-1.2l-3.2-2.6l-5.5-0.8l-3-2.1l1.1-2.6l2.1,0.3
	l0.2-0.6l-1.7-0.9v-0.5h3l1.7-2.9l-1.2-1.8l-0.3-2.6l-1.4,0.2l-1.8,2l-0.6,2.4l-2.9-0.6l-0.9-1.7l1.7-1.8l1.9-1.7l0.7-0.5l1-0.7
	l2.4-4l1.7,0.8l6.4-1.8l2,0.3l1.4,0.8h4.9l0.2-1.2l1-0.2h2.6l0.6,0.2l1.2-2.6l1.4-4.1l2.1,0.6l2.9,5.6v0.9l-2.6,1.8l2.6,0.3l5.2-2.4
	l0.6,0.1l3.3-0.6l5.6-2l5.6-0.5l4.1-0.6l7.2,1.7l7.6,3.7l1.5,1.4l2.7,1.1l1.5,1.8l0.3,2.6l3-1.2h3.7l3.3-1.8l3.5-3.3l2.9,0.2
	l0.5-1.1l-0.8-0.9l0.2-1.8l3.8-0.8h2.4l2.7,1.4l4,1.4l2.3,3.5l2.6,0.9l1.1,3.2l3.2,1.5l1.5,2.4l1.8,0.6l4.9,1.2l1.2,2.9l2.9,3.5v9
	l-1.4,4.4l0.3,2.6l1.2,4.6l1.7,3.8l0.8-0.5l1.4-4.3l-2.4-0.9l-0.3-0.6l1.5-0.6l4.3,0.9l0.2,1.5l-3,5.2l-2,2.3l3.3,3.5l0.1,0.2
	C823,510.8,830,485.9,813,477z"/>
<path class="st2" d="M896.5,353.7c0.6-0.4,1.2-0.8,1.8-1.3l-0.9,0.3L896.5,353.7z"/>
<path class="st2" d="M866,381.4l2.2-0.5l4.4-0.5l0.5-2.3l1.8-6.1l0.4-0.5c-0.8,0.8-1.5,1.6-2.3,2.4
	C870.6,376.4,868.3,378.9,866,381.4z"/>
<path class="st2" d="M895.3,354.9l-0.1-0.3c-3.4,2.4-6.6,4.9-9.7,7.5l3.6-1.7l2.6-0.6l1.1,0.5h1.2l2.9-4.6l1.8-3.3l-0.3,0.1
	c-0.6,0.4-1.2,0.8-1.8,1.3L895.3,354.9z"/>
<path class="st5" d="M895.9,353h-4l1.8-5.9l-0.8-1.2h-1.8V345l-0.3-1.2l1.5,1.2l1.4,0.2l2.3,0.3l3.5-1.5l1.2-2.7l0.6-2l2.4-1.2
	l0.3-4l-0.8-0.6l2.3-0.2l-0.6-2.1l-2.3-2.3l-3.3-6.1l-1.6-4.4l-0.9-0.9l-3.4-5.7l-5.5,1.6l-1.5-1.4l2.4-1.3l-0.5-2.4l-1.7-1.7
	l-0.1-1.3l-2.1-1.5l-0.1-1.5l0.1,0c-3.3-4.7-5.7-11.3-10.4-10.6c-10,1-15,11-27,3c-4-3-9-8-6-13c4-7,23-11,13-20c-6-5-8,4-15,4
	c0-1,0-2,0-3c-1,0-2,0-3,0c1,5-4,13-10,10c-1.8-0.7-2.3-2-2.3-3.5c-3.7,1.9-7.7,3.7-9.7,7.5c-8,15-9,35-30,36c-15,1-32-4-43,5
	c-18,17-40,26-63,17c0,2,0,4-1,5c-9,0,0-11-6-14c-4-2-10,3-16,6c-1.7,1.4-3.3,2.3-4.7,3c0.4,0.3,0.8,0.7,1.1,1.1
	c1-0.6,2.4-1.4,0.6,1c-0.2-0.3-0.4-0.7-0.6-1c-0.2,0.1-0.4,0.2-0.5,0.3c-11.1,27.5-41.9,12.7-62.8,21.6c-2,1,4,8,4,12
	c0,15,4,28,4,42c1,15.8,16.5,34.4,7.4,47.4c4.1,3.7,10.8,4.7,17.6,7.6c7,3,17-1,25-7c11-7,28-1,39-8c29-17,60-9,85,11
	c10,8,30,7,43,14c17,8.9,10,33.8,2.6,51.8l2.3,2.7l2.7,5l2.7,3.7l2,4.7l1.7,0.3l1.5-2l1.7,1.1l2.4,3.8l0.6,3.3l2.9,4.1l0.8-1.2
	l3.7,0.3l3.3,2.1l3.2,4.9l0.8,3.2l0.3,2.7l1.1,0.9l1.2,0.5l2.3-0.9l1.4-1.5l3.7-0.2l2.9-1.4l2.6-3l-0.5-1.8l-0.3-2.3l0.6-1.8
	l-0.3-1.8l2.3-1.2l0.3-3.2l-0.6-1.7l-0.5-11.3l-1.2-7.2l-4.3-7.8l-3.3-5.5l-2.4-5l-2.7-2.7l-2.7-7l0.8-1.2l1.1-1.2l-1.5-2.7
	l-3.8-3.5l-4.6-5.2l-3.5-5.9l-5-8.8l-3.5-9.2l-2.1-6.9l0-0.8l-0.7-5.9l2.1-9.4l1.4-4l-0.5-2.4l3.1-5.9l-0.5-1.3l0.5-0.9l2-1.2
	l4.7-5.2l-0.9-3l2.7-0.2l3.3-3.2l1.5-0.8l2.1-3.2l0.1-0.1c2.9-5.1,6.2-10,9.7-14.8l0.1-0.9l2.4-5.8l5.1-5.1l0.3-0.8l2.9-0.7
	c2.3-2.6,4.6-5.1,7-7.4c0.7-0.8,1.5-1.6,2.3-2.4l2.8-3.9l6.1-5l1.3-0.6c3.1-2.6,6.4-5.1,9.7-7.5L895.9,353z"/>
<path class="st6" d="M975.3,131c0.6,0,1.2,0,1.2,0l4.6-5.2l3.2-2.9l1.8-0.6l2-4.4v-1.8l-2.1-3.5l-1.8-2l-2.6,0.2l0.5,1.1l-0.2,0.5
	h-0.8l-2.7-2.1l-0.2-4.6l-0.8-1.8h-5.6l-8.5-28.2l-1.8-0.9l-5.6-2.3l-1.4-0.2l-1.7,1.7l-3.8,2.7v0.9l-0.8,0.8l-2.6-0.6l-1.2-2.1
	v-1.1l-1.2-0.2H942l-2,4l-2.7,8.4l-1.7,4.6l0.2,4.6l0.2,1.4l-0.8,2.6l-0.8,0.9v5.6l1.8,2.3l-1.4,3.8l-2.4,4.4l-0.8,5.2v2.4l-1.4-0.4
	l-1.3,0.1l-0.8,0.4l-0.8,0l-0.6,1.5l-0.6-0.5l-0.9-0.9l-1.4,1.8l0,4.7l-0.9,0.3l-24.7,6.4l-0.6,0.4l-7.1,1.9l-4.3,1.4l-3-0.2
	l-5.2,1.2l-2.9,1.2l-2.3,1.7l-2,2.3l-2.6,3.5l-2.7,4.3l-1.4,2.7l-0.6,0.8l-5.5,5.2l0.2,2.4l0.8,1.1l1.7,0.8h1.7v1.4l-1.1,2l0.3,1.4
	l1.4,2l-0.2,2.1l-1.8,1.1h-2l-1.5,1.8l-1.7,3l-2,1.7l-4.9,0.5l-2.1,0.9c4.5,10.7-2.6,28.1-8.9,40.7c-5,10,4,28-8,39
	c-1.4,1.4-3.3,2.5-5.3,3.5c0.1,1.5,0.6,2.8,2.3,3.5c6,3,11-5,10-10c1,0,2,0,3,0c0,1,0,2,0,3c7,0,9-9,15-4c10,9-9,13-13,20
	c-3,5,2,10,6,13c12,8,17-2,27-3c4.7-0.7,7.2,6,10.4,10.6l2.4,0.1l0.2-1.3l-1.2-0.7l0.5-1.8l-1.3-1l0.4-4.4l-0.8-1.1l-3-0.4l-2-2
	l-4.6-0.9l-2.8-0.9l0.2-0.6l4.1-0.1l2.9,0.9l2,0.3l0.9-2l-1.4-2v-1.7l-2.3-2l-2-5.2l1.2-5l-0.2-2l-1.2-1.2c0,0,1.4-1.5,1.4-2.1
	s0.5-2,0.5-2l1.8-1.2l1.8-1.5l0.5,0.9l-1.4,1.5l-1.2,3.5l0.3,1.1l1.7,0.3l0.5,5.2l-2,0.9l0.3,3.3l0.5-0.2l1.1-1.8l1.5,1.7l-1.5,1.2
	l-0.3,3.2l2.4,3.2l3.7,0.5l1.5-0.8l3,3.9l1.3,0.5l0.7,0.3l0.1,1.8l-0.7,2.9l-1.5,3.9l-0.4,5.1l1.3,4c0.2,0,0.3,0,0.5,0l1.6-1.5
	l1.7-4.7l-0.4-3.2l0.4-4.3l2.7-3.6l0.7-3l-0.5-0.5l1.9-3.8l0.2-4.6l-0.2-0.7l-2.1-6.9l-0.9,0.5l-3.3-2.3l-1.7-4.4l-1.8-3.3l-2.1-0.9
	l-2-3.3l0.5-2l0.5,0.5l1,2.1l3,2.7l4.6,2.1l3.8,0.6l0.2,1.4l-0.8,0.9l0.3,2.6h0.8l2-2.3l0.8-4.6l2.6-3.8l2.9-6.1l1.1-5.2l-0.6-1.1
	l-0.2-8.8l-1.5-3.2l-1.1,0.8l-2.6,0.3l-0.5-0.5l1.1-0.9l2-1.8l0.1-1l0.5-0.1l1.1,0.5l3.8-1.1l5.5-1.8l2.4-0.9l6.7-5l3.7-2.7l3.2-3.3
	l-4-1.5l-1.2,1.4l-2.7,2.6l-7.5,3.7l-2.1-0.2l-1.5-0.6l-1.1,0.6l-2.1,2.4l-1.4,1.2l-1.2,0.3l-0.3-1.2l1.8-1.7l-0.7-1.6l1,0.2
	l4.7-3.2l3.3-3l1.8-2l0.8,0.6l2.6-1.4l4.9-1.1l6.6-3.3l0.8-0.2l2.7-0.9l2.3-1.8l1.1-1.7l1.2,0.2l2.7-1.4l0.5-0.4l1.9-0.9l-0.5-2.1
	l0.8-1.4l2.7-1.4l0.8,2.9l-0.5,1.7l-2.3,1.4v0.9l1.8-1.4l3.7-4.3l3.7-1.8l4-1.4l-0.3-2.3l-0.9-2.7l-1.8-2.3l-1.7-0.8l-2,0.2
	l-0.5,0.5l0.9,1.2l1.4-0.8l2,1.5l0.8,2.6l-1.7,1.7l-2.1,0.9l-3.3-0.5l-3.7-5.6l-2.1-2.4h-1.7l-1.1,0.8l-1.8-2.4l0.3-1.4l2.3-4.9
	l-2.7-4.2l-0.5-0.5l0.8-1l1-3.1l0.4-1.1l1.1-5.9l0.2-4.1l1.4-1.2l-0.9-3l2.9-3.3l1.5,1.4l1.2-0.5l5-2.9l0.3-2.7l2.7-0.5l1.5-2.4
	l-0.2-1.5l-0.3-2.9l0.8-1.2l-0.3-1.1l-1.2-1.4l2-1.2l1.7,3l1.4-0.3l0.3,1.2v1.5l1.8,0.2l0.5-2.6l0.5-0.6l-1.5-1.4l0.9-1.4l2.3-1.4
	l0.9-1.4"/>
</svg>
