<svg id="Layer_1" data-name="Layer 1" xmlns="http://www.w3.org/2000/svg" viewBox="0 0 448.58 293.74"><defs><style>.cls-1,.cls-2,.cls-3{fill:none;stroke-miterlimit:10;}.cls-1{stroke:#010101;}.cls-2{stroke:#3a53a4;stroke-width:0.75px;}.cls-3{stroke:#feda00;stroke-width:0.54px;}</style></defs><title>map</title><path class="cls-1 AzzDoIHr_0" d="M89.52,102.59c.78.61,1.44,1.39,2.39,1.2,1.68-.35,2.37,1,3.62.79s2.4.57,4.29.95,2.86.06,3.43-.62.74.46,2,.12,2.81-3.28,4.63-4.6,5-2.26,4.61-1-1.47,2.06-2.12,1.76-1.11-.69-1.65.11-1,2.08.45,1.75,3-.78,4.5,1.08a9.63,9.63,0,0,1,2.38,5.37c.13,1.73.92,2.82,1.86,2.55s-1-3.52,1-4,2,2.47,3,2.29,2,.53,2.42,2.24.29,3.6,1.3,2.28,1.63-2.32.37-3.3-2.07-1.92-1.5-3.54,2.13-2.53,3.69-3.21,4.29-.41,3,1.65-1.85,3.51-.7,4.78,3.33,2.26,2.39,1.12-1.7-2.64-.31-2.32,1.63,2,1.22,0,1-2.17,1.32-.76.68,4.28-1,4.62-.53,2.39.25,3.2,1.42,1.07,1,2.22.55.42.79,1.45-.77,1.94.17,1.72.52-2.65,1.21-2,3.06,2.09,1.78,3.2-1.49,1-1.61,1.46-.26.42-1-.12-1.37-.27-1.11,1.25.66,2.47-.63,2.95a3.5,3.5,0,0,0-2.65,2.61c-.51,1.7-2.29,9.88-3.31,10.05s-1.18,0-1.47-1.26a6.18,6.18,0,0,1,.73-4.63c1-1.56,1.39-2.43,1.11-3.66s-.75-1-1-2.26.59-3.42-.45-3.12-.22,3.49-.85,4.54-1.2,1.3-1.09.37,0-1.59-.7-1.32-.92,2.14-.52,3.86.51,1.66-.56,3.42,0,2.54-.79,3.62-1.21,1.79-1,2.8-.35,1.5-1.27,1.65-9.39,13.85-10.57,14.73-2.13,8.36-1.31,8.78,2.89-.43,4.38-.08,2.23.63,4.15-1,2.67-2.4,3.84-2.67,4.19-3.51,2.32-3-1.63.38-2.38,1-3.65,2-4.23,2.82-1.84,1.57-2.44,1.2-2.82.56-3.61.15.54-5.73,1-6.48,1.4-.72,1.61-1.49a7.88,7.88,0,0,1,1.71-3.17c.8-.7,2.64-5.65,3.57-6.17s3.64-4.07,4.78-4.34,1.92-2.25,2.55-2.4,2.21,1.45,2.89,1.26,1-2.1,1.79-2.29,1.26-3.43,1-4.49,2.35-4.8,3.57-6.17,3.16-3,3.42-4.23.77-1.48,1.17-.79.58,3.27,1.13,2.93.95-1,.59-2.52-1-5.41-1.52-6.31.48-1.83,1.25-.86,2.43,1,2.73,2.26-.33,2.22.07,3.81,2.78,3.79,2.94,4.5-1,1.75-.78,2.5,1.21,1.17,1.4,2a2,2,0,0,1-.75,2.07c-.47.17-1.61-.71-2.43-.58s-1.42-.12-1.12-.8-.39-1.54-1-.79.87,4.38-.15,4.68-4.14-3.8-4.62-3,2.62,3.61,2.75,4.31-.81,1.06-.62,1.86.8,2.14.16,3-.72.92-.47,1.86.58,2.88-.42,3.11-1.09-.14-1.81-.64-1.38-1-1.52-1.61a2.59,2.59,0,0,1,.24-1.68c.27-.79-1-1.34-1.35-.11a4,4,0,0,0,.45,3.36c.53.48,2.37.72,1.65,1.67a8.06,8.06,0,0,1-1.44,1.48c-.49.48-.09,1.44.78.75s6-5.65,6.47-5.27.3,2.07.64,2,1.2.08.73,1.22-.62,1.62.05,2,1.05.51,1.19,1.11-1,4.05-.79,4.77,0,2.12-.77,2.29-1.33.49-1.17,1.21.24.79-.09,1.29a2.32,2.32,0,0,0-.25,1.9,2.21,2.21,0,0,1-.27,2.2c-.64,1-2.3,2.28-2.16,2.88s1,.62,1.15,1.45-.74,3.19-1.41,3.28c-1,.14-.65-1.51-1.28-1.24s-.27,1.18-1.18,1.42-2.61.58-2.27-.83-.83-2.79.17-3.17,1.58-.58,1.44-1.21-.87-.37-1-.89,2.77-2.63,2.55-3.55.48-2.22-.62-2-1.65,2.91-2.38,3.12-1.2-.36-1.74-.2-.77,3.59-1.42,4.91-1.62,2.91-1.43,3.71,1.81,1.54,2.08,2.84-1.4,2.68-1.29,3.26.27,2.08-.27,2.2-1-1.36-1.7-2-.78-.36-.94-1.08.42-.79.31-1.25-1-.79-1.39-2.24,1.27-3.61.87-5.36,1.06-3.5.9-4.16-1.72-.78-1.85-1.35.36-.81,0-2.17-1.41-1-1.17.15,1.32,4.28.49,5.77-1.27,1.68-3.09,2.14-2.46,1.35-2.31,2a6.11,6.11,0,0,1-.76,3.37c-.57.8-1,1.73-1.86,2s-3.7-.23-3.85-.88,1.39-2.58.28-2.42-2,2.52-1.88,3.21,4.28,2,5.87,1.5.7.92,0,1.53a5.31,5.31,0,0,1-2.83,1.56c-1.6.37-2.3,1-2.22,1.36s2.08-.66,2.19-.18-2.31,1.62-2.16,2.25.28.93,1,.73,2.22-2.51,3.08-2.71a1.84,1.84,0,0,0,1.41-1.05c.4-.61,1.31-1.39,1.48-.64a2,2,0,0,1-1.12,1.95c-.54.13-1.79,1.65-1.66,2.22s-.17,1.49-.65,1.63a2.67,2.67,0,0,0-1.3,2.56c.26,1.12.38,1.12.64,1.06s.31-1.91,1.08-2.09,1.62-1.07,1.49-1.64a1.9,1.9,0,0,1,1.22-1.88c.82-.25-.24,1.68-.1,2.31s.82,4.72,1.41,4.51-.64-2.25,0-2.39.78-.27.66-.82-.64-.69-.8-1.35.94-1.54.57-2.88-.1-1.46.65-1.63,1-.9,1.69-1.05.69.35.47,1.49-.73,1.26-.55,2,1.13,2.54,1.65,2.45.55-.73.23-2.13.21-4.66.76-4.79,1.3.27,1.77,2.3.52,2,1.77,2.82,1.06.93,2.15.68,2.2-2.71,3.52-3,6.45-11.72,5.95-13.86,1.08-1.21,2.48-.09,2.61,1.36,2.93,2.64,1.47,2.31,1.19,1.08.91-1.42.75-2.1-.85-1.58.91-2.59,3.59,0,4.26-2.56.9-2.62.61-3.85-1.35-4.12-2.45-4.83-1.48-3-1.94-5.1-.68-3-1.23-3.73.88-2.07.65-3,.81-.91,1.41-.18,1.68,1.27,1.86,2,1.87.89,1.6-.37A11.59,11.59,0,0,0,154,146c-1.58-1.35-.29-2.83.78-2s4.8,2.38,5.14,3.84-.45,2.09-.28,2.81.77.85,1,2.14-.56,2.39,1.09,3.55,1.63.68,2-1.06.88-2.46.45-4.69.41-3.44,0-5.36-.35-4-1.64-4.87-1.27-1.7-1-2.9-.54-1.8-.93-.36a9.47,9.47,0,0,0-.44,3.54c.15.66,1.12.67,1.37,1.76s-1.24,1.53-2.45,1.8-3.55-.5-3.85-1.79,1.84-3.89,1.1-6.68-1.12-2.48-1.43-3.56.25-2.83,1.15-4.52,1.34-2.42,1.15-3.49.79-2.2,1.47-3.42,1-2,1.71-2.12,3-4,4.14-4.25,1.55-2,.84-2.61-1.27.51-1.93.66a2.27,2.27,0,0,1-2.07-1.24c-.42-.78-2.82-1.12-3.2-2.33s-2.43-2.78-2.67-3.72a7.61,7.61,0,0,1,.24-4.16c.54-1.18.82-2.45-.17-3.58a3.83,3.83,0,0,1-1.27-2.21,4.79,4.79,0,0,1,.56-2.93c.49-1.26-.1-2.12.73-3.09s2.77-2.87,1.49-3.57-1.66,2.07-2.89,2.36-2.19-1-3.63-1.48-2.07-1.78-1.61-2.67.53-2.14-.53-1.36-.88.87-1.42,1a1.25,1.25,0,0,1-1.44-1c-.18-.77.44-.58.26-1.24s-1.49-1-1.58-1.35,2-2.49.67-2.18-3,2-4.32,2.3a2.83,2.83,0,0,1-3.13-1.53c-.26-1,1.88-1.91,1.65-2.89s-2.65-1.68-2.84-2.51,4.44-1.39,5.17-2,1.54,0,1.12.92,0,1.48.16,2.25,1.6.92,1.29-.27.74-1.89,1-.6.35,2.27,1.21,3,4.14,1.93,4.51.22-.59-2.15-.92-2.79a4.62,4.62,0,0,1,0-2.43c.11-.52-.24-2.91-1-3.39s-3.23-1.47-3-2.09,3.44-.28,3.77.66,1.88.72,2.21-.9a4.21,4.21,0,0,0-1.21-4c-.94-.62-1.43-.51-1.58-1.17s.61-1.18.49-1.67-1-.3-1.08-.84.84-.67.68-1.36-1.63-.78-1.75-1.38,1.35-1.31,1.12-2.27,1.33-1.89-.07-2.63-3.19-1.25-3.51-2.15-1.25-.82-1.17,0-3.4,5-3.28,5.67,2,1.66,1.82.71.69-.91.88.2-.68,1.56-1.86.86-2.18-1.71-1.67-3.1.31-1.31.13-2.09.64-.94.4-1.59-2.33-1.29-3.17-1.07-.25,1.46-.76,1.58-.55-.23-.76-1.11,1-3.14.66-4.16S132,42.41,131.72,41s.21-2,1.24-2.28,1.09,0,1.48-.07a3.35,3.35,0,0,0,1.3-2c-.1-.43-2-1.5-2.61-.82s-1.32.74-1.58-.49,1.2-4.46,2.43-3.46,3.37,1,2.65-.37,1.29-.66,1.29-.66L452,27.81l9.28,214.6s1.6,1.44,1.8,2.3-1.94,2.17-1.7,3.2,1.35,5,2.37,6.32a10.15,10.15,0,0,1,2.1,3.22c.22.94-.26,1.24,0,2.18s.85.53,1.07,1.47-.65,1.51-.45,2.37,1.79,1.85,2.05,2.6-3.63,5-2.51,7.1,2,1.17,2.41,1.79,1.26,2.33,1.26,2.33l-117.56,4.85s-8.45,8-9.93,8.28-4.7-1.17-6.34-.79-4.2,2.15-5.88,2.36-4.35-.44-5.77-.29-2.3,1-3.41.88-3.1-3.62-8-1.93-3.26,4.65-4.66,5.24-2.6-1.48-4.56-.93-3.51,1.27-4.93,1.78-5.05.45-6.48,1.32-2.33,2.44-3.26,3.11-5.66,1-7.78,2.71-1.42,2.86-2.17,3.13-2.07-.33-4.43,0-8.91,3.33-11.71,2.54-5.77-3.82-9.38-3-3.09,2.26-5,2.8-3.81.34-5.94.93-4.42,2.38-6.59,2.8-5.94-.25-7.48.11-2.95,3.67-5.12,3.27-1-2-1.74-3.58-7.68-6.18-9.14-5.84-1.89.8-3.18,1.1-3.93-1.71-6-1.68-2.44,1.2-5.16,1.56-3.36,0-4.64.26-.84.65-2,.91-4.16-1.57-5.69-1.12-6.2,3.7-7.54,4.92-14.2,7-16.82,7.43a28.08,28.08,0,0,1-10-1.2c-1.36-.65-.91.75-1.93.51s-2.93-2-4.33-1.77-3.73,0-4.58-.75-2.29.53-3.52-.09-4.54-1.9-5.46-4-.14-6.84-.93-9a12.21,12.21,0,0,1-1.07-3.85c-.07-1.07.78-3.92.39-5.34a119.86,119.86,0,0,0-4.4-11.7c-.9-1.54-1.61-6.14-3-7.13s-8.49-7.5-10-7.94-2.89-2.59-6.84-1.67S102.46,272.07,99,271s-2.4-2.76-4.33-3.85-2.75-3.84-4.6-5.22-3.17-1.75-4.88-1.35-4.54.51-5.28,0-1,.45-1.89-.33.46-3.27-.37-3.17-2.29-.69-3.16,0-1.06,1.29-1.79,1.46-2.19-.85-2.75-.17S68.24,259,67.6,260s-.48,2.82-2.63,2.1-2.64-.84-3-2a6.32,6.32,0,0,0-2.3-3.49c-1.14-.64-1.26-1.92-1.94-1.36s-.53,2.39-1.3,3.38-2.06,2.24-2.08.8.79-3.62,1.42-5.58,1.47-3.78,1-5.49a28.74,28.74,0,0,1-.59-6.24c0-2,0-8.36-.18-9.55s.79-4.39,1.14-4.06,0,2.63.28,3.55,1.07,3.64.75,5a10.35,10.35,0,0,0-.33,4.6c.36,1.55,1.11,8.11,1.82,8.22s2.32.46,2.64-.7.42-4.44.79-4.57,1,4.47,2.11,4.21,1-.5.19-1.54a4,4,0,0,1-1-2.54,1.32,1.32,0,0,0-.59-1.58,2.59,2.59,0,0,1-.59-3.12c.51-1.3,1.81-1.37,1.6-2.27s-.84-4-1.57-5-1.58-2.71-1.08-3.5.77.59,1.53,1,1.13.37.81-.78a3.92,3.92,0,0,1,.16-2.8c.36-.81-.25-2.25.43-2.45s.69.25,1.16.14.3-.66.8-.82,1.8,1.53,2.39,1.34.46-.92.22-2-2.48-1.32-2.77-2.57,0-2.58-.8-1.71-1.33,2.84-2.42,3-1.84.47-1.93-1.09-.59-1.17-1.08-.56-1.14.94-.92,1.71,1,2.22.09,1.56-1.87-2.78-2.43-1.88-.79,1.09-1.51.31A5,5,0,0,1,54.19,219c-.33-1.42-.06-4.15-.52-6.12s-1.76-5.65-1.36-6.42,1.9-1.16,1.89,0,.52,1.06.77,2.13.54.78,1.1,1.24.56,1.45,1.34,1.27,2.83-.48,2.34-.82-.75-.32-.85-.75.76-.63.68-1-2.62,0-2.24-.7a4.06,4.06,0,0,1,3.39-2c1.64.07,1.38-1.45,2.67-1.75s2.62-.2,3.57-.78,2.88-2,3.31-2.12,1.73,1,1.64.25-1-1.13-2.13-1-3.69-.68-5-.42-1.21-1.53-2.7-1.09-1.67.79-2.43.25-.07-1.48-.2-2-.95-1.36-1.21-2.48-.66-3.24-1.42-2.2-.71,1.61-1.82,1.91-2.17-.4-1.94.59.61,1.85.19,2.76.35.91.42,1.44-.44,1.82-1.08,2-1.4-.17-1.32-2.36a121.76,121.76,0,0,0-1.74-17.42c-.95-4.08-.82-6.64-2.53-8s-2.37-3-1.78-4-1.14-1.23-1.3-2.1-1.3-4.22-1-5.7-.65-7.27.06-7.93,2-1.46.83-1.69-1.65-.48-2.13-2.54a26.73,26.73,0,0,1-.71-6.94c.21-1.23-2.34-3.26-2.75-5.79s-.17-3.08-2-5.33S34,126.85,32.85,127s-4-2.59-4.6-4.41-.2-2.44-1.15-3a3.41,3.41,0,0,1-1.85-2.92,4.75,4.75,0,0,0-.85-3.28c-.7-1.06.53-6.09.1-7.58s-1.59-3.34-1.93-5-.44-2.07.92-3.83,1.66-3.19.86-4.09,1.21-3.76.77-5.25,2.22-4.09,1.34-4.74-1.39-.72-1.66-1.7-1.65-1.47-1.28-2.19,4.35-.15,5.52,1,5,2.19,6.33,3.28S41,88.11,43.74,89s5.83,1.54,7.82,2.89,5.08,2.58,5.9,4.19,8.53,5,12.64,4.57,7.06-1.55,10.38.08,4.65,1.91,6.82,1.31a2.38,2.38,0,0,1,2.23.58" transform="translate(-21.86 -27.3)"></path><path class="cls-2 AzzDoIHr_1" d="M84.87,136a3.27,3.27,0,0,0,2.63.86c1.3-.36,2.2-1.6,2.93-1.83s1.9.34,2.09-1.16,1.31-.66.65-2.19-1-2-.73-3.39a3.41,3.41,0,0,0-.7-3,5.6,5.6,0,0,1-.75-2.48c-.24-1-2.6-1.57-2.9-2.88s-.64-1.48-1.54-1.45-1-1.34-1.74-1.53-.85-1.31-1-1.94-.32-2.76.55-3,.23-.66.63-1.53,1.77-2.52,1.57-4.95a5,5,0,0,1,.74-3.52,1.75,1.75,0,0,1,.89.2s-.83.9-.63,3.32-1.17,4.07-1.57,4.95.23,1.27-.63,1.53-.69,2.39-.55,3,.29,1.34,1.06,1.52.88,1.59,1.78,1.56,1.13.52,1.44,1.83,2.66,1.85,2.9,2.88a5.6,5.6,0,0,0,.75,2.48,3.41,3.41,0,0,1,.7,3c-.29,1.39.07,1.85.73,3.39s-.43,1.25-.63,2.74-1.73,1.16-2.46,1.39-1.87,1.72-3.75,1.72A2.34,2.34,0,0,1,84.87,136Z" transform="translate(-21.86 -27.3)"></path><path class="cls-3 AzzDoIHr_2" d="M47.290000000000006,74.84A18.16,18.16 0,1,1 83.61,74.84A18.16,18.16 0,1,1 47.290000000000006,74.84"></path><path class="cls-3 AzzDoIHr_3" d="M87.31,115.31a13.16,13.16,0,1,1,13.16-13.16A13.18,13.18,0,0,1,87.31,115.31Z" transform="translate(-21.86 -27.3)"></path><path class="cls-3 AzzDoIHr_4" d="M57.290000000000006,74.84A8.16,8.16 0,1,1 73.61,74.84A8.16,8.16 0,1,1 57.290000000000006,74.84"></path><path class="cls-3 AzzDoIHr_5" d="M62.290000000000006,74.84A3.16,3.16 0,1,1 68.61,74.84A3.16,3.16 0,1,1 62.290000000000006,74.84"></path><style>.AzzDoIHr_0{stroke-dasharray:2491 2493;stroke-dashoffset:2492;animation:AzzDoIHr_draw 2000ms linear 0ms forwards;}.AzzDoIHr_1{stroke-dasharray:96 98;stroke-dashoffset:97;animation:AzzDoIHr_draw 2000ms linear 200ms forwards;}.AzzDoIHr_2{stroke-dasharray:115 117;stroke-dashoffset:116;animation:AzzDoIHr_draw 2000ms linear 400ms forwards;}.AzzDoIHr_3{stroke-dasharray:83 85;stroke-dashoffset:84;animation:AzzDoIHr_draw 2000ms linear 600ms forwards;}.AzzDoIHr_4{stroke-dasharray:52 54;stroke-dashoffset:53;animation:AzzDoIHr_draw 2000ms linear 800ms forwards;}.AzzDoIHr_5{stroke-dasharray:20 22;stroke-dashoffset:21;animation:AzzDoIHr_draw 2000ms linear 1000ms forwards;}@keyframes AzzDoIHr_draw{100%{stroke-dashoffset:0;}}@keyframes AzzDoIHr_fade{0%{stroke-opacity:1;}94.44444444444444%{stroke-opacity:1;}100%{stroke-opacity:0;}}</style></svg>