<svg xmlns="http://www.w3.org/2000/svg" viewBox="0 0 1663.33 413.21"><defs><style>.cls-1{fill:#fff;}</style></defs><title>fish_back</title><g id="Layer_1" data-name="Layer 1"><path class="cls-1" d="M1096.28,310.28c-2.37-1.46-4.86-1-7.06.56-3.89,2.83-7.76,5.69-12.28,7.45a43,43,0,0,1-12.26,3.09c-4,.31-7.89,1-11.89.61v-.24c-.48-1.14.49-1.85,1-2.45,3.39-3.94,6.77-7.92,10.89-11.14,3.64-2.84,8-4.25,12.26-5.76q2-.7,4-1.34c4.11-1.29,5.86-6.11,2.65-9.95-1.72-2.06-4.25-3-6.68-4-10.08-4.14-20.76-5.79-31.43-7.51-6.81-1.1-13.68-1.74-20.52-2.61-4.12-.52-8.3-.5-12.45-.83-6.13-.49-12.28-.48-18.4-.84-8.12-.49-16.25-.44-24.34-.2-11.14.33-22.31.8-33.35,2.59-7.48,1.21-14.89,2.65-22.25,4.53a180.27,180.27,0,0,0-29.91,10.55A122.3,122.3,0,0,0,836.44,331l-1,.55c-2.59-1-5.36-1-8.05-1.29a61.61,61.61,0,0,0-9-.43,95.38,95.38,0,0,0-24.55,4c-5.7,1.83-11.21,3.94-16.13,7.45-.71.51-1.32,1.14-2,1.65s-.77,1.3.13,2.07c7.12,6.11,11.11,14.31,15,22.59,3.11,6.66,5.68,13.59,10.13,19.57a16.91,16.91,0,0,0,8.07,6.31l.33.64c-2,9.82-1.71,16.63-1.42,26.57a122.11,122.11,0,0,0,4.75,30.47,165.77,165.77,0,0,0,12.62,31.06,143.66,143.66,0,0,0,17.05,25.69,149.33,149.33,0,0,0,18,18.21,156.3,156.3,0,0,0,24.53,17.08,130.56,130.56,0,0,0,12.1,6.09,1.56,1.56,0,0,0,.57,0l.31.2a59.3,59.3,0,0,0,1,14,92.63,92.63,0,0,0,7.91,24.72c.67,1.41,1.63,1.62,2.45.36a20.13,20.13,0,0,1,3.89-4.17c4.16-3.58,9.08-5.63,14.54-5.11a159.08,159.08,0,0,1,18.79,3.17c2.5.55,5,1.19,7.48,1.69.63.13,1.45.3,1.92-.54s-.12-1.21-.57-1.74a15.2,15.2,0,0,1-2.26-3.08c-.51-1.09-1.67-2.26-.44-3.62l3.86,1.87c6.17,3.45,12,7.37,16.61,12.73,6.61,7.66,13,15.54,19.39,23.35,6.92,8.42,14.21,16.46,23,23a59,59,0,0,0,7.85,5.18c2.32,1.2,4.1.63,5.16-1.73a8.56,8.56,0,0,0,.4-1.53,76.89,76.89,0,0,0,1.7-16.68c.11-6-.15-12-.47-18-.52-9.78-.12-19.57,2.28-29.12a87.42,87.42,0,0,1,8-20.51c4.28-7.86,9.69-15,13.82-23,2.31-4.45,4.53-8.91,5.72-13.82.84-3.46-.19-4.93-3.83-5.57a22.22,22.22,0,0,0-9,.7c-10.92,2.58-20.91,7.58-31,12.16a225.06,225.06,0,0,1-21.1,8.77A42.6,42.6,0,0,1,984,535.24c-7.09.43-14-1-20.69-3.07A54.8,54.8,0,0,1,939.91,518c-8.91-9-15-19.83-19.61-31.59a3.56,3.56,0,0,1-.14-2.32l-.17-.21c.16.2.63.11.94.17,2.16.37,4.35.56,6.51.92,2.64.45,3.79-1.4,3.62-3.37a50.56,50.56,0,0,0-1.9-11.69c-3.27-10-8.26-18.74-17.25-24.73l3.83,2.3a3.09,3.09,0,0,0,.37-2.11,39.35,39.35,0,0,1,.77-12.08,78.88,78.88,0,0,1,6.9-20.51,3.49,3.49,0,0,0,.2-3.06l3.9-4.92c4.14-4.56,9.52-7.75,14.49-11.38a4.07,4.07,0,0,1,3.07-.76l.53-.11c-.29.27-.46.82.22,2.22A33.91,33.91,0,0,0,956,406.84a169.07,169.07,0,0,0,15.72,10.91c4,2.46,8.12,4.89,12.82,6,3.9.91,5.26,0,5.5-3.28a23.29,23.29,0,0,0-.54-5.55,108.12,108.12,0,0,0-2.84-11.51,76.81,76.81,0,0,0-8.6-20.15c-1.36-2.15-3.31-3.83-4.45-6.11l5.19-2.46c2.09-1,4.46-1.32,6.47-2.39a13.09,13.09,0,0,1,8.67-1.34c7.68,1.2,14.44-1.64,20.65-5.75,3.35-2.21,7-3.28,10.77-4.34,7.54-2.13,14.93-4.67,22.23-7.48,6-2.33,12-4.83,17.8-7.71,8.35-4.16,16.36-8.88,23.42-15.08,3.5-3.07,6.92-6.2,9.34-10.2S1100.63,313,1096.28,310.28Zm-69.12-1.19c-4.47,1.35-8.88-.17-9.85-3.38s1.87-6.91,6.34-8.26,8.88.17,9.85,3.38S1031.63,307.75,1027.16,309.09Z" transform="translate(-531.22 -241.44)"/><path class="cls-1" d="M1280,264.05c.16,4.67,1.63,9.07,3.19,13.46,3.15,8.86,7.85,16.88,13.12,24.58,3.65,5.34,7.65,10.43,11.8,15.4,5,6,10.23,11.83,15.78,17.36,2.75,2.74,5.45,5.47,7.3,9,3.43,6.61,7.94,12.38,15.24,15.08a13.09,13.09,0,0,1,6.92,5.39c1.23,1.92,3.13,3.39,4.48,5.24l3.34,4.67c-2.11,1.44-4.63,2-6.86,3.17A76.81,76.81,0,0,0,1337,390.85a108.12,108.12,0,0,0-8.08,8.67,23.29,23.29,0,0,0-3.17,4.59c-1.37,2.95-.63,4.44,3.21,5.54,4.64,1.33,9.39,1.2,14.11,1a169.07,169.07,0,0,0,19-1.87,33.91,33.91,0,0,0,14.43-5.76c1.28-.89,1.4-1.46,1.28-1.83l.41.35a4.07,4.07,0,0,1,2.31,2.16c2.58,5.58,5.73,11,7.12,17l1,6.2a3.49,3.49,0,0,0-1.32,2.77,78.88,78.88,0,0,1-4,21.27,39.35,39.35,0,0,1-5.2,10.93,3.09,3.09,0,0,0-.7,2l4.47-.14c-10.76.86-19.4,6.08-27.1,13.2a50.56,50.56,0,0,0-7.35,9.29c-1.1,1.64-1,3.81,1.52,4.71,2.06.73,4.07,1.63,6.13,2.36.3.11.67.41.91.31l-.25.1a3.56,3.56,0,0,1-1.25,2c-9.72,8.05-20.33,14.49-32.51,18a54.8,54.8,0,0,1-27.32,1c-6.87-1.49-13.58-3.57-19.57-7.39a42.6,42.6,0,0,1-8.41-7.33,225.06,225.06,0,0,1-14.16-17.93c-6.62-8.94-12.91-18.17-21.2-25.74a22.22,22.22,0,0,0-7.52-5c-3.49-1.22-5.11-.43-6.06,3-1.35,4.86-1.58,9.84-1.73,14.85-.27,9,1,17.86.87,26.81a87.42,87.42,0,0,1-3,21.82c-2.55,9.5-7,18.25-12.19,26.54-3.21,5.09-6.35,10.21-9.18,15.51a76.89,76.89,0,0,0-6.64,15.39,8.56,8.56,0,0,0-.4,1.53c-.22,2.59,1.06,4,3.67,4a59,59,0,0,0,9.38-.7c10.87-1.42,21.15-4.9,31.29-8.88,9.42-3.7,18.81-7.48,28.31-11,6.65-2.43,13.64-3,20.71-3l4.28.24c.41,1.78-1.17,2.25-2.14,2.95a15.2,15.2,0,0,1-3.48,1.59c-.65.25-1.35.3-1.34,1.24s.8,1.21,1.41,1.41c2.43.78,4.91,1.43,7.36,2.17a159.08,159.08,0,0,1,18,6.38c5,2.2,8.31,6.39,10.21,11.54a20.13,20.13,0,0,1,1.37,5.54c.11,1.5,1,1.78,2.32.88a92.63,92.63,0,0,0,18.95-17.73,59.3,59.3,0,0,0,7.66-11.75l.37,0c.17.09.33.25.5.27a130.56,130.56,0,0,0,13.53.57,156.3,156.3,0,0,0,29.74-3,149.33,149.33,0,0,0,24.6-7.13,143.66,143.66,0,0,0,27.4-14.13,165.77,165.77,0,0,0,26.15-21,122.11,122.11,0,0,0,19-24.3c5.09-8.55,8.7-14.33,11.7-23.9l.6-.4a16.91,16.91,0,0,0,10.12-1.59c6.8-3,12.42-7.86,18.38-12.16,7.42-5.35,14.89-10.56,24.08-12.44,1.16-.24,1.46-1,1.12-1.74s-.59-1.64-1-2.43c-2.59-5.46-6.37-10-10.46-14.36a95.38,95.38,0,0,0-19.5-15.44,61.61,61.61,0,0,0-8.07-4c-2.48-1.09-4.92-2.38-7.67-2.79l-.6-1a122.3,122.3,0,0,0-23.18-56.69,180.27,180.27,0,0,0-21-23.78c-5.51-5.22-11.29-10.09-17.23-14.79-8.78-6.94-18.3-12.78-27.87-18.5-7-4.15-14-8.15-21.36-11.68-5.53-2.66-10.89-5.67-16.48-8.22-3.78-1.73-7.43-3.79-11.28-5.34-6.4-2.57-12.7-5.36-19.19-7.71-10.16-3.69-20.28-7.45-31.11-8.74-2.61-.31-5.29-.69-7.81.28-4.67,1.79-5.48,6.85-2.52,10q1.46,1.54,2.86,3.13c3,3.4,6.11,6.75,7.9,11,2,4.82,3,9.94,4.08,15,.16.77.65,1.87-.32,2.63l-.11.21c-3.66-1.64-6.78-4.12-10.09-6.32a43,43,0,0,1-9.21-8.67c-3.09-3.74-5.08-8.12-7.1-12.49-1.14-2.48-3.11-4-5.9-3.92C1281.53,256.37,1279.88,259.4,1280,264.05Zm66,14.42c2.41-2.34,7-1.51,10.25,1.84s3.93,8,1.52,10.3-7,1.51-10.25-1.84S1343.65,280.8,1346.07,278.47Z" transform="translate(-531.22 -241.44)"/><path class="cls-1" d="M2109.55,359.1c-1.45-2.38-3.85-3.14-6.54-2.72-4.75.75-9.49,1.54-14.33,1.06a43,43,0,0,1-12.32-2.83c-3.67-1.52-7.46-2.73-10.87-4.86l.11-.21c.09-1.23,1.28-1.43,2-1.73,4.81-2,9.63-4,14.76-5,4.53-.88,9-.16,13.54.44q2.1.28,4.19.63c4.25.72,8-2.78,6.89-7.65-.6-2.62-2.4-4.64-4.12-6.64-7.1-8.27-15.86-14.59-24.58-21-5.57-4.08-11.39-7.77-17.09-11.65-3.43-2.34-7.17-4.22-10.71-6.4-5.23-3.22-10.72-6-16-9.11-7-4.13-14.27-7.78-21.59-11.24-10.08-4.77-20.23-9.43-30.88-12.86-7.21-2.32-14.47-4.41-21.88-6.08a180.27,180.27,0,0,0-31.44-4.2,122.3,122.3,0,0,0-60,12.3l-1.14,0c-1.87-2.05-4.3-3.35-6.59-4.81a61.61,61.61,0,0,0-7.82-4.48,95.38,95.38,0,0,0-23.68-7.6c-5.91-1-11.78-1.59-17.76-.69-.86.13-1.69.42-2.55.55s-1.27.81-.83,1.9c3.56,8.68,3.39,17.79,3.07,26.93-.25,7.34-1.12,14.69.13,22a16.91,16.91,0,0,0,4.31,9.29v.72c-6.29,7.82-9.08,14-13.35,23a122.11,122.11,0,0,0-9.62,29.3A165.77,165.77,0,0,0,1790,389a143.66,143.66,0,0,0,3.51,30.63,149.33,149.33,0,0,0,7.77,24.41,156.3,156.3,0,0,0,14.09,26.36,130.56,130.56,0,0,0,8,10.93c.11.14.33.18.5.27l.19.32a59.3,59.3,0,0,0-5.49,12.91,92.63,92.63,0,0,0-4.19,25.61c0,1.56.71,2.18,2,1.44a20.13,20.13,0,0,1,5.36-1.95c5.34-1.29,10.65-.89,15.27,2.06a159.08,159.08,0,0,1,15.29,11.37c2,1.62,3.89,3.32,5.9,4.91.51.4,1.15.93,2,.39s.44-1.13.29-1.81a15.2,15.2,0,0,1-.62-3.77c0-1.2-.46-2.77,1.26-3.42l2.58,3.42c3.92,5.88,7.33,12,9,18.89,2.41,9.83,4.48,19.73,6.66,29.62,2.34,10.64,5.17,21.12,10,30.94a59,59,0,0,0,4.64,8.19c1.52,2.12,3.36,2.43,5.39.8a8.56,8.56,0,0,0,1-1.18,76.89,76.89,0,0,0,9.09-14.08c2.82-5.3,5.33-10.77,7.77-16.26,4-8.94,8.79-17.49,15.26-24.9a87.42,87.42,0,0,1,16.46-14.63c7.38-5.06,15.46-9,22.76-14.2,4.08-2.92,8.09-5.88,11.38-9.7,2.32-2.7,2.07-4.48-.88-6.7a22.22,22.22,0,0,0-8.34-3.47c-10.9-2.67-22.07-2.76-33.18-3.28a225.06,225.06,0,0,1-22.78-1.78,42.6,42.6,0,0,1-10.77-2.91c-6.51-2.84-12-7.26-17-12.14A54.8,54.8,0,0,1,1875.85,473c-3.83-12.11-4.39-24.5-3.11-37.06a3.56,3.56,0,0,1,.93-2.13l-.06-.26c.05.24.51.39.76.58,1.76,1.31,3.62,2.47,5.38,3.78,2.15,1.6,4,.47,4.76-1.35a50.56,50.56,0,0,0,3.62-11.28c1.62-10.36,1.16-20.45-4.12-29.86l2.37,3.79a3.09,3.09,0,0,0,1.29-1.71,39.35,39.35,0,0,1,6.18-10.4A78.88,78.88,0,0,1,1909.32,372a3.49,3.49,0,0,0,1.57-2.64l5.71-2.61c5.76-2.18,12-2.58,18.08-3.55a4.07,4.07,0,0,1,3.08.72l.52.15c-.38.11-.78.52-.81,2.08a33.91,33.91,0,0,0,3.24,15.19,169.07,169.07,0,0,0,9,16.87c2.48,4,5,8,8.7,11.16,3.06,2.58,4.71,2.36,6.39-.42a23.29,23.29,0,0,0,2-5.19,108.12,108.12,0,0,0,2.7-11.54,76.81,76.81,0,0,0,1.5-21.85c-.23-2.53-1.21-4.91-1.19-7.46l5.74.17c2.29.1,4.57.85,6.85.81a13.09,13.09,0,0,1,8.33,2.74c6.3,4.56,13.61,5.1,21,4.27,4-.45,7.76.27,11.57,1,7.68,1.53,15.42,2.63,23.2,3.44,6.44.67,12.9,1.16,19.36,1.23,9.33.09,18.61-.47,27.72-2.78,4.51-1.15,9-2.37,13-4.84S2112.21,363.46,2109.55,359.1Zm-61-32.48c-4.59-.83-7.83-4.19-7.23-7.49s4.81-5.31,9.4-4.47,7.83,4.19,7.23,7.49S2053.12,327.45,2048.52,326.62Z" transform="translate(-531.22 -241.44)"/><path class="cls-1" d="M1371,456.13c-1.37-.74-2.88-.5-4.32-.52a45.91,45.91,0,0,1-16.37-3.77l-.83-.78c-.5,0-1,0-1.51-.08-5.17-.56-8.26-3.65-13.45-3.69L1326,444a1.25,1.25,0,0,0,.2-1.44l4.36-3c6.42-2.15,18.58.34,25.27-.46l20.34,4.16c-.55-.35-1.24-4.5-1.56-5q-6.78-10.59-14.23-20.72c-2.67-3.63-5.47-7.17-8.28-10.71-3.41-4.3-7-8.48-10.6-12.59-3.95-4.45-8-8.81-12.23-13q-4.63-4.56-9.46-8.93c-2.76-2.48-5.57-4.9-8.35-7.37-2.17-1.93-4.47-3.72-6.78-5.49-2.74-2.11-5.47-4.25-8.34-6.19-5.08-3.44-10.17-6.88-15.48-10-4.23-2.48-8.47-4.93-12.84-7.17-3-1.51-5.91-3-8.91-4.4-5.38-2.54-10.87-4.81-16.43-6.92a233.55,233.55,0,0,0-29-8.82c-8.41-2-16.91-3.49-25.48-4.67l-3.17-2.2a2.92,2.92,0,0,0-1.58-2.3c-2.31-1.2-4.47-2.66-6.72-4a150.39,150.39,0,0,0-15.93-7.88,118.54,118.54,0,0,0-18.21-6.15c-2.92-.73-5.86-1.41-8.81-2-1.55-.3-3.26-.63-4.07,1.46-.16.41-.74.36-1.14.49-2.11.69-3.94,1.68-4.11,4.25l-.77.4c-3,1.26-5.59,3-7,6.09a2.82,2.82,0,0,0-.31,1.66l-1.91,3.56-.31,1.67c-3,2.2-6,4.33-8,7.56l-1.48,8.68a10.51,10.51,0,0,1-3.65,2.24,102.47,102.47,0,0,0-23.49,15.94,98.68,98.68,0,0,0-12.22,13.51,77.77,77.77,0,0,0-6.3,9.82,82.54,82.54,0,0,0-6.65,15.55c-.66,2.2-1.15,4.45-2,6.6l6.73-.49c-1,2.95-2,5.92-3.13,8.83a20.59,20.59,0,0,0-1.5,5.08l-5.22.1c-6.34,0-12.59.62-18.6,2.83a4,4,0,0,0-2.88,2.91l-2.58,1.56c-3.09,2.37-6.08,4.87-8,8.39l-.21.49c1.68,1.49,3.53.94,5.43.53,8.74-1.87,17.34-4.32,26.05-6.27l4.09,4.59c-1.68,6.06-.19,11.6,2.68,17,1.41,2.64,3.31,5,4.73,7.58l1.16,2.28a4,4,0,0,0-2,3.84,62.78,62.78,0,0,0,2.06,17.08,23.5,23.5,0,0,0,6.16,11,12.7,12.7,0,0,0,3.22,2.4l1.81.8a10.78,10.78,0,0,0,3.3-5.26l.42-1c-.79-.8-1.31-1.8-2.16-2.59a31.79,31.79,0,0,1-4-4.43c-1.24-1.7-2.2-3.62-1.39-5.87l10.63-2.82a81.22,81.22,0,0,1,10.76,9.12,35.8,35.8,0,0,1,9.79,17.72,53,53,0,0,1,.9,13.56c-.36,8.23-1,16.44-1.32,24.67a122.48,122.48,0,0,0,1.65,26.12,83.39,83.39,0,0,0,6.13,20l3.4,5.4a1.59,1.59,0,0,0,.79-1.36c0-2.85.2-5.71.23-8.56,0-3.93.29-7.86.11-11.8l3.44-12.83a3.64,3.64,0,0,1,.15-.68c1.23-2.87,2.48-5.73,3.72-8.59a21.53,21.53,0,0,1,1.56-3.64c1-1.47,2.32-2.71,3.45-4.09,2.11-2.57,4.67-4.77,6.59-7.45,1.31-1.84,3-2.33,4.84-2.85a23.65,23.65,0,0,0,2.34-.92l-3.07-9.86a16.93,16.93,0,0,1,5.48-2.08c6.05-1.3,12.18-1.1,18.3-.57,9.27.8,18.45,2.37,27.69,3.42,8.62,1,17.24,1.71,25.79-.53a16.82,16.82,0,0,0,5.83-2.64l-6.38-8.65a43.31,43.31,0,0,0-9.53-8.38,86.67,86.67,0,0,0-11.37-6.11c-5.74-2.64-11.63-4.9-17.51-7.16-7-2.7-14.07-5.42-20.87-8.69-1.1-.53-2.19-1.08-3.31-1.58a24.77,24.77,0,0,1-3.09-2.15,69.56,69.56,0,0,1-10-8.08,85.93,85.93,0,0,1-6.3-6.21l-7.14-9.15a10,10,0,0,1,8.1-4q12.25.18,24.42,1.54c6.8.77,13.58,1.72,20.35,2.71s13.4,1.89,20.1,2.86c5.09.73,10.19,1.36,15.32,1.83l41,8.72c.08,1.35-.7,2-1.83,2.53a121.4,121.4,0,0,1-18.12,7.2q-4.8,1.48-9.61,2.92c-.94.28-1.69.89-2.84.83l-.58,5.46c-.55,2,.27,3.56,1.2,5.19a33.45,33.45,0,0,0,4,5.16,12.22,12.22,0,0,1,3,6.24l.16.43a4.69,4.69,0,0,0,3.1-.42,76.08,76.08,0,0,0,10.29-5.6,72.06,72.06,0,0,0,10.51-8.4,77.46,77.46,0,0,0,6.76-7.66c2-2.53,3.5-5.46,5.55-8l0-.19c.12.19.46.25.7.33,1.63.57,3.16,1.35,4.76,2a58.75,58.75,0,0,0,15.72,3.8c1.49.16,3.05,0,4.46.77a97.81,97.81,0,0,0,15.28,6.31,141.17,141.17,0,0,0,15,4.16,116.35,116.35,0,0,0,18.88,2.77c8.81.48,17.55.08,25.9-3.22a31.36,31.36,0,0,0,10.37-6.16Zm-51.45-42.29c-4.65-1.53-7.53-5.44-6.45-8.74s5.73-4.73,10.38-3.2,7.53,5.44,6.45,8.74S1324.22,415.36,1319.57,413.84Z" transform="translate(-531.22 -241.44)"/><rect class="cls-1" y="216.95" width="1663.33" height="196.27"/></g><g id="Слой_1" data-name="Слой 1"><path class="cls-1" d="M1280.13,465.1c3.2.89,14.1,9.63,14.1,9.63,4.9,8.93,17.17,16.65,17.17,16.65,18.93,12.85,16.43,17.79,16.43,17.79l-1.45,1.4s3.74,13.39,15.12,20.33c0,0,3.61,11,9.91,14,0,0,4,15.34,12.5,16.78l1.17-1.39s3.23,16.65,6.18,20.18l2.47-1.13c1.82,10.1,5.07,13.11,5.07,13.11-.31,3.89,3.51,15.45,3.51,15.45,20.36-13.47,29.69-81.79,29.69-81.79,2.11-8.6,7.27-17.43,7.27-17.43,6.21-12.64,20.24-13,20.24-13,7.3,4.79,35.55,8.17,35.55,8.17,9.08,6.3,24.31,10.25,24.31,10.25,5.85,1.54,16.46,7.25,16.46,7.25,2.33-3.4-.79-28.74-.79-28.74,10-3.23,20.29-6.65,20.29-6.65,3.69-.6,32.13-9.8,32.13-9.8l-3.24,3.6c-1.46,2,6.36,24.84,6.36,24.84,3.25-1.46,6.34-5.74,6.34-5.74,1.54-.59.92,1.94.92,1.94,21.28-22,15-34,15-34,46-14.27,99.64-46.35,99.64-46.35,8.21-5.3,34.09-18.26,34.09-18.26,22.13-8.85,33.64-20.25,33.64-20.25,5.37-2.65,16.06-13.45,16.06-13.45l11.94-13.71a3.8,3.8,0,0,0,.86-5.69c-3.63-2.28-10.33,1.87-10.33,1.87a39.4,39.4,0,0,1-16.53,6.14c-.78-.3.39-2.48.39-2.48,2.64-2,11.84-14.16,11.84-14.16,5.95-3.26,7.54-5.71,7.54-5.71.28-7.17-16.3-7.59-16.3-7.59-9.39-2.41-33.13-1.74-33.13-1.74-62.39-6.38-130.06,16.58-130.06,16.58-26.62,10.11-34.76,10-34.76,10-3.18.72-28.81-2.67-28.81-2.67-10-2-27.2-1.93-27.2-1.93-2.09,2.39.67,9.28.67,9.28,2.44,7.57.68,10.36.68,10.36-5.46,11.75-2.57,17.07-2.57,17.07-37.3,17.79-83.85,58-83.85,58-14.55,1.16-14,6.54-14,6.54.78,5.56,6.72,3.25,6.72,3.25-7,10.19-27.45,20.09-27.45,20.09a90.55,90.55,0,0,0-10.6-.47c-17.3,1.43-41.1-6.45-41.1-6.45C1302.46,454,1280.13,465.1,1280.13,465.1ZM1722.57,337c3.56-1.87,7.5-1.36,8.81,1.13s-.52,6-4.08,7.89-7.5,1.36-8.81-1.13S1719,338.83,1722.57,337Z" transform="translate(-531.22 -241.44)"/><path class="cls-1" d="M1007.93,422.52s-21.47,13-38.65,15.39a90.55,90.55,0,0,0-10.24,2.8s-22.13-5.12-31.22-13.51c0,0,6.3.93,5.83-4.66,0,0-.7-5.36-15.15-3.26,0,0-54.3-28.9-94.61-38,0,0,1.63-5.83-6.29-16.08,0,0-2.33-2.33-1.63-10.25,0,0,1.17-7.33-1.4-9.2,0,0-16.78,3.71-26.1,7.91,0,0-24.24,9-27.5,9,0,0-7.92,1.86-36.12-2.1,0,0-71.08-7.4-130.5,12.64,0,0-23.3,4.61-31.93,9,0,0-16.08,4.09-14.22,11,0,0,2.1,2,8.62,3.9,0,0,11.65,9.79,14.68,11.19,0,0,1.63,1.86.93,2.33A39.4,39.4,0,0,1,555,408.34s-7.46-2.56-10.49.47a3.8,3.8,0,0,0,2.1,5.36l14.68,10.72s12.82,8.16,18.64,9.55c0,0,13.75,8.57,37.29,12.3,0,0,28.1,6.91,37.29,10.25,0,0,59.42,19.4,107.43,23.13,0,0-3.49,13,22.14,29.83,0,0-1.17-2.33.47-2.1,0,0,4,3.5,7.46,4.19,0,0,2.56-24,.7-25.63l-4-2.8s29.78,2.67,33.5,2.44c0,0,10.77,1.06,21.26,2,0,0,2.56,25.4,5.59,28.2,0,0,9.09-7.92,14.45-10.72,0,0,14-7.22,21.44-15.38,0,0,26.8-9.55,32.86-15.85,0,0,13.75-2.8,22.6,8.16,0,0,7,7.46,11,15.38,0,0,24.24,64.55,47.07,73.18,0,0,1.16-12.12,0-15.85,0,0,2.51-3.66,2-13.91l2.66.56c2.1-4.09,1.56-21,1.56-21l1.44,1.09c7.93-3.28,8.47-19.13,8.47-19.13,5.47-4.37,6.56-15.85,6.56-15.85,9.57-9.29,10.24-23.17,10.24-23.17l-1.72-1s-3.53-4.26,12.09-21c0,0,10.25-10.25,13.05-20,0,0,8.7-10.94,11.62-12.52C1066.45,409.1,1042.22,403.23,1007.93,422.52ZM612.34,389c-.72,2.72-4.46,4.08-8.34,3.05s-6.45-4.08-5.72-6.8,4.46-4.08,8.34-3.05S613.07,386.24,612.34,389Z" transform="translate(-531.22 -241.44)"/></g></svg>