<svg xmlns="http://www.w3.org/2000/svg" xmlns:xlink="http://www.w3.org/1999/xlink" viewBox="0 0 504 504"><defs><style>.cls-1{fill:url(#linear-gradient);}.cls-2{fill:none;}.cls-3{fill:url(#linear-gradient-2);}.cls-37,.cls-4,.cls-67{fill:#5c515f;}.cls-4{opacity:0.6;}.cls-5{fill:#c691be;}.cls-6{fill:#997093;}.cls-7{fill:#abba58;}.cls-8{fill:#7e8940;}.cls-9{fill:#71c9c9;}.cls-10{fill:#61aaa8;}.cls-11{fill:#bca493;}.cls-12{fill:#79d7db;}.cls-13{fill:#b0eaea;}.cls-14{fill:#c9afa1;}.cls-15{fill:#d8bdab;}.cls-16{fill:url(#linear-gradient-3);}.cls-17{fill:url(#linear-gradient-4);}.cls-18{fill:url(#linear-gradient-5);}.cls-19{fill:url(#linear-gradient-6);}.cls-20{fill:url(#linear-gradient-7);}.cls-21{fill:url(#linear-gradient-8);}.cls-22{fill:url(#linear-gradient-9);}.cls-23{fill:url(#linear-gradient-10);}.cls-24{isolation:isolate;}.cls-25{clip-path:url(#clip-path);}.cls-26{fill:#afad87;}.cls-27{fill:#fff;}.cls-27,.cls-38{opacity:0.8;}.cls-28{fill:#ad7da4;}.cls-29{fill:#f4e8f9;}.cls-30{fill:#dcd1e5;}.cls-31{fill:#92a34b;}.cls-32{fill:#d3be90;}.cls-33{fill:#67b7b7;}.cls-34{fill:#93734c;}.cls-35{fill:#99ad63;}.cls-36{fill:#7d8950;}.cls-37{opacity:0.4;}.cls-38{fill:#798473;}.cls-39{fill:#997650;}.cls-40{fill:#684f38;}.cls-41{fill:#c6976a;}.cls-42{fill:#9ee5e3;}.cls-43{fill:#aea5b7;}.cls-44{fill:#786b7c;}.cls-45{fill:#edd4b9;}.cls-46{fill:#aeba83;}.cls-47{fill:#c4d193;}.cls-48{fill:#c6a283;}.cls-49{fill:#ad8c74;}.cls-50{clip-path:url(#clip-path-2);}.cls-51{fill:#9e806c;}.cls-52{clip-path:url(#clip-path-3);}.cls-53{clip-path:url(#clip-path-4);}.cls-54{clip-path:url(#clip-path-5);}.cls-55{fill:url(#linear-gradient-13);}.cls-56{fill:url(#linear-gradient-14);}.cls-57{fill:url(#linear-gradient-15);}.cls-58{fill:url(#linear-gradient-16);}.cls-59{fill:url(#linear-gradient-17);}.cls-60{fill:url(#linear-gradient-18);}.cls-61{fill:url(#linear-gradient-19);}.cls-62{fill:url(#linear-gradient-20);}.cls-63{clip-path:url(#clip-path-6);}.cls-64{fill:#ccc;}.cls-65{fill:#b5b5b5;}.cls-66{fill:#727272;}.cls-68{fill:#a79caf;}.cls-69{fill:#87798c;}.cls-70{fill:#6c6170;}.cls-71{fill:#bdb3c6;}</style><linearGradient id="linear-gradient" x1="96.91" y1="211.19" x2="112.64" y2="211.19" gradientUnits="userSpaceOnUse"><stop offset="0" stop-color="#8c7d91"/><stop offset="1" stop-color="#5c515f"/></linearGradient><linearGradient id="linear-gradient-2" x1="212.21" y1="278.02" x2="227.95" y2="278.02" xlink:href="#linear-gradient"/><linearGradient id="linear-gradient-3" x1="102.29" y1="195.64" x2="100.86" y2="212.12" gradientTransform="translate(3.28 -17) rotate(0.22)" gradientUnits="userSpaceOnUse"><stop offset="0" stop-color="#9eefef"/><stop offset="0.03" stop-color="#9deded" stop-opacity="0.93"/><stop offset="0.17" stop-color="#99e4e5" stop-opacity="0.65"/><stop offset="0.31" stop-color="#95ddde" stop-opacity="0.42"/><stop offset="0.43" stop-color="#93d7d9" stop-opacity="0.24"/><stop offset="0.54" stop-color="#91d3d5" stop-opacity="0.11"/><stop offset="0.63" stop-color="#8fd1d3" stop-opacity="0.03"/><stop offset="0.7" stop-color="#8fd0d2" stop-opacity="0"/></linearGradient><linearGradient id="linear-gradient-4" x1="125.95" y1="247.39" x2="125.11" y2="257.07" xlink:href="#linear-gradient-3"/><linearGradient id="linear-gradient-5" x1="84.91" y1="222.69" x2="83.78" y2="235.67" xlink:href="#linear-gradient-3"/><linearGradient id="linear-gradient-6" x1="61.11" y1="212.56" x2="60.28" y2="222.23" xlink:href="#linear-gradient-3"/><linearGradient id="linear-gradient-7" x1="121.78" y1="217.57" x2="120.94" y2="227.25" xlink:href="#linear-gradient-3"/><linearGradient id="linear-gradient-8" x1="143.2" y1="201.46" x2="142.36" y2="211.13" xlink:href="#linear-gradient-3"/><linearGradient id="linear-gradient-9" x1="150.02" y1="226.74" x2="149.08" y2="237.53" xlink:href="#linear-gradient-3"/><linearGradient id="linear-gradient-10" x1="96.91" y1="210.58" x2="112.64" y2="210.58" gradientUnits="userSpaceOnUse"><stop offset="0" stop-color="#8c9591"/><stop offset="1" stop-color="#5c575f"/></linearGradient><clipPath id="clip-path"><path class="cls-1" d="M112.64,215.4h0a1.16,1.16,0,0,1-1.37,1.14c-2.2-.42-6.55-1.41-9.23-3.05a13.13,13.13,0,0,1-4.69-5.29,4.19,4.19,0,0,1-.44-1.87v-.5A13.4,13.4,0,0,0,102,212.1C105.69,214.33,112.43,215.36,112.64,215.4Z"/></clipPath><clipPath id="clip-path-2"><path class="cls-2" d="M300.87,259.92a57,57,0,0,0-.92-7.57h0c-.06-.27-.11-.52-.17-.74-.54-2-1.15-3.65-1.15-3.65a.52.52,0,0,0-.36,0l.08,0-.1,0h0a.54.54,0,0,0-.19,0h0c-.14,0-.26.1-.2.44a33.46,33.46,0,0,1,1.35,7c.25,3.59-.78,10.64-.25,11.46a.9.9,0,0,0,.43.36h0a1.14,1.14,0,0,0,.54.06l.3-.06a1.76,1.76,0,0,1-.3.06,1.84,1.84,0,0,0,.92-.19S300.87,261.23,300.87,259.92Z"/></clipPath><clipPath id="clip-path-3"><path class="cls-2" d="M244.65,220a44.14,44.14,0,0,0-.71-5.86h0c0-.21-.09-.41-.13-.57-.42-1.57-.89-2.82-.89-2.82a.4.4,0,0,0-.28,0l.07,0-.08,0h0l-.14,0h0c-.1,0-.2.08-.15.34a25.92,25.92,0,0,1,1,5.42c.19,2.78-.6,8.24-.19,8.88a.7.7,0,0,0,.33.28h0a.88.88,0,0,0,.41,0l.23,0-.23,0a1.43,1.43,0,0,0,.71-.15S244.65,221,244.65,220Z"/></clipPath><clipPath id="clip-path-4"><path class="cls-2" d="M307.52,270.63a57,57,0,0,0-.92-7.57h0c-.06-.27-.11-.52-.17-.74-.54-2-1.15-3.65-1.15-3.65a.52.52,0,0,0-.36,0l.08,0-.1,0h0a.54.54,0,0,0-.19,0h0c-.14,0-.26.1-.2.44a33.46,33.46,0,0,1,1.35,7c.25,3.59-.78,10.64-.25,11.46a.9.9,0,0,0,.43.36h0a1.14,1.14,0,0,0,.54.06l.3-.06a1.76,1.76,0,0,1-.3.06,1.84,1.84,0,0,0,.92-.19S307.52,271.94,307.52,270.63Z"/></clipPath><clipPath id="clip-path-5"><path class="cls-2" d="M299.19,276.15a62.12,62.12,0,0,0-1-8.25h0c-.06-.3-.12-.57-.18-.8-.58-2.22-1.26-4-1.26-4a.57.57,0,0,0-.39,0l.09,0-.11,0h0a.59.59,0,0,0-.2,0h0c-.15,0-.28.11-.22.48a36.48,36.48,0,0,1,1.47,7.63c.27,3.91-.85,11.6-.27,12.49a1,1,0,0,0,.47.39h0a1.25,1.25,0,0,0,.58.07l.33-.07a1.92,1.92,0,0,1-.33.07,2,2,0,0,0,1-.21S299.19,277.58,299.19,276.15Z"/></clipPath><linearGradient id="linear-gradient-13" x1="217.84" y1="262.04" x2="216.42" y2="278.51" xlink:href="#linear-gradient-3"/><linearGradient id="linear-gradient-14" x1="241.51" y1="313.79" x2="240.67" y2="323.46" xlink:href="#linear-gradient-3"/><linearGradient id="linear-gradient-15" x1="200.46" y1="289.09" x2="199.33" y2="302.06" xlink:href="#linear-gradient-3"/><linearGradient id="linear-gradient-16" x1="176.67" y1="278.95" x2="175.83" y2="288.62" xlink:href="#linear-gradient-3"/><linearGradient id="linear-gradient-17" x1="237.34" y1="283.96" x2="236.5" y2="293.64" xlink:href="#linear-gradient-3"/><linearGradient id="linear-gradient-18" x1="258.75" y1="267.85" x2="257.91" y2="277.53" xlink:href="#linear-gradient-3"/><linearGradient id="linear-gradient-19" x1="265.57" y1="293.13" x2="264.63" y2="303.92" xlink:href="#linear-gradient-3"/><linearGradient id="linear-gradient-20" x1="212.21" y1="277.41" x2="227.95" y2="277.41" xlink:href="#linear-gradient-10"/><clipPath id="clip-path-6"><path class="cls-3" d="M227.95,282.23h0a1.16,1.16,0,0,1-1.37,1.14c-2.2-.42-6.55-1.41-9.23-3.05a13.13,13.13,0,0,1-4.69-5.29,4.19,4.19,0,0,1-.44-1.87v-.5a13.4,13.4,0,0,0,5.13,6.28C221,281.16,227.73,282.19,227.95,282.23Z"/></clipPath></defs><title>logos-mega</title><g id="Layer_16" data-name="Layer 16"><polygon class="cls-4" points="364.93 187.26 470.11 248.38 365.11 309.26 259.83 248.27 364.93 187.26"/><polygon class="cls-4" points="250.48 254.34 355.67 315.46 250.67 376.34 145.39 315.35 250.48 254.34"/><path class="cls-4" d="M239.71,250.26s-13.08-32.81-32.6-43.32-30-3.65-38.6-10.51-27.66-11.15-34.1-7.51-105,61.24-105,61.24l105.38,60.9Z"/><polygon class="cls-5" points="146.61 135.88 146.61 159.62 250.5 220.5 250.31 196.01 146.61 135.88"/><polygon class="cls-6" points="250.32 195.99 354.39 135.86 354.39 160.2 250.51 220.48 250.32 195.99"/><polygon class="cls-7" points="260.97 203.79 260.97 227.54 364.86 288.41 364.68 263.92 260.97 203.79"/><polygon class="cls-8" points="364.69 263.9 468.75 203.78 468.75 228.12 364.87 288.39 364.69 263.9"/><polygon class="cls-9" points="29.33 203.8 29.33 227.55 133.22 288.42 133.03 263.93 29.33 203.8"/><polygon class="cls-10" points="133.04 263.91 237.11 203.78 237.11 228.13 133.23 288.4 133.04 263.91"/><path class="cls-11" d="M139.73,162.42c2.06.55-4.06.74-4.06.74a22.43,22.43,0,0,1-8.17-6.42c-3.25-4.33.56-2.39.56-2.39A22.11,22.11,0,0,0,139.73,162.42Z"/><polygon class="cls-12" points="133.22 143.43 29.33 203.8 133.03 263.94 237.01 203.69 133.22 143.43"/><path class="cls-13" d="M117.17,152.76s-2.75,6,1.23,10.4,15.46,6.56,19.64,12c10.93,14.21,12,7.82,22.38,11.52,8.3,3,6.63,11.72,7.29,17s3.24,7.27,2.84,11.47-6,7.52-6.2,13.93,2.14,15.45,2.14,15.45l14.17-8.21,5.41-24.55-13.4-36.22-27.31-15.77-22.21-10.51Z"/><path class="cls-14" d="M120.44,150.86s-1,8.59,2.29,10.79,9.38,6,15.44,6.48,15.14,1,22.47,7.43a34.84,34.84,0,0,1,10.86,20.34c.76,5,1.77,14.08,3.79,15.88s2.25,4.13-1.15,8.52-6.68,7.67-6.68,13.61,2,8.92,2,8.92l18.37-25.14L177.66,172.9l-33.28-14.63-21.21-9Z"/><path class="cls-15" d="M123.17,149.27s-2.18,7.79,3.19,12.39,24.56.47,37.68,15.34,7.73,23.13,13.94,32.63-.31,9.5-4.69,16.52-3.82,16.68-3.82,16.68L237,203.69l-103.8-60.26Z"/><path class="cls-14" d="M172.69,172.35c0,2-.64,4.16-3.87,2.76s-3.81-7.09-7.51-7.35-6.47-3.35-4.76-4.42,10.47,3,11.08,4.45S172.69,172.35,172.69,172.35Z"/><path class="cls-14" d="M186.09,211.78a12.54,12.54,0,0,1-4.67-5.5c-1.09-2.58-5-10.48-4.28-11.47s.3-5.49,1.15-6.24.65,4.19,2.26,8.83,1.5,7.33,3.61,7.83S186.09,211.78,186.09,211.78Z"/><path class="cls-14" d="M139.73,162.42c2.06.55-4.06.74-4.06.74a22.43,22.43,0,0,1-8.17-6.42c-3.25-4.33.56-2.39.56-2.39A22.11,22.11,0,0,0,139.73,162.42Z"/><path class="cls-14" d="M185.42,220.67c.45,1.32,0,2.39-1.18,4s-4.63,7.54-5.27,8.18c-2,2.05-3.94.47-4.72.22s2.4-1.93,4.73-4.63,3.17-3.4,3.61-5.11C183,221.81,185,219.35,185.42,220.67Z"/><path class="cls-16" d="M91,185.27s11-4.29,11.34-6.95a2.26,2.26,0,0,0-2.32-2.67S108.68,174,116,187.36,91,185.27,91,185.27Z"/><path class="cls-17" d="M120.17,234.53s6.46-2.52,6.66-4.08a1.33,1.33,0,0,0-1.36-1.57s5.09-1,9.36,6.88S120.17,234.53,120.17,234.53Z"/><path class="cls-18" d="M76.45,210.93s8.67-3.38,8.94-5.47a1.78,1.78,0,0,0-1.83-2.1s6.82-1.29,12.55,9.22S76.45,210.93,76.45,210.93Z"/><path class="cls-19" d="M55.46,199.45s6.46-2.52,6.66-4.08a1.33,1.33,0,0,0-1.36-1.57s5.09-1,9.36,6.88S55.46,199.45,55.46,199.45Z"/><path class="cls-20" d="M116.11,204.7s6.46-2.52,6.66-4.08a1.33,1.33,0,0,0-1.36-1.57s5.09-1,9.36,6.88S116.11,204.7,116.11,204.7Z"/><path class="cls-21" d="M137.59,188.66s6.46-2.52,6.66-4.08a1.33,1.33,0,0,0-1.36-1.57s5.09-1,9.36,6.88S137.59,188.66,137.59,188.66Z"/><path class="cls-22" d="M143.37,214.39s7.21-2.81,7.43-4.55a1.48,1.48,0,0,0-1.52-1.75s5.68-1.07,10.44,7.68S143.37,214.39,143.37,214.39Z"/><path class="cls-23" d="M98.11,205.76a13.4,13.4,0,0,1,6.81,1.77c3.69,2.24,7.66,7.78,7.73,7.87-.22,0-7-1.06-10.61-3.29a13.4,13.4,0,0,1-5.13-6.28A9.28,9.28,0,0,1,98.11,205.76Z"/><g class="cls-24"><path class="cls-1" d="M112.64,215.4h0a1.16,1.16,0,0,1-1.37,1.14c-2.2-.42-6.55-1.41-9.23-3.05a13.13,13.13,0,0,1-4.69-5.29,4.19,4.19,0,0,1-.44-1.87v-.5A13.4,13.4,0,0,0,102,212.1C105.69,214.33,112.43,215.36,112.64,215.4Z"/><g class="cls-25"><g class="cls-24"><path class="cls-1" d="M112.64,215.4h0a1.16,1.16,0,0,1-1.37,1.14c-2.2-.42-6.55-1.41-9.23-3.05a13,13,0,0,1-4.54-5,5.08,5.08,0,0,1-.59-2.37v-.28A13.4,13.4,0,0,0,102,212.1c3.65,2.23,10.39,3.26,10.61,3.29"/></g></g></g><path class="cls-26" d="M103.57,209.89a.16.16,0,0,1-.16-.16V193.57a.16.16,0,1,1,.32,0v16.16A.16.16,0,0,1,103.57,209.89Z"/><path class="cls-27" d="M104,193.57s6.1,8.65,5.43,15.25L104,205.55s.92-1,0-3.48A16,16,0,0,0,104,193.57Z"/><polygon class="cls-6" points="146.43 135.75 250.39 195.97 353.99 135.81 250.96 72.85 146.43 135.75"/><polygon class="cls-28" points="146.43 135.75 176.78 105.17 187.69 103.48 228.2 56.6 235.86 53.96 246.42 40.23 252.23 42.07 259.63 52.64 262.53 54.22 269.66 72.85 279.43 79.57 296.33 103.6 318.25 118.92 353.99 135.81 250.39 195.97 146.43 135.75"/><polygon class="cls-6" points="228.2 56.6 230.31 70.59 233.48 70.59 242.73 102.81 245.63 84.59 242.46 72.85 247.48 62.41 235.86 53.96 228.2 56.6"/><polygon class="cls-6" points="262.53 54.22 266.94 81.31 269.66 72.85 262.53 54.22"/><polygon class="cls-6" points="279.43 79.57 284.29 105.17 281.86 109.72 291.3 123.14 314.97 129.04 296.1 106.77 293.15 99.39 279.43 79.57"/><polygon class="cls-6" points="250.21 67.76 255.13 81.31 261.04 102.81 261.04 120.51 266.1 125.86 269.66 101.23 262.53 89.79 259.94 76.88 250.21 67.76"/><polygon class="cls-6" points="212.32 86.47 205.31 107.51 212.32 129.04 187.69 103.48 176.78 105.17 190.92 123.14 203.84 130.29 222.66 151.8 221.18 113.18 213.8 104.3 218.23 79.57 212.32 86.47"/><polygon class="cls-29" points="216.37 70.29 229.89 67.76 232.43 64.53 237.84 71.79 247.48 62.41 251.82 57.11 257.49 65.3 264.74 67.76 265.12 60.99 262.53 54.22 259.63 52.64 252.23 42.07 246.42 40.23 235.86 53.96 228.2 56.6 216.37 70.29"/><polygon class="cls-30" points="229.6 57.47 232.34 63.36 234.97 64.42 231.5 56.63 229.6 57.47"/><polygon class="cls-30" points="252.14 43.25 252.88 54.22 258.25 60.52 256.77 52.52 252.14 43.25"/><polygon class="cls-30" points="262.53 56.63 263.93 65.05 265.12 60.99 262.53 56.63"/><polygon class="cls-30" points="234.97 59.26 237.4 69.47 237.4 62 234.97 59.26"/><path class="cls-31" d="M468.81,203.82S455.88,171.38,436.58,161s-29.68-3.6-38.16-10.39-27.35-11-33.71-7.42S261,203.79,261,203.79l103.71,60.13Z"/><path class="cls-32" d="M334.07,161a1.69,1.69,0,0,0,.26.86,14.38,14.38,0,0,0,2.27,3.1c1.24,1.24,3.53,2.14,4.64,3.08s1.34,1.9,2.83,3.09a73.07,73.07,0,0,0,5.9,4.41c1.57.95,5,3.71,9.9,4.92s14,.29,23.15,1.88,18.21,14.55,22.44,20.47c2.48,3.47,8.62,2.34,14.07,8.3,4.29,4.69,16,11.9,16,11.9l-12.16,7s-25.09-8.71-31.66-20.21-9-17.72-13.26-19.9-20.26-4.08-20.26-4.08a32,32,0,0,1-13.35-4.46c-6.72-4.08-17.91-16.26-17.91-16.26Z"/><path class="cls-33" d="M398.05,205.77c-5.27-8.68-10.63-19.79-19.1-21.48s-17.49,1.77-32.29-8.36c-13.39-9.16-14.44-13-14.52-13.69l1.62-.94s-.27,3.67,14.52,13.79,23.82,6.66,32.29,8.36,13.82,12.81,19.1,21.48c6.19,10.18,34.08,19.16,34.08,19.16l-8.63,5h0l7.12-4.12S404.24,216,398.05,205.77Z"/><path class="cls-12" d="M394.18,211.27c-6.86-9.68-8.88-16.49-13.19-20.44s-14.21-3.87-26.36-6.42-26.51-19.81-26.51-19.81l4-2.36c.08.65,1.13,4.53,14.52,13.69,14.79,10.12,23.82,6.66,32.29,8.36s13.82,12.81,19.1,21.48C404.24,216,432.24,225,432.24,225l-7.12,4.12C423.59,228.65,402,222.26,394.18,211.27Z"/><rect class="cls-34" x="374.74" y="140.73" width="0.67" height="5.33" rx="0.34" ry="0.34"/><path class="cls-35" d="M375.07,123.94s-1.72,4.88-3.36,6.48a6.59,6.59,0,0,0,1.61-.27s-1.67,4.79-3.12,5.29a2.16,2.16,0,0,0,1.9,0s-1.36,4.17-2.82,5.24l5.79,3.35Z"/><path class="cls-36" d="M375.07,124s1.72,4.88,3.36,6.48a6.59,6.59,0,0,1-1.61-.27s1.67,4.79,3.12,5.29a2.16,2.16,0,0,1-1.9,0s1.36,4.17,2.82,5.24l-5.79,3.35Z"/><rect class="cls-34" x="384.8" y="143.55" width="0.67" height="5.33" rx="0.34" ry="0.34"/><path class="cls-35" d="M385.14,126.76s-1.72,4.88-3.36,6.48a6.59,6.59,0,0,0,1.61-.27s-1.67,4.79-3.12,5.29a2.16,2.16,0,0,0,1.9,0s-1.36,4.17-2.82,5.24l5.79,3.35Z"/><path class="cls-36" d="M385.14,126.77s1.72,4.88,3.36,6.48a6.59,6.59,0,0,1-1.61-.27s1.67,4.79,3.12,5.29a2.16,2.16,0,0,1-1.9,0s1.36,4.17,2.82,5.24l-5.79,3.35Z"/><rect class="cls-34" x="379.02" y="146.46" width="0.67" height="5.33" rx="0.34" ry="0.34"/><path class="cls-35" d="M379.35,129.67s-1.72,4.88-3.36,6.48a6.59,6.59,0,0,0,1.61-.27s-1.67,4.79-3.12,5.29a2.16,2.16,0,0,0,1.9,0s-1.36,4.17-2.82,5.24l5.79,3.35Z"/><path class="cls-36" d="M379.35,129.69s1.72,4.88,3.36,6.48a6.59,6.59,0,0,1-1.61-.27s1.67,4.79,3.12,5.29a2.16,2.16,0,0,1-1.9,0s1.36,4.17,2.82,5.24l-5.79,3.35Z"/><rect class="cls-34" x="366.06" y="146.46" width="0.67" height="5.33" rx="0.34" ry="0.34"/><path class="cls-35" d="M366.39,129.67s-1.72,4.88-3.36,6.48a6.59,6.59,0,0,0,1.61-.27s-1.67,4.79-3.12,5.29a2.16,2.16,0,0,0,1.9,0s-1.36,4.17-2.82,5.24l5.79,3.35Z"/><path class="cls-36" d="M366.39,129.69s1.72,4.88,3.36,6.48a6.59,6.59,0,0,1-1.61-.27s1.67,4.79,3.12,5.29a2.16,2.16,0,0,1-1.9,0s1.36,4.17,2.82,5.24l-5.79,3.35Z"/><rect class="cls-34" x="373.23" y="154.86" width="0.67" height="5.33" rx="0.34" ry="0.34"/><path class="cls-35" d="M373.56,138.07s-1.72,4.88-3.36,6.48a6.59,6.59,0,0,0,1.61-.27s-1.67,4.79-3.12,5.29a2.16,2.16,0,0,0,1.9,0s-1.36,4.17-2.82,5.24l5.79,3.35Z"/><path class="cls-36" d="M373.56,138.08s1.72,4.88,3.36,6.48a6.59,6.59,0,0,1-1.61-.27s1.67,4.79,3.12,5.29a2.16,2.16,0,0,1-1.9,0s1.36,4.17,2.82,5.24l-5.79,3.35Z"/><rect class="cls-34" x="393.48" y="150.8" width="0.67" height="5.33" rx="0.34" ry="0.34"/><path class="cls-35" d="M393.82,134s-1.72,4.88-3.36,6.48a6.59,6.59,0,0,0,1.61-.27s-1.67,4.79-3.12,5.29a2.16,2.16,0,0,0,1.9,0s-1.36,4.17-2.82,5.24l5.79,3.35Z"/><path class="cls-36" d="M393.82,134s1.72,4.88,3.36,6.48a6.59,6.59,0,0,1-1.61-.27s1.67,4.79,3.12,5.29a2.16,2.16,0,0,1-1.9,0s1.36,4.17,2.82,5.24l-5.79,3.35Z"/><rect class="cls-34" x="386.31" y="159.2" width="0.67" height="5.33" rx="0.34" ry="0.34"/><path class="cls-35" d="M386.65,142.41s-1.72,4.88-3.36,6.48a6.59,6.59,0,0,0,1.61-.27s-1.67,4.79-3.12,5.29a2.16,2.16,0,0,0,1.9,0s-1.36,4.17-2.82,5.24l5.79,3.35Z"/><path class="cls-36" d="M386.65,142.42s1.72,4.88,3.36,6.48a6.59,6.59,0,0,1-1.61-.27s1.67,4.79,3.12,5.29a2.16,2.16,0,0,1-1.9,0s1.36,4.17,2.82,5.24l-5.79,3.35Z"/><rect class="cls-34" x="405.06" y="149.13" width="0.67" height="5.33" rx="0.34" ry="0.34"/><path class="cls-35" d="M405.39,132.34s-1.72,4.88-3.36,6.48a6.59,6.59,0,0,0,1.61-.27s-1.67,4.79-3.12,5.29a2.16,2.16,0,0,0,1.9,0s-1.36,4.17-2.82,5.24l5.79,3.35Z"/><path class="cls-36" d="M405.39,132.35s1.72,4.88,3.36,6.48a6.59,6.59,0,0,1-1.61-.27s1.67,4.79,3.12,5.29a2.16,2.16,0,0,1-1.9,0s1.36,4.17,2.82,5.24l-5.79,3.35Z"/><rect class="cls-34" x="402.16" y="157.53" width="0.67" height="5.33" rx="0.34" ry="0.34"/><path class="cls-35" d="M402.5,140.73s-1.72,4.88-3.36,6.48a6.59,6.59,0,0,0,1.61-.27s-1.67,4.79-3.12,5.29a2.16,2.16,0,0,0,1.9,0s-1.36,4.17-2.82,5.24l5.79,3.35Z"/><path class="cls-36" d="M402.5,140.75s1.72,4.88,3.36,6.48a6.59,6.59,0,0,1-1.61-.27s1.67,4.79,3.12,5.29a2.16,2.16,0,0,1-1.9,0s1.36,4.17,2.82,5.24l-5.79,3.35Z"/><rect class="cls-34" x="397.61" y="158.2" width="0.67" height="5.33" rx="0.34" ry="0.34"/><path class="cls-35" d="M397.95,141.41s-1.72,4.88-3.36,6.48a6.59,6.59,0,0,0,1.61-.27s-1.67,4.79-3.12,5.29a2.16,2.16,0,0,0,1.9,0s-1.36,4.17-2.82,5.24l5.79,3.35Z"/><path class="cls-36" d="M397.95,141.43s1.72,4.88,3.36,6.48a6.59,6.59,0,0,1-1.61-.27s1.67,4.79,3.12,5.29a2.16,2.16,0,0,1-1.9,0s1.36,4.17,2.82,5.24l-5.79,3.35Z"/><rect class="cls-34" x="410.85" y="157.21" width="0.67" height="5.33" rx="0.34" ry="0.34"/><path class="cls-35" d="M411.18,140.42s-1.72,4.88-3.36,6.48a6.59,6.59,0,0,0,1.61-.27s-1.67,4.79-3.12,5.29a2.16,2.16,0,0,0,1.9,0s-1.36,4.17-2.82,5.24l5.79,3.35Z"/><path class="cls-36" d="M411.18,140.43s1.72,4.88,3.36,6.48a6.59,6.59,0,0,1-1.61-.27s1.67,4.79,3.12,5.29a2.16,2.16,0,0,1-1.9,0s1.36,4.17,2.82,5.24l-5.79,3.35Z"/><rect class="cls-34" x="407.95" y="170.26" width="0.67" height="5.33" rx="0.34" ry="0.34"/><path class="cls-35" d="M408.29,153.47s-1.72,4.88-3.36,6.48a6.59,6.59,0,0,0,1.61-.27s-1.67,4.79-3.12,5.29a2.16,2.16,0,0,0,1.9,0s-1.36,4.17-2.82,5.24l5.79,3.35Z"/><path class="cls-36" d="M408.29,153.49s1.72,4.88,3.36,6.48a6.59,6.59,0,0,1-1.61-.27s1.67,4.79,3.12,5.29a2.16,2.16,0,0,1-1.9,0s1.36,4.17,2.82,5.24l-5.79,3.35Z"/><rect class="cls-34" x="416.63" y="159.22" width="0.67" height="5.33" rx="0.34" ry="0.34"/><path class="cls-35" d="M417,142.42s-1.72,4.88-3.36,6.48a6.59,6.59,0,0,0,1.61-.27s-1.67,4.79-3.12,5.29a2.16,2.16,0,0,0,1.9,0s-1.36,4.17-2.82,5.24l5.79,3.35Z"/><path class="cls-36" d="M417,142.44s1.72,4.88,3.36,6.48a6.59,6.59,0,0,1-1.61-.27s1.67,4.79,3.12,5.29a2.16,2.16,0,0,1-1.9,0s1.36,4.17,2.82,5.24L417,162.54Z"/><rect class="cls-34" x="427.74" y="159.84" width="0.67" height="5.33" rx="0.34" ry="0.34"/><path class="cls-35" d="M428.08,143s-1.72,4.88-3.36,6.48a6.59,6.59,0,0,0,1.61-.27s-1.67,4.79-3.12,5.29a2.16,2.16,0,0,0,1.9,0s-1.36,4.17-2.82,5.24l5.79,3.35Z"/><path class="cls-36" d="M428.08,143.07s1.72,4.88,3.36,6.48a6.59,6.59,0,0,1-1.61-.27s1.67,4.79,3.12,5.29a2.16,2.16,0,0,1-1.9,0s1.36,4.17,2.82,5.24l-5.79,3.35Z"/><rect class="cls-34" x="436.19" y="162.5" width="0.5" height="4" rx="0.25" ry="0.25"/><path class="cls-35" d="M436.44,149.91s-1.29,3.66-2.52,4.86a4.94,4.94,0,0,0,1.21-.2s-1.25,3.59-2.34,4a1.62,1.62,0,0,0,1.42,0s-1,3.13-2.11,3.93l4.34,2.51Z"/><path class="cls-36" d="M436.44,149.92s1.29,3.66,2.52,4.86a4.94,4.94,0,0,1-1.21-.2s1.25,3.59,2.34,4a1.62,1.62,0,0,1-1.42,0s1,3.13,2.11,3.93L436.44,165Z"/><rect class="cls-34" x="419.61" y="166.54" width="0.5" height="4" rx="0.25" ry="0.25"/><path class="cls-35" d="M419.86,153.95s-1.29,3.66-2.52,4.86a4.94,4.94,0,0,0,1.21-.2s-1.25,3.59-2.34,4a1.62,1.62,0,0,0,1.42,0s-1,3.13-2.11,3.93l4.34,2.51Z"/><path class="cls-36" d="M419.86,154s1.29,3.66,2.52,4.86a4.94,4.94,0,0,1-1.21-.2s1.25,3.59,2.34,4a1.62,1.62,0,0,1-1.42,0s1,3.13,2.11,3.93L419.86,169Z"/><rect class="cls-34" x="379.1" y="159.16" width="0.5" height="4" rx="0.25" ry="0.25"/><path class="cls-35" d="M379.35,146.56s-1.29,3.66-2.52,4.86a4.94,4.94,0,0,0,1.21-.2s-1.25,3.59-2.34,4a1.62,1.62,0,0,0,1.42,0s-1,3.13-2.11,3.93l4.34,2.51Z"/><path class="cls-36" d="M379.35,146.58s1.29,3.66,2.52,4.86a4.94,4.94,0,0,1-1.21-.2s1.25,3.59,2.34,4a1.62,1.62,0,0,1-1.42,0s1,3.13,2.11,3.93l-4.34,2.51Z"/><rect class="cls-34" x="360.35" y="150.87" width="0.5" height="4" rx="0.25" ry="0.25"/><path class="cls-35" d="M360.61,138.28s-1.29,3.66-2.52,4.86a4.94,4.94,0,0,0,1.21-.2s-1.25,3.59-2.34,4a1.62,1.62,0,0,0,1.42,0s-1,3.13-2.11,3.93l4.34,2.51Z"/><path class="cls-36" d="M360.61,138.29s1.29,3.66,2.52,4.86a4.94,4.94,0,0,1-1.21-.2s1.25,3.59,2.34,4a1.62,1.62,0,0,1-1.42,0s1,3.13,2.11,3.93l-4.34,2.51Z"/><rect class="cls-34" x="366.48" y="159.17" width="0.5" height="4" rx="0.25" ry="0.25"/><path class="cls-35" d="M366.73,146.58s-1.29,3.66-2.52,4.86a4.94,4.94,0,0,0,1.21-.2s-1.25,3.59-2.34,4a1.62,1.62,0,0,0,1.42,0s-1,3.13-2.11,3.93l4.34,2.51Z"/><path class="cls-36" d="M366.73,146.59s1.29,3.66,2.52,4.86a4.94,4.94,0,0,1-1.21-.2s1.25,3.59,2.34,4a1.62,1.62,0,0,1-1.42,0s1,3.13,2.11,3.93l-4.34,2.51Z"/><rect class="cls-34" x="424.28" y="167.16" width="0.5" height="4" rx="0.25" ry="0.25"/><path class="cls-35" d="M424.53,154.56s-1.29,3.66-2.52,4.86a4.94,4.94,0,0,0,1.21-.2s-1.25,3.59-2.34,4a1.62,1.62,0,0,0,1.42,0s-1,3.13-2.11,3.93l4.34,2.51Z"/><path class="cls-36" d="M424.53,154.58s1.29,3.66,2.52,4.86a4.94,4.94,0,0,1-1.21-.2s1.25,3.59,2.34,4a1.62,1.62,0,0,1-1.42,0s1,3.13,2.11,3.93l-4.34,2.51Z"/><rect class="cls-34" x="442.7" y="179.89" width="0.5" height="4" rx="0.25" ry="0.25"/><path class="cls-35" d="M442.95,167.3s-1.29,3.66-2.52,4.86a4.94,4.94,0,0,0,1.21-.2s-1.25,3.59-2.34,4a1.62,1.62,0,0,0,1.42,0s-1,3.13-2.11,3.93l4.34,2.51Z"/><path class="cls-36" d="M442.95,167.31s1.29,3.66,2.52,4.86a4.94,4.94,0,0,1-1.21-.2s1.25,3.59,2.34,4a1.62,1.62,0,0,1-1.42,0s1,3.13,2.11,3.93l-4.34,2.51Z"/><rect class="cls-34" x="431.99" y="168.8" width="0.5" height="4" rx="0.25" ry="0.25"/><path class="cls-35" d="M432.24,156.2s-1.29,3.66-2.52,4.86a4.94,4.94,0,0,0,1.21-.2s-1.25,3.59-2.34,4a1.62,1.62,0,0,0,1.42,0s-1,3.13-2.11,3.93l4.34,2.51Z"/><path class="cls-36" d="M432.24,156.22s1.29,3.66,2.52,4.86a4.94,4.94,0,0,1-1.21-.2s1.25,3.59,2.34,4a1.62,1.62,0,0,1-1.42,0s1,3.13,2.11,3.93l-4.34,2.51Z"/><rect class="cls-34" x="438.36" y="173.94" width="0.5" height="4" rx="0.25" ry="0.25"/><path class="cls-35" d="M438.61,161.34s-1.29,3.66-2.52,4.86a4.94,4.94,0,0,0,1.21-.2s-1.25,3.59-2.34,4a1.62,1.62,0,0,0,1.42,0s-1,3.13-2.11,3.93l4.34,2.51Z"/><path class="cls-36" d="M438.61,161.36s1.29,3.66,2.52,4.86a4.94,4.94,0,0,1-1.21-.2s1.25,3.59,2.34,4a1.62,1.62,0,0,1-1.42,0s1,3.13,2.11,3.93l-4.34,2.51Z"/><rect class="cls-34" x="427.49" y="180.73" width="0.5" height="4" rx="0.25" ry="0.25"/><path class="cls-35" d="M427.74,168.14s-1.29,3.66-2.52,4.86a4.94,4.94,0,0,0,1.21-.2s-1.25,3.59-2.34,4a1.62,1.62,0,0,0,1.42,0s-1,3.13-2.11,3.93l4.34,2.51Z"/><path class="cls-36" d="M427.74,168.15s1.29,3.66,2.52,4.86a4.94,4.94,0,0,1-1.21-.2s1.25,3.59,2.34,4a1.62,1.62,0,0,1-1.42,0s1,3.13,2.11,3.93l-4.34,2.51Z"/><rect class="cls-34" x="415.27" y="177.1" width="0.5" height="4" rx="0.25" ry="0.25"/><path class="cls-35" d="M415.52,164.5s-1.29,3.66-2.52,4.86a4.94,4.94,0,0,0,1.21-.2s-1.25,3.59-2.34,4a1.62,1.62,0,0,0,1.42,0s-1,3.13-2.11,3.93l4.34,2.51Z"/><path class="cls-36" d="M415.52,164.51s1.29,3.66,2.52,4.86a4.94,4.94,0,0,1-1.21-.2s1.25,3.59,2.34,4a1.62,1.62,0,0,1-1.42,0s1,3.13,2.11,3.93l-4.34,2.51Z"/><rect class="cls-34" x="392.84" y="169.28" width="0.5" height="4" rx="0.25" ry="0.25"/><path class="cls-35" d="M393.1,156.69s-1.29,3.66-2.52,4.86a4.94,4.94,0,0,0,1.21-.2s-1.25,3.59-2.34,4a1.62,1.62,0,0,0,1.42,0s-1,3.13-2.11,3.93l4.34,2.51Z"/><path class="cls-36" d="M393.1,156.7s1.29,3.66,2.52,4.86a4.94,4.94,0,0,1-1.21-.2s1.25,3.59,2.34,4a1.62,1.62,0,0,1-1.42,0s1,3.13,2.11,3.93l-4.34,2.51Z"/><rect class="cls-34" x="353.84" y="153.18" width="0.5" height="4" rx="0.25" ry="0.25"/><path class="cls-35" d="M354.09,140.59s-1.29,3.66-2.52,4.86a4.94,4.94,0,0,0,1.21-.2s-1.25,3.59-2.34,4a1.62,1.62,0,0,0,1.42,0s-1,3.13-2.11,3.93l4.34,2.51Z"/><path class="cls-36" d="M354.09,140.6s1.29,3.66,2.52,4.86a4.94,4.94,0,0,1-1.21-.2s1.25,3.59,2.34,4a1.62,1.62,0,0,1-1.42,0s1,3.13,2.11,3.93l-4.34,2.51Z"/><rect class="cls-34" x="346.59" y="157.41" width="0.5" height="4" rx="0.25" ry="0.25"/><path class="cls-35" d="M346.84,144.82s-1.29,3.66-2.52,4.86a4.94,4.94,0,0,0,1.21-.2s-1.25,3.59-2.34,4a1.62,1.62,0,0,0,1.42,0s-1,3.13-2.11,3.93l4.34,2.51Z"/><path class="cls-36" d="M346.84,144.83s1.29,3.66,2.52,4.86a4.94,4.94,0,0,1-1.21-.2s1.25,3.59,2.34,4a1.62,1.62,0,0,1-1.42,0s1,3.13,2.11,3.93l-4.34,2.51Z"/><rect class="cls-34" x="320.37" y="168.8" width="0.5" height="4" rx="0.25" ry="0.25"/><path class="cls-35" d="M320.62,156.2s-1.29,3.66-2.52,4.86a4.94,4.94,0,0,0,1.21-.2s-1.25,3.59-2.34,4a1.62,1.62,0,0,0,1.42,0s-1,3.13-2.11,3.93l4.34,2.51Z"/><path class="cls-36" d="M320.62,156.22s1.29,3.66,2.52,4.86a4.94,4.94,0,0,1-1.21-.2s1.25,3.59,2.34,4a1.62,1.62,0,0,1-1.42,0s1,3.13,2.11,3.93l-4.34,2.51Z"/><path class="cls-37" d="M305.15,185.79a16,16,0,0,1,3.81-1.06.49.49,0,0,0,0,.71c.37-.55,3.84-1.17,3.84-1.17-.23.56-.19.61-.19.61a26,26,0,0,1,4.71-1.26h0a26,26,0,0,1-4.71-1.26s0,.05.19.61c0,0-3.47-.63-3.84-1.17a.49.49,0,0,0,0,.71,16,16,0,0,1-3.81-1.06l-2.29,2.05h-1.37c-.13,0-.24.06-.24.13s.11.13.24.13h1.35Z"/><path class="cls-37" d="M345.59,180.39a15.89,15.89,0,0,1-3.58-1.13l-2.29,2.05h-1.37c-.13,0-.24.06-.24.13s.11.13.24.13h1.35l2.29,2.05a16,16,0,0,1,3.81-1.06.49.49,0,0,0,0,.71s2.07-1.43,2.58-1.24c0,0-1.13-.61-1.49-.83S345.59,180.39,345.59,180.39Z"/><path class="cls-37" d="M320,187a20.15,20.15,0,0,1,3.81-.8.31.31,0,0,0,0,.54c.37-.41,3.84-.89,3.84-.89-.23.42-.19.46-.19.46a32.93,32.93,0,0,1,4.71-1h0a32.93,32.93,0,0,1-4.71-1s0,0,.19.46c0,0-3.47-.47-3.84-.89a.31.31,0,0,0,0,.54,20.15,20.15,0,0,1-3.81-.8l-2.29,1.55h-1.37c-.13,0-.24,0-.24.1s.11.1.24.1h1.35Z"/><path class="cls-34" d="M328.11,178.85h0a.23.23,0,0,1-.25-.21v-2.86a.23.23,0,0,1,.25-.21h0a.23.23,0,0,1,.25.21v2.86A.23.23,0,0,1,328.11,178.85Z"/><path class="cls-35" d="M328.11,165.26s-1.29,3-2.52,4a6,6,0,0,0,1.21-.16s-1.25,2.94-2.34,3.25a1.94,1.94,0,0,0,1.42,0s-1,2.56-2.11,3.22l4.34,2.06Z"/><path class="cls-36" d="M328.11,165.27s1.29,3,2.52,4a6,6,0,0,1-1.21-.16s1.25,2.94,2.34,3.25a1.94,1.94,0,0,1-1.42,0s1,2.56,2.11,3.22l-4.34,2.06Z"/><path class="cls-37" d="M351,163.48a20,20,0,0,1,4.31-1.06.45.45,0,0,0,0,.71c.42-.55,4.35-1.17,4.35-1.17-.26.56-.22.61-.22.61a32.6,32.6,0,0,1,5.33-1.26h0a32.6,32.6,0,0,1-5.33-1.26s0,.05.22.61c0,0-3.93-.63-4.35-1.17a.45.45,0,0,0,0,.71,20,20,0,0,1-4.31-1.06l-2.6,2.05h-1.55c-.15,0-.28.06-.28.13s.12.13.28.13h1.53Z"/><path class="cls-34" d="M318.45,179.59h0a.23.23,0,0,1-.25-.21v-2.86a.23.23,0,0,1,.25-.21h0a.23.23,0,0,1,.25.21v2.86A.23.23,0,0,1,318.45,179.59Z"/><path class="cls-35" d="M318.45,166s-1.29,3-2.52,4a6,6,0,0,0,1.21-.16s-1.25,2.94-2.34,3.25a1.94,1.94,0,0,0,1.42,0s-1,2.56-2.11,3.22l4.34,2.06Z"/><path class="cls-36" d="M318.45,166s1.29,3,2.52,4a6,6,0,0,1-1.21-.16s1.25,2.94,2.34,3.25a1.94,1.94,0,0,1-1.42,0s1,2.56,2.11,3.22l-4.34,2.06Z"/><path class="cls-34" d="M310.19,189.17h0a.23.23,0,0,1-.25-.21V186.1a.23.23,0,0,1,.25-.21h0a.23.23,0,0,1,.25.21V189A.23.23,0,0,1,310.19,189.17Z"/><path class="cls-35" d="M310.19,175.58s-1.29,3-2.52,4a6,6,0,0,0,1.21-.16s-1.25,2.94-2.34,3.25a1.94,1.94,0,0,0,1.42,0s-1,2.56-2.11,3.22l4.34,2.06Z"/><path class="cls-36" d="M310.19,175.59s1.29,3,2.52,4a6,6,0,0,1-1.21-.16s1.25,2.94,2.34,3.25a1.94,1.94,0,0,1-1.42,0s1,2.56,2.11,3.22l-4.34,2.06Z"/><path class="cls-34" d="M316.28,185.25h0A.23.23,0,0,1,316,185v-2.86a.23.23,0,0,1,.25-.21h0a.23.23,0,0,1,.25.21V185A.23.23,0,0,1,316.28,185.25Z"/><path class="cls-35" d="M316.28,171.67s-1.29,3-2.52,4a6,6,0,0,0,1.21-.16s-1.25,2.94-2.34,3.25a1.94,1.94,0,0,0,1.42,0s-1,2.56-2.11,3.22l4.34,2.06Z"/><path class="cls-36" d="M316.28,171.68s1.29,3,2.52,4a6,6,0,0,1-1.21-.16s1.25,2.94,2.34,3.25a1.94,1.94,0,0,1-1.42,0s1,2.56,2.11,3.22L316.28,184Z"/><path class="cls-34" d="M358.76,170.8h0a.19.19,0,0,1-.21-.17v-2.39a.19.19,0,0,1,.21-.17h0a.19.19,0,0,1,.21.17v2.39A.19.19,0,0,1,358.76,170.8Z"/><path class="cls-35" d="M358.76,159.45a11.49,11.49,0,0,1-2.1,3.32,5,5,0,0,0,1-.14s-1,2.45-2,2.71a1.62,1.62,0,0,0,1.19,0s-.85,2.14-1.76,2.69l3.63,1.72Z"/><path class="cls-36" d="M358.76,159.46a11.49,11.49,0,0,0,2.1,3.32,5,5,0,0,1-1-.14s1,2.45,2,2.71a1.62,1.62,0,0,1-1.19,0s.85,2.14,1.76,2.69l-3.63,1.72Z"/><path class="cls-34" d="M374.74,168.22h0a.19.19,0,0,1-.21-.17v-2.39a.19.19,0,0,1,.21-.17h0a.19.19,0,0,1,.21.17V168A.19.19,0,0,1,374.74,168.22Z"/><path class="cls-35" d="M374.74,156.87a11.49,11.49,0,0,1-2.1,3.32,5,5,0,0,0,1-.14s-1,2.45-2,2.71a1.62,1.62,0,0,0,1.19,0s-.85,2.14-1.76,2.69l3.63,1.72Z"/><path class="cls-36" d="M374.74,156.88a11.49,11.49,0,0,0,2.1,3.32,5,5,0,0,1-1-.14s1,2.45,2,2.71a1.62,1.62,0,0,1-1.19,0s.85,2.14,1.76,2.69l-3.63,1.72Z"/><path class="cls-34" d="M385.47,174.55h0a.19.19,0,0,1-.21-.17V172a.19.19,0,0,1,.21-.17h0a.19.19,0,0,1,.21.17v2.39A.19.19,0,0,1,385.47,174.55Z"/><path class="cls-35" d="M385.47,163.21a11.49,11.49,0,0,1-2.1,3.32,5,5,0,0,0,1-.14s-1,2.45-2,2.71a1.62,1.62,0,0,0,1.19,0s-.85,2.14-1.76,2.69l3.63,1.72Z"/><path class="cls-36" d="M385.47,163.22a11.49,11.49,0,0,0,2.1,3.32,5,5,0,0,1-1-.14s1,2.45,2,2.71a1.62,1.62,0,0,1-1.19,0s.85,2.14,1.76,2.69l-3.63,1.72Z"/><path class="cls-34" d="M400.84,179h0a.19.19,0,0,1-.21-.17v-2.39a.19.19,0,0,1,.21-.17h0a.19.19,0,0,1,.21.17v2.39A.19.19,0,0,1,400.84,179Z"/><path class="cls-35" d="M400.84,167.61a11.49,11.49,0,0,1-2.1,3.32,5,5,0,0,0,1-.14s-1,2.45-2,2.71a1.62,1.62,0,0,0,1.19,0s-.85,2.14-1.76,2.69l3.63,1.72Z"/><path class="cls-36" d="M400.84,167.62a11.49,11.49,0,0,0,2.1,3.32,5,5,0,0,1-1-.14s1,2.45,2,2.71a1.62,1.62,0,0,1-1.19,0s.85,2.14,1.76,2.69l-3.63,1.72Z"/><path class="cls-37" d="M439.87,198.21a16,16,0,0,1,3.81-1.06.49.49,0,0,0,0,.71c.37-.55,3.84-1.17,3.84-1.17-.23.56-.19.61-.19.61A26,26,0,0,1,452,196h0a26,26,0,0,1-4.71-1.26s0,.05.19.61c0,0-3.47-.63-3.84-1.17a.49.49,0,0,0,0,.71,16,16,0,0,1-3.81-1.06l-2.29,2.05h-1.37c-.13,0-.24.06-.24.13s.11.13.24.13h1.35Z"/><path class="cls-37" d="M314.06,191.54a16,16,0,0,1,3.81-1.06.49.49,0,0,0,0,.71c.37-.55,3.84-1.17,3.84-1.17-.23.56-.19.61-.19.61a26,26,0,0,1,4.71-1.26h0a26,26,0,0,1-4.71-1.26s0,.05.19.61c0,0-3.47-.63-3.84-1.17a.49.49,0,0,0,0,.71,16,16,0,0,1-3.81-1.06l-2.29,2.05h-1.37c-.13,0-.24.06-.24.13s.11.13.24.13h1.35Z"/><path class="cls-37" d="M430.59,202.52a16,16,0,0,1,3.81-1.06.49.49,0,0,0,0,.71c.37-.55,3.84-1.17,3.84-1.17-.23.56-.19.61-.19.61a26,26,0,0,1,4.71-1.26h0a26,26,0,0,1-4.71-1.26s0,.05.19.61c0,0-3.47-.63-3.84-1.17a.49.49,0,0,0,0,.71,16,16,0,0,1-3.81-1.06l-2.29,2.05h-1.37c-.13,0-.24.06-.24.13s.11.13.24.13h1.35Z"/><path class="cls-37" d="M451.11,208a16,16,0,0,1,3.81-1.06.49.49,0,0,0,0,.71c.37-.55,3.84-1.17,3.84-1.17-.23.56-.19.61-.19.61a26,26,0,0,1,4.71-1.26h0a26,26,0,0,1-4.71-1.26s0,.05.19.61c0,0-3.47-.63-3.84-1.17a.49.49,0,0,0,0,.71,16,16,0,0,1-3.81-1.06l-2.29,2.05h-1.37c-.13,0-.24.06-.24.13s.11.13.24.13h1.35Z"/><path class="cls-37" d="M451,195.38a16,16,0,0,1,3.81-1.06.49.49,0,0,0,0,.71c.37-.55,3.84-1.17,3.84-1.17-.23.56-.19.61-.19.61a26,26,0,0,1,4.71-1.26h0a26,26,0,0,1-4.71-1.26s0,.05.19.61c0,0-3.47-.63-3.84-1.17a.49.49,0,0,0,0,.71,16,16,0,0,1-3.81-1.06l-2.29,2.05h-1.37c-.13,0-.24.06-.24.13s.11.13.24.13h1.35Z"/><path class="cls-34" d="M436.19,196h0a.19.19,0,0,1-.21-.17v-2.39a.19.19,0,0,1,.21-.17h0a.19.19,0,0,1,.21.17v2.39A.19.19,0,0,1,436.19,196Z"/><path class="cls-35" d="M436.19,184.69a11.49,11.49,0,0,1-2.1,3.32,5,5,0,0,0,1-.14s-1,2.45-2,2.71a1.62,1.62,0,0,0,1.19,0s-.85,2.14-1.76,2.69l3.63,1.72Z"/><path class="cls-36" d="M436.19,184.7a11.49,11.49,0,0,0,2.1,3.32,5,5,0,0,1-1-.14s1,2.45,2,2.71a1.62,1.62,0,0,1-1.19,0s.85,2.14,1.76,2.69L436.19,195Z"/><path class="cls-34" d="M426.7,200.34h0a.19.19,0,0,1-.21-.17v-2.39a.19.19,0,0,1,.21-.17h0a.19.19,0,0,1,.21.17v2.39A.19.19,0,0,1,426.7,200.34Z"/><path class="cls-35" d="M426.7,189a11.49,11.49,0,0,1-2.1,3.32,5,5,0,0,0,1-.14s-1,2.45-2,2.71a1.62,1.62,0,0,0,1.19,0s-.85,2.14-1.76,2.69l3.63,1.72Z"/><path class="cls-36" d="M426.7,189a11.49,11.49,0,0,0,2.1,3.32,5,5,0,0,1-1-.14s1,2.45,2,2.71a1.62,1.62,0,0,1-1.19,0s.85,2.14,1.76,2.69l-3.63,1.72Z"/><path class="cls-34" d="M447.29,206h0a.19.19,0,0,1-.21-.17v-2.39a.19.19,0,0,1,.21-.17h0a.19.19,0,0,1,.21.17v2.39A.19.19,0,0,1,447.29,206Z"/><path class="cls-35" d="M447.29,194.67a11.49,11.49,0,0,1-2.1,3.32,5,5,0,0,0,1-.14s-1,2.45-2,2.71a1.62,1.62,0,0,0,1.19,0s-.85,2.14-1.76,2.69l3.63,1.72Z"/><path class="cls-36" d="M447.29,194.68a11.49,11.49,0,0,0,2.1,3.32,5,5,0,0,1-1-.14s1,2.45,2,2.71a1.62,1.62,0,0,1-1.19,0s.85,2.14,1.76,2.69L447.29,205Z"/><path class="cls-34" d="M447.08,193.2h0a.19.19,0,0,1-.21-.17v-2.39a.19.19,0,0,1,.21-.17h0a.19.19,0,0,1,.21.17V193A.19.19,0,0,1,447.08,193.2Z"/><path class="cls-35" d="M447.08,181.86a11.49,11.49,0,0,1-2.1,3.32,5,5,0,0,0,1-.14s-1,2.45-2,2.71a1.62,1.62,0,0,0,1.19,0s-.85,2.14-1.76,2.69l3.63,1.72Z"/><path class="cls-36" d="M447.08,181.87a11.49,11.49,0,0,0,2.1,3.32,5,5,0,0,1-1-.14s1,2.45,2,2.71a1.62,1.62,0,0,1-1.19,0s.85,2.14,1.76,2.69l-3.63,1.72Z"/><path class="cls-34" d="M451.12,177.12h0a.19.19,0,0,1-.21-.17v-2.39a.19.19,0,0,1,.21-.17h0a.19.19,0,0,1,.21.17v2.39A.19.19,0,0,1,451.12,177.12Z"/><path class="cls-35" d="M451.12,165.77a11.49,11.49,0,0,1-2.1,3.32,5,5,0,0,0,1-.14s-1,2.45-2,2.71a1.62,1.62,0,0,0,1.19,0s-.85,2.14-1.76,2.69l3.63,1.72Z"/><path class="cls-36" d="M451.12,165.78a11.49,11.49,0,0,0,2.1,3.32,5,5,0,0,1-1-.14s1,2.45,2,2.71a1.62,1.62,0,0,1-1.19,0s.85,2.14,1.76,2.69l-3.63,1.72Z"/><path class="cls-34" d="M409.73,232h0a.19.19,0,0,1-.21-.17v-2.39a.19.19,0,0,1,.21-.17h0a.19.19,0,0,1,.21.17v2.39A.19.19,0,0,1,409.73,232Z"/><path class="cls-35" d="M409.73,220.68a11.49,11.49,0,0,1-2.1,3.32,5,5,0,0,0,1-.14s-1,2.45-2,2.71a1.62,1.62,0,0,0,1.19,0s-.85,2.14-1.76,2.69l3.63,1.72Z"/><path class="cls-36" d="M409.73,220.69a11.49,11.49,0,0,0,2.1,3.32,5,5,0,0,1-1-.14s1,2.45,2,2.71a1.62,1.62,0,0,1-1.19,0s.85,2.14,1.76,2.69L409.73,231Z"/><path class="cls-38" d="M304.41,199.82s15.75,13.93,20.09,15.63,11.93,2.4,14.1,5,15.11,11.63,18.87,11.85,10.44,4.79,12.91,7.91,13.11,9.33,15.56,5.9-.4-12.09,4.57-15.62,6.36-14.39,3.84-16.07-12.9-4.11-12.86-9.76-5.63-6.86-10-9-8.32-8.34-13.13-8.41-11.29,1.65-15.16-.27-8.1-3.43-10.4-1.37-9.46,7-12.84,5.28S297.58,194,304.41,199.82Z"/><path class="cls-37" d="M362.53,173a16.37,16.37,0,0,1,3.86-1.06.48.48,0,0,0,0,.71c.37-.55,3.9-1.17,3.9-1.17-.23.56-.2.61-.2.61a26.68,26.68,0,0,1,4.77-1.26h0a26.68,26.68,0,0,1-4.77-1.26s0,.05.2.61c0,0-3.52-.63-3.9-1.17a.48.48,0,0,0,0,.71,16.37,16.37,0,0,1-3.86-1.06l-2.33,2.05h-1.39c-.14,0-.25.06-.25.13s.11.13.25.13h1.37Z"/><path class="cls-34" d="M399,235h0a.19.19,0,0,1-.21-.17V232.4a.19.19,0,0,1,.21-.17h0a.19.19,0,0,1,.21.17v2.39A.19.19,0,0,1,399,235Z"/><path class="cls-35" d="M399,223.62a11.49,11.49,0,0,1-2.1,3.32,5,5,0,0,0,1-.14s-1,2.45-2,2.71a1.62,1.62,0,0,0,1.19,0s-.85,2.14-1.76,2.69l3.63,1.72Z"/><path class="cls-36" d="M399,223.63a11.49,11.49,0,0,0,2.1,3.32,5,5,0,0,1-1-.14s1,2.45,2,2.71a1.62,1.62,0,0,1-1.19,0s.85,2.14,1.76,2.69L399,233.94Z"/><path class="cls-34" d="M400.84,223.63h0a.19.19,0,0,1-.21-.17v-2.39a.19.19,0,0,1,.21-.17h0a.19.19,0,0,1,.21.17v2.39A.19.19,0,0,1,400.84,223.63Z"/><path class="cls-35" d="M400.84,212.28a11.49,11.49,0,0,1-2.1,3.32,5,5,0,0,0,1-.14s-1,2.45-2,2.71a1.62,1.62,0,0,0,1.19,0s-.85,2.14-1.76,2.69l3.63,1.72Z"/><path class="cls-36" d="M400.84,212.29a11.49,11.49,0,0,0,2.1,3.32,5,5,0,0,1-1-.14s1,2.45,2,2.71a1.62,1.62,0,0,1-1.19,0s.85,2.14,1.76,2.69l-3.63,1.72Z"/><path class="cls-34" d="M392.16,241.57h0a.19.19,0,0,1-.21-.17V239a.19.19,0,0,1,.21-.17h0a.19.19,0,0,1,.21.17v2.39A.19.19,0,0,1,392.16,241.57Z"/><path class="cls-35" d="M392.16,230.22a11.49,11.49,0,0,1-2.1,3.32,5,5,0,0,0,1-.14s-1,2.45-2,2.71a1.62,1.62,0,0,0,1.19,0s-.85,2.14-1.76,2.69l3.63,1.72Z"/><path class="cls-36" d="M392.16,230.23a11.49,11.49,0,0,0,2.1,3.32,5,5,0,0,1-1-.14s1,2.45,2,2.71a1.62,1.62,0,0,1-1.19,0s.85,2.14,1.76,2.69l-3.63,1.72Z"/><path class="cls-34" d="M392,231.51h0a.19.19,0,0,1-.21-.17v-2.39a.19.19,0,0,1,.21-.17h0a.19.19,0,0,1,.21.17v2.39A.19.19,0,0,1,392,231.51Z"/><path class="cls-35" d="M392,220.16a11.49,11.49,0,0,1-2.1,3.32,5,5,0,0,0,1-.14s-1,2.45-2,2.71a1.62,1.62,0,0,0,1.19,0s-.85,2.14-1.76,2.69l3.63,1.72Z"/><path class="cls-36" d="M392,220.17a11.49,11.49,0,0,0,2.1,3.32,5,5,0,0,1-1-.14s1,2.45,2,2.71a1.62,1.62,0,0,1-1.19,0s.85,2.14,1.76,2.69L392,230.48Z"/><path class="cls-34" d="M367.78,178.47h0a.19.19,0,0,1-.21-.17v-2.39a.19.19,0,0,1,.21-.17h0a.19.19,0,0,1,.21.17v2.39A.19.19,0,0,1,367.78,178.47Z"/><path class="cls-35" d="M367.78,167.13a11.49,11.49,0,0,1-2.1,3.32,5,5,0,0,0,1-.14s-1,2.45-2,2.71a1.62,1.62,0,0,0,1.19,0s-.85,2.14-1.76,2.69l3.63,1.72Z"/><path class="cls-36" d="M367.78,167.13a11.49,11.49,0,0,0,2.1,3.32,5,5,0,0,1-1-.14s1,2.45,2,2.71a1.62,1.62,0,0,1-1.19,0s.85,2.14,1.76,2.69l-3.63,1.72Z"/><path class="cls-34" d="M338.15,181.73h0a.23.23,0,0,1-.25-.21v-2.86a.23.23,0,0,1,.25-.21h0a.23.23,0,0,1,.25.21v2.86A.23.23,0,0,1,338.15,181.73Z"/><path class="cls-35" d="M338.15,168.15s-1.29,3-2.52,4a6,6,0,0,0,1.21-.16s-1.25,2.94-2.34,3.25a1.94,1.94,0,0,0,1.42,0s-1,2.56-2.11,3.22l4.34,2.06Z"/><path class="cls-36" d="M338.15,168.16s1.29,3,2.52,4a6,6,0,0,1-1.21-.16s1.25,2.94,2.34,3.25a1.94,1.94,0,0,1-1.42,0s1,2.56,2.11,3.22l-4.34,2.06Z"/><path class="cls-34" d="M301.51,183.89h0a.23.23,0,0,1-.25-.21v-2.86a.23.23,0,0,1,.25-.21h0a.23.23,0,0,1,.25.21v2.86A.23.23,0,0,1,301.51,183.89Z"/><path class="cls-35" d="M301.51,170.3s-1.29,3-2.52,4a6,6,0,0,0,1.21-.16s-1.25,2.94-2.34,3.25a1.94,1.94,0,0,0,1.42,0s-1,2.56-2.11,3.22l4.34,2.06Z"/><path class="cls-36" d="M301.51,170.31s1.29,3,2.52,4a6,6,0,0,1-1.21-.16s1.25,2.94,2.34,3.25a1.94,1.94,0,0,1-1.42,0s1,2.56,2.11,3.22l-4.34,2.06Z"/><path class="cls-34" d="M309.94,177.59h0a.23.23,0,0,1-.25-.21v-2.86a.23.23,0,0,1,.25-.21h0a.23.23,0,0,1,.25.21v2.86A.23.23,0,0,1,309.94,177.59Z"/><path class="cls-35" d="M309.94,164s-1.29,3-2.52,4a6,6,0,0,0,1.21-.16s-1.25,2.94-2.34,3.25a1.94,1.94,0,0,0,1.42,0s-1,2.56-2.11,3.22l4.34,2.06Z"/><path class="cls-36" d="M309.94,164s1.29,3,2.52,4a6,6,0,0,1-1.21-.16s1.25,2.94,2.34,3.25a1.94,1.94,0,0,1-1.42,0s1,2.56,2.11,3.22l-4.34,2.06Z"/><path class="cls-37" d="M371.87,180.64a16.37,16.37,0,0,1,3.86-1.06.48.48,0,0,0,0,.71c.37-.55,3.9-1.17,3.9-1.17-.23.56-.2.61-.2.61a26.68,26.68,0,0,1,4.77-1.26h0a26.68,26.68,0,0,1-4.77-1.26s0,.05.2.61c0,0-3.52-.63-3.9-1.17a.48.48,0,0,0,0,.71,16.37,16.37,0,0,1-3.86-1.06l-2.33,2.05h-1.39c-.14,0-.25.06-.25.13s.11.13.25.13h1.37Z"/><path class="cls-4" d="M313.93,195.76l1.41,0,.12,2.2h3.94s3.33.23,2.51-1.28-7.81-1.29-7.81-1.29Z"/><path class="cls-4" d="M319.57,204.26l1.41,0,.12,2.2H325s3.33.23,2.51-1.28-7.81-1.29-7.81-1.29Z"/><path class="cls-39" d="M315.68,194.89c0-.19.14-.56.14-.56l.33-.47h-2.3a3.21,3.21,0,0,1-.92,1.73c-.66.55-.67.44-.81.86,0,0,1.72-.5,2.2,0a5.15,5.15,0,0,1,1.18,1.59,2.09,2.09,0,0,0,.38-1.46.94.94,0,0,1,0-.16l0,0A12.35,12.35,0,0,1,315.68,194.89Z"/><path class="cls-40" d="M316.5,196a2.29,2.29,0,0,1,1,.4,1.89,1.89,0,0,0,.94.31s-.21-.21-.72-.79-.79-.55-.89-.87a8.32,8.32,0,0,1-.17-1.19h-.54l-.33.47s-.1.37-.14.56a12.35,12.35,0,0,0,.14,1.45l0,0C315.81,195.84,316.32,196,316.5,196Z"/><ellipse class="cls-41" cx="315.27" cy="193.86" rx="1.42" ry="0.51"/><ellipse class="cls-39" cx="315.27" cy="193.79" rx="1.09" ry="0.3"/><ellipse class="cls-41" cx="315.27" cy="193.79" rx="0.76" ry="0.14"/><ellipse class="cls-39" cx="315.27" cy="193.79" rx="0.54" ry="0.06"/><path class="cls-4" d="M348.84,194.75l1.41,0,.12,2.2h3.94s3.33.23,2.51-1.28-7.81-1.29-7.81-1.29Z"/><path class="cls-39" d="M350.59,193.88c0-.19.14-.56.14-.56l.33-.47h-2.3a3.21,3.21,0,0,1-.92,1.73c-.66.55-.67.44-.81.86,0,0,1.72-.5,2.2,0A5.15,5.15,0,0,1,350.4,197a2.09,2.09,0,0,0,.38-1.46.94.94,0,0,1,0-.16l0,0A12.35,12.35,0,0,1,350.59,193.88Z"/><path class="cls-40" d="M351.41,195a2.29,2.29,0,0,1,1,.4,1.89,1.89,0,0,0,.94.31s-.21-.21-.72-.79-.79-.55-.89-.87a8.32,8.32,0,0,1-.17-1.19h-.54l-.33.47s-.1.37-.14.56a12.35,12.35,0,0,0,.14,1.45l0,0C350.72,194.83,351.23,195,351.41,195Z"/><ellipse class="cls-41" cx="350.18" cy="192.85" rx="1.42" ry="0.51"/><ellipse class="cls-39" cx="350.18" cy="192.78" rx="1.09" ry="0.3"/><ellipse class="cls-41" cx="350.18" cy="192.78" rx="0.76" ry="0.14"/><ellipse class="cls-39" cx="350.18" cy="192.78" rx="0.54" ry="0.06"/><path class="cls-4" d="M352,219l1.41,0,.12,2.2h3.94s3.33.23,2.51-1.28-7.81-1.29-7.81-1.29Z"/><path class="cls-39" d="M353.74,218.15c0-.19.14-.56.14-.56l.33-.47h-2.3a3.21,3.21,0,0,1-.92,1.73c-.66.55-.67.44-.81.86,0,0,1.72-.5,2.2,0a5.15,5.15,0,0,1,1.18,1.59,2.09,2.09,0,0,0,.38-1.46.94.94,0,0,1,0-.16l0,0A12.35,12.35,0,0,1,353.74,218.15Z"/><path class="cls-40" d="M354.56,219.26a2.29,2.29,0,0,1,1,.4,1.89,1.89,0,0,0,.94.31s-.21-.21-.72-.79-.79-.55-.89-.87a8.32,8.32,0,0,1-.17-1.19h-.54l-.33.47s-.1.37-.14.56a12.35,12.35,0,0,0,.14,1.45l0,0C353.87,219.1,354.38,219.23,354.56,219.26Z"/><ellipse class="cls-41" cx="353.33" cy="217.11" rx="1.42" ry="0.51"/><ellipse class="cls-39" cx="353.33" cy="217.05" rx="1.09" ry="0.3"/><ellipse class="cls-41" cx="353.33" cy="217.05" rx="0.76" ry="0.14"/><ellipse class="cls-39" cx="353.33" cy="217.05" rx="0.54" ry="0.06"/><path class="cls-4" d="M371.52,214.47l1.41,0,.12,2.2H377s3.33.23,2.51-1.28-7.81-1.29-7.81-1.29Z"/><path class="cls-39" d="M373.27,213.6c0-.19.14-.56.14-.56l.33-.47h-2.3a3.21,3.21,0,0,1-.92,1.73c-.66.55-.67.44-.81.86,0,0,1.72-.5,2.2,0a5.15,5.15,0,0,1,1.18,1.59,2.09,2.09,0,0,0,.38-1.46.94.94,0,0,1,0-.16l0,0A12.35,12.35,0,0,1,373.27,213.6Z"/><path class="cls-40" d="M374.09,214.71a2.29,2.29,0,0,1,1,.4,1.89,1.89,0,0,0,.94.31s-.21-.21-.72-.79-.79-.55-.89-.87a8.32,8.32,0,0,1-.17-1.19h-.54l-.33.47s-.1.37-.14.56a12.35,12.35,0,0,0,.14,1.45l0,0C373.41,214.55,373.91,214.68,374.09,214.71Z"/><ellipse class="cls-41" cx="372.87" cy="212.56" rx="1.42" ry="0.51"/><ellipse class="cls-39" cx="372.87" cy="212.5" rx="1.09" ry="0.3"/><ellipse class="cls-41" cx="372.87" cy="212.5" rx="0.76" ry="0.14"/><ellipse class="cls-39" cx="372.87" cy="212.5" rx="0.54" ry="0.06"/><path class="cls-4" d="M376.38,233.33l1.41,0,.12,2.2h3.94s3.33.23,2.51-1.28-7.81-1.29-7.81-1.29Z"/><path class="cls-39" d="M378.13,232.46c0-.19.14-.56.14-.56l.33-.47h-2.3a3.21,3.21,0,0,1-.92,1.73c-.66.55-.67.44-.81.86,0,0,1.72-.5,2.2,0a5.15,5.15,0,0,1,1.18,1.59,2.09,2.09,0,0,0,.38-1.46.94.94,0,0,1,0-.16l0,0A12.35,12.35,0,0,1,378.13,232.46Z"/><path class="cls-40" d="M378.95,233.57a2.29,2.29,0,0,1,1,.4,1.89,1.89,0,0,0,.94.31s-.21-.21-.72-.79-.79-.55-.89-.87a8.32,8.32,0,0,1-.17-1.19h-.54l-.33.47s-.1.37-.14.56a12.35,12.35,0,0,0,.14,1.45l0,0C378.26,233.41,378.77,233.54,378.95,233.57Z"/><ellipse class="cls-41" cx="377.73" cy="231.43" rx="1.42" ry="0.51"/><ellipse class="cls-39" cx="377.73" cy="231.36" rx="1.09" ry="0.3"/><ellipse class="cls-41" cx="377.73" cy="231.36" rx="0.76" ry="0.14"/><ellipse class="cls-39" cx="377.73" cy="231.36" rx="0.54" ry="0.06"/><path class="cls-4" d="M364.2,203.87l1.41,0,.12,2.2h3.94s3.33.23,2.51-1.28-7.81-1.29-7.81-1.29Z"/><path class="cls-39" d="M366,203c0-.19.14-.56.14-.56l.33-.47h-2.3a3.21,3.21,0,0,1-.92,1.73c-.66.55-.67.44-.81.86,0,0,1.72-.5,2.2,0a5.15,5.15,0,0,1,1.18,1.59,2.09,2.09,0,0,0,.38-1.46.94.94,0,0,1,0-.16l0,0A12.35,12.35,0,0,1,366,203Z"/><path class="cls-40" d="M366.77,204.1a2.29,2.29,0,0,1,1,.4,1.89,1.89,0,0,0,.94.31s-.21-.21-.72-.79-.79-.55-.89-.87A8.32,8.32,0,0,1,367,202h-.54l-.33.47s-.1.37-.14.56a12.35,12.35,0,0,0,.14,1.45l0,0C366.09,203.94,366.59,204.08,366.77,204.1Z"/><ellipse class="cls-41" cx="365.55" cy="201.96" rx="1.42" ry="0.51"/><ellipse class="cls-39" cx="365.55" cy="201.89" rx="1.09" ry="0.3"/><ellipse class="cls-41" cx="365.55" cy="201.89" rx="0.76" ry="0.14"/><ellipse class="cls-39" cx="365.55" cy="201.89" rx="0.54" ry="0.06"/><path class="cls-4" d="M335.69,189.24l1.1,0,.1,1.72H340s2.61.18,2-1-6.1-1-6.1-1Z"/><path class="cls-39" d="M337.06,188.55c0-.15.11-.44.11-.44l.26-.37h-1.8a2.51,2.51,0,0,1-.72,1.35c-.52.43-.52.34-.63.67,0,0,1.34-.39,1.72,0a4,4,0,0,1,.92,1.24,1.63,1.63,0,0,0,.29-1.14.73.73,0,0,1,0-.13l0,0A9.65,9.65,0,0,1,337.06,188.55Z"/><path class="cls-40" d="M337.7,189.42a1.79,1.79,0,0,1,.81.31,1.48,1.48,0,0,0,.74.24s-.16-.17-.57-.61-.62-.43-.7-.68a6.5,6.5,0,0,1-.13-.93h-.42l-.26.37s-.08.29-.11.44a9.65,9.65,0,0,0,.11,1.13l0,0C337.16,189.3,337.56,189.4,337.7,189.42Z"/><ellipse class="cls-41" cx="336.74" cy="187.75" rx="1.11" ry="0.4"/><ellipse class="cls-39" cx="336.74" cy="187.7" rx="0.85" ry="0.24"/><ellipse class="cls-41" cx="336.74" cy="187.7" rx="0.59" ry="0.11"/><ellipse class="cls-39" cx="336.74" cy="187.7" rx="0.42" ry="0.05"/><path class="cls-4" d="M332.07,195.28l1.1,0,.1,1.72h3.08s2.61.18,2-1-6.1-1-6.1-1Z"/><path class="cls-39" d="M333.44,194.6c0-.15.11-.44.11-.44l.26-.37H332a2.51,2.51,0,0,1-.72,1.35c-.52.43-.52.34-.63.67,0,0,1.34-.39,1.72,0a4,4,0,0,1,.92,1.24,1.63,1.63,0,0,0,.29-1.14.73.73,0,0,1,0-.13l0,0A9.65,9.65,0,0,1,333.44,194.6Z"/><path class="cls-40" d="M334.08,195.46a1.79,1.79,0,0,1,.81.31,1.48,1.48,0,0,0,.74.24s-.16-.17-.57-.61-.62-.43-.7-.68a6.5,6.5,0,0,1-.13-.93h-.42l-.26.37s-.08.29-.11.44a9.65,9.65,0,0,0,.11,1.13l0,0C333.54,195.34,333.94,195.44,334.08,195.46Z"/><ellipse class="cls-41" cx="333.12" cy="193.79" rx="1.11" ry="0.4"/><ellipse class="cls-39" cx="333.12" cy="193.74" rx="0.85" ry="0.24"/><ellipse class="cls-41" cx="333.12" cy="193.74" rx="0.59" ry="0.11"/><ellipse class="cls-39" cx="333.12" cy="193.74" rx="0.42" ry="0.05"/><path class="cls-4" d="M345.65,204.09l1.1,0,.1,1.72h3.08s2.61.18,2-1-6.1-1-6.1-1Z"/><path class="cls-39" d="M347,203.41c0-.15.11-.44.11-.44l.26-.37h-1.8a2.51,2.51,0,0,1-.72,1.35c-.52.43-.52.34-.63.67,0,0,1.34-.39,1.72,0a4,4,0,0,1,.92,1.24,1.63,1.63,0,0,0,.29-1.14.73.73,0,0,1,0-.13l0,0A9.65,9.65,0,0,1,347,203.41Z"/><path class="cls-40" d="M347.66,204.28a1.79,1.79,0,0,1,.81.31,1.48,1.48,0,0,0,.74.24s-.16-.17-.57-.61-.62-.43-.7-.68a6.5,6.5,0,0,1-.13-.93h-.42l-.26.37s-.08.29-.11.44a9.65,9.65,0,0,0,.11,1.13l0,0C347.12,204.15,347.51,204.26,347.66,204.28Z"/><ellipse class="cls-41" cx="346.7" cy="202.6" rx="1.11" ry="0.4"/><ellipse class="cls-39" cx="346.7" cy="202.55" rx="0.85" ry="0.24"/><ellipse class="cls-41" cx="346.7" cy="202.55" rx="0.59" ry="0.11"/><ellipse class="cls-39" cx="346.7" cy="202.55" rx="0.42" ry="0.05"/><path class="cls-4" d="M334.59,203.85l1.1,0,.1,1.72h3.08s2.61.18,2-1-6.1-1-6.1-1Z"/><path class="cls-39" d="M336,203.16c0-.15.11-.44.11-.44l.26-.37h-1.8a2.51,2.51,0,0,1-.72,1.35c-.52.43-.52.34-.63.67,0,0,1.34-.39,1.72,0a4,4,0,0,1,.92,1.24,1.63,1.63,0,0,0,.29-1.14.73.73,0,0,1,0-.13l0,0A9.65,9.65,0,0,1,336,203.16Z"/><path class="cls-40" d="M336.6,204a1.79,1.79,0,0,1,.81.31,1.48,1.48,0,0,0,.74.24s-.16-.17-.57-.61-.62-.43-.7-.68a6.5,6.5,0,0,1-.13-.93h-.42l-.26.37s-.08.29-.11.44a9.65,9.65,0,0,0,.11,1.13l0,0C336.06,203.91,336.46,204,336.6,204Z"/><ellipse class="cls-41" cx="335.64" cy="202.36" rx="1.11" ry="0.4"/><ellipse class="cls-39" cx="335.64" cy="202.3" rx="0.85" ry="0.24"/><ellipse class="cls-41" cx="335.64" cy="202.3" rx="0.59" ry="0.11"/><ellipse class="cls-39" cx="335.64" cy="202.3" rx="0.42" ry="0.05"/><path class="cls-4" d="M332.59,211.76l1.1,0,.1,1.72h3.08s2.61.18,2-1-6.1-1-6.1-1Z"/><path class="cls-39" d="M334,211.08c0-.15.11-.44.11-.44l.26-.37h-1.8a2.51,2.51,0,0,1-.72,1.35c-.52.43-.52.34-.63.67,0,0,1.34-.39,1.72,0a4,4,0,0,1,.92,1.24,1.63,1.63,0,0,0,.29-1.14.73.73,0,0,1,0-.13l0,0A9.65,9.65,0,0,1,334,211.08Z"/><path class="cls-40" d="M334.6,211.95a1.79,1.79,0,0,1,.81.31,1.48,1.48,0,0,0,.74.24s-.16-.17-.57-.61-.62-.43-.7-.68a6.5,6.5,0,0,1-.13-.93h-.42l-.26.37s-.08.29-.11.44a9.65,9.65,0,0,0,.11,1.13l0,0C334.06,211.82,334.46,211.93,334.6,211.95Z"/><ellipse class="cls-41" cx="333.64" cy="210.27" rx="1.11" ry="0.4"/><ellipse class="cls-39" cx="333.64" cy="210.22" rx="0.85" ry="0.24"/><ellipse class="cls-41" cx="333.64" cy="210.22" rx="0.59" ry="0.11"/><ellipse class="cls-39" cx="333.64" cy="210.22" rx="0.42" ry="0.05"/><path class="cls-4" d="M344.24,212l1.1,0,.1,1.72h3.08s2.61.18,2-1-6.1-1-6.1-1Z"/><path class="cls-39" d="M345.61,211.27c0-.15.11-.44.11-.44l.26-.37h-1.8a2.51,2.51,0,0,1-.72,1.35c-.52.43-.52.34-.63.67,0,0,1.34-.39,1.72,0a4,4,0,0,1,.92,1.24,1.63,1.63,0,0,0,.29-1.14.73.73,0,0,1,0-.13l0,0A9.65,9.65,0,0,1,345.61,211.27Z"/><path class="cls-40" d="M346.25,212.14a1.79,1.79,0,0,1,.81.31,1.48,1.48,0,0,0,.74.24s-.16-.17-.57-.61-.62-.43-.7-.68a6.5,6.5,0,0,1-.13-.93H346l-.26.37s-.08.29-.11.44a9.65,9.65,0,0,0,.11,1.13l0,0C345.71,212,346.1,212.12,346.25,212.14Z"/><ellipse class="cls-41" cx="345.29" cy="210.46" rx="1.11" ry="0.4"/><ellipse class="cls-39" cx="345.29" cy="210.41" rx="0.85" ry="0.24"/><ellipse class="cls-41" cx="345.29" cy="210.41" rx="0.59" ry="0.11"/><ellipse class="cls-39" cx="345.29" cy="210.41" rx="0.42" ry="0.05"/><path class="cls-4" d="M361.94,196l1.1,0,.1,1.72h3.08s2.61.18,2-1-6.1-1-6.1-1Z"/><path class="cls-39" d="M363.31,195.31c0-.15.11-.44.11-.44l.26-.37h-1.8a2.51,2.51,0,0,1-.72,1.35c-.52.43-.52.34-.63.67,0,0,1.34-.39,1.72,0a4,4,0,0,1,.92,1.24,1.63,1.63,0,0,0,.29-1.14.73.73,0,0,1,0-.13l0,0A9.65,9.65,0,0,1,363.31,195.31Z"/><path class="cls-40" d="M364,196.17a1.79,1.79,0,0,1,.81.31,1.48,1.48,0,0,0,.74.24s-.16-.17-.57-.61-.62-.43-.7-.68a6.5,6.5,0,0,1-.13-.93h-.42l-.26.37s-.08.29-.11.44a9.65,9.65,0,0,0,.11,1.13l0,0C363.42,196.05,363.81,196.15,364,196.17Z"/><ellipse class="cls-41" cx="363" cy="194.5" rx="1.11" ry="0.4"/><ellipse class="cls-39" cx="363" cy="194.45" rx="0.85" ry="0.24"/><ellipse class="cls-41" cx="363" cy="194.45" rx="0.59" ry="0.11"/><ellipse class="cls-39" cx="363" cy="194.45" rx="0.42" ry="0.05"/><path class="cls-4" d="M358.06,211.42l1.1,0,.1,1.72h3.08s2.61.18,2-1-6.1-1-6.1-1Z"/><path class="cls-39" d="M359.43,210.74c0-.15.11-.44.11-.44l.26-.37H358a2.51,2.51,0,0,1-.72,1.35c-.52.43-.52.34-.63.67,0,0,1.34-.39,1.72,0a4,4,0,0,1,.92,1.24,1.63,1.63,0,0,0,.29-1.14.73.73,0,0,1,0-.13l0,0A9.65,9.65,0,0,1,359.43,210.74Z"/><path class="cls-40" d="M360.07,211.61a1.79,1.79,0,0,1,.81.31,1.48,1.48,0,0,0,.74.24s-.16-.17-.57-.61-.62-.43-.7-.68a6.5,6.5,0,0,1-.13-.93h-.42l-.26.37s-.08.29-.11.44a9.65,9.65,0,0,0,.11,1.13l0,0C359.54,211.48,359.93,211.59,360.07,211.61Z"/><ellipse class="cls-41" cx="359.12" cy="209.93" rx="1.11" ry="0.4"/><ellipse class="cls-39" cx="359.12" cy="209.88" rx="0.85" ry="0.24"/><ellipse class="cls-41" cx="359.12" cy="209.88" rx="0.59" ry="0.11"/><ellipse class="cls-39" cx="359.12" cy="209.88" rx="0.42" ry="0.05"/><path class="cls-4" d="M370.61,224.62l1.1,0,.1,1.72h3.08s2.61.18,2-1-6.1-1-6.1-1Z"/><path class="cls-39" d="M372,223.94c0-.15.11-.44.11-.44l.26-.37h-1.8a2.51,2.51,0,0,1-.72,1.35c-.52.43-.52.34-.63.67,0,0,1.34-.39,1.72,0a4,4,0,0,1,.92,1.24,1.63,1.63,0,0,0,.29-1.14.73.73,0,0,1,0-.13l0,0A9.65,9.65,0,0,1,372,223.94Z"/><path class="cls-40" d="M372.62,224.81a1.79,1.79,0,0,1,.81.31,1.48,1.48,0,0,0,.74.24s-.16-.17-.57-.61-.62-.43-.7-.68a6.5,6.5,0,0,1-.13-.93h-.42l-.26.37s-.08.29-.11.44a9.65,9.65,0,0,0,.11,1.13l0,0C372.08,224.68,372.48,224.79,372.62,224.81Z"/><ellipse class="cls-41" cx="371.66" cy="223.13" rx="1.11" ry="0.4"/><ellipse class="cls-39" cx="371.66" cy="223.08" rx="0.85" ry="0.24"/><ellipse class="cls-41" cx="371.66" cy="223.08" rx="0.59" ry="0.11"/><ellipse class="cls-39" cx="371.66" cy="223.08" rx="0.42" ry="0.05"/><path class="cls-4" d="M359,227l1,0,.08,1.5h2.69s2.28.16,1.71-.87-5.33-.88-5.33-.88Z"/><path class="cls-39" d="M360.17,226.42c0-.13.09-.38.09-.38l.23-.32h-1.57a2.2,2.2,0,0,1-.63,1.18c-.45.38-.46.3-.55.59,0,0,1.17-.34,1.5,0a3.52,3.52,0,0,1,.81,1.09,1.43,1.43,0,0,0,.26-1,.64.64,0,0,1,0-.11l0,0A8.44,8.44,0,0,1,360.17,226.42Z"/><path class="cls-40" d="M360.73,227.18a1.56,1.56,0,0,1,.71.27,1.29,1.29,0,0,0,.64.21s-.14-.14-.49-.54-.54-.37-.61-.59a5.68,5.68,0,0,1-.12-.82h-.37l-.23.32s-.07.25-.09.38a8.44,8.44,0,0,0,.09,1l0,0C360.26,227.07,360.61,227.16,360.73,227.18Z"/><ellipse class="cls-41" cx="359.9" cy="225.72" rx="0.97" ry="0.35"/><ellipse class="cls-39" cx="359.9" cy="225.67" rx="0.74" ry="0.21"/><ellipse class="cls-41" cx="359.9" cy="225.67" rx="0.52" ry="0.1"/><ellipse class="cls-39" cx="359.9" cy="225.67" rx="0.37" ry="0.04"/><path class="cls-4" d="M382.86,221.32l1,0,.08,1.5h2.69s2.28.16,1.71-.87-5.33-.88-5.33-.88Z"/><path class="cls-39" d="M384.06,220.72c0-.13.09-.38.09-.38l.23-.32h-1.57a2.2,2.2,0,0,1-.63,1.18c-.45.38-.46.3-.55.59,0,0,1.17-.34,1.5,0a3.52,3.52,0,0,1,.81,1.09,1.43,1.43,0,0,0,.26-1,.64.64,0,0,1,0-.11l0,0A8.44,8.44,0,0,1,384.06,220.72Z"/><path class="cls-40" d="M384.62,221.48a1.56,1.56,0,0,1,.71.27,1.29,1.29,0,0,0,.64.21s-.14-.14-.49-.54-.54-.37-.61-.59a5.68,5.68,0,0,1-.12-.82h-.37l-.23.32s-.07.25-.09.38a8.44,8.44,0,0,0,.09,1l0,0C384.15,221.37,384.49,221.46,384.62,221.48Z"/><ellipse class="cls-41" cx="383.78" cy="220.01" rx="0.97" ry="0.35"/><ellipse class="cls-39" cx="383.78" cy="219.97" rx="0.74" ry="0.21"/><ellipse class="cls-41" cx="383.78" cy="219.97" rx="0.52" ry="0.1"/><ellipse class="cls-39" cx="383.78" cy="219.97" rx="0.37" ry="0.04"/><path class="cls-39" d="M321.26,203.38c0-.19.14-.56.14-.56l.33-.47h-2.3a3.21,3.21,0,0,1-.92,1.73c-.66.55-.67.44-.81.86,0,0,1.72-.5,2.2,0a5.15,5.15,0,0,1,1.18,1.59,2.09,2.09,0,0,0,.38-1.46.94.94,0,0,1,0-.16l0,0A12.35,12.35,0,0,1,321.26,203.38Z"/><path class="cls-40" d="M322.07,204.49a2.29,2.29,0,0,1,1,.4,1.89,1.89,0,0,0,.94.31s-.21-.21-.72-.79-.79-.55-.89-.87a8.32,8.32,0,0,1-.17-1.19h-.54l-.33.47s-.1.37-.14.56a12.35,12.35,0,0,0,.14,1.45l0,0C321.39,204.34,321.89,204.47,322.07,204.49Z"/><ellipse class="cls-41" cx="320.85" cy="202.35" rx="1.42" ry="0.51"/><ellipse class="cls-39" cx="320.85" cy="202.29" rx="1.09" ry="0.3"/><ellipse class="cls-41" cx="320.85" cy="202.29" rx="0.76" ry="0.14"/><ellipse class="cls-39" cx="320.85" cy="202.29" rx="0.54" ry="0.06"/><path class="cls-42" d="M414.73,223a2.08,2.08,0,0,0,1,.82c.76.35.88.65,1.51.56a5.64,5.64,0,0,1,1.77-.15c.61.11,2.34.82,2.31.53s-1.54-.57-2-.84a11.3,11.3,0,0,0-1.66-.79,14.25,14.25,0,0,0-2.32-.49C414.88,222.67,414.58,222.83,414.73,223Z"/><polygon class="cls-43" points="417.21 223.45 417.61 223.16 417.75 223 417.58 222.59 416.68 222.38 415.85 222.59 415.44 223.04 416.44 223.04 417.21 223.45"/><path class="cls-44" d="M417.61,223.16l-.4.29-.78-.41h-1l-.15.16a3.54,3.54,0,0,0,2.83.67l-.37-.87Z"/><path class="cls-4" d="M420.1,217.75a6.81,6.81,0,0,0,2.2,0c.33-.23-1.72-.59-1.72-.59Z"/><path class="cls-4" d="M422.55,218.77a6.81,6.81,0,0,0,2.2,0c.33-.23-1.72-.59-1.72-.59Z"/><polygon class="cls-43" points="420.04 217.27 420.44 216.98 420.57 216.82 420.4 216.41 419.5 216.2 418.67 216.41 418.26 216.86 419.26 216.86 420.04 217.27"/><path class="cls-44" d="M420.43,217l-.4.29-.78-.41h-1l-.15.16a3.54,3.54,0,0,0,2.83.67l-.37-.87Z"/><path class="cls-42" d="M378.33,185.14a1.32,1.32,0,0,0,.62.52c.48.22.56.41,1,.36a3.56,3.56,0,0,1,1.12-.09c.39.07,1.35.78,1.33.59s-.84-.62-1.16-.79a7.14,7.14,0,0,0-1.05-.5,9,9,0,0,0-1.47-.31C378.43,184.91,378.24,185,378.33,185.14Z"/><polygon class="cls-43" points="379.9 185.4 380.16 185.22 380.24 185.12 380.13 184.86 379.56 184.73 379.04 184.86 378.78 185.14 379.41 185.14 379.9 185.4"/><path class="cls-44" d="M380.16,185.22l-.25.18-.49-.26h-.63l-.09.1a2.24,2.24,0,0,0,1.79.43l-.23-.55Z"/><path class="cls-42" d="M381,187.55a1.71,1.71,0,0,0,.81.67c.62.29.73.53,1.24.46a3.7,3.7,0,0,1,1.31.07c.5.09,2,1.19,2,1a5.64,5.64,0,0,0-1.61-1.4,9.29,9.29,0,0,0-1.37-.65,11.71,11.71,0,0,0-1.91-.4C381.1,187.25,380.86,187.38,381,187.55Z"/><polygon class="cls-43" points="383.02 187.89 383.35 187.65 383.46 187.52 383.32 187.18 382.58 187.01 381.9 187.18 381.56 187.55 382.38 187.55 383.02 187.89"/><path class="cls-44" d="M383.35,187.65l-.33.24-.64-.34h-.82l-.12.13a2.91,2.91,0,0,0,2.32.55l-.3-.71Z"/><polygon class="cls-43" points="422.82 218.37 422.98 218.48 423.51 218.59 423.79 218.32 423.67 218 423.12 218 422.66 218.11 422.3 218.43 422.57 218.59 422.82 218.37"/><polygon class="cls-44" points="423.51 218.59 422.98 218.48 422.82 218.37 422.57 218.59 422.3 218.43 422.57 218.78 423.17 218.78 423.69 218.88 423.86 218.52 423.79 218.32 423.51 218.59"/><polygon class="cls-4" points="403.42 205.4 408.5 205.4 407.89 205.04 405.25 205.04 403.42 205.4"/><polygon class="cls-43" points="405.31 204.29 404.98 204.53 403.81 204.77 403.2 204.18 403.47 203.48 404.66 203.48 405.67 203.73 406.47 204.42 405.86 204.77 405.31 204.29"/><polygon class="cls-44" points="403.81 204.77 404.98 204.53 405.31 204.29 405.86 204.77 406.47 204.42 405.86 205.2 404.55 205.2 403.41 205.4 403.04 204.62 403.2 204.18 403.81 204.77"/><path class="cls-4" d="M406.83,208.07h2.63l.92.81,1.82-.3s.56-.26.58-.45-.58-.69-.58-.69c-.14-.2-.79-.3-1-.3h-2.39Z"/><polygon class="cls-44" points="409.32 206.66 407.77 206.81 406.71 207.46 405.3 207 405.24 207.1 406.82 208.07 408.1 207.91 408.87 208.07 410.3 206.5 409.98 205.98 409.32 206.66"/><polygon class="cls-43" points="408.96 208.04 409.2 208.22 410.08 208.41 410.53 207.96 410.34 207.44 409.44 207.44 408.69 207.62 408.08 208.15 408.54 208.41 408.96 208.04"/><polygon class="cls-44" points="410.08 208.41 409.2 208.22 408.96 208.04 408.54 208.41 408.08 208.15 408.54 208.72 409.52 208.72 410.38 208.88 410.66 208.3 410.53 207.96 410.08 208.41"/><polygon class="cls-43" points="407.77 206.81 409.32 206.66 409.98 205.98 409.1 204.55 407.77 203.98 405.86 205.98 405.3 207 406.71 207.46 407.77 206.81"/><polygon class="cls-4" points="191.87 192.98 201.44 192.98 200.29 192.3 195.33 192.3 191.87 192.98"/><polygon class="cls-43" points="195.43 190.89 194.81 191.35 192.61 191.8 191.47 190.69 191.96 189.37 194.21 189.37 196.11 189.83 197.62 191.15 196.47 191.8 195.43 190.89"/><polygon class="cls-44" points="192.61 191.8 194.81 191.35 195.43 190.89 196.47 191.8 197.62 191.15 196.47 192.6 194.01 192.6 191.85 192.98 191.15 191.53 191.47 190.69 192.61 191.8"/><polygon class="cls-4" points="198.32 196.29 215.13 198.05 214.52 194.64 205.69 194.84 198.32 196.29"/><polygon class="cls-43" points="205.91 191.83 204.58 192.81 199.89 193.78 197.46 191.41 198.51 188.59 203.3 188.59 207.36 189.58 210.57 192.38 208.13 193.78 205.91 191.83"/><polygon class="cls-44" points="199.89 193.78 204.58 192.81 205.91 191.83 208.13 193.78 210.57 192.38 208.13 195.49 202.88 195.49 198.28 196.29 196.79 193.19 197.46 191.41 199.89 193.78"/><path class="cls-4" d="M207.85,205h7.73l2.69,2.37,5.36-.88s1.64-.78,1.7-1.31-1.7-2-1.7-2c-.42-.6-2.33-.89-3.06-.89h-7Z"/><polygon class="cls-44" points="215.17 200.81 210.61 201.25 207.49 203.17 203.35 201.81 203.18 202.12 207.83 204.96 211.57 204.5 213.84 204.96 218.03 200.34 217.09 198.82 215.17 200.81"/><path class="cls-4" d="M193.94,200.64a24.53,24.53,0,0,0,3.93,0c.26-.21.17-.57-.49-.66a13.21,13.21,0,0,0-1.94,0Z"/><path class="cls-4" d="M179.44,176.4a24.53,24.53,0,0,0,3.93,0c.26-.21.17-.57-.49-.66a13.21,13.21,0,0,0-1.94,0Z"/><path class="cls-4" d="M181.42,179.08a11,11,0,0,0,1.76,0c.11-.09.07-.26-.22-.3a5.93,5.93,0,0,0-.87,0Z"/><polygon class="cls-43" points="214.09 204.89 214.82 205.42 217.4 205.96 218.73 204.66 218.15 203.11 215.53 203.11 213.3 203.65 211.53 205.19 212.88 205.96 214.09 204.89"/><polygon class="cls-44" points="217.4 205.96 214.82 205.42 214.09 204.89 212.88 205.96 211.53 205.19 212.88 206.89 215.76 206.89 218.28 207.33 219.1 205.63 218.73 204.66 217.4 205.96"/><polygon class="cls-43" points="210.61 201.25 215.17 200.81 217.09 198.82 214.52 194.64 210.61 192.94 205 198.83 203.35 201.81 207.49 203.17 210.61 201.25"/><polygon class="cls-44" points="195.53 199.75 194.54 199.84 193.87 200.26 192.98 199.96 192.94 200.03 193.94 200.64 194.75 200.54 195.24 200.64 196.14 199.65 195.94 199.32 195.53 199.75"/><polygon class="cls-43" points="194.54 199.84 195.53 199.75 195.94 199.32 195.38 198.42 194.54 198.05 193.34 199.32 192.98 199.96 193.87 200.26 194.54 199.84"/><polygon class="cls-44" points="180.86 175.59 179.87 175.68 179.2 176.1 178.31 175.81 178.28 175.87 179.28 176.48 180.08 176.38 180.57 176.48 181.47 175.49 181.27 175.16 180.86 175.59"/><polygon class="cls-43" points="179.87 175.68 180.86 175.59 181.27 175.16 180.72 174.26 179.87 173.89 178.67 175.16 178.31 175.81 179.2 176.1 179.87 175.68"/><polygon class="cls-44" points="181.97 178.76 181.63 178.8 181.4 178.94 181.09 178.84 181.08 178.86 181.43 179.07 181.7 179.04 181.87 179.07 182.18 178.73 182.11 178.62 181.97 178.76"/><polygon class="cls-43" points="181.63 178.8 181.97 178.76 182.11 178.62 181.92 178.31 181.63 178.18 181.22 178.62 181.09 178.84 181.4 178.94 181.63 178.8"/><path class="cls-4" d="M144,158.28h2.3l2.69,2.37,5.36-.88s1.64-.78,1.7-1.31-1.52-1.09-1.52-1.09a7.89,7.89,0,0,0-2.88-.42l-4,.24Z"/><polygon class="cls-43" points="144.79 158.21 145.52 158.74 148.09 159.28 149.43 157.97 148.85 156.43 146.22 156.43 143.99 156.97 142.23 158.51 143.57 159.28 144.79 158.21"/><polygon class="cls-44" points="148.09 159.28 145.52 158.74 144.79 158.21 143.57 159.28 142.23 158.51 143.57 160.21 146.45 160.21 148.97 160.65 149.79 158.95 149.43 157.97 148.09 159.28"/><path class="cls-4" d="M127.41,153.15h7.73l2.69,2.37,5.36-.88s1.64-.78,1.7-1.31-1.7-2-1.7-2c-.42-.6-2.33-.89-3.06-.89h-7Z"/><polygon class="cls-44" points="134.72 149 130.16 149.43 127.04 151.35 122.9 150 122.73 150.3 127.38 153.15 131.12 152.68 133.39 153.15 137.58 148.53 136.64 147 134.72 149"/><polygon class="cls-43" points="133.64 153.07 134.37 153.61 136.95 154.14 138.28 152.84 137.7 151.3 135.08 151.3 132.85 151.84 131.09 153.38 132.43 154.14 133.64 153.07"/><polygon class="cls-44" points="136.95 154.14 134.37 153.61 133.64 153.07 132.43 154.14 131.09 153.38 132.43 155.08 135.31 155.08 137.83 155.52 138.65 153.82 138.28 152.84 136.95 154.14"/><polygon class="cls-43" points="130.16 149.43 134.72 149 136.64 147 134.07 142.82 130.16 141.12 124.55 147.01 122.9 150 127.04 151.35 130.16 149.43"/><path class="cls-12" d="M141,173.62s-.2,3.74,4.95,6.76,8,3.49,12.84,3-3-7.36-3-7.36S141.3,169.68,141,173.62Z"/><path class="cls-4" d="M155.25,182.2h8.48s3.53-.48,3.46-1.22a8.62,8.62,0,0,0-1.09-2.36l-4.74-1.31-8.81-1.15Z"/><polygon class="cls-43" points="154.24 177.43 156.15 178.12 158.29 176.16 158.07 173.02 154.36 170.51 152.06 167.06 149.12 167.06 145.79 170.9 143.75 176.22 150.4 178.63 154.24 177.43"/><path class="cls-44" d="M156.15,178.12l-1.92-.7-3.84,1.2-6.65-2.4s3,5.86,11.58,6l1.08-1.16.76-.83,1.12-4Z"/><polygon class="cls-44" points="152.06 167.06 151.45 170.09 151.02 171.06 151.54 174 153.04 172.19 154.36 170.51 152.06 167.06"/><polygon class="cls-44" points="154.03 175.94 154.03 174.47 154.95 173.02 156.63 173.02 154.03 175.94"/><polygon class="cls-9" points="146.02 271.18 146.02 294.92 249.91 355.8 249.73 331.31 146.02 271.18"/><polygon class="cls-10" points="249.74 331.29 353.81 271.16 353.81 295.5 249.92 355.78 249.74 331.29"/><path class="cls-11" d="M256.35,230.19c2.06.55-4.06.74-4.06.74a22.43,22.43,0,0,1-8.17-6.42c-3.25-4.33.56-2.39.56-2.39A22.11,22.11,0,0,0,256.35,230.19Z"/><polygon class="cls-12" points="249.84 211.19 145.95 271.57 249.65 331.7 353.63 271.45 249.84 211.19"/><path class="cls-13" d="M233.79,220.52s-2.75,6,1.23,10.4,16.37,9.86,23.22,10.25,15.92,1.72,20.12,9.46,5.31,15.53,6,20.81,3.24,7.27,2.84,11.47-6,7.52-6.2,13.93,2.14,15.45,2.14,15.45l14.17-8.21,5.41-24.55-13.4-36.22L262,227.55,239.79,217Z"/><path class="cls-15" d="M237.06,218.62s-1,8.59,2.29,10.79,9.38,6,15.44,6.48,15.14,1,22.47,7.43a34.84,34.84,0,0,1,10.86,20.34c.76,5,1.77,14.08,3.79,15.88s2.25,4.13-1.15,8.52-6.68,7.67-6.68,13.61,2,8.92,2,8.92l18.37-25.14-10.17-44.78L261,226l-21.21-9Z"/><path class="cls-45" d="M239.79,217s-2.18,7.79,3.19,12.39,24.56.47,37.68,15.34,7.73,23.13,13.94,32.63-.31,9.5-4.69,16.52-3.82,16.68-3.82,16.68l67.54-39.13-103.8-60.26Z"/><path class="cls-15" d="M289.31,240.12c0,2-.64,4.16-3.87,2.76s-3.81-7.09-7.51-7.35-6.47-3.35-4.76-4.42,10.47,3,11.08,4.45S289.31,240.12,289.31,240.12Z"/><path class="cls-15" d="M302.71,279.54A12.54,12.54,0,0,1,298,274c-1.09-2.58-5-10.48-4.28-11.47s.3-5.49,1.15-6.24.65,4.19,2.26,8.83,1.5,7.33,3.61,7.83S302.71,279.54,302.71,279.54Z"/><path class="cls-15" d="M262,227.55c-3.32.45-12.49-3.14-12.2-5.14s.9-.61,4.91-2.6,3.67,5.79,6.29,6.23S262,227.55,262,227.55Z"/><path class="cls-15" d="M256.35,230.19c2.06.55-4.06.74-4.06.74a22.43,22.43,0,0,1-8.17-6.42c-3.25-4.33.56-2.39.56-2.39A22.11,22.11,0,0,0,256.35,230.19Z"/><path class="cls-15" d="M302,288.43c.45,1.32,0,2.39-1.18,4s-4.63,7.54-5.27,8.18c-2,2.05-3.94.47-4.72.22s2.4-1.93,4.73-4.63,3.17-3.4,3.61-5.11C299.6,289.58,301.6,287.11,302,288.43Z"/><path class="cls-4" d="M314.77,266.49c1.21-.23,2.27-.47,2.93-.64a.65.65,0,0,0,.55.25l.14,0-.65,5s5.46-3.3,1.3-5.54a14.33,14.33,0,0,1,3.75,2,1.75,1.75,0,0,1,1-.45,3.29,3.29,0,0,0-.78.62,13,13,0,0,1,2.12,2.4s0-.07,0-.19a4.17,4.17,0,0,0-1.68-4.26c-1.25-1-3.43-.82-4.18-.71a3.54,3.54,0,0,0,2-2.17c.58-2-1.83-3.39-1.83-3.39a6.39,6.39,0,0,1,0,3.07,3,3,0,0,0,1.24,0s-.15.21-1.23.28l-.88,2a.68.68,0,0,0-.5-.2.76.76,0,0,0-.36.09.41.41,0,0,0-.25.34.36.36,0,0,0,.13.26,45.53,45.53,0,0,1-6.53.86c-3.59.18-10.64-.55-11.46-.18a.62.62,0,0,0-.42.69,1,1,0,0,0,.19.65h7.1A74.33,74.33,0,0,0,314.77,266.49Z"/><path class="cls-46" d="M298.2,247.72l8.08.92S301.35,242.85,298.2,247.72Z"/><path class="cls-47" d="M297.75,247.4s-.44-3.39,2.07-5a8.25,8.25,0,0,1,5.16-1.15,18,18,0,0,0-3.38,2.12,3.83,3.83,0,0,1-.87-.78,1.54,1.54,0,0,0,.63,1s-2.86,2.75-2.93,4S297.75,247.4,297.75,247.4Z"/><polygon class="cls-46" points="289.85 246.93 298.16 248.08 294.36 245.42 289.85 246.93"/><path class="cls-47" d="M298.16,248.08a4.56,4.56,0,0,0-3.52-3,5.25,5.25,0,0,0-4.79,1.83,12.62,12.62,0,0,1,4.33,0,2.12,2.12,0,0,0,0-1.24s.29.15.39,1.23Z"/><path class="cls-47" d="M298.12,247.89l8.15.75S300.7,243.52,298.12,247.89Z"/><path class="cls-48" d="M299.26,266.79c-.53-.82.5-7.87.25-11.46a33.45,33.45,0,0,0-1.35-7c0-.26,0-.37.11-.41-.16,0-.48-.09-.39.41a33.46,33.46,0,0,1,1.35,7c.25,3.59-.78,10.64-.25,11.46a1,1,0,0,0,1,.42A.9.9,0,0,1,299.26,266.79Z"/><path class="cls-49" d="M300.87,259.92a53.41,53.41,0,0,0-1.09-8.33c-.54-2-1.15-3.65-1.15-3.65a.52.52,0,0,0-.36,0l.08,0s.62,1.61,1.15,3.65a53.42,53.42,0,0,1,1.09,8.33c0,1.31,0,7.1,0,7.1a2,2,0,0,1-.64.19,1.84,1.84,0,0,0,.92-.19S300.87,261.23,300.87,259.92Z"/><path class="cls-48" d="M300.6,259.92a53.42,53.42,0,0,0-1.09-8.33c-.54-2-1.15-3.65-1.15-3.65l-.08,0c-.09,0-.16.16-.11.41a33.45,33.45,0,0,1,1.35,7c.25,3.59-.78,10.64-.25,11.46a.9.9,0,0,0,.7.42,2,2,0,0,0,.64-.19S300.6,261.23,300.6,259.92Z"/><path class="cls-49" d="M298.07,247.87a.6.6,0,0,1,.13.36.61.61,0,0,1-.61.61.61.61,0,0,1-.41-.16.6.6,0,0,0,.48.25.61.61,0,0,0,.61-.61A.61.61,0,0,0,298.07,247.87Z"/><path class="cls-48" d="M298.2,248.23a.6.6,0,0,0-.13-.36.61.61,0,0,0-.41-.16.61.61,0,0,0-.61.61.6.6,0,0,0,.13.36.61.61,0,0,0,.41.16A.61.61,0,0,0,298.2,248.23Z"/><path class="cls-49" d="M299,247.68a.59.59,0,0,1,.13.36.61.61,0,0,1-.61.61.6.6,0,0,1-.4-.16.59.59,0,0,0,.48.25.61.61,0,0,0,.61-.61A.6.6,0,0,0,299,247.68Z"/><path class="cls-48" d="M299.17,248a.59.59,0,0,0-.13-.36.6.6,0,0,0-.4-.16.61.61,0,0,0-.61.61.59.59,0,0,0,.13.36.6.6,0,0,0,.4.16A.61.61,0,0,0,299.17,248Z"/><path class="cls-46" d="M297.75,247.4s-.82-2.92.95-4.46a7.31,7.31,0,0,1,6.28-1.65S298.81,240.6,297.75,247.4Z"/><g class="cls-50"><path class="cls-51" d="M298.15,249.56c.39.05.69-.22,1.09-.25h0a.84.84,0,0,1-.52.26,1.09,1.09,0,0,1-.58,0Z"/><path class="cls-51" d="M298.28,250.14c.39.05.69-.22,1.09-.25h0a.84.84,0,0,1-.52.26,1.09,1.09,0,0,1-.58,0Z"/><path class="cls-51" d="M298.5,250.73c.39.05.69-.22,1.09-.25h0a.84.84,0,0,1-.52.26,1.08,1.08,0,0,1-.58,0Z"/><path class="cls-51" d="M298.51,251.31c.45.07.81-.24,1.26-.28h0a1.06,1.06,0,0,1-.6.29,1.25,1.25,0,0,1-.67,0Z"/><path class="cls-51" d="M298.74,252.09c.45.07.81-.24,1.26-.28h0a1.06,1.06,0,0,1-.6.29,1.26,1.26,0,0,1-.67,0Z"/><path class="cls-51" d="M298.88,253c.45.07.81-.24,1.26-.28h0a1.06,1.06,0,0,1-.6.29,1.26,1.26,0,0,1-.67,0Z"/><path class="cls-51" d="M299,254c.45.08.81-.21,1.27-.24h0a1.06,1.06,0,0,1-.61.27,1.25,1.25,0,0,1-.67,0Z"/><path class="cls-51" d="M299.14,254.86c.44.09.82-.2,1.27-.22h0a1.06,1.06,0,0,1-.61.26,1.25,1.25,0,0,1-.67,0Z"/><path class="cls-51" d="M299.22,255.69c.44.09.82-.2,1.27-.22h0a1.06,1.06,0,0,1-.61.26,1.25,1.25,0,0,1-.67,0Z"/><path class="cls-51" d="M299.25,256.83c.5.1.94-.21,1.44-.25h0a1.31,1.31,0,0,1-.7.29,1.43,1.43,0,0,1-.75,0Z"/><path class="cls-51" d="M299.14,258a1.75,1.75,0,0,0,.82,0,4.45,4.45,0,0,1,.81-.19h0a1.59,1.59,0,0,1-.8.29,1.62,1.62,0,0,1-.85-.06Z"/><path class="cls-51" d="M299.15,259a2,2,0,0,0,.91,0,6.26,6.26,0,0,1,.91-.21h0a1.9,1.9,0,0,1-.89.32,1.81,1.81,0,0,1-.94-.06Z"/><path class="cls-51" d="M299.06,260.49a2,2,0,0,0,.95,0,7,7,0,0,1,.94-.22h0a2,2,0,0,1-.92.33,1.88,1.88,0,0,1-1-.06Z"/><path class="cls-51" d="M298.92,261.65a2.19,2.19,0,0,0,1,.09,9.39,9.39,0,0,1,1-.11h0a2.3,2.3,0,0,1-1,.22,2,2,0,0,1-1-.2Z"/><path class="cls-51" d="M298.84,263.32a2.41,2.41,0,0,0,1.14.11c.38-.05.76-.11,1.16-.13h0a2.69,2.69,0,0,1-1.15.24,2.27,2.27,0,0,1-1.15-.21Z"/><path class="cls-51" d="M298.63,265a2.65,2.65,0,0,0,1.24.12c.42-.06.83-.11,1.26-.14h0a3.1,3.1,0,0,1-1.26.25,2.51,2.51,0,0,1-1.26-.23Z"/></g><path class="cls-4" d="M255.41,225.05c.94-.18,1.76-.37,2.27-.49a.5.5,0,0,0,.42.19l.11,0-.51,3.88s4.23-2.56,1-4.29a11.1,11.1,0,0,1,2.9,1.58,1.36,1.36,0,0,1,.75-.35,2.55,2.55,0,0,0-.61.48,10.07,10.07,0,0,1,1.64,1.86s0-.05,0-.15a3.23,3.23,0,0,0-1.3-3.3,4.62,4.62,0,0,0-3.24-.55,2.74,2.74,0,0,0,1.57-1.68c.45-1.57-1.41-2.63-1.41-2.63a5,5,0,0,1,0,2.38,2.29,2.29,0,0,0,1,0s-.11.16-1,.21l-.68,1.53a.53.53,0,0,0-.39-.15.59.59,0,0,0-.28.07.32.32,0,0,0-.2.26.28.28,0,0,0,.1.2,35.26,35.26,0,0,1-5.06.66c-2.78.14-8.24-.43-8.88-.14a.48.48,0,0,0-.33.54.78.78,0,0,0,.15.5H249A57.57,57.57,0,0,0,255.41,225.05Z"/><path class="cls-46" d="M242.57,210.52l6.26.71S245,206.75,242.57,210.52Z"/><path class="cls-47" d="M242.23,210.27s-.34-2.63,1.6-3.84a6.39,6.39,0,0,1,4-.89,14,14,0,0,0-2.62,1.64,3,3,0,0,1-.68-.61,1.2,1.2,0,0,0,.49.75s-2.21,2.13-2.27,3.08S242.23,210.27,242.23,210.27Z"/><polygon class="cls-46" points="236.11 209.9 242.54 210.79 239.6 208.74 236.11 209.9"/><path class="cls-47" d="M242.54,210.79a3.54,3.54,0,0,0-2.73-2.31,4.07,4.07,0,0,0-3.71,1.41,9.77,9.77,0,0,1,3.36,0,1.64,1.64,0,0,0,0-1s.23.11.3,1Z"/><path class="cls-47" d="M242.52,210.65l6.31.58S244.51,207.27,242.52,210.65Z"/><path class="cls-48" d="M243.39,225.29c-.41-.63.39-6.09.19-8.88a25.91,25.91,0,0,0-1-5.42c0-.2,0-.29.09-.32-.12,0-.37-.07-.3.32a25.92,25.92,0,0,1,1,5.42c.19,2.78-.6,8.24-.19,8.88a.74.74,0,0,0,.76.33A.7.7,0,0,1,243.39,225.29Z"/><path class="cls-49" d="M244.65,220a41.37,41.37,0,0,0-.84-6.45c-.42-1.57-.89-2.82-.89-2.82a.4.4,0,0,0-.28,0l.07,0s.48,1.25.89,2.82a41.37,41.37,0,0,1,.84,6.45c0,1,0,5.5,0,5.5a1.55,1.55,0,0,1-.5.15,1.43,1.43,0,0,0,.71-.15S244.65,221,244.65,220Z"/><path class="cls-48" d="M244.43,220a41.37,41.37,0,0,0-.84-6.45c-.42-1.57-.89-2.82-.89-2.82l-.07,0c-.07,0-.12.12-.09.32a25.91,25.91,0,0,1,1,5.42c.19,2.78-.6,8.24-.19,8.88a.7.7,0,0,0,.54.33,1.55,1.55,0,0,0,.5-.15S244.43,221,244.43,220Z"/><path class="cls-49" d="M242.47,210.63a.46.46,0,0,1,.1.28.47.47,0,0,1-.47.47.47.47,0,0,1-.32-.13.47.47,0,0,0,.37.2.47.47,0,0,0,.47-.47A.47.47,0,0,0,242.47,210.63Z"/><path class="cls-48" d="M242.57,210.91a.46.46,0,0,0-.1-.28.47.47,0,0,0-.32-.13.47.47,0,0,0-.47.47.46.46,0,0,0,.1.28.47.47,0,0,0,.32.13A.47.47,0,0,0,242.57,210.91Z"/><path class="cls-49" d="M243.22,210.48a.46.46,0,0,1,.1.28.47.47,0,0,1-.47.47.46.46,0,0,1-.31-.12.46.46,0,0,0,.37.19.47.47,0,0,0,.47-.47A.46.46,0,0,0,243.22,210.48Z"/><path class="cls-48" d="M243.32,210.76a.46.46,0,0,0-.1-.28.46.46,0,0,0-.31-.12.47.47,0,0,0-.47.47.46.46,0,0,0,.1.28.46.46,0,0,0,.31.12A.47.47,0,0,0,243.32,210.76Z"/><path class="cls-46" d="M242.23,210.27s-.63-2.26.73-3.45a5.66,5.66,0,0,1,4.86-1.28A5.13,5.13,0,0,0,242.23,210.27Z"/><g class="cls-52"><path class="cls-51" d="M242.53,211.94c.3,0,.54-.17.85-.19h0a.68.68,0,0,1-.4.2.84.84,0,0,1-.45,0Z"/><path class="cls-51" d="M242.63,212.39c.3,0,.54-.17.85-.19h0a.68.68,0,0,1-.4.2.84.84,0,0,1-.45,0Z"/><path class="cls-51" d="M242.81,212.84c.3,0,.54-.17.85-.19h0a.68.68,0,0,1-.4.2.84.84,0,0,1-.45,0Z"/><path class="cls-51" d="M242.82,213.29c.35.05.62-.18,1-.22h0a.86.86,0,0,1-.47.22,1,1,0,0,1-.52,0Z"/><path class="cls-51" d="M243,213.9c.35.05.62-.18,1-.22h0a.86.86,0,0,1-.47.22,1,1,0,0,1-.52,0Z"/><path class="cls-51" d="M243.1,214.61c.35.05.63-.18,1-.22h0a.86.86,0,0,1-.47.22,1,1,0,0,1-.52,0Z"/><path class="cls-51" d="M243.23,215.41c.35.06.63-.16,1-.18h0a.86.86,0,0,1-.47.21,1,1,0,0,1-.52,0Z"/><path class="cls-51" d="M243.3,216c.34.07.63-.15,1-.17h0a.86.86,0,0,1-.48.2,1,1,0,0,1-.52,0Z"/><path class="cls-51" d="M243.36,216.69c.34.07.63-.15,1-.17h0a.86.86,0,0,1-.48.2,1,1,0,0,1-.52,0Z"/><path class="cls-51" d="M243.39,217.57c.39.08.72-.16,1.12-.2h0a1.05,1.05,0,0,1-.54.22,1.11,1.11,0,0,1-.58,0Z"/><path class="cls-51" d="M243.3,218.44c.43.1.83-.14,1.26-.18h0a1.28,1.28,0,0,1-.62.22,1.25,1.25,0,0,1-.65,0Z"/><path class="cls-51" d="M243.31,219.29c.48.12.93-.14,1.41-.2h0a1.52,1.52,0,0,1-.69.25,1.4,1.4,0,0,1-.73,0Z"/><path class="cls-51" d="M243.24,220.4c.5.12,1-.15,1.46-.21h0a1.61,1.61,0,0,1-.71.25,1.45,1.45,0,0,1-.76,0Z"/><path class="cls-51" d="M243.13,221.31a1.7,1.7,0,0,0,.8.07c.27,0,.53-.08.81-.09h0a1.84,1.84,0,0,1-.81.17,1.59,1.59,0,0,1-.81-.15Z"/><path class="cls-51" d="M243.07,222.6a1.86,1.86,0,0,0,.88.08c.3,0,.59-.09.9-.1h0a2.15,2.15,0,0,1-.89.18,1.76,1.76,0,0,1-.89-.17Z"/><path class="cls-51" d="M242.91,223.89a2.05,2.05,0,0,0,1,.1c.33,0,.64-.09,1-.11h0a2.48,2.48,0,0,1-1,.19,1.94,1.94,0,0,1-1-.18Z"/></g><path class="cls-4" d="M321.41,277.2c1.21-.23,2.27-.47,2.93-.64a.65.65,0,0,0,.55.25l.14,0-.65,5s5.46-3.3,1.3-5.54a14.33,14.33,0,0,1,3.75,2,1.75,1.75,0,0,1,1-.45,3.29,3.29,0,0,0-.78.62,13,13,0,0,1,2.12,2.4s0-.07,0-.19a4.17,4.17,0,0,0-1.68-4.26c-1.25-1-3.43-.82-4.18-.71a3.54,3.54,0,0,0,2-2.17c.58-2-1.83-3.39-1.83-3.39a6.39,6.39,0,0,1,0,3.07,3,3,0,0,0,1.24,0s-.15.21-1.23.28l-.88,2a.68.68,0,0,0-.5-.2.76.76,0,0,0-.36.09.41.41,0,0,0-.25.34.36.36,0,0,0,.13.26,45.53,45.53,0,0,1-6.53.86c-3.59.18-10.64-.55-11.46-.18a.62.62,0,0,0-.42.69,1,1,0,0,0,.19.65h7.1A74.33,74.33,0,0,0,321.41,277.2Z"/><path class="cls-46" d="M304.84,258.43l8.08.92S308,253.56,304.84,258.43Z"/><path class="cls-47" d="M304.4,258.11s-.44-3.39,2.07-5a8.25,8.25,0,0,1,5.16-1.15,18,18,0,0,0-3.38,2.12,3.83,3.83,0,0,1-.87-.78,1.54,1.54,0,0,0,.63,1s-2.86,2.75-2.93,4S304.4,258.11,304.4,258.11Z"/><polygon class="cls-46" points="296.49 257.64 304.8 258.79 301 256.13 296.49 257.64"/><path class="cls-47" d="M304.8,258.79a4.56,4.56,0,0,0-3.52-3,5.25,5.25,0,0,0-4.79,1.83,12.62,12.62,0,0,1,4.33,0,2.12,2.12,0,0,0,0-1.24s.29.15.39,1.23Z"/><path class="cls-47" d="M304.77,258.6l8.15.75S307.35,254.23,304.77,258.6Z"/><path class="cls-48" d="M305.9,277.5c-.53-.82.5-7.87.25-11.46a33.45,33.45,0,0,0-1.35-7c0-.26,0-.37.11-.41-.16,0-.48-.09-.39.41a33.46,33.46,0,0,1,1.35,7c.25,3.59-.78,10.64-.25,11.46a1,1,0,0,0,1,.42A.9.9,0,0,1,305.9,277.5Z"/><path class="cls-49" d="M307.52,270.63a53.41,53.41,0,0,0-1.09-8.33c-.54-2-1.15-3.65-1.15-3.65a.52.52,0,0,0-.36,0l.08,0s.62,1.61,1.15,3.65a53.42,53.42,0,0,1,1.09,8.33c0,1.31,0,7.1,0,7.1a2,2,0,0,1-.64.19,1.84,1.84,0,0,0,.92-.19S307.52,271.94,307.52,270.63Z"/><path class="cls-48" d="M307.24,270.63a53.42,53.42,0,0,0-1.09-8.33c-.54-2-1.15-3.65-1.15-3.65l-.08,0c-.09,0-.16.16-.11.41a33.45,33.45,0,0,1,1.35,7c.25,3.59-.78,10.64-.25,11.46a.9.9,0,0,0,.7.42,2,2,0,0,0,.64-.19S307.24,271.94,307.24,270.63Z"/><path class="cls-49" d="M304.71,258.58a.6.6,0,0,1,.13.36.61.61,0,0,1-.61.61.61.61,0,0,1-.41-.16.6.6,0,0,0,.48.25.61.61,0,0,0,.61-.61A.61.61,0,0,0,304.71,258.58Z"/><path class="cls-48" d="M304.84,258.94a.6.6,0,0,0-.13-.36.61.61,0,0,0-.41-.16.61.61,0,0,0-.61.61.6.6,0,0,0,.13.36.61.61,0,0,0,.41.16A.61.61,0,0,0,304.84,258.94Z"/><path class="cls-49" d="M305.68,258.39a.59.59,0,0,1,.13.36.61.61,0,0,1-.61.61.6.6,0,0,1-.4-.16.59.59,0,0,0,.48.25.61.61,0,0,0,.61-.61A.6.6,0,0,0,305.68,258.39Z"/><path class="cls-48" d="M305.81,258.74a.59.59,0,0,0-.13-.36.6.6,0,0,0-.4-.16.61.61,0,0,0-.61.61.59.59,0,0,0,.13.36.6.6,0,0,0,.4.16A.61.61,0,0,0,305.81,258.74Z"/><path class="cls-46" d="M304.4,258.11s-.82-2.92.95-4.46a7.31,7.31,0,0,1,6.28-1.65S305.45,251.31,304.4,258.11Z"/><g class="cls-53"><path class="cls-51" d="M304.79,260.27c.39.05.69-.22,1.09-.25h0a.84.84,0,0,1-.52.26,1.09,1.09,0,0,1-.58,0Z"/><path class="cls-51" d="M304.92,260.85c.39.05.69-.22,1.09-.25h0a.84.84,0,0,1-.52.26,1.09,1.09,0,0,1-.58,0Z"/><path class="cls-51" d="M305.14,261.44c.39.05.69-.22,1.09-.25h0a.84.84,0,0,1-.52.26,1.08,1.08,0,0,1-.58,0Z"/><path class="cls-51" d="M305.16,262c.45.07.81-.24,1.26-.28h0a1.06,1.06,0,0,1-.6.29,1.25,1.25,0,0,1-.67,0Z"/><path class="cls-51" d="M305.38,262.8c.45.07.81-.24,1.26-.28h0a1.06,1.06,0,0,1-.6.29,1.26,1.26,0,0,1-.67,0Z"/><path class="cls-51" d="M305.52,263.71c.45.07.81-.24,1.26-.28h0a1.06,1.06,0,0,1-.6.29,1.26,1.26,0,0,1-.67,0Z"/><path class="cls-51" d="M305.69,264.75c.45.08.81-.21,1.27-.24h0a1.06,1.06,0,0,1-.61.27,1.25,1.25,0,0,1-.67,0Z"/><path class="cls-51" d="M305.78,265.57c.44.09.82-.2,1.27-.22h0a1.06,1.06,0,0,1-.61.26,1.25,1.25,0,0,1-.67,0Z"/><path class="cls-51" d="M305.86,266.4c.44.09.82-.2,1.27-.22h0a1.06,1.06,0,0,1-.61.26,1.25,1.25,0,0,1-.67,0Z"/><path class="cls-51" d="M305.89,267.54c.5.1.94-.21,1.44-.25h0a1.31,1.31,0,0,1-.7.29,1.43,1.43,0,0,1-.75,0Z"/><path class="cls-51" d="M305.78,268.66a1.75,1.75,0,0,0,.82,0,4.45,4.45,0,0,1,.81-.19h0a1.59,1.59,0,0,1-.8.29,1.62,1.62,0,0,1-.85-.06Z"/><path class="cls-51" d="M305.79,269.76a2,2,0,0,0,.91,0,6.26,6.26,0,0,1,.91-.21h0a1.9,1.9,0,0,1-.89.32,1.81,1.81,0,0,1-.94-.06Z"/><path class="cls-51" d="M305.7,271.2a2,2,0,0,0,.95,0,7,7,0,0,1,.94-.22h0a2,2,0,0,1-.92.33,1.88,1.88,0,0,1-1-.06Z"/><path class="cls-51" d="M305.56,272.36a2.19,2.19,0,0,0,1,.09,9.39,9.39,0,0,1,1-.11h0a2.3,2.3,0,0,1-1,.22,2,2,0,0,1-1-.2Z"/><path class="cls-51" d="M305.49,274a2.41,2.41,0,0,0,1.14.11c.38-.05.76-.11,1.16-.13h0a2.69,2.69,0,0,1-1.15.24,2.27,2.27,0,0,1-1.15-.21Z"/><path class="cls-51" d="M305.27,275.7a2.65,2.65,0,0,0,1.24.12c.42-.06.83-.11,1.26-.14h0a3.1,3.1,0,0,1-1.26.25,2.51,2.51,0,0,1-1.26-.23Z"/></g><path class="cls-4" d="M314.33,283.31c1.32-.25,2.47-.51,3.19-.69a.71.71,0,0,0,.59.27l.15,0-.71,5.46s6-3.6,1.42-6c1.43.28,4.08,2.23,4.08,2.23a1.91,1.91,0,0,1,1.05-.49,3.59,3.59,0,0,0-.85.68,14.17,14.17,0,0,1,2.31,2.62s0-.08,0-.21a4.55,4.55,0,0,0-1.83-4.64c-1.37-1.11-3.73-.9-4.56-.78a3.86,3.86,0,0,0,2.21-2.36c.64-2.2-2-3.7-2-3.7a7,7,0,0,1,0,3.35,3.22,3.22,0,0,0,1.35,0s-.16.23-1.34.3l-1,2.15a.75.75,0,0,0-.55-.22.83.83,0,0,0-.39.1.45.45,0,0,0-.28.37.39.39,0,0,0,.14.28,49.63,49.63,0,0,1-7.12.94c-3.91.19-11.6-.6-12.49-.19a.67.67,0,0,0-.46.75,1.1,1.1,0,0,0,.21.71h7.74A81,81,0,0,0,314.33,283.31Z"/><path class="cls-46" d="M296.27,262.86l8.81,1S299.71,257.55,296.27,262.86Z"/><path class="cls-47" d="M295.79,262.5s-.48-3.7,2.25-5.4a9,9,0,0,1,5.62-1.25,19.64,19.64,0,0,0-3.69,2.31,4.18,4.18,0,0,1-1-.85,1.68,1.68,0,0,0,.69,1.05s-3.11,3-3.19,4.34S295.79,262.5,295.79,262.5Z"/><polygon class="cls-46" points="287.17 261.99 296.23 263.25 292.09 260.35 287.17 261.99"/><path class="cls-47" d="M296.23,263.25a5,5,0,0,0-3.84-3.24,5.72,5.72,0,0,0-5.22,2,13.75,13.75,0,0,1,4.72,0,2.31,2.31,0,0,0,0-1.35s.32.16.42,1.34Z"/><path class="cls-47" d="M296.19,263l8.89.82S299,258.28,296.19,263Z"/><path class="cls-48" d="M297.43,283.64c-.58-.89.54-8.58.27-12.49a36.46,36.46,0,0,0-1.47-7.63c-.05-.28,0-.4.12-.45-.17-.05-.52-.09-.42.45a36.48,36.48,0,0,1,1.47,7.63c.27,3.91-.85,11.6-.27,12.49a1,1,0,0,0,1.06.46A1,1,0,0,1,297.43,283.64Z"/><path class="cls-49" d="M299.19,276.16a58.22,58.22,0,0,0-1.19-9.07c-.58-2.22-1.26-4-1.26-4a.57.57,0,0,0-.39,0l.09,0s.67,1.76,1.26,4a58.23,58.23,0,0,1,1.19,9.07c0,1.43,0,7.74,0,7.74a2.19,2.19,0,0,1-.7.21,2,2,0,0,0,1-.21S299.19,277.58,299.19,276.16Z"/><path class="cls-48" d="M298.89,276.16a58.23,58.23,0,0,0-1.19-9.07c-.58-2.22-1.26-4-1.26-4l-.09,0c-.1,0-.17.17-.12.45a36.46,36.46,0,0,1,1.47,7.63c.27,3.91-.85,11.6-.27,12.49a1,1,0,0,0,.76.46,2.19,2.19,0,0,0,.7-.21S298.89,277.58,298.89,276.16Z"/><path class="cls-49" d="M296.13,263a.65.65,0,0,1,.14.39.67.67,0,0,1-.67.67.66.66,0,0,1-.44-.18.66.66,0,0,0,.53.28.67.67,0,0,0,.67-.67A.66.66,0,0,0,296.13,263Z"/><path class="cls-48" d="M296.27,263.41a.65.65,0,0,0-.14-.39.66.66,0,0,0-.44-.18.67.67,0,0,0-.67.67.65.65,0,0,0,.14.39.66.66,0,0,0,.44.18A.67.67,0,0,0,296.27,263.41Z"/><path class="cls-49" d="M297.19,262.81a.64.64,0,0,1,.14.39.66.66,0,0,1-.66.66.65.65,0,0,1-.44-.17.65.65,0,0,0,.52.27.66.66,0,0,0,.66-.66A.65.65,0,0,0,297.19,262.81Z"/><path class="cls-48" d="M297.33,263.2a.64.64,0,0,0-.14-.39.65.65,0,0,0-.44-.17.66.66,0,0,0-.66.66.65.65,0,0,0,.14.39.65.65,0,0,0,.44.17A.66.66,0,0,0,297.33,263.2Z"/><path class="cls-46" d="M295.79,262.5s-.89-3.18,1-4.86a8,8,0,0,1,6.84-1.8S296.94,255.09,295.79,262.5Z"/><g class="cls-54"><path class="cls-51" d="M296.22,264.86a1.33,1.33,0,0,0,.59-.1,1.74,1.74,0,0,1,.59-.17h0a.92.92,0,0,1-.57.28,1.18,1.18,0,0,1-.64,0Z"/><path class="cls-51" d="M296.36,265.5a1.34,1.34,0,0,0,.59-.1,1.73,1.73,0,0,1,.59-.17h0a.92.92,0,0,1-.57.28,1.18,1.18,0,0,1-.64,0Z"/><path class="cls-51" d="M296.6,266.13a1.34,1.34,0,0,0,.59-.1,1.73,1.73,0,0,1,.59-.17h0a.92.92,0,0,1-.57.28,1.18,1.18,0,0,1-.64,0Z"/><path class="cls-51" d="M296.62,266.76c.49.07.88-.26,1.37-.31h0a1.16,1.16,0,0,1-.66.31,1.37,1.37,0,0,1-.73,0Z"/><path class="cls-51" d="M296.86,267.62c.49.07.88-.26,1.37-.31h0a1.16,1.16,0,0,1-.66.31,1.37,1.37,0,0,1-.73,0Z"/><path class="cls-51" d="M297,268.61c.49.07.88-.26,1.37-.31h0a1.16,1.16,0,0,1-.66.31,1.37,1.37,0,0,1-.73,0Z"/><path class="cls-51" d="M297.19,269.74c.49.09.89-.23,1.38-.26h0a1.16,1.16,0,0,1-.67.29,1.37,1.37,0,0,1-.73,0Z"/><path class="cls-51" d="M297.3,270.64c.48.09.89-.22,1.38-.24h0a1.16,1.16,0,0,1-.67.28,1.37,1.37,0,0,1-.73,0Z"/><path class="cls-51" d="M297.38,271.54c.49.09.89-.22,1.38-.24h0a1.16,1.16,0,0,1-.67.28,1.37,1.37,0,0,1-.73,0Z"/><path class="cls-51" d="M297.41,272.79a1.71,1.71,0,0,0,.79-.07,3.47,3.47,0,0,1,.78-.2h0a1.43,1.43,0,0,1-.76.31,1.56,1.56,0,0,1-.82,0Z"/><path class="cls-51" d="M297.29,274a1.91,1.91,0,0,0,.89,0,4.86,4.86,0,0,1,.89-.2v0a1.73,1.73,0,0,1-.87.32,1.76,1.76,0,0,1-.92-.07Z"/><path class="cls-51" d="M297.31,275.2a2.13,2.13,0,0,0,1,0,6.82,6.82,0,0,1,1-.23v0a2.07,2.07,0,0,1-1,.35,2,2,0,0,1-1-.07Z"/><path class="cls-51" d="M297.21,276.77a2.2,2.2,0,0,0,1,0,7.62,7.62,0,0,1,1-.24v0a2.18,2.18,0,0,1-1,.36,2,2,0,0,1-1.06-.07Z"/><path class="cls-51" d="M297.06,278a2.39,2.39,0,0,0,1.12.1,10.25,10.25,0,0,1,1.14-.12v0a2.51,2.51,0,0,1-1.14.24,2.23,2.23,0,0,1-1.14-.22Z"/><path class="cls-51" d="M297,279.86a2.62,2.62,0,0,0,1.24.12c.42-.06.83-.12,1.26-.14v0a2.93,2.93,0,0,1-1.26.26,2.47,2.47,0,0,1-1.26-.23Z"/><path class="cls-51" d="M296.74,281.68a2.89,2.89,0,0,0,1.36.14c.46-.06.91-.12,1.38-.16v0a3.38,3.38,0,0,1-1.37.27,2.74,2.74,0,0,1-1.37-.25Z"/></g><path class="cls-55" d="M206.3,252.1s11-4.29,11.34-6.95a2.26,2.26,0,0,0-2.32-2.67s8.66-1.63,15.93,11.71S206.3,252.1,206.3,252.1Z"/><path class="cls-56" d="M235.47,301.37s6.46-2.52,6.66-4.08a1.33,1.33,0,0,0-1.36-1.57s5.09-1,9.36,6.88S235.47,301.37,235.47,301.37Z"/><path class="cls-57" d="M191.75,277.76s8.67-3.38,8.94-5.47a1.78,1.78,0,0,0-1.83-2.1s6.82-1.29,12.55,9.22S191.75,277.76,191.75,277.76Z"/><path class="cls-58" d="M170.76,266.28s6.46-2.52,6.66-4.08a1.33,1.33,0,0,0-1.36-1.57s5.09-1,9.36,6.88S170.76,266.28,170.76,266.28Z"/><path class="cls-59" d="M231.41,271.53s6.46-2.52,6.66-4.08a1.33,1.33,0,0,0-1.36-1.57s5.09-1,9.36,6.88S231.41,271.53,231.41,271.53Z"/><path class="cls-60" d="M252.89,255.5s6.46-2.52,6.66-4.08a1.33,1.33,0,0,0-1.36-1.57s5.09-1,9.36,6.88S252.89,255.5,252.89,255.5Z"/><path class="cls-61" d="M258.67,281.22s7.21-2.81,7.43-4.55a1.48,1.48,0,0,0-1.52-1.75s5.68-1.07,10.44,7.68S258.67,281.22,258.67,281.22Z"/><path class="cls-62" d="M213.41,272.59a13.4,13.4,0,0,1,6.81,1.77c3.69,2.24,7.66,7.78,7.73,7.87-.22,0-7-1.06-10.61-3.29a13.4,13.4,0,0,1-5.13-6.28A9.28,9.28,0,0,1,213.41,272.59Z"/><g class="cls-24"><path class="cls-3" d="M227.95,282.23h0a1.16,1.16,0,0,1-1.37,1.14c-2.2-.42-6.55-1.41-9.23-3.05a13.13,13.13,0,0,1-4.69-5.29,4.19,4.19,0,0,1-.44-1.87v-.5a13.4,13.4,0,0,0,5.13,6.28C221,281.16,227.73,282.19,227.95,282.23Z"/><g class="cls-63"><g class="cls-24"><path class="cls-3" d="M227.95,282.23h0a1.16,1.16,0,0,1-1.37,1.14c-2.2-.42-6.55-1.41-9.23-3.05a13,13,0,0,1-4.54-5,5.08,5.08,0,0,1-.59-2.37v-.28a13.4,13.4,0,0,0,5.13,6.28c3.65,2.23,10.39,3.26,10.61,3.29"/></g></g></g><path class="cls-26" d="M218.87,276.72a.16.16,0,0,1-.16-.16V260.4a.16.16,0,1,1,.32,0v16.16A.16.16,0,0,1,218.87,276.72Z"/><path class="cls-27" d="M219.34,260.4s6.1,8.65,5.43,15.25l-5.43-3.27s.92-1,0-3.48A16,16,0,0,0,219.34,260.4Z"/><polygon class="cls-4" points="247.93 181.16 318.43 222.12 248.06 262.92 177.51 222.04 247.93 181.16"/><polygon class="cls-64" points="178.21 194.8 248.67 235.65 318.92 194.88 248.57 154.04 178.21 194.8"/><polygon class="cls-65" points="178.34 194.88 178.34 210.94 248.63 252.13 248.51 235.56 178.34 194.88"/><polygon class="cls-66" points="248.51 235.56 318.92 194.88 318.92 211.35 248.63 252.13 248.51 235.56"/><polygon class="cls-4" points="223.68 198.03 313.47 198 318.94 194.88 227.75 194.59 223.68 198.03"/><polygon class="cls-4" points="250.8 184.96 301.53 184.96 296.66 181.98 248.49 181.62 250.8 184.96"/><polygon class="cls-67" points="238.88 140.51 246.06 136.97 246.06 138.18 239.25 141.86 238.88 140.51"/><polygon class="cls-68" points="238.88 139.81 246.21 136.38 246.06 136.97 238.88 140.51 238.88 139.81"/><polygon class="cls-67" points="255.65 140.51 248.61 136.92 248.61 138.15 255.29 141.86 255.65 140.51"/><polygon class="cls-69" points="248.42 136.82 255.76 140.59 255.6 139.92 248.42 136.38 248.42 136.82"/><polygon class="cls-67" points="262.36 163.15 249.73 156.7 249.73 158.92 261.71 165.56 262.36 163.15"/><polygon class="cls-69" points="249.39 156.53 262.56 163.29 262.26 162.09 249.39 155.74 249.39 156.53"/><polygon class="cls-67" points="232.3 163.15 245.17 156.79 245.17 158.97 232.96 165.56 232.3 163.15"/><polygon class="cls-68" points="232.3 161.9 245.44 155.74 245.17 156.79 232.3 163.15 232.3 161.9"/><polygon class="cls-67" points="223.68 198.03 227.75 195.74 246.09 117.19 245.17 119.04 223.68 198.03"/><polygon class="cls-68" points="271.03 198.03 266.97 195.74 248.62 117.19 249.54 119.04 271.03 198.03"/><polygon class="cls-70" points="247.44 114.9 243.52 117.18 247.44 119.47 251.4 117.19 247.44 114.9"/><polygon class="cls-68" points="243.52 118.07 219.68 195.69 223.68 198.03 245.17 119.04 243.52 118.07"/><polygon class="cls-67" points="275.24 195.74 251.4 118.08 249.49 119.18 271.04 198.03 275.24 195.74"/><polygon class="cls-67" points="248.82 119.56 251.38 209.58 247.4 211.9 247.44 120.36 248.82 119.56"/><polygon class="cls-68" points="246.02 119.52 243.43 209.58 247.41 211.9 247.44 120.36 246.02 119.52"/><polygon class="cls-68" points="243.52 117.18 243.52 118.07 247.44 120.36 247.44 119.47 243.52 117.18"/><polygon class="cls-67" points="251.41 117.16 251.41 118.06 247.44 120.38 247.44 119.48 251.41 117.16"/><ellipse class="cls-67" cx="247.51" cy="117.06" rx="2.21" ry="1.05"/><path class="cls-69" d="M247.9,107.39a2.61,2.61,0,0,1-2.16,4.57,2.62,2.62,0,1,0,2.16-4.57Z"/><path class="cls-68" d="M248.81,109.37a2.61,2.61,0,1,0-2.62,2.62A2.61,2.61,0,0,0,248.81,109.37Z"/><polygon class="cls-68" points="232.3 166.36 244.93 173.75 244.93 170.05 232.96 163.95 232.3 166.36"/><polygon class="cls-67" points="262.39 166.34 249.73 173.75 249.73 170.05 261.73 163.94 262.39 166.34"/><polygon class="cls-69" points="232.96 163.95 235.49 162.56 244.66 166.95 244.57 169.87 232.96 163.95"/><polygon class="cls-69" points="261.71 163.95 259.35 162.44 250.16 166.85 250.25 169.79 261.71 163.95"/><polygon class="cls-68" points="238.83 142.3 245.26 146.06 245.31 144.08 239.2 140.96 238.83 142.3"/><polygon class="cls-67" points="255.94 142.13 248.61 146.42 248.61 144.36 255.65 140.77 255.94 142.13"/><polygon class="cls-69" points="239.2 140.96 240.61 140.18 245.36 142.46 245.31 144.08 239.2 140.96"/><polygon class="cls-69" points="255.39 140.9 253.97 140.12 249.47 142.28 249.5 144.05 255.39 140.9"/><path class="cls-71" d="M239.23,114a9.32,9.32,0,1,1,16.54,0,.38.38,0,0,0,0,.32h0a.38.38,0,0,0,.69,0,10,10,0,0,0,1.14-4.9,10.08,10.08,0,0,0-20.15.24,10,10,0,0,0,1.13,4.62.38.38,0,0,0,.69,0h0A.38.38,0,0,0,239.23,114Z"/><path class="cls-71" d="M246.61,88.21a22.42,22.42,0,0,0-13.47,39.64.76.76,0,0,0,1.18-.29h0a.75.75,0,0,0-.21-.87,20.92,20.92,0,1,1,26.8,0,.75.75,0,0,0-.21.87h0a.76.76,0,0,0,1.18.29,22.42,22.42,0,0,0-15.27-39.62Z"/><path class="cls-71" d="M236.92,120.19h0a.61.61,0,0,0-.12-.65,14.61,14.61,0,1,1,21.41-.13.61.61,0,0,0-.12.65h0a.6.6,0,0,0,1,.18,15.82,15.82,0,1,0-23.17.12A.6.6,0,0,0,236.92,120.19Z"/><polygon class="cls-4" points="247.41 211.9 289.41 211.9 295.88 208.17 251.33 207.8 247.41 211.9"/></g></svg>