<svg xmlns="http://www.w3.org/2000/svg" xmlns:xlink="http://www.w3.org/1999/xlink" viewBox="0 0 461.08 357.78"><defs><style>.cls-1{fill:#584d5b;}.cls-2{fill:#b1c185;}.cls-3,.cls-46{fill:#5c515f;}.cls-3{opacity:0.6;}.cls-4{fill:#93734c;}.cls-5{fill:#aeba83;}.cls-6{fill:#cee09b;}.cls-7{fill:#67b7b7;}.cls-8{fill:#79d7db;}.cls-9{fill:#e0ae4b;}.cls-10{fill:#e5bd5c;}.cls-11{fill:#c1ce91;}.cls-12{fill:#7d845e;}.cls-13{fill:#c7b299;}.cls-14{fill:#bca493;}.cls-15{fill:#aa9587;}.cls-16{fill:url(#linear-gradient);}.cls-17{fill:url(#linear-gradient-2);}.cls-18{fill:url(#linear-gradient-3);}.cls-19{fill:url(#linear-gradient-4);}.cls-20{fill:url(#linear-gradient-5);}.cls-21{fill:url(#linear-gradient-6);}.cls-22{fill:url(#linear-gradient-7);}.cls-23{fill:#a1af79;}.cls-24{fill:url(#linear-gradient-8);}.cls-25{fill:url(#linear-gradient-9);}.cls-26{fill:url(#linear-gradient-10);}.cls-27{fill:url(#linear-gradient-11);}.cls-28{fill:url(#linear-gradient-12);}.cls-29{fill:url(#linear-gradient-13);}.cls-30{fill:url(#linear-gradient-14);}.cls-31{fill:#d8bdab;}.cls-32{fill:#f9d162;}.cls-33{fill:#c19e4f;}.cls-34{fill:none;stroke:#e5bd5c;stroke-linecap:round;stroke-linejoin:round;stroke-width:2.21px;}.cls-35{fill:#d4c0dd;}.cls-36{fill:#6c6170;}.cls-37{fill:url(#linear-gradient-15);}.cls-38{fill:url(#linear-gradient-16);}.cls-39{fill:url(#linear-gradient-17);}.cls-40{fill:#a78746;}.cls-41{fill:#f2d651;}.cls-42{fill:#ccc;}.cls-43{fill:#b5b5b5;}.cls-44{fill:#727272;}.cls-45{fill:#ab9bb2;}.cls-47{fill:#9a8aa0;}.cls-48{fill:#908697;}.cls-49{fill:#4f4652;}.cls-50{clip-path:url(#clip-path);}.cls-51{isolation:isolate;}.cls-52{clip-path:url(#clip-path-2);}.cls-53{fill:#5b505e;}.cls-54{fill:#312b32;}.cls-55{fill:#a69bae;}.cls-56{fill:#5a4f5d;}.cls-57{fill:#342e36;}.cls-58{fill:#4c434f;}.cls-59{fill:#332d35;}.cls-60{fill:#4c434e;}.cls-61{clip-path:url(#clip-path-3);}.cls-62{clip-path:url(#clip-path-4);}.cls-63{fill:#2b2b2b;}.cls-64{fill:#bcabc4;}.cls-65{fill:#2e2930;}.cls-66{fill:#b0eaea;}.cls-67{fill:#625866;}.cls-68{fill:#545454;}.cls-69{fill:#828282;}.cls-70{fill:#dbc961;}.cls-71{fill:#fff;opacity:0.9;}</style><linearGradient id="linear-gradient" x1="118.2" y1="154.48" x2="116.77" y2="170.95" gradientTransform="translate(-3.65 -14.26) rotate(0.22)" gradientUnits="userSpaceOnUse"><stop offset="0" stop-color="#9eefef"/><stop offset="0.03" stop-color="#9deded" stop-opacity="0.93"/><stop offset="0.17" stop-color="#99e4e5" stop-opacity="0.65"/><stop offset="0.31" stop-color="#95ddde" stop-opacity="0.42"/><stop offset="0.43" stop-color="#93d7d9" stop-opacity="0.24"/><stop offset="0.54" stop-color="#91d3d5" stop-opacity="0.11"/><stop offset="0.63" stop-color="#8fd1d3" stop-opacity="0.03"/><stop offset="0.7" stop-color="#8fd0d2" stop-opacity="0"/></linearGradient><linearGradient id="linear-gradient-2" x1="115.61" y1="199.3" x2="114.77" y2="208.98" xlink:href="#linear-gradient"/><linearGradient id="linear-gradient-3" x1="100.81" y1="181.53" x2="99.69" y2="194.51" xlink:href="#linear-gradient"/><linearGradient id="linear-gradient-4" x1="77.02" y1="171.39" x2="76.18" y2="181.07" xlink:href="#linear-gradient"/><linearGradient id="linear-gradient-5" x1="137.69" y1="176.41" x2="136.85" y2="186.09" xlink:href="#linear-gradient"/><linearGradient id="linear-gradient-6" x1="141.18" y1="160.36" x2="140.34" y2="170.04" xlink:href="#linear-gradient"/><linearGradient id="linear-gradient-7" x1="140.36" y1="193.8" x2="139.42" y2="204.6" xlink:href="#linear-gradient"/><linearGradient id="linear-gradient-8" x1="345.78" y1="151.75" x2="344.35" y2="168.23" xlink:href="#linear-gradient"/><linearGradient id="linear-gradient-9" x1="343.19" y1="196.57" x2="342.35" y2="206.25" xlink:href="#linear-gradient"/><linearGradient id="linear-gradient-10" x1="328.39" y1="178.8" x2="327.27" y2="191.78" xlink:href="#linear-gradient"/><linearGradient id="linear-gradient-11" x1="304.6" y1="168.67" x2="303.76" y2="178.34" xlink:href="#linear-gradient"/><linearGradient id="linear-gradient-12" x1="365.27" y1="173.68" x2="364.43" y2="183.36" xlink:href="#linear-gradient"/><linearGradient id="linear-gradient-13" x1="368.76" y1="157.63" x2="367.92" y2="167.31" xlink:href="#linear-gradient"/><linearGradient id="linear-gradient-14" x1="367.94" y1="191.07" x2="367" y2="201.87" xlink:href="#linear-gradient"/><linearGradient id="linear-gradient-15" x1="163.76" y1="224.52" x2="165.77" y2="224.52" gradientUnits="userSpaceOnUse"><stop offset="0.01" stop-color="#d4c0dd"/><stop offset="1" stop-color="#464049"/></linearGradient><linearGradient id="linear-gradient-16" x1="225.45" y1="239.29" x2="227.46" y2="239.29" xlink:href="#linear-gradient-15"/><linearGradient id="linear-gradient-17" x1="255.63" y1="227.26" x2="257.91" y2="227.26" xlink:href="#linear-gradient-15"/><clipPath id="clip-path"><path class="cls-1" d="M218.63,106.09l6.32-3.67a3,3,0,0,1,3,.3l-6.32,3.67A3,3,0,0,0,218.63,106.09Z"/></clipPath><clipPath id="clip-path-2"><path class="cls-1" d="M231,112.78l-6.32,3.67a3,3,0,0,0,1.24-2.73,9.34,9.34,0,0,0-4.24-7.34l6.32-3.67a9.34,9.34,0,0,1,4.24,7.34A3,3,0,0,1,231,112.78Z"/></clipPath><clipPath id="clip-path-3"><path class="cls-1" d="M242.36,104l6.32-3.67a3,3,0,0,1,3,.3l-6.32,3.67A3,3,0,0,0,242.36,104Z"/></clipPath><clipPath id="clip-path-4"><path class="cls-1" d="M254.71,110.65l-6.32,3.67a3,3,0,0,0,1.24-2.73,9.34,9.34,0,0,0-4.24-7.34l6.32-3.67a9.34,9.34,0,0,1,4.24,7.34A3,3,0,0,1,254.71,110.65Z"/></clipPath></defs><title>logos-mega2</title><g id="Layer_16" data-name="Layer 16"><path class="cls-2" d="M125.34,106s13-32.48,32.27-42.89,29.72-3.61,38.22-10.4,27.39-11,33.76-7.43,104,60.63,104,60.63L229.26,166.24Z"/><path class="cls-3" d="M233.55,50.06s-14.88-6.1-19.17-.48l-3.53,0v.53l3.48,0C217.31,55.42,233.55,50.06,233.55,50.06Z"/><rect class="cls-4" x="210.85" y="44.78" width="0.66" height="5.28"/><path class="cls-5" d="M211.18,29.21V47C218.36,44.58,211.18,29.21,211.18,29.21Z"/><path class="cls-6" d="M211.18,47V29.21S203.51,43.37,211.18,47Z"/><path class="cls-3" d="M223.74,56.22s-14.88-6.1-19.17-.48l-3.53,0v.53l3.48,0C207.5,61.59,223.74,56.22,223.74,56.22Z"/><rect class="cls-4" x="201.03" y="50.95" width="0.66" height="5.28"/><path class="cls-5" d="M201.36,35.37V53.17C208.54,50.74,201.36,35.37,201.36,35.37Z"/><path class="cls-6" d="M201.36,53.17V35.37S193.7,49.54,201.36,53.17Z"/><path class="cls-3" d="M160.33,102.35s-14.88-6.1-19.17-.48l-3.53,0v.53l3.48,0C144.09,107.71,160.33,102.35,160.33,102.35Z"/><rect class="cls-4" x="137.62" y="97.07" width="0.66" height="5.28"/><path class="cls-5" d="M138,81.5V99.29C145.13,96.87,138,81.5,138,81.5Z"/><path class="cls-6" d="M138,99.29V81.5S130.29,95.67,138,99.29Z"/><path class="cls-3" d="M175.55,86.44S155.69,78.3,150,85.81l-4.71-.05v.71l4.64.05C153.88,93.6,175.55,86.44,175.55,86.44Z"/><rect class="cls-4" x="145.25" y="79.4" width="0.89" height="7.04"/><path class="cls-5" d="M145.69,58.62V82.36C155.27,79.13,145.69,58.62,145.69,58.62Z"/><path class="cls-6" d="M145.69,82.36V58.62S135.46,77.52,145.69,82.36Z"/><path class="cls-3" d="M184.35,79.85s-19.85-8.14-25.58-.64l-4.71-.05v.71l4.64.05C162.68,87,184.35,79.85,184.35,79.85Z"/><rect class="cls-4" x="154.05" y="72.8" width="0.89" height="7.04"/><path class="cls-5" d="M154.5,52V75.77C164.08,72.54,154.5,52,154.5,52Z"/><path class="cls-6" d="M154.5,75.77V52S144.27,70.93,154.5,75.77Z"/><path class="cls-7" d="M196.19,108c5.28-8.69,10.65-19.81,19.12-21.51s17.52,1.77,32.33-8.37C261.05,69,262.1,65.07,262.18,64.41l-1.62-.94s.27,3.68-14.54,13.81S222.17,84,213.69,85.65s-13.84,12.82-19.12,21.51c-6.2,10.2-34.24,19.22-34.24,19.22l8.64,5,.11,0L162,127.23S190,118.2,196.19,108Z"/><path class="cls-8" d="M200.07,113.51C206.94,103.82,209,97,213.28,93s14.23-3.87,26.4-6.43,26.55-19.83,26.55-19.83l-4-2.36c-.08.65-1.13,4.54-14.54,13.71-14.81,10.14-23.85,6.67-32.33,8.37S201.47,99.32,196.19,108C190,118.2,162,127.23,162,127.23l7.13,4.12C170.73,130.88,192.28,124.51,200.07,113.51Z"/><path class="cls-3" d="M255.53,96.53s-14.88-6.1-19.17-.48l-3.53,0v.53l3.48,0C239.29,101.89,255.53,96.53,255.53,96.53Z"/><rect class="cls-4" x="232.82" y="91.25" width="0.66" height="5.28"/><path class="cls-9" d="M233.16,75.68V93.47C240.34,91,233.16,75.68,233.16,75.68Z"/><path class="cls-10" d="M233.16,93.47V75.68S225.49,89.84,233.16,93.47Z"/><path class="cls-3" d="M237.36,119.63s-14.88-6.1-19.17-.48l-3.53,0v.53l3.48,0C221.11,125,237.36,119.63,237.36,119.63Z"/><rect class="cls-4" x="214.65" y="114.35" width="0.66" height="5.28"/><path class="cls-5" d="M215,98.78v17.79C222.16,114.15,215,98.78,215,98.78Z"/><path class="cls-6" d="M215,116.57V98.78S207.31,112.95,215,116.57Z"/><path class="cls-3" d="M247.39,128.85s-14.88-6.1-19.17-.48l-3.53,0v.53l3.48,0C231.15,134.22,247.39,128.85,247.39,128.85Z"/><rect class="cls-4" x="224.68" y="123.58" width="0.66" height="5.28"/><path class="cls-5" d="M225,108V125.8C232.19,123.38,225,108,225,108Z"/><path class="cls-6" d="M225,125.8V108S217.35,122.17,225,125.8Z"/><path class="cls-3" d="M251.5,105.34s-18.43-7.55-23.74-.59l-4.37,0v.66l4.31,0C231.39,112,251.5,105.34,251.5,105.34Z"/><rect class="cls-4" x="223.38" y="98.8" width="0.82" height="6.54"/><path class="cls-5" d="M223.79,79.52v22C232.68,98.56,223.79,79.52,223.79,79.52Z"/><path class="cls-6" d="M223.79,101.55v-22S214.29,97.06,223.79,101.55Z"/><path class="cls-3" d="M247.64,111.3s-14.88-6.1-19.17-.48l-3.53,0v.53l3.48,0C231.4,116.66,247.64,111.3,247.64,111.3Z"/><rect class="cls-4" x="224.94" y="106.02" width="0.66" height="5.28"/><path class="cls-9" d="M225.27,90.45v17.79C232.45,105.82,225.27,90.45,225.27,90.45Z"/><path class="cls-10" d="M225.27,108.24V90.45S217.6,104.61,225.27,108.24Z"/><path class="cls-3" d="M169.52,96.15s-14.88-6.1-19.17-.48l-3.53,0v.53l3.48,0C153.28,101.51,169.52,96.15,169.52,96.15Z"/><rect class="cls-4" x="146.81" y="90.87" width="0.66" height="5.28"/><path class="cls-9" d="M147.14,75.3V93.09C154.32,90.67,147.14,75.3,147.14,75.3Z"/><path class="cls-10" d="M147.14,93.09V75.3S139.48,89.46,147.14,93.09Z"/><path class="cls-3" d="M186.18,67.85s-14.88-6.1-19.17-.48l-3.53,0v.53l3.48,0C169.94,73.21,186.18,67.85,186.18,67.85Z"/><rect class="cls-4" x="163.48" y="62.57" width="0.66" height="5.28"/><path class="cls-9" d="M163.81,47V64.79C171,62.37,163.81,47,163.81,47Z"/><path class="cls-10" d="M163.81,64.79V47S156.14,61.16,163.81,64.79Z"/><path class="cls-3" d="M171.06,112.76s-14.88-6.1-19.17-.48l-3.53,0v.53l3.48,0C154.81,118.13,171.06,112.76,171.06,112.76Z"/><rect class="cls-4" x="148.35" y="107.48" width="0.66" height="5.28"/><path class="cls-9" d="M148.68,91.91V109.7C155.86,107.28,148.68,91.91,148.68,91.91Z"/><path class="cls-10" d="M148.68,109.7V91.91S141,106.08,148.68,109.7Z"/><path class="cls-3" d="M183.95,101.14s-14.88-6.1-19.17-.48l-3.53,0v.53l3.48,0C167.71,106.5,183.95,101.14,183.95,101.14Z"/><rect class="cls-4" x="161.24" y="95.86" width="0.66" height="5.28"/><path class="cls-5" d="M161.57,80.29V98.08C168.75,95.66,161.57,80.29,161.57,80.29Z"/><path class="cls-6" d="M161.57,98.08V80.29S153.91,94.45,161.57,98.08Z"/><polygon class="cls-11" points="125.55 106.24 125.55 129.98 229.44 190.86 229.25 166.37 125.55 106.24"/><polygon class="cls-12" points="229.26 166.24 333.33 106.11 333.33 130.46 229.45 190.73 229.26 166.24"/><polygon class="cls-3" points="115.25 156.88 11.36 217.25 115.06 277.38 219.04 217.14 115.25 156.88"/><path class="cls-3" d="M238.92,219.1s12.92-32.41,32.19-42.78,29.65-3.6,38.12-10.38,27.32-11,33.68-7.41S446.67,219,446.67,219L342.59,279.16Z"/><polygon class="cls-11" points="11.4 172.6 11.4 196.34 115.29 257.22 115.1 232.73 11.4 172.6"/><polygon class="cls-12" points="115.11 232.71 219.18 172.58 219.18 196.92 115.3 257.2 115.11 232.71"/><polygon class="cls-13" points="115.36 112.21 11.46 172.58 115.17 232.71 219.15 172.47 115.36 112.21"/><path class="cls-14" d="M168,180.55a12.54,12.54,0,0,1-4.67-5.5c-1.09-2.58-5-10.48-4.28-11.47s.3-5.49,1.15-6.24.65,4.19,2.26,8.83,1.5,7.33,3.61,7.83S168,180.55,168,180.55Z"/><path class="cls-14" d="M122.94,126.71c-3.32.45-12.49-3.14-12.2-5.14s.9-.61,4.91-2.6,3.67,5.79,6.29,6.23S122.94,126.71,122.94,126.71Z"/><path class="cls-14" d="M40,179.08c2.06.55-4.06.74-4.06.74a22.43,22.43,0,0,1-8.17-6.42c-3.25-4.33.56-2.39.56-2.39A22.11,22.11,0,0,0,40,179.08Z"/><path class="cls-14" d="M113.3,209.8c-10.64,0-18.85-4.78-22-12.78-2.09-5.38-8.23-7.67-16-10.56-5.63-2.1-12-4.47-18.17-8.55-5.73-3.8-8.15-6.63-8.37-9.76-.26-3.68,2.56-6.18,5.83-9.09a50.39,50.39,0,0,0,7.66-8c9.63-13.15,30.44-17.8,31.32-18l.28-.06h.29c.2,0,20-.63,31.71-1.47,1.46-.1,2.77-.15,4-.15,10.7,0,16.22,3.92,19.06,13.52,2,6.77,14.65,11.18,21.44,13.56l2.34.83c4.56,1.66,9.14,6.17,9.08,11.6,0,3.83-2.3,9.13-12.83,12.69-9,3-16.72,8.27-24.21,13.33-5.92,4-11.51,7.78-17.21,10.09A38.41,38.41,0,0,1,113.3,209.8Z"/><path class="cls-8" d="M94.28,136.13s-20.41,4.43-29.44,16.77-20.55,12.67-5.93,22.37,31,9.42,35.37,20.6S114,209.06,126.4,204s25-17.87,41.6-23.49,10.59-15.81,3.68-18.33-23-7.22-25.73-16.46-7.92-12-19.83-11.11S94.28,136.13,94.28,136.13Z"/><path class="cls-14" d="M65.29,186.69s-3.31,2.2-1.65,4.69,7.17,2.48,7.17,2.48l1.38-4.78-3-3.29A13.59,13.59,0,0,1,66.72,187,3.2,3.2,0,0,1,65.29,186.69Z"/><path class="cls-15" d="M63.59,188.51s.82,2.07,1.82,2.15a10.06,10.06,0,0,0,3.14-.84l1.32,1.26,2.31-2-1.38,4.78a10.54,10.54,0,0,1-6.09-1.46C61.76,190.57,63.59,188.51,63.59,188.51Z"/><path class="cls-14" d="M70.9,193.86s.35,2,1.81,1.69,2.56-2.77,2.56-2.77l-1.91-1.58-2.1.7a6.77,6.77,0,0,1,.07,1.38A1.59,1.59,0,0,1,70.9,193.86Z"/><path class="cls-15" d="M71.39,195s1.11,0,1.34-.4A5,5,0,0,0,73,193l.84-.35-.45-1.46,1.91,1.58a5.25,5.25,0,0,1-1.89,2.49C72,196.25,71.39,195,71.39,195Z"/><path class="cls-16" d="M100.14,146.91s11-4.29,11.34-6.95a2.26,2.26,0,0,0-2.32-2.67s8.66-1.63,15.93,11.71S100.14,146.91,100.14,146.91Z"/><path class="cls-17" d="M103.09,189.14s6.46-2.52,6.66-4.08a1.33,1.33,0,0,0-1.36-1.57s5.09-1,9.36,6.88S103.09,189.14,103.09,189.14Z"/><path class="cls-18" d="M85.59,172.57s8.67-3.38,8.94-5.47a1.78,1.78,0,0,0-1.83-2.1s6.82-1.29,12.55,9.22S85.59,172.57,85.59,172.57Z"/><path class="cls-19" d="M64.6,161.09s6.46-2.52,6.66-4.08a1.33,1.33,0,0,0-1.36-1.57s5.09-1,9.36,6.88S64.6,161.09,64.6,161.09Z"/><path class="cls-20" d="M125.25,166.34s6.46-2.52,6.66-4.08a1.33,1.33,0,0,0-1.36-1.57s5.09-1,9.36,6.88S125.25,166.34,125.25,166.34Z"/><path class="cls-21" d="M128.8,150.3s6.46-2.52,6.66-4.08a1.33,1.33,0,0,0-1.36-1.57s5.09-1,9.36,6.88S128.8,150.3,128.8,150.3Z"/><path class="cls-22" d="M126.91,184.16s7.21-2.81,7.43-4.55a1.48,1.48,0,0,0-1.52-1.75s5.68-1.07,10.44,7.68S126.91,184.16,126.91,184.16Z"/><path class="cls-23" d="M115.13,112.21,11.24,172.58l103.71,60.13,104-60.24ZM144.76,210c-6.11,1.15-28.26,13.75-38.85,13s-17.66-18.33-25.68-18.51-18.77-11.31-25.59-16.9-16.81-6.7-19.48-14.06,5.35-11.26,5.35-11.26,5.75-9.5,13.75-10.79,27.11-16.32,40.86-23,12.1-1.19,25.64,0S151,136.16,153,139.06s16.66,13.43,31.52,20,2.58,24,0,28.51S150.87,208.89,144.76,210Z"/><path class="cls-3" d="M131.25,124.32s-14.86-6.09-19.14-.48l-3.52,0v.53l3.48,0C115,129.68,131.25,124.32,131.25,124.32Z"/><rect class="cls-4" x="108.57" y="119.05" width="0.66" height="5.27"/><path class="cls-9" d="M108.91,103.5v17.77C116.07,118.85,108.91,103.5,108.91,103.5Z"/><path class="cls-10" d="M108.91,121.27V103.5S101.25,117.64,108.91,121.27Z"/><path class="cls-3" d="M132.6,129.25S122,124.92,119,128.91l-2.51,0v.38l2.47,0C121.06,133.06,132.6,129.25,132.6,129.25Z"/><rect class="cls-4" x="116.47" y="125.5" width="0.47" height="3.75"/><path class="cls-9" d="M116.7,114.44v12.64C121.8,125.36,116.7,114.44,116.7,114.44Z"/><path class="cls-10" d="M116.7,127.08V114.44S111.25,124.5,116.7,127.08Z"/><path class="cls-3" d="M104.64,209.82s-14.86-6.09-19.14-.48l-3.52,0v.53l3.48,0C88.42,215.18,104.64,209.82,104.64,209.82Z"/><rect class="cls-4" x="81.96" y="204.55" width="0.66" height="5.27"/><path class="cls-5" d="M82.29,189v17.77C89.46,204.35,82.29,189,82.29,189Z"/><path class="cls-6" d="M82.29,206.77V189S74.63,203.15,82.29,206.77Z"/><path class="cls-3" d="M121.89,216.68s-18.66-7.65-24-.6l-4.42,0v.67l4.36,0C101.52,223.4,121.89,216.68,121.89,216.68Z"/><rect class="cls-4" x="93.42" y="210.06" width="0.83" height="6.62"/><path class="cls-5" d="M93.83,190.53v22.31C102.84,209.81,93.83,190.53,93.83,190.53Z"/><path class="cls-6" d="M93.83,212.84V190.53S84.22,208.29,93.83,212.84Z"/><path class="cls-3" d="M57.37,180.69s-16.12-6.61-20.77-.52l-3.82,0v.58l3.77,0C39.77,186.5,57.37,180.69,57.37,180.69Z"/><rect class="cls-4" x="32.77" y="174.97" width="0.72" height="5.72"/><path class="cls-5" d="M33.13,158.1v19.28C40.9,174.75,33.13,158.1,33.13,158.1Z"/><path class="cls-6" d="M33.13,177.38V158.1S24.82,173.45,33.13,177.38Z"/><polygon class="cls-11" points="238.99 170.73 238.99 194.48 342.88 255.35 342.69 230.86 238.99 170.73"/><polygon class="cls-12" points="342.7 230.85 446.77 170.72 446.77 195.06 342.89 255.34 342.7 230.85"/><polygon class="cls-13" points="342.94 110.34 239.05 170.72 342.76 230.84 446.74 170.6 342.94 110.34"/><path class="cls-14" d="M395.58,178.69a12.54,12.54,0,0,1-4.67-5.5c-1.09-2.58-5-10.48-4.28-11.47s.3-5.49,1.15-6.24.65,4.19,2.26,8.83,1.5,7.33,3.61,7.83S395.58,178.69,395.58,178.69Z"/><path class="cls-14" d="M350.53,124.85c-3.32.45-12.49-3.14-12.2-5.14s.9-.61,4.91-2.6,3.67,5.79,6.29,6.23S350.53,124.85,350.53,124.85Z"/><path class="cls-14" d="M267.61,177.22c2.06.55-4.06.74-4.06.74a22.43,22.43,0,0,1-8.17-6.42c-3.25-4.33.56-2.39.56-2.39A22.11,22.11,0,0,0,267.61,177.22Z"/><path class="cls-14" d="M340.88,207.93c-10.64,0-18.85-4.78-22-12.78-2.09-5.38-8.23-7.67-16-10.56-5.63-2.1-12-4.47-18.17-8.55-5.73-3.8-8.15-6.63-8.37-9.76-.26-3.68,2.56-6.18,5.83-9.09a50.39,50.39,0,0,0,7.66-8c9.63-13.15,30.44-17.8,31.32-18l.28-.06h.29c.2,0,20-.63,31.71-1.47,1.46-.1,2.77-.15,4-.15,10.7,0,16.22,3.92,19.06,13.52,2,6.77,14.65,11.18,21.44,13.56l2.34.83c4.56,1.66,9.14,6.17,9.08,11.6,0,3.83-2.3,9.13-12.83,12.69-9,3-16.72,8.27-24.21,13.33-5.92,4-11.51,7.78-17.21,10.09A38.41,38.41,0,0,1,340.88,207.93Z"/><path class="cls-8" d="M321.87,134.27S301.46,138.7,292.43,151s-20.55,12.67-5.93,22.37,31,9.42,35.37,20.6,19.74,13.19,32.11,8.17,25-17.87,41.6-23.49,10.59-15.81,3.68-18.33-23-7.22-25.73-16.46-7.92-12-19.83-11.11S321.87,134.27,321.87,134.27Z"/><path class="cls-14" d="M292.88,184.82s-3.31,2.2-1.65,4.69,7.17,2.48,7.17,2.48l1.38-4.78-3-3.29a13.59,13.59,0,0,1-2.48,1.24A3.2,3.2,0,0,1,292.88,184.82Z"/><path class="cls-15" d="M291.18,186.64s.82,2.07,1.82,2.15a10.06,10.06,0,0,0,3.14-.84l1.32,1.26,2.31-2L298.39,192a10.54,10.54,0,0,1-6.09-1.46C289.35,188.71,291.18,186.64,291.18,186.64Z"/><path class="cls-14" d="M298.49,192s.35,2,1.81,1.69,2.56-2.77,2.56-2.77L301,189.33l-2.1.7a6.77,6.77,0,0,1,.07,1.38A1.59,1.59,0,0,1,298.49,192Z"/><path class="cls-15" d="M299,193.14s1.11,0,1.34-.4a5,5,0,0,0,.24-1.6l.84-.35-.45-1.46,1.91,1.58A5.25,5.25,0,0,1,301,193.4C299.56,194.38,299,193.14,299,193.14Z"/><path class="cls-24" d="M327.73,145s11-4.29,11.34-6.95a2.26,2.26,0,0,0-2.32-2.67s8.66-1.63,15.93,11.71S327.73,145,327.73,145Z"/><path class="cls-25" d="M330.67,187.28s6.46-2.52,6.66-4.08a1.33,1.33,0,0,0-1.36-1.57s5.09-1,9.36,6.88S330.67,187.28,330.67,187.28Z"/><path class="cls-26" d="M313.18,170.7s8.67-3.38,8.94-5.47a1.78,1.78,0,0,0-1.83-2.1s6.82-1.29,12.55,9.22S313.18,170.7,313.18,170.7Z"/><path class="cls-27" d="M292.19,159.23s6.46-2.52,6.66-4.08a1.33,1.33,0,0,0-1.36-1.57s5.09-1,9.36,6.88S292.19,159.23,292.19,159.23Z"/><path class="cls-28" d="M352.84,164.47s6.46-2.52,6.66-4.08a1.33,1.33,0,0,0-1.36-1.57s5.09-1,9.36,6.88S352.84,164.47,352.84,164.47Z"/><path class="cls-29" d="M356.39,148.44s6.46-2.52,6.66-4.08a1.33,1.33,0,0,0-1.36-1.57s5.09-1,9.36,6.88S356.39,148.44,356.39,148.44Z"/><path class="cls-30" d="M354.5,182.3s7.21-2.81,7.43-4.55a1.48,1.48,0,0,0-1.52-1.75s5.68-1.07,10.44,7.68S354.5,182.3,354.5,182.3Z"/><path class="cls-23" d="M342.71,110.34,238.83,170.71l103.71,60.13,104-60.24Zm29.63,97.83c-6.11,1.15-28.26,13.75-38.85,13s-17.66-18.33-25.68-18.51-18.77-11.31-25.59-16.9-16.81-6.7-19.48-14.06,5.35-11.26,5.35-11.26,5.75-9.5,13.75-10.79,27.11-16.32,40.86-23,12.1-1.19,25.64,0,30.28,7.61,32.2,10.51,16.66,13.43,31.52,20,2.58,24,0,28.51S378.46,207,372.35,208.17Z"/><path class="cls-3" d="M358.84,122.46S344,116.36,339.69,122l-3.52,0v.53l3.48,0C342.62,127.81,358.84,122.46,358.84,122.46Z"/><rect class="cls-4" x="336.16" y="117.18" width="0.66" height="5.27"/><path class="cls-9" d="M336.49,101.63V119.4C343.66,117,336.49,101.63,336.49,101.63Z"/><path class="cls-10" d="M336.49,119.4V101.63S328.84,115.78,336.49,119.4Z"/><path class="cls-3" d="M360.18,127.38s-10.57-4.33-13.62-.34l-2.51,0v.38l2.47,0C348.65,131.2,360.18,127.38,360.18,127.38Z"/><rect class="cls-4" x="344.05" y="123.63" width="0.47" height="3.75"/><path class="cls-9" d="M344.29,112.57v12.64C349.39,123.49,344.29,112.57,344.29,112.57Z"/><path class="cls-10" d="M344.29,125.21V112.57S338.84,122.64,344.29,125.21Z"/><path class="cls-3" d="M332.22,208s-14.86-6.09-19.14-.48l-3.52,0V208l3.48,0C316,213.32,332.22,208,332.22,208Z"/><rect class="cls-4" x="309.55" y="202.69" width="0.66" height="5.27"/><path class="cls-5" d="M309.88,187.14V204.9C317,202.49,309.88,187.14,309.88,187.14Z"/><path class="cls-6" d="M309.88,204.9V187.14S302.22,201.28,309.88,204.9Z"/><path class="cls-3" d="M349.48,214.81s-18.66-7.65-24-.6l-4.42,0v.67l4.36,0C329.11,221.54,349.48,214.81,349.48,214.81Z"/><rect class="cls-4" x="321.01" y="208.19" width="0.83" height="6.62"/><path class="cls-5" d="M321.42,188.67V211C330.42,207.94,321.42,188.67,321.42,188.67Z"/><path class="cls-6" d="M321.42,211V188.67S311.81,206.43,321.42,211Z"/><path class="cls-3" d="M285,178.82s-16.12-6.61-20.77-.52l-3.82,0v.58l3.77,0C267.36,184.64,285,178.82,285,178.82Z"/><rect class="cls-4" x="260.36" y="173.11" width="0.72" height="5.72"/><path class="cls-5" d="M260.72,156.24v19.28C268.49,172.89,260.72,156.24,260.72,156.24Z"/><path class="cls-6" d="M260.72,175.51V156.24S252.41,171.58,260.72,175.51Z"/><polygon class="cls-3" points="228.28 223.13 124.39 283.5 228.1 343.63 332.08 283.39 228.28 223.13"/><path class="cls-31" d="M154,139.51c0,2-.64,4.16-3.87,2.76s-3.81-7.09-7.51-7.35-6.47-3.35-4.76-4.42,10.47,3,11.08,4.45S154,139.51,154,139.51Z"/><path class="cls-31" d="M189.89,174.38a12.54,12.54,0,0,1-4.67-5.5c-1.09-2.58-5-10.48-4.28-11.47s.3-5.49,1.15-6.24.65,4.19,2.26,8.83,1.5,7.33,3.61,7.83S189.89,174.38,189.89,174.38Z"/><path class="cls-31" d="M192.46,161.08c1.36-.31,2.39.21,3.86,1.59s7,5.4,7.58,6.1c1.82,2.25.06,4-.28,4.71s-1.67-2.59-4.1-5.19-3-3.52-4.7-4.12C193.34,163.63,191.11,161.38,192.46,161.08Z"/><polygon class="cls-32" points="123.7 237.21 123.7 260.95 227.59 321.82 227.4 297.33 123.7 237.21"/><polygon class="cls-33" points="227.41 297.32 331.48 237.19 331.48 261.53 227.6 321.81 227.41 297.32"/><path class="cls-3" d="M308.91,139.12s-22.38-9.18-28.84-.72l-5.31-.06v.8l5.24.06C284.48,147.19,308.91,139.12,308.91,139.12Z"/><rect class="cls-4" x="274.75" y="131.18" width="1" height="7.94"/><path class="cls-3" d="M270.38,167.84s-14.84-6.09-19.13-.48l-3.52,0v.53l3.47,0C254.18,173.19,270.38,167.84,270.38,167.84Z"/><rect class="cls-4" x="247.73" y="162.58" width="0.66" height="5.27"/><path class="cls-5" d="M248.06,147v17.75C255.22,162.38,248.06,147,248.06,147Z"/><path class="cls-6" d="M248.06,164.79V147S240.41,161.17,248.06,164.79Z"/><path class="cls-5" d="M258.07,156.25V174C265.23,171.58,258.07,156.25,258.07,156.25Z"/><path class="cls-6" d="M258.07,174V156.25S250.42,170.38,258.07,174Z"/><path class="cls-3" d="M284.5,153.59s-18.39-7.54-23.69-.59l-4.36,0v.66l4.3,0C264.43,160.22,284.5,153.59,284.5,153.59Z"/><rect class="cls-4" x="256.44" y="147.07" width="0.82" height="6.52"/><path class="cls-5" d="M256.85,127.83v22C265.72,146.82,256.85,127.83,256.85,127.83Z"/><path class="cls-6" d="M256.85,149.81v-22S247.37,145.33,256.85,149.81Z"/><path class="cls-3" d="M280.64,159.53s-14.84-6.09-19.13-.48L258,159v.53l3.47,0C264.44,164.88,280.64,159.53,280.64,159.53Z"/><rect class="cls-4" x="257.99" y="154.26" width="0.66" height="5.27"/><path class="cls-9" d="M258.32,138.73v17.75C265.48,154.06,258.32,138.73,258.32,138.73Z"/><path class="cls-10" d="M258.32,156.48V138.73S250.67,152.86,258.32,156.48Z"/><rect class="cls-4" x="272.16" y="155" width="1" height="7.94"/><path class="cls-5" d="M272.66,131.57v26.76C283.45,154.7,272.66,131.57,272.66,131.57Z"/><path class="cls-6" d="M272.66,158.34V131.57S261.12,152.88,272.66,158.34Z"/><polygon class="cls-32" points="123.44 237.14 227.57 297.52 331.39 237.26 227.41 176.89 123.44 237.14"/><line class="cls-34" x1="136.18" y1="236.69" x2="182.19" y2="263.5"/><line class="cls-34" x1="140.59" y1="233.94" x2="186.61" y2="260.75"/><line class="cls-34" x1="145.11" y1="231.27" x2="191.12" y2="258.08"/><line class="cls-34" x1="149.75" y1="228.73" x2="195.77" y2="255.54"/><line class="cls-34" x1="154.06" y1="225.85" x2="200.08" y2="252.67"/><line class="cls-34" x1="158.71" y1="223.31" x2="204.72" y2="250.13"/><line class="cls-34" x1="163.35" y1="220.44" x2="209.36" y2="247.26"/><line class="cls-34" x1="168.66" y1="217.57" x2="214.67" y2="244.38"/><line class="cls-34" x1="173.97" y1="214.69" x2="219.98" y2="241.51"/><line class="cls-34" x1="178.95" y1="211.82" x2="224.96" y2="238.64"/><line class="cls-34" x1="233.05" y1="237" x2="279.07" y2="263.81"/><line class="cls-34" x1="237.47" y1="234.24" x2="283.48" y2="261.06"/><line class="cls-34" x1="241.99" y1="231.58" x2="288" y2="258.39"/><line class="cls-34" x1="246.63" y1="229.04" x2="292.64" y2="255.85"/><line class="cls-34" x1="250.94" y1="226.16" x2="296.95" y2="252.98"/><line class="cls-34" x1="255.58" y1="223.62" x2="301.6" y2="250.44"/><line class="cls-34" x1="260.23" y1="220.75" x2="306.24" y2="247.57"/><line class="cls-34" x1="265.54" y1="217.88" x2="311.55" y2="244.69"/><line class="cls-34" x1="270.85" y1="215" x2="316.86" y2="241.82"/><line class="cls-34" x1="275.82" y1="212.13" x2="321.84" y2="238.95"/><line class="cls-34" x1="272.8" y1="208.64" x2="226.79" y2="235.46"/><line class="cls-34" x1="268.38" y1="205.89" x2="222.37" y2="232.71"/><line class="cls-34" x1="263.87" y1="203.22" x2="217.85" y2="230.04"/><line class="cls-34" x1="259.22" y1="200.68" x2="213.21" y2="227.5"/><line class="cls-34" x1="254.91" y1="197.81" x2="208.9" y2="224.63"/><line class="cls-34" x1="250.27" y1="195.27" x2="204.26" y2="222.09"/><line class="cls-34" x1="245.63" y1="192.4" x2="199.61" y2="219.21"/><line class="cls-34" x1="240.32" y1="189.52" x2="194.3" y2="216.34"/><line class="cls-34" x1="235.01" y1="186.65" x2="188.99" y2="213.47"/><line class="cls-34" x1="230.03" y1="183.78" x2="184.02" y2="210.59"/><line class="cls-34" x1="272.13" y1="265.38" x2="226.12" y2="292.19"/><line class="cls-34" x1="267.72" y1="262.63" x2="221.7" y2="289.44"/><line class="cls-34" x1="263.2" y1="259.96" x2="217.19" y2="286.78"/><line class="cls-34" x1="258.56" y1="257.42" x2="212.54" y2="284.23"/><line class="cls-34" x1="254.25" y1="254.54" x2="208.23" y2="281.36"/><line class="cls-34" x1="249.6" y1="252" x2="203.59" y2="278.82"/><line class="cls-34" x1="244.96" y1="249.13" x2="198.95" y2="275.95"/><line class="cls-34" x1="239.65" y1="246.26" x2="193.64" y2="273.07"/><line class="cls-34" x1="234.34" y1="243.38" x2="188.33" y2="270.2"/><line class="cls-34" x1="229.36" y1="240.51" x2="183.35" y2="267.33"/><path class="cls-35" d="M164.24,211.66a21,21,0,0,1-1.84-2.92,32.2,32.2,0,0,1-1.39-3,26.59,26.59,0,0,1-1-3.07c-.14-.52-.26-1-.35-1.56,0-.26-.09-.53-.12-.79a7.8,7.8,0,0,1-.06-.8h0q.29.35.54.72c.17.24.33.48.48.73.31.49.58,1,.85,1.47a28.22,28.22,0,0,1,1.36,3,30,30,0,0,1,1,3.07,16.67,16.67,0,0,1,.57,3.15Z"/><path class="cls-36" d="M159.45,199.5q.29.35.54.72c.17.24.33.48.48.73.31.49.58,1,.85,1.47a28.22,28.22,0,0,1,1.36,3,30,30,0,0,1,1,3.07,16.67,16.67,0,0,1,.57,3.15h0"/><path class="cls-35" d="M155.75,221.18l0,0q.16-.36.35-.69c.12-.22.25-.43.39-.64.27-.42.55-.82.85-1.21a22.39,22.39,0,0,1,1.93-2.19,25.3,25.3,0,0,1,2.17-2,15.31,15.31,0,0,1,2.48-1.64"/><path class="cls-36" d="M163.89,212.83l0,0a15.56,15.56,0,0,1-1.6,2.52,25.42,25.42,0,0,1-1.91,2.21,22.3,22.3,0,0,1-2.15,2c-.38.3-.78.6-1.19.87l-.63.4q-.32.19-.67.36"/><path class="cls-35" d="M165.22,210.53c-1.07,0-3.42,1.26-3.54,2.64s3.19.82,3.54.69,1.44-.82,1.3-1.85S166.29,210.53,165.22,210.53Z"/><rect class="cls-37" x="163.76" y="213.01" width="2.02" height="23.01"/><path class="cls-36" d="M161.7,213.44s4.15-.14,4.33-2.72c0,0,1.35,1.89-.47,3S161.47,213.76,161.7,213.44Z"/><path class="cls-36" d="M177.74,214.49v0q-.41.06-.81.09l-.81,0c-.54,0-1.08,0-1.63,0a30.76,30.76,0,0,1-3.25-.34c-1.08-.17-2.17-.38-3.26-.65a22.86,22.86,0,0,1-3.26-1.05v0"/><path class="cls-35" d="M164.72,212.55a19.62,19.62,0,0,1,3.25-.08c1.08.05,2.17.16,3.25.31a32,32,0,0,1,3.26.63c.54.14,1.09.29,1.63.46l.81.28q.41.15.81.33"/><path class="cls-3" d="M188.61,244.4a6.79,6.79,0,0,0,.37-.57c.11-.19.21-.38.31-.57.19-.38.36-.76.51-1.15a15.55,15.55,0,0,0,.69-2.29,16,16,0,0,0,.35-2.29c0-.35,0-.69,0-1h.47a2.6,2.6,0,0,0,1.41-.34h0a.73.73,0,0,0,.21-.57,1.54,1.54,0,0,0-.26-.73c.84-.08,1.67-.2,2.49-.33,1.14-.2,2.26-.44,3.38-.71s2.22-.59,3.31-1c.54-.19,1.09-.38,1.62-.6l.8-.34q.4-.18.79-.38h0v0l-.88,0-.87.08c-.58.07-1.15.15-1.72.25-1.14.2-2.26.45-3.37.73s-2.22.61-3.31,1c-.83.29-1.65.59-2.45.94a3.59,3.59,0,0,0-2.43-1.45,1.16,1.16,0,0,0-.29,0h0c-.08,0-.19,0-.3.13a.76.76,0,0,0-.21.21c-.21-.18-.41-.37-.63-.55a24,24,0,0,0-2.15-1.53,24.65,24.65,0,0,0-2.41-1.36c-.43-.21-.87-.41-1.33-.6l-.71-.27-.75-.24,0,0a5.17,5.17,0,0,0,.39.47c.14.15.29.3.44.45.3.29.62.57,1,.84a21.47,21.47,0,0,0,2.17,1.51c.77.47,1.58.93,2.44,1.34.45.21.91.42,1.38.62a2,2,0,0,0,0,.4H164.9V236h24.77a1.93,1.93,0,0,0,.45.3c-.21.42-.39.84-.56,1.25a17.85,17.85,0,0,0-.72,2.29,14.21,14.21,0,0,0-.38,2.29,10.48,10.48,0,0,0,0,1.15c0,.19,0,.38,0,.57a4.26,4.26,0,0,0,.1.57Z"/><path class="cls-35" d="M225.93,226.44a21,21,0,0,1-1.84-2.92,32.2,32.2,0,0,1-1.39-3,26.59,26.59,0,0,1-1-3.07c-.14-.52-.26-1-.35-1.56,0-.26-.09-.53-.12-.79a7.8,7.8,0,0,1-.06-.8h0q.29.35.54.72c.17.24.33.48.48.73.31.49.58,1,.85,1.47a28.22,28.22,0,0,1,1.36,3,30,30,0,0,1,1,3.07,16.67,16.67,0,0,1,.57,3.15Z"/><path class="cls-36" d="M221.14,214.28q.29.35.54.72c.17.24.33.48.48.73.31.49.58,1,.85,1.47a28.22,28.22,0,0,1,1.36,3,30,30,0,0,1,1,3.07,16.67,16.67,0,0,1,.57,3.15h0"/><path class="cls-35" d="M217.44,236l0,0q.16-.36.35-.69c.12-.22.25-.43.39-.64.27-.42.55-.82.85-1.21a22.39,22.39,0,0,1,1.93-2.19,25.3,25.3,0,0,1,2.17-2,15.31,15.31,0,0,1,2.48-1.64"/><path class="cls-36" d="M225.57,227.61l0,0a15.56,15.56,0,0,1-1.6,2.52,25.42,25.42,0,0,1-1.91,2.21,22.3,22.3,0,0,1-2.15,2c-.38.3-.78.6-1.19.87l-.63.4q-.32.19-.67.36"/><path class="cls-35" d="M226.91,225.31c-1.07,0-3.42,1.26-3.54,2.64s3.19.82,3.54.69,1.44-.82,1.3-1.85S228,225.31,226.91,225.31Z"/><rect class="cls-38" x="225.45" y="227.79" width="2.02" height="23.01"/><path class="cls-36" d="M223.39,228.21s4.15-.14,4.33-2.72c0,0,1.35,1.89-.47,3S223.16,228.54,223.39,228.21Z"/><path class="cls-36" d="M239.43,229.26v0q-.41.06-.81.09l-.81,0c-.54,0-1.08,0-1.63,0a30.76,30.76,0,0,1-3.25-.34c-1.08-.17-2.17-.38-3.26-.65a22.86,22.86,0,0,1-3.26-1.05v0"/><path class="cls-35" d="M226.41,227.32a19.62,19.62,0,0,1,3.25-.08c1.08.05,2.17.16,3.25.31a32,32,0,0,1,3.26.63c.54.14,1.09.29,1.63.46l.81.28q.41.15.81.33"/><path class="cls-3" d="M250.29,259.18a6.79,6.79,0,0,0,.37-.57c.11-.19.21-.38.31-.57.19-.38.36-.76.51-1.15a15.55,15.55,0,0,0,.69-2.29,16,16,0,0,0,.35-2.29c0-.35,0-.69,0-1H253a2.6,2.6,0,0,0,1.41-.34h0a.73.73,0,0,0,.21-.57,1.54,1.54,0,0,0-.26-.73c.84-.08,1.67-.2,2.49-.33,1.14-.2,2.26-.44,3.38-.71s2.22-.59,3.31-1c.54-.19,1.09-.38,1.62-.6l.8-.34q.4-.18.79-.38h0v0l-.88,0-.87.08c-.58.07-1.15.15-1.72.25-1.14.2-2.26.45-3.37.73s-2.22.61-3.31,1c-.83.29-1.65.59-2.45.94a3.59,3.59,0,0,0-2.43-1.45,1.16,1.16,0,0,0-.29,0h0c-.08,0-.19,0-.3.13a.76.76,0,0,0-.21.21c-.21-.18-.41-.37-.63-.55a24,24,0,0,0-2.15-1.53,24.65,24.65,0,0,0-2.41-1.36c-.43-.21-.87-.41-1.33-.6l-.71-.27-.75-.24,0,0a5.17,5.17,0,0,0,.39.47c.14.15.29.3.44.45.3.29.62.57,1,.84a21.47,21.47,0,0,0,2.17,1.51c.77.47,1.58.93,2.44,1.34.45.21.91.42,1.38.62a2,2,0,0,0,0,.4H226.58v1.42h24.77a1.93,1.93,0,0,0,.45.3c-.21.42-.39.84-.56,1.25a17.85,17.85,0,0,0-.72,2.29,14.21,14.21,0,0,0-.38,2.29,10.48,10.48,0,0,0,0,1.15c0,.19,0,.38,0,.57a4.26,4.26,0,0,0,.1.57Z"/><path class="cls-35" d="M256.18,212.71a23.72,23.72,0,0,1-2.08-3.31,36.44,36.44,0,0,1-1.58-3.4,30.09,30.09,0,0,1-1.18-3.47c-.15-.59-.29-1.17-.4-1.77-.05-.3-.1-.6-.14-.9a8.83,8.83,0,0,1-.07-.91h0q.33.4.61.81c.19.27.37.55.54.82.35.55.66,1.11,1,1.67a32,32,0,0,1,1.54,3.41,34,34,0,0,1,1.15,3.48,18.87,18.87,0,0,1,.64,3.57Z"/><path class="cls-36" d="M250.76,198.94q.33.4.61.81c.19.27.37.55.54.82.35.55.66,1.11,1,1.67a32,32,0,0,1,1.54,3.41,34,34,0,0,1,1.15,3.48,18.87,18.87,0,0,1,.64,3.57h0"/><path class="cls-35" d="M246.57,223.48l0,0q.18-.4.39-.78c.14-.25.29-.49.44-.73.3-.48.63-.93,1-1.37a25.34,25.34,0,0,1,2.18-2.48,28.63,28.63,0,0,1,2.46-2.21,17.33,17.33,0,0,1,2.8-1.86"/><path class="cls-36" d="M255.78,214l0,0a17.61,17.61,0,0,1-1.81,2.85,28.77,28.77,0,0,1-2.16,2.5,25.24,25.24,0,0,1-2.43,2.23c-.43.34-.88.68-1.35,1-.23.15-.47.31-.72.45s-.5.28-.76.4"/><path class="cls-35" d="M257.28,211.43c-1.22,0-3.87,1.43-4,3s3.61.93,4,.78,1.62-.93,1.47-2.09S258.5,211.43,257.28,211.43Z"/><rect class="cls-39" x="255.63" y="214.24" width="2.28" height="26.05"/><path class="cls-36" d="M253.3,214.72s4.7-.16,4.91-3.08c0,0,1.53,2.14-.54,3.34S253,215.08,253.3,214.72Z"/><path class="cls-36" d="M271.45,215.9v0q-.46.07-.92.1l-.92,0c-.61,0-1.23,0-1.84,0a34.82,34.82,0,0,1-3.68-.39c-1.23-.19-2.46-.43-3.68-.74a25.87,25.87,0,0,1-3.69-1.19v0"/><path class="cls-35" d="M256.72,213.71a22.21,22.21,0,0,1,3.68-.09c1.23.06,2.45.18,3.68.36a36.22,36.22,0,0,1,3.68.71c.61.16,1.23.32,1.84.52l.92.32q.46.17.92.38"/><path class="cls-3" d="M219.07,210.24s8.08.37,10.75,0c.93-.13,4.68-1.32,3-2.85s-10.48-.94-10.48-.94Z"/><path class="cls-40" d="M220.14,202.56c1.53-.68,2.77.45,2.77,2.51s-1.22,4.29-2.75,5-2.77-.44-2.77-2.51S218.62,203.24,220.14,202.56Z"/><path class="cls-41" d="M220.95,202.37h0a1.66,1.66,0,0,1,.35,0h0a1.56,1.56,0,0,1,.33.11h0l-3.76-1.68h0l-.14-.05-.14,0H217l-.17,0h-.1l-.13,0-.25.1a3.17,3.17,0,0,0-.59.35l0,0-.23.19-.18.17,0,0,0,0-.11.11L215,202l-.15.19,0,.06,0,0-.08.11-.14.22-.15.25,0,0,0,0-.12.22-.15.32,0,.1,0,.1-.07.19q-.08.23-.15.47v0l0,.12c0,.17-.08.33-.11.5s0,0,0,.07a5.59,5.59,0,0,0-.07.88,2.65,2.65,0,0,0,1.25,2.57l3.76,1.68a2.65,2.65,0,0,1-1.25-2.57,5.59,5.59,0,0,1,.07-.88c0-.19.07-.38.12-.57l0-.12a6.63,6.63,0,0,1,.23-.68l0-.1a6.43,6.43,0,0,1,.3-.64l0,0a6,6,0,0,1,.39-.61l0,0a5.08,5.08,0,0,1,.45-.53l0,0a4,4,0,0,1,.47-.41,3.17,3.17,0,0,1,.59-.35,2.4,2.4,0,0,1,.38-.13h.05A1.94,1.94,0,0,1,220.95,202.37Z"/><path class="cls-41" d="M233.7,259.45h0a1.66,1.66,0,0,1,.35,0h0a1.56,1.56,0,0,1,.33.11h0l-3.76-1.68h0l-.14-.05-.14,0h-.57l-.17,0h-.1l-.13,0-.25.1a3.17,3.17,0,0,0-.59.35l0,0-.23.19-.18.17,0,0,0,0-.11.11-.15.18-.15.19,0,.06,0,0-.08.11-.14.22-.15.25,0,0,0,0-.12.22-.15.32,0,.1,0,.1-.07.19q-.08.23-.15.47v0l0,.12c0,.17-.08.33-.11.5s0,0,0,.07a5.59,5.59,0,0,0-.07.88,2.65,2.65,0,0,0,1.25,2.57l3.76,1.68a2.65,2.65,0,0,1-1.25-2.57,5.59,5.59,0,0,1,.07-.88c0-.19.07-.38.12-.57l0-.12a6.63,6.63,0,0,1,.23-.68l0-.1a6.43,6.43,0,0,1,.3-.64l0,0a6,6,0,0,1,.39-.61l0,0a5.08,5.08,0,0,1,.45-.53l0,0a4,4,0,0,1,.47-.41,3.17,3.17,0,0,1,.59-.35,2.4,2.4,0,0,1,.38-.13h.05A1.94,1.94,0,0,1,233.7,259.45Z"/><path class="cls-3" d="M202.67,270.15s8.08.37,10.75,0c.93-.13,4.68-1.32,3-2.85s-10.48-.94-10.48-.94Z"/><path class="cls-40" d="M203.73,262.47c1.53-.68,2.77.45,2.77,2.51s-1.22,4.29-2.75,5-2.77-.44-2.77-2.51S202.21,263.15,203.73,262.47Z"/><path class="cls-41" d="M204.54,262.27h0a1.66,1.66,0,0,1,.35,0h0a1.56,1.56,0,0,1,.33.11h0l-3.76-1.68h0l-.14-.05-.14,0h-.57l-.17,0h-.1l-.13,0-.25.1a3.17,3.17,0,0,0-.59.35l0,0-.23.19-.18.17,0,0,0,0-.11.11-.15.18-.15.19,0,.06,0,0-.08.11-.14.22-.15.25,0,0,0,0-.12.22-.15.32,0,.1,0,.1-.07.19q-.08.23-.15.47v0l0,.12c0,.17-.08.33-.11.5s0,0,0,.07a5.59,5.59,0,0,0-.07.88,2.65,2.65,0,0,0,1.25,2.57l3.76,1.68a2.65,2.65,0,0,1-1.25-2.57,5.59,5.59,0,0,1,.07-.88c0-.19.07-.38.12-.57l0-.12a6.63,6.63,0,0,1,.23-.68l0-.1a6.43,6.43,0,0,1,.3-.64l0,0a6,6,0,0,1,.39-.61l0,0a5.08,5.08,0,0,1,.45-.53l0,0a4,4,0,0,1,.47-.41,3.17,3.17,0,0,1,.59-.35,2.4,2.4,0,0,1,.38-.13h.05A1.94,1.94,0,0,1,204.54,262.27Z"/><path class="cls-8" d="M136.25,136.25,149,131.88l9,5.1s-9.67,1.3-11.34,10.62S136.25,136.25,136.25,136.25Z"/><polygon class="cls-7" points="136.74 135.32 147.65 130.95 149.01 131.88 137.88 135.7 136.74 135.32"/><polygon class="cls-3" points="226.57 143.4 297.07 184.36 226.7 225.16 156.15 184.28 226.57 143.4"/><polygon class="cls-42" points="155.75 157.04 226.21 197.89 296.46 157.12 226.11 116.28 155.75 157.04"/><polygon class="cls-43" points="155.88 157.12 155.88 173.18 226.17 214.37 226.04 197.8 155.88 157.12"/><polygon class="cls-44" points="226.04 197.8 296.46 157.12 296.46 173.59 226.17 214.37 226.04 197.8"/><polygon class="cls-3" points="233.07 180.99 255.32 180.99 296.46 157.12 251.47 131 216.97 132.96 233.07 180.99"/><polygon class="cls-45" points="216.97 132.96 263.83 160.36 233.07 177.1 186.7 150.27 216.97 132.96"/><polygon class="cls-46" points="263.83 160.36 263.83 164.25 233.07 180.99 233.07 177.1 263.83 160.36"/><polygon class="cls-47" points="233.07 177.1 233.07 180.99 186.7 154.16 186.7 150.27 233.07 177.1"/><polygon class="cls-48" points="220.86 139.12 249.27 155.73 230.63 165.88 202.51 149.61 220.86 139.12"/><polygon class="cls-46" points="249.27 155.73 249.27 158.09 230.63 168.24 230.63 165.88 249.27 155.73"/><polygon class="cls-47" points="230.63 165.88 230.63 168.24 202.51 151.97 202.51 149.61 230.63 165.88"/><polygon class="cls-47" points="224.55 116.42 224.43 156.8 218.73 153.51 218.85 113.12 224.55 116.42"/><polygon class="cls-46" points="224.55 116.42 230.87 112.74 230.75 153.13 224.43 156.8 224.55 116.42"/><polygon class="cls-49" points="218.85 113.12 225.17 109.45 230.87 112.74 224.55 116.42 218.85 113.12"/><path class="cls-1" d="M218.63,106.09l6.32-3.67a3,3,0,0,1,3,.3l-6.32,3.67A3,3,0,0,0,218.63,106.09Z"/><g class="cls-50"><g class="cls-51"><path class="cls-1" d="M218.63,106.09l6.32-3.67a2,2,0,0,1,.34-.16L219,105.93a2,2,0,0,0-.34.16"/><path class="cls-1" d="M219,105.93l6.32-3.67.3-.08-6.32,3.67-.3.08"/><path class="cls-1" d="M219.27,105.85l6.32-3.67.25,0-6.32,3.67-.25,0"/><path class="cls-1" d="M219.51,105.81l6.32-3.67h.22l-6.32,3.67h-.22"/><path class="cls-1" d="M219.73,105.8l6.32-3.67h.2l-6.32,3.67h-.2"/><path class="cls-1" d="M219.93,105.81l6.32-3.67.19,0-6.32,3.67-.19,0"/><path class="cls-1" d="M220.12,105.83l6.32-3.67.19,0-6.32,3.67-.19,0"/><path class="cls-1" d="M220.31,105.86l6.32-3.67.17,0-6.32,3.67-.17,0"/><path class="cls-1" d="M220.48,105.9l6.32-3.67.18,0-6.32,3.67-.18,0"/><path class="cls-1" d="M220.66,105.95l6.32-3.67.17.06L220.83,106l-.17-.06"/><path class="cls-1" d="M220.83,106l6.32-3.67.17.06L221,106.07l-.17-.06"/><path class="cls-1" d="M221,106.07l6.32-3.67.17.07-6.32,3.67-.17-.07"/><path class="cls-1" d="M221.17,106.14l6.32-3.67.17.08-6.32,3.67-.17-.08"/><path class="cls-1" d="M221.34,106.22l6.32-3.67.17.09-6.32,3.67-.17-.09"/><path class="cls-1" d="M221.52,106.31l6.32-3.67.14.08-6.32,3.67-.14-.08"/></g></g><path class="cls-1" d="M231,112.78l-6.32,3.67a3,3,0,0,0,1.24-2.73,9.34,9.34,0,0,0-4.24-7.34l6.32-3.67a9.34,9.34,0,0,1,4.24,7.34A3,3,0,0,1,231,112.78Z"/><g class="cls-52"><g class="cls-51"><path class="cls-1" d="M221.65,106.39l6.32-3.67,0,0-6.32,3.67,0,0"/><path class="cls-1" d="M221.7,106.41l6.32-3.67.18.11-6.32,3.67-.18-.11"/><path class="cls-1" d="M221.88,106.52l6.32-3.67.18.12-6.32,3.67-.18-.12"/><path class="cls-1" d="M222.06,106.64l6.32-3.67.18.13-6.32,3.67-.18-.13"/><path class="cls-1" d="M222.24,106.77l6.32-3.67.19.14-6.32,3.67-.19-.14"/><path class="cls-1" d="M222.43,106.91l6.32-3.67.19.15-6.32,3.67-.19-.15"/><path class="cls-1" d="M222.62,107.07l6.32-3.67.19.16-6.32,3.67-.19-.16"/><path class="cls-1" d="M222.81,107.23l6.32-3.67.19.17L223,107.41l-.19-.17"/><path class="cls-1" d="M223,107.41l6.32-3.67.18.18-6.32,3.67-.18-.18"/><path class="cls-1" d="M223.17,107.58l6.32-3.67.17.18-6.32,3.67-.17-.18"/><path class="cls-1" d="M223.35,107.77l6.32-3.67.17.18-6.32,3.67-.17-.18"/><path class="cls-1" d="M223.51,107.95l6.32-3.67.16.19-6.32,3.67-.16-.19"/><path class="cls-1" d="M223.68,108.14l6.32-3.67.16.2-6.32,3.67-.16-.2"/><path class="cls-1" d="M223.84,108.35l6.32-3.67.19.25L224,108.59l-.19-.25"/><path class="cls-1" d="M224,108.59l6.32-3.67.27.38L224.3,109l-.27-.38"/><path class="cls-1" d="M224.3,109l6.32-3.67q.16.25.32.5l-6.32,3.67q-.15-.26-.32-.5"/><path class="cls-1" d="M224.61,109.48l6.32-3.67.21.37-6.32,3.67-.21-.37"/><path class="cls-1" d="M224.82,109.85l6.32-3.67.13.26L225,110.11l-.13-.26"/><path class="cls-1" d="M225,110.11l6.32-3.67.11.22-6.32,3.67-.11-.22"/><path class="cls-1" d="M225.06,110.33l6.32-3.67.09.21-6.32,3.67-.09-.21"/><path class="cls-1" d="M225.16,110.54l6.32-3.67.09.2-6.32,3.67-.09-.2"/><path class="cls-1" d="M225.24,110.74l6.32-3.67.08.21-6.32,3.67-.08-.21"/><path class="cls-1" d="M225.33,110.95l6.32-3.67.08.21-6.32,3.67-.08-.21"/><path class="cls-1" d="M225.41,111.16l6.32-3.67.08.22-6.32,3.67-.08-.22"/><path class="cls-1" d="M225.48,111.37l6.32-3.67.07.22-6.32,3.67-.07-.22"/><path class="cls-1" d="M225.55,111.59l6.32-3.67.07.22-6.32,3.67-.07-.22"/><path class="cls-1" d="M225.62,111.82l6.32-3.67.06.23L225.68,112l-.06-.23"/><path class="cls-1" d="M225.68,112l6.32-3.67.05.22-6.32,3.67-.05-.22"/><path class="cls-1" d="M225.73,112.27l6.32-3.67,0,.22-6.32,3.67,0-.22"/><path class="cls-1" d="M225.77,112.49l6.32-3.67,0,.21-6.32,3.67,0-.21"/><path class="cls-1" d="M225.81,112.7l6.32-3.67,0,.21-6.32,3.67,0-.21"/><path class="cls-1" d="M225.84,112.92l6.32-3.67,0,.21-6.32,3.67,0-.21"/><path class="cls-1" d="M225.86,113.12l6.32-3.67q0,.1,0,.21l-6.32,3.67q0-.1,0-.21"/><path class="cls-1" d="M225.88,113.33l6.32-3.67q0,.1,0,.21l-6.32,3.67q0-.1,0-.21"/><path class="cls-1" d="M225.89,113.54l6.32-3.67q0,.1,0,.19h0l-6.32,3.67h0q0-.1,0-.19"/><path class="cls-1" d="M225.89,113.74l6.32-3.67q0,.1,0,.21l-6.32,3.67q0-.1,0-.21"/><path class="cls-1" d="M225.89,113.95l6.32-3.67q0,.1,0,.2l-6.32,3.67q0-.1,0-.2"/><path class="cls-1" d="M225.88,114.15l6.32-3.67q0,.1,0,.2l-6.32,3.67q0-.1,0-.2"/><path class="cls-1" d="M225.85,114.35l6.32-3.67q0,.1,0,.2l-6.32,3.67q0-.1,0-.2"/><path class="cls-1" d="M225.82,114.55l6.32-3.67,0,.21-6.32,3.67,0-.21"/><path class="cls-1" d="M225.78,114.76l6.32-3.67-.06.22L225.73,115l.06-.22"/><path class="cls-1" d="M225.73,115l6.32-3.67-.07.22-6.32,3.67.07-.22"/><path class="cls-1" d="M225.65,115.2l6.32-3.67-.1.24-6.32,3.67.1-.24"/><path class="cls-1" d="M225.55,115.45l6.32-3.67a2.68,2.68,0,0,1-.16.29l-6.32,3.67a2.68,2.68,0,0,0,.16-.29"/><path class="cls-1" d="M225.39,115.74l6.32-3.67a2.16,2.16,0,0,1-.74.72l-6.32,3.67a2.16,2.16,0,0,0,.74-.72"/></g></g><path class="cls-47" d="M221.65,106.39a9.34,9.34,0,0,1,4.24,7.34c0,2.7-1.92,3.79-4.27,2.43a9.34,9.34,0,0,1-4.24-7.34C217.39,106.12,219.3,105,221.65,106.39Z"/><polygon class="cls-53" points="249.05 109.16 255.38 105.48 274.48 129.23 268.15 132.9 249.05 109.16"/><polygon class="cls-54" points="268.15 132.9 274.48 129.23 272.21 132.41 265.89 136.09 268.15 132.9"/><polygon class="cls-47" points="242.21 105.48 245.04 112.8 225.51 114.48 222.68 107.16 242.21 105.48"/><polygon class="cls-55" points="242.21 105.48 248.53 101.81 251.37 109.13 245.04 112.8 242.21 105.48"/><polygon class="cls-55" points="222.68 107.16 229 103.49 248.53 101.81 242.21 105.48 222.68 107.16"/><polygon class="cls-56" points="268.27 133.71 274.59 130.03 277.65 136.47 271.33 140.14 268.27 133.71"/><polygon class="cls-57" points="270.43 129.49 276.75 125.81 274.59 130.03 268.27 133.71 270.43 129.49"/><polygon class="cls-58" points="271.33 140.14 277.65 136.47 287.96 141.5 281.64 145.18 271.33 140.14"/><polygon class="cls-59" points="281.64 145.18 287.96 141.5 285.71 145.67 279.39 149.34 281.64 145.18"/><polygon class="cls-47" points="277.93 128.02 280.9 134.51 270.43 129.49 268.27 133.71 271.33 140.14 281.64 145.18 279.39 149.34 269.17 144.45 263.28 131.24 267.53 123.04 277.93 128.02"/><polygon class="cls-56" points="277.93 128.02 284.25 124.35 287.23 130.83 280.9 134.51 277.93 128.02"/><polygon class="cls-60" points="267.53 123.04 273.86 119.37 284.25 124.35 277.93 128.02 267.53 123.04"/><path class="cls-1" d="M242.36,104l6.32-3.67a3,3,0,0,1,3,.3l-6.32,3.67A3,3,0,0,0,242.36,104Z"/><g class="cls-61"><g class="cls-51"><path class="cls-1" d="M242.36,104l6.32-3.67a2,2,0,0,1,.34-.16l-6.32,3.67a2,2,0,0,0-.34.16"/><path class="cls-1" d="M242.7,103.8l6.32-3.67.3-.08L243,103.72l-.3.08"/><path class="cls-1" d="M243,103.72l6.32-3.67.25,0-6.32,3.67-.25,0"/><path class="cls-1" d="M243.25,103.68l6.32-3.67h.22l-6.32,3.67h-.22"/><path class="cls-1" d="M243.47,103.67l6.32-3.67h.2l-6.32,3.67h-.2"/><path class="cls-1" d="M243.67,103.68,250,100l.19,0-6.32,3.67-.19,0"/><path class="cls-1" d="M243.86,103.7l6.32-3.67.19,0L244,103.73l-.19,0"/><path class="cls-1" d="M244,103.73l6.32-3.67.17,0-6.32,3.67-.17,0"/><path class="cls-1" d="M244.22,103.77l6.32-3.67.18,0-6.32,3.67-.18,0"/><path class="cls-1" d="M244.39,103.82l6.32-3.67.17.06-6.32,3.67-.17-.06"/><path class="cls-1" d="M244.56,103.87l6.32-3.67.17.06-6.32,3.67-.17-.06"/><path class="cls-1" d="M244.73,103.94l6.32-3.67.17.07L244.9,104l-.17-.07"/><path class="cls-1" d="M244.9,104l6.32-3.67.17.08-6.32,3.67-.17-.08"/><path class="cls-1" d="M245.08,104.09l6.32-3.67.17.09-6.32,3.67-.17-.09"/><path class="cls-1" d="M245.25,104.18l6.32-3.67.14.08-6.32,3.67-.14-.08"/></g></g><path class="cls-1" d="M254.71,110.65l-6.32,3.67a3,3,0,0,0,1.24-2.73,9.34,9.34,0,0,0-4.24-7.34l6.32-3.67a9.34,9.34,0,0,1,4.24,7.34A3,3,0,0,1,254.71,110.65Z"/><g class="cls-62"><g class="cls-51"><path class="cls-1" d="M245.38,104.26l6.32-3.67,0,0-6.32,3.67,0,0"/><path class="cls-1" d="M245.43,104.28l6.32-3.67.18.11-6.32,3.67-.18-.11"/><path class="cls-1" d="M245.61,104.39l6.32-3.67.18.12-6.32,3.67-.18-.12"/><path class="cls-1" d="M245.79,104.51l6.32-3.67.18.13L246,104.64l-.18-.13"/><path class="cls-1" d="M246,104.64l6.32-3.67.19.14-6.32,3.67-.19-.14"/><path class="cls-1" d="M246.16,104.78l6.32-3.67.19.15-6.32,3.67-.19-.15"/><path class="cls-1" d="M246.35,104.94l6.32-3.67.19.16-6.32,3.67-.19-.16"/><path class="cls-1" d="M246.54,105.1l6.32-3.67.19.17-6.32,3.67-.19-.17"/><path class="cls-1" d="M246.72,105.28,253,101.6l.18.18-6.32,3.67-.18-.18"/><path class="cls-1" d="M246.9,105.45l6.32-3.67.17.18-6.32,3.67-.17-.18"/><path class="cls-1" d="M247.08,105.64,253.4,102l.17.18-6.32,3.67-.17-.18"/><path class="cls-1" d="M247.24,105.82l6.32-3.67.16.19L247.41,106l-.16-.19"/><path class="cls-1" d="M247.41,106l6.32-3.67.16.2-6.32,3.67-.16-.2"/><path class="cls-1" d="M247.57,106.21l6.32-3.67.19.25-6.32,3.67-.19-.25"/><path class="cls-1" d="M247.76,106.46l6.32-3.67.27.38L248,106.85l-.27-.38"/><path class="cls-1" d="M248,106.85l6.32-3.67q.16.25.32.5l-6.32,3.67q-.15-.26-.32-.5"/><path class="cls-1" d="M248.34,107.35l6.32-3.67.21.37-6.32,3.67-.21-.37"/><path class="cls-1" d="M248.55,107.72l6.32-3.67.13.26L248.69,108l-.13-.26"/><path class="cls-1" d="M248.69,108,255,104.3l.11.22-6.32,3.67-.11-.22"/><path class="cls-1" d="M248.79,108.2l6.32-3.67.09.21-6.32,3.67-.09-.21"/><path class="cls-1" d="M248.89,108.41l6.32-3.67.09.2L249,108.61l-.09-.2"/><path class="cls-1" d="M249,108.61l6.32-3.67.08.21-6.32,3.67-.08-.21"/><path class="cls-1" d="M249.06,108.82l6.32-3.67.08.21L249.14,109l-.08-.21"/><path class="cls-1" d="M249.14,109l6.32-3.67.08.22-6.32,3.67-.08-.22"/><path class="cls-1" d="M249.21,109.24l6.32-3.67.07.22-6.32,3.67-.07-.22"/><path class="cls-1" d="M249.28,109.46l6.32-3.67.07.22-6.32,3.67-.07-.22"/><path class="cls-1" d="M249.35,109.69l6.32-3.67.06.23-6.32,3.67-.06-.23"/><path class="cls-1" d="M249.41,109.91l6.32-3.67.05.22-6.32,3.67-.05-.22"/><path class="cls-1" d="M249.46,110.14l6.32-3.67,0,.22-6.32,3.67,0-.22"/><path class="cls-1" d="M249.5,110.36l6.32-3.67,0,.21-6.32,3.67,0-.21"/><path class="cls-1" d="M249.54,110.57l6.32-3.67,0,.21-6.32,3.67,0-.21"/><path class="cls-1" d="M249.57,110.79l6.32-3.67,0,.21L249.6,111l0-.21"/><path class="cls-1" d="M249.6,111l6.32-3.67q0,.1,0,.21l-6.32,3.67q0-.1,0-.21"/><path class="cls-1" d="M249.61,111.2l6.32-3.67q0,.1,0,.21l-6.32,3.67q0-.1,0-.21"/><path class="cls-1" d="M249.62,111.41l6.32-3.67q0,.1,0,.19h0l-6.32,3.67h0q0-.1,0-.19"/><path class="cls-1" d="M249.62,111.61l6.32-3.67q0,.1,0,.21l-6.32,3.67q0-.1,0-.21"/><path class="cls-1" d="M249.62,111.82l6.32-3.67q0,.1,0,.2L249.61,112q0-.1,0-.2"/><path class="cls-1" d="M249.61,112l6.32-3.67q0,.1,0,.2l-6.32,3.67q0-.1,0-.2"/><path class="cls-1" d="M249.59,112.22l6.32-3.67q0,.1,0,.2l-6.32,3.67q0-.1,0-.2"/><path class="cls-1" d="M249.56,112.42l6.32-3.67,0,.21-6.32,3.67,0-.21"/><path class="cls-1" d="M249.51,112.63l6.32-3.67-.06.22-6.32,3.67.06-.22"/><path class="cls-1" d="M249.46,112.85l6.32-3.67-.07.22-6.32,3.67.07-.22"/><path class="cls-1" d="M249.38,113.07l6.32-3.67-.1.24-6.32,3.67.1-.24"/><path class="cls-1" d="M249.28,113.32l6.32-3.67a2.68,2.68,0,0,1-.16.29l-6.32,3.67a2.68,2.68,0,0,0,.16-.29"/><path class="cls-1" d="M249.12,113.61l6.32-3.67a2.16,2.16,0,0,1-.74.72l-6.32,3.67a2.16,2.16,0,0,0,.74-.72"/></g></g><path class="cls-47" d="M245.38,104.26a9.34,9.34,0,0,1,4.24,7.34c0,2.7-1.92,3.79-4.27,2.43a9.34,9.34,0,0,1-4.24-7.34C241.13,104,243,102.9,245.38,104.26Z"/><polygon class="cls-47" points="249.05 109.16 268.15 132.9 265.89 136.09 246.79 112.34 249.05 109.16"/><ellipse class="cls-63" cx="290.04" cy="138.17" rx="2.66" ry="1.5" transform="translate(48.49 349.99) rotate(-66.72)"/><path class="cls-64" d="M275.15,131.81l7.11,4.23s-1.47,1-2.34,1.58l-.29.18c-.71.49-2.62,2.24-2.62,2.24l-7.39-4.4A17.69,17.69,0,0,1,275.15,131.81Z"/><polygon class="cls-65" points="272.11 149.76 276.73 147.84 288.13 140.96 292.93 137.91 293.73 135.39 291.07 134.25 271.78 146.04 271.3 149.76 272.11 149.76"/><path class="cls-47" d="M269.62,135.65l7.39,4.4a38.43,38.43,0,0,1-6.46,5.93l-7.39-4.4A55.58,55.58,0,0,0,269.62,135.65Z"/><path class="cls-56" d="M269.45,150.15s.44-3.61,1.1-4.18a69.31,69.31,0,0,0,6.46-5.93,12.22,12.22,0,0,1,2.78-2.51c1.35-.85,2.47-1.5,2.47-1.5l4.63.17,4.18-2h3.67v2.31l-1.81,1.35s.11-3.16-1.58-2.6-3.27,2.14-3.22,5.64l-11.4,6.88s.34-3.16-1.52-3.16-3.56,2.88-3.1,5.08l-1.56.68Z"/><path class="cls-64" d="M263.16,141.58l7.39,4.4a10.64,10.64,0,0,0-1,4.21l-7.4-4.55S262.18,142.64,263.16,141.58Z"/><polygon class="cls-66" points="275.15 131.81 279.5 131.81 286.89 136.22 282.26 136.05 275.15 131.81"/><polygon class="cls-47" points="279.5 131.81 283.67 129.84 291.07 134.25 286.89 136.22 279.5 131.81"/><polygon class="cls-67" points="283.67 129.84 287.34 129.84 294.74 134.25 291.07 134.25 283.67 129.84"/><ellipse class="cls-68" cx="290.71" cy="138.17" rx="2.66" ry="1.5" transform="translate(48.89 350.59) rotate(-66.72)"/><path class="cls-69" d="M291.37,136.62a.56.56,0,0,0-.23,0,2,2,0,0,1-.08,1.65c-.31.73-.85,1.21-1.3,1.21a.61.61,0,0,0,.29.27c.48.21,1.16-.32,1.53-1.17S291.85,136.83,291.37,136.62Z"/><path class="cls-8" d="M277.16,141.72s.93-2.38,5.23-5l3.31.25Z"/><path class="cls-63" d="M291.15,136.58a1.37,1.37,0,0,0-1,.64l.12,0a.6.6,0,0,1-.48,1.11.58.58,0,0,1-.14-.09,1.69,1.69,0,0,0,.07,1.19c.45,0,1-.49,1.3-1.21A2,2,0,0,0,291.15,136.58Z"/><path class="cls-69" d="M290.61,138a.6.6,0,0,0-.31-.79l-.12,0a2.75,2.75,0,0,0-.34.57,2.91,2.91,0,0,0-.15.46.58.58,0,0,0,.14.09A.6.6,0,0,0,290.61,138Z"/><ellipse class="cls-63" cx="274.06" cy="147.63" rx="2.66" ry="1.5" transform="translate(30.13 341.03) rotate(-66.72)"/><ellipse class="cls-68" cx="274.73" cy="147.63" rx="2.66" ry="1.5" transform="translate(30.53 341.63) rotate(-66.72)"/><path class="cls-69" d="M275.39,146.08a.56.56,0,0,0-.23,0,2,2,0,0,1-.08,1.65c-.31.73-.85,1.21-1.3,1.21a.61.61,0,0,0,.29.27c.48.21,1.16-.32,1.53-1.17S275.87,146.29,275.39,146.08Z"/><path class="cls-63" d="M275.16,146a1.37,1.37,0,0,0-1,.64l.12,0a.6.6,0,0,1-.48,1.11.58.58,0,0,1-.14-.09,1.69,1.69,0,0,0,.07,1.19c.45,0,1-.49,1.3-1.21A2,2,0,0,0,275.16,146Z"/><path class="cls-69" d="M274.63,147.5a.6.6,0,0,0-.31-.79l-.12,0a2.75,2.75,0,0,0-.34.57,2.91,2.91,0,0,0-.15.46.58.58,0,0,0,.14.09A.6.6,0,0,0,274.63,147.5Z"/><polygon class="cls-8" points="267.33 138.61 273.78 142.61 276.22 140.24 269.68 136.29 267.33 138.61"/><ellipse class="cls-70" cx="268.87" cy="147.92" rx="0.59" ry="1.07"/><ellipse class="cls-70" cx="262.91" cy="144.66" rx="0.5" ry="0.91"/><polygon class="cls-71" points="270.94 137.05 271.12 140.96 271.78 141.37 271.51 137.4 270.94 137.05"/><polygon class="cls-56" points="277.94 128.02 284.26 124.35 287.24 130.83 280.91 134.51 277.94 128.02"/><polygon class="cls-60" points="267.54 123.04 273.87 119.37 284.26 124.35 277.94 128.02 267.54 123.04"/><polygon class="cls-47" points="269.96 130.4 270.43 129.49 280.91 134.51 277.94 128.02 267.54 123.04 265.89 126.23 269.96 130.4"/></g></svg>