<svg xmlns="http://www.w3.org/2000/svg" xmlns:xlink="http://www.w3.org/1999/xlink" viewBox="0 0 504 504"><defs><style>.cls-1{fill:none;}.cls-2{fill:url(#linear-gradient);}.cls-3{fill:#97a073;}.cls-4{fill:#b1c185;}.cls-5,.cls-54{fill:#5c515f;}.cls-5{opacity:0.6;}.cls-6{fill:#93734c;}.cls-7{fill:#aeba83;}.cls-8{fill:#cee09b;}.cls-9{fill:#67b7b7;}.cls-10{fill:#79d7db;}.cls-11{fill:#e0ae4b;}.cls-12{fill:#e5bd5c;}.cls-13{fill:#929b6f;}.cls-14{fill:#71c9c9;}.cls-15{fill:#61aaa8;}.cls-16{fill:#bca493;}.cls-17{fill:#b0eaea;}.cls-18{fill:#d8bdab;}.cls-19{fill:#edd4b9;}.cls-20{fill:url(#linear-gradient-2);}.cls-21{fill:url(#linear-gradient-3);}.cls-22{fill:url(#linear-gradient-4);}.cls-23{fill:url(#linear-gradient-5);}.cls-24{fill:url(#linear-gradient-6);}.cls-25{fill:url(#linear-gradient-7);}.cls-26{fill:url(#linear-gradient-8);}.cls-27{fill:#818963;}.cls-28{fill:#c4d193;}.cls-29{fill:#c6a283;}.cls-30{fill:#ad8c74;}.cls-31{clip-path:url(#clip-path);}.cls-32{fill:#9e806c;}.cls-33{clip-path:url(#clip-path-2);}.cls-34{clip-path:url(#clip-path-3);}.cls-35{clip-path:url(#clip-path-4);}.cls-36{fill:url(#linear-gradient-9);}.cls-37{fill:url(#linear-gradient-10);}.cls-38{fill:url(#linear-gradient-11);}.cls-39{fill:url(#linear-gradient-12);}.cls-40{fill:url(#linear-gradient-13);}.cls-41{fill:url(#linear-gradient-14);}.cls-42{fill:url(#linear-gradient-15);}.cls-43{fill:#f97e62;}.cls-44{fill:#f2928b;}.cls-45{fill:url(#linear-gradient-16);}.cls-46{isolation:isolate;}.cls-47{clip-path:url(#clip-path-5);}.cls-48{fill:#afad87;}.cls-49{fill:#fff;opacity:0.8;}.cls-50{fill:#ccc;}.cls-51{fill:#b5b5b5;}.cls-52{fill:#727272;}.cls-53{fill:#a69bae;}.cls-55{fill:#908697;}.cls-56{clip-path:url(#clip-path-6);}.cls-57{fill:#595959;}.cls-58{fill:#5c5c5c;}.cls-59{fill:#5f5f5f;}.cls-60{fill:#626262;}.cls-61{fill:#656565;}.cls-62{fill:#686868;}.cls-63{fill:#6b6b6b;}.cls-64{fill:#6e6e6e;}.cls-65{fill:#565656;}.cls-66{fill:#535353;}.cls-67{fill:#505050;}.cls-68{fill:#848484;}.cls-69{fill:url(#linear-gradient-19);}.cls-70{clip-path:url(#clip-path-7);}.cls-71{clip-path:url(#clip-path-8);}.cls-72{clip-path:url(#clip-path-9);}.cls-73{clip-path:url(#clip-path-10);}.cls-74{clip-path:url(#clip-path-11);}.cls-75{clip-path:url(#clip-path-12);}.cls-76{clip-path:url(#clip-path-13);}.cls-77{fill:#514854;}.cls-78{fill:url(#linear-gradient-20);}.cls-79{fill:url(#linear-gradient-21);}.cls-80{fill:url(#linear-gradient-22);}.cls-81{fill:url(#linear-gradient-23);}.cls-82{fill:url(#linear-gradient-24);}.cls-83{fill:url(#linear-gradient-25);}.cls-84{fill:url(#linear-gradient-26);}.cls-85{fill:#625866;}.cls-86{clip-path:url(#clip-path-14);}.cls-87{fill:#bfa434;}.cls-88{fill:#937f28;}.cls-89{clip-path:url(#clip-path-15);}.cls-90{clip-path:url(#clip-path-16);}.cls-91{clip-path:url(#clip-path-17);}.cls-92{clip-path:url(#clip-path-18);}.cls-93{clip-path:url(#clip-path-19);}.cls-94{clip-path:url(#clip-path-20);}.cls-95{clip-path:url(#clip-path-21);}.cls-96{clip-path:url(#clip-path-22);}.cls-97{clip-path:url(#clip-path-23);}.cls-98{fill:#bea334;}.cls-99{clip-path:url(#clip-path-24);}.cls-100{clip-path:url(#clip-path-25);}.cls-101{clip-path:url(#clip-path-26);}.cls-102{clip-path:url(#clip-path-27);}.cls-103{clip-path:url(#clip-path-28);}.cls-104{fill:#61541a;}.cls-105{fill:#a58d2d;}.cls-106{clip-path:url(#clip-path-29);}.cls-107{clip-path:url(#clip-path-30);}.cls-108{fill:#66581c;}</style><linearGradient id="linear-gradient" x1="9122.25" y1="292.42" x2="9138.03" y2="292.42" gradientTransform="matrix(-1, 0, 0, 1, 9377.82, 0)" gradientUnits="userSpaceOnUse"><stop offset="0" stop-color="#8c7d91"/><stop offset="1" stop-color="#5c515f"/></linearGradient><linearGradient id="linear-gradient-2" x1="8996.48" y1="162.24" x2="8995.05" y2="178.75" gradientTransform="matrix(-1, 0, 0, 1, 9386.69, -17.02)" gradientUnits="userSpaceOnUse"><stop offset="0" stop-color="#9eefef"/><stop offset="0.03" stop-color="#9deded" stop-opacity="0.93"/><stop offset="0.17" stop-color="#99e4e5" stop-opacity="0.65"/><stop offset="0.31" stop-color="#95ddde" stop-opacity="0.42"/><stop offset="0.43" stop-color="#93d7d9" stop-opacity="0.24"/><stop offset="0.54" stop-color="#91d3d5" stop-opacity="0.11"/><stop offset="0.63" stop-color="#8fd1d3" stop-opacity="0.03"/><stop offset="0.7" stop-color="#8fd0d2" stop-opacity="0"/></linearGradient><linearGradient id="linear-gradient-3" x1="9020.2" y1="214.11" x2="9019.36" y2="223.81" xlink:href="#linear-gradient-2"/><linearGradient id="linear-gradient-4" x1="8979.05" y1="189.35" x2="8977.93" y2="202.36" xlink:href="#linear-gradient-2"/><linearGradient id="linear-gradient-5" x1="8955.21" y1="179.19" x2="8954.37" y2="188.89" xlink:href="#linear-gradient-2"/><linearGradient id="linear-gradient-6" x1="9016.02" y1="184.22" x2="9015.18" y2="193.92" xlink:href="#linear-gradient-2"/><linearGradient id="linear-gradient-7" x1="9037.49" y1="168.07" x2="9036.65" y2="177.77" xlink:href="#linear-gradient-2"/><linearGradient id="linear-gradient-8" x1="9044.32" y1="193.41" x2="9043.38" y2="204.23" xlink:href="#linear-gradient-2"/><clipPath id="clip-path"><path class="cls-1" d="M198,259a57.12,57.12,0,0,1,.92-7.59h0c.06-.27.11-.52.17-.74.54-2,1.16-3.65,1.16-3.65a.52.52,0,0,1,.36,0l-.08,0,.1,0h0a.54.54,0,0,1,.19,0h0c.14,0,.26.1.2.44a33.54,33.54,0,0,0-1.35,7c-.25,3.6.78,10.67.25,11.49a.9.9,0,0,1-.43.36h0a1.14,1.14,0,0,1-.54.06l-.3-.06a1.77,1.77,0,0,0,.3.06,1.84,1.84,0,0,1-.92-.19S198,260.28,198,259Z"/></clipPath><clipPath id="clip-path-2"><path class="cls-1" d="M254.33,218.92A44.24,44.24,0,0,1,255,213h0c0-.21.09-.41.13-.57.42-1.58.9-2.83.9-2.83a.4.4,0,0,1,.28,0l-.07,0,.08,0h0l.14,0h0c.1,0,.2.08.15.34a26,26,0,0,0-1,5.43c-.19,2.79.61,8.26.19,8.9a.7.7,0,0,1-.34.28h0a.89.89,0,0,1-.42,0l-.23,0,.23,0a1.43,1.43,0,0,1-.71-.15S254.33,219.93,254.33,218.92Z"/></clipPath><clipPath id="clip-path-3"><path class="cls-1" d="M191.31,269.7a57.12,57.12,0,0,1,.92-7.59h0c.06-.27.11-.52.17-.74.54-2,1.16-3.65,1.16-3.65a.52.52,0,0,1,.36,0l-.08,0,.1,0h0a.54.54,0,0,1,.19,0h0c.14,0,.26.1.2.44a33.54,33.54,0,0,0-1.35,7c-.25,3.6.78,10.67.25,11.49a.9.9,0,0,1-.43.36h0a1.14,1.14,0,0,1-.54.06l-.3-.06a1.77,1.77,0,0,0,.3.06,1.84,1.84,0,0,1-.92-.19S191.31,271,191.31,269.7Z"/></clipPath><clipPath id="clip-path-4"><path class="cls-1" d="M199.65,275.24a62.26,62.26,0,0,1,1-8.27h0c.06-.3.12-.57.18-.8.59-2.22,1.26-4,1.26-4a.57.57,0,0,1,.39,0l-.09,0,.11,0h0a.59.59,0,0,1,.2,0h0c.15,0,.28.11.22.48a36.56,36.56,0,0,0-1.47,7.65c-.27,3.92.85,11.63.27,12.52a1,1,0,0,1-.47.39h0a1.25,1.25,0,0,1-.59.07l-.33-.07a1.93,1.93,0,0,0,.33.07,2,2,0,0,1-1-.21S199.66,276.67,199.65,275.24Z"/></clipPath><linearGradient id="linear-gradient-9" x1="9110.04" y1="228.22" x2="9108.61" y2="244.73" xlink:href="#linear-gradient-2"/><linearGradient id="linear-gradient-10" x1="9133.75" y1="280.09" x2="9132.91" y2="289.79" xlink:href="#linear-gradient-2"/><linearGradient id="linear-gradient-11" x1="9092.61" y1="255.33" x2="9091.48" y2="268.34" xlink:href="#linear-gradient-2"/><linearGradient id="linear-gradient-12" x1="9068.76" y1="245.17" x2="9067.92" y2="254.87" xlink:href="#linear-gradient-2"/><linearGradient id="linear-gradient-13" x1="9129.58" y1="250.2" x2="9128.73" y2="259.9" xlink:href="#linear-gradient-2"/><linearGradient id="linear-gradient-14" x1="9151.04" y1="234.04" x2="9150.2" y2="243.74" xlink:href="#linear-gradient-2"/><linearGradient id="linear-gradient-15" x1="9157.88" y1="259.38" x2="9156.94" y2="270.21" xlink:href="#linear-gradient-2"/><linearGradient id="linear-gradient-16" x1="9122.25" y1="291.81" x2="9138.03" y2="291.81" gradientTransform="matrix(-1, 0, 0, 1, 9377.82, 0)" gradientUnits="userSpaceOnUse"><stop offset="0" stop-color="#8c9591"/><stop offset="1" stop-color="#5c575f"/></linearGradient><clipPath id="clip-path-5"><path class="cls-2" d="M239.79,296.64h0a1.16,1.16,0,0,0,1.37,1.14c2.21-.42,6.57-1.42,9.26-3.06a13.16,13.16,0,0,0,4.7-5.3,4.2,4.2,0,0,0,.44-1.88V287a13.43,13.43,0,0,1-5.14,6.3C246.76,295.57,240,296.6,239.79,296.64Z"/></clipPath><clipPath id="clip-path-6"><path class="cls-1" d="M210.47,162.1l-.05,18.5a.77.77,0,0,1-.45.63,2.42,2.42,0,0,1-2.2,0,.77.77,0,0,1-.46-.64l.05-18.5a.77.77,0,0,0,.46.64,2.42,2.42,0,0,0,2.2,0A.77.77,0,0,0,210.47,162.1Z"/></clipPath><linearGradient id="linear-gradient-19" x1="207.31" y1="171.79" x2="210.47" y2="171.79" gradientUnits="userSpaceOnUse"><stop offset="0" stop-color="#8c7d91"/><stop offset="1" stop-color="#464049"/></linearGradient><clipPath id="clip-path-7"><path class="cls-1" d="M215.38,165l-.05,18.5a.77.77,0,0,1-.45.63,2.42,2.42,0,0,1-2.2,0,.77.77,0,0,1-.46-.64l.05-18.5a.77.77,0,0,0,.46.64,2.42,2.42,0,0,0,2.2,0A.77.77,0,0,0,215.38,165Z"/></clipPath><clipPath id="clip-path-8"><path class="cls-1" d="M219.87,167.78l-.05,18.5a.77.77,0,0,1-.45.63,2.42,2.42,0,0,1-2.2,0,.77.77,0,0,1-.46-.64l.05-18.5a.77.77,0,0,0,.46.64,2.42,2.42,0,0,0,2.2,0A.77.77,0,0,0,219.87,167.78Z"/></clipPath><clipPath id="clip-path-9"><path class="cls-1" d="M224.35,170.56l-.05,18.5a.77.77,0,0,1-.45.63,2.42,2.42,0,0,1-2.2,0,.77.77,0,0,1-.46-.64l.05-18.5a.77.77,0,0,0,.46.64,2.42,2.42,0,0,0,2.2,0A.77.77,0,0,0,224.35,170.56Z"/></clipPath><clipPath id="clip-path-10"><path class="cls-1" d="M228.84,173.34l-.05,18.5a.77.77,0,0,1-.45.63,2.42,2.42,0,0,1-2.2,0,.77.77,0,0,1-.46-.64l.05-18.5a.77.77,0,0,0,.46.64,2.42,2.42,0,0,0,2.2,0A.77.77,0,0,0,228.84,173.34Z"/></clipPath><clipPath id="clip-path-11"><path class="cls-1" d="M233.33,176.11l-.05,18.5a.77.77,0,0,1-.45.63,2.42,2.42,0,0,1-2.2,0,.77.77,0,0,1-.46-.64l.05-18.5a.77.77,0,0,0,.46.64,2.42,2.42,0,0,0,2.2,0A.77.77,0,0,0,233.33,176.11Z"/></clipPath><clipPath id="clip-path-12"><path class="cls-1" d="M237.81,178.89l-.05,18.5a.77.77,0,0,1-.45.63,2.42,2.42,0,0,1-2.2,0,.77.77,0,0,1-.46-.64l.05-18.5a.77.77,0,0,0,.46.64,2.42,2.42,0,0,0,2.2,0A.77.77,0,0,0,237.81,178.89Z"/></clipPath><clipPath id="clip-path-13"><path class="cls-1" d="M242.3,181.67l-.05,18.5a.77.77,0,0,1-.45.63,2.42,2.42,0,0,1-2.2,0,.77.77,0,0,1-.46-.64l.05-18.5a.77.77,0,0,0,.46.64,2.42,2.42,0,0,0,2.2,0A.77.77,0,0,0,242.3,181.67Z"/></clipPath><linearGradient id="linear-gradient-20" x1="212.25" y1="174.7" x2="215.41" y2="174.7" xlink:href="#linear-gradient-19"/><linearGradient id="linear-gradient-21" x1="216.71" y1="177.48" x2="219.87" y2="177.48" xlink:href="#linear-gradient-19"/><linearGradient id="linear-gradient-22" x1="221.23" y1="180.25" x2="224.38" y2="180.25" xlink:href="#linear-gradient-19"/><linearGradient id="linear-gradient-23" x1="225.71" y1="183.03" x2="228.87" y2="183.03" xlink:href="#linear-gradient-19"/><linearGradient id="linear-gradient-24" x1="230.18" y1="185.81" x2="233.34" y2="185.81" xlink:href="#linear-gradient-19"/><linearGradient id="linear-gradient-25" x1="234.68" y1="188.58" x2="237.84" y2="188.58" xlink:href="#linear-gradient-19"/><linearGradient id="linear-gradient-26" x1="239.14" y1="191.36" x2="242.3" y2="191.36" xlink:href="#linear-gradient-19"/><clipPath id="clip-path-14"><path class="cls-1" d="M215.83,159.55l1-.57a.38.38,0,0,0-.05.23,1.71,1.71,0,0,0,.37.92l-1,.57a1.71,1.71,0,0,1-.37-.92A.38.38,0,0,1,215.83,159.55Z"/></clipPath><clipPath id="clip-path-15"><path class="cls-1" d="M216.14,160.7l1-.57a5.19,5.19,0,0,0,1,1l-1,.57A5.19,5.19,0,0,1,216.14,160.7Z"/></clipPath><clipPath id="clip-path-16"><path class="cls-1" d="M215.86,159.52l1-.57,0,0-1,.57Z"/></clipPath><clipPath id="clip-path-17"><path class="cls-1" d="M217.51,162l1-.57.5.32a3.14,3.14,0,0,0,.48.24l-1,.57a3.14,3.14,0,0,1-.48-.24Z"/></clipPath><clipPath id="clip-path-18"><path class="cls-1" d="M215.36,157.77l1-.57a.59.59,0,0,1,.61.05,1.26,1.26,0,0,1,.44.46l-1,.57a1.26,1.26,0,0,0-.44-.46A.59.59,0,0,0,215.36,157.77Z"/></clipPath><clipPath id="clip-path-19"><path class="cls-1" d="M217.4,158.81l-1,.57a.32.32,0,0,0,.11-.13.85.85,0,0,0,.07-.38,1.17,1.17,0,0,0-.19-.59l1-.57a1.17,1.17,0,0,1,.19.59.85.85,0,0,1-.07.38A.32.32,0,0,1,217.4,158.81Z"/></clipPath><clipPath id="clip-path-20"><path class="cls-1" d="M220.33,162.06l-1,.57a.7.7,0,0,1-.48.06l1-.57A.7.7,0,0,0,220.33,162.06Z"/></clipPath><clipPath id="clip-path-21"><polygon class="cls-1" points="220.35 162.04 219.37 162.61 219.37 162.61 220.35 162.04 220.35 162.04"/></clipPath><clipPath id="clip-path-22"><path class="cls-1" d="M219.33,158.18l1-.57a5.43,5.43,0,0,1,1.33,3.32,1.8,1.8,0,0,1-.49,1.47l-1,.57a1.8,1.8,0,0,0,.49-1.47A5.43,5.43,0,0,0,219.33,158.18Z"/></clipPath><clipPath id="clip-path-23"><path class="cls-1" d="M221,162.47l-1,.57.1-.07,1-.57Z"/></clipPath><clipPath id="clip-path-24"><path class="cls-1" d="M216.52,152.89l1-.57a.78.78,0,0,0-.23.63,3.25,3.25,0,0,0,.86,1.85l-1,.57a3.25,3.25,0,0,1-.86-1.85A.78.78,0,0,1,216.52,152.89Z"/></clipPath><clipPath id="clip-path-25"><path class="cls-1" d="M216.63,152.81l1-.57-.11.08-1,.57Z"/></clipPath><clipPath id="clip-path-26"><path class="cls-1" d="M215.92,152.33l1-.57a1.54,1.54,0,0,1,1.23-.07l-1,.57A1.54,1.54,0,0,0,215.92,152.33Z"/></clipPath><clipPath id="clip-path-27"><path class="cls-1" d="M219.37,155.86l1-.57a.44.44,0,0,1,.26-.06l-1,.57A.44.44,0,0,0,219.37,155.86Z"/></clipPath><clipPath id="clip-path-28"><path class="cls-1" d="M219.63,155.8l1-.57h.25l-1,.57Z"/></clipPath><clipPath id="clip-path-29"><path class="cls-1" d="M217.54,152.39l1-.57a4.51,4.51,0,0,1,.53.27l.44.28-1,.57-.44-.28A4.52,4.52,0,0,0,217.54,152.39Z"/></clipPath><clipPath id="clip-path-30"><path class="cls-1" d="M221.29,156.82l-1,.57a.51.51,0,0,0,.15-.14,1.42,1.42,0,0,0,.24-.88,3.22,3.22,0,0,0-.5-1.68,5.69,5.69,0,0,0-1.3-1.47l1-.57a5.69,5.69,0,0,1,1.3,1.47,3.22,3.22,0,0,1,.5,1.68,1.42,1.42,0,0,1-.24.88A.51.51,0,0,1,221.29,156.82Z"/></clipPath></defs><title>logos-mega</title><g id="Layer_16" data-name="Layer 16"><polygon class="cls-3" points="251.21 198.88 146.9 138.61 146.9 163.01 251.03 223.43 251.21 198.88"/><path class="cls-4" d="M146.94,138.71s13-32.48,32.27-42.89,29.72-3.61,38.22-10.4,27.39-11,33.76-7.43,104,60.63,104,60.63L250.86,198.91Z"/><path class="cls-5" d="M255.16,82.72s-14.88-6.1-19.17-.48l-3.53,0v.53l3.48,0C238.91,88.09,255.16,82.72,255.16,82.72Z"/><rect class="cls-6" x="232.45" y="77.45" width="0.66" height="5.28"/><path class="cls-7" d="M232.78,61.87V79.67C240,77.24,232.78,61.87,232.78,61.87Z"/><path class="cls-8" d="M232.78,79.67V61.87S225.11,76,232.78,79.67Z"/><path class="cls-5" d="M245.34,88.89s-14.88-6.1-19.17-.48l-3.53,0v.53l3.48,0C229.1,94.26,245.34,88.89,245.34,88.89Z"/><rect class="cls-6" x="222.63" y="83.61" width="0.66" height="5.28"/><path class="cls-7" d="M223,68V85.83C230.14,83.41,223,68,223,68Z"/><path class="cls-8" d="M223,85.83V68S215.3,82.21,223,85.83Z"/><path class="cls-5" d="M181.93,135s-14.88-6.1-19.17-.48l-3.53,0V135l3.48,0C165.69,140.38,181.93,135,181.93,135Z"/><rect class="cls-6" x="159.23" y="129.74" width="0.66" height="5.28"/><path class="cls-7" d="M159.56,114.17V132C166.74,129.54,159.56,114.17,159.56,114.17Z"/><path class="cls-8" d="M159.56,132V114.17S151.89,128.33,159.56,132Z"/><path class="cls-5" d="M197.15,119.11s-19.85-8.14-25.58-.64l-4.71-.05v.71l4.64.05C175.48,126.27,197.15,119.11,197.15,119.11Z"/><rect class="cls-6" x="166.85" y="112.07" width="0.89" height="7.04"/><path class="cls-7" d="M167.3,91.29V115C176.87,111.8,167.3,91.29,167.3,91.29Z"/><path class="cls-8" d="M167.3,115V91.29S157.07,110.19,167.3,115Z"/><path class="cls-5" d="M206,112.51s-19.85-8.14-25.58-.64l-4.71-.05v.71l4.64.05C184.28,119.67,206,112.51,206,112.51Z"/><rect class="cls-6" x="175.66" y="105.47" width="0.89" height="7.04"/><path class="cls-7" d="M176.1,84.69v23.74C185.68,105.2,176.1,84.69,176.1,84.69Z"/><path class="cls-8" d="M176.1,108.43V84.69S165.87,103.59,176.1,108.43Z"/><path class="cls-9" d="M217.79,140.67c5.28-8.69,10.65-19.81,19.12-21.51s17.52,1.77,32.33-8.37c13.41-9.18,14.46-13.06,14.54-13.71l-1.62-.94s.27,3.68-14.54,13.81-23.85,6.67-32.33,8.37-13.84,12.82-19.12,21.51C210,150,181.93,159,181.93,159l8.64,5,.11,0-7.13-4.12S211.6,150.87,217.79,140.67Z"/><path class="cls-10" d="M221.67,146.18c6.87-9.69,8.89-16.51,13.21-20.46s14.23-3.87,26.4-6.43,26.55-19.83,26.55-19.83l-4-2.36c-.08.65-1.13,4.54-14.54,13.71-14.81,10.14-23.85,6.67-32.33,8.37S223.07,132,217.79,140.67c-6.2,10.2-34.24,19.22-34.24,19.22l7.13,4.12C192.33,163.54,213.88,157.18,221.67,146.18Z"/><path class="cls-5" d="M277.13,129.19s-14.88-6.1-19.17-.48l-3.53,0v.53l3.48,0C260.89,134.56,277.13,129.19,277.13,129.19Z"/><rect class="cls-6" x="254.43" y="123.92" width="0.66" height="5.28"/><path class="cls-11" d="M254.76,108.34v17.79C261.94,123.71,254.76,108.34,254.76,108.34Z"/><path class="cls-12" d="M254.76,126.14V108.34S247.09,122.51,254.76,126.14Z"/><path class="cls-5" d="M259,152.3s-14.88-6.1-19.17-.48l-3.53,0v.53l3.48,0C242.72,157.66,259,152.3,259,152.3Z"/><rect class="cls-6" x="236.25" y="147.02" width="0.66" height="5.28"/><path class="cls-7" d="M236.58,131.45v17.79C243.76,146.82,236.58,131.45,236.58,131.45Z"/><path class="cls-8" d="M236.58,149.24V131.45S228.92,145.61,236.58,149.24Z"/><path class="cls-5" d="M269,161.52s-14.88-6.1-19.17-.48l-3.53,0v.53l3.48,0C252.75,166.89,269,161.52,269,161.52Z"/><rect class="cls-6" x="246.29" y="156.24" width="0.66" height="5.28"/><path class="cls-7" d="M246.62,140.67v17.79C253.8,156,246.62,140.67,246.62,140.67Z"/><path class="cls-8" d="M246.62,158.46V140.67S238.95,154.84,246.62,158.46Z"/><path class="cls-5" d="M273.11,138s-18.43-7.55-23.74-.59l-4.37,0V138l4.31,0C253,144.65,273.11,138,273.11,138Z"/><rect class="cls-6" x="244.98" y="131.47" width="0.82" height="6.54"/><path class="cls-7" d="M245.39,112.18v22C254.29,131.22,245.39,112.18,245.39,112.18Z"/><path class="cls-8" d="M245.39,134.22v-22S235.9,129.73,245.39,134.22Z"/><path class="cls-5" d="M269.25,144s-14.88-6.1-19.17-.48l-3.53,0V144l3.48,0C253,149.33,269.25,144,269.25,144Z"/><rect class="cls-6" x="246.54" y="138.68" width="0.66" height="5.28"/><path class="cls-11" d="M246.87,123.11v17.79C254,138.48,246.87,123.11,246.87,123.11Z"/><path class="cls-12" d="M246.87,140.91V123.11S239.2,137.28,246.87,140.91Z"/><path class="cls-5" d="M191.12,128.82s-14.88-6.1-19.17-.48l-3.53,0v.53l3.48,0C174.88,134.18,191.12,128.82,191.12,128.82Z"/><rect class="cls-6" x="168.41" y="123.54" width="0.66" height="5.28"/><path class="cls-11" d="M168.75,108v17.79C175.92,123.34,168.75,108,168.75,108Z"/><path class="cls-12" d="M168.75,125.76V108S161.08,122.13,168.75,125.76Z"/><path class="cls-5" d="M207.79,100.52s-14.88-6.1-19.17-.48l-3.53,0v.53l3.48,0C191.54,105.88,207.79,100.52,207.79,100.52Z"/><rect class="cls-6" x="185.08" y="95.24" width="0.66" height="5.28"/><path class="cls-11" d="M185.41,79.67V97.46C192.59,95,185.41,79.67,185.41,79.67Z"/><path class="cls-12" d="M185.41,97.46V79.67S177.74,93.83,185.41,97.46Z"/><path class="cls-5" d="M192.66,145.43s-14.88-6.1-19.17-.48l-3.53,0v.53l3.48,0C176.42,150.79,192.66,145.43,192.66,145.43Z"/><rect class="cls-6" x="169.95" y="140.15" width="0.66" height="5.28"/><path class="cls-11" d="M170.28,124.58v17.79C177.46,139.95,170.28,124.58,170.28,124.58Z"/><path class="cls-12" d="M170.28,142.37V124.58S162.62,138.74,170.28,142.37Z"/><path class="cls-5" d="M205.55,133.8s-14.88-6.1-19.17-.48l-3.53,0v.53l3.48,0C189.31,139.17,205.55,133.8,205.55,133.8Z"/><rect class="cls-6" x="182.84" y="128.52" width="0.66" height="5.28"/><path class="cls-7" d="M183.18,113v17.79C190.35,128.32,183.18,113,183.18,113Z"/><path class="cls-8" d="M183.18,130.74V113S175.51,127.12,183.18,130.74Z"/><polygon class="cls-5" points="361.73 190.12 465.87 250.64 361.92 310.91 257.69 250.52 361.73 190.12"/><polygon class="cls-5" points="248.43 256.53 352.56 317.05 248.61 377.32 144.38 316.93 248.43 256.53"/><path class="cls-5" d="M237.76,252.49s-13-32.48-32.27-42.89-29.72-3.61-38.22-10.4-27.39-11-33.76-7.43-104,60.63-104,60.63l104.32,60.29Z"/><polygon class="cls-13" points="355.18 138.63 355.18 162.43 251.04 223.45 251.22 198.9 355.18 138.63"/><path class="cls-4" d="M30.41,206.49s13-32.48,32.27-42.89S92.4,160,100.89,153.2s27.39-11,33.76-7.43,104,60.63,104,60.63L134.32,266.69Z"/><path class="cls-5" d="M138.62,150.51s-14.88-6.1-19.17-.48l-3.53,0v.53l3.48,0C122.38,155.87,138.62,150.51,138.62,150.51Z"/><rect class="cls-6" x="115.91" y="145.23" width="0.66" height="5.28"/><path class="cls-7" d="M116.25,129.66v17.79C123.42,145,116.25,129.66,116.25,129.66Z"/><path class="cls-8" d="M116.25,147.45V129.66S108.58,143.82,116.25,147.45Z"/><path class="cls-5" d="M128.81,156.67s-14.88-6.1-19.17-.48l-3.53,0v.53l3.48,0C112.56,162,128.81,156.67,128.81,156.67Z"/><rect class="cls-6" x="106.1" y="151.39" width="0.66" height="5.28"/><path class="cls-7" d="M106.43,135.82v17.79C113.61,151.19,106.43,135.82,106.43,135.82Z"/><path class="cls-8" d="M106.43,153.62V135.82S98.76,150,106.43,153.62Z"/><path class="cls-5" d="M65.4,202.8s-14.88-6.1-19.17-.48l-3.53,0v.53l3.48,0C49.16,208.16,65.4,202.8,65.4,202.8Z"/><rect class="cls-6" x="42.69" y="197.52" width="0.66" height="5.28"/><path class="cls-7" d="M43,182v17.79C50.2,197.32,43,182,43,182Z"/><path class="cls-8" d="M43,199.74V182S35.36,196.12,43,199.74Z"/><path class="cls-5" d="M80.62,186.89s-19.85-8.14-25.58-.64l-4.71-.05v.71L55,187C58.94,194.05,80.62,186.89,80.62,186.89Z"/><rect class="cls-6" x="50.32" y="179.85" width="0.89" height="7.04"/><path class="cls-7" d="M50.76,159.07v23.74C60.34,179.58,50.76,159.07,50.76,159.07Z"/><path class="cls-8" d="M50.76,182.81V159.07S40.53,178,50.76,182.81Z"/><path class="cls-5" d="M89.42,180.3s-19.85-8.14-25.58-.64l-4.71-.05v.71l4.64.05C67.75,187.45,89.42,180.3,89.42,180.3Z"/><rect class="cls-6" x="59.12" y="173.25" width="0.89" height="7.04"/><path class="cls-7" d="M59.57,152.48v23.74C69.14,173,59.57,152.48,59.57,152.48Z"/><path class="cls-8" d="M59.57,176.21V152.48S49.33,171.38,59.57,176.21Z"/><path class="cls-5" d="M160.6,197s-14.88-6.1-19.17-.48l-3.53,0V197l3.48,0C144.36,202.34,160.6,197,160.6,197Z"/><rect class="cls-6" x="137.89" y="191.7" width="0.66" height="5.28"/><path class="cls-11" d="M138.23,176.13v17.79C145.4,191.5,138.23,176.13,138.23,176.13Z"/><path class="cls-12" d="M138.23,193.92V176.13S130.56,190.29,138.23,193.92Z"/><path class="cls-5" d="M142.42,220.08s-14.88-6.1-19.17-.48l-3.53,0v.53l3.48,0C126.18,225.44,142.42,220.08,142.42,220.08Z"/><rect class="cls-6" x="119.72" y="214.8" width="0.66" height="5.28"/><path class="cls-7" d="M120.05,199.23V217C127.23,214.6,120.05,199.23,120.05,199.23Z"/><path class="cls-8" d="M120.05,217V199.23S112.38,213.4,120.05,217Z"/><path class="cls-5" d="M152.46,229.3s-14.88-6.1-19.17-.48l-3.53,0v.53l3.48,0C136.22,234.67,152.46,229.3,152.46,229.3Z"/><rect class="cls-6" x="129.75" y="224.03" width="0.66" height="5.28"/><path class="cls-7" d="M130.08,208.45v17.79C137.26,223.82,130.08,208.45,130.08,208.45Z"/><path class="cls-8" d="M130.08,226.25V208.45S122.42,222.62,130.08,226.25Z"/><path class="cls-5" d="M156.57,205.79s-18.43-7.55-23.74-.59l-4.37,0v.66l4.31,0C136.46,212.44,156.57,205.79,156.57,205.79Z"/><rect class="cls-6" x="128.45" y="199.25" width="0.82" height="6.54"/><path class="cls-7" d="M128.86,180v22C137.75,199,128.86,180,128.86,180Z"/><path class="cls-8" d="M128.86,202V180S119.36,197.51,128.86,202Z"/><path class="cls-5" d="M152.71,211.75s-14.88-6.1-19.17-.48l-3.53,0v.53l3.48,0C136.47,217.11,152.71,211.75,152.71,211.75Z"/><rect class="cls-6" x="130.01" y="206.47" width="0.66" height="5.28"/><path class="cls-11" d="M130.34,190.9v17.79C137.52,206.27,130.34,190.9,130.34,190.9Z"/><path class="cls-12" d="M130.34,208.69V190.9S122.67,205.06,130.34,208.69Z"/><path class="cls-5" d="M74.59,196.6s-14.88-6.1-19.17-.48l-3.53,0v.53l3.48,0C58.34,202,74.59,196.6,74.59,196.6Z"/><rect class="cls-6" x="51.88" y="191.32" width="0.66" height="5.28"/><path class="cls-11" d="M52.21,175.75v17.79C59.39,191.12,52.21,175.75,52.21,175.75Z"/><path class="cls-12" d="M52.21,193.54V175.75S44.54,189.91,52.21,193.54Z"/><path class="cls-5" d="M91.25,168.3s-14.88-6.1-19.17-.48l-3.53,0v.53l3.48,0C75,173.66,91.25,168.3,91.25,168.3Z"/><rect class="cls-6" x="68.54" y="163.02" width="0.66" height="5.28"/><path class="cls-11" d="M68.88,147.45v17.79C76.05,162.82,68.88,147.45,68.88,147.45Z"/><path class="cls-12" d="M68.88,165.24V147.45S61.21,161.61,68.88,165.24Z"/><path class="cls-5" d="M76.12,213.21s-14.88-6.1-19.17-.48l-3.53,0v.53l3.48,0C59.88,218.58,76.12,213.21,76.12,213.21Z"/><rect class="cls-6" x="53.42" y="207.93" width="0.66" height="5.28"/><path class="cls-11" d="M53.75,192.36v17.79C60.93,207.73,53.75,192.36,53.75,192.36Z"/><path class="cls-12" d="M53.75,210.15V192.36S46.08,206.53,53.75,210.15Z"/><path class="cls-5" d="M89,201.59s-14.88-6.1-19.17-.48l-3.53,0v.53l3.48,0C72.77,207,89,201.59,89,201.59Z"/><rect class="cls-6" x="66.31" y="196.31" width="0.66" height="5.28"/><path class="cls-7" d="M66.64,180.74v17.79C73.82,196.11,66.64,180.74,66.64,180.74Z"/><path class="cls-8" d="M66.64,198.53V180.74S59,194.9,66.64,198.53Z"/><polygon class="cls-14" points="466.56 204.23 466.56 228.03 362.43 289.05 362.61 264.5 466.56 204.23"/><polygon class="cls-15" points="362.6 264.48 258.29 204.21 258.29 228.61 362.42 289.03 362.6 264.48"/><path class="cls-16" d="M355.9,162.75c-2.07.55,4.07.74,4.07.74a22.48,22.48,0,0,0,8.19-6.43c3.26-4.34-.56-2.4-.56-2.4A22.17,22.17,0,0,1,355.9,162.75Z"/><polygon class="cls-10" points="362.43 143.72 466.56 204.23 362.61 264.5 258.38 204.12 362.43 143.72"/><path class="cls-17" d="M378.52,153.06s2.75,6-1.24,10.43-16.4,9.89-23.28,10.28-16,1.72-20.17,9.48-7.78,5.7-8.45,11-13.17,4.35-15.93,7.56c-3.43,4-6.51,7.75-6.33,14.18s-17.69,3.81-17.69,3.81l-11.32-6.56,17.32-9.12,31.42-28.19,27.37-15.81,22.26-10.54Z"/><path class="cls-18" d="M299,213.23c0,5.95-20.11,2.74-20.11,2.74l-15.72-9.11,54.74-33.62,33.36-14.66,21.26-9,2.74,1.59s1,8.62-2.3,10.81-9.4,6-15.48,6.5-15.18,1-22.53,7.45-7.92,14.19-12.8,15.74c-5.76,1.83-14.46,5.08-16.1,7.24C303.61,202.08,299,213.23,299,213.23Z"/><path class="cls-19" d="M372.5,149.57s2.18,7.81-3.2,12.42-24.62.47-37.77,15.37-17.63,4.47-23.85,14-11.92,8.07-11.7,16.85C296.19,216.5,272,212,272,212l-13.66-7.91,104-60.4Z"/><path class="cls-18" d="M322.86,172.71c0,2,.64,4.17,3.88,2.76s3.82-7.11,7.53-7.37,6.48-3.36,4.78-4.43-10.49,3-11.1,4.46S322.86,172.71,322.86,172.71Z"/><path class="cls-18" d="M286.91,207.66a12.57,12.57,0,0,0,4.68-5.52c1.09-2.58,5.05-10.5,4.29-11.5s-.31-5.51-1.15-6.25-.65,4.2-2.27,8.85-1.5,7.35-3.62,7.85S286.91,207.66,286.91,207.66Z"/><path class="cls-18" d="M350.24,160.11c3.32.45,12.52-3.15,12.23-5.16s-.9-.61-4.93-2.61-3.68,5.81-6.31,6.25S350.24,160.11,350.24,160.11Z"/><path class="cls-18" d="M355.9,162.75c-2.07.55,4.07.74,4.07.74a22.48,22.48,0,0,0,8.19-6.43c3.26-4.34-.56-2.4-.56-2.4A22.17,22.17,0,0,1,355.9,162.75Z"/><path class="cls-18" d="M284.33,194.33c-1.36-.31-2.39.21-3.87,1.6s-7,5.41-7.6,6.12c-1.83,2.26-.06,4,.28,4.72s1.67-2.59,4.11-5.2,3.06-3.52,4.71-4.13C283.45,196.88,285.69,194.63,284.33,194.33Z"/><path class="cls-20" d="M404.75,185.65s-11-4.3-11.37-7A2.27,2.27,0,0,1,395.7,176s-8.68-1.64-16,11.74S404.75,185.65,404.75,185.65Z"/><path class="cls-21" d="M375.51,235s-6.48-2.52-6.68-4.09a1.33,1.33,0,0,1,1.37-1.57s-5.1-1-9.38,6.9S375.51,235,375.51,235Z"/><path class="cls-22" d="M419.33,211.37s-8.69-3.38-9-5.49a1.79,1.79,0,0,1,1.83-2.11s-6.84-1.29-12.58,9.25S419.33,211.37,419.33,211.37Z"/><path class="cls-23" d="M440.37,199.87s-6.48-2.52-6.68-4.09a1.33,1.33,0,0,1,1.37-1.57s-5.1-1-9.38,6.9S440.37,199.87,440.37,199.87Z"/><path class="cls-24" d="M379.58,205.13s-6.48-2.52-6.68-4.09a1.33,1.33,0,0,1,1.37-1.57s-5.1-1-9.38,6.9S379.58,205.13,379.58,205.13Z"/><path class="cls-25" d="M358,189.06s-6.48-2.52-6.68-4.09a1.33,1.33,0,0,1,1.37-1.57s-5.1-1-9.38,6.9S358,189.06,358,189.06Z"/><path class="cls-26" d="M352.25,214.85S345,212,344.8,210.28a1.49,1.49,0,0,1,1.52-1.76s-5.69-1.07-10.47,7.69S352.25,214.85,352.25,214.85Z"/><polygon class="cls-14" points="353.26 270.63 353.26 294.44 249.12 355.46 249.31 330.91 353.26 270.63"/><polygon class="cls-27" points="238.49 206.01 238.49 229.81 134.35 290.83 134.54 266.28 238.49 206.01"/><polygon class="cls-15" points="249.3 330.89 144.99 270.62 144.99 295.02 249.11 355.44 249.3 330.89"/><polygon class="cls-3" points="134.53 266.3 30.21 206.03 30.21 230.43 134.34 290.85 134.53 266.3"/><path class="cls-16" d="M242.59,229.16c-2.07.55,4.07.74,4.07.74a22.48,22.48,0,0,0,8.19-6.43c3.26-4.34-.56-2.4-.56-2.4A22.17,22.17,0,0,1,242.59,229.16Z"/><polygon class="cls-10" points="249.12 210.12 353.26 270.64 249.31 330.91 145.08 270.53 249.12 210.12"/><path class="cls-17" d="M265.21,219.47s2.75,6-1.24,10.43-16.4,9.89-23.28,10.28-16,1.72-20.17,9.48-5.32,15.57-6,20.86-3.25,7.29-2.84,11.5,6,7.54,6.21,14-2.15,15.49-2.15,15.49l-14.21-8.23-5.42-24.61,13.43-36.31,27.37-15.81L259.19,216Z"/><path class="cls-18" d="M261.93,217.57s1,8.62-2.3,10.81-9.4,6-15.48,6.5-15.18,1-22.53,7.45a34.92,34.92,0,0,0-10.88,20.39c-.76,5.06-1.77,14.12-3.8,15.92s-2.25,4.14,1.15,8.54,6.7,7.69,6.7,13.64-2,8.94-2,8.94l-18.41-25.2,10.2-44.89L237.93,225l21.26-9Z"/><path class="cls-19" d="M259.19,216s2.18,7.81-3.2,12.42-24.62.47-37.77,15.37-7.75,23.18-14,32.7S204.56,286,209,293s3.83,16.72,3.83,16.72l-67.7-39.23,104-60.4Z"/><path class="cls-18" d="M222.43,229.57c0,1.33.42,2.76,2.56,1.83s2.52-4.7,5-4.87,4.28-2.22,3.16-2.93-6.94,2-7.34,2.95S222.43,229.57,222.43,229.57Z"/><path class="cls-18" d="M196.13,278.63a12.57,12.57,0,0,0,4.68-5.52c1.09-2.58,5.05-10.5,4.29-11.5s-.31-5.51-1.15-6.25-.65,4.2-2.27,8.85-1.5,7.35-3.62,7.85S196.13,278.63,196.13,278.63Z"/><path class="cls-18" d="M236.93,226.51c3.32.45,12.52-3.15,12.23-5.16s-.9-.61-4.93-2.61-3.68,5.81-6.31,6.25S236.93,226.51,236.93,226.51Z"/><path class="cls-18" d="M242.59,229.16c-2.07.55,4.07.74,4.07.74a22.48,22.48,0,0,0,8.19-6.43c3.26-4.34-.56-2.4-.56-2.4A22.17,22.17,0,0,1,242.59,229.16Z"/><path class="cls-18" d="M196.79,287.55c-.45,1.32,0,2.4,1.18,4s4.64,7.56,5.28,8.2c2.05,2.06,4,.48,4.73.22s-2.4-1.93-4.74-4.64-3.18-3.41-3.61-5.12C199.24,288.69,197.24,286.22,196.79,287.55Z"/><path class="cls-5" d="M184,265.55c-1.22-.23-2.27-.47-2.93-.64a.65.65,0,0,1-.55.25l-.14,0,.65,5s-5.48-3.31-1.3-5.55a14.36,14.36,0,0,0-3.75,2,1.76,1.76,0,0,0-1-.45,3.3,3.3,0,0,1,.78.62,13,13,0,0,0-2.12,2.41s0-.07,0-.19a4.18,4.18,0,0,1,1.68-4.27c1.26-1,3.43-.82,4.19-.72a3.55,3.55,0,0,1-2-2.17c-.59-2,1.83-3.4,1.83-3.4a6.41,6.41,0,0,0,0,3.08,3,3,0,0,1-1.25,0s.15.21,1.23.28l.88,2a.69.69,0,0,1,.5-.2.77.77,0,0,1,.36.09.41.41,0,0,1,.25.34.36.36,0,0,1-.13.26,45.64,45.64,0,0,0,6.55.86c3.6.18,10.67-.55,11.49-.18a.62.62,0,0,1,.43.69,1,1,0,0,1-.19.65h-7.12A74.5,74.5,0,0,1,184,265.55Z"/><path class="cls-7" d="M200.65,246.74l-8.1.92S197.49,241.86,200.65,246.74Z"/><path class="cls-28" d="M201.09,246.41s.44-3.4-2.07-5a8.27,8.27,0,0,0-5.17-1.15,18.06,18.06,0,0,1,3.39,2.12,3.84,3.84,0,0,0,.88-.78,1.55,1.55,0,0,1-.63,1s2.86,2.76,2.93,4S201.09,246.41,201.09,246.41Z"/><polygon class="cls-7" points="209.01 245.94 200.69 247.1 204.5 244.43 209.01 245.94"/><path class="cls-28" d="M200.69,247.1a4.57,4.57,0,0,1,3.53-3,5.26,5.26,0,0,1,4.8,1.83,12.65,12.65,0,0,0-4.34,0,2.12,2.12,0,0,1,0-1.25s-.29.15-.39,1.23Z"/><path class="cls-28" d="M200.72,246.9l-8.17.75S198.14,242.53,200.72,246.9Z"/><path class="cls-29" d="M199.58,265.85c.53-.82-.5-7.89-.25-11.49a33.53,33.53,0,0,1,1.35-7c0-.26,0-.37-.11-.41.16,0,.48-.09.39.41a33.54,33.54,0,0,0-1.35,7c-.25,3.6.78,10.67.25,11.49a1,1,0,0,1-1,.43A.91.91,0,0,0,199.58,265.85Z"/><path class="cls-30" d="M198,259a53.54,53.54,0,0,1,1.09-8.34c.54-2,1.16-3.65,1.16-3.65a.52.52,0,0,1,.36,0l-.08,0s-.62,1.62-1.16,3.65a53.54,53.54,0,0,0-1.09,8.34c0,1.31,0,7.12,0,7.12a2,2,0,0,0,.64.19,1.84,1.84,0,0,1-.92-.19S198,260.28,198,259Z"/><path class="cls-29" d="M198.24,259a53.54,53.54,0,0,1,1.09-8.34c.54-2,1.16-3.65,1.16-3.65l.08,0c.09,0,.16.16.11.41a33.53,33.53,0,0,0-1.35,7c-.25,3.6.78,10.67.25,11.49a.91.91,0,0,1-.7.43,2,2,0,0,1-.64-.19S198.24,260.28,198.24,259Z"/><path class="cls-30" d="M200.78,246.88a.6.6,0,0,0-.13.36.61.61,0,0,0,.61.61.61.61,0,0,0,.41-.16.6.6,0,0,1-.48.25.61.61,0,0,1-.61-.61A.61.61,0,0,1,200.78,246.88Z"/><path class="cls-29" d="M200.65,247.24a.6.6,0,0,1,.13-.36.61.61,0,0,1,.41-.16.61.61,0,0,1,.61.61.6.6,0,0,1-.13.36.61.61,0,0,1-.41.16A.61.61,0,0,1,200.65,247.24Z"/><path class="cls-30" d="M199.81,246.69a.59.59,0,0,0-.13.36.61.61,0,0,0,.61.61.6.6,0,0,0,.4-.16.6.6,0,0,1-.48.25.61.61,0,0,1-.61-.61A.6.6,0,0,1,199.81,246.69Z"/><path class="cls-29" d="M199.68,247.05a.59.59,0,0,1,.13-.36.6.6,0,0,1,.4-.16.61.61,0,0,1,.61.61.59.59,0,0,1-.13.36.6.6,0,0,1-.4.16A.61.61,0,0,1,199.68,247.05Z"/><path class="cls-7" d="M201.09,246.41s.82-2.93-.95-4.47a7.33,7.33,0,0,0-6.29-1.65S200,239.6,201.09,246.41Z"/><g class="cls-31"><path class="cls-32" d="M200.7,248.6a1.09,1.09,0,0,1-.58,0,.84.84,0,0,1-.52-.26h0c.4,0,.7.3,1.09.25Z"/><path class="cls-32" d="M200.58,249.18a1.09,1.09,0,0,1-.58,0,.84.84,0,0,1-.52-.26h0c.4,0,.7.3,1.09.25Z"/><path class="cls-32" d="M200.35,249.76a1.09,1.09,0,0,1-.58,0,.84.84,0,0,1-.52-.26h0c.4,0,.7.3,1.09.25Z"/><path class="cls-32" d="M200.34,250.34a1.26,1.26,0,0,1-.67,0,1.06,1.06,0,0,1-.6-.29h0c.45,0,.81.35,1.26.28Z"/><path class="cls-32" d="M200.11,251.13a1.26,1.26,0,0,1-.67,0,1.07,1.07,0,0,1-.6-.29h0c.45,0,.81.35,1.26.28Z"/><path class="cls-32" d="M200,252a1.26,1.26,0,0,1-.67,0,1.06,1.06,0,0,1-.6-.29h0c.45,0,.81.35,1.26.28Z"/><path class="cls-32" d="M199.81,253.09a1.26,1.26,0,0,1-.67,0,1.06,1.06,0,0,1-.61-.27h0c.45,0,.82.32,1.27.24Z"/><path class="cls-32" d="M199.71,253.91a1.26,1.26,0,0,1-.67,0,1.06,1.06,0,0,1-.62-.26h0c.45,0,.83.31,1.27.22Z"/><path class="cls-32" d="M199.63,254.73a1.26,1.26,0,0,1-.67,0,1.06,1.06,0,0,1-.62-.26h0c.45,0,.83.31,1.27.22Z"/><path class="cls-32" d="M199.6,255.88a1.44,1.44,0,0,1-.76,0,1.31,1.31,0,0,1-.7-.29h0c.51,0,.94.35,1.44.25Z"/><path class="cls-32" d="M199.71,257a1.62,1.62,0,0,1-.85.06,1.59,1.59,0,0,1-.8-.29h0a4.48,4.48,0,0,1,.82.19,1.75,1.75,0,0,0,.82,0Z"/><path class="cls-32" d="M199.7,258.1a1.82,1.82,0,0,1-.95.06,1.9,1.9,0,0,1-.89-.32h0a6.25,6.25,0,0,1,.91.22,2,2,0,0,0,.92,0Z"/><path class="cls-32" d="M199.79,259.55a1.88,1.88,0,0,1-1,.06,2,2,0,0,1-.92-.33h0a7,7,0,0,1,.94.22,2,2,0,0,0,.95,0Z"/><path class="cls-32" d="M199.93,260.72a2.05,2.05,0,0,1-1,.2,2.31,2.31,0,0,1-1-.22h0a9.48,9.48,0,0,1,1,.11,2.2,2.2,0,0,0,1-.09Z"/><path class="cls-32" d="M200,262.38a2.27,2.27,0,0,1-1.16.22,2.7,2.7,0,0,1-1.15-.24h0c.4,0,.78.08,1.16.13a2.42,2.42,0,0,0,1.14-.11Z"/><path class="cls-32" d="M200.22,264.06a2.51,2.51,0,0,1-1.26.23,3.11,3.11,0,0,1-1.26-.25h0c.43,0,.85.09,1.27.14a2.66,2.66,0,0,0,1.25-.12Z"/></g><path class="cls-5" d="M243.54,224c-.94-.18-1.76-.37-2.27-.49a.5.5,0,0,1-.42.19l-.11,0,.51,3.89s-4.24-2.56-1-4.3a11.13,11.13,0,0,0-2.91,1.59,1.36,1.36,0,0,0-.75-.35,2.56,2.56,0,0,1,.61.48,10.1,10.1,0,0,0-1.64,1.86s0-.05,0-.15a3.24,3.24,0,0,1,1.3-3.31,4.63,4.63,0,0,1,3.25-.55,2.75,2.75,0,0,1-1.57-1.68c-.45-1.57,1.42-2.63,1.42-2.63a5,5,0,0,0,0,2.39,2.29,2.29,0,0,1-1,0s.11.16,1,.21l.69,1.53a.53.53,0,0,1,.39-.15.59.59,0,0,1,.28.07.32.32,0,0,1,.2.27.28.28,0,0,1-.1.2,35.35,35.35,0,0,0,5.07.67c2.79.14,8.26-.43,8.9-.14a.48.48,0,0,1,.33.54.79.79,0,0,1-.15.5H250A57.71,57.71,0,0,1,243.54,224Z"/><path class="cls-7" d="M256.41,209.44l-6.27.71S254,205.66,256.41,209.44Z"/><path class="cls-28" d="M256.75,209.19s.34-2.63-1.6-3.85a6.4,6.4,0,0,0-4-.89,14,14,0,0,1,2.63,1.64,3,3,0,0,0,.68-.61,1.2,1.2,0,0,1-.49.75s2.22,2.14,2.27,3.09S256.75,209.19,256.75,209.19Z"/><polygon class="cls-7" points="262.88 208.83 256.44 209.72 259.39 207.66 262.88 208.83"/><path class="cls-28" d="M256.43,209.72a3.54,3.54,0,0,1,2.73-2.31,4.08,4.08,0,0,1,3.72,1.42,9.79,9.79,0,0,0-3.36,0,1.64,1.64,0,0,1,0-1s-.23.11-.3,1Z"/><path class="cls-28" d="M256.46,209.57l-6.33.58S254.46,206.19,256.46,209.57Z"/><path class="cls-29" d="M255.58,224.25c.41-.63-.39-6.11-.19-8.9a26,26,0,0,1,1-5.43c0-.2,0-.29-.09-.32.12,0,.37-.07.3.32a26,26,0,0,0-1,5.43c-.19,2.79.61,8.26.19,8.9a.75.75,0,0,1-.76.33A.7.7,0,0,0,255.58,224.25Z"/><path class="cls-30" d="M254.33,218.92a41.47,41.47,0,0,1,.85-6.46c.42-1.58.9-2.83.9-2.83a.4.4,0,0,1,.28,0l-.07,0s-.48,1.25-.9,2.83a41.47,41.47,0,0,0-.85,6.46c0,1,0,5.51,0,5.51a1.56,1.56,0,0,0,.5.15,1.43,1.43,0,0,1-.71-.15S254.33,219.93,254.33,218.92Z"/><path class="cls-29" d="M254.54,218.92a41.47,41.47,0,0,1,.85-6.46c.42-1.58.9-2.83.9-2.83l.07,0c.07,0,.12.12.09.32a26,26,0,0,0-1,5.43c-.19,2.79.61,8.26.19,8.9a.7.7,0,0,1-.54.33,1.56,1.56,0,0,1-.5-.15S254.54,219.93,254.54,218.92Z"/><path class="cls-30" d="M256.51,209.56a.46.46,0,0,0-.1.28.48.48,0,0,0,.48.48.47.47,0,0,0,.32-.13.47.47,0,0,1-.37.2.48.48,0,0,1-.48-.48A.47.47,0,0,1,256.51,209.56Z"/><path class="cls-29" d="M256.41,209.84a.46.46,0,0,1,.1-.28.47.47,0,0,1,.32-.13.48.48,0,0,1,.48.48.47.47,0,0,1-.1.28.47.47,0,0,1-.32.13A.48.48,0,0,1,256.41,209.84Z"/><path class="cls-30" d="M255.75,209.41a.46.46,0,0,0-.1.28.47.47,0,0,0,.47.47.47.47,0,0,0,.31-.12.46.46,0,0,1-.37.19.47.47,0,0,1-.47-.47A.46.46,0,0,1,255.75,209.41Z"/><path class="cls-29" d="M255.65,209.69a.46.46,0,0,1,.1-.28.46.46,0,0,1,.31-.12.47.47,0,0,1,.47.47.46.46,0,0,1-.1.28.47.47,0,0,1-.31.12A.47.47,0,0,1,255.65,209.69Z"/><path class="cls-7" d="M256.75,209.19s.63-2.27-.73-3.46a5.68,5.68,0,0,0-4.87-1.28A5.15,5.15,0,0,1,256.75,209.19Z"/><g class="cls-33"><path class="cls-32" d="M256.45,210.88a.84.84,0,0,1-.45,0,.68.68,0,0,1-.4-.2h0c.31,0,.54.23.85.19Z"/><path class="cls-32" d="M256.35,211.34a.84.84,0,0,1-.45,0,.68.68,0,0,1-.4-.2h0c.31,0,.54.23.85.19Z"/><path class="cls-32" d="M256.17,211.79a.84.84,0,0,1-.45,0,.68.68,0,0,1-.4-.2h0c.31,0,.54.23.85.19Z"/><path class="cls-32" d="M256.16,212.24a1,1,0,0,1-.52,0,.86.86,0,0,1-.47-.22h0c.35,0,.63.27,1,.22Z"/><path class="cls-32" d="M256,212.85a1,1,0,0,1-.52,0,.86.86,0,0,1-.47-.22h0c.35,0,.63.27,1,.22Z"/><path class="cls-32" d="M255.88,213.55a1,1,0,0,1-.52,0,.86.86,0,0,1-.47-.22h0c.35,0,.63.27,1,.22Z"/><path class="cls-32" d="M255.75,214.36a1,1,0,0,1-.52,0,.86.86,0,0,1-.47-.21h0c.35,0,.64.25,1,.18Z"/><path class="cls-32" d="M255.68,215a1,1,0,0,1-.52,0,.86.86,0,0,1-.48-.2h0c.35,0,.64.24,1,.17Z"/><path class="cls-32" d="M255.62,215.64a1,1,0,0,1-.52,0,.86.86,0,0,1-.48-.2h0c.35,0,.64.24,1,.17Z"/><path class="cls-32" d="M255.6,216.53a1.11,1.11,0,0,1-.59,0,1.05,1.05,0,0,1-.54-.22h0c.39,0,.73.27,1.12.2Z"/><path class="cls-32" d="M255.68,217.4a1.26,1.26,0,0,1-.66,0,1.28,1.28,0,0,1-.62-.22h0c.44,0,.83.28,1.27.18Z"/><path class="cls-32" d="M255.67,218.25a1.41,1.41,0,0,1-.73,0,1.53,1.53,0,0,1-.69-.25h0c.49.05.93.32,1.42.2Z"/><path class="cls-32" d="M255.74,219.37a1.46,1.46,0,0,1-.76,0,1.61,1.61,0,0,1-.72-.25h0c.5.06,1,.33,1.46.21Z"/><path class="cls-32" d="M255.85,220.27a1.59,1.59,0,0,1-.81.15,1.85,1.85,0,0,1-.81-.17h0c.28,0,.54.06.81.09a1.7,1.7,0,0,0,.8-.07Z"/><path class="cls-32" d="M255.91,221.56a1.76,1.76,0,0,1-.9.17,2.15,2.15,0,0,1-.89-.18h0c.31,0,.6.07.9.1a1.87,1.87,0,0,0,.88-.08Z"/><path class="cls-32" d="M256.08,222.86a2,2,0,0,1-1,.18,2.48,2.48,0,0,1-1-.19h0c.34,0,.66.08,1,.11a2.06,2.06,0,0,0,1-.1Z"/></g><path class="cls-5" d="M177.38,276.28c-1.22-.23-2.27-.47-2.93-.64a.65.65,0,0,1-.55.25l-.14,0,.65,5s-5.48-3.31-1.3-5.55a14.36,14.36,0,0,0-3.75,2,1.76,1.76,0,0,0-1-.45,3.3,3.3,0,0,1,.78.62,13,13,0,0,0-2.12,2.41s0-.07,0-.19a4.18,4.18,0,0,1,1.68-4.27c1.26-1,3.43-.82,4.19-.72a3.55,3.55,0,0,1-2-2.17c-.59-2,1.83-3.4,1.83-3.4a6.41,6.41,0,0,0,0,3.08,3,3,0,0,1-1.25,0s.15.21,1.23.28l.88,2a.69.69,0,0,1,.5-.2.77.77,0,0,1,.36.09.41.41,0,0,1,.25.34.36.36,0,0,1-.13.26,45.64,45.64,0,0,0,6.55.86c3.6.18,10.67-.55,11.49-.18a.62.62,0,0,1,.43.69,1,1,0,0,1-.19.65h-7.12A74.5,74.5,0,0,1,177.38,276.28Z"/><path class="cls-7" d="M194,257.47l-8.1.92S190.83,252.59,194,257.47Z"/><path class="cls-28" d="M194.43,257.15s.44-3.4-2.07-5a8.27,8.27,0,0,0-5.17-1.15,18.06,18.06,0,0,1,3.39,2.12,3.84,3.84,0,0,0,.88-.78,1.55,1.55,0,0,1-.63,1s2.86,2.76,2.93,4S194.43,257.15,194.43,257.15Z"/><polygon class="cls-7" points="202.35 256.68 194.03 257.83 197.84 255.17 202.35 256.68"/><path class="cls-28" d="M194,257.83a4.57,4.57,0,0,1,3.53-3,5.26,5.26,0,0,1,4.8,1.83,12.65,12.65,0,0,0-4.34,0,2.12,2.12,0,0,1,0-1.25s-.29.15-.39,1.23Z"/><path class="cls-28" d="M194.06,257.64l-8.17.75S191.48,253.27,194.06,257.64Z"/><path class="cls-29" d="M192.93,276.59c.53-.82-.5-7.89-.25-11.49a33.53,33.53,0,0,1,1.35-7c0-.26,0-.37-.11-.41.16,0,.48-.09.39.41a33.54,33.54,0,0,0-1.35,7c-.25,3.6.78,10.67.25,11.49a1,1,0,0,1-1,.43A.91.91,0,0,0,192.93,276.59Z"/><path class="cls-30" d="M191.31,269.7a53.54,53.54,0,0,1,1.09-8.34c.54-2,1.16-3.65,1.16-3.65a.52.52,0,0,1,.36,0l-.08,0s-.62,1.62-1.16,3.65a53.54,53.54,0,0,0-1.09,8.34c0,1.31,0,7.12,0,7.12a2,2,0,0,0,.64.19,1.84,1.84,0,0,1-.92-.19S191.31,271,191.31,269.7Z"/><path class="cls-29" d="M191.58,269.7a53.54,53.54,0,0,1,1.09-8.34c.54-2,1.16-3.65,1.16-3.65l.08,0c.09,0,.16.16.11.41a33.53,33.53,0,0,0-1.35,7c-.25,3.6.78,10.67.25,11.49a.91.91,0,0,1-.7.43,2,2,0,0,1-.64-.19S191.59,271,191.58,269.7Z"/><path class="cls-30" d="M194.12,257.62a.6.6,0,0,0-.13.36.61.61,0,0,0,.61.61.61.61,0,0,0,.41-.16.6.6,0,0,1-.48.25.61.61,0,0,1-.61-.61A.61.61,0,0,1,194.12,257.62Z"/><path class="cls-29" d="M194,258a.6.6,0,0,1,.13-.36.61.61,0,0,1,.41-.16.61.61,0,0,1,.61.61.6.6,0,0,1-.13.36.61.61,0,0,1-.41.16A.61.61,0,0,1,194,258Z"/><path class="cls-30" d="M193.15,257.43a.59.59,0,0,0-.13.36.61.61,0,0,0,.61.61.6.6,0,0,0,.4-.16.6.6,0,0,1-.48.25.61.61,0,0,1-.61-.61A.6.6,0,0,1,193.15,257.43Z"/><path class="cls-29" d="M193,257.79a.59.59,0,0,1,.13-.36.6.6,0,0,1,.4-.16.61.61,0,0,1,.61.61.59.59,0,0,1-.13.36.6.6,0,0,1-.4.16A.61.61,0,0,1,193,257.79Z"/><path class="cls-7" d="M194.43,257.15s.82-2.93-.95-4.47a7.33,7.33,0,0,0-6.29-1.65S193.38,250.33,194.43,257.15Z"/><g class="cls-34"><path class="cls-32" d="M194,259.33a1.09,1.09,0,0,1-.58,0,.84.84,0,0,1-.52-.26h0c.4,0,.7.3,1.09.25Z"/><path class="cls-32" d="M193.92,259.91a1.09,1.09,0,0,1-.58,0,.84.84,0,0,1-.52-.26h0c.4,0,.7.3,1.09.25Z"/><path class="cls-32" d="M193.69,260.5a1.09,1.09,0,0,1-.58,0,.84.84,0,0,1-.52-.26h0c.4,0,.7.3,1.09.25Z"/><path class="cls-32" d="M193.68,261.08a1.26,1.26,0,0,1-.67,0,1.06,1.06,0,0,1-.6-.29h0c.45,0,.81.35,1.26.28Z"/><path class="cls-32" d="M193.45,261.86a1.26,1.26,0,0,1-.67,0,1.06,1.06,0,0,1-.6-.29h0c.45,0,.81.35,1.26.28Z"/><path class="cls-32" d="M193.31,262.78a1.26,1.26,0,0,1-.67,0,1.06,1.06,0,0,1-.6-.29h0c.45,0,.81.35,1.26.28Z"/><path class="cls-32" d="M193.15,263.82a1.26,1.26,0,0,1-.67,0,1.06,1.06,0,0,1-.61-.27h0c.45,0,.82.32,1.27.24Z"/><path class="cls-32" d="M193.05,264.64a1.26,1.26,0,0,1-.67,0,1.07,1.07,0,0,1-.62-.26h0c.45,0,.83.31,1.27.22Z"/><path class="cls-32" d="M193,265.47a1.26,1.26,0,0,1-.67,0,1.06,1.06,0,0,1-.62-.26h0c.45,0,.83.31,1.27.22Z"/><path class="cls-32" d="M192.94,266.62a1.43,1.43,0,0,1-.76,0,1.31,1.31,0,0,1-.7-.29h0c.51,0,.94.35,1.44.25Z"/><path class="cls-32" d="M193.06,267.74a1.62,1.62,0,0,1-.85.06,1.59,1.59,0,0,1-.8-.29h0a4.43,4.43,0,0,1,.82.19,1.76,1.76,0,0,0,.82,0Z"/><path class="cls-32" d="M193,268.84a1.82,1.82,0,0,1-.95.06,1.9,1.9,0,0,1-.89-.32h0a6.3,6.3,0,0,1,.91.22,2,2,0,0,0,.92,0Z"/><path class="cls-32" d="M193.14,270.28a1.88,1.88,0,0,1-1,.06,2,2,0,0,1-.92-.33h0a7,7,0,0,1,.94.22,2,2,0,0,0,.95,0Z"/><path class="cls-32" d="M193.28,271.45a2.06,2.06,0,0,1-1,.2,2.3,2.3,0,0,1-1-.22h0a9.42,9.42,0,0,1,1,.11,2.19,2.19,0,0,0,1-.09Z"/><path class="cls-32" d="M193.35,273.12a2.27,2.27,0,0,1-1.16.22,2.7,2.7,0,0,1-1.15-.24h0c.4,0,.78.08,1.16.13a2.41,2.41,0,0,0,1.14-.11Z"/><path class="cls-32" d="M193.57,274.8a2.52,2.52,0,0,1-1.26.23,3.1,3.1,0,0,1-1.26-.25h0c.43,0,.85.09,1.27.14a2.66,2.66,0,0,0,1.25-.12Z"/></g><path class="cls-5" d="M184.48,282.41c-1.32-.25-2.48-.52-3.2-.69a.71.71,0,0,1-.6.27l-.15,0,.71,5.47s-6-3.61-1.42-6.05c-1.43.28-4.09,2.23-4.09,2.23a1.92,1.92,0,0,0-1.06-.49,3.6,3.6,0,0,1,.86.68,14.21,14.21,0,0,0-2.31,2.62s0-.08,0-.21a4.56,4.56,0,0,1,1.83-4.65c1.37-1.11,3.74-.9,4.57-.78a3.87,3.87,0,0,1-2.21-2.37c-.64-2.21,2-3.71,2-3.71a7,7,0,0,0,0,3.36,3.22,3.22,0,0,1-1.36,0s.16.23,1.34.3l1,2.16a.75.75,0,0,1,.55-.22.83.83,0,0,1,.39.1.45.45,0,0,1,.28.37.39.39,0,0,1-.14.28,49.74,49.74,0,0,0,7.14.94c3.92.19,11.63-.6,12.52-.19a.67.67,0,0,1,.46.76,1.11,1.11,0,0,1-.21.71h-7.76A81.21,81.21,0,0,1,184.48,282.41Z"/><path class="cls-7" d="M202.58,261.91l-8.83,1S199.13,256.59,202.58,261.91Z"/><path class="cls-28" d="M203.06,261.56s.48-3.71-2.26-5.42a9,9,0,0,0-5.63-1.26,19.69,19.69,0,0,1,3.7,2.31,4.19,4.19,0,0,0,1-.86,1.69,1.69,0,0,1-.69,1.06s3.12,3,3.2,4.35S203.06,261.56,203.06,261.56Z"/><polygon class="cls-7" points="211.7 261.04 202.62 262.3 206.77 259.4 211.7 261.04"/><path class="cls-28" d="M202.62,262.3a5,5,0,0,1,3.85-3.25,5.74,5.74,0,0,1,5.23,2,13.78,13.78,0,0,0-4.73,0,2.31,2.31,0,0,1,0-1.36s-.32.16-.42,1.34Z"/><path class="cls-28" d="M202.66,262.09l-8.91.82S199.84,257.32,202.66,262.09Z"/><path class="cls-29" d="M201.42,282.74c.58-.89-.55-8.6-.27-12.52a36.55,36.55,0,0,1,1.47-7.65c.05-.28,0-.4-.12-.45.17-.05.52-.09.42.45a36.56,36.56,0,0,0-1.47,7.65c-.27,3.92.85,11.63.27,12.52a1.05,1.05,0,0,1-1.07.46A1,1,0,0,0,201.42,282.74Z"/><path class="cls-30" d="M199.65,275.24a58.36,58.36,0,0,1,1.19-9.1c.59-2.22,1.26-4,1.26-4a.57.57,0,0,1,.39,0l-.09,0s-.68,1.76-1.26,4a58.36,58.36,0,0,0-1.19,9.1c0,1.43,0,7.76,0,7.76a2.19,2.19,0,0,0,.7.21,2,2,0,0,1-1-.21S199.66,276.67,199.65,275.24Z"/><path class="cls-29" d="M200,275.24a58.36,58.36,0,0,1,1.19-9.1c.59-2.22,1.26-4,1.26-4l.09,0c.1,0,.17.17.12.45a36.55,36.55,0,0,0-1.47,7.65c-.27,3.92.85,11.63.27,12.52a1,1,0,0,1-.76.46,2.19,2.19,0,0,1-.7-.21S200,276.67,200,275.24Z"/><path class="cls-30" d="M202.72,262.07a.65.65,0,0,0-.14.39.67.67,0,0,0,.67.67.66.66,0,0,0,.44-.18.66.66,0,0,1-.53.28.67.67,0,0,1-.67-.67A.66.66,0,0,1,202.72,262.07Z"/><path class="cls-29" d="M202.58,262.46a.65.65,0,0,1,.14-.39.66.66,0,0,1,.44-.18.67.67,0,0,1,.67.67.65.65,0,0,1-.14.39.66.66,0,0,1-.44.18A.67.67,0,0,1,202.58,262.46Z"/><path class="cls-30" d="M201.66,261.86a.65.65,0,0,0-.14.39.66.66,0,0,0,.66.66.65.65,0,0,0,.44-.17.65.65,0,0,1-.52.27.66.66,0,0,1-.66-.66A.65.65,0,0,1,201.66,261.86Z"/><path class="cls-29" d="M201.52,262.25a.65.65,0,0,1,.14-.39.65.65,0,0,1,.44-.17.66.66,0,0,1,.66.66.65.65,0,0,1-.14.39.65.65,0,0,1-.44.17A.66.66,0,0,1,201.52,262.25Z"/><path class="cls-7" d="M203.06,261.56s.89-3.19-1-4.87a8,8,0,0,0-6.86-1.8S201.91,254.13,203.06,261.56Z"/><g class="cls-35"><path class="cls-32" d="M202.64,263.93a1.18,1.18,0,0,1-.64,0,.92.92,0,0,1-.57-.28h0a1.74,1.74,0,0,1,.6.17,1.34,1.34,0,0,0,.6.1Z"/><path class="cls-32" d="M202.5,264.57a1.19,1.19,0,0,1-.64,0,.92.92,0,0,1-.57-.28h0a1.73,1.73,0,0,1,.6.17,1.34,1.34,0,0,0,.6.1Z"/><path class="cls-32" d="M202.26,265.21a1.18,1.18,0,0,1-.64,0,.92.92,0,0,1-.57-.28h0a1.74,1.74,0,0,1,.6.17,1.34,1.34,0,0,0,.6.1Z"/><path class="cls-32" d="M202.24,265.84a1.37,1.37,0,0,1-.73,0,1.16,1.16,0,0,1-.66-.31h0c.49,0,.88.38,1.37.31Z"/><path class="cls-32" d="M202,266.7a1.37,1.37,0,0,1-.73,0,1.16,1.16,0,0,1-.66-.31h0c.49,0,.88.38,1.37.31Z"/><path class="cls-32" d="M201.84,267.69a1.37,1.37,0,0,1-.73,0,1.16,1.16,0,0,1-.66-.31h0c.49,0,.88.38,1.37.31Z"/><path class="cls-32" d="M201.66,268.83a1.37,1.37,0,0,1-.73,0,1.16,1.16,0,0,1-.67-.29h0c.49,0,.9.35,1.38.26Z"/><path class="cls-32" d="M201.56,269.72a1.37,1.37,0,0,1-.73,0,1.16,1.16,0,0,1-.67-.28h0c.49,0,.9.34,1.39.24Z"/><path class="cls-32" d="M201.47,270.62a1.37,1.37,0,0,1-.73,0,1.16,1.16,0,0,1-.67-.28h0c.49,0,.9.34,1.39.24Z"/><path class="cls-32" d="M201.44,271.88a1.56,1.56,0,0,1-.82,0,1.43,1.43,0,0,1-.76-.31v0a3.49,3.49,0,0,1,.79.2,1.72,1.72,0,0,0,.79.07Z"/><path class="cls-32" d="M201.56,273.1a1.76,1.76,0,0,1-.92.07,1.73,1.73,0,0,1-.87-.32v0a4.84,4.84,0,0,1,.89.2,1.92,1.92,0,0,0,.89,0Z"/><path class="cls-32" d="M201.54,274.3a2,2,0,0,1-1,.07,2.07,2.07,0,0,1-1-.35v0a6.84,6.84,0,0,1,1,.23,2.13,2.13,0,0,0,1,0Z"/><path class="cls-32" d="M201.65,275.87a2,2,0,0,1-1.07.07,2.19,2.19,0,0,1-1-.36v0a7.63,7.63,0,0,1,1,.24,2.2,2.2,0,0,0,1,0Z"/><path class="cls-32" d="M201.8,277.14a2.24,2.24,0,0,1-1.14.22,2.51,2.51,0,0,1-1.14-.24v0a10.28,10.28,0,0,1,1.14.12,2.39,2.39,0,0,0,1.13-.1Z"/><path class="cls-32" d="M201.88,279a2.48,2.48,0,0,1-1.26.23,2.94,2.94,0,0,1-1.26-.26v0c.43,0,.85.08,1.26.14a2.63,2.63,0,0,0,1.24-.12Z"/><path class="cls-32" d="M202.12,280.79a2.74,2.74,0,0,1-1.38.25,3.39,3.39,0,0,1-1.38-.27v0c.47,0,.92.1,1.38.16a2.9,2.9,0,0,0,1.36-.14Z"/></g><path class="cls-36" d="M291.44,252.06s-11-4.3-11.37-7a2.27,2.27,0,0,1,2.33-2.68s-8.68-1.64-16,11.74S291.44,252.06,291.44,252.06Z"/><path class="cls-37" d="M262.21,301.44s-6.48-2.52-6.68-4.09a1.33,1.33,0,0,1,1.37-1.57s-5.1-1-9.38,6.9S262.21,301.44,262.21,301.44Z"/><path class="cls-38" d="M306,277.78s-8.69-3.38-9-5.49a1.79,1.79,0,0,1,1.83-2.11s-6.84-1.29-12.58,9.25S306,277.78,306,277.78Z"/><path class="cls-39" d="M327.06,266.28s-6.48-2.52-6.68-4.09a1.33,1.33,0,0,1,1.37-1.57s-5.1-1-9.38,6.9S327.06,266.28,327.06,266.28Z"/><path class="cls-40" d="M266.27,271.53s-6.48-2.52-6.68-4.09a1.33,1.33,0,0,1,1.37-1.57s-5.1-1-9.38,6.9S266.27,271.53,266.27,271.53Z"/><path class="cls-41" d="M244.74,255.46s-6.48-2.52-6.68-4.09a1.33,1.33,0,0,1,1.37-1.57s-5.1-1-9.38,6.9S244.74,255.46,244.74,255.46Z"/><path class="cls-42" d="M238.95,281.25s-7.23-2.82-7.45-4.56a1.49,1.49,0,0,1,1.52-1.76s-5.69-1.07-10.47,7.69S238.95,281.25,238.95,281.25Z"/><rect class="cls-6" x="200.84" y="164.35" width="1" height="7.96"/><path class="cls-7" d="M201.34,140.88V167.7C190.52,164.05,201.34,140.88,201.34,140.88Z"/><path class="cls-8" d="M201.34,167.7V140.88S212.91,162.24,201.34,167.7Z"/><rect class="cls-6" x="192.47" y="155.87" width="0.73" height="5.83"/><path class="cls-43" d="M192.84,138.65v19.67C184.9,155.64,192.84,138.65,192.84,138.65Z"/><path class="cls-44" d="M192.84,158.32V138.65S201.31,154.31,192.84,158.32Z"/><rect class="cls-6" x="210.09" y="172.73" width="0.66" height="5.28"/><path class="cls-11" d="M210.43,157.16v17.79C203.25,172.53,210.43,157.16,210.43,157.16Z"/><path class="cls-12" d="M210.43,174.95V157.16S218.09,171.32,210.43,174.95Z"/><rect class="cls-6" x="219.38" y="180.28" width="0.82" height="6.54"/><path class="cls-7" d="M219.79,161v22C210.9,180,219.79,161,219.79,161Z"/><path class="cls-8" d="M219.79,183V161S229.29,178.54,219.79,183Z"/><path class="cls-11" d="M218.32,171.93v17.79C211.14,187.3,218.32,171.93,218.32,171.93Z"/><path class="cls-12" d="M218.32,189.72V171.93S226,186.09,218.32,189.72Z"/><path class="cls-9" d="M213.73,230.67S232,237.16,235,240.77l-7.28-2.43s-13.17-6.58-16-6.49Z"/><path class="cls-10" d="M221.27,248.42s-7.2-12.3-16.83-12.3l8-4.69,7.28,2.5a6.69,6.69,0,0,1,1.13.51L235,240.77Z"/><path class="cls-10" d="M218.47,254a14.51,14.51,0,0,0-2.06-11.8c-4-6,6-1.11,6-1.11l1.6,10.54Z"/><path class="cls-5" d="M248.76,98.43s19.58-8,25.22-.63l4.64-.05v.7l-4.58.05C270.13,105.49,248.76,98.43,248.76,98.43Z"/><rect class="cls-6" x="277.76" y="91.49" width="0.87" height="6.94"/><path class="cls-7" d="M278.2,71V94.41C268.75,91.22,278.2,71,278.2,71Z"/><path class="cls-8" d="M278.2,94.41V71S288.28,89.64,278.2,94.41Z"/><path class="cls-5" d="M251.64,86.73s13.34-5.47,17.19-.43l3.16,0v.48l-3.12,0C266.2,91.54,251.64,86.73,251.64,86.73Z"/><rect class="cls-6" x="271.4" y="82" width="0.6" height="4.73"/><path class="cls-7" d="M271.69,68V84C265.26,81.82,271.69,68,271.69,68Z"/><path class="cls-8" d="M271.69,84V68S278.57,80.74,271.69,84Z"/><path class="cls-5" d="M245,82.72s10.8-4.43,13.92-.35l2.56,0v.39l-2.53,0C256.79,86.61,245,82.72,245,82.72Z"/><rect class="cls-6" x="261" y="78.88" width="0.48" height="3.83"/><path class="cls-7" d="M261.24,67.58V80.49C256,78.74,261.24,67.58,261.24,67.58Z"/><path class="cls-8" d="M261.24,80.49V67.58S266.81,77.86,261.24,80.49Z"/><path class="cls-5" d="M262,110.08s21.6-8.86,27.84-.69l5.12-.06v.77l-5.05.06C285.63,117.87,262,110.08,262,110.08Z"/><rect class="cls-6" x="294.05" y="102.42" width="0.96" height="7.66"/><path class="cls-7" d="M294.53,79.81v25.83C284.11,102.13,294.53,79.81,294.53,79.81Z"/><path class="cls-8" d="M294.53,105.64V79.81S305.67,100.38,294.53,105.64Z"/><path class="cls-5" d="M251.89,117.52s21.6-8.86,27.84-.69l5.12-.06v.77l-5.05.06C275.47,125.31,251.89,117.52,251.89,117.52Z"/><rect class="cls-6" x="283.89" y="109.86" width="0.96" height="7.66"/><path class="cls-7" d="M284.37,87.25v25.83C274,109.56,284.37,87.25,284.37,87.25Z"/><path class="cls-8" d="M284.37,113.08V87.25S295.51,107.81,284.37,113.08Z"/><path class="cls-5" d="M275.33,118.27s21.6-8.86,27.84-.69l5.12-.06v.77l-5.05.06C298.91,126.06,275.33,118.27,275.33,118.27Z"/><rect class="cls-6" x="307.34" y="110.61" width="0.96" height="7.66"/><path class="cls-7" d="M307.82,88v25.83C297.4,110.32,307.82,88,307.82,88Z"/><path class="cls-8" d="M307.82,113.83V88S319,108.57,307.82,113.83Z"/><path class="cls-45" d="M254.37,287a13.43,13.43,0,0,0-6.83,1.77c-3.69,2.24-7.68,7.8-7.75,7.89.22,0,7-1.06,10.63-3.3a13.43,13.43,0,0,0,5.14-6.3A9.3,9.3,0,0,0,254.37,287Z"/><g class="cls-46"><path class="cls-2" d="M239.79,296.64h0a1.16,1.16,0,0,0,1.37,1.14c2.21-.42,6.57-1.42,9.26-3.06a13.16,13.16,0,0,0,4.7-5.3,4.2,4.2,0,0,0,.44-1.88V287a13.43,13.43,0,0,1-5.14,6.3C246.76,295.57,240,296.6,239.79,296.64Z"/><g class="cls-47"><g class="cls-46"><path class="cls-2" d="M239.79,296.64h0a1.16,1.16,0,0,0,1.37,1.14c2.21-.42,6.57-1.42,9.26-3.06a13,13,0,0,0,4.55-5,5.09,5.09,0,0,0,.59-2.38V287a13.43,13.43,0,0,1-5.14,6.3c-3.66,2.23-10.41,3.27-10.63,3.3"/></g></g></g><path class="cls-48" d="M248.89,291.11A.16.16,0,0,0,249,291v-16.2a.16.16,0,1,0-.32,0V291A.16.16,0,0,0,248.89,291.11Z"/><path class="cls-49" d="M248.41,274.76S242.3,283.43,243,290l5.44-3.27s-.92-1,0-3.48A16,16,0,0,1,248.41,274.76Z"/><path class="cls-10" d="M164.91,181.25c1,2.22,4.59,3.45,9.11,4.58-3.5-1-6.18-2.08-7-3.88-2.85-6.42,12.73-10,12.73-10l-6.8-3.86-.08,0,4.75,2.79S162.06,174.61,164.91,181.25Z"/><path class="cls-10" d="M205.55,225.11c-8.57-8.14-3.34-14.26-6.08-26.58-1.55-7-10.91-9.33-19.21-11.21,7.7,1.88,15.66,4.46,17.08,11.09,2.73,12.75-2.49,19.09,6.08,27.51l-5.28,3.17.17.21Z"/><path class="cls-10" d="M174,185.83c1.89.52,4,1,6.24,1.49C178.11,186.79,176,186.32,174,185.83Z"/><path class="cls-9" d="M185.89,196c-9.06-5.7-24.34-2.35-25.29-11.67s2.83-14,12.29-16.23l-2-1.2c-9.53,2.26-13.33,7.16-12.37,16.82s16.23,6.18,25.29,12.08,5.89,10.46,6.77,19.47a31,31,0,0,0,5.65,15l2-1.18a29.64,29.64,0,0,1-5.49-14.29C191.78,206.09,195,201.69,185.89,196Z"/><path class="cls-10" d="M197.34,198.41c-1.42-6.64-9.38-9.21-17.08-11.09-2.21-.5-4.34-1-6.24-1.49-4.52-1.13-8.16-2.36-9.11-4.58-2.85-6.64,12.73-10.38,12.73-10.38l-4.75-2.79c-9.47,2.19-13.25,6.93-12.29,16.23s16.23,6,25.29,11.67,5.89,10.1,6.77,18.81a29.64,29.64,0,0,0,5.49,14.29l5.28-3.17C194.86,217.5,200.08,211.16,197.34,198.41Z"/><polygon class="cls-5" points="240.74 175.36 311.23 216.32 240.87 257.12 170.31 216.24 240.74 175.36"/><polygon class="cls-50" points="170.22 189 240.69 229.85 310.93 189.08 240.58 148.23 170.22 189"/><polygon class="cls-51" points="170.35 189.08 170.35 205.14 240.64 246.33 240.52 229.76 170.35 189.08"/><polygon class="cls-52" points="240.52 229.76 310.93 189.08 310.93 205.55 240.64 246.33 240.52 229.76"/><polygon class="cls-5" points="235.08 217.84 261.13 217.84 310.93 189.08 278.07 170 235.08 217.84"/><polygon class="cls-53" points="199.3 185.62 199.27 195.37 196.12 193.55 196.14 183.79 199.3 185.62"/><polygon class="cls-54" points="199.32 185.62 239.95 161.94 239.95 161.94 199.3 195.37 199.32 185.62"/><polygon class="cls-55" points="196.14 183.79 236.79 160.11 239.95 161.94 199.3 185.62 196.14 183.79"/><g class="cls-46"><polygon class="cls-55" points="279.94 180 279.95 186.56 242.44 208.37 242.42 201.81 279.94 180"/><polygon class="cls-55" points="242.44 208.37 207.19 187.89 207.18 181.33 242.42 201.81 242.44 208.37"/><polygon class="cls-55" points="242.42 201.81 207.18 181.33 247.25 158.19 279.94 180 242.42 201.81"/></g><g class="cls-46"><g class="cls-46"><g class="cls-56"><g class="cls-46"><path class="cls-57" d="M210.47,162.1l-.05,18.5h0l.05-18.5h0"/><path class="cls-58" d="M210.47,162.11l-.05,18.5a.53.53,0,0,1,0,.09l.05-18.5a.53.53,0,0,0,0-.09"/><path class="cls-59" d="M210.46,162.2l-.05,18.5,0,.09.05-18.5,0-.09"/><path class="cls-60" d="M210.43,162.29l-.05,18.5,0,.09.05-18.5,0-.09"/><path class="cls-61" d="M210.39,162.38l-.05,18.5-.06.09.05-18.5.06-.09"/><path class="cls-62" d="M210.33,162.47l-.05,18.5-.1.1.05-18.5.1-.1"/><path class="cls-63" d="M210.23,162.58l-.05,18.5a1.2,1.2,0,0,1-.2.15l.05-18.5a1.2,1.2,0,0,0,.2-.15"/><path class="cls-64" d="M210,162.72l-.05,18.5h0a1.76,1.76,0,0,1-.34.15l.05-18.5a1.76,1.76,0,0,0,.34-.15h0"/><path class="cls-63" d="M209.68,162.88l-.05,18.5-.29.07.05-18.5.29-.07"/><path class="cls-62" d="M209.38,163l-.05,18.5-.2,0,.05-18.5.2,0"/><path class="cls-61" d="M209.18,163l-.05,18.5H209L209,163h.17"/><path class="cls-60" d="M209,163l-.05,18.5h-.16l.05-18.5H209"/><path class="cls-59" d="M208.85,163l-.05,18.5h-.15l.05-18.5h.15"/><path class="cls-58" d="M208.7,163l-.05,18.5-.15,0,.05-18.5.15,0"/><path class="cls-57" d="M208.55,163l-.05,18.5-.15,0,.05-18.5.15,0"/><path class="cls-65" d="M208.4,162.94l-.05,18.5-.16,0,.05-18.5.16,0"/><path class="cls-66" d="M208.23,162.9l-.05,18.5-.19-.06.05-18.5.19.06"/><path class="cls-67" d="M208,162.84l-.05,18.5-.22-.11a.77.77,0,0,1-.46-.64l.05-18.5a.77.77,0,0,0,.46.64l.22.11"/></g></g></g><path class="cls-68" d="M210,161.46a.67.67,0,0,1,0,1.27,2.42,2.42,0,0,1-2.2,0,.67.67,0,0,1,0-1.27A2.42,2.42,0,0,1,210,161.46Z"/></g><path class="cls-69" d="M210.47,162.1a.59.59,0,0,1-.11.33h0a1,1,0,0,1-.33.29,1.86,1.86,0,0,1-.48.18l-.07,0a2.55,2.55,0,0,1-.54.06h0a2.57,2.57,0,0,1-.56-.06h0a1.89,1.89,0,0,1-.5-.19.77.77,0,0,1-.46-.64l-.05,18.5a.77.77,0,0,0,.46.64l.22.11.19.06.09,0h.07l.15,0,.15,0h.48l.2,0,.08,0,.07,0,.13,0a1.75,1.75,0,0,0,.34-.15h0a1.22,1.22,0,0,0,.2-.15l.1-.1,0,0h0l0-.05,0-.09,0-.09a.55.55,0,0,0,0-.09h0Z"/><g class="cls-46"><g class="cls-46"><g class="cls-70"><g class="cls-46"><path class="cls-57" d="M215.38,165l-.05,18.5h0l.05-18.5h0"/><path class="cls-58" d="M215.38,165l-.05,18.5a.53.53,0,0,1,0,.09l.05-18.5a.53.53,0,0,0,0-.09"/><path class="cls-59" d="M215.37,165.11l-.05,18.5,0,.09.05-18.5,0-.09"/><path class="cls-60" d="M215.35,165.2l-.05,18.5,0,.09.05-18.5,0-.09"/><path class="cls-61" d="M215.3,165.28l-.05,18.5-.06.09.05-18.5.06-.09"/><path class="cls-62" d="M215.24,165.38l-.05,18.5-.1.1.05-18.5.1-.1"/><path class="cls-63" d="M215.15,165.48l-.05,18.5a1.2,1.2,0,0,1-.2.15l.05-18.5a1.2,1.2,0,0,0,.2-.15"/><path class="cls-64" d="M214.95,165.63l-.05,18.5h0a1.76,1.76,0,0,1-.34.15l.05-18.5a1.76,1.76,0,0,0,.34-.15h0"/><path class="cls-63" d="M214.59,165.79l-.05,18.5-.29.07.05-18.5.29-.07"/><path class="cls-62" d="M214.3,165.86l-.05,18.5-.2,0,.05-18.5.2,0"/><path class="cls-61" d="M214.1,165.89l-.05,18.5h-.17l.05-18.5h.17"/><path class="cls-60" d="M213.93,165.9l-.05,18.5h-.16l.05-18.5h.16"/><path class="cls-59" d="M213.77,165.9l-.05,18.5h-.15l.05-18.5h.15"/><path class="cls-58" d="M213.61,165.89l-.05,18.5-.15,0,.05-18.5.15,0"/><path class="cls-57" d="M213.46,165.87l-.05,18.5-.15,0,.05-18.5.15,0"/><path class="cls-65" d="M213.31,165.85l-.05,18.5-.16,0,.05-18.5.16,0"/><path class="cls-66" d="M213.15,165.81l-.05,18.5-.19-.06.05-18.5.19.06"/><path class="cls-67" d="M213,165.74l-.05,18.5-.22-.11a.77.77,0,0,1-.46-.64l.05-18.5a.77.77,0,0,0,.46.64l.22.11"/></g></g></g><path class="cls-68" d="M214.92,164.37a.67.67,0,0,1,0,1.27,2.42,2.42,0,0,1-2.2,0,.67.67,0,0,1,0-1.27A2.42,2.42,0,0,1,214.92,164.37Z"/></g><g class="cls-46"><g class="cls-46"><g class="cls-71"><g class="cls-46"><path class="cls-57" d="M219.87,167.78l-.05,18.5h0l.05-18.5h0"/><path class="cls-58" d="M219.87,167.8l-.05,18.5a.53.53,0,0,1,0,.09l.05-18.5a.53.53,0,0,0,0-.09"/><path class="cls-59" d="M219.86,167.89l-.05,18.5,0,.09.05-18.5,0-.09"/><path class="cls-60" d="M219.83,168l-.05,18.5,0,.09.05-18.5,0-.09"/><path class="cls-61" d="M219.79,168.06l-.05,18.5-.06.09.05-18.5.06-.09"/><path class="cls-62" d="M219.73,168.15l-.05,18.5-.1.1.05-18.5.1-.1"/><path class="cls-63" d="M219.63,168.26l-.05,18.5a1.2,1.2,0,0,1-.2.15l.05-18.5a1.2,1.2,0,0,0,.2-.15"/><path class="cls-64" d="M219.44,168.4l-.05,18.5h0a1.76,1.76,0,0,1-.34.15l.05-18.5a1.76,1.76,0,0,0,.34-.15h0"/><path class="cls-63" d="M219.08,168.56l-.05,18.5-.29.07.05-18.5.29-.07"/><path class="cls-62" d="M218.78,168.64l-.05,18.5-.2,0,.05-18.5.2,0"/><path class="cls-61" d="M218.58,168.66l-.05,18.5h-.17l.05-18.5h.17"/><path class="cls-60" d="M218.41,168.68l-.05,18.5h-.16l.05-18.5h.16"/><path class="cls-59" d="M218.25,168.68l-.05,18.5H218l.05-18.5h.15"/><path class="cls-58" d="M218.1,168.67l-.05,18.5-.15,0,.05-18.5.15,0"/><path class="cls-57" d="M217.95,168.65l-.05,18.5-.15,0,.05-18.5.15,0"/><path class="cls-65" d="M217.8,168.62l-.05,18.5-.16,0,.05-18.5.16,0"/><path class="cls-66" d="M217.63,168.59l-.05,18.5-.19-.06.05-18.5.19.06"/><path class="cls-67" d="M217.45,168.52l-.05,18.5-.22-.11a.77.77,0,0,1-.46-.64l.05-18.5a.77.77,0,0,0,.46.64l.22.11"/></g></g></g><path class="cls-68" d="M219.41,167.14a.67.67,0,0,1,0,1.27,2.42,2.42,0,0,1-2.2,0,.67.67,0,0,1,0-1.27A2.42,2.42,0,0,1,219.41,167.14Z"/></g><g class="cls-46"><g class="cls-46"><g class="cls-72"><g class="cls-46"><path class="cls-57" d="M224.35,170.56l-.05,18.5h0l.05-18.5h0"/><path class="cls-58" d="M224.35,170.57l-.05,18.5a.53.53,0,0,1,0,.09l.05-18.5a.53.53,0,0,0,0-.09"/><path class="cls-59" d="M224.34,170.66l-.05,18.5,0,.09.05-18.5,0-.09"/><path class="cls-60" d="M224.32,170.75l-.05,18.5,0,.09.05-18.5,0-.09"/><path class="cls-61" d="M224.28,170.84l-.05,18.5-.06.09.05-18.5.06-.09"/><path class="cls-62" d="M224.21,170.93l-.05,18.5-.1.1.05-18.5.1-.1"/><path class="cls-63" d="M224.12,171l-.05,18.5a1.2,1.2,0,0,1-.2.15l.05-18.5a1.2,1.2,0,0,0,.2-.15"/><path class="cls-64" d="M223.92,171.18l-.05,18.5h0a1.76,1.76,0,0,1-.34.15l.05-18.5a1.76,1.76,0,0,0,.34-.15h0"/><path class="cls-63" d="M223.56,171.34l-.05,18.5-.29.07.05-18.5.29-.07"/><path class="cls-62" d="M223.27,171.41l-.05,18.5-.2,0,.05-18.5.2,0"/><path class="cls-61" d="M223.07,171.44l-.05,18.5h-.17l.05-18.5h.17"/><path class="cls-60" d="M222.9,171.45l-.05,18.5h-.16l.05-18.5h.16"/><path class="cls-59" d="M222.74,171.45l-.05,18.5h-.15l.05-18.5h.15"/><path class="cls-58" d="M222.59,171.45l-.05,18.5-.15,0,.05-18.5.15,0"/><path class="cls-57" d="M222.44,171.43l-.05,18.5-.15,0,.05-18.5.15,0"/><path class="cls-65" d="M222.28,171.4l-.05,18.5-.16,0,.05-18.5.16,0"/><path class="cls-66" d="M222.12,171.36l-.05,18.5-.19-.06.05-18.5.19.06"/><path class="cls-67" d="M221.93,171.3l-.05,18.5-.22-.11a.77.77,0,0,1-.46-.64l.05-18.5a.77.77,0,0,0,.46.64l.22.11"/></g></g></g><path class="cls-68" d="M223.9,169.92a.67.67,0,0,1,0,1.27,2.42,2.42,0,0,1-2.2,0,.67.67,0,0,1,0-1.27A2.42,2.42,0,0,1,223.9,169.92Z"/></g><g class="cls-46"><g class="cls-46"><g class="cls-73"><g class="cls-46"><path class="cls-57" d="M228.84,173.34l-.05,18.5h0l.05-18.5h0"/><path class="cls-58" d="M228.84,173.35l-.05,18.5a.53.53,0,0,1,0,.09l.05-18.5a.53.53,0,0,0,0-.09"/><path class="cls-59" d="M228.83,173.44l-.05,18.5,0,.09.05-18.5,0-.09"/><path class="cls-60" d="M228.8,173.53l-.05,18.5,0,.09.05-18.5,0-.09"/><path class="cls-61" d="M228.76,173.62l-.05,18.5-.06.09.05-18.5.06-.09"/><path class="cls-62" d="M228.7,173.71l-.05,18.5-.1.1.05-18.5.1-.1"/><path class="cls-63" d="M228.6,173.81l-.05,18.5a1.2,1.2,0,0,1-.2.15l.05-18.5a1.2,1.2,0,0,0,.2-.15"/><path class="cls-64" d="M228.41,174l-.05,18.5h0a1.76,1.76,0,0,1-.34.15l.05-18.5a1.76,1.76,0,0,0,.34-.15h0"/><path class="cls-63" d="M228,174.12l-.05,18.5-.29.07.05-18.5.29-.07"/><path class="cls-62" d="M227.75,174.19l-.05,18.5-.2,0,.05-18.5.2,0"/><path class="cls-61" d="M227.56,174.22l-.05,18.5h-.17l.05-18.5h.17"/><path class="cls-60" d="M227.38,174.23l-.05,18.5h-.16l.05-18.5h.16"/><path class="cls-59" d="M227.23,174.23l-.05,18.5H227l.05-18.5h.15"/><path class="cls-58" d="M227.07,174.22l-.05,18.5-.15,0,.05-18.5.15,0"/><path class="cls-57" d="M226.92,174.21l-.05,18.5-.15,0,.05-18.5.15,0"/><path class="cls-65" d="M226.77,174.18l-.05,18.5-.16,0,.05-18.5.16,0"/><path class="cls-66" d="M226.61,174.14l-.05,18.5-.19-.06.05-18.5.19.06"/><path class="cls-67" d="M226.42,174.08l-.05,18.5-.22-.11a.77.77,0,0,1-.46-.64l.05-18.5a.77.77,0,0,0,.46.64l.22.11"/></g></g></g><path class="cls-68" d="M228.38,172.7a.67.67,0,0,1,0,1.27,2.42,2.42,0,0,1-2.2,0,.67.67,0,0,1,0-1.27A2.42,2.42,0,0,1,228.38,172.7Z"/></g><g class="cls-46"><g class="cls-46"><g class="cls-74"><g class="cls-46"><path class="cls-57" d="M233.33,176.11l-.05,18.5h0l.05-18.5h0"/><path class="cls-58" d="M233.33,176.13l-.05,18.5a.53.53,0,0,1,0,.09l.05-18.5a.53.53,0,0,0,0-.09"/><path class="cls-59" d="M233.32,176.22l-.05,18.5,0,.09.05-18.5,0-.09"/><path class="cls-60" d="M233.29,176.3l-.05,18.5,0,.09.05-18.5,0-.09"/><path class="cls-61" d="M233.25,176.39l-.05,18.5-.06.09.05-18.5.06-.09"/><path class="cls-62" d="M233.19,176.49l-.05,18.5-.1.1.05-18.5.1-.1"/><path class="cls-63" d="M233.09,176.59l-.05,18.5a1.2,1.2,0,0,1-.2.15l.05-18.5a1.2,1.2,0,0,0,.2-.15"/><path class="cls-64" d="M232.89,176.73l-.05,18.5h0a1.76,1.76,0,0,1-.34.15l.05-18.5a1.76,1.76,0,0,0,.34-.15h0"/><path class="cls-63" d="M232.53,176.9l-.05,18.5-.29.07.05-18.5.29-.07"/><path class="cls-62" d="M232.24,177l-.05,18.5-.2,0L232,177l.2,0"/><path class="cls-61" d="M232,177l-.05,18.5h-.17l.05-18.5H232"/><path class="cls-60" d="M231.87,177l-.05,18.5h-.16l.05-18.5h.16"/><path class="cls-59" d="M231.71,177l-.05,18.5h-.15l.05-18.5h.15"/><path class="cls-58" d="M231.56,177l-.05,18.5-.15,0,.05-18.5.15,0"/><path class="cls-57" d="M231.41,177l-.05,18.5-.15,0,.05-18.5.15,0"/><path class="cls-65" d="M231.25,177l-.05,18.5-.16,0,.05-18.5.16,0"/><path class="cls-66" d="M231.09,176.92l-.05,18.5-.19-.06.05-18.5.19.06"/><path class="cls-67" d="M230.9,176.85l-.05,18.5-.22-.11a.77.77,0,0,1-.46-.64l.05-18.5a.77.77,0,0,0,.46.64l.22.11"/></g></g></g><path class="cls-68" d="M232.87,175.47a.67.67,0,0,1,0,1.27,2.42,2.42,0,0,1-2.2,0,.67.67,0,0,1,0-1.27A2.42,2.42,0,0,1,232.87,175.47Z"/></g><g class="cls-46"><g class="cls-46"><g class="cls-75"><g class="cls-46"><path class="cls-57" d="M237.81,178.89l-.05,18.5h0l.05-18.5h0"/><path class="cls-58" d="M237.81,178.91l-.05,18.5a.53.53,0,0,1,0,.09l.05-18.5a.53.53,0,0,0,0-.09"/><path class="cls-59" d="M237.8,179l-.05,18.5,0,.09.05-18.5,0-.09"/><path class="cls-60" d="M237.78,179.08l-.05,18.5,0,.09.05-18.5,0-.09"/><path class="cls-61" d="M237.74,179.17l-.05,18.5-.06.09.05-18.5.06-.09"/><path class="cls-62" d="M237.67,179.26l-.05,18.5-.1.1.05-18.5.1-.1"/><path class="cls-63" d="M237.58,179.37l-.05,18.5a1.2,1.2,0,0,1-.2.15l.05-18.5a1.2,1.2,0,0,0,.2-.15"/><path class="cls-64" d="M237.38,179.51l-.05,18.5h0a1.76,1.76,0,0,1-.34.15l.05-18.5a1.76,1.76,0,0,0,.34-.15h0"/><path class="cls-63" d="M237,179.67l-.05,18.5-.29.07.05-18.5.29-.07"/><path class="cls-62" d="M236.73,179.75l-.05,18.5-.2,0,.05-18.5.2,0"/><path class="cls-61" d="M236.53,179.77l-.05,18.5h-.17l.05-18.5h.17"/><path class="cls-60" d="M236.36,179.78l-.05,18.5h-.16l.05-18.5h.16"/><path class="cls-59" d="M236.2,179.79l-.05,18.5H236l.05-18.5h.15"/><path class="cls-58" d="M236,179.78l-.05,18.5-.15,0,.05-18.5.15,0"/><path class="cls-57" d="M235.89,179.76l-.05,18.5-.15,0,.05-18.5.15,0"/><path class="cls-65" d="M235.74,179.73l-.05,18.5-.16,0,.05-18.5.16,0"/><path class="cls-66" d="M235.58,179.69l-.05,18.5-.19-.06.05-18.5.19.06"/><path class="cls-67" d="M235.39,179.63l-.05,18.5-.22-.11a.77.77,0,0,1-.46-.64l.05-18.5a.77.77,0,0,0,.46.64l.22.11"/></g></g></g><path class="cls-68" d="M237.35,178.25a.67.67,0,0,1,0,1.27,2.42,2.42,0,0,1-2.2,0,.67.67,0,0,1,0-1.27A2.42,2.42,0,0,1,237.35,178.25Z"/></g><g class="cls-46"><g class="cls-46"><g class="cls-76"><g class="cls-46"><path class="cls-57" d="M242.3,181.67l-.05,18.5h0l.05-18.5h0"/><path class="cls-58" d="M242.3,181.68l-.05,18.5a.53.53,0,0,1,0,.09l.05-18.5a.53.53,0,0,0,0-.09"/><path class="cls-59" d="M242.29,181.77l-.05,18.5,0,.09.05-18.5,0-.09"/><path class="cls-60" d="M242.26,181.86l-.05,18.5,0,.09.05-18.5,0-.09"/><path class="cls-61" d="M242.22,181.95l-.05,18.5-.06.09.05-18.5.06-.09"/><path class="cls-62" d="M242.16,182l-.05,18.5-.1.1.05-18.5.1-.1"/><path class="cls-63" d="M242.06,182.14l-.05,18.5a1.2,1.2,0,0,1-.2.15l.05-18.5a1.2,1.2,0,0,0,.2-.15"/><path class="cls-64" d="M241.87,182.29l-.05,18.5h0a1.76,1.76,0,0,1-.34.15l.05-18.5a1.76,1.76,0,0,0,.34-.15h0"/><path class="cls-63" d="M241.51,182.45l-.05,18.5-.29.07.05-18.5.29-.07"/><path class="cls-62" d="M241.21,182.52l-.05,18.5-.2,0,.05-18.5.2,0"/><path class="cls-61" d="M241,182.55,241,201h-.17l.05-18.5H241"/><path class="cls-60" d="M240.84,182.56l-.05,18.5h-.16l.05-18.5h.16"/><path class="cls-59" d="M240.68,182.56l-.05,18.5h-.15l.05-18.5h.15"/><path class="cls-58" d="M240.53,182.55l-.05,18.5-.15,0,.05-18.5.15,0"/><path class="cls-57" d="M240.38,182.54l-.05,18.5-.15,0,.05-18.5.15,0"/><path class="cls-65" d="M240.23,182.51l-.05,18.5-.16,0,.05-18.5.16,0"/><path class="cls-66" d="M240.07,182.47,240,201l-.19-.06.05-18.5.19.06"/><path class="cls-67" d="M239.88,182.41l-.05,18.5-.22-.11a.77.77,0,0,1-.46-.64l.05-18.5a.77.77,0,0,0,.46.64l.22.11"/></g></g></g><path class="cls-68" d="M241.84,181a.67.67,0,0,1,0,1.27,2.42,2.42,0,0,1-2.2,0,.67.67,0,0,1,0-1.27A2.42,2.42,0,0,1,241.84,181Z"/></g><polygon class="cls-53" points="231.71 215.66 198.94 195.26 206.95 182.04 240.98 202.12 231.71 215.66"/><polygon class="cls-53" points="215.58 198.4 215.56 205.1 209.73 201.73 209.75 195.03 215.58 198.4"/><polyline class="cls-54" points="215.56 205.1 215.58 198.4 222.56 194.34"/><polyline class="cls-55" points="237.35 204.21 238.06 210.88 231.58 215.66"/><polygon class="cls-55" points="209.75 195.03 216.72 190.97 222.56 194.34 215.58 198.4 209.75 195.03"/><polygon class="cls-53" points="235.08 208.22 235.05 217.98 231.9 216.16 231.93 206.4 235.08 208.22"/><polygon class="cls-77" points="235.11 208.08 280.2 180.48 280.21 181.59 280.21 187.1 235.08 217.84 235.11 208.08"/><polygon class="cls-55" points="231.78 206.4 277.12 178.67 280.05 180.63 234.94 208.22 231.78 206.4"/><g class="cls-46"><polygon class="cls-68" points="249.77 178.29 246.69 180.07 243.59 178.28 246.67 176.5 249.77 178.29"/><polygon class="cls-54" points="249.77 178.29 249.72 198.93 246.64 200.72 246.69 180.07 249.77 178.29"/><polygon class="cls-53" points="246.69 180.07 246.64 200.72 243.53 198.93 243.59 178.28 246.69 180.07"/></g><g class="cls-46"><polygon class="cls-68" points="256.92 174.1 253.84 175.89 250.74 174.1 253.82 172.31 256.92 174.1"/><polygon class="cls-54" points="256.92 174.1 256.86 194.75 253.78 196.53 253.84 175.89 256.92 174.1"/><polygon class="cls-53" points="253.84 175.89 253.78 196.53 250.68 194.74 250.74 174.1 253.84 175.89"/></g><g class="cls-46"><polygon class="cls-68" points="264.07 169.91 260.99 171.7 257.89 169.91 260.97 168.12 264.07 169.91"/><polygon class="cls-54" points="264.07 169.91 264.01 190.56 260.93 192.35 260.99 171.7 264.07 169.91"/><polygon class="cls-53" points="260.99 171.7 260.93 192.35 257.83 190.56 257.89 169.91 260.99 171.7"/></g><g class="cls-46"><polygon class="cls-68" points="271.22 165.73 268.14 167.51 265.04 165.72 268.12 163.94 271.22 165.73"/><polygon class="cls-54" points="271.22 165.73 271.16 186.37 268.08 188.16 268.14 167.51 271.22 165.73"/><polygon class="cls-53" points="268.14 167.51 268.08 188.16 264.98 186.37 265.04 165.72 268.14 167.51"/></g><g class="cls-46"><polygon class="cls-68" points="278.1 161.27 275.02 163.06 271.92 161.27 275 159.48 278.1 161.27"/><polygon class="cls-54" points="278.1 161.27 278.04 181.92 274.96 183.71 275.02 163.06 278.1 161.27"/><polygon class="cls-53" points="275.02 163.06 274.96 183.71 271.86 181.91 271.92 161.27 275.02 163.06"/></g><path class="cls-78" d="M215.41,165a.59.59,0,0,1-.11.33h0a1,1,0,0,1-.33.29,1.86,1.86,0,0,1-.48.18l-.07,0a2.55,2.55,0,0,1-.54.06h0a2.57,2.57,0,0,1-.56-.06h0a1.89,1.89,0,0,1-.5-.19.77.77,0,0,1-.46-.64l-.05,18.5a.77.77,0,0,0,.46.64l.22.11.19.06.09,0h.07l.15,0,.15,0h.48l.2,0,.08,0,.07,0,.13,0a1.75,1.75,0,0,0,.34-.15h0a1.22,1.22,0,0,0,.2-.15l.1-.1,0,0h0l0-.05,0-.09,0-.09a.55.55,0,0,0,0-.09h0Z"/><path class="cls-79" d="M219.87,167.78a.59.59,0,0,1-.11.33h0a1,1,0,0,1-.33.29,1.86,1.86,0,0,1-.48.18l-.07,0a2.55,2.55,0,0,1-.54.06h0a2.57,2.57,0,0,1-.56-.06h0a1.89,1.89,0,0,1-.5-.19.77.77,0,0,1-.46-.64l-.05,18.5a.77.77,0,0,0,.46.64l.22.11.19.06.09,0h.07l.15,0,.15,0h.48l.2,0,.08,0,.07,0,.13,0a1.75,1.75,0,0,0,.34-.15h0a1.22,1.22,0,0,0,.2-.15l.1-.1,0,0h0l0-.05,0-.09,0-.09a.55.55,0,0,0,0-.09h0Z"/><path class="cls-80" d="M224.38,170.56a.59.59,0,0,1-.11.33h0a1,1,0,0,1-.33.29,1.86,1.86,0,0,1-.48.18l-.07,0a2.55,2.55,0,0,1-.54.06h0a2.57,2.57,0,0,1-.56-.06h0a1.89,1.89,0,0,1-.5-.19.77.77,0,0,1-.46-.64l-.05,18.5a.77.77,0,0,0,.46.64l.22.11.19.06.09,0h.07l.15,0,.15,0H223l.2,0,.08,0,.07,0,.13,0a1.75,1.75,0,0,0,.34-.15h0a1.22,1.22,0,0,0,.2-.15l.1-.1,0,0h0l0-.05,0-.09,0-.09a.55.55,0,0,0,0-.09h0Z"/><path class="cls-81" d="M228.87,173.34a.59.59,0,0,1-.11.33h0a1,1,0,0,1-.33.29,1.86,1.86,0,0,1-.48.18l-.07,0a2.55,2.55,0,0,1-.54.06h0a2.57,2.57,0,0,1-.56-.06h0a1.89,1.89,0,0,1-.5-.19.77.77,0,0,1-.46-.64l-.05,18.5a.77.77,0,0,0,.46.64l.22.11.19.06.09,0h.07l.15,0,.15,0h.48l.2,0,.08,0,.07,0,.13,0a1.75,1.75,0,0,0,.34-.15h0a1.22,1.22,0,0,0,.2-.15l.1-.1,0,0h0l0-.05,0-.09,0-.09a.55.55,0,0,0,0-.09h0Z"/><path class="cls-82" d="M233.34,176.11a.59.59,0,0,1-.11.33h0a1,1,0,0,1-.33.29,1.86,1.86,0,0,1-.48.18l-.07,0a2.55,2.55,0,0,1-.54.06h0a2.57,2.57,0,0,1-.56-.06h0a1.89,1.89,0,0,1-.5-.19.77.77,0,0,1-.46-.64l-.05,18.5a.77.77,0,0,0,.46.64l.22.11.19.06.09,0h.07l.15,0,.15,0H232l.2,0,.08,0,.07,0,.13,0a1.75,1.75,0,0,0,.34-.15h0a1.22,1.22,0,0,0,.2-.15l.1-.1,0,0h0l0-.05,0-.09,0-.09a.55.55,0,0,0,0-.09h0Z"/><path class="cls-83" d="M237.84,178.89a.59.59,0,0,1-.11.33h0a1,1,0,0,1-.33.29,1.86,1.86,0,0,1-.48.18l-.07,0a2.55,2.55,0,0,1-.54.06h0a2.57,2.57,0,0,1-.56-.06h0a1.89,1.89,0,0,1-.5-.19.77.77,0,0,1-.46-.64l-.05,18.5a.77.77,0,0,0,.46.64l.22.11.19.06.09,0h.07l.15,0,.15,0h.48l.2,0,.08,0,.07,0,.13,0a1.75,1.75,0,0,0,.34-.15h0a1.22,1.22,0,0,0,.2-.15l.1-.1,0,0h0l0-.05,0-.09,0-.09a.55.55,0,0,0,0-.09h0Z"/><path class="cls-84" d="M242.3,181.67a.59.59,0,0,1-.11.33h0a1,1,0,0,1-.33.29,1.86,1.86,0,0,1-.48.18l-.07,0a2.55,2.55,0,0,1-.54.06h0a2.57,2.57,0,0,1-.56-.06h0a1.89,1.89,0,0,1-.5-.19.77.77,0,0,1-.46-.64l-.05,18.5a.77.77,0,0,0,.46.64l.22.11.19.06.09,0h.07l.15,0,.15,0H241l.2,0,.08,0,.07,0,.13,0a1.75,1.75,0,0,0,.34-.15h0a1.22,1.22,0,0,0,.2-.15l.1-.1,0,0h0l0-.05,0-.09,0-.09a.55.55,0,0,0,0-.09h0Z"/><polygon class="cls-55" points="280.24 153.58 280.26 160.14 240.19 183.28 240.17 176.72 280.24 153.58"/><polygon class="cls-53" points="240.19 183.28 204.95 162.8 204.93 156.24 240.17 176.72 240.19 183.28"/><polygon class="cls-53" points="240.17 176.72 204.93 156.24 245 133.1 280.24 153.58 240.17 176.72"/><polygon class="cls-55" points="199.13 155.49 241.42 130.91 262.6 122.66 220.31 147.23 199.13 155.49"/><polygon class="cls-85" points="220.31 147.23 241.38 179.88 199.13 155.49 220.31 147.23"/><polygon class="cls-77" points="220.31 147.23 262.6 122.66 283.67 155.31 241.38 179.88 220.31 147.23"/><g class="cls-46"><polygon class="cls-53" points="202.55 155.48 203.26 155.07 219.14 148.88 218.44 149.28 202.55 155.48"/><polygon class="cls-53" points="218.44 149.28 234.24 173.77 202.55 155.48 218.44 149.28"/><polygon class="cls-53" points="218.44 149.28 219.14 148.88 234.94 173.36 234.24 173.77 218.44 149.28"/></g><g class="cls-46"><g class="cls-46"><g class="cls-86"><g class="cls-46"><path class="cls-87" d="M215.83,159.55l1-.57a.38.38,0,0,0-.05.23,1.71,1.71,0,0,0,.37.92l-1,.57a1.71,1.71,0,0,1-.37-.92.38.38,0,0,1,.05-.23"/></g></g></g><polygon class="cls-88" points="217.51 162.44 218.49 161.87 218.49 162.82 217.5 163.39 217.51 162.44"/><g class="cls-46"><g class="cls-89"><g class="cls-46"><path class="cls-87" d="M216.14,160.7l1-.57a5.19,5.19,0,0,0,1,1l-1,.57a5.19,5.19,0,0,1-1-1"/></g></g></g><g class="cls-46"><g class="cls-90"><g class="cls-46"><path class="cls-87" d="M215.86,159.52l1-.57,0,0-1,.57,0,0"/></g></g></g><g class="cls-46"><g class="cls-91"><g class="cls-46"><path class="cls-87" d="M217.51,162l1-.57.5.32a3.14,3.14,0,0,0,.48.24l-1,.57a3.14,3.14,0,0,1-.48-.24l-.5-.32"/></g></g></g><polygon class="cls-88" points="218.87 163.13 219.85 162.56 219.84 163.6 218.86 164.17 218.87 163.13"/><g class="cls-46"><g class="cls-92"><g class="cls-46"><path class="cls-87" d="M215.36,157.77l1-.57a.59.59,0,0,1,.61.05,1.26,1.26,0,0,1,.44.46l-1,.57a1.26,1.26,0,0,0-.44-.46.59.59,0,0,0-.61-.05"/></g></g></g><g class="cls-46"><g class="cls-93"><g class="cls-46"><path class="cls-87" d="M216.42,158.28l1-.57a1.17,1.17,0,0,1,.19.59.85.85,0,0,1-.07.38.32.32,0,0,1-.11.13l-1,.57a.32.32,0,0,0,.11-.13.85.85,0,0,0,.07-.38,1.17,1.17,0,0,0-.19-.59"/></g></g></g><g class="cls-46"><g class="cls-94"><g class="cls-46"><path class="cls-87" d="M218.87,162.68l1-.57a.7.7,0,0,0,.48-.06l-1,.57a.7.7,0,0,1-.48.06"/></g></g></g><g class="cls-46"><g class="cls-95"><g class="cls-46"><polyline class="cls-87" points="219.37 162.61 220.35 162.04 220.35 162.04 219.37 162.61 219.37 162.61"/></g></g></g><g class="cls-46"><g class="cls-96"><g class="cls-46"><path class="cls-87" d="M219.33,158.18l1-.57a5.43,5.43,0,0,1,1.33,3.32,1.8,1.8,0,0,1-.49,1.47l-1,.57a1.8,1.8,0,0,0,.49-1.47,5.43,5.43,0,0,0-1.33-3.32"/></g></g></g><g class="cls-46"><g class="cls-97"><g class="cls-46"><path class="cls-87" d="M220.17,163l1-.57-.1.07-1,.57.1-.07"/></g></g></g><polygon class="cls-88" points="217.52 158.18 218.5 157.61 218.49 161.43 217.51 162 217.52 158.18"/><polygon class="cls-88" points="218.88 159.93 219.86 159.36 219.85 162.11 218.87 162.68 218.88 159.93"/><polygon class="cls-98" points="217.53 155.87 218.51 155.3 219.48 156.56 218.5 157.13 217.53 155.87"/><polygon class="cls-98" points="218.88 157.61 219.86 157.04 220.31 157.61 219.33 158.18 218.88 157.61"/><g class="cls-46"><g class="cls-99"><g class="cls-46"><path class="cls-87" d="M216.52,152.89l1-.57a.78.78,0,0,0-.23.63,3.25,3.25,0,0,0,.86,1.85l-1,.57a3.25,3.25,0,0,1-.86-1.85.78.78,0,0,1,.23-.63"/></g></g></g><g class="cls-46"><g class="cls-100"><g class="cls-46"><path class="cls-87" d="M216.63,152.81l1-.57-.11.08-1,.57.11-.08"/></g></g></g><g class="cls-46"><g class="cls-101"><g class="cls-46"><path class="cls-87" d="M215.92,152.33l1-.57a1.54,1.54,0,0,1,1.23-.07l-1,.57a1.54,1.54,0,0,0-1.23.07"/></g></g></g><polygon class="cls-88" points="217.53 152.82 218.52 152.25 218.51 155.3 217.53 155.87 217.53 152.82"/><polygon class="cls-88" points="218.89 153.66 219.87 153.09 219.86 157.04 218.88 157.61 218.89 153.66"/><g class="cls-46"><g class="cls-102"><g class="cls-46"><path class="cls-87" d="M219.37,155.86l1-.57a.44.44,0,0,1,.26-.06l-1,.57a.44.44,0,0,0-.26.06"/></g></g></g><g class="cls-46"><g class="cls-103"><g class="cls-46"><path class="cls-87" d="M219.63,155.8l1-.57h.25l-1,.57h-.25"/></g></g></g><polygon class="cls-104" points="219.88 155.79 220.86 155.22 221.01 155.15 220.03 155.72 219.88 155.79"/><polygon class="cls-105" points="217.16 151.2 218.14 150.63 218.52 150.85 217.54 151.42 217.16 151.2"/><polygon class="cls-88" points="217.54 151.42 218.52 150.85 218.52 151.82 217.54 152.39 217.54 151.42"/><g class="cls-46"><g class="cls-106"><g class="cls-46"><path class="cls-87" d="M217.54,152.39l1-.57a4.52,4.52,0,0,1,.53.27l.44.28-1,.57-.44-.28a4.52,4.52,0,0,0-.53-.27"/></g></g></g><g class="cls-46"><g class="cls-107"><g class="cls-46"><path class="cls-87" d="M218.89,153.22l1-.57a5.69,5.69,0,0,1,1.3,1.47,3.22,3.22,0,0,1,.5,1.68,1.42,1.42,0,0,1-.24.88.51.51,0,0,1-.15.14l-1,.57a.51.51,0,0,0,.15-.14,1.42,1.42,0,0,0,.24-.88,3.22,3.22,0,0,0-.5-1.68,5.69,5.69,0,0,0-1.3-1.47"/></g></g></g><polygon class="cls-88" points="218.9 152.2 219.88 151.63 219.88 152.65 218.9 153.22 218.9 152.2"/><polygon class="cls-105" points="218.52 151.98 219.5 151.41 219.88 151.63 218.9 152.2 218.52 151.98"/><path class="cls-108" d="M219.33,158.18a5.43,5.43,0,0,1,1.33,3.32,1.8,1.8,0,0,1-.49,1.47,1.46,1.46,0,0,1-1.3.16v1l-.38-.22v-1a5.2,5.2,0,0,1-.48-.24,5.12,5.12,0,0,1-.5-.32v.95l-.38-.22v-1a6.53,6.53,0,0,1-.79-.72,6.25,6.25,0,0,1-.66-.82,4,4,0,0,1-.47-1,3.29,3.29,0,0,1-.17-1.06.88.88,0,0,1,.28-.77.57.57,0,0,1,.66,0,1.26,1.26,0,0,1,.44.46,1.17,1.17,0,0,1,.19.59.85.85,0,0,1-.07.38.27.27,0,0,1-.16.15,1.35,1.35,0,0,1-.28.07.41.41,0,0,0-.27.08.38.38,0,0,0-.05.23,1.71,1.71,0,0,0,.37.92,5.19,5.19,0,0,0,1,1v-4l-.66-.85a5,5,0,0,1-1.14-3,1.65,1.65,0,0,1,.51-1.43,1.49,1.49,0,0,1,1.31-.11V151.2l.38.22v1a4.52,4.52,0,0,1,.53.27l.44.28V152l.38.22v1a5.69,5.69,0,0,1,1.3,1.47,3.22,3.22,0,0,1,.5,1.68,1.42,1.42,0,0,1-.24.88.42.42,0,0,1-.61.1,1.36,1.36,0,0,1-.49-.47,1.15,1.15,0,0,1-.19-.61.5.5,0,0,1,.13-.37.46.46,0,0,1,.33-.11h.25l.14-.07.06-.21a1.74,1.74,0,0,0-.33-.86,4.42,4.42,0,0,0-.87-1v3.95Zm-.84,4.37v-3.11l-1-1.26V162l.5.32a3.14,3.14,0,0,0,.48.24m0-5.43v-3.76c-.15-.11-.32-.22-.49-.31a4.39,4.39,0,0,0-.49-.24v3.05l1,1.26m1.14,5.18a1.26,1.26,0,0,0,.07-.42,2.11,2.11,0,0,0-.09-.61,2.63,2.63,0,0,0-.23-.56q-.15-.25-.27-.43l-.26-.35v2.76a.68.68,0,0,0,.5-.07.65.65,0,0,0,.28-.31m-2.5-6.92v-2.64a.71.71,0,0,0-.63.16.78.78,0,0,0-.23.63,3.25,3.25,0,0,0,.86,1.85"/></g></g></svg>