<svg id="Layer_1" data-name="Layer 1" xmlns="http://www.w3.org/2000/svg" viewBox="0 0 1426 184"><defs><style>.cls-1{fill:#363038;}.cls-2{fill:#40394f;}</style></defs><title>hero-mega</title><path class="cls-1" d="M254.67,76.75a1.62,1.62,0,1,0,.28,0Z"/><path class="cls-1" d="M259.77,81.06a.23.23,0,0,0,.42,0,6.14,6.14,0,0,0,.7-3,6.18,6.18,0,0,0-12.36.15,6.14,6.14,0,0,0,.69,2.83.23.23,0,1,0,.41-.21,5.72,5.72,0,1,1,10.15,0A.23.23,0,0,0,259.77,81.06Z"/><path class="cls-1" d="M245.9,89.33a.46.46,0,0,0,.6-.71,12.83,12.83,0,1,1,16.44,0,.46.46,0,0,0,.6.71,13.76,13.76,0,1,0-17.63,0Z"/><path class="cls-1" d="M261.2,84.55h0a.37.37,0,0,0,.61.11,9.7,9.7,0,1,0-14.21.08.37.37,0,1,0,.54-.51,9,9,0,1,1,13.14-.08A.37.37,0,0,0,261.2,84.55Z"/><path class="cls-2" d="M1426,175V44.33c-.73,0-1.49-.05-2.23-.09-2-1.95-3.76-7.36-3.76-7.36a3.17,3.17,0,0,0,2.78,0c-2.13-.74-4.57-7.75-4.57-7.75a9.65,9.65,0,0,0,2.36.39c-2.4-2.35-4.92-9.5-4.92-9.5v0s-2.52,7.15-4.92,9.5a9.65,9.65,0,0,0,2.36-.39s-2.44,7-4.57,7.75a3.17,3.17,0,0,0,2.78,0s-1.7,5.19-3.63,7.23q-3.52.08-7.13.25c-.31-.81-.49-1.3-.49-1.3v0s-.19.53-.52,1.38l-1.45.06a29.48,29.48,0,0,1-3.08-6.56,3.17,3.17,0,0,0,2.78,0c-2.13-.74-4.57-7.75-4.57-7.75a9.65,9.65,0,0,0,2.36.39c-2.4-2.35-4.92-9.5-4.92-9.5v0s-2.52,7.15-4.92,9.5a9.65,9.65,0,0,0,2.36-.39s-2.44,7-4.57,7.75a3.17,3.17,0,0,0,2.78,0s-2,6.11-4.13,7.68l.19.11c-1.65.16-3.32.35-5,.53L1381,44.1c-2-1.47-3.86-7.16-3.86-7.16a3,3,0,0,0,2.6,0c-2-.69-4.28-7.22-4.28-7.22a9.07,9.07,0,0,0,2.21.37c-2.25-2.19-4.6-8.85-4.6-8.85v0s-2.36,6.66-4.6,8.85a9.07,9.07,0,0,0,2.21-.37s-2.27,6.48-4.26,7.21c-2-2.37-3.83-7.66-3.83-7.66a10.84,10.84,0,0,0,2.65.44c-2.7-2.64-5.53-10.67-5.53-10.67v0s-2.83,8-5.53,10.67a10.84,10.84,0,0,0,2.65-.44s-2.74,7.88-5.14,8.71a3.56,3.56,0,0,0,3.12,0s-2.24,6.86-4.64,8.63l4.53,2.63q-4.05.62-8.17,1.31c-.55-1.34-.89-2.38-.89-2.38a3.35,3.35,0,0,0,2.93,0c-2.25-.78-4.82-8.13-4.82-8.13a10.22,10.22,0,0,0,2.49.41c-2.53-2.47-5.18-10-5.18-10v0s-2.66,7.5-5.18,10a10.21,10.21,0,0,0,2.49-.41s-2.57,7.35-4.82,8.13a3.35,3.35,0,0,0,2.93,0s-.42,1.28-1.08,2.83c-.21-.56-.33-.9-.33-.9v0s-.27.75-.72,1.91c-1.59-1.93-2.95-6.06-2.95-6.06a2.77,2.77,0,0,0,2.43,0c-1.86-.65-4-6.77-4-6.77a8.43,8.43,0,0,0,2.06.34c-2.1-2.05-4.3-8.3-4.3-8.3v0s-2.2,6.24-4.3,8.3a8.43,8.43,0,0,0,2.06-.34s-2.13,6.13-4,6.77a2.77,2.77,0,0,0,2.43,0s-1.74,5.34-3.6,6.71l3.61,2.09-5.06,1a29.43,29.43,0,0,1-2.6-5.7,3,3,0,0,0,2.6,0c-2-.69-4.28-7.22-4.28-7.22a9.07,9.07,0,0,0,2.21.37c-2.25-2.19-4.6-8.85-4.6-8.85v0s-2.36,6.66-4.6,8.85a9.07,9.07,0,0,0,2.21-.37s-2.17,6.19-4.13,7.14a39.9,39.9,0,0,1-3.28-7,11.43,11.43,0,0,0,2.8.47c-2.84-2.79-5.83-11.26-5.83-11.26v0s-3,8.47-5.83,11.26a11.44,11.44,0,0,0,2.8-.47s-2.89,8.31-5.42,9.19a3.75,3.75,0,0,0,3.29,0s-.66,2-1.64,4.17c-2.53-2-5.14-9.48-5.14-9.48a12.33,12.33,0,0,0,3,.5C1287.24,44.16,1284,35,1284,35v0s-3.22,9.13-6.29,12.13a12.33,12.33,0,0,0,3-.5s-3.12,9-5.84,9.91a4,4,0,0,0,3.55,0s-2,6.11-4.35,8.91l-.85.2a49.06,49.06,0,0,1-3.6-7.86,13.64,13.64,0,0,0,3.32.55C1269.61,55,1266.06,45,1266.06,45v0s-3.55,10-6.93,13.31a13.65,13.65,0,0,0,3.32-.55S1259,67.58,1256,68.62a4.48,4.48,0,0,0,3.91,0l-.08.23q-12,2.91-24.4,6a36.88,36.88,0,0,1-2.68-5.89,10.13,10.13,0,0,0,2.48.41c-2.52-2.47-5.17-10-5.17-10v0s-2.65,7.51-5.17,10a10.14,10.14,0,0,0,2.48-.41s-2.57,7.37-4.8,8.14a3.33,3.33,0,0,0,2.92,0l-.1.28-16.64,4.2c-.62-1.43-1-2.57-1-2.57a10.22,10.22,0,0,0,2.49.41c-2.53-2.47-5.18-10-5.18-10v0s-2.66,7.5-5.18,10a10.21,10.21,0,0,0,2.49-.41,40.91,40.91,0,0,1-2.05,4.74q-20.18,5.12-40.91,10.34c-.54-1.2-.9-2.22-.9-2.22a7.35,7.35,0,0,0,1.79.3c-1.82-1.78-3.73-7.17-3.73-7.17v0s-1.91,5.4-3.73,7.17a7.35,7.35,0,0,0,1.79-.3,28,28,0,0,1-1.73,3.87l-5.64,1.4c-1.81-1.82-3.69-7.13-3.69-7.13v0s-1.91,5.4-3.73,7.17a7.35,7.35,0,0,0,1.79-.3s-.29.82-.73,1.84c-2.72.67-5.44,5.34-8.17,6a57.77,57.77,0,0,0-23.23,11.56l-26.35,19.55C954,148,809,143,699,138.65c-164-6.49-201-5.73-328-20.7-24.62-2.9-53.65-5.16-84.44-6.92-7.55-1.59-15.07-3.22-22.46-4.88l-7-22.81L256,84h0l1.13-.66v-.55h0l-2.42-1.4-2.41,1.4v.55l-5.75,18.74c-18.53-4.43-35.69-9-49.81-13.57L150.56,60.3,137.39,41.57l-9.77-6.72-7.13-18.63-2.9-1.58L110.19,4.07l-5.81-1.85L93.82,16l-7.66,2.64L74.33,32.28,45.64,65.48,34.73,67.16,0,85v99H1426ZM253.24,103.66l-4-1,1-4.07,3.19,1.86Zm.1-3.45,0-.92,0-1L251,97.17l2.42-1.3Zm.16-5.45L250.74,96l2.8-12,.26.15Zm1.18-10.57h0L255,84Zm.85.05.19-.11,2.81,12-2.7-1.33Zm.4,13.93-.06-2.27,2.23,1.24-2.16,1Zm.17,6.14-.11-3.94,3.1-1.81,1.59,6.8Zm889.65-6.87c-.15-.38-.23-.62-.23-.62.93.2,1.37.27,1.59.29Zm144.91-38c-.66-1.62-1.07-2.87-1.07-2.87a3.73,3.73,0,0,0,2.49.34A20.7,20.7,0,0,1,1290.65,59.43Zm15-4.18c-.76-1.78-1.24-3.24-1.24-3.24a3.57,3.57,0,0,0,2.73.22A23.63,23.63,0,0,1,1305.63,55.25Zm1.67-3.45a6.12,6.12,0,0,1-1.63-1.76,2.88,2.88,0,0,0,2.32-.12S1307.73,50.72,1307.29,51.8ZM1364.6,38a3.56,3.56,0,0,0,3.12,0,3.26,3.26,0,0,1-1.27-1,3,3,0,0,0,2.54,0,29.8,29.8,0,0,1-2.54,5.61A42.7,42.7,0,0,1,1364.6,38ZM1368,47.3l1.22-.71a4.14,4.14,0,0,1-.48-.42l1.48.85Z"/></svg>