<svg xmlns="http://www.w3.org/2000/svg" xmlns:xlink="http://www.w3.org/1999/xlink" viewBox="0 0 461.08 357.78"><defs><style>.cls-1{fill:url(#linear-gradient);}.cls-2,.cls-29,.cls-56{fill:none;}.cls-3{fill:#556040;}.cls-4{fill:#96899b;}.cls-5{fill:#5b5260;}.cls-6{fill:#997093;}.cls-7{fill:#ad7da4;}.cls-8{fill:#f4e8f9;}.cls-9{fill:#dcd1e5;}.cls-10,.cls-15{fill:#5c515f;}.cls-10,.cls-14{opacity:0.6;}.cls-11{fill:#c19e4f;}.cls-12{fill:#e26e5a;}.cls-13{fill:#f97e62;}.cls-16{fill:url(#linear-gradient-2);}.cls-17{fill:url(#green_halftone);}.cls-18{fill:url(#linear-gradient-3);}.cls-19{fill:url(#green_halftone-7);}.cls-20{fill:#d8ae5b;}.cls-21{fill:#d8bdab;}.cls-22{fill:#f47160;}.cls-23{fill:#ea6e5e;}.cls-24{fill:#c45c4e;}.cls-25{fill:url(#linear-gradient-4);}.cls-26{fill:url(#green_halftone-13);}.cls-27{fill:url(#green_halftone-19);}.cls-28{fill:#f9d162;}.cls-29{stroke:#e5bd5c;stroke-linecap:round;stroke-linejoin:round;stroke-width:2.21px;}.cls-30{fill:#d4c0dd;}.cls-31{fill:#6c6170;}.cls-32{fill:url(#linear-gradient-5);}.cls-33{fill:url(#linear-gradient-6);}.cls-34{fill:url(#linear-gradient-7);}.cls-35{fill:#988a9e;}.cls-36{fill:#a78746;}.cls-37{fill:#f2d651;}.cls-38{fill:#ccc;}.cls-39{fill:#b5b5b5;}.cls-40{fill:#727272;}.cls-41{fill:#95879b;}.cls-42{fill:#58525c;}.cls-43{fill:#b7acbf;}.cls-44{clip-path:url(#clip-path);}.cls-45{fill:url(#linear-gradient-9);}.cls-46{fill:#79d7db;}.cls-47,.cls-48,.cls-49,.cls-50,.cls-51,.cls-52,.cls-53,.cls-54,.cls-56{stroke:#58525c;stroke-miterlimit:10;stroke-width:0.42px;}.cls-47{fill:url(#linear-gradient-10);}.cls-48{fill:url(#linear-gradient-11);}.cls-49{fill:url(#linear-gradient-12);}.cls-50{fill:url(#linear-gradient-13);}.cls-51{fill:url(#linear-gradient-14);}.cls-52{fill:url(#linear-gradient-15);}.cls-53{fill:url(#linear-gradient-16);}.cls-54{fill:url(#linear-gradient-17);}.cls-55{fill:#8c7d91;}</style><linearGradient id="linear-gradient" x1="181.23" y1="122.84" x2="294.95" y2="122.84" gradientUnits="userSpaceOnUse"><stop offset="0" stop-color="#79d7db"/><stop offset="1" stop-color="#4f8b95"/></linearGradient><linearGradient id="linear-gradient-2" x1="350.91" y1="187.2" x2="358.24" y2="187.2" gradientUnits="userSpaceOnUse"><stop offset="0" stop-color="#bace8d"/><stop offset="1" stop-color="#899b68"/></linearGradient><pattern id="green_halftone" data-name="green halftone" width="10" height="10" patternTransform="translate(4.73 49.34) scale(0.03)" patternUnits="userSpaceOnUse" viewBox="0 0 10 10"><rect class="cls-2" width="10" height="10"/><circle class="cls-3" cx="7.5" cy="10" r="1.66" transform="translate(-3.57 15.81) rotate(-80.82)"/><circle class="cls-3" cx="2.5" cy="10" r="1.66" transform="translate(-7.77 10.87) rotate(-80.82)"/><circle class="cls-3" cx="10" cy="5" r="1.66" transform="translate(3.47 14.07) rotate(-80.82)"/><circle class="cls-3" cx="5" cy="5" r="1.66" transform="translate(-0.73 9.14) rotate(-80.82)"/><circle class="cls-3" cy="5" r="1.66" transform="translate(-4.94 4.2) rotate(-80.82)"/><circle class="cls-3" cx="7.5" r="1.66" transform="translate(6.3 7.4) rotate(-80.82)"/><circle class="cls-3" cx="2.5" r="1.66" transform="translate(2.1 2.47) rotate(-80.82)"/></pattern><linearGradient id="linear-gradient-3" x1="350.28" y1="125.77" x2="356.49" y2="125.77" xlink:href="#linear-gradient-2"/><pattern id="green_halftone-7" data-name="green halftone" width="10" height="10" patternTransform="translate(4.11 39.73) scale(0.02)" patternUnits="userSpaceOnUse" viewBox="0 0 10 10"><rect class="cls-2" width="10" height="10"/><circle class="cls-3" cx="7.5" cy="10" r="1.66" transform="translate(-3.57 15.81) rotate(-80.82)"/><circle class="cls-3" cx="2.5" cy="10" r="1.66" transform="translate(-7.77 10.87) rotate(-80.82)"/><circle class="cls-3" cx="10" cy="5" r="1.66" transform="translate(3.47 14.07) rotate(-80.82)"/><circle class="cls-3" cx="5" cy="5" r="1.66" transform="translate(-0.73 9.14) rotate(-80.82)"/><circle class="cls-3" cy="5" r="1.66" transform="translate(-4.94 4.2) rotate(-80.82)"/><circle class="cls-3" cx="7.5" r="1.66" transform="translate(6.3 7.4) rotate(-80.82)"/><circle class="cls-3" cx="2.5" r="1.66" transform="translate(2.1 2.47) rotate(-80.82)"/></pattern><linearGradient id="linear-gradient-4" x1="228.9" y1="239.71" x2="236.48" y2="239.71" gradientTransform="translate(-44.58)" xlink:href="#linear-gradient-2"/><pattern id="green_halftone-13" data-name="green halftone" width="10" height="10" patternTransform="translate(-3.02 39.1) scale(0.03)" patternUnits="userSpaceOnUse" viewBox="0 0 10 10"><rect class="cls-2" width="10" height="10"/><circle class="cls-3" cx="7.5" cy="10" r="1.66" transform="translate(-3.57 15.81) rotate(-80.82)"/><circle class="cls-3" cx="2.5" cy="10" r="1.66" transform="translate(-7.77 10.87) rotate(-80.82)"/><circle class="cls-3" cx="10" cy="5" r="1.66" transform="translate(3.47 14.07) rotate(-80.82)"/><circle class="cls-3" cx="5" cy="5" r="1.66" transform="translate(-0.73 9.14) rotate(-80.82)"/><circle class="cls-3" cy="5" r="1.66" transform="translate(-4.94 4.2) rotate(-80.82)"/><circle class="cls-3" cx="7.5" r="1.66" transform="translate(6.3 7.4) rotate(-80.82)"/><circle class="cls-3" cx="2.5" r="1.66" transform="translate(2.1 2.47) rotate(-80.82)"/></pattern><pattern id="green_halftone-19" data-name="green halftone" width="10" height="10" patternTransform="matrix(-0.02, 0, 0, 0.02, -4.14, 39.93)" patternUnits="userSpaceOnUse" viewBox="0 0 10 10"><rect class="cls-2" width="10" height="10"/><circle class="cls-3" cx="7.5" cy="10" r="1.66" transform="translate(-3.57 15.81) rotate(-80.82)"/><circle class="cls-3" cx="2.5" cy="10" r="1.66" transform="translate(-7.77 10.87) rotate(-80.82)"/><circle class="cls-3" cx="10" cy="5" r="1.66" transform="translate(3.47 14.07) rotate(-80.82)"/><circle class="cls-3" cx="5" cy="5" r="1.66" transform="translate(-0.73 9.14) rotate(-80.82)"/><circle class="cls-3" cy="5" r="1.66" transform="translate(-4.94 4.2) rotate(-80.82)"/><circle class="cls-3" cx="7.5" r="1.66" transform="translate(6.3 7.4) rotate(-80.82)"/><circle class="cls-3" cx="2.5" r="1.66" transform="translate(2.1 2.47) rotate(-80.82)"/></pattern><linearGradient id="linear-gradient-5" x1="53.31" y1="159.52" x2="55.32" y2="159.52" gradientUnits="userSpaceOnUse"><stop offset="0.01" stop-color="#d4c0dd"/><stop offset="1" stop-color="#464049"/></linearGradient><linearGradient id="linear-gradient-6" x1="115" y1="174.3" x2="117.01" y2="174.3" xlink:href="#linear-gradient-5"/><linearGradient id="linear-gradient-7" x1="145.18" y1="162.26" x2="147.46" y2="162.26" xlink:href="#linear-gradient-5"/><clipPath id="clip-path"><polygon class="cls-1" points="181.23 109.96 216.31 89.92 294.95 135.49 259.99 155.76 181.23 109.96"/></clipPath><linearGradient id="linear-gradient-9" x1="181.23" y1="122.64" x2="294.95" y2="122.64" xlink:href="#linear-gradient"/><linearGradient id="linear-gradient-10" x1="188.14" y1="104.29" x2="227.17" y2="104.29" xlink:href="#linear-gradient"/><linearGradient id="linear-gradient-11" x1="196.79" y1="109.65" x2="235.82" y2="109.65" xlink:href="#linear-gradient"/><linearGradient id="linear-gradient-12" x1="215.42" y1="119.59" x2="254.46" y2="119.59" xlink:href="#linear-gradient"/><linearGradient id="linear-gradient-13" x1="222.05" y1="125.59" x2="261.08" y2="125.59" xlink:href="#linear-gradient"/><linearGradient id="linear-gradient-14" x1="230.41" y1="131" x2="269.44" y2="131" xlink:href="#linear-gradient"/><linearGradient id="linear-gradient-15" x1="239.46" y1="135.78" x2="278.49" y2="135.78" xlink:href="#linear-gradient"/><linearGradient id="linear-gradient-16" x1="247.49" y1="141.38" x2="286.52" y2="141.38" xlink:href="#linear-gradient"/><linearGradient id="linear-gradient-17" x1="207.65" y1="114.18" x2="246.69" y2="114.18" xlink:href="#linear-gradient"/></defs><title>logos-mega2</title><g id="Layer_5" data-name="Layer 5"><polygon class="cls-4" points="127.81 106.95 127.81 130.69 231.7 191.57 231.51 167.08 127.81 106.95"/><polygon class="cls-5" points="231.53 166.96 335.59 106.83 335.59 131.17 231.71 191.45 231.53 166.96"/><polygon class="cls-6" points="127.78 106.93 231.74 167.15 335.33 107 232.3 44.03 127.78 106.93"/><polygon class="cls-7" points="127.78 106.93 158.12 76.35 169.03 74.67 209.55 27.78 217.21 25.14 227.77 11.41 233.58 13.26 240.98 23.82 243.88 25.41 251.01 44.03 260.78 50.76 277.68 74.79 299.6 90.1 335.33 107 231.74 167.15 127.78 106.93"/><polygon class="cls-6" points="209.55 27.78 211.66 41.78 214.83 41.78 224.07 74 226.98 55.77 223.81 44.03 228.83 33.59 217.21 25.14 209.55 27.78"/><polygon class="cls-6" points="243.88 25.41 248.29 52.49 251.01 44.03 243.88 25.41"/><polygon class="cls-6" points="260.78 50.76 265.64 76.35 263.21 80.91 272.65 94.32 296.32 100.22 277.45 77.95 274.5 70.57 260.78 50.76"/><polygon class="cls-6" points="231.56 38.95 236.48 52.49 242.39 74 242.39 91.69 247.45 97.05 251.01 72.42 243.88 60.98 241.28 48.06 231.56 38.95"/><polygon class="cls-6" points="193.67 57.66 186.66 78.69 193.67 100.22 169.03 74.67 158.12 76.35 172.27 94.32 185.18 101.47 204.01 122.98 202.53 84.37 195.15 75.49 199.58 50.76 193.67 57.66"/><polygon class="cls-8" points="197.72 41.47 211.24 38.95 213.78 35.71 219.19 42.97 228.83 33.59 233.17 28.3 238.84 36.48 246.09 38.95 246.47 32.18 243.88 25.41 240.98 23.82 233.58 13.26 227.77 11.41 217.21 25.14 209.55 27.78 197.72 41.47"/><polygon class="cls-9" points="210.95 28.65 213.69 34.55 216.32 35.6 212.85 27.81 210.95 28.65"/><polygon class="cls-9" points="233.49 14.44 234.22 25.41 239.59 31.7 238.12 23.7 233.49 14.44"/><polygon class="cls-9" points="243.88 27.81 245.28 36.23 246.47 32.18 243.88 27.81"/><polygon class="cls-9" points="216.32 30.44 218.75 40.66 218.75 33.18 216.32 30.44"/><polygon class="cls-10" points="117.51 157.59 13.62 217.97 117.33 278.1 221.31 217.85 117.51 157.59"/><polygon class="cls-11" points="116.79 232.34 220.85 172.21 220.85 196.55 116.97 256.83 116.79 232.34"/><path class="cls-10" d="M241.19,219.82s12.92-32.41,32.19-42.78,29.65-3.6,38.12-10.38,27.32-11,33.68-7.41,103.75,60.48,103.75,60.48L344.86,279.87Z"/><path class="cls-12" d="M240.54,173.43,279,128.08a7.66,7.66,0,0,1,6.41-2.69c8.47.62,28.54,1.81,36.49-.31,5.75-1.53,22.47-11.84,22.47-11.84l103.76,60.18L344.36,233.64Z"/><path class="cls-13" d="M240.54,173.43,279,128.08a3.6,3.6,0,0,1,5.44,0c2.91,2.85,3.44,12.64,7.41,15.15s11.77,1.59,16.4,8.33,18.81,47.21,25.37,52.16,10.73,29.91,10.73,29.91Z"/><path class="cls-13" d="M389.3,191.44s-11,1.84-20.51-10S356.5,157.49,348,156.15s-9.37-7.38-7.75-9.38,9.87-12,23.93-6,13.11,21,22.09,23.67,25.66,8.16,22.28,11.89S389.3,191.44,389.3,191.44Z"/><g class="cls-14"><path class="cls-15" d="M357.47,196.85c.43-.11.14-.26.62-.6a4.38,4.38,0,0,1,.79-.39,5.41,5.41,0,0,1,.82-.34,8.27,8.27,0,0,1,.87-.18c.27,0,.57,0,.89-.07s.57,0,.89,0,.58.07.89.09.58,0,.85,0l.85.06.85.06c.3,0,.58,0,.85,0l.85,0c.31,0,.59.06.85.08s.59.07.84.1a3.87,3.87,0,0,1,.81.2c.36.13.53.27.53.54s-.24.38-.65.45a6,6,0,0,1-.86,0c-.27,0-.56,0-.86,0s-.58,0-.87,0-.58-.09-.86-.12l-.86-.11c-.35,0-.65-.05-.86-.07s-.53-.07-.8-.09-.54,0-.8,0-.54-.06-.8-.06-.55,0-.8,0-.56,0-.8,0a4.82,4.82,0,0,0-.86.21c-.51.16-1.17.14-.77.31s.41,0,.83.06.42.1.84.13.43,0,.85,0l.85.06c.42,0,.42,0,.85,0s.42.1.84.13.43-.06.85,0,.42.12.84.14.43,0,.85,0,.42.07.84.1.43-.05.85,0l.85.06.84,0c.42,0,.42.06.84.09s.42.06.84.09l.85,0,.85.05c.42,0,.42,0,.85,0l.85.07.85.07c.42,0,.42.05.84.08s.43,0,.85,0l.85.07.85.06.85.06c.43,0,.43,0,.85,0a1.72,1.72,0,0,1,.83.21c.29.13.53.35.43.66a.83.83,0,0,1-.58.5,1.35,1.35,0,0,1-.77.1c-.43,0-.42-.06-.85-.08l-.85-.07-.85,0c-.43,0-.43,0-.86,0l-.85-.06c-.43,0-.43,0-.86,0s-.42-.08-.85-.11-.42-.06-.85-.08-.43,0-.85,0-.43,0-.86,0-.42-.06-.85-.08-.42-.07-.85-.1-.43,0-.86,0l-.85-.07-.85-.07-.85,0c-.43,0-.43,0-.86,0s-.43-.05-.86-.08-.43-.06-.86-.09a4.2,4.2,0,0,0-.86,0c-.4,0,.17.07.77.2a7.72,7.72,0,0,0,.78.22l.8.09c.24,0,.52,0,.81,0s.51.13.79.15l.81.06c.26,0,.53,0,.82,0s.55.08.8.09.56,0,.81,0l.8,0c.31,0,.58.07.8.09s.61.05.8.09c.59.11.51.26.52.46s-.25.37-.64.4a7,7,0,0,1-.84,0l-.87,0c-.26,0-.56-.07-.88-.09s-.57-.08-.87-.1l-.88,0-.88-.08-.88-.1c-.34,0-.64,0-.88,0s-.56-.12-.88-.18-.59-.05-.89-.13a7,7,0,0,1-.84-.31,5.32,5.32,0,0,1-.79-.42,4.17,4.17,0,0,1-.71-.51,3,3,0,0,0-.8-.13l-.82,0-.82,0c-.41,0-.41,0-.82,0s-.41,0-.82,0l-.81-.07-.82,0-.82-.06c-.41,0-.41-.08-.82-.1s-.54.26-.84,0,.08-.35.1-.7-.26-.45,0-.66.38,0,.79,0,.41,0,.82,0a7.42,7.42,0,0,1,.81.11A1.45,1.45,0,0,0,357.47,196.85Z"/></g><path class="cls-16" d="M354,195.49c-.14-.38-.36,0-.79-.27a4.38,4.38,0,0,1-.64-.49,3.68,3.68,0,0,1-.62-.52,4.1,4.1,0,0,1-.42-.7,4.36,4.36,0,0,1-.33-.75,5.64,5.64,0,0,1-.11-.81,6.23,6.23,0,0,1-.09-.81c0-.31,0-.62,0-.9s-.09-.61-.1-.9,0-.62,0-.9-.06-.62-.06-.9a7.23,7.23,0,0,1,.05-.89,1.6,1.6,0,0,1,.3-.81.86.86,0,0,1,.75-.33.69.69,0,0,1,.68.34,2,2,0,0,1,.24.79,5.92,5.92,0,0,1,0,.83c0,.27-.09.55-.12.82s-.06.57-.09.83-.12.62-.12.81,0,.52,0,.78,0,.52.07.78a7.74,7.74,0,0,0,.06.78,3.87,3.87,0,0,0,.25.73,2.6,2.6,0,0,0,.4.69c.29.36.39.93.56.56s0-.42,0-.84,0-.42,0-.85,0-.42,0-.85,0-.42,0-.85,0-.42,0-.85-.07-.42-.07-.85,0-.42,0-.85,0-.42,0-.84.06-.42.06-.85,0-.42,0-.85,0-.42,0-.85,0-.42,0-.85,0-.43,0-.85,0-.42,0-.85,0-.42,0-.85,0-.42,0-.85-.05-.43-.05-.85,0-.43,0-.85.06-.43.06-.86,0-.43,0-.85,0-.5.34-.79a1,1,0,0,1,.85-.23,1.33,1.33,0,0,1,.73.31c.34.3.28.31.27.71s.06.41.06.82,0,.41,0,.82,0,.41,0,.82.08.41.08.82,0,.41,0,.82,0,.41,0,.82,0,.41,0,.82.05.41.05.82,0,.41,0,.83-.09.41-.09.82.08.41.08.82,0,.41,0,.82,0,.41,0,.83,0,.41,0,.83,0,.41,0,.83-.09.42,0,.82.11-.16.28-.8a5.07,5.07,0,0,0,.26-.85c0-.26,0-.56,0-.89s.09-.56.09-.89-.08-.57-.09-.89,0-.55,0-.8,0-.56,0-.8,0-.58,0-.8A2.91,2.91,0,0,1,357,183c.12-.38.3-.35.6-.36a.52.52,0,0,1,.57.38,2.27,2.27,0,0,1,.08.75c0,.14,0,.42,0,.79s0,.5,0,.79,0,.52,0,.79,0,.54,0,.8,0,.55,0,.79,0,.57,0,.79a5.79,5.79,0,0,1-.14.77,3.8,3.8,0,0,1-.26.73,3.39,3.39,0,0,1-.41.66,3.61,3.61,0,0,1-.51.6,4.45,4.45,0,0,1-.63.46,2.61,2.61,0,0,0-.06.89c0,.45,0,.45,0,.9s0,.45,0,.9-.05.45-.06.9,0,.45,0,.9,0,.45,0,.9.26.52,0,.88-.32,0-.67,0-.35.07-.71.07-.5.25-.73,0,0-.43,0-.85a4.33,4.33,0,0,1,0-.84C354.06,195.91,354.16,195.88,354,195.49Z"/><path class="cls-17" d="M352.71,189.94c0,.25,0,.52,0,.78s0,.53,0,.78a7.31,7.31,0,0,0,.13.77,4.35,4.35,0,0,0,.15.77,2.64,2.64,0,0,0,.44.69c.29.36.25.74.61.57.15-.07,0-.2,0-.35a2.7,2.7,0,0,1-.62-.9,4.29,4.29,0,0,1-.16-.77,7.71,7.71,0,0,1-.06-.77c0-.26-.08-.52-.09-.78s.07-.52.08-.78,0-.48.06-.82.08-.53.11-.82.06-.55.07-.83a5.85,5.85,0,0,0,0-.83,1.94,1.94,0,0,0-.27-.77.71.71,0,0,0-.64-.44,1.4,1.4,0,0,0-.19,0,.78.78,0,0,1,.53.54,2.46,2.46,0,0,1,.21.76,6.76,6.76,0,0,1,0,.8c0,.26-.05.53-.08.79s-.06.55-.09.79S352.71,189.75,352.71,189.94Z"/><path class="cls-17" d="M356.18,177.28c0,.41,0,.41,0,.82s.08.41.08.82,0,.41,0,.82,0,.41,0,.82,0,.41,0,.82,0,.41,0,.82,0,.41,0,.82,0,.41,0,.82,0,.41,0,.83,0,.41,0,.82-.06.41-.06.82,0,.41,0,.82,0,.41,0,.83,0,.41,0,.83.06.41.06.83-.2.45-.07.84.28-.19.47-.91c0-.43-.08-.44-.08-.88s.07-.44.07-.87,0-.44,0-.87-.06-.44-.06-.88,0-.44,0-.88,0-.44,0-.88,0-.44,0-.88,0-.44,0-.88.05-.44.05-.88,0-.44,0-.87,0-.44,0-.88,0-.44,0-.88,0-.44,0-.88,0-.44,0-.88a.93.93,0,0,0-.33-.67,1.22,1.22,0,0,0-.69-.34,1.25,1.25,0,0,0-.38,0,1.33,1.33,0,0,1,.72.27C356.26,176.89,356.19,176.89,356.18,177.28Z"/><path class="cls-17" d="M358,182.57c-.08,0-.16.07-.22.08a.51.51,0,0,1,.41.43,2.5,2.5,0,0,1,.13.65c0,.14,0,.42,0,.79s0,.5,0,.79,0,.52,0,.79,0,.54,0,.8,0,.55-.06.79,0,.58,0,.79a5.84,5.84,0,0,1-.14.78,3.87,3.87,0,0,1-.27.74,3.4,3.4,0,0,1-.39.68,3.7,3.7,0,0,1-.52.6,5.08,5.08,0,0,1-.69.42c-.11.44,0,.45,0,.9s0,.45,0,.9.05.45.05.9,0,.45,0,.9,0,.45,0,.9,0,.45,0,.91-.17.49,0,.9a.2.2,0,0,0,.38,0c.18-.41,0-.44,0-.89s0-.45,0-.9,0-.45,0-.9.07-.45.07-.9-.09-.45-.08-.9,0-.45,0-.9a2.67,2.67,0,0,1,0-.91,5,5,0,0,0,.68-.42,3.83,3.83,0,0,0,.55-.58,3.54,3.54,0,0,0,.42-.68,3.87,3.87,0,0,0,.25-.76,5.91,5.91,0,0,0,.14-.78c0-.21-.05-.49,0-.79s0-.51.05-.79,0-.53,0-.79,0-.54,0-.79,0-.56,0-.79,0-.65,0-.79a2.35,2.35,0,0,0-.07-.76A.57.57,0,0,0,358,182.57Z"/><g class="cls-14"><path class="cls-15" d="M355.84,133.94c.36-.09.12-.22.52-.51a3.71,3.71,0,0,1,.67-.33,4.58,4.58,0,0,1,.69-.28,7,7,0,0,1,.74-.15c.23,0,.48,0,.75-.06l.76,0c.24,0,.49.06.76.07s.49,0,.72,0l.72,0,.72.05c.25,0,.49,0,.72,0l.72,0c.26,0,.5.05.72.07s.51.06.72.08a3.25,3.25,0,0,1,.69.17c.3.11.45.23.45.45s-.2.32-.55.38a5.07,5.07,0,0,1-.73,0c-.23,0-.47,0-.72,0s-.49,0-.73,0-.49-.08-.73-.11l-.73-.09c-.3,0-.55,0-.72-.06s-.45-.06-.67-.07l-.68,0c-.23,0-.46-.05-.68-.05s-.46,0-.68,0-.47,0-.68,0a4.08,4.08,0,0,0-.73.18c-.43.14-1,.12-.65.26s.35,0,.7.05.35.08.71.11.36,0,.72,0l.72.05c.36,0,.36,0,.72,0s.35.09.71.11.36-.05.72,0,.35.1.71.12.36,0,.71,0,.35.06.71.08.36,0,.72,0l.72.05.72,0c.36,0,.36.05.71.07s.36.05.71.08l.72,0,.72,0c.36,0,.36,0,.72,0l.72.06.72.06c.36,0,.36,0,.72.07s.36,0,.72,0l.72.06.72,0,.72,0,.72,0a1.45,1.45,0,0,1,.7.18c.24.11.45.3.36.56a.7.7,0,0,1-.49.42,1.14,1.14,0,0,1-.65.08c-.36,0-.36,0-.72-.07l-.72-.06-.72,0c-.36,0-.36,0-.72,0l-.72-.05c-.36,0-.36,0-.73,0s-.36-.07-.72-.09-.36,0-.72-.07-.36,0-.72,0-.36,0-.73,0-.36,0-.72-.07-.36-.06-.72-.08-.36,0-.73,0l-.72-.06-.72-.06-.72,0c-.36,0-.37,0-.73,0s-.36,0-.73-.07-.36-.05-.73-.08a3.57,3.57,0,0,0-.73,0c-.34,0,.14.06.65.17a6.54,6.54,0,0,0,.66.19l.68.08c.21,0,.44,0,.68,0s.43.11.67.13l.69,0c.22,0,.45,0,.69,0s.47.07.68.08.48,0,.69,0l.69,0c.26,0,.49.06.68.08s.51,0,.67.07c.5.09.43.22.44.39s-.21.31-.54.34a5.89,5.89,0,0,1-.71,0l-.74,0-.74-.07c-.24,0-.48-.07-.74-.09l-.75,0-.75-.07-.75-.08c-.28,0-.54,0-.75,0s-.48-.1-.74-.15-.5,0-.75-.11a5.94,5.94,0,0,1-.71-.26,4.5,4.5,0,0,1-.67-.36,3.53,3.53,0,0,1-.6-.43,2.49,2.49,0,0,0-.68-.11l-.69,0-.69,0c-.35,0-.35,0-.69,0l-.69,0-.69-.06-.69,0-.69-.05c-.35,0-.35-.07-.69-.09s-.45.22-.71,0,.07-.3.09-.59-.22-.38,0-.55.32,0,.67,0,.35,0,.69,0a6.28,6.28,0,0,1,.69.09A1.23,1.23,0,0,0,355.84,133.94Z"/></g><path class="cls-18" d="M352.92,132.79c-.12-.32-.3,0-.67-.23a3.71,3.71,0,0,1-.54-.42,3.11,3.11,0,0,1-.53-.44,3.47,3.47,0,0,1-.36-.59,3.69,3.69,0,0,1-.28-.63,4.77,4.77,0,0,1-.1-.68,5.28,5.28,0,0,1-.07-.69c0-.27,0-.52,0-.76s-.08-.52-.09-.76,0-.52,0-.76,0-.53-.05-.76a6.12,6.12,0,0,1,0-.76,1.36,1.36,0,0,1,.26-.69.73.73,0,0,1,.64-.28.59.59,0,0,1,.58.29,1.73,1.73,0,0,1,.21.67,5,5,0,0,1,0,.7c0,.23-.07.47-.1.7s0,.49-.08.7-.1.53-.1.69,0,.44,0,.66,0,.44.06.66a6.55,6.55,0,0,0,.05.66,3.28,3.28,0,0,0,.21.62,2.2,2.2,0,0,0,.33.59c.25.3.33.79.47.47s0-.36,0-.71,0-.36,0-.71,0-.36,0-.71,0-.36,0-.71,0-.36,0-.72-.06-.36-.06-.72,0-.36,0-.72,0-.36,0-.72,0-.36,0-.72,0-.36,0-.72,0-.36,0-.72,0-.36,0-.72,0-.36,0-.72,0-.36,0-.72,0-.36,0-.72,0-.36,0-.72,0-.36,0-.72,0-.36,0-.72.05-.36.05-.73,0-.36,0-.72,0-.42.28-.67a.87.87,0,0,1,.72-.19,1.12,1.12,0,0,1,.62.26c.29.25.23.26.23.6s.05.35.05.7,0,.35,0,.7,0,.35,0,.69.07.35.07.69,0,.35,0,.69,0,.35,0,.7,0,.35,0,.7,0,.35,0,.7,0,.35,0,.7-.07.35-.07.7.07.35.07.7,0,.35,0,.7,0,.35,0,.7,0,.35,0,.7,0,.35,0,.7-.08.36,0,.69.09-.14.24-.67a4.29,4.29,0,0,0,.22-.72c0-.22,0-.47,0-.75s.07-.47.08-.75-.07-.48-.08-.76,0-.47,0-.68,0-.48,0-.68,0-.49,0-.68a2.45,2.45,0,0,1,.13-.66c.1-.32.26-.29.5-.31a.44.44,0,0,1,.49.32,1.93,1.93,0,0,1,.07.63c0,.12,0,.36,0,.67s0,.42,0,.67,0,.44,0,.67,0,.45,0,.67,0,.46,0,.67,0,.49,0,.67a4.9,4.9,0,0,1-.12.66,3.22,3.22,0,0,1-.22.62,2.87,2.87,0,0,1-.35.56,3.06,3.06,0,0,1-.43.51,3.77,3.77,0,0,1-.53.39,2.21,2.21,0,0,0,0,.76c0,.38,0,.38,0,.76s0,.38,0,.76,0,.38,0,.76,0,.38,0,.76,0,.38,0,.77.22.44,0,.74-.27,0-.57,0-.3.06-.6.06-.42.22-.62,0,0-.37,0-.72a3.66,3.66,0,0,1,0-.71C353,133.14,353,133.12,352.92,132.79Z"/><path class="cls-19" d="M351.8,128.09c0,.22,0,.44,0,.66s0,.45,0,.66a6.19,6.19,0,0,0,.11.65,3.68,3.68,0,0,0,.13.65,2.24,2.24,0,0,0,.37.58c.25.3.21.63.52.48.13-.06,0-.17,0-.3a2.29,2.29,0,0,1-.53-.76,3.64,3.64,0,0,1-.14-.65,6.53,6.53,0,0,1-.05-.66c0-.22-.07-.44-.07-.66s.06-.44.07-.66,0-.4,0-.69.07-.45.09-.69.05-.47.06-.7a5,5,0,0,0,0-.7,1.64,1.64,0,0,0-.23-.65.61.61,0,0,0-.55-.37l-.16,0a.66.66,0,0,1,.45.46,2.08,2.08,0,0,1,.18.64,5.7,5.7,0,0,1,0,.68c0,.22,0,.45-.07.67s-.05.47-.08.67S351.81,127.93,351.8,128.09Z"/><path class="cls-19" d="M354.74,117.37c0,.35,0,.35,0,.7s.07.35.07.7,0,.35,0,.69,0,.35,0,.69,0,.35,0,.69,0,.35,0,.7,0,.35,0,.7,0,.35,0,.7,0,.35,0,.7,0,.35,0,.7-.05.35-.05.7,0,.35,0,.7,0,.35,0,.7,0,.35,0,.7.05.35.05.7-.17.38-.06.71.24-.16.39-.77c0-.37-.07-.37-.07-.74s.06-.37.06-.74,0-.37,0-.74,0-.37,0-.74,0-.37,0-.74,0-.37,0-.74,0-.37,0-.74,0-.37,0-.74,0-.37,0-.74,0-.37,0-.74,0-.37,0-.74,0-.37,0-.75,0-.37,0-.75,0-.37,0-.75,0-.31-.28-.56a1,1,0,0,0-.59-.29,1.06,1.06,0,0,0-.32,0,1.13,1.13,0,0,1,.61.23C354.81,117,354.75,117,354.74,117.37Z"/><path class="cls-19" d="M356.25,121.85c-.06,0-.13.06-.19.06a.43.43,0,0,1,.35.37,2.12,2.12,0,0,1,.11.55c0,.12,0,.36,0,.67s0,.43,0,.67,0,.44,0,.67,0,.45,0,.67,0,.46,0,.67,0,.49,0,.67a4.94,4.94,0,0,1-.12.66,3.28,3.28,0,0,1-.23.62,2.88,2.88,0,0,1-.33.58,3.14,3.14,0,0,1-.44.51,4.3,4.3,0,0,1-.58.36c-.09.37,0,.38,0,.76s0,.38,0,.76,0,.38,0,.76,0,.38,0,.76,0,.38,0,.76,0,.38,0,.77-.15.41,0,.77a.17.17,0,0,0,.32,0c.15-.35,0-.38,0-.76s0-.38,0-.76,0-.38,0-.76.06-.38.06-.76-.07-.38-.07-.76,0-.38,0-.77a2.26,2.26,0,0,1,0-.77,4.22,4.22,0,0,0,.57-.36,3.24,3.24,0,0,0,.46-.5,3,3,0,0,0,.35-.58,3.28,3.28,0,0,0,.21-.64,5,5,0,0,0,.12-.66c0-.18,0-.41,0-.67s0-.43,0-.67,0-.45,0-.67,0-.46,0-.67,0-.47,0-.67,0-.55,0-.67a2,2,0,0,0-.06-.64A.48.48,0,0,0,356.25,121.85Z"/><polygon class="cls-10" points="230.55 223.84 126.66 284.22 230.36 344.35 334.34 284.1 230.55 223.84"/><polygon class="cls-20" points="13.07 172.23 13.07 195.97 116.96 256.85 116.78 232.36 13.07 172.23"/><path class="cls-21" d="M156.28,140.22c0,2-.64,4.16-3.87,2.76s-3.81-7.09-7.51-7.35-6.47-3.35-4.76-4.42,10.47,3,11.08,4.45S156.28,140.22,156.28,140.22Z"/><path class="cls-21" d="M192.16,175.09a12.54,12.54,0,0,1-4.67-5.5c-1.09-2.58-5-10.48-4.28-11.47s.3-5.49,1.15-6.24.65,4.19,2.26,8.83,1.5,7.33,3.61,7.83S192.16,175.09,192.16,175.09Z"/><path class="cls-21" d="M194.73,161.79c1.36-.31,2.39.21,3.86,1.59s7,5.4,7.58,6.1c1.82,2.25.06,4-.28,4.71s-1.67-2.59-4.1-5.19-3-3.52-4.7-4.12C195.61,164.34,193.37,162.09,194.73,161.79Z"/><polygon class="cls-22" points="125.96 237.92 125.96 261.66 229.85 322.54 229.67 298.05 125.96 237.92"/><polygon class="cls-23" points="240.46 173.44 240.46 197.19 344.35 258.06 344.16 233.57 240.46 173.44"/><polygon class="cls-24" points="229.68 298.03 333.74 237.9 333.74 262.24 229.86 322.52 229.68 298.03"/><polygon class="cls-24" points="344.18 233.59 448.24 173.46 448.24 197.81 344.36 258.08 344.18 233.59"/><path class="cls-13" d="M333.34,237.9l-38.47-45.34a7.66,7.66,0,0,0-6.41-2.69c-8.47.62-28.54,1.81-36.49-.31-5.75-1.53-22.47-11.84-22.47-11.84L125.73,237.89l103.78,60.22Z"/><path class="cls-12" d="M333.34,237.9l-38.47-45.34a3.6,3.6,0,0,0-5.44,0c-2.91,2.85-3.44,12.64-7.41,15.15s-11.77,1.59-16.4,8.33-18.81,47.21-25.37,52.16-10.73,29.91-10.73,29.91Z"/><path class="cls-12" d="M184.58,255.92s11,1.84,20.51-10,12.29-23.94,20.78-25.27,9.37-7.38,7.75-9.38-9.87-12-23.93-6-13.11,21-22.09,23.67-25.66,8.16-22.28,11.89S184.58,255.92,184.58,255.92Z"/><g class="cls-14"><path class="cls-15" d="M191.11,249.68c.45-.11.15-.27.64-.62a4.53,4.53,0,0,1,.82-.4,5.59,5.59,0,0,1,.85-.35,8.54,8.54,0,0,1,.9-.18c.28,0,.59,0,.92-.07s.59,0,.92,0,.6.07.92.09.6,0,.88,0l.88.06.88.06c.31,0,.6,0,.88,0l.88,0c.32,0,.61.07.88.09s.61.07.87.1a4,4,0,0,1,.84.2c.37.13.55.28.55.55s-.25.39-.67.46a6.21,6.21,0,0,1-.89,0c-.28,0-.57,0-.88-.05s-.6,0-.9,0-.6-.09-.88-.13l-.89-.11c-.36,0-.67-.05-.88-.07s-.54-.07-.82-.09-.55,0-.83,0-.56-.06-.83-.06-.57,0-.83,0-.58,0-.83,0a5,5,0,0,0-.89.22c-.53.17-1.21.15-.8.32s.42,0,.86.06.43.1.87.13.44,0,.88,0l.87.06c.44,0,.44,0,.88,0s.43.11.87.13.44-.06.88,0,.43.12.87.15.44,0,.88,0,.43.08.87.1.44-.05.88,0l.87.07c.44,0,.44,0,.87,0s.43.06.87.09.43.07.87.09l.88,0,.87.06c.44,0,.44,0,.88,0l.88.07.87.07c.44,0,.44.05.87.08s.44,0,.88,0l.88.07.88.06.88.06c.44,0,.44,0,.88,0a1.77,1.77,0,0,1,.85.21c.3.14.55.37.44.68a.86.86,0,0,1-.59.52,1.4,1.4,0,0,1-.8.1c-.44,0-.44-.06-.88-.09l-.88-.07-.88,0c-.44,0-.44,0-.88,0l-.88-.07c-.44,0-.44,0-.88,0s-.44-.09-.88-.11-.44-.06-.88-.09-.44,0-.88,0-.44,0-.89,0-.44-.06-.88-.09-.44-.08-.88-.1-.44,0-.89,0l-.88-.07c-.44,0-.44,0-.88-.07l-.88,0c-.44,0-.45,0-.89,0s-.44-.05-.89-.08-.44-.07-.89-.09a4.34,4.34,0,0,0-.89,0c-.42,0,.17.07.8.21a8,8,0,0,0,.8.23c.24,0,.52.06.83.1s.53,0,.83,0,.52.13.82.15l.84.06c.27,0,.55,0,.84,0s.57.08.83.09.58,0,.84,0l.83.05c.32,0,.6.07.83.09s.63.05.83.09c.61.11.53.27.54.47s-.26.38-.66.41a7.19,7.19,0,0,1-.87,0l-.9-.05c-.27,0-.57-.07-.91-.09s-.59-.09-.9-.11l-.91,0-.91-.08c-.32,0-.63-.07-.91-.1s-.66,0-.91,0-.58-.13-.9-.18-.61-.05-.92-.14a7.25,7.25,0,0,1-.87-.32,5.5,5.5,0,0,1-.81-.44,4.31,4.31,0,0,1-.74-.53,3,3,0,0,0-.83-.13l-.84,0-.85,0c-.42,0-.42,0-.85,0s-.42,0-.84,0l-.84-.07-.85,0-.85-.06c-.42,0-.42-.08-.85-.11s-.55.27-.86,0,.08-.37.11-.72-.26-.47,0-.68.39,0,.81.05.42,0,.85,0a7.66,7.66,0,0,1,.84.11A1.5,1.5,0,0,0,191.11,249.68Z"/></g><path class="cls-25" d="M187.54,248.27c-.14-.4-.37,0-.82-.28a4.53,4.53,0,0,1-.66-.51,3.8,3.8,0,0,1-.64-.54,4.23,4.23,0,0,1-.44-.72,4.5,4.5,0,0,1-.34-.77,5.83,5.83,0,0,1-.12-.84,6.44,6.44,0,0,1-.09-.84c0-.32,0-.64,0-.93s-.09-.63-.1-.93,0-.64,0-.93-.06-.64-.06-.93a7.47,7.47,0,0,1,.05-.92,1.66,1.66,0,0,1,.31-.84.89.89,0,0,1,.78-.34.71.71,0,0,1,.71.35,2.12,2.12,0,0,1,.25.82,6.12,6.12,0,0,1,0,.86c0,.28-.09.57-.12.85s-.06.59-.09.85-.12.65-.13.84,0,.54,0,.81,0,.54.07.81a8,8,0,0,0,.07.8,4,4,0,0,0,.26.76,2.69,2.69,0,0,0,.41.71c.3.37.41,1,.58.58s0-.43,0-.87,0-.44,0-.88,0-.44,0-.88,0-.44,0-.88,0-.44,0-.87-.07-.44-.07-.88,0-.44,0-.87,0-.44,0-.87.06-.44.06-.87,0-.44,0-.88,0-.44,0-.88,0-.44,0-.88,0-.44,0-.88,0-.44,0-.88,0-.44,0-.88,0-.44,0-.88-.05-.44-.05-.88,0-.44,0-.88.07-.44.07-.88,0-.44,0-.88,0-.51.35-.82a1.07,1.07,0,0,1,.87-.23,1.37,1.37,0,0,1,.75.32c.35.31.29.32.27.73s.06.42.06.85,0,.43,0,.85,0,.42,0,.85.08.42.08.85,0,.42,0,.85,0,.43,0,.85,0,.43,0,.85.05.43.05.85,0,.43,0,.85-.09.43-.09.85.08.43.08.85,0,.42,0,.85,0,.43,0,.85,0,.43,0,.86,0,.43,0,.86-.09.44,0,.85.11-.17.29-.82a5.24,5.24,0,0,0,.27-.88c0-.26,0-.57,0-.92s.09-.58.09-.91-.08-.59-.09-.92,0-.57,0-.82,0-.58,0-.82,0-.6,0-.83a3,3,0,0,1,.16-.81c.12-.39.31-.36.62-.38a.54.54,0,0,1,.59.4,2.35,2.35,0,0,1,.09.77c0,.14,0,.44,0,.82s0,.52,0,.81,0,.54,0,.82,0,.55,0,.82,0,.57,0,.82,0,.59,0,.81a6,6,0,0,1-.15.8,3.93,3.93,0,0,1-.27.76,3.5,3.5,0,0,1-.42.69,3.73,3.73,0,0,1-.53.62,4.6,4.6,0,0,1-.65.47,2.7,2.7,0,0,0-.06.92c0,.46,0,.47,0,.93s0,.46,0,.93-.06.47-.06.93,0,.47,0,.93,0,.47,0,.93.27.54,0,.91-.33,0-.69,0-.37.07-.73.07-.51.26-.75,0,0-.45,0-.88a4.48,4.48,0,0,1,.05-.87C187.58,248.71,187.69,248.68,187.54,248.27Z"/><path class="cls-26" d="M186.18,242.54c0,.26,0,.53,0,.8s0,.54,0,.81a7.56,7.56,0,0,0,.13.79,4.49,4.49,0,0,0,.15.79,2.73,2.73,0,0,0,.45.71,2.34,2.34,0,0,0,.65.56.63.63,0,0,0-.05-.33,2.79,2.79,0,0,1-.64-.93,4.44,4.44,0,0,1-.17-.79,8,8,0,0,1-.07-.8c0-.26-.09-.53-.09-.8s.07-.54.08-.81,0-.49.06-.85.08-.54.11-.84.07-.57.08-.85a6,6,0,0,0,0-.86,2,2,0,0,0-.28-.8.74.74,0,0,0-.67-.46,1.44,1.44,0,0,0-.2,0,.8.8,0,0,1,.55.56,2.54,2.54,0,0,1,.22.79,7,7,0,0,1,0,.82c0,.27-.05.55-.08.82s-.07.57-.1.82S186.19,242.35,186.18,242.54Z"/><path class="cls-26" d="M189.77,229.46c0,.42,0,.42,0,.85s.08.43.08.85,0,.42,0,.85,0,.42,0,.85,0,.42,0,.85,0,.43,0,.85,0,.43,0,.85,0,.43,0,.85.05.43.05.85,0,.43,0,.85-.07.43-.07.85,0,.42,0,.85,0,.43,0,.85,0,.43,0,.86.07.43.07.86-.21.46-.08.87.29-.19.48-.94c.05-.45-.08-.46-.08-.91s.07-.45.07-.9,0-.45,0-.9-.06-.45-.06-.91,0-.45,0-.9,0-.45,0-.9,0-.45,0-.91,0-.45,0-.91.05-.45.05-.91,0-.45,0-.9,0-.45,0-.91,0-.45,0-.91,0-.46,0-.91,0-.46,0-.91a1,1,0,0,0-.34-.69,1.26,1.26,0,0,0-.72-.36,1.29,1.29,0,0,0-.39.05,1.38,1.38,0,0,1,.74.28A.81.81,0,0,1,189.77,229.46Z"/><path class="cls-26" d="M191.61,234.93c-.08,0-.16.07-.23.08a.53.53,0,0,1,.42.45,2.58,2.58,0,0,1,.13.68c0,.14,0,.44,0,.82s0,.52,0,.81,0,.54,0,.82,0,.55,0,.82,0,.56-.06.82,0,.6,0,.82a6,6,0,0,1-.15.8,4,4,0,0,1-.28.76,3.51,3.51,0,0,1-.41.71,3.83,3.83,0,0,1-.54.62,5.25,5.25,0,0,1-.71.44c-.11.45,0,.47,0,.93s0,.46,0,.93.06.46.05.93,0,.47,0,.93,0,.47,0,.93,0,.47,0,.93-.18.5,0,.93a.21.21,0,0,0,.39,0c.19-.42,0-.46,0-.92s0-.47,0-.93,0-.46,0-.93.07-.47.08-.93-.09-.47-.09-.93,0-.47,0-.93a2.76,2.76,0,0,1,0-.93,5.15,5.15,0,0,0,.7-.43,4,4,0,0,0,.56-.6,3.66,3.66,0,0,0,.43-.7,4,4,0,0,0,.25-.78,6.11,6.11,0,0,0,.15-.8c0-.22-.05-.51,0-.82s0-.53.05-.81,0-.55,0-.82,0-.56,0-.82,0-.58,0-.82,0-.67,0-.82a2.43,2.43,0,0,0-.07-.78A.59.59,0,0,0,191.61,234.93Z"/><path class="cls-27" d="M222.11,192.56c0,.22,0,.44,0,.66s0,.44-.05.66a6.56,6.56,0,0,1-.05.66,3.26,3.26,0,0,1-.22.62,2.25,2.25,0,0,1-.32.59c-.25.3-.17.6-.47.44-.13-.06-.08-.13,0-.26a2.33,2.33,0,0,0,.49-.78,3.28,3.28,0,0,0,.21-.62,6.23,6.23,0,0,0,.11-.65c0-.22,0-.44,0-.66s.06-.45,0-.66-.06-.4-.1-.69,0-.45-.07-.69,0-.47,0-.7a5.07,5.07,0,0,1,0-.7,1.85,1.85,0,0,1,.15-.69.61.61,0,0,1,.6-.28h.17a.66.66,0,0,0-.49.42,2.3,2.3,0,0,0-.09.66,5.47,5.47,0,0,0,0,.67c0,.22,0,.45,0,.67s.05.47.08.67S222.11,192.41,222.11,192.56Z"/><path class="cls-27" d="M219.08,181.85c0,.35,0,.35,0,.69s0,.35,0,.7,0,.35,0,.69,0,.35,0,.69,0,.35,0,.69,0,.35,0,.7-.05.35-.05.7,0,.35,0,.7,0,.35,0,.7,0,.35,0,.7.05.35.05.7-.06.35-.06.7,0,.35,0,.7.07.35.07.7-.06.35-.06.7.12.36,0,.7-.2-.15-.36-.76a4.45,4.45,0,0,1,0-.74c0-.37,0-.37,0-.74s0-.37,0-.74,0-.37,0-.74,0-.37,0-.74,0-.37,0-.74,0-.37,0-.74,0-.37,0-.74,0-.37,0-.74,0-.37,0-.74,0-.37,0-.74.05-.37.05-.75,0-.37,0-.75,0-.37,0-.75a.78.78,0,0,1,.27-.58,1.08,1.08,0,0,1,.6-.26,1.15,1.15,0,0,1,.3,0,1.06,1.06,0,0,0-.59.29C219.07,181.52,219.07,181.52,219.08,181.85Z"/><polygon class="cls-28" points="12.98 172.14 117.12 232.52 220.94 172.26 116.97 111.9 12.98 172.14"/><line class="cls-29" x1="25.73" y1="171.69" x2="71.74" y2="198.51"/><line class="cls-29" x1="30.14" y1="168.94" x2="76.16" y2="195.76"/><line class="cls-29" x1="34.66" y1="166.27" x2="80.67" y2="193.09"/><line class="cls-29" x1="39.3" y1="163.73" x2="85.32" y2="190.55"/><line class="cls-29" x1="43.61" y1="160.86" x2="89.63" y2="187.68"/><line class="cls-29" x1="48.26" y1="158.32" x2="94.27" y2="185.14"/><line class="cls-29" x1="52.9" y1="155.45" x2="98.91" y2="182.26"/><line class="cls-29" x1="58.21" y1="152.57" x2="104.22" y2="179.39"/><line class="cls-29" x1="63.52" y1="149.7" x2="109.53" y2="176.52"/><line class="cls-29" x1="68.5" y1="146.83" x2="114.51" y2="173.64"/><line class="cls-29" x1="122.6" y1="172" x2="168.62" y2="198.82"/><line class="cls-29" x1="127.02" y1="169.25" x2="173.03" y2="196.07"/><line class="cls-29" x1="131.54" y1="166.58" x2="177.55" y2="193.4"/><line class="cls-29" x1="136.18" y1="164.04" x2="182.19" y2="190.86"/><line class="cls-29" x1="140.49" y1="161.17" x2="186.5" y2="187.98"/><line class="cls-29" x1="145.13" y1="158.63" x2="191.15" y2="185.44"/><line class="cls-29" x1="149.78" y1="155.75" x2="195.79" y2="182.57"/><line class="cls-29" x1="155.09" y1="152.88" x2="201.1" y2="179.7"/><line class="cls-29" x1="160.4" y1="150.01" x2="206.41" y2="176.82"/><line class="cls-29" x1="165.37" y1="147.13" x2="211.39" y2="173.95"/><line class="cls-29" x1="162.35" y1="143.65" x2="116.34" y2="170.46"/><line class="cls-29" x1="157.93" y1="140.9" x2="111.92" y2="167.71"/><line class="cls-29" x1="153.42" y1="138.23" x2="107.4" y2="165.04"/><line class="cls-29" x1="148.77" y1="135.69" x2="102.76" y2="162.5"/><line class="cls-29" x1="144.46" y1="132.81" x2="98.45" y2="159.63"/><line class="cls-29" x1="139.82" y1="130.27" x2="93.81" y2="157.09"/><line class="cls-29" x1="135.18" y1="127.4" x2="89.16" y2="154.22"/><line class="cls-29" x1="129.87" y1="124.53" x2="83.85" y2="151.34"/><line class="cls-29" x1="124.56" y1="121.65" x2="78.54" y2="148.47"/><line class="cls-29" x1="119.58" y1="118.78" x2="73.57" y2="145.6"/><line class="cls-29" x1="161.68" y1="200.38" x2="115.67" y2="227.2"/><line class="cls-29" x1="157.27" y1="197.63" x2="111.25" y2="224.45"/><line class="cls-29" x1="152.75" y1="194.96" x2="106.74" y2="221.78"/><line class="cls-29" x1="148.11" y1="192.42" x2="102.09" y2="219.24"/><line class="cls-29" x1="143.8" y1="189.55" x2="97.78" y2="216.37"/><line class="cls-29" x1="139.15" y1="187.01" x2="93.14" y2="213.83"/><line class="cls-29" x1="134.51" y1="184.14" x2="88.5" y2="210.95"/><line class="cls-29" x1="129.2" y1="181.26" x2="83.19" y2="208.08"/><line class="cls-29" x1="123.89" y1="178.39" x2="77.88" y2="205.21"/><line class="cls-29" x1="118.91" y1="175.52" x2="72.9" y2="202.33"/><path class="cls-30" d="M53.8,146.67A21,21,0,0,1,52,143.74a32.2,32.2,0,0,1-1.39-3,26.59,26.59,0,0,1-1-3.07c-.14-.52-.26-1-.35-1.56,0-.26-.09-.53-.12-.79a7.8,7.8,0,0,1-.06-.8h0q.29.35.54.72c.17.24.33.48.48.73.31.49.58,1,.85,1.47a28.22,28.22,0,0,1,1.36,3,30,30,0,0,1,1,3.07,16.67,16.67,0,0,1,.57,3.15Z"/><path class="cls-31" d="M49,134.51q.29.35.54.72c.17.24.33.48.48.73.31.49.58,1,.85,1.47a28.22,28.22,0,0,1,1.36,3,30,30,0,0,1,1,3.07,16.67,16.67,0,0,1,.57,3.15h0"/><path class="cls-30" d="M45.3,156.19l0,0q.16-.36.35-.69c.12-.22.25-.43.39-.64.27-.42.55-.82.85-1.21a22.39,22.39,0,0,1,1.93-2.19,25.3,25.3,0,0,1,2.17-2,15.31,15.31,0,0,1,2.48-1.64"/><path class="cls-31" d="M53.44,147.84l0,0a15.56,15.56,0,0,1-1.6,2.52,25.42,25.42,0,0,1-1.91,2.21,22.3,22.3,0,0,1-2.15,2c-.38.3-.78.6-1.19.87l-.63.4q-.32.19-.67.36"/><path class="cls-30" d="M54.77,145.54c-1.07,0-3.42,1.26-3.54,2.64s3.19.82,3.54.69,1.44-.82,1.3-1.85S55.84,145.54,54.77,145.54Z"/><rect class="cls-32" x="53.31" y="148.02" width="2.02" height="23.01"/><path class="cls-31" d="M51.25,148.44s4.15-.14,4.33-2.72c0,0,1.35,1.89-.47,3S51,148.77,51.25,148.44Z"/><path class="cls-31" d="M67.29,149.49v0q-.41.06-.81.09l-.81,0c-.54,0-1.08,0-1.63,0a30.76,30.76,0,0,1-3.25-.34c-1.08-.17-2.17-.38-3.26-.65a22.86,22.86,0,0,1-3.26-1.05v0"/><path class="cls-30" d="M54.27,147.55a19.62,19.62,0,0,1,3.25-.08c1.08.05,2.17.16,3.25.31a32,32,0,0,1,3.26.63c.54.14,1.09.29,1.63.46l.81.28q.41.15.81.33"/><path class="cls-10" d="M78.16,179.41a6.79,6.79,0,0,0,.37-.57c.11-.19.21-.38.31-.57.19-.38.36-.76.51-1.15a15.55,15.55,0,0,0,.69-2.29,16,16,0,0,0,.35-2.29c0-.35,0-.69,0-1h.47a2.6,2.6,0,0,0,1.41-.34h0a.73.73,0,0,0,.21-.57,1.54,1.54,0,0,0-.26-.73c.84-.08,1.67-.2,2.49-.33,1.14-.2,2.26-.44,3.38-.71s2.22-.59,3.31-1c.54-.19,1.09-.38,1.62-.6l.8-.34q.4-.18.79-.38h0v0l-.88,0-.87.08c-.58.07-1.15.15-1.72.25-1.14.2-2.26.45-3.37.73s-2.22.61-3.31,1c-.83.29-1.65.59-2.45.94a3.59,3.59,0,0,0-2.43-1.45,1.16,1.16,0,0,0-.29,0h0c-.08,0-.19,0-.3.13a.76.76,0,0,0-.21.21c-.21-.18-.41-.37-.63-.55A24,24,0,0,0,76,166.38,24.65,24.65,0,0,0,73.61,165c-.43-.21-.87-.41-1.33-.6l-.71-.27-.75-.24,0,0a5.17,5.17,0,0,0,.39.47c.14.15.29.3.44.45.3.29.62.57,1,.84a21.47,21.47,0,0,0,2.17,1.51c.77.47,1.58.93,2.44,1.34.45.21.91.42,1.38.62a2,2,0,0,0,0,.4H54.45V171H79.21a1.93,1.93,0,0,0,.45.3c-.21.42-.39.84-.56,1.25a17.85,17.85,0,0,0-.72,2.29,14.21,14.21,0,0,0-.38,2.29,10.48,10.48,0,0,0,0,1.15c0,.19,0,.38,0,.57a4.26,4.26,0,0,0,.1.57Z"/><path class="cls-30" d="M115.48,161.44a21,21,0,0,1-1.84-2.92,32.2,32.2,0,0,1-1.39-3,26.59,26.59,0,0,1-1-3.07c-.14-.52-.26-1-.35-1.56,0-.26-.09-.53-.12-.79a7.8,7.8,0,0,1-.06-.8h0q.29.35.54.72c.17.24.33.48.48.73.31.49.58,1,.85,1.47a28.22,28.22,0,0,1,1.36,3,30,30,0,0,1,1,3.07,16.67,16.67,0,0,1,.57,3.15Z"/><path class="cls-31" d="M110.69,149.28q.29.35.54.72c.17.24.33.48.48.73.31.49.58,1,.85,1.47a28.22,28.22,0,0,1,1.36,3,30,30,0,0,1,1,3.07,16.67,16.67,0,0,1,.57,3.15h0"/><path class="cls-30" d="M107,171l0,0q.16-.36.35-.69c.12-.22.25-.43.39-.64.27-.42.55-.82.85-1.21a22.39,22.39,0,0,1,1.93-2.19,25.3,25.3,0,0,1,2.17-2,15.31,15.31,0,0,1,2.48-1.64"/><path class="cls-31" d="M115.12,162.61l0,0a15.56,15.56,0,0,1-1.6,2.52,25.42,25.42,0,0,1-1.91,2.21,22.3,22.3,0,0,1-2.15,2c-.38.3-.78.6-1.19.87l-.63.4q-.32.19-.67.36"/><path class="cls-30" d="M116.46,160.31c-1.07,0-3.42,1.26-3.54,2.64s3.19.82,3.54.69,1.44-.82,1.3-1.85S117.53,160.31,116.46,160.31Z"/><rect class="cls-33" x="115" y="162.79" width="2.02" height="23.01"/><path class="cls-31" d="M112.94,163.22s4.15-.14,4.33-2.72c0,0,1.35,1.89-.47,3S112.71,163.54,112.94,163.22Z"/><path class="cls-31" d="M129,164.26v0q-.41.06-.81.09l-.81,0c-.54,0-1.08,0-1.63,0a30.76,30.76,0,0,1-3.25-.34c-1.08-.17-2.17-.38-3.26-.65a22.86,22.86,0,0,1-3.26-1.05v0"/><path class="cls-30" d="M116,162.33a19.62,19.62,0,0,1,3.25-.08c1.08.05,2.17.16,3.25.31a32,32,0,0,1,3.26.63c.54.14,1.09.29,1.63.46l.81.28q.41.15.81.33"/><path class="cls-10" d="M139.84,194.18a6.79,6.79,0,0,0,.37-.57c.11-.19.21-.38.31-.57.19-.38.36-.76.51-1.15a15.55,15.55,0,0,0,.69-2.29,16,16,0,0,0,.35-2.29c0-.35,0-.69,0-1h.47a2.6,2.6,0,0,0,1.41-.34h0a.73.73,0,0,0,.21-.57,1.54,1.54,0,0,0-.26-.73c.84-.08,1.67-.2,2.49-.33,1.14-.2,2.26-.44,3.38-.71s2.22-.59,3.31-1c.54-.19,1.09-.38,1.62-.6l.8-.34q.4-.18.79-.38h0v0l-.88,0-.87.08c-.58.07-1.15.15-1.72.25-1.14.2-2.26.45-3.37.73s-2.22.61-3.31,1c-.83.29-1.65.59-2.45.94a3.59,3.59,0,0,0-2.43-1.45,1.16,1.16,0,0,0-.29,0h0c-.08,0-.19,0-.3.13a.76.76,0,0,0-.21.21c-.21-.18-.41-.37-.63-.55a24,24,0,0,0-2.15-1.53,24.65,24.65,0,0,0-2.41-1.36c-.43-.21-.87-.41-1.33-.6l-.71-.27-.75-.24,0,0a5.17,5.17,0,0,0,.39.47c.14.15.29.3.44.45.3.29.62.57,1,.84a21.47,21.47,0,0,0,2.17,1.51c.77.47,1.58.93,2.44,1.34.45.21.91.42,1.38.62a2,2,0,0,0,0,.4H116.13v1.42H140.9a1.93,1.93,0,0,0,.45.3c-.21.42-.39.84-.56,1.25a17.85,17.85,0,0,0-.72,2.29,14.21,14.21,0,0,0-.38,2.29,10.48,10.48,0,0,0,0,1.15c0,.19,0,.38,0,.57a4.26,4.26,0,0,0,.1.57Z"/><path class="cls-30" d="M145.73,147.71a23.72,23.72,0,0,1-2.08-3.31,36.44,36.44,0,0,1-1.58-3.4,30.09,30.09,0,0,1-1.18-3.47c-.15-.59-.29-1.17-.4-1.77-.05-.3-.1-.6-.14-.9a8.83,8.83,0,0,1-.07-.91h0q.33.4.61.81c.19.27.37.55.54.82.35.55.66,1.11,1,1.67a32,32,0,0,1,1.54,3.41,34,34,0,0,1,1.15,3.48,18.87,18.87,0,0,1,.64,3.57Z"/><path class="cls-31" d="M140.31,133.95q.33.4.61.81c.19.27.37.55.54.82.35.55.66,1.11,1,1.67a32,32,0,0,1,1.54,3.41,34,34,0,0,1,1.15,3.48,18.87,18.87,0,0,1,.64,3.57h0"/><path class="cls-30" d="M136.12,158.49l0,0q.18-.4.39-.78c.14-.25.29-.49.44-.73.3-.48.63-.93,1-1.37a25.34,25.34,0,0,1,2.18-2.48,28.63,28.63,0,0,1,2.46-2.21,17.33,17.33,0,0,1,2.8-1.86"/><path class="cls-31" d="M145.33,149l0,0a17.61,17.61,0,0,1-1.81,2.85,28.77,28.77,0,0,1-2.16,2.5,25.24,25.24,0,0,1-2.43,2.23c-.43.34-.88.68-1.35,1-.23.15-.47.31-.72.45s-.5.28-.76.4"/><path class="cls-30" d="M146.83,146.43c-1.22,0-3.87,1.43-4,3s3.61.93,4,.78,1.62-.93,1.47-2.09S148.05,146.43,146.83,146.43Z"/><rect class="cls-34" x="145.18" y="149.24" width="2.28" height="26.05"/><path class="cls-31" d="M142.85,149.72s4.7-.16,4.91-3.08c0,0,1.53,2.14-.54,3.34S142.59,150.09,142.85,149.72Z"/><path class="cls-31" d="M161,150.91v0q-.46.07-.92.1l-.92,0c-.61,0-1.23,0-1.84,0a34.82,34.82,0,0,1-3.68-.39c-1.23-.19-2.46-.43-3.68-.74a25.87,25.87,0,0,1-3.69-1.19v0"/><path class="cls-30" d="M146.27,148.71a22.21,22.21,0,0,1,3.68-.09c1.23.06,2.45.18,3.68.36a36.22,36.22,0,0,1,3.68.71c.61.16,1.23.32,1.84.52l.92.32q.46.17.92.38"/><polygon class="cls-35" points="210.46 166.8 213.69 168.8 213.68 176.66 210.44 174.68 210.46 166.8"/><path class="cls-35" d="M217.53,168.17l3.69,2.21s.77-4.35-1.38-5.58S217.53,168.17,217.53,168.17Z"/><path class="cls-35" d="M211.78,164.36l3.69,2.21s.77-4.35-1.38-5.58S211.78,164.36,211.78,164.36Z"/><path class="cls-35" d="M205.67,160.88l3.69,2.21s.77-4.35-1.38-5.58S205.67,160.88,205.67,160.88Z"/><path class="cls-10" d="M108.62,145.25s8.08.37,10.75,0c.93-.13,4.68-1.32,3-2.85s-10.48-.94-10.48-.94Z"/><path class="cls-36" d="M109.69,137.57c1.53-.68,2.77.45,2.77,2.51s-1.22,4.29-2.75,5-2.77-.44-2.77-2.51S108.17,138.25,109.69,137.57Z"/><path class="cls-37" d="M110.5,137.37h0a1.66,1.66,0,0,1,.35,0h0a1.56,1.56,0,0,1,.33.11h0l-3.76-1.68h0l-.14-.05-.14,0h-.57l-.17,0h-.1l-.13,0-.25.1a3.17,3.17,0,0,0-.59.35l0,0-.23.19-.18.17,0,0,0,0-.11.11-.15.18-.15.19,0,.06,0,0-.08.11-.14.22-.15.25,0,0,0,0-.12.22-.15.32,0,.1,0,.1-.07.19q-.08.23-.15.47v0l0,.12c0,.17-.08.33-.11.5s0,0,0,.07a5.59,5.59,0,0,0-.07.88,2.65,2.65,0,0,0,1.25,2.57l3.76,1.68a2.65,2.65,0,0,1-1.25-2.57,5.59,5.59,0,0,1,.07-.88c0-.19.07-.38.12-.57l0-.12a6.63,6.63,0,0,1,.23-.68l0-.1a6.43,6.43,0,0,1,.3-.64l0,0a6,6,0,0,1,.39-.61l0,0a5.08,5.08,0,0,1,.45-.53l0,0a4,4,0,0,1,.47-.41,3.17,3.17,0,0,1,.59-.35,2.4,2.4,0,0,1,.38-.13h.05A1.94,1.94,0,0,1,110.5,137.37Z"/><path class="cls-10" d="M121.37,202.33s8.08.37,10.75,0c.93-.13,4.68-1.32,3-2.85s-10.48-.94-10.48-.94Z"/><path class="cls-36" d="M122.44,194.65c1.53-.68,2.77.45,2.77,2.51s-1.22,4.29-2.75,5-2.77-.44-2.77-2.51S120.92,195.33,122.44,194.65Z"/><path class="cls-37" d="M123.25,194.45h0a1.66,1.66,0,0,1,.35,0h0a1.56,1.56,0,0,1,.33.11h0l-3.76-1.68h0l-.14-.05-.14,0h-.57l-.17,0h-.1l-.13,0-.25.1a3.17,3.17,0,0,0-.59.35l0,0-.23.19-.18.17,0,0,0,0-.11.11-.15.18-.15.19,0,.06,0,0-.08.11-.14.22-.15.25,0,0,0,0-.12.22-.15.32,0,.1,0,.1-.07.19q-.08.23-.15.47v0l0,.12c0,.17-.08.33-.11.5s0,0,0,.07a5.59,5.59,0,0,0-.07.88,2.65,2.65,0,0,0,1.25,2.57l3.76,1.68a2.65,2.65,0,0,1-1.25-2.57,5.59,5.59,0,0,1,.07-.88c0-.19.07-.38.12-.57l0-.12a6.63,6.63,0,0,1,.23-.68l0-.1a6.43,6.43,0,0,1,.3-.64l0,0a6,6,0,0,1,.39-.61l0,0a5.08,5.08,0,0,1,.45-.53l0,0a4,4,0,0,1,.47-.41,3.17,3.17,0,0,1,.59-.35,2.4,2.4,0,0,1,.38-.13h.05A1.94,1.94,0,0,1,123.25,194.45Z"/><path class="cls-10" d="M92.22,205.16s8.08.37,10.75,0c.93-.13,4.68-1.32,3-2.85s-10.48-.94-10.48-.94Z"/><path class="cls-36" d="M93.28,197.48c1.53-.68,2.77.45,2.77,2.51s-1.22,4.29-2.75,5-2.77-.44-2.77-2.51S91.76,198.15,93.28,197.48Z"/><path class="cls-37" d="M94.09,197.28h0a1.66,1.66,0,0,1,.35,0h0a1.56,1.56,0,0,1,.33.11h0L91,195.73h0l-.14-.05-.14,0h-.57l-.17,0h-.1l-.13,0-.25.1a3.17,3.17,0,0,0-.59.35l0,0-.23.19-.18.17,0,0,0,0-.11.11-.15.18L88,197l0,.06,0,0-.08.11-.14.22-.15.25,0,0,0,0-.12.22-.15.32,0,.1,0,.1-.07.19q-.08.23-.15.47v0l0,.12c0,.17-.08.33-.11.5s0,0,0,.07a5.59,5.59,0,0,0-.07.88A2.65,2.65,0,0,0,88,203.33L91.79,205a2.65,2.65,0,0,1-1.25-2.57,5.59,5.59,0,0,1,.07-.88c0-.19.07-.38.12-.57l0-.12a6.63,6.63,0,0,1,.23-.68l0-.1a6.43,6.43,0,0,1,.3-.64l0,0a6,6,0,0,1,.39-.61l0,0a5.08,5.08,0,0,1,.45-.53l0,0a4,4,0,0,1,.47-.41,3.17,3.17,0,0,1,.59-.35,2.4,2.4,0,0,1,.38-.13h.05A1.94,1.94,0,0,1,94.09,197.28Z"/></g><g id="Layer_16" data-name="Layer 16"><polygon class="cls-10" points="232.83 143.52 303.32 184.48 232.96 225.28 162.4 184.41 232.83 143.52"/><polygon class="cls-38" points="162.86 157.16 233.32 198.01 303.56 157.24 233.21 116.4 162.86 157.16"/><polygon class="cls-39" points="162.98 157.24 162.98 173.31 233.27 214.49 233.15 197.92 162.98 157.24"/><polygon class="cls-40" points="233.15 197.92 303.56 157.24 303.56 173.71 233.27 214.49 233.15 197.92"/><polygon class="cls-10" points="233.71 175.64 271.86 175.64 303.56 157.24 271.61 138.69 244.84 146.1 233.71 175.64"/><polygon class="cls-41" points="207.67 155.76 234.01 140.45 259.99 155.57 233.71 170.87 207.67 155.76"/><polyline class="cls-42" points="233.71 175.64 258.22 161.13 258.22 156.6 233.71 170.87"/><polygon class="cls-42" points="233.71 160.67 242.21 155.69 247.69 135.73 237.17 147.08 233.71 160.67"/><polygon class="cls-43" points="224.68 155.37 234.17 120.24 242.75 125.17 233.71 160.67 224.68 155.37"/><polygon class="cls-10" points="233.71 160.67 251.24 160.67 258.22 156.6 242.75 149.06 233.71 160.67"/><polygon class="cls-1" points="181.23 109.96 216.31 89.92 294.95 135.49 259.99 155.76 181.23 109.96"/><g class="cls-44"><polygon class="cls-45" points="181.23 109.76 216.31 89.72 294.95 135.29 259.99 155.56 181.23 109.76"/><polygon class="cls-46" points="216.36 109.62 224.87 104.64 234.3 110.01 225.74 115.02 216.36 109.62"/><polygon class="cls-46" points="225.04 135.3 233.92 130.1 242.75 135.16 233.77 140.32 225.04 135.3"/><line class="cls-47" x1="188.14" y1="115.71" x2="227.17" y2="92.87"/><line class="cls-48" x1="196.79" y1="121.07" x2="235.82" y2="98.23"/><line class="cls-49" x1="215.42" y1="131" x2="254.46" y2="108.17"/><line class="cls-50" x1="222.05" y1="137.01" x2="261.08" y2="114.18"/><line class="cls-51" x1="230.41" y1="142.42" x2="269.44" y2="119.59"/><line class="cls-52" x1="239.46" y1="147.2" x2="278.49" y2="124.37"/><line class="cls-53" x1="247.49" y1="152.8" x2="286.52" y2="129.96"/><line class="cls-54" x1="207.65" y1="125.59" x2="246.69" y2="102.76"/></g><polygon class="cls-55" points="181.4 109.88 259.99 155.57 259.99 160.24 181.37 113.83 181.4 109.88"/><polygon class="cls-42" points="259.99 155.57 259.99 160.24 294.82 139.66 294.78 135.39 259.99 155.57"/><line class="cls-56" x1="189.94" y1="104.88" x2="268.86" y2="150.14"/><line class="cls-56" x1="199.03" y1="99.65" x2="277.41" y2="144.75"/><line class="cls-56" x1="207.67" y1="94.85" x2="286.9" y2="139.95"/><polygon class="cls-43" points="207.67 155.76 207.67 160.24 233.71 175.64 233.71 170.87 207.67 155.76"/></g></svg>