<svg xmlns="http://www.w3.org/2000/svg" xmlns:xlink="http://www.w3.org/1999/xlink" viewBox="0 0 504 504"><defs><style>.cls-1{fill:url(#linear-gradient);}.cls-2,.cls-29,.cls-56{fill:none;}.cls-3{fill:#556040;}.cls-4{fill:#96899b;}.cls-5{fill:#5b5260;}.cls-6{fill:#997093;}.cls-7{fill:#ad7da4;}.cls-8{fill:#f4e8f9;}.cls-9{fill:#dcd1e5;}.cls-10,.cls-15{fill:#5c515f;}.cls-10,.cls-14{opacity:0.6;}.cls-11{fill:#c19e4f;}.cls-12{fill:#e26e5a;}.cls-13{fill:#f97e62;}.cls-16{fill:url(#linear-gradient-2);}.cls-17{fill:url(#green_halftone);}.cls-18{fill:url(#linear-gradient-3);}.cls-19{fill:url(#green_halftone-7);}.cls-20{fill:#d8ae5b;}.cls-21{fill:#d8bdab;}.cls-22{fill:#f47160;}.cls-23{fill:#ea6e5e;}.cls-24{fill:#c45c4e;}.cls-25{fill:url(#linear-gradient-4);}.cls-26{fill:url(#green_halftone-13);}.cls-27{fill:url(#green_halftone-19);}.cls-28{fill:#f9d162;}.cls-29{stroke:#e5bd5c;stroke-linecap:round;stroke-linejoin:round;stroke-width:2.21px;}.cls-30{fill:#d4c0dd;}.cls-31{fill:#6c6170;}.cls-32{fill:url(#linear-gradient-5);}.cls-33{fill:url(#linear-gradient-6);}.cls-34{fill:url(#linear-gradient-7);}.cls-35{fill:#988a9e;}.cls-36{fill:#a78746;}.cls-37{fill:#f2d651;}.cls-38{fill:#ccc;}.cls-39{fill:#b5b5b5;}.cls-40{fill:#727272;}.cls-41{fill:#95879b;}.cls-42{fill:#58525c;}.cls-43{fill:#b7acbf;}.cls-44{clip-path:url(#clip-path);}.cls-45{fill:url(#linear-gradient-9);}.cls-46{fill:#79d7db;}.cls-47,.cls-48,.cls-49,.cls-50,.cls-51,.cls-52,.cls-53,.cls-54,.cls-56{stroke:#58525c;stroke-miterlimit:10;stroke-width:0.42px;}.cls-47{fill:url(#linear-gradient-10);}.cls-48{fill:url(#linear-gradient-11);}.cls-49{fill:url(#linear-gradient-12);}.cls-50{fill:url(#linear-gradient-13);}.cls-51{fill:url(#linear-gradient-14);}.cls-52{fill:url(#linear-gradient-15);}.cls-53{fill:url(#linear-gradient-16);}.cls-54{fill:url(#linear-gradient-17);}.cls-55{fill:#8c7d91;}</style><linearGradient id="linear-gradient" x1="200.06" y1="155.55" x2="313.78" y2="155.55" gradientUnits="userSpaceOnUse"><stop offset="0" stop-color="#79d7db"/><stop offset="1" stop-color="#4f8b95"/></linearGradient><linearGradient id="linear-gradient-2" x1="369.74" y1="219.92" x2="377.07" y2="219.92" gradientUnits="userSpaceOnUse"><stop offset="0" stop-color="#bace8d"/><stop offset="1" stop-color="#899b68"/></linearGradient><pattern id="green_halftone" data-name="green halftone" width="10" height="10" patternTransform="translate(4.55 49.61) scale(0.03)" patternUnits="userSpaceOnUse" viewBox="0 0 10 10"><rect class="cls-2" width="10" height="10"/><circle class="cls-3" cx="7.5" cy="10" r="1.66" transform="translate(-3.57 15.81) rotate(-80.82)"/><circle class="cls-3" cx="2.5" cy="10" r="1.66" transform="translate(-7.77 10.87) rotate(-80.82)"/><circle class="cls-3" cx="10" cy="5" r="1.66" transform="translate(3.47 14.07) rotate(-80.82)"/><circle class="cls-3" cx="5" cy="5" r="1.66" transform="translate(-0.73 9.14) rotate(-80.82)"/><circle class="cls-3" cy="5" r="1.66" transform="translate(-4.94 4.2) rotate(-80.82)"/><circle class="cls-3" cx="7.5" r="1.66" transform="translate(6.3 7.4) rotate(-80.82)"/><circle class="cls-3" cx="2.5" r="1.66" transform="translate(2.1 2.47) rotate(-80.82)"/></pattern><linearGradient id="linear-gradient-3" x1="369.11" y1="158.49" x2="375.32" y2="158.49" xlink:href="#linear-gradient-2"/><pattern id="green_halftone-7" data-name="green halftone" width="10" height="10" patternTransform="translate(3.99 39.77) scale(0.02)" patternUnits="userSpaceOnUse" viewBox="0 0 10 10"><rect class="cls-2" width="10" height="10"/><circle class="cls-3" cx="7.5" cy="10" r="1.66" transform="translate(-3.57 15.81) rotate(-80.82)"/><circle class="cls-3" cx="2.5" cy="10" r="1.66" transform="translate(-7.77 10.87) rotate(-80.82)"/><circle class="cls-3" cx="10" cy="5" r="1.66" transform="translate(3.47 14.07) rotate(-80.82)"/><circle class="cls-3" cx="5" cy="5" r="1.66" transform="translate(-0.73 9.14) rotate(-80.82)"/><circle class="cls-3" cy="5" r="1.66" transform="translate(-4.94 4.2) rotate(-80.82)"/><circle class="cls-3" cx="7.5" r="1.66" transform="translate(6.3 7.4) rotate(-80.82)"/><circle class="cls-3" cx="2.5" r="1.66" transform="translate(2.1 2.47) rotate(-80.82)"/></pattern><linearGradient id="linear-gradient-4" x1="247.73" y1="272.43" x2="255.31" y2="272.43" gradientTransform="translate(-44.58)" xlink:href="#linear-gradient-2"/><pattern id="green_halftone-13" data-name="green halftone" width="10" height="10" patternTransform="translate(-3.07 39.39) scale(0.03)" patternUnits="userSpaceOnUse" viewBox="0 0 10 10"><rect class="cls-2" width="10" height="10"/><circle class="cls-3" cx="7.5" cy="10" r="1.66" transform="translate(-3.57 15.81) rotate(-80.82)"/><circle class="cls-3" cx="2.5" cy="10" r="1.66" transform="translate(-7.77 10.87) rotate(-80.82)"/><circle class="cls-3" cx="10" cy="5" r="1.66" transform="translate(3.47 14.07) rotate(-80.82)"/><circle class="cls-3" cx="5" cy="5" r="1.66" transform="translate(-0.73 9.14) rotate(-80.82)"/><circle class="cls-3" cy="5" r="1.66" transform="translate(-4.94 4.2) rotate(-80.82)"/><circle class="cls-3" cx="7.5" r="1.66" transform="translate(6.3 7.4) rotate(-80.82)"/><circle class="cls-3" cx="2.5" r="1.66" transform="translate(2.1 2.47) rotate(-80.82)"/></pattern><pattern id="green_halftone-19" data-name="green halftone" width="10" height="10" patternTransform="matrix(-0.02, 0, 0, 0.02, -4.26, 39.98)" patternUnits="userSpaceOnUse" viewBox="0 0 10 10"><rect class="cls-2" width="10" height="10"/><circle class="cls-3" cx="7.5" cy="10" r="1.66" transform="translate(-3.57 15.81) rotate(-80.82)"/><circle class="cls-3" cx="2.5" cy="10" r="1.66" transform="translate(-7.77 10.87) rotate(-80.82)"/><circle class="cls-3" cx="10" cy="5" r="1.66" transform="translate(3.47 14.07) rotate(-80.82)"/><circle class="cls-3" cx="5" cy="5" r="1.66" transform="translate(-0.73 9.14) rotate(-80.82)"/><circle class="cls-3" cy="5" r="1.66" transform="translate(-4.94 4.2) rotate(-80.82)"/><circle class="cls-3" cx="7.5" r="1.66" transform="translate(6.3 7.4) rotate(-80.82)"/><circle class="cls-3" cx="2.5" r="1.66" transform="translate(2.1 2.47) rotate(-80.82)"/></pattern><linearGradient id="linear-gradient-5" x1="72.14" y1="192.24" x2="74.16" y2="192.24" gradientUnits="userSpaceOnUse"><stop offset="0.01" stop-color="#d4c0dd"/><stop offset="1" stop-color="#464049"/></linearGradient><linearGradient id="linear-gradient-6" x1="133.83" y1="207.01" x2="135.84" y2="207.01" xlink:href="#linear-gradient-5"/><linearGradient id="linear-gradient-7" x1="164.01" y1="194.98" x2="166.29" y2="194.98" xlink:href="#linear-gradient-5"/><clipPath id="clip-path"><polygon class="cls-1" points="200.06 142.68 235.14 122.63 313.78 168.2 278.82 188.47 200.06 142.68"/></clipPath><linearGradient id="linear-gradient-9" x1="200.06" y1="155.35" x2="313.78" y2="155.35" xlink:href="#linear-gradient"/><linearGradient id="linear-gradient-10" x1="206.97" y1="137.01" x2="246" y2="137.01" xlink:href="#linear-gradient"/><linearGradient id="linear-gradient-11" x1="215.62" y1="142.37" x2="254.65" y2="142.37" xlink:href="#linear-gradient"/><linearGradient id="linear-gradient-12" x1="234.25" y1="152.3" x2="273.29" y2="152.3" xlink:href="#linear-gradient"/><linearGradient id="linear-gradient-13" x1="240.88" y1="158.31" x2="279.91" y2="158.31" xlink:href="#linear-gradient"/><linearGradient id="linear-gradient-14" x1="249.24" y1="163.72" x2="288.27" y2="163.72" xlink:href="#linear-gradient"/><linearGradient id="linear-gradient-15" x1="258.29" y1="168.5" x2="297.32" y2="168.5" xlink:href="#linear-gradient"/><linearGradient id="linear-gradient-16" x1="266.32" y1="174.1" x2="305.36" y2="174.1" xlink:href="#linear-gradient"/><linearGradient id="linear-gradient-17" x1="226.48" y1="146.89" x2="265.52" y2="146.89" xlink:href="#linear-gradient"/></defs><title>logos-mega</title><g id="Layer_5" data-name="Layer 5"><polygon class="cls-4" points="146.64 139.66 146.64 163.41 250.53 224.28 250.35 199.79 146.64 139.66"/><polygon class="cls-5" points="250.36 199.67 354.43 139.54 354.43 163.88 250.54 224.16 250.36 199.67"/><polygon class="cls-6" points="146.61 139.65 250.57 199.87 354.16 139.72 251.13 76.75 146.61 139.65"/><polygon class="cls-7" points="146.61 139.65 176.95 109.07 187.86 107.39 228.38 60.5 236.04 57.86 246.6 44.13 252.41 45.97 259.81 56.54 262.71 58.12 269.84 76.75 279.61 83.47 296.51 107.5 318.43 122.82 354.16 139.72 250.57 199.87 146.61 139.65"/><polygon class="cls-6" points="228.38 60.5 230.49 74.49 233.66 74.49 242.91 106.71 245.81 88.49 242.64 76.75 247.66 66.31 236.04 57.86 228.38 60.5"/><polygon class="cls-6" points="262.71 58.12 267.12 85.21 269.84 76.75 262.71 58.12"/><polygon class="cls-6" points="279.61 83.47 284.47 109.07 282.04 113.62 291.48 127.04 315.15 132.94 296.28 110.67 293.33 103.29 279.61 83.47"/><polygon class="cls-6" points="250.39 71.66 255.31 85.21 261.22 106.71 261.22 124.41 266.28 129.76 269.84 105.14 262.71 93.69 260.12 80.78 250.39 71.66"/><polygon class="cls-6" points="212.5 90.37 205.49 111.41 212.5 132.94 187.86 107.39 176.95 109.07 191.1 127.04 204.01 134.19 222.84 155.7 221.36 117.08 213.98 108.2 218.41 83.47 212.5 90.37"/><polygon class="cls-8" points="216.55 74.19 230.07 71.66 232.61 68.43 238.02 75.69 247.66 66.31 252 61.01 257.67 69.2 264.92 71.66 265.3 64.89 262.71 58.12 259.81 56.54 252.41 45.97 246.6 44.13 236.04 57.86 228.38 60.5 216.55 74.19"/><polygon class="cls-9" points="229.78 61.37 232.52 67.27 235.15 68.32 231.68 60.53 229.78 61.37"/><polygon class="cls-9" points="252.32 47.15 253.05 58.12 258.42 64.42 256.95 56.42 252.32 47.15"/><polygon class="cls-9" points="262.71 60.53 264.11 68.95 265.3 64.89 262.71 60.53"/><polygon class="cls-9" points="235.15 63.16 237.58 73.37 237.58 65.9 235.15 63.16"/><polygon class="cls-10" points="136.34 190.31 32.45 250.68 136.16 310.81 240.14 250.57 136.34 190.31"/><polygon class="cls-11" points="135.62 265.06 239.69 204.93 239.69 229.27 135.8 289.55 135.62 265.06"/><path class="cls-10" d="M260,252.53s12.92-32.41,32.19-42.78,29.65-3.6,38.12-10.38,27.32-11,33.68-7.41,103.75,60.48,103.75,60.48L363.69,312.59Z"/><path class="cls-12" d="M259.37,206.14l38.47-45.34a7.66,7.66,0,0,1,6.41-2.69c8.47.62,28.54,1.81,36.49-.31,5.75-1.53,22.47-11.84,22.47-11.84L467,206.13,363.19,266.36Z"/><path class="cls-13" d="M259.37,206.14l38.47-45.34a3.6,3.6,0,0,1,5.44,0c2.91,2.85,3.44,12.64,7.41,15.15s11.77,1.59,16.4,8.33,18.81,47.21,25.37,52.16,10.73,29.91,10.73,29.91Z"/><path class="cls-13" d="M408.13,224.16s-11,1.84-20.51-10-12.29-23.94-20.78-25.27-9.37-7.38-7.75-9.38,9.87-12,23.93-6,13.11,21,22.09,23.67,25.66,8.16,22.28,11.89S408.13,224.16,408.13,224.16Z"/><g class="cls-14"><path class="cls-15" d="M376.31,229.56c.43-.11.14-.26.62-.6a4.38,4.38,0,0,1,.79-.39,5.41,5.41,0,0,1,.82-.34,8.27,8.27,0,0,1,.87-.18c.27,0,.57,0,.89-.07s.57,0,.89,0,.58.07.89.09.58,0,.85,0l.85.06.85.06c.3,0,.58,0,.85,0l.85,0c.31,0,.59.06.85.08s.59.07.84.1a3.87,3.87,0,0,1,.81.2c.36.13.53.27.53.54s-.24.38-.65.45a6,6,0,0,1-.86,0c-.27,0-.56,0-.86,0s-.58,0-.87,0-.58-.09-.86-.12l-.86-.11c-.35,0-.65-.05-.86-.07s-.53-.07-.8-.09-.54,0-.8,0-.54-.06-.8-.06-.55,0-.8,0-.56,0-.8,0a4.82,4.82,0,0,0-.86.21c-.51.16-1.17.14-.77.31s.41,0,.83.06.42.1.84.13.43,0,.85,0l.85.06c.42,0,.42,0,.85,0s.42.1.84.13.43-.06.85,0,.42.12.84.14.43,0,.85,0,.42.07.84.1.43-.05.85,0l.85.06.84,0c.42,0,.42.06.84.09s.42.06.84.09l.85,0,.85.05c.42,0,.42,0,.85,0l.85.07.85.07c.42,0,.42.05.84.08s.43,0,.85,0l.85.07.85.06.85.06c.43,0,.43,0,.85,0a1.72,1.72,0,0,1,.83.21c.29.13.53.35.43.66a.83.83,0,0,1-.58.5,1.35,1.35,0,0,1-.77.1c-.43,0-.42-.06-.85-.08l-.85-.07-.85,0c-.43,0-.43,0-.86,0l-.85-.06c-.43,0-.43,0-.86,0s-.42-.08-.85-.11-.42-.06-.85-.08-.43,0-.85,0-.43,0-.86,0-.42-.06-.85-.08-.42-.07-.85-.1-.43,0-.86,0l-.85-.07-.85-.07-.85,0c-.43,0-.43,0-.86,0s-.43-.05-.86-.08-.43-.06-.86-.09a4.2,4.2,0,0,0-.86,0c-.4,0,.17.07.77.2a7.72,7.72,0,0,0,.78.22l.8.09c.24,0,.52,0,.81,0s.51.13.79.15l.81.06c.26,0,.53,0,.82,0s.55.08.8.09.56,0,.81,0l.8,0c.31,0,.58.07.8.09s.61.05.8.09c.59.11.51.26.52.46s-.25.37-.64.4a7,7,0,0,1-.84,0l-.87,0c-.26,0-.56-.07-.88-.09s-.57-.08-.87-.1l-.88,0L387,233l-.88-.1c-.34,0-.64,0-.88,0s-.56-.12-.88-.18-.59-.05-.89-.13a7,7,0,0,1-.84-.31,5.32,5.32,0,0,1-.79-.42,4.17,4.17,0,0,1-.71-.51,3,3,0,0,0-.8-.13l-.82,0-.82,0c-.41,0-.41,0-.82,0s-.41,0-.82,0l-.81-.07-.82,0-.82-.06c-.41,0-.41-.08-.82-.1s-.54.26-.84,0,.08-.35.1-.7-.26-.45,0-.66.38,0,.79,0,.41,0,.82,0a7.42,7.42,0,0,1,.81.11A1.45,1.45,0,0,0,376.31,229.56Z"/></g><path class="cls-16" d="M372.85,228.2c-.14-.38-.36,0-.79-.27a4.38,4.38,0,0,1-.64-.49,3.68,3.68,0,0,1-.62-.52,4.1,4.1,0,0,1-.42-.7,4.36,4.36,0,0,1-.33-.75,5.64,5.64,0,0,1-.11-.81,6.23,6.23,0,0,1-.09-.81c0-.31,0-.62,0-.9s-.09-.61-.1-.9,0-.62,0-.9-.06-.62-.06-.9a7.23,7.23,0,0,1,.05-.89,1.6,1.6,0,0,1,.3-.81.86.86,0,0,1,.75-.33.69.69,0,0,1,.68.34,2,2,0,0,1,.24.79,5.92,5.92,0,0,1,0,.83c0,.27-.09.55-.12.82s-.06.57-.09.83-.12.62-.12.81,0,.52,0,.78,0,.52.07.78a7.74,7.74,0,0,0,.06.78,3.87,3.87,0,0,0,.25.73,2.6,2.6,0,0,0,.4.69c.29.36.39.93.56.56s0-.42,0-.84,0-.42,0-.85,0-.42,0-.85,0-.42,0-.85,0-.42,0-.85-.07-.42-.07-.85,0-.42,0-.85,0-.42,0-.84.06-.42.06-.85,0-.42,0-.85,0-.42,0-.85,0-.42,0-.85,0-.43,0-.85,0-.42,0-.85,0-.42,0-.85,0-.42,0-.85-.05-.43-.05-.85,0-.43,0-.85.06-.43.06-.86,0-.43,0-.85,0-.5.34-.79A1,1,0,0,1,374,209a1.33,1.33,0,0,1,.73.31c.34.3.28.31.27.71s.06.41.06.82,0,.41,0,.82,0,.41,0,.82.08.41.08.82,0,.41,0,.82,0,.41,0,.82,0,.41,0,.82.05.41.05.82,0,.41,0,.83-.09.41-.09.82.08.41.08.82,0,.41,0,.82,0,.41,0,.83,0,.41,0,.83,0,.41,0,.83-.09.42,0,.82.11-.16.28-.8a5.07,5.07,0,0,0,.26-.85c0-.26,0-.56,0-.89s.09-.56.09-.89-.08-.57-.09-.89,0-.55,0-.8,0-.56,0-.8,0-.58,0-.8a2.91,2.91,0,0,1,.15-.78c.12-.38.3-.35.6-.36a.52.52,0,0,1,.57.38,2.27,2.27,0,0,1,.08.75c0,.14,0,.42,0,.79s0,.5,0,.79,0,.52,0,.79,0,.54,0,.8,0,.55,0,.79,0,.57,0,.79a5.79,5.79,0,0,1-.14.77,3.8,3.8,0,0,1-.26.73,3.39,3.39,0,0,1-.41.66,3.61,3.61,0,0,1-.51.6,4.45,4.45,0,0,1-.63.46,2.61,2.61,0,0,0-.06.89c0,.45,0,.45,0,.9s0,.45,0,.9-.05.45-.06.9,0,.45,0,.9,0,.45,0,.9.26.52,0,.88-.32,0-.67,0-.35.07-.71.07-.5.25-.73,0,0-.43,0-.85a4.33,4.33,0,0,1,0-.84C372.89,228.63,373,228.6,372.85,228.2Z"/><path class="cls-17" d="M371.54,222.65c0,.25,0,.52,0,.78s0,.53,0,.78a7.31,7.31,0,0,0,.13.77,4.35,4.35,0,0,0,.15.77,2.64,2.64,0,0,0,.44.69c.29.36.25.74.61.57.15-.07,0-.2,0-.35a2.7,2.7,0,0,1-.62-.9A4.29,4.29,0,0,1,372,225a7.71,7.71,0,0,1-.06-.77c0-.26-.08-.52-.09-.78s.07-.52.08-.78,0-.48.06-.82.08-.53.11-.82.06-.55.07-.83a5.85,5.85,0,0,0,0-.83,1.94,1.94,0,0,0-.27-.77.71.71,0,0,0-.64-.44,1.4,1.4,0,0,0-.19,0,.78.78,0,0,1,.53.54,2.46,2.46,0,0,1,.21.76,6.76,6.76,0,0,1,0,.8c0,.26-.05.53-.08.79s-.06.55-.09.79S371.54,222.47,371.54,222.65Z"/><path class="cls-17" d="M375,210c0,.41,0,.41,0,.82s.08.41.08.82,0,.41,0,.82,0,.41,0,.82,0,.41,0,.82,0,.41,0,.82,0,.41,0,.82,0,.41,0,.82,0,.41,0,.83,0,.41,0,.82-.06.41-.06.82,0,.41,0,.82,0,.41,0,.83,0,.41,0,.83.06.41.06.83-.2.45-.07.84.28-.19.47-.91c0-.43-.08-.44-.08-.88s.07-.44.07-.87,0-.44,0-.87-.06-.44-.06-.88,0-.44,0-.88,0-.44,0-.88,0-.44,0-.88,0-.44,0-.88.05-.44.05-.88,0-.44,0-.87,0-.44,0-.88,0-.44,0-.88,0-.44,0-.88,0-.44,0-.88,0-.37-.33-.67a1.22,1.22,0,0,0-.69-.34,1.25,1.25,0,0,0-.38,0,1.33,1.33,0,0,1,.72.27C375.09,209.6,375,209.61,375,210Z"/><path class="cls-17" d="M376.8,215.29c-.08,0-.16.07-.22.08a.51.51,0,0,1,.41.43,2.5,2.5,0,0,1,.13.65c0,.14,0,.42,0,.79s0,.5,0,.79,0,.52,0,.79,0,.54,0,.8,0,.55-.06.79,0,.58,0,.79a5.84,5.84,0,0,1-.14.78,3.87,3.87,0,0,1-.27.74,3.4,3.4,0,0,1-.39.68,3.7,3.7,0,0,1-.52.6,5.08,5.08,0,0,1-.69.42c-.11.44,0,.45,0,.9s0,.45,0,.9.05.45.05.9,0,.45,0,.9,0,.45,0,.9,0,.45,0,.91-.17.49,0,.9a.2.2,0,0,0,.38,0c.18-.41,0-.44,0-.89s0-.45,0-.9,0-.45,0-.9.07-.45.07-.9-.09-.45-.08-.9,0-.45,0-.9a2.67,2.67,0,0,1,0-.91,5,5,0,0,0,.68-.42,3.83,3.83,0,0,0,.55-.58,3.54,3.54,0,0,0,.42-.68,3.87,3.87,0,0,0,.25-.76,5.91,5.91,0,0,0,.14-.78c0-.21-.05-.49,0-.79s0-.51.05-.79,0-.53,0-.79,0-.54,0-.79,0-.56,0-.79,0-.65,0-.79a2.35,2.35,0,0,0-.07-.76A.57.57,0,0,0,376.8,215.29Z"/><g class="cls-14"><path class="cls-15" d="M374.67,166.65c.36-.09.12-.22.52-.51a3.71,3.71,0,0,1,.67-.33,4.58,4.58,0,0,1,.69-.28,7,7,0,0,1,.74-.15c.23,0,.48,0,.75-.06l.76,0c.24,0,.49.06.76.07s.49,0,.72,0l.72,0,.72.05c.25,0,.49,0,.72,0l.72,0c.26,0,.5.05.72.07s.51.06.72.08a3.26,3.26,0,0,1,.69.17c.3.11.45.23.45.45s-.2.32-.55.38a5.07,5.07,0,0,1-.73,0c-.23,0-.47,0-.72,0s-.49,0-.73,0-.49-.08-.73-.11l-.73-.09c-.3,0-.55,0-.72-.06s-.45-.06-.67-.07l-.68,0c-.23,0-.46-.05-.68-.05s-.46,0-.68,0-.47,0-.68,0a4.08,4.08,0,0,0-.73.18c-.43.14-1,.12-.65.26s.35,0,.7.05.35.08.71.11.36,0,.72,0l.72.05c.36,0,.36,0,.72,0s.35.09.71.11.36-.05.72,0,.35.1.71.12.36,0,.71,0,.35.06.71.08.36,0,.72,0l.72.05.72,0c.36,0,.36.05.71.07s.36.05.71.08l.72,0,.72,0c.36,0,.36,0,.72,0l.72.06.72.06c.36,0,.36,0,.72.07s.36,0,.72,0l.72.06.72,0,.72,0,.72,0a1.45,1.45,0,0,1,.7.18c.24.11.45.3.36.56a.7.7,0,0,1-.49.42,1.14,1.14,0,0,1-.65.08c-.36,0-.36,0-.72-.07l-.72-.06-.72,0c-.36,0-.36,0-.72,0l-.72-.05c-.36,0-.36,0-.73,0s-.36-.07-.72-.09-.36,0-.72-.07-.36,0-.72,0-.36,0-.73,0-.36,0-.72-.07-.36-.06-.72-.08-.36,0-.73,0l-.72-.06-.72-.06-.72,0c-.36,0-.37,0-.73,0s-.36,0-.73-.07-.36-.05-.73-.08a3.57,3.57,0,0,0-.73,0c-.34,0,.14.06.65.17a6.54,6.54,0,0,0,.66.19l.68.08c.21,0,.44,0,.68,0s.43.11.67.13l.69,0c.22,0,.45,0,.69,0s.47.07.68.08.48,0,.69,0l.69,0c.26,0,.49.06.68.08s.51,0,.67.07c.5.09.43.22.44.39s-.21.31-.54.34a5.89,5.89,0,0,1-.71,0l-.74,0-.74-.07c-.24,0-.48-.07-.74-.09l-.75,0-.75-.07-.75-.08c-.28,0-.54,0-.75,0s-.48-.1-.74-.15-.5,0-.75-.11a5.94,5.94,0,0,1-.71-.26,4.5,4.5,0,0,1-.67-.36,3.53,3.53,0,0,1-.6-.43,2.49,2.49,0,0,0-.68-.11l-.69,0-.69,0c-.35,0-.35,0-.69,0l-.69,0-.69-.06-.69,0-.69-.05c-.35,0-.35-.07-.69-.09s-.45.22-.71,0,.07-.3.09-.59-.22-.38,0-.55.32,0,.67,0,.35,0,.69,0a6.28,6.28,0,0,1,.69.09A1.23,1.23,0,0,0,374.67,166.65Z"/></g><path class="cls-18" d="M371.75,165.51c-.12-.32-.3,0-.67-.23a3.71,3.71,0,0,1-.54-.42,3.11,3.11,0,0,1-.53-.44,3.47,3.47,0,0,1-.36-.59,3.69,3.69,0,0,1-.28-.63,4.77,4.77,0,0,1-.1-.68,5.28,5.28,0,0,1-.07-.69c0-.27,0-.52,0-.76s-.08-.52-.09-.76,0-.52,0-.76,0-.53-.05-.76a6.12,6.12,0,0,1,0-.76,1.36,1.36,0,0,1,.26-.69.73.73,0,0,1,.64-.28.59.59,0,0,1,.58.29,1.73,1.73,0,0,1,.21.67,5,5,0,0,1,0,.7c0,.23-.07.47-.1.7s0,.49-.08.7-.1.53-.1.69,0,.44,0,.66,0,.44.06.66a6.55,6.55,0,0,0,.05.66,3.28,3.28,0,0,0,.21.62,2.2,2.2,0,0,0,.33.59c.25.3.33.79.47.47s0-.36,0-.71,0-.36,0-.71,0-.36,0-.71,0-.36,0-.71,0-.36,0-.72-.06-.36-.06-.72,0-.36,0-.72,0-.36,0-.72,0-.36,0-.72,0-.36,0-.72,0-.36,0-.72,0-.36,0-.72,0-.36,0-.72,0-.36,0-.72,0-.36,0-.72,0-.36,0-.72,0-.36,0-.72,0-.36,0-.72.05-.36.05-.73,0-.36,0-.72,0-.42.28-.67a.87.87,0,0,1,.72-.19,1.12,1.12,0,0,1,.62.26c.29.25.23.26.23.6s.05.35.05.7,0,.35,0,.7,0,.35,0,.69.07.35.07.69,0,.35,0,.69,0,.35,0,.7,0,.35,0,.7,0,.35,0,.7,0,.35,0,.7-.07.35-.07.7.07.35.07.7,0,.35,0,.7,0,.35,0,.7,0,.35,0,.7,0,.35,0,.7-.08.36,0,.69.09-.14.24-.67a4.29,4.29,0,0,0,.22-.72c0-.22,0-.47,0-.75s.07-.47.08-.75-.07-.48-.08-.76,0-.47,0-.68,0-.48,0-.68,0-.49,0-.68a2.45,2.45,0,0,1,.13-.66c.1-.32.26-.29.5-.31a.44.44,0,0,1,.49.32,1.93,1.93,0,0,1,.07.63c0,.12,0,.36,0,.67s0,.42,0,.67,0,.44,0,.67,0,.45,0,.67,0,.46,0,.67,0,.49,0,.67a4.9,4.9,0,0,1-.12.66,3.22,3.22,0,0,1-.22.62,2.87,2.87,0,0,1-.35.56,3.06,3.06,0,0,1-.43.51,3.77,3.77,0,0,1-.53.39,2.21,2.21,0,0,0,0,.76c0,.38,0,.38,0,.76s0,.38,0,.76,0,.38,0,.76,0,.38,0,.76,0,.38,0,.77.22.44,0,.74-.27,0-.57,0-.3.06-.6.06-.42.22-.62,0,0-.37,0-.72a3.66,3.66,0,0,1,0-.71C371.78,165.86,371.87,165.84,371.75,165.51Z"/><path class="cls-19" d="M370.63,160.8c0,.22,0,.44,0,.66s0,.45,0,.66a6.19,6.19,0,0,0,.11.65,3.68,3.68,0,0,0,.13.65,2.24,2.24,0,0,0,.37.58c.25.3.21.63.52.48.13-.06,0-.17,0-.3a2.29,2.29,0,0,1-.53-.76,3.64,3.64,0,0,1-.14-.65,6.53,6.53,0,0,1-.05-.66c0-.22-.07-.44-.07-.66s.06-.44.07-.66,0-.4,0-.69.07-.45.09-.69.05-.47.06-.7a5,5,0,0,0,0-.7,1.64,1.64,0,0,0-.23-.65.61.61,0,0,0-.55-.37l-.16,0a.66.66,0,0,1,.45.46,2.08,2.08,0,0,1,.18.64,5.7,5.7,0,0,1,0,.68c0,.22,0,.45-.07.67s-.05.47-.08.67S370.64,160.65,370.63,160.8Z"/><path class="cls-19" d="M373.57,150.09c0,.35,0,.35,0,.69s.07.35.07.7,0,.35,0,.69,0,.35,0,.69,0,.35,0,.69,0,.35,0,.7,0,.35,0,.7,0,.35,0,.7,0,.35,0,.7,0,.35,0,.7-.05.35-.05.7,0,.35,0,.7,0,.35,0,.7,0,.35,0,.7.05.35.05.7-.17.38-.06.71.24-.16.39-.77c0-.37-.07-.37-.07-.74s.06-.37.06-.74,0-.37,0-.74,0-.37,0-.74,0-.37,0-.74,0-.37,0-.74,0-.37,0-.74,0-.37,0-.74,0-.37,0-.74,0-.37,0-.74,0-.37,0-.74,0-.37,0-.75,0-.37,0-.75,0-.37,0-.75,0-.31-.28-.56a1,1,0,0,0-.59-.29,1.06,1.06,0,0,0-.32,0,1.13,1.13,0,0,1,.61.23A.66.66,0,0,1,373.57,150.09Z"/><path class="cls-19" d="M375.08,154.57c-.06,0-.13.06-.19.06a.43.43,0,0,1,.35.37,2.12,2.12,0,0,1,.11.55c0,.12,0,.36,0,.67s0,.43,0,.67,0,.44,0,.67,0,.45,0,.67,0,.46,0,.67,0,.49,0,.67a4.94,4.94,0,0,1-.12.66,3.28,3.28,0,0,1-.23.62,2.88,2.88,0,0,1-.33.58,3.14,3.14,0,0,1-.44.51,4.3,4.3,0,0,1-.58.36c-.09.37,0,.38,0,.76s0,.38,0,.76,0,.38,0,.76,0,.38,0,.76,0,.38,0,.76,0,.38,0,.77-.15.41,0,.77a.17.17,0,0,0,.32,0c.15-.35,0-.38,0-.76s0-.38,0-.76,0-.38,0-.76.06-.38.06-.76-.07-.38-.07-.76,0-.38,0-.77a2.26,2.26,0,0,1,0-.77,4.22,4.22,0,0,0,.57-.36,3.24,3.24,0,0,0,.46-.5,3,3,0,0,0,.35-.58,3.28,3.28,0,0,0,.21-.64,5,5,0,0,0,.12-.66c0-.18,0-.41,0-.67s0-.43,0-.67,0-.45,0-.67,0-.46,0-.67,0-.47,0-.67,0-.55,0-.67a2,2,0,0,0-.06-.64A.48.48,0,0,0,375.08,154.57Z"/><polygon class="cls-10" points="249.38 256.56 145.49 316.93 249.19 377.06 353.17 316.82 249.38 256.56"/><polygon class="cls-20" points="31.9 204.94 31.9 228.69 135.79 289.56 135.61 265.07 31.9 204.94"/><path class="cls-21" d="M175.12,172.94c0,2-.64,4.16-3.87,2.76s-3.81-7.09-7.51-7.35-6.47-3.35-4.76-4.42,10.47,3,11.08,4.45S175.12,172.94,175.12,172.94Z"/><path class="cls-21" d="M211,207.81a12.54,12.54,0,0,1-4.67-5.5c-1.09-2.58-5-10.48-4.28-11.47s.3-5.49,1.15-6.24.65,4.19,2.26,8.83,1.5,7.33,3.61,7.83S211,207.81,211,207.81Z"/><path class="cls-21" d="M213.56,194.5c1.36-.31,2.39.21,3.86,1.59s7,5.4,7.58,6.1c1.82,2.25.06,4-.28,4.71s-1.67-2.59-4.1-5.19-3-3.52-4.7-4.12C214.44,197.05,212.2,194.81,213.56,194.5Z"/><polygon class="cls-22" points="144.79 270.63 144.79 294.38 248.68 355.25 248.5 330.76 144.79 270.63"/><polygon class="cls-23" points="259.29 206.16 259.29 229.9 363.18 290.78 362.99 266.29 259.29 206.16"/><polygon class="cls-24" points="248.51 330.75 352.57 270.62 352.57 294.96 248.69 355.24 248.51 330.75"/><polygon class="cls-24" points="363.01 266.31 467.07 206.18 467.07 230.52 363.19 290.8 363.01 266.31"/><path class="cls-13" d="M352.17,270.62,313.7,225.28a7.66,7.66,0,0,0-6.41-2.69c-8.47.62-28.54,1.81-36.49-.31-5.75-1.53-22.47-11.84-22.47-11.84L144.56,270.61l103.78,60.22Z"/><path class="cls-12" d="M352.17,270.62,313.7,225.28a3.6,3.6,0,0,0-5.44,0c-2.91,2.85-3.44,12.64-7.41,15.15s-11.77,1.59-16.4,8.33S265.64,296,259.08,300.92s-10.73,29.91-10.73,29.91Z"/><path class="cls-12" d="M203.41,288.64s11,1.84,20.51-10,12.29-23.94,20.78-25.27,9.37-7.38,7.75-9.38-9.87-12-23.93-6-13.11,21-22.09,23.67-25.66,8.16-22.28,11.89S203.41,288.64,203.41,288.64Z"/><g class="cls-14"><path class="cls-15" d="M209.94,282.39c.45-.11.15-.27.64-.62a4.53,4.53,0,0,1,.82-.4,5.59,5.59,0,0,1,.85-.35,8.54,8.54,0,0,1,.9-.18c.28,0,.59,0,.92-.07s.59,0,.92,0,.6.07.92.09.6,0,.88,0l.88.06.88.06c.31,0,.6,0,.88,0l.88,0c.32,0,.61.07.88.09s.61.07.87.1a4,4,0,0,1,.84.2c.37.13.55.28.55.55s-.25.39-.67.46a6.21,6.21,0,0,1-.89,0c-.28,0-.57,0-.88-.05s-.6,0-.9,0-.6-.09-.88-.13l-.89-.11c-.36,0-.67-.05-.88-.07s-.54-.07-.82-.09-.55,0-.83,0-.56-.06-.83-.06-.57,0-.83,0-.58,0-.83,0a5,5,0,0,0-.89.22c-.53.17-1.21.15-.8.32s.42,0,.86.06.43.1.87.13.44,0,.88,0l.87.06c.44,0,.44,0,.88,0s.43.11.87.13.44-.06.88,0,.43.12.87.15.44,0,.88,0,.43.08.87.1.44-.05.88,0l.87.07c.44,0,.44,0,.87,0s.43.06.87.09.43.07.87.09l.88,0,.87.06c.44,0,.44,0,.88,0l.88.07.87.07c.44,0,.44.05.87.08s.44,0,.88,0l.88.07.88.06.88.06c.44,0,.44,0,.88,0a1.77,1.77,0,0,1,.85.21c.3.14.55.37.44.68a.86.86,0,0,1-.59.52,1.4,1.4,0,0,1-.8.1c-.44,0-.44-.06-.88-.09l-.88-.07-.88,0c-.44,0-.44,0-.88,0l-.88-.07c-.44,0-.44,0-.88,0s-.44-.09-.88-.11-.44-.06-.88-.09-.44,0-.88,0-.44,0-.89,0-.44-.06-.88-.09-.44-.08-.88-.1-.44,0-.89,0l-.88-.07c-.44,0-.44,0-.88-.07l-.88,0c-.44,0-.45,0-.89,0s-.44-.05-.89-.08-.44-.07-.89-.09a4.34,4.34,0,0,0-.89,0c-.42,0,.17.07.8.21a8,8,0,0,0,.8.23c.24,0,.52.06.83.1s.53,0,.83,0,.52.13.82.15l.84.06c.27,0,.55,0,.84,0s.57.08.83.09.58,0,.84,0l.83.05c.32,0,.6.07.83.09s.63.05.83.09c.61.11.53.27.54.47s-.26.38-.66.41a7.19,7.19,0,0,1-.87,0l-.9-.05c-.27,0-.57-.07-.91-.09s-.59-.09-.9-.11l-.91,0-.91-.08c-.32,0-.63-.07-.91-.1s-.66,0-.91,0-.58-.13-.9-.18-.61-.05-.92-.14a7.25,7.25,0,0,1-.87-.32,5.5,5.5,0,0,1-.81-.44,4.31,4.31,0,0,1-.74-.53,3,3,0,0,0-.83-.13l-.84,0-.85,0c-.42,0-.42,0-.85,0s-.42,0-.84,0l-.84-.07-.85,0-.85-.06c-.42,0-.42-.08-.85-.11s-.55.27-.86,0,.08-.37.11-.72-.26-.47,0-.68.39,0,.81.05.42,0,.85,0a7.66,7.66,0,0,1,.84.11A1.5,1.5,0,0,0,209.94,282.39Z"/></g><path class="cls-25" d="M206.37,281c-.14-.4-.37,0-.82-.28a4.53,4.53,0,0,1-.66-.51,3.8,3.8,0,0,1-.64-.54,4.23,4.23,0,0,1-.44-.72,4.5,4.5,0,0,1-.34-.77,5.83,5.83,0,0,1-.12-.84,6.44,6.44,0,0,1-.09-.84c0-.32,0-.64,0-.93s-.09-.63-.1-.93,0-.64,0-.93-.06-.64-.06-.93a7.47,7.47,0,0,1,.05-.92,1.66,1.66,0,0,1,.31-.84.89.89,0,0,1,.78-.34.71.71,0,0,1,.71.35,2.12,2.12,0,0,1,.25.82,6.12,6.12,0,0,1,0,.86c0,.28-.09.57-.12.85s-.06.59-.09.85-.12.65-.13.84,0,.54,0,.81,0,.54.07.81a8,8,0,0,0,.07.8,4,4,0,0,0,.26.76,2.69,2.69,0,0,0,.41.71c.3.37.41,1,.58.58s0-.43,0-.87,0-.44,0-.88,0-.44,0-.88,0-.44,0-.88,0-.44,0-.87-.07-.44-.07-.88,0-.44,0-.87,0-.44,0-.87.06-.44.06-.87,0-.44,0-.88,0-.44,0-.88,0-.44,0-.88,0-.44,0-.88,0-.44,0-.88,0-.44,0-.88,0-.44,0-.88-.05-.44-.05-.88,0-.44,0-.88.07-.44.07-.88,0-.44,0-.88,0-.51.35-.82a1.07,1.07,0,0,1,.87-.23,1.37,1.37,0,0,1,.75.32c.35.31.29.32.27.73s.06.42.06.85,0,.43,0,.85,0,.42,0,.85.08.42.08.85,0,.42,0,.85,0,.43,0,.85,0,.43,0,.85.05.43.05.85,0,.43,0,.85-.09.43-.09.85.08.43.08.85,0,.42,0,.85,0,.43,0,.85,0,.43,0,.86,0,.43,0,.86-.09.44,0,.85.11-.17.29-.82a5.24,5.24,0,0,0,.27-.88c0-.26,0-.57,0-.92s.09-.58.09-.91-.08-.59-.09-.92,0-.57,0-.82,0-.58,0-.82,0-.6,0-.83a3,3,0,0,1,.16-.81c.12-.39.31-.36.62-.38a.54.54,0,0,1,.59.4,2.35,2.35,0,0,1,.09.77c0,.14,0,.44,0,.82s0,.52,0,.81,0,.54,0,.82,0,.55,0,.82,0,.57,0,.82,0,.59,0,.81a6,6,0,0,1-.15.8,3.93,3.93,0,0,1-.27.76,3.5,3.5,0,0,1-.42.69,3.73,3.73,0,0,1-.53.62,4.6,4.6,0,0,1-.65.47,2.7,2.7,0,0,0-.06.92c0,.46,0,.47,0,.93s0,.46,0,.93-.06.47-.06.93,0,.47,0,.93,0,.47,0,.93.27.54,0,.91-.33,0-.69,0-.37.07-.73.07-.51.26-.75,0,0-.45,0-.88a4.48,4.48,0,0,1,.05-.87C206.41,281.43,206.52,281.4,206.37,281Z"/><path class="cls-26" d="M205,275.25c0,.26,0,.53,0,.8s0,.54,0,.81a7.56,7.56,0,0,0,.13.79,4.49,4.49,0,0,0,.15.79,2.73,2.73,0,0,0,.45.71c.3.37.26.77.63.59.15-.08,0-.21,0-.36a2.79,2.79,0,0,1-.64-.93,4.44,4.44,0,0,1-.17-.79,8,8,0,0,1-.07-.8c0-.26-.09-.53-.09-.8s.07-.54.08-.81,0-.49.06-.85.08-.54.11-.84.07-.57.08-.85a6,6,0,0,0,0-.86,2,2,0,0,0-.28-.8.74.74,0,0,0-.67-.46,1.44,1.44,0,0,0-.2,0,.8.8,0,0,1,.55.56,2.54,2.54,0,0,1,.22.79,7,7,0,0,1,0,.82c0,.27-.05.55-.08.82s-.07.57-.1.82S205,275.06,205,275.25Z"/><path class="cls-26" d="M208.6,262.18c0,.42,0,.43,0,.85s.08.43.08.85,0,.42,0,.85,0,.42,0,.85,0,.42,0,.85,0,.43,0,.85,0,.43,0,.85,0,.43,0,.85.05.43.05.85,0,.43,0,.85-.07.43-.07.85,0,.42,0,.85,0,.43,0,.85,0,.43,0,.86.07.43.07.86-.21.46-.08.87.29-.19.48-.94c.05-.45-.08-.46-.08-.91s.07-.45.07-.9,0-.45,0-.9-.06-.45-.06-.91,0-.45,0-.9,0-.45,0-.9,0-.45,0-.91,0-.45,0-.91.05-.45.05-.91,0-.45,0-.9,0-.45,0-.91,0-.45,0-.91,0-.46,0-.91,0-.46,0-.91,0-.38-.34-.69a1.26,1.26,0,0,0-.72-.36,1.29,1.29,0,0,0-.39.05,1.38,1.38,0,0,1,.74.28C208.68,261.77,208.61,261.78,208.6,262.18Z"/><path class="cls-26" d="M210.44,267.64c-.08,0-.16.07-.23.08a.53.53,0,0,1,.42.45,2.58,2.58,0,0,1,.13.68c0,.14,0,.44,0,.82s0,.52,0,.81,0,.54,0,.82,0,.55,0,.82,0,.56-.06.82,0,.6,0,.82a6,6,0,0,1-.15.8,4,4,0,0,1-.28.76,3.51,3.51,0,0,1-.41.71,3.83,3.83,0,0,1-.54.62,5.25,5.25,0,0,1-.71.44c-.11.45,0,.47,0,.93s0,.46,0,.93.06.46.05.93,0,.47,0,.93,0,.47,0,.93,0,.47,0,.93-.18.5,0,.93a.21.21,0,0,0,.39,0c.19-.42,0-.46,0-.92s0-.47,0-.93,0-.46,0-.93.07-.47.08-.93-.09-.47-.09-.93,0-.47,0-.93a2.76,2.76,0,0,1,0-.93,5.15,5.15,0,0,0,.7-.43,4,4,0,0,0,.56-.6,3.66,3.66,0,0,0,.43-.7,4,4,0,0,0,.25-.78,6.11,6.11,0,0,0,.15-.8c0-.22-.05-.51,0-.82s0-.53.05-.81,0-.55,0-.82,0-.56,0-.82,0-.58,0-.82,0-.67,0-.82a2.43,2.43,0,0,0-.07-.78A.59.59,0,0,0,210.44,267.64Z"/><path class="cls-27" d="M240.94,225.28c0,.22,0,.44,0,.66s0,.44-.05.66a6.56,6.56,0,0,1-.05.66,3.26,3.26,0,0,1-.22.62,2.25,2.25,0,0,1-.32.59c-.25.3-.17.6-.47.44-.13-.06-.08-.13,0-.26a2.33,2.33,0,0,0,.49-.78,3.28,3.28,0,0,0,.21-.62,6.23,6.23,0,0,0,.11-.65c0-.22,0-.44,0-.66s.06-.45,0-.66-.06-.4-.1-.69,0-.45-.07-.69,0-.47,0-.7a5.07,5.07,0,0,1,0-.7,1.85,1.85,0,0,1,.15-.69.61.61,0,0,1,.6-.28h.17a.66.66,0,0,0-.49.42,2.3,2.3,0,0,0-.09.66,5.47,5.47,0,0,0,0,.67c0,.22,0,.45,0,.67s.05.47.08.67S240.94,225.12,240.94,225.28Z"/><path class="cls-27" d="M237.91,214.57c0,.35,0,.35,0,.69s0,.35,0,.7,0,.35,0,.69,0,.35,0,.69,0,.35,0,.69,0,.35,0,.7-.05.35-.05.7,0,.35,0,.7,0,.35,0,.7,0,.35,0,.7.05.35.05.7-.06.35-.06.7,0,.35,0,.7.07.35.07.7-.06.35-.06.7.12.36,0,.7-.2-.15-.36-.76a4.45,4.45,0,0,1,0-.74c0-.37,0-.37,0-.74s0-.37,0-.74,0-.37,0-.74,0-.37,0-.74,0-.37,0-.74,0-.37,0-.74,0-.37,0-.74,0-.37,0-.74,0-.37,0-.74,0-.37,0-.74.05-.37.05-.75,0-.37,0-.75,0-.37,0-.75,0-.33.27-.58a1.08,1.08,0,0,1,.6-.26,1.15,1.15,0,0,1,.3,0,1.06,1.06,0,0,0-.59.29C237.9,214.23,237.9,214.24,237.91,214.57Z"/><polygon class="cls-28" points="31.82 204.86 135.95 265.24 239.77 204.98 135.79 144.61 31.82 204.86"/><line class="cls-29" x1="44.56" y1="204.41" x2="90.57" y2="231.23"/><line class="cls-29" x1="48.97" y1="201.66" x2="94.99" y2="228.47"/><line class="cls-29" x1="53.49" y1="198.99" x2="99.5" y2="225.81"/><line class="cls-29" x1="58.13" y1="196.45" x2="104.15" y2="223.27"/><line class="cls-29" x1="62.44" y1="193.58" x2="108.46" y2="220.39"/><line class="cls-29" x1="67.09" y1="191.04" x2="113.1" y2="217.85"/><line class="cls-29" x1="71.73" y1="188.16" x2="117.74" y2="214.98"/><line class="cls-29" x1="77.04" y1="185.29" x2="123.05" y2="212.11"/><line class="cls-29" x1="82.35" y1="182.42" x2="128.36" y2="209.23"/><line class="cls-29" x1="87.33" y1="179.54" x2="133.34" y2="206.36"/><line class="cls-29" x1="141.43" y1="204.72" x2="187.45" y2="231.53"/><line class="cls-29" x1="145.85" y1="201.97" x2="191.86" y2="228.78"/><line class="cls-29" x1="150.37" y1="199.3" x2="196.38" y2="226.11"/><line class="cls-29" x1="155.01" y1="196.76" x2="201.02" y2="223.57"/><line class="cls-29" x1="159.32" y1="193.88" x2="205.33" y2="220.7"/><line class="cls-29" x1="163.96" y1="191.34" x2="209.98" y2="218.16"/><line class="cls-29" x1="168.61" y1="188.47" x2="214.62" y2="215.29"/><line class="cls-29" x1="173.92" y1="185.6" x2="219.93" y2="212.41"/><line class="cls-29" x1="179.23" y1="182.72" x2="225.24" y2="209.54"/><line class="cls-29" x1="184.2" y1="179.85" x2="230.22" y2="206.67"/><line class="cls-29" x1="181.18" y1="176.36" x2="135.17" y2="203.18"/><line class="cls-29" x1="176.76" y1="173.61" x2="130.75" y2="200.43"/><line class="cls-29" x1="172.25" y1="170.94" x2="126.23" y2="197.76"/><line class="cls-29" x1="167.6" y1="168.4" x2="121.59" y2="195.22"/><line class="cls-29" x1="163.29" y1="165.53" x2="117.28" y2="192.35"/><line class="cls-29" x1="158.65" y1="162.99" x2="112.64" y2="189.81"/><line class="cls-29" x1="154.01" y1="160.12" x2="107.99" y2="186.93"/><line class="cls-29" x1="148.7" y1="157.24" x2="102.68" y2="184.06"/><line class="cls-29" x1="143.39" y1="154.37" x2="97.37" y2="181.19"/><line class="cls-29" x1="138.41" y1="151.5" x2="92.4" y2="178.31"/><line class="cls-29" x1="180.51" y1="233.1" x2="134.5" y2="259.92"/><line class="cls-29" x1="176.1" y1="230.35" x2="130.08" y2="257.16"/><line class="cls-29" x1="171.58" y1="227.68" x2="125.57" y2="254.5"/><line class="cls-29" x1="166.94" y1="225.14" x2="120.92" y2="251.96"/><line class="cls-29" x1="162.63" y1="222.27" x2="116.61" y2="249.08"/><line class="cls-29" x1="157.98" y1="219.73" x2="111.97" y2="246.54"/><line class="cls-29" x1="153.34" y1="216.85" x2="107.33" y2="243.67"/><line class="cls-29" x1="148.03" y1="213.98" x2="102.02" y2="240.8"/><line class="cls-29" x1="142.72" y1="211.11" x2="96.71" y2="237.92"/><line class="cls-29" x1="137.74" y1="208.23" x2="91.73" y2="235.05"/><path class="cls-30" d="M72.63,179.39a21,21,0,0,1-1.84-2.92,32.2,32.2,0,0,1-1.39-3,26.59,26.59,0,0,1-1-3.07c-.14-.52-.26-1-.35-1.56,0-.26-.09-.53-.12-.79a7.8,7.8,0,0,1-.06-.8h0q.29.35.54.72c.17.24.33.48.48.73.31.49.58,1,.85,1.47a28.22,28.22,0,0,1,1.36,3,30,30,0,0,1,1,3.07,16.67,16.67,0,0,1,.57,3.15Z"/><path class="cls-31" d="M67.84,167.22q.29.35.54.72c.17.24.33.48.48.73.31.49.58,1,.85,1.47a28.22,28.22,0,0,1,1.36,3,30,30,0,0,1,1,3.07,16.67,16.67,0,0,1,.57,3.15h0"/><path class="cls-30" d="M64.13,188.91l0,0q.16-.36.35-.69c.12-.22.25-.43.39-.64.27-.42.55-.82.85-1.21a22.39,22.39,0,0,1,1.93-2.19,25.3,25.3,0,0,1,2.17-2,15.31,15.31,0,0,1,2.48-1.64"/><path class="cls-31" d="M72.27,180.56l0,0a15.56,15.56,0,0,1-1.6,2.52,25.42,25.42,0,0,1-1.91,2.21,22.3,22.3,0,0,1-2.15,2c-.38.3-.78.6-1.19.87l-.63.4q-.32.19-.67.36"/><path class="cls-30" d="M73.6,178.25c-1.07,0-3.42,1.26-3.54,2.64s3.19.82,3.54.69,1.44-.82,1.3-1.85S74.67,178.25,73.6,178.25Z"/><rect class="cls-32" x="72.14" y="180.73" width="2.02" height="23.01"/><path class="cls-31" d="M70.08,181.16s4.15-.14,4.33-2.72c0,0,1.35,1.89-.47,3S69.85,181.48,70.08,181.16Z"/><path class="cls-31" d="M86.12,182.21v0q-.41.06-.81.09l-.81,0c-.54,0-1.08,0-1.63,0a30.76,30.76,0,0,1-3.25-.34c-1.08-.17-2.17-.38-3.26-.65a22.86,22.86,0,0,1-3.26-1.05v0"/><path class="cls-30" d="M73.1,180.27a19.62,19.62,0,0,1,3.25-.08c1.08.05,2.17.16,3.25.31a32,32,0,0,1,3.26.63c.54.14,1.09.29,1.63.46l.81.28q.41.15.81.33"/><path class="cls-10" d="M97,212.12a6.79,6.79,0,0,0,.37-.57c.11-.19.21-.38.31-.57.19-.38.36-.76.51-1.15a15.55,15.55,0,0,0,.69-2.29,16,16,0,0,0,.35-2.29c0-.35,0-.69,0-1h.47a2.6,2.6,0,0,0,1.41-.34h0a.73.73,0,0,0,.21-.57,1.54,1.54,0,0,0-.26-.73c.84-.08,1.67-.2,2.49-.33,1.14-.2,2.26-.44,3.38-.71s2.22-.59,3.31-1c.54-.19,1.09-.38,1.62-.6l.8-.34q.4-.18.79-.38h0v0l-.88,0-.87.08c-.58.07-1.15.15-1.72.25-1.14.2-2.26.45-3.37.73s-2.22.61-3.31,1c-.83.29-1.65.59-2.45.94a3.59,3.59,0,0,0-2.43-1.45,1.16,1.16,0,0,0-.29,0h0c-.08,0-.19,0-.3.13a.76.76,0,0,0-.21.21c-.21-.18-.41-.37-.63-.55a24,24,0,0,0-2.15-1.53,24.65,24.65,0,0,0-2.41-1.36c-.43-.21-.87-.41-1.33-.6l-.71-.27-.75-.24,0,0a5.17,5.17,0,0,0,.39.47c.14.15.29.3.44.45.3.29.62.57,1,.84a21.47,21.47,0,0,0,2.17,1.51c.77.47,1.58.93,2.44,1.34.45.21.91.42,1.38.62a2,2,0,0,0,0,.4H73.28v1.42H98a1.93,1.93,0,0,0,.45.3c-.21.42-.39.84-.56,1.25a17.85,17.85,0,0,0-.72,2.29,14.21,14.21,0,0,0-.38,2.29,10.48,10.48,0,0,0,0,1.15c0,.19,0,.38,0,.57a4.26,4.26,0,0,0,.1.57Z"/><path class="cls-30" d="M134.31,194.16a21,21,0,0,1-1.84-2.92,32.2,32.2,0,0,1-1.39-3,26.59,26.59,0,0,1-1-3.07c-.14-.52-.26-1-.35-1.56,0-.26-.09-.53-.12-.79a7.8,7.8,0,0,1-.06-.8h0q.29.35.54.72c.17.24.33.48.48.73.31.49.58,1,.85,1.47a28.22,28.22,0,0,1,1.36,3,30,30,0,0,1,1,3.07,16.67,16.67,0,0,1,.57,3.15Z"/><path class="cls-31" d="M129.52,182q.29.35.54.72c.17.24.33.48.48.73.31.49.58,1,.85,1.47a28.22,28.22,0,0,1,1.36,3,30,30,0,0,1,1,3.07,16.67,16.67,0,0,1,.57,3.15h0"/><path class="cls-30" d="M125.82,203.68l0,0q.16-.36.35-.69c.12-.22.25-.43.39-.64.27-.42.55-.82.85-1.21a22.39,22.39,0,0,1,1.93-2.19,25.3,25.3,0,0,1,2.17-2,15.31,15.31,0,0,1,2.48-1.64"/><path class="cls-31" d="M134,195.33l0,0a15.56,15.56,0,0,1-1.6,2.52,25.42,25.42,0,0,1-1.91,2.21,22.3,22.3,0,0,1-2.15,2c-.38.3-.78.6-1.19.87l-.63.4q-.32.19-.67.36"/><path class="cls-30" d="M135.29,193c-1.07,0-3.42,1.26-3.54,2.64s3.19.82,3.54.69,1.44-.82,1.3-1.85S136.36,193,135.29,193Z"/><rect class="cls-33" x="133.83" y="195.51" width="2.02" height="23.01"/><path class="cls-31" d="M131.77,195.93s4.15-.14,4.33-2.72c0,0,1.35,1.89-.47,3S131.54,196.26,131.77,195.93Z"/><path class="cls-31" d="M147.81,197v0q-.41.06-.81.09l-.81,0c-.54,0-1.08,0-1.63,0a30.76,30.76,0,0,1-3.25-.34c-1.08-.17-2.17-.38-3.26-.65a22.86,22.86,0,0,1-3.26-1.05v0"/><path class="cls-30" d="M134.79,195A19.62,19.62,0,0,1,138,195c1.08.05,2.17.16,3.25.31a32,32,0,0,1,3.26.63c.54.14,1.09.29,1.63.46l.81.28q.41.15.81.33"/><path class="cls-10" d="M158.68,226.9a6.79,6.79,0,0,0,.37-.57c.11-.19.21-.38.31-.57.19-.38.36-.76.51-1.15a15.55,15.55,0,0,0,.69-2.29,16,16,0,0,0,.35-2.29c0-.35,0-.69,0-1h.47a2.6,2.6,0,0,0,1.41-.34h0a.73.73,0,0,0,.21-.57,1.54,1.54,0,0,0-.26-.73c.84-.08,1.67-.2,2.49-.33,1.14-.2,2.26-.44,3.38-.71s2.22-.59,3.31-1c.54-.19,1.09-.38,1.62-.6l.8-.34q.4-.18.79-.38h0v0l-.88,0-.87.08c-.58.07-1.15.15-1.72.25-1.14.2-2.26.45-3.37.73s-2.22.61-3.31,1c-.83.29-1.65.59-2.45.94a3.59,3.59,0,0,0-2.43-1.45,1.16,1.16,0,0,0-.29,0h0c-.08,0-.19,0-.3.13a.76.76,0,0,0-.21.21c-.21-.18-.41-.37-.63-.55a24,24,0,0,0-2.15-1.53,24.65,24.65,0,0,0-2.41-1.36c-.43-.21-.87-.41-1.33-.6l-.71-.27-.75-.24,0,0a5.17,5.17,0,0,0,.39.47c.14.15.29.3.44.45.3.29.62.57,1,.84a21.47,21.47,0,0,0,2.17,1.51c.77.47,1.58.93,2.44,1.34.45.21.91.42,1.38.62a2,2,0,0,0,0,.4H135v1.42h24.77a1.93,1.93,0,0,0,.45.3c-.21.42-.39.84-.56,1.25a17.85,17.85,0,0,0-.72,2.29,14.21,14.21,0,0,0-.38,2.29,10.48,10.48,0,0,0,0,1.15c0,.19,0,.38,0,.57a4.26,4.26,0,0,0,.1.57Z"/><path class="cls-30" d="M164.56,180.43a23.72,23.72,0,0,1-2.08-3.31,36.44,36.44,0,0,1-1.58-3.4,30.09,30.09,0,0,1-1.18-3.47c-.15-.59-.29-1.17-.4-1.77-.05-.3-.1-.6-.14-.9a8.83,8.83,0,0,1-.07-.91h0q.33.4.61.81c.19.27.37.55.54.82.35.55.66,1.11,1,1.67a32,32,0,0,1,1.54,3.41,34,34,0,0,1,1.15,3.48,18.87,18.87,0,0,1,.64,3.57Z"/><path class="cls-31" d="M159.14,166.66q.33.4.61.81c.19.27.37.55.54.82.35.55.66,1.11,1,1.67a32,32,0,0,1,1.54,3.41,34,34,0,0,1,1.15,3.48,18.87,18.87,0,0,1,.64,3.57h0"/><path class="cls-30" d="M155,191.2l0,0q.18-.4.39-.78c.14-.25.29-.49.44-.73.3-.48.63-.93,1-1.37a25.34,25.34,0,0,1,2.18-2.48,28.63,28.63,0,0,1,2.46-2.21,17.33,17.33,0,0,1,2.8-1.86"/><path class="cls-31" d="M164.16,181.75l0,0a17.61,17.61,0,0,1-1.81,2.85,28.77,28.77,0,0,1-2.16,2.5,25.24,25.24,0,0,1-2.43,2.23c-.43.34-.88.68-1.35,1-.23.15-.47.31-.72.45s-.5.28-.76.4"/><path class="cls-30" d="M165.67,179.15c-1.22,0-3.87,1.43-4,3s3.61.93,4,.78,1.62-.93,1.47-2.09S166.88,179.15,165.67,179.15Z"/><rect class="cls-34" x="164.01" y="181.96" width="2.28" height="26.05"/><path class="cls-31" d="M161.68,182.44s4.7-.16,4.91-3.08c0,0,1.53,2.14-.54,3.34S161.42,182.8,161.68,182.44Z"/><path class="cls-31" d="M179.83,183.62v0q-.46.07-.92.1l-.92,0c-.61,0-1.23,0-1.84,0a34.82,34.82,0,0,1-3.68-.39c-1.23-.19-2.46-.43-3.68-.74a25.87,25.87,0,0,1-3.69-1.19v0"/><path class="cls-30" d="M165.1,181.43a22.21,22.21,0,0,1,3.68-.09c1.23.06,2.45.18,3.68.36a36.22,36.22,0,0,1,3.68.71c.61.16,1.23.32,1.84.52l.92.32q.46.17.92.38"/><polygon class="cls-35" points="229.29 199.52 232.52 201.52 232.51 209.38 229.27 207.4 229.29 199.52"/><path class="cls-35" d="M236.36,200.89,240,203.1s.77-4.35-1.38-5.58S236.36,200.89,236.36,200.89Z"/><path class="cls-35" d="M230.61,197.07l3.69,2.21s.77-4.35-1.38-5.58S230.61,197.07,230.61,197.07Z"/><path class="cls-35" d="M224.5,193.59l3.69,2.21s.77-4.35-1.38-5.58S224.5,193.59,224.5,193.59Z"/><path class="cls-10" d="M127.45,178s8.08.37,10.75,0c.93-.13,4.68-1.32,3-2.85s-10.48-.94-10.48-.94Z"/><path class="cls-36" d="M128.52,170.29c1.53-.68,2.77.45,2.77,2.51s-1.22,4.29-2.75,5-2.77-.44-2.77-2.51S127,171,128.52,170.29Z"/><path class="cls-37" d="M129.33,170.09h0a1.66,1.66,0,0,1,.35,0h0a1.56,1.56,0,0,1,.33.11h0l-3.76-1.68h0l-.14-.05-.14,0h-.57l-.17,0h-.1l-.13,0-.25.1a3.17,3.17,0,0,0-.59.35l0,0-.23.19-.18.17,0,0,0,0-.11.11-.15.18-.15.19,0,.06,0,0-.08.11-.14.22-.15.25,0,0,0,0-.12.22-.15.32,0,.1,0,.1-.07.19q-.08.23-.15.47v0l0,.12c0,.17-.08.33-.11.5s0,0,0,.07a5.59,5.59,0,0,0-.07.88,2.65,2.65,0,0,0,1.25,2.57l3.76,1.68a2.65,2.65,0,0,1-1.25-2.57,5.59,5.59,0,0,1,.07-.88c0-.19.07-.38.12-.57l0-.12a6.63,6.63,0,0,1,.23-.68l0-.1a6.43,6.43,0,0,1,.3-.64l0,0a6,6,0,0,1,.39-.61l0,0a5.08,5.08,0,0,1,.45-.53l0,0a4,4,0,0,1,.47-.41,3.17,3.17,0,0,1,.59-.35,2.4,2.4,0,0,1,.38-.13H129A1.94,1.94,0,0,1,129.33,170.09Z"/><path class="cls-10" d="M140.2,235s8.08.37,10.75,0c.93-.13,4.68-1.32,3-2.85s-10.48-.94-10.48-.94Z"/><path class="cls-36" d="M141.27,227.37c1.53-.68,2.77.45,2.77,2.51s-1.22,4.29-2.75,5-2.77-.44-2.77-2.51S139.75,228,141.27,227.37Z"/><path class="cls-37" d="M142.08,227.17h0a1.66,1.66,0,0,1,.35,0h0a1.56,1.56,0,0,1,.33.11h0L139,225.62h0l-.14-.05-.14,0h-.57l-.17,0h-.1l-.13,0-.25.1a3.17,3.17,0,0,0-.59.35l0,0-.23.19-.18.17,0,0,0,0-.11.11-.15.18-.15.19,0,.06,0,0-.08.11-.14.22-.15.25,0,0,0,0-.12.22-.15.32,0,.1,0,.1-.07.19q-.08.23-.15.47v0l0,.12c0,.17-.08.33-.11.5s0,0,0,.07a5.59,5.59,0,0,0-.07.88,2.65,2.65,0,0,0,1.25,2.57l3.76,1.68a2.65,2.65,0,0,1-1.25-2.57,5.59,5.59,0,0,1,.07-.88c0-.19.07-.38.12-.57l0-.12a6.63,6.63,0,0,1,.23-.68l0-.1a6.43,6.43,0,0,1,.3-.64l0,0a6,6,0,0,1,.39-.61l0,0a5.08,5.08,0,0,1,.45-.53l0,0a4,4,0,0,1,.47-.41,3.17,3.17,0,0,1,.59-.35,2.4,2.4,0,0,1,.38-.13h.05A1.94,1.94,0,0,1,142.08,227.17Z"/><path class="cls-10" d="M111,237.87s8.08.37,10.75,0c.93-.13,4.68-1.32,3-2.85s-10.48-.94-10.48-.94Z"/><path class="cls-36" d="M112.12,230.19c1.53-.68,2.77.45,2.77,2.51s-1.22,4.29-2.75,5-2.77-.44-2.77-2.51S110.59,230.87,112.12,230.19Z"/><path class="cls-37" d="M112.92,230h0a1.66,1.66,0,0,1,.35,0h0a1.56,1.56,0,0,1,.33.11h0l-3.76-1.68h0l-.14-.05-.14,0H109l-.17,0h-.1l-.13,0-.25.1a3.17,3.17,0,0,0-.59.35l0,0-.23.19-.18.17,0,0,0,0-.11.11-.15.18-.15.19,0,.06,0,0-.08.11-.14.22-.15.25,0,0,0,0-.12.22-.15.32,0,.1,0,.1-.07.19q-.08.23-.15.47v0l0,.12c0,.17-.08.33-.11.5s0,0,0,.07a5.59,5.59,0,0,0-.07.88,2.65,2.65,0,0,0,1.25,2.57l3.76,1.68a2.65,2.65,0,0,1-1.25-2.57,5.59,5.59,0,0,1,.07-.88c0-.19.07-.38.12-.57l0-.12a6.63,6.63,0,0,1,.23-.68l0-.1a6.43,6.43,0,0,1,.3-.64l0,0a6,6,0,0,1,.39-.61l0,0A5.08,5.08,0,0,1,111,231l0,0a4,4,0,0,1,.47-.41,3.17,3.17,0,0,1,.59-.35,2.4,2.4,0,0,1,.38-.13h.05A1.94,1.94,0,0,1,112.92,230Z"/></g><g id="Layer_16" data-name="Layer 16"><polygon class="cls-10" points="251.66 176.24 322.15 217.2 251.79 258 181.23 217.12 251.66 176.24"/><polygon class="cls-38" points="181.69 189.88 252.15 230.73 322.39 189.96 252.04 149.11 181.69 189.88"/><polygon class="cls-39" points="181.81 189.96 181.81 206.02 252.1 247.21 251.98 230.64 181.81 189.96"/><polygon class="cls-40" points="251.98 230.64 322.39 189.96 322.39 206.43 252.1 247.21 251.98 230.64"/><polygon class="cls-10" points="252.54 208.36 290.69 208.36 322.39 189.96 290.44 171.41 263.68 178.82 252.54 208.36"/><polygon class="cls-41" points="226.5 188.47 252.85 173.17 278.82 188.29 252.54 203.58 226.5 188.47"/><polyline class="cls-42" points="252.54 208.36 277.05 193.85 277.05 189.32 252.54 203.58"/><polygon class="cls-42" points="252.54 193.39 261.04 188.41 266.52 168.45 256 179.79 252.54 193.39"/><polygon class="cls-43" points="243.51 188.08 253 152.95 261.58 157.89 252.54 193.39 243.51 188.08"/><polygon class="cls-10" points="252.54 193.39 270.07 193.39 277.05 189.32 261.58 181.78 252.54 193.39"/><polygon class="cls-1" points="200.06 142.68 235.14 122.63 313.78 168.2 278.82 188.47 200.06 142.68"/><g class="cls-44"><polygon class="cls-45" points="200.06 142.48 235.14 122.43 313.78 168 278.82 188.27 200.06 142.48"/><polygon class="cls-46" points="235.19 142.33 243.7 137.36 253.13 142.73 244.57 147.73 235.19 142.33"/><polygon class="cls-46" points="243.88 168.02 252.75 162.82 261.58 167.88 252.6 173.04 243.88 168.02"/><line class="cls-47" x1="206.97" y1="148.42" x2="246" y2="125.59"/><line class="cls-48" x1="215.62" y1="153.78" x2="254.65" y2="130.95"/><line class="cls-49" x1="234.25" y1="163.72" x2="273.29" y2="140.89"/><line class="cls-50" x1="240.88" y1="169.73" x2="279.91" y2="146.89"/><line class="cls-51" x1="249.24" y1="175.14" x2="288.27" y2="152.3"/><line class="cls-52" x1="258.29" y1="179.92" x2="297.32" y2="157.08"/><line class="cls-53" x1="266.32" y1="185.51" x2="305.36" y2="162.68"/><line class="cls-54" x1="226.48" y1="158.31" x2="265.52" y2="135.48"/></g><polygon class="cls-55" points="200.23 142.59 278.82 188.29 278.82 192.96 200.2 146.55 200.23 142.59"/><polygon class="cls-42" points="278.82 188.29 278.82 192.96 313.65 172.38 313.61 168.11 278.82 188.29"/><line class="cls-56" x1="208.77" y1="137.6" x2="287.69" y2="182.86"/><line class="cls-56" x1="217.87" y1="132.36" x2="296.24" y2="177.46"/><line class="cls-56" x1="226.5" y1="127.57" x2="305.73" y2="172.67"/><polygon class="cls-43" points="226.5 188.47 226.5 192.96 252.54 208.36 252.54 203.58 226.5 188.47"/></g></svg>