<svg xmlns="http://www.w3.org/2000/svg" xmlns:xlink="http://www.w3.org/1999/xlink" viewBox="0 0 461.08 357.78"><defs><style>.cls-1{fill:none;}.cls-2{fill:url(#linear-gradient);}.cls-3{fill:#97a073;}.cls-4{fill:#b1c185;}.cls-5,.cls-54{fill:#5c515f;}.cls-5{opacity:0.6;}.cls-6{fill:#93734c;}.cls-7{fill:#aeba83;}.cls-8{fill:#cee09b;}.cls-9{fill:#67b7b7;}.cls-10{fill:#79d7db;}.cls-11{fill:#e0ae4b;}.cls-12{fill:#e5bd5c;}.cls-13{fill:#929b6f;}.cls-14{fill:#71c9c9;}.cls-15{fill:#61aaa8;}.cls-16{fill:#bca493;}.cls-17{fill:#b0eaea;}.cls-18{fill:#d8bdab;}.cls-19{fill:#edd4b9;}.cls-20{fill:url(#linear-gradient-2);}.cls-21{fill:url(#linear-gradient-3);}.cls-22{fill:url(#linear-gradient-4);}.cls-23{fill:url(#linear-gradient-5);}.cls-24{fill:url(#linear-gradient-6);}.cls-25{fill:url(#linear-gradient-7);}.cls-26{fill:url(#linear-gradient-8);}.cls-27{fill:#818963;}.cls-28{fill:#c4d193;}.cls-29{fill:#c6a283;}.cls-30{fill:#ad8c74;}.cls-31{clip-path:url(#clip-path);}.cls-32{fill:#9e806c;}.cls-33{clip-path:url(#clip-path-2);}.cls-34{clip-path:url(#clip-path-3);}.cls-35{clip-path:url(#clip-path-4);}.cls-36{fill:url(#linear-gradient-9);}.cls-37{fill:url(#linear-gradient-10);}.cls-38{fill:url(#linear-gradient-11);}.cls-39{fill:url(#linear-gradient-12);}.cls-40{fill:url(#linear-gradient-13);}.cls-41{fill:url(#linear-gradient-14);}.cls-42{fill:url(#linear-gradient-15);}.cls-43{fill:#f97e62;}.cls-44{fill:#f2928b;}.cls-45{fill:url(#linear-gradient-16);}.cls-46{isolation:isolate;}.cls-47{clip-path:url(#clip-path-5);}.cls-48{fill:#afad87;}.cls-49{fill:#fff;opacity:0.8;}.cls-50{fill:#ccc;}.cls-51{fill:#b5b5b5;}.cls-52{fill:#727272;}.cls-53{fill:#a69bae;}.cls-55{fill:#908697;}.cls-56{clip-path:url(#clip-path-6);}.cls-57{fill:#595959;}.cls-58{fill:#5c5c5c;}.cls-59{fill:#5f5f5f;}.cls-60{fill:#626262;}.cls-61{fill:#656565;}.cls-62{fill:#686868;}.cls-63{fill:#6b6b6b;}.cls-64{fill:#6e6e6e;}.cls-65{fill:#565656;}.cls-66{fill:#535353;}.cls-67{fill:#505050;}.cls-68{fill:#848484;}.cls-69{fill:url(#linear-gradient-19);}.cls-70{clip-path:url(#clip-path-7);}.cls-71{clip-path:url(#clip-path-8);}.cls-72{clip-path:url(#clip-path-9);}.cls-73{clip-path:url(#clip-path-10);}.cls-74{clip-path:url(#clip-path-11);}.cls-75{clip-path:url(#clip-path-12);}.cls-76{clip-path:url(#clip-path-13);}.cls-77{fill:#514854;}.cls-78{fill:url(#linear-gradient-20);}.cls-79{fill:url(#linear-gradient-21);}.cls-80{fill:url(#linear-gradient-22);}.cls-81{fill:url(#linear-gradient-23);}.cls-82{fill:url(#linear-gradient-24);}.cls-83{fill:url(#linear-gradient-25);}.cls-84{fill:url(#linear-gradient-26);}.cls-85{fill:#625866;}.cls-86{clip-path:url(#clip-path-14);}.cls-87{fill:#bfa434;}.cls-88{fill:#937f28;}.cls-89{clip-path:url(#clip-path-15);}.cls-90{clip-path:url(#clip-path-16);}.cls-91{clip-path:url(#clip-path-17);}.cls-92{clip-path:url(#clip-path-18);}.cls-93{clip-path:url(#clip-path-19);}.cls-94{clip-path:url(#clip-path-20);}.cls-95{clip-path:url(#clip-path-21);}.cls-96{clip-path:url(#clip-path-22);}.cls-97{clip-path:url(#clip-path-23);}.cls-98{fill:#bea334;}.cls-99{clip-path:url(#clip-path-24);}.cls-100{clip-path:url(#clip-path-25);}.cls-101{clip-path:url(#clip-path-26);}.cls-102{clip-path:url(#clip-path-27);}.cls-103{clip-path:url(#clip-path-28);}.cls-104{fill:#61541a;}.cls-105{fill:#a58d2d;}.cls-106{clip-path:url(#clip-path-29);}.cls-107{clip-path:url(#clip-path-30);}.cls-108{fill:#66581c;}</style><linearGradient id="linear-gradient" x1="7692.1" y1="257.73" x2="7707.88" y2="257.73" gradientTransform="matrix(-1, 0, 0, 1, 7928.84, 0)" gradientUnits="userSpaceOnUse"><stop offset="0" stop-color="#8c7d91"/><stop offset="1" stop-color="#5c515f"/></linearGradient><linearGradient id="linear-gradient-2" x1="7566.27" y1="130.23" x2="7564.84" y2="146.74" gradientTransform="matrix(-1, 0, 0, 1, 7937.78, -14.27)" gradientUnits="userSpaceOnUse"><stop offset="0" stop-color="#9eefef"/><stop offset="0.03" stop-color="#9deded" stop-opacity="0.93"/><stop offset="0.17" stop-color="#99e4e5" stop-opacity="0.65"/><stop offset="0.31" stop-color="#95ddde" stop-opacity="0.42"/><stop offset="0.43" stop-color="#93d7d9" stop-opacity="0.24"/><stop offset="0.54" stop-color="#91d3d5" stop-opacity="0.11"/><stop offset="0.63" stop-color="#8fd1d3" stop-opacity="0.03"/><stop offset="0.7" stop-color="#8fd0d2" stop-opacity="0"/></linearGradient><linearGradient id="linear-gradient-3" x1="7589.99" y1="182.1" x2="7589.15" y2="191.8" xlink:href="#linear-gradient-2"/><linearGradient id="linear-gradient-4" x1="7548.85" y1="157.35" x2="7547.72" y2="170.35" xlink:href="#linear-gradient-2"/><linearGradient id="linear-gradient-5" x1="7525" y1="147.18" x2="7524.16" y2="156.88" xlink:href="#linear-gradient-2"/><linearGradient id="linear-gradient-6" x1="7585.81" y1="152.21" x2="7584.97" y2="161.91" xlink:href="#linear-gradient-2"/><linearGradient id="linear-gradient-7" x1="7607.28" y1="136.06" x2="7606.44" y2="145.76" xlink:href="#linear-gradient-2"/><linearGradient id="linear-gradient-8" x1="7614.11" y1="161.4" x2="7613.17" y2="172.22" xlink:href="#linear-gradient-2"/><clipPath id="clip-path"><path class="cls-1" d="M179.13,224.28a57.12,57.12,0,0,1,.92-7.59h0c.06-.27.11-.52.17-.74.54-2,1.16-3.65,1.16-3.65a.52.52,0,0,1,.36,0l-.08,0,.1,0h0a.54.54,0,0,1,.19,0h0c.14,0,.26.1.2.44a33.54,33.54,0,0,0-1.35,7c-.25,3.6.78,10.67.25,11.49a.9.9,0,0,1-.43.36h0a1.14,1.14,0,0,1-.54.06l-.3-.06a1.77,1.77,0,0,0,.3.06,1.84,1.84,0,0,1-.92-.19S179.13,225.59,179.13,224.28Z"/></clipPath><clipPath id="clip-path-2"><path class="cls-1" d="M235.5,184.23a44.24,44.24,0,0,1,.71-5.88h0c0-.21.09-.41.13-.57.42-1.58.9-2.83.9-2.83a.4.4,0,0,1,.28,0l-.07,0,.08,0h0l.14,0h0c.1,0,.2.08.15.34a26,26,0,0,0-1,5.43c-.19,2.79.61,8.26.19,8.9a.7.7,0,0,1-.34.28h0a.89.89,0,0,1-.42,0l-.23,0,.23,0a1.43,1.43,0,0,1-.71-.15S235.5,185.24,235.5,184.23Z"/></clipPath><clipPath id="clip-path-3"><path class="cls-1" d="M172.48,235a57.12,57.12,0,0,1,.92-7.59h0c.06-.27.11-.52.17-.74.54-2,1.16-3.65,1.16-3.65a.52.52,0,0,1,.36,0l-.08,0,.1,0h0a.54.54,0,0,1,.19,0h0c.14,0,.26.1.2.44a33.54,33.54,0,0,0-1.35,7c-.25,3.6.78,10.67.25,11.49a.9.9,0,0,1-.43.36h0a1.14,1.14,0,0,1-.54.06l-.3-.06a1.77,1.77,0,0,0,.3.06,1.84,1.84,0,0,1-.92-.19S172.48,236.32,172.48,235Z"/></clipPath><clipPath id="clip-path-4"><path class="cls-1" d="M180.82,240.55a62.26,62.26,0,0,1,1-8.27h0c.06-.3.12-.57.18-.8.59-2.22,1.26-4,1.26-4a.57.57,0,0,1,.39,0l-.09,0,.11,0h0a.59.59,0,0,1,.2,0h0c.15,0,.28.11.22.48a36.56,36.56,0,0,0-1.47,7.65c-.27,3.92.85,11.63.27,12.52a1,1,0,0,1-.47.39h0a1.25,1.25,0,0,1-.59.07l-.33-.07a1.93,1.93,0,0,0,.33.07,2,2,0,0,1-1-.21S180.82,242,180.82,240.55Z"/></clipPath><linearGradient id="linear-gradient-9" x1="7679.83" y1="196.21" x2="7678.4" y2="212.72" xlink:href="#linear-gradient-2"/><linearGradient id="linear-gradient-10" x1="7703.55" y1="248.08" x2="7702.71" y2="257.78" xlink:href="#linear-gradient-2"/><linearGradient id="linear-gradient-11" x1="7662.4" y1="223.32" x2="7661.27" y2="236.33" xlink:href="#linear-gradient-2"/><linearGradient id="linear-gradient-12" x1="7638.55" y1="213.16" x2="7637.71" y2="222.86" xlink:href="#linear-gradient-2"/><linearGradient id="linear-gradient-13" x1="7699.37" y1="218.19" x2="7698.53" y2="227.89" xlink:href="#linear-gradient-2"/><linearGradient id="linear-gradient-14" x1="7720.83" y1="202.04" x2="7719.99" y2="211.74" xlink:href="#linear-gradient-2"/><linearGradient id="linear-gradient-15" x1="7727.67" y1="227.38" x2="7726.73" y2="238.2" xlink:href="#linear-gradient-2"/><linearGradient id="linear-gradient-16" x1="7692.1" y1="257.12" x2="7707.88" y2="257.12" gradientTransform="matrix(-1, 0, 0, 1, 7928.84, 0)" gradientUnits="userSpaceOnUse"><stop offset="0" stop-color="#8c9591"/><stop offset="1" stop-color="#5c575f"/></linearGradient><clipPath id="clip-path-5"><path class="cls-2" d="M221,261.94h0a1.16,1.16,0,0,0,1.37,1.14c2.21-.42,6.57-1.42,9.26-3.06a13.16,13.16,0,0,0,4.7-5.3,4.2,4.2,0,0,0,.44-1.88v-.5a13.43,13.43,0,0,1-5.14,6.3C227.93,260.88,221.18,261.91,221,261.94Z"/></clipPath><clipPath id="clip-path-6"><path class="cls-1" d="M191.64,127.41l-.05,18.5a.77.77,0,0,1-.45.63,2.42,2.42,0,0,1-2.2,0,.77.77,0,0,1-.46-.64l.05-18.5a.77.77,0,0,0,.46.64,2.42,2.42,0,0,0,2.2,0A.77.77,0,0,0,191.64,127.41Z"/></clipPath><linearGradient id="linear-gradient-19" x1="188.48" y1="137.1" x2="191.64" y2="137.1" gradientUnits="userSpaceOnUse"><stop offset="0" stop-color="#8c7d91"/><stop offset="1" stop-color="#464049"/></linearGradient><clipPath id="clip-path-7"><path class="cls-1" d="M196.55,130.31l-.05,18.5a.77.77,0,0,1-.45.63,2.42,2.42,0,0,1-2.2,0,.77.77,0,0,1-.46-.64l.05-18.5a.77.77,0,0,0,.46.64,2.42,2.42,0,0,0,2.2,0A.77.77,0,0,0,196.55,130.31Z"/></clipPath><clipPath id="clip-path-8"><path class="cls-1" d="M201,133.09l-.05,18.5a.77.77,0,0,1-.45.63,2.42,2.42,0,0,1-2.2,0,.77.77,0,0,1-.46-.64l.05-18.5a.77.77,0,0,0,.46.64,2.42,2.42,0,0,0,2.2,0A.77.77,0,0,0,201,133.09Z"/></clipPath><clipPath id="clip-path-9"><path class="cls-1" d="M205.52,135.87l-.05,18.5a.77.77,0,0,1-.45.63,2.42,2.42,0,0,1-2.2,0,.77.77,0,0,1-.46-.64l.05-18.5a.77.77,0,0,0,.46.64,2.42,2.42,0,0,0,2.2,0A.77.77,0,0,0,205.52,135.87Z"/></clipPath><clipPath id="clip-path-10"><path class="cls-1" d="M210,138.65l-.05,18.5a.77.77,0,0,1-.45.63,2.42,2.42,0,0,1-2.2,0,.77.77,0,0,1-.46-.64l.05-18.5a.77.77,0,0,0,.46.64,2.42,2.42,0,0,0,2.2,0A.77.77,0,0,0,210,138.65Z"/></clipPath><clipPath id="clip-path-11"><path class="cls-1" d="M214.5,141.42l-.05,18.5a.77.77,0,0,1-.45.63,2.42,2.42,0,0,1-2.2,0,.77.77,0,0,1-.46-.64l.05-18.5a.77.77,0,0,0,.46.64,2.42,2.42,0,0,0,2.2,0A.77.77,0,0,0,214.5,141.42Z"/></clipPath><clipPath id="clip-path-12"><path class="cls-1" d="M219,144.2l-.05,18.5a.77.77,0,0,1-.45.63,2.42,2.42,0,0,1-2.2,0,.77.77,0,0,1-.46-.64l.05-18.5a.77.77,0,0,0,.46.64,2.42,2.42,0,0,0,2.2,0A.77.77,0,0,0,219,144.2Z"/></clipPath><clipPath id="clip-path-13"><path class="cls-1" d="M223.47,147l-.05,18.5a.77.77,0,0,1-.45.63,2.42,2.42,0,0,1-2.2,0,.77.77,0,0,1-.46-.64l.05-18.5a.77.77,0,0,0,.46.64,2.42,2.42,0,0,0,2.2,0A.77.77,0,0,0,223.47,147Z"/></clipPath><linearGradient id="linear-gradient-20" x1="193.42" y1="140.01" x2="196.58" y2="140.01" xlink:href="#linear-gradient-19"/><linearGradient id="linear-gradient-21" x1="197.88" y1="142.78" x2="201.04" y2="142.78" xlink:href="#linear-gradient-19"/><linearGradient id="linear-gradient-22" x1="202.39" y1="145.56" x2="205.55" y2="145.56" xlink:href="#linear-gradient-19"/><linearGradient id="linear-gradient-23" x1="206.88" y1="148.34" x2="210.04" y2="148.34" xlink:href="#linear-gradient-19"/><linearGradient id="linear-gradient-24" x1="211.35" y1="151.12" x2="214.51" y2="151.12" xlink:href="#linear-gradient-19"/><linearGradient id="linear-gradient-25" x1="215.85" y1="153.89" x2="219.01" y2="153.89" xlink:href="#linear-gradient-19"/><linearGradient id="linear-gradient-26" x1="220.31" y1="156.67" x2="223.47" y2="156.67" xlink:href="#linear-gradient-19"/><clipPath id="clip-path-14"><path class="cls-1" d="M197,124.86l1-.57a.38.38,0,0,0-.05.23,1.71,1.71,0,0,0,.37.92l-1,.57a1.71,1.71,0,0,1-.37-.92A.38.38,0,0,1,197,124.86Z"/></clipPath><clipPath id="clip-path-15"><path class="cls-1" d="M197.31,126l1-.57a5.19,5.19,0,0,0,1,1l-1,.57A5.19,5.19,0,0,1,197.31,126Z"/></clipPath><clipPath id="clip-path-16"><path class="cls-1" d="M197,124.83l1-.57,0,0-1,.57Z"/></clipPath><clipPath id="clip-path-17"><path class="cls-1" d="M198.68,127.31l1-.57.5.32a3.14,3.14,0,0,0,.48.24l-1,.57a3.14,3.14,0,0,1-.48-.24Z"/></clipPath><clipPath id="clip-path-18"><path class="cls-1" d="M196.53,123.08l1-.57a.59.59,0,0,1,.61.05,1.26,1.26,0,0,1,.44.46l-1,.57a1.26,1.26,0,0,0-.44-.46A.59.59,0,0,0,196.53,123.08Z"/></clipPath><clipPath id="clip-path-19"><path class="cls-1" d="M198.56,124.12l-1,.57a.32.32,0,0,0,.11-.13.85.85,0,0,0,.07-.38,1.17,1.17,0,0,0-.19-.59l1-.57a1.17,1.17,0,0,1,.19.59.85.85,0,0,1-.07.38A.32.32,0,0,1,198.56,124.12Z"/></clipPath><clipPath id="clip-path-20"><path class="cls-1" d="M201.5,127.36l-1,.57a.7.7,0,0,1-.48.06l1-.57A.7.7,0,0,0,201.5,127.36Z"/></clipPath><clipPath id="clip-path-21"><polygon class="cls-1" points="201.52 127.35 200.54 127.92 200.54 127.92 201.52 127.35 201.52 127.35"/></clipPath><clipPath id="clip-path-22"><path class="cls-1" d="M200.49,123.49l1-.57a5.43,5.43,0,0,1,1.33,3.32,1.8,1.8,0,0,1-.49,1.47l-1,.57a1.8,1.8,0,0,0,.49-1.47A5.43,5.43,0,0,0,200.49,123.49Z"/></clipPath><clipPath id="clip-path-23"><path class="cls-1" d="M202.21,127.78l-1,.57.1-.07,1-.57Z"/></clipPath><clipPath id="clip-path-24"><path class="cls-1" d="M197.69,118.2l1-.57a.78.78,0,0,0-.23.63,3.25,3.25,0,0,0,.86,1.85l-1,.57a3.25,3.25,0,0,1-.86-1.85A.78.78,0,0,1,197.69,118.2Z"/></clipPath><clipPath id="clip-path-25"><path class="cls-1" d="M197.8,118.12l1-.57-.11.08-1,.57Z"/></clipPath><clipPath id="clip-path-26"><path class="cls-1" d="M197.09,117.63l1-.57a1.54,1.54,0,0,1,1.23-.07l-1,.57A1.54,1.54,0,0,0,197.09,117.63Z"/></clipPath><clipPath id="clip-path-27"><path class="cls-1" d="M200.54,121.17l1-.57a.44.44,0,0,1,.26-.06l-1,.57A.44.44,0,0,0,200.54,121.17Z"/></clipPath><clipPath id="clip-path-28"><path class="cls-1" d="M200.8,121.11l1-.57H202l-1,.57Z"/></clipPath><clipPath id="clip-path-29"><path class="cls-1" d="M198.71,117.7l1-.57a4.51,4.51,0,0,1,.53.27l.44.28-1,.57-.44-.28A4.52,4.52,0,0,0,198.71,117.7Z"/></clipPath><clipPath id="clip-path-30"><path class="cls-1" d="M202.46,122.13l-1,.57a.51.51,0,0,0,.15-.14,1.42,1.42,0,0,0,.24-.88,3.22,3.22,0,0,0-.5-1.68,5.69,5.69,0,0,0-1.3-1.47l1-.57a5.69,5.69,0,0,1,1.3,1.47,3.22,3.22,0,0,1,.5,1.68,1.42,1.42,0,0,1-.24.88A.51.51,0,0,1,202.46,122.13Z"/></clipPath></defs><title>logos-mega2</title><g id="Layer_16" data-name="Layer 16"><polygon class="cls-3" points="232.38 164.19 128.07 103.92 128.07 128.32 232.2 188.74 232.38 164.19"/><path class="cls-4" d="M128.11,104s13-32.48,32.27-42.89,29.72-3.61,38.22-10.4,27.39-11,33.76-7.43,104,60.63,104,60.63L232,164.21Z"/><path class="cls-5" d="M236.32,48s-14.88-6.1-19.17-.48l-3.53,0V48l3.48,0C220.08,53.4,236.32,48,236.32,48Z"/><rect class="cls-6" x="213.62" y="42.75" width="0.66" height="5.28"/><path class="cls-7" d="M214,27.18V45C221.13,42.55,214,27.18,214,27.18Z"/><path class="cls-8" d="M214,45V27.18S206.28,41.35,214,45Z"/><path class="cls-5" d="M226.51,54.2s-14.88-6.1-19.17-.48l-3.53,0v.53l3.48,0C210.27,59.56,226.51,54.2,226.51,54.2Z"/><rect class="cls-6" x="203.8" y="48.92" width="0.66" height="5.28"/><path class="cls-7" d="M204.14,33.35V51.14C211.31,48.72,204.14,33.35,204.14,33.35Z"/><path class="cls-8" d="M204.14,51.14V33.35S196.47,47.52,204.14,51.14Z"/><path class="cls-5" d="M163.1,100.33s-14.88-6.1-19.17-.48l-3.53,0v.53l3.48,0C146.86,105.69,163.1,100.33,163.1,100.33Z"/><rect class="cls-6" x="140.4" y="95.05" width="0.66" height="5.28"/><path class="cls-7" d="M140.73,79.48V97.27C147.91,94.85,140.73,79.48,140.73,79.48Z"/><path class="cls-8" d="M140.73,97.27V79.48S133.06,93.64,140.73,97.27Z"/><path class="cls-5" d="M178.32,84.42s-19.85-8.14-25.58-.64L148,83.73v.71l4.64.05C156.65,91.58,178.32,84.42,178.32,84.42Z"/><rect class="cls-6" x="148.02" y="77.38" width="0.89" height="7.04"/><path class="cls-7" d="M148.47,56.6V80.34C158,77.11,148.47,56.6,148.47,56.6Z"/><path class="cls-8" d="M148.47,80.34V56.6S138.23,75.5,148.47,80.34Z"/><path class="cls-5" d="M187.12,77.82s-19.85-8.14-25.58-.64l-4.71-.05v.71l4.64.05C165.45,85,187.12,77.82,187.12,77.82Z"/><rect class="cls-6" x="156.83" y="70.78" width="0.89" height="7.04"/><path class="cls-7" d="M157.27,50V73.74C166.85,70.51,157.27,50,157.27,50Z"/><path class="cls-8" d="M157.27,73.74V50S147,68.9,157.27,73.74Z"/><path class="cls-9" d="M199,106c5.28-8.69,10.65-19.81,19.12-21.51s17.52,1.77,32.33-8.37C263.82,66.93,264.87,63,265,62.39l-1.62-.94s.27,3.68-14.54,13.81-23.85,6.67-32.33,8.37-13.84,12.82-19.12,21.51c-6.2,10.2-34.24,19.22-34.24,19.22l8.64,5,.11,0-7.13-4.12S192.76,116.18,199,106Z"/><path class="cls-10" d="M202.84,111.48c6.87-9.69,8.89-16.51,13.21-20.46s14.23-3.87,26.4-6.43S269,64.75,269,64.75l-4-2.36c-.08.65-1.13,4.54-14.54,13.71-14.81,10.14-23.85,6.67-32.33,8.37S204.24,97.29,199,106c-6.2,10.2-34.24,19.22-34.24,19.22l7.13,4.12C173.5,128.85,195,122.49,202.84,111.48Z"/><path class="cls-5" d="M258.3,94.5s-14.88-6.1-19.17-.48l-3.53,0v.53l3.48,0C242.06,99.87,258.3,94.5,258.3,94.5Z"/><rect class="cls-6" x="235.6" y="89.22" width="0.66" height="5.28"/><path class="cls-11" d="M235.93,73.65V91.44C243.11,89,235.93,73.65,235.93,73.65Z"/><path class="cls-12" d="M235.93,91.44V73.65S228.26,87.82,235.93,91.44Z"/><path class="cls-5" d="M240.13,117.61s-14.88-6.1-19.17-.48l-3.53,0v.53l3.48,0C223.89,123,240.13,117.61,240.13,117.61Z"/><rect class="cls-6" x="217.42" y="112.33" width="0.66" height="5.28"/><path class="cls-7" d="M217.75,96.76v17.79C224.93,112.13,217.75,96.76,217.75,96.76Z"/><path class="cls-8" d="M217.75,114.55V96.76S210.09,110.92,217.75,114.55Z"/><path class="cls-5" d="M250.16,126.83s-14.88-6.1-19.17-.48l-3.53,0v.53l3.48,0C233.92,132.19,250.16,126.83,250.16,126.83Z"/><rect class="cls-6" x="227.45" y="121.55" width="0.66" height="5.28"/><path class="cls-7" d="M227.79,106v17.79C235,121.35,227.79,106,227.79,106Z"/><path class="cls-8" d="M227.79,123.77V106S220.12,120.15,227.79,123.77Z"/><path class="cls-5" d="M254.28,103.32s-18.43-7.55-23.74-.59l-4.37,0v.66l4.31,0C234.16,110,254.28,103.32,254.28,103.32Z"/><rect class="cls-6" x="226.15" y="96.78" width="0.82" height="6.54"/><path class="cls-7" d="M226.56,77.49v22C235.46,96.53,226.56,77.49,226.56,77.49Z"/><path class="cls-8" d="M226.56,99.53v-22S217.07,95,226.56,99.53Z"/><path class="cls-5" d="M250.42,109.27s-14.88-6.1-19.17-.48l-3.53,0v.53l3.48,0C234.17,114.64,250.42,109.27,250.42,109.27Z"/><rect class="cls-6" x="227.71" y="103.99" width="0.66" height="5.28"/><path class="cls-11" d="M228,88.42v17.79C235.22,103.79,228,88.42,228,88.42Z"/><path class="cls-12" d="M228,106.21V88.42S220.37,102.59,228,106.21Z"/><path class="cls-5" d="M172.29,94.13s-14.88-6.1-19.17-.48l-3.53,0v.53l3.48,0C156,99.49,172.29,94.13,172.29,94.13Z"/><rect class="cls-6" x="149.58" y="88.85" width="0.66" height="5.28"/><path class="cls-11" d="M149.91,73.28V91.07C157.09,88.65,149.91,73.28,149.91,73.28Z"/><path class="cls-12" d="M149.91,91.07V73.28S142.25,87.44,149.91,91.07Z"/><path class="cls-5" d="M189,65.82s-14.88-6.1-19.17-.48l-3.53,0v.53l3.48,0C172.71,71.19,189,65.82,189,65.82Z"/><rect class="cls-6" x="166.25" y="60.55" width="0.66" height="5.28"/><path class="cls-11" d="M166.58,45V62.77C173.76,60.35,166.58,45,166.58,45Z"/><path class="cls-12" d="M166.58,62.77V45S158.91,59.14,166.58,62.77Z"/><path class="cls-5" d="M173.83,110.74s-14.88-6.1-19.17-.48l-3.53,0v.53l3.48,0C157.59,116.1,173.83,110.74,173.83,110.74Z"/><rect class="cls-6" x="151.12" y="105.46" width="0.66" height="5.28"/><path class="cls-11" d="M151.45,89.89v17.79C158.63,105.26,151.45,89.89,151.45,89.89Z"/><path class="cls-12" d="M151.45,107.68V89.89S143.79,104.05,151.45,107.68Z"/><path class="cls-5" d="M186.72,99.11s-14.88-6.1-19.17-.48l-3.53,0v.53l3.48,0C170.48,104.48,186.72,99.11,186.72,99.11Z"/><rect class="cls-6" x="164.01" y="93.83" width="0.66" height="5.28"/><path class="cls-7" d="M164.34,78.26V96.05C171.52,93.63,164.34,78.26,164.34,78.26Z"/><path class="cls-8" d="M164.34,96.05V78.26S156.68,92.43,164.34,96.05Z"/><polygon class="cls-5" points="342.9 155.43 447.04 215.95 343.08 276.22 238.86 215.83 342.9 155.43"/><polygon class="cls-5" points="229.59 221.84 333.73 282.36 229.78 342.63 125.55 282.24 229.59 221.84"/><path class="cls-5" d="M218.93,217.8s-13-32.48-32.27-42.89-29.72-3.61-38.22-10.4-27.39-11-33.76-7.43-104,60.63-104,60.63L115,278Z"/><polygon class="cls-13" points="336.34 103.94 336.34 127.74 232.21 188.76 232.39 164.21 336.34 103.94"/><path class="cls-4" d="M11.57,171.8s13-32.48,32.27-42.89,29.72-3.61,38.22-10.4,27.39-11,33.76-7.43,104,60.63,104,60.63L115.49,232Z"/><path class="cls-5" d="M119.79,115.82s-14.88-6.1-19.17-.48l-3.53,0v.53l3.48,0C103.55,121.18,119.79,115.82,119.79,115.82Z"/><rect class="cls-6" x="97.08" y="110.54" width="0.66" height="5.28"/><path class="cls-7" d="M97.42,95v17.79C104.59,110.34,97.42,95,97.42,95Z"/><path class="cls-8" d="M97.42,112.76V95S89.75,109.13,97.42,112.76Z"/><path class="cls-5" d="M110,122s-14.88-6.1-19.17-.48l-3.53,0V122l3.48,0C93.73,127.35,110,122,110,122Z"/><rect class="cls-6" x="87.27" y="116.7" width="0.66" height="5.28"/><path class="cls-7" d="M87.6,101.13v17.79C94.78,116.5,87.6,101.13,87.6,101.13Z"/><path class="cls-8" d="M87.6,118.92V101.13S79.93,115.3,87.6,118.92Z"/><path class="cls-5" d="M46.57,168.11s-14.88-6.1-19.17-.48l-3.53,0v.53l3.48,0C30.33,173.47,46.57,168.11,46.57,168.11Z"/><rect class="cls-6" x="23.86" y="162.83" width="0.66" height="5.28"/><path class="cls-7" d="M24.19,147.26v17.79C31.37,162.63,24.19,147.26,24.19,147.26Z"/><path class="cls-8" d="M24.19,165.05V147.26S16.53,161.42,24.19,165.05Z"/><path class="cls-5" d="M61.78,152.2s-19.85-8.14-25.58-.64l-4.71-.05v.71l4.64.05C40.11,159.36,61.78,152.2,61.78,152.2Z"/><rect class="cls-6" x="31.49" y="145.16" width="0.89" height="7.04"/><path class="cls-7" d="M31.93,124.38v23.74C41.51,144.89,31.93,124.38,31.93,124.38Z"/><path class="cls-8" d="M31.93,148.12V124.38S21.7,143.28,31.93,148.12Z"/><path class="cls-5" d="M70.59,145.6S50.74,137.47,45,145l-4.71-.05v.71l4.64.05C48.92,152.76,70.59,145.6,70.59,145.6Z"/><rect class="cls-6" x="40.29" y="138.56" width="0.89" height="7.04"/><path class="cls-7" d="M40.74,117.79v23.74C50.31,138.29,40.74,117.79,40.74,117.79Z"/><path class="cls-8" d="M40.74,141.52V117.79S30.5,136.69,40.74,141.52Z"/><path class="cls-5" d="M141.77,162.29s-14.88-6.1-19.17-.48l-3.53,0v.53l3.48,0C125.53,167.65,141.77,162.29,141.77,162.29Z"/><rect class="cls-6" x="119.06" y="157.01" width="0.66" height="5.28"/><path class="cls-11" d="M119.39,141.44v17.79C126.57,156.81,119.39,141.44,119.39,141.44Z"/><path class="cls-12" d="M119.39,159.23V141.44S111.73,155.6,119.39,159.23Z"/><path class="cls-5" d="M123.59,185.39s-14.88-6.1-19.17-.48l-3.53,0v.53l3.48,0C107.35,190.75,123.59,185.39,123.59,185.39Z"/><rect class="cls-6" x="100.89" y="180.11" width="0.66" height="5.28"/><path class="cls-7" d="M101.22,164.54v17.79C108.4,179.91,101.22,164.54,101.22,164.54Z"/><path class="cls-8" d="M101.22,182.33V164.54S93.55,178.7,101.22,182.33Z"/><path class="cls-5" d="M133.63,194.61s-14.88-6.1-19.17-.48l-3.53,0v.53l3.48,0C117.38,200,133.63,194.61,133.63,194.61Z"/><rect class="cls-6" x="110.92" y="189.33" width="0.66" height="5.28"/><path class="cls-7" d="M111.25,173.76v17.79C118.43,189.13,111.25,173.76,111.25,173.76Z"/><path class="cls-8" d="M111.25,191.55V173.76S103.58,187.93,111.25,191.55Z"/><path class="cls-5" d="M137.74,171.1s-18.43-7.55-23.74-.59l-4.37,0v.66l4.31,0C117.63,177.75,137.74,171.1,137.74,171.1Z"/><rect class="cls-6" x="109.62" y="164.56" width="0.82" height="6.54"/><path class="cls-7" d="M110,145.28v22C118.92,164.31,110,145.28,110,145.28Z"/><path class="cls-8" d="M110,167.31v-22S100.53,162.82,110,167.31Z"/><path class="cls-5" d="M133.88,177.06s-14.88-6.1-19.17-.48l-3.53,0v.53l3.48,0C117.64,182.42,133.88,177.06,133.88,177.06Z"/><rect class="cls-6" x="111.17" y="171.78" width="0.66" height="5.28"/><path class="cls-11" d="M111.51,156.21V174C118.68,171.58,111.51,156.21,111.51,156.21Z"/><path class="cls-12" d="M111.51,174V156.21S103.84,170.37,111.51,174Z"/><path class="cls-5" d="M55.75,161.91s-14.88-6.1-19.17-.48l-3.53,0v.53l3.48,0C39.51,167.27,55.75,161.91,55.75,161.91Z"/><rect class="cls-6" x="33.05" y="156.63" width="0.66" height="5.28"/><path class="cls-11" d="M33.38,141.06v17.79C40.56,156.43,33.38,141.06,33.38,141.06Z"/><path class="cls-12" d="M33.38,158.85V141.06S25.71,155.22,33.38,158.85Z"/><path class="cls-5" d="M72.42,133.61s-14.88-6.1-19.17-.48l-3.53,0v.53l3.48,0C56.18,139,72.42,133.61,72.42,133.61Z"/><rect class="cls-6" x="49.71" y="128.33" width="0.66" height="5.28"/><path class="cls-11" d="M50,112.76v17.79C57.22,128.13,50,112.76,50,112.76Z"/><path class="cls-12" d="M50,130.55V112.76S42.38,126.92,50,130.55Z"/><path class="cls-5" d="M57.29,178.52s-14.88-6.1-19.17-.48l-3.53,0v.53l3.48,0C41.05,183.88,57.29,178.52,57.29,178.52Z"/><rect class="cls-6" x="34.59" y="173.24" width="0.66" height="5.28"/><path class="cls-11" d="M34.92,157.67v17.79C42.1,173,34.92,157.67,34.92,157.67Z"/><path class="cls-12" d="M34.92,175.46V157.67S27.25,171.84,34.92,175.46Z"/><path class="cls-5" d="M70.18,166.9s-14.88-6.1-19.17-.48l-3.53,0v.53l3.48,0C53.94,172.26,70.18,166.9,70.18,166.9Z"/><rect class="cls-6" x="47.48" y="161.62" width="0.66" height="5.28"/><path class="cls-7" d="M47.81,146v17.79C55,161.42,47.81,146,47.81,146Z"/><path class="cls-8" d="M47.81,163.84V146S40.14,160.21,47.81,163.84Z"/><polygon class="cls-14" points="447.73 169.54 447.73 193.34 343.6 254.36 343.78 229.81 447.73 169.54"/><polygon class="cls-15" points="343.77 229.79 239.46 169.52 239.46 193.92 343.59 254.34 343.77 229.79"/><path class="cls-16" d="M337.07,128.06c-2.07.55,4.07.74,4.07.74a22.48,22.48,0,0,0,8.19-6.43c3.26-4.34-.56-2.4-.56-2.4A22.17,22.17,0,0,1,337.07,128.06Z"/><polygon class="cls-10" points="343.6 109.03 447.73 169.54 343.78 229.81 239.56 169.43 343.6 109.03"/><path class="cls-17" d="M359.69,118.37s2.75,6-1.24,10.43-16.4,9.89-23.28,10.28-16,1.72-20.17,9.48-7.78,5.7-8.45,11-13.17,4.35-15.93,7.56c-3.43,4-6.51,7.75-6.33,14.18s-17.69,3.81-17.69,3.81l-11.32-6.56,17.32-9.12L304,141.23l27.37-15.81,22.26-10.54Z"/><path class="cls-18" d="M280.13,178.54c0,5.95-20.11,2.74-20.11,2.74l-15.72-9.11L299,138.56,332.4,123.9l21.26-9,2.74,1.59s1,8.62-2.3,10.81-9.4,6-15.48,6.5-15.18,1-22.53,7.45-7.92,14.19-12.8,15.74c-5.76,1.83-14.46,5.08-16.1,7.24C284.78,167.39,280.13,178.54,280.13,178.54Z"/><path class="cls-19" d="M353.67,114.88s2.18,7.81-3.2,12.42-24.62.47-37.77,15.37-17.63,4.47-23.85,14-11.92,8.07-11.7,16.85c.21,8.29-23.94,3.83-23.94,3.83l-13.66-7.91,104-60.4Z"/><path class="cls-18" d="M304,138c0,2,.64,4.17,3.88,2.76s3.82-7.11,7.53-7.37,6.48-3.36,4.78-4.43-10.49,3-11.1,4.46S304,138,304,138Z"/><path class="cls-18" d="M268.07,173a12.57,12.57,0,0,0,4.68-5.52c1.09-2.58,5.05-10.5,4.29-11.5s-.31-5.51-1.15-6.25-.65,4.2-2.27,8.85-1.5,7.35-3.62,7.85S268.07,173,268.07,173Z"/><path class="cls-18" d="M331.41,125.42c3.32.45,12.52-3.15,12.23-5.16s-.9-.61-4.93-2.61-3.68,5.81-6.31,6.25S331.41,125.42,331.41,125.42Z"/><path class="cls-18" d="M337.07,128.06c-2.07.55,4.07.74,4.07.74a22.48,22.48,0,0,0,8.19-6.43c3.26-4.34-.56-2.4-.56-2.4A22.17,22.17,0,0,1,337.07,128.06Z"/><path class="cls-18" d="M265.5,159.63c-1.36-.31-2.39.21-3.87,1.6s-7,5.41-7.6,6.12c-1.83,2.26-.06,4,.28,4.72s1.67-2.59,4.11-5.2,3.06-3.52,4.71-4.13C264.62,162.19,266.86,159.94,265.5,159.63Z"/><path class="cls-20" d="M385.91,151s-11-4.3-11.37-7a2.27,2.27,0,0,1,2.33-2.68s-8.68-1.64-16,11.74S385.91,151,385.91,151Z"/><path class="cls-21" d="M356.68,200.34s-6.48-2.52-6.68-4.09a1.33,1.33,0,0,1,1.37-1.57s-5.1-1-9.38,6.9S356.68,200.34,356.68,200.34Z"/><path class="cls-22" d="M400.5,176.68s-8.69-3.38-9-5.49a1.79,1.79,0,0,1,1.83-2.11s-6.84-1.29-12.58,9.25S400.5,176.68,400.5,176.68Z"/><path class="cls-23" d="M421.54,165.18s-6.48-2.52-6.68-4.09a1.33,1.33,0,0,1,1.37-1.57s-5.1-1-9.38,6.9S421.54,165.18,421.54,165.18Z"/><path class="cls-24" d="M360.74,170.43s-6.48-2.52-6.68-4.09a1.33,1.33,0,0,1,1.37-1.57s-5.1-1-9.38,6.9S360.74,170.43,360.74,170.43Z"/><path class="cls-25" d="M339.22,154.36s-6.48-2.52-6.68-4.09a1.33,1.33,0,0,1,1.37-1.57s-5.1-1-9.38,6.9S339.22,154.36,339.22,154.36Z"/><path class="cls-26" d="M333.42,180.15s-7.23-2.82-7.45-4.56a1.49,1.49,0,0,1,1.52-1.76s-5.69-1.07-10.47,7.69S333.42,180.15,333.42,180.15Z"/><polygon class="cls-14" points="334.43 235.94 334.43 259.75 230.29 320.77 230.48 296.22 334.43 235.94"/><polygon class="cls-27" points="219.66 171.32 219.66 195.12 115.52 256.14 115.71 231.59 219.66 171.32"/><polygon class="cls-15" points="230.47 296.2 126.15 235.93 126.15 260.33 230.28 320.75 230.47 296.2"/><polygon class="cls-3" points="115.69 231.61 11.38 171.34 11.38 195.74 115.51 256.16 115.69 231.61"/><path class="cls-16" d="M223.76,194.47c-2.07.55,4.07.74,4.07.74a22.48,22.48,0,0,0,8.19-6.43c3.26-4.34-.56-2.4-.56-2.4A22.17,22.17,0,0,1,223.76,194.47Z"/><polygon class="cls-10" points="230.29 175.43 334.43 235.95 230.48 296.22 126.25 235.84 230.29 175.43"/><path class="cls-17" d="M246.38,184.78s2.75,6-1.24,10.43-16.4,9.89-23.28,10.28-16,1.72-20.17,9.48-5.32,15.57-6,20.86-3.25,7.29-2.84,11.5,6,7.54,6.21,14-2.15,15.49-2.15,15.49l-14.21-8.23-5.42-24.61,13.43-36.31,27.37-15.81,22.26-10.54Z"/><path class="cls-18" d="M243.1,182.87s1,8.62-2.3,10.81-9.4,6-15.48,6.5-15.18,1-22.53,7.45A34.92,34.92,0,0,0,191.91,228c-.76,5.06-1.77,14.12-3.8,15.92s-2.25,4.14,1.15,8.54,6.7,7.69,6.7,13.64-2,8.94-2,8.94l-18.41-25.2L185.74,205l33.36-14.66,21.26-9Z"/><path class="cls-19" d="M240.36,181.28s2.18,7.81-3.2,12.42-24.62.47-37.77,15.37-7.75,23.18-14,32.7.31,9.52,4.7,16.56S194,275.06,194,275.06l-67.7-39.23,104-60.4Z"/><path class="cls-18" d="M203.6,194.88c0,1.33.42,2.76,2.56,1.83s2.52-4.7,5-4.87,4.28-2.22,3.16-2.93-6.94,2-7.34,2.95S203.6,194.88,203.6,194.88Z"/><path class="cls-18" d="M177.3,243.94a12.57,12.57,0,0,0,4.68-5.52c1.09-2.58,5.05-10.5,4.29-11.5s-.31-5.51-1.15-6.25-.65,4.2-2.27,8.85-1.5,7.35-3.62,7.85S177.3,243.94,177.3,243.94Z"/><path class="cls-18" d="M218.1,191.82c3.32.45,12.52-3.15,12.23-5.16s-.9-.61-4.93-2.61-3.68,5.81-6.31,6.25S218.1,191.82,218.1,191.82Z"/><path class="cls-18" d="M223.76,194.47c-2.07.55,4.07.74,4.07.74a22.48,22.48,0,0,0,8.19-6.43c3.26-4.34-.56-2.4-.56-2.4A22.17,22.17,0,0,1,223.76,194.47Z"/><path class="cls-18" d="M178,252.85c-.45,1.32,0,2.4,1.18,4s4.64,7.56,5.28,8.2c2.05,2.06,4,.48,4.73.22s-2.4-1.93-4.74-4.64-3.18-3.41-3.61-5.12C180.41,254,178.41,251.53,178,252.85Z"/><path class="cls-5" d="M165.21,230.86c-1.22-.23-2.27-.47-2.93-.64a.65.65,0,0,1-.55.25l-.14,0,.65,5s-5.48-3.31-1.3-5.55a14.36,14.36,0,0,0-3.75,2,1.76,1.76,0,0,0-1-.45,3.3,3.3,0,0,1,.78.62,13,13,0,0,0-2.12,2.41s0-.07,0-.19a4.18,4.18,0,0,1,1.68-4.27c1.26-1,3.43-.82,4.19-.72a3.55,3.55,0,0,1-2-2.17c-.59-2,1.83-3.4,1.83-3.4a6.41,6.41,0,0,0,0,3.08,3,3,0,0,1-1.25,0s.15.21,1.23.28l.88,2a.69.69,0,0,1,.5-.2.77.77,0,0,1,.36.09.41.41,0,0,1,.25.34.36.36,0,0,1-.13.26,45.64,45.64,0,0,0,6.55.86c3.6.18,10.67-.55,11.49-.18a.62.62,0,0,1,.43.69,1,1,0,0,1-.19.65h-7.12A74.5,74.5,0,0,1,165.21,230.86Z"/><path class="cls-7" d="M181.82,212l-8.1.92S178.66,207.17,181.82,212Z"/><path class="cls-28" d="M182.26,211.72s.44-3.4-2.07-5A8.27,8.27,0,0,0,175,205.6a18.06,18.06,0,0,1,3.39,2.12,3.84,3.84,0,0,0,.88-.78,1.55,1.55,0,0,1-.63,1s2.86,2.76,2.93,4S182.26,211.72,182.26,211.72Z"/><polygon class="cls-7" points="190.18 211.25 181.85 212.41 185.66 209.74 190.18 211.25"/><path class="cls-28" d="M181.86,212.41a4.57,4.57,0,0,1,3.53-3,5.26,5.26,0,0,1,4.8,1.83,12.65,12.65,0,0,0-4.34,0,2.12,2.12,0,0,1,0-1.25s-.29.15-.39,1.23Z"/><path class="cls-28" d="M181.89,212.21l-8.17.75S179.31,207.84,181.89,212.21Z"/><path class="cls-29" d="M180.75,231.16c.53-.82-.5-7.89-.25-11.49a33.53,33.53,0,0,1,1.35-7c0-.26,0-.37-.11-.41.16,0,.48-.09.39.41a33.54,33.54,0,0,0-1.35,7c-.25,3.6.78,10.67.25,11.49a1,1,0,0,1-1,.43A.91.91,0,0,0,180.75,231.16Z"/><path class="cls-30" d="M179.13,224.28a53.54,53.54,0,0,1,1.09-8.34c.54-2,1.16-3.65,1.16-3.65a.52.52,0,0,1,.36,0l-.08,0s-.62,1.62-1.16,3.65a53.54,53.54,0,0,0-1.09,8.34c0,1.31,0,7.12,0,7.12a2,2,0,0,0,.64.19,1.84,1.84,0,0,1-.92-.19S179.13,225.59,179.13,224.28Z"/><path class="cls-29" d="M179.41,224.28a53.54,53.54,0,0,1,1.09-8.34c.54-2,1.16-3.65,1.16-3.65l.08,0c.09,0,.16.16.11.41a33.53,33.53,0,0,0-1.35,7c-.25,3.6.78,10.67.25,11.49a.91.91,0,0,1-.7.43,2,2,0,0,1-.64-.19S179.41,225.59,179.41,224.28Z"/><path class="cls-30" d="M181.95,212.19a.6.6,0,0,0-.13.36.61.61,0,0,0,.61.61.61.61,0,0,0,.41-.16.6.6,0,0,1-.48.25.61.61,0,0,1-.61-.61A.61.61,0,0,1,181.95,212.19Z"/><path class="cls-29" d="M181.82,212.55a.6.6,0,0,1,.13-.36.61.61,0,0,1,.41-.16.61.61,0,0,1,.61.61.6.6,0,0,1-.13.36.61.61,0,0,1-.41.16A.61.61,0,0,1,181.82,212.55Z"/><path class="cls-30" d="M181,212a.59.59,0,0,0-.13.36.61.61,0,0,0,.61.61.6.6,0,0,0,.4-.16.6.6,0,0,1-.48.25.61.61,0,0,1-.61-.61A.6.6,0,0,1,181,212Z"/><path class="cls-29" d="M180.85,212.36A.59.59,0,0,1,181,212a.6.6,0,0,1,.4-.16.61.61,0,0,1,.61.61.59.59,0,0,1-.13.36.6.6,0,0,1-.4.16A.61.61,0,0,1,180.85,212.36Z"/><path class="cls-7" d="M182.26,211.72s.82-2.93-.95-4.47A7.33,7.33,0,0,0,175,205.6S181.2,204.91,182.26,211.72Z"/><g class="cls-31"><path class="cls-32" d="M181.87,213.9a1.09,1.09,0,0,1-.58,0,.84.84,0,0,1-.52-.26h0c.4,0,.7.3,1.09.25Z"/><path class="cls-32" d="M181.74,214.49a1.09,1.09,0,0,1-.58,0,.84.84,0,0,1-.52-.26h0c.4,0,.7.3,1.09.25Z"/><path class="cls-32" d="M181.52,215.07a1.09,1.09,0,0,1-.58,0,.84.84,0,0,1-.52-.26h0c.4,0,.7.3,1.09.25Z"/><path class="cls-32" d="M181.51,215.65a1.26,1.26,0,0,1-.67,0,1.06,1.06,0,0,1-.6-.29h0c.45,0,.81.35,1.26.28Z"/><path class="cls-32" d="M181.28,216.44a1.26,1.26,0,0,1-.67,0,1.07,1.07,0,0,1-.6-.29h0c.45,0,.81.35,1.26.28Z"/><path class="cls-32" d="M181.14,217.35a1.26,1.26,0,0,1-.67,0,1.06,1.06,0,0,1-.6-.29h0c.45,0,.81.35,1.26.28Z"/><path class="cls-32" d="M181,218.39a1.26,1.26,0,0,1-.67,0,1.06,1.06,0,0,1-.61-.27h0c.45,0,.82.32,1.27.24Z"/><path class="cls-32" d="M180.88,219.22a1.26,1.26,0,0,1-.67,0,1.06,1.06,0,0,1-.62-.26h0c.45,0,.83.31,1.27.22Z"/><path class="cls-32" d="M180.8,220a1.26,1.26,0,0,1-.67,0,1.06,1.06,0,0,1-.62-.26h0c.45,0,.83.31,1.27.22Z"/><path class="cls-32" d="M180.77,221.19a1.44,1.44,0,0,1-.76,0,1.31,1.31,0,0,1-.7-.29h0c.51,0,.94.35,1.44.25Z"/><path class="cls-32" d="M180.88,222.31a1.62,1.62,0,0,1-.85.06,1.59,1.59,0,0,1-.8-.29h0a4.48,4.48,0,0,1,.82.19,1.75,1.75,0,0,0,.82,0Z"/><path class="cls-32" d="M180.87,223.41a1.82,1.82,0,0,1-.95.06,1.9,1.9,0,0,1-.89-.32h0a6.25,6.25,0,0,1,.91.22,2,2,0,0,0,.92,0Z"/><path class="cls-32" d="M181,224.86a1.88,1.88,0,0,1-1,.06,2,2,0,0,1-.92-.33h0a7,7,0,0,1,.94.22,2,2,0,0,0,.95,0Z"/><path class="cls-32" d="M181.1,226a2.05,2.05,0,0,1-1,.2,2.31,2.31,0,0,1-1-.22h0a9.48,9.48,0,0,1,1,.11,2.2,2.2,0,0,0,1-.09Z"/><path class="cls-32" d="M181.18,227.69a2.27,2.27,0,0,1-1.16.22,2.7,2.7,0,0,1-1.15-.24h0c.4,0,.78.08,1.16.13a2.42,2.42,0,0,0,1.14-.11Z"/><path class="cls-32" d="M181.39,229.37a2.51,2.51,0,0,1-1.26.23,3.11,3.11,0,0,1-1.26-.25h0c.43,0,.85.09,1.27.14a2.66,2.66,0,0,0,1.25-.12Z"/></g><path class="cls-5" d="M224.71,189.32c-.94-.18-1.76-.37-2.27-.49a.5.5,0,0,1-.42.19l-.11,0,.51,3.89s-4.24-2.56-1-4.3a11.13,11.13,0,0,0-2.91,1.59,1.36,1.36,0,0,0-.75-.35,2.56,2.56,0,0,1,.61.48,10.1,10.1,0,0,0-1.64,1.86s0-.05,0-.15a3.24,3.24,0,0,1,1.3-3.31,4.63,4.63,0,0,1,3.25-.55,2.75,2.75,0,0,1-1.57-1.68c-.45-1.57,1.42-2.63,1.42-2.63a5,5,0,0,0,0,2.39,2.29,2.29,0,0,1-1,0s.11.16,1,.21l.69,1.53a.53.53,0,0,1,.39-.15.59.59,0,0,1,.28.07.32.32,0,0,1,.2.27.28.28,0,0,1-.1.2,35.35,35.35,0,0,0,5.07.67c2.79.14,8.26-.43,8.9-.14a.48.48,0,0,1,.33.54.79.79,0,0,1-.15.5h-5.51A57.71,57.71,0,0,1,224.71,189.32Z"/><path class="cls-7" d="M237.58,174.75l-6.27.71S235.13,171,237.58,174.75Z"/><path class="cls-28" d="M237.92,174.5s.34-2.63-1.6-3.85a6.4,6.4,0,0,0-4-.89,14,14,0,0,1,2.63,1.64,3,3,0,0,0,.68-.61,1.2,1.2,0,0,1-.49.75s2.22,2.14,2.27,3.09S237.92,174.5,237.92,174.5Z"/><polygon class="cls-7" points="244.05 174.14 237.6 175.03 240.56 172.97 244.05 174.14"/><path class="cls-28" d="M237.6,175a3.54,3.54,0,0,1,2.73-2.31,4.08,4.08,0,0,1,3.72,1.42,9.79,9.79,0,0,0-3.36,0,1.64,1.64,0,0,1,0-1s-.23.11-.3,1Z"/><path class="cls-28" d="M237.63,174.88l-6.33.58S235.63,171.49,237.63,174.88Z"/><path class="cls-29" d="M236.75,189.56c.41-.63-.39-6.11-.19-8.9a26,26,0,0,1,1-5.43c0-.2,0-.29-.09-.32.12,0,.37-.07.3.32a26,26,0,0,0-1,5.43c-.19,2.79.61,8.26.19,8.9a.75.75,0,0,1-.76.33A.7.7,0,0,0,236.75,189.56Z"/><path class="cls-30" d="M235.5,184.23a41.47,41.47,0,0,1,.85-6.46c.42-1.58.9-2.83.9-2.83a.4.4,0,0,1,.28,0l-.07,0s-.48,1.25-.9,2.83a41.47,41.47,0,0,0-.85,6.46c0,1,0,5.51,0,5.51a1.56,1.56,0,0,0,.5.15,1.43,1.43,0,0,1-.71-.15S235.5,185.24,235.5,184.23Z"/><path class="cls-29" d="M235.71,184.23a41.47,41.47,0,0,1,.85-6.46c.42-1.58.9-2.83.9-2.83l.07,0c.07,0,.12.12.09.32a26,26,0,0,0-1,5.43c-.19,2.79.61,8.26.19,8.9a.7.7,0,0,1-.54.33,1.56,1.56,0,0,1-.5-.15S235.71,185.24,235.71,184.23Z"/><path class="cls-30" d="M237.68,174.87a.46.46,0,0,0-.1.28.48.48,0,0,0,.48.48.47.47,0,0,0,.32-.13.47.47,0,0,1-.37.2.48.48,0,0,1-.48-.48A.47.47,0,0,1,237.68,174.87Z"/><path class="cls-29" d="M237.58,175.15a.46.46,0,0,1,.1-.28.47.47,0,0,1,.32-.13.48.48,0,0,1,.48.48.47.47,0,0,1-.1.28.47.47,0,0,1-.32.13A.48.48,0,0,1,237.58,175.15Z"/><path class="cls-30" d="M236.92,174.72a.46.46,0,0,0-.1.28.47.47,0,0,0,.47.47.47.47,0,0,0,.31-.12.46.46,0,0,1-.37.19.47.47,0,0,1-.47-.47A.46.46,0,0,1,236.92,174.72Z"/><path class="cls-29" d="M236.82,175a.46.46,0,0,1,.1-.28.46.46,0,0,1,.31-.12.47.47,0,0,1,.47.47.46.46,0,0,1-.1.28.47.47,0,0,1-.31.12A.47.47,0,0,1,236.82,175Z"/><path class="cls-7" d="M237.92,174.5s.63-2.27-.73-3.46a5.68,5.68,0,0,0-4.87-1.28A5.15,5.15,0,0,1,237.92,174.5Z"/><g class="cls-33"><path class="cls-32" d="M237.62,176.19a.84.84,0,0,1-.45,0,.68.68,0,0,1-.4-.2h0c.31,0,.54.23.85.19Z"/><path class="cls-32" d="M237.52,176.64a.84.84,0,0,1-.45,0,.68.68,0,0,1-.4-.2h0c.31,0,.54.23.85.19Z"/><path class="cls-32" d="M237.34,177.1a.84.84,0,0,1-.45,0,.68.68,0,0,1-.4-.2h0c.31,0,.54.23.85.19Z"/><path class="cls-32" d="M237.33,177.55a1,1,0,0,1-.52,0,.86.86,0,0,1-.47-.22h0c.35,0,.63.27,1,.22Z"/><path class="cls-32" d="M237.16,178.16a1,1,0,0,1-.52,0,.86.86,0,0,1-.47-.22h0c.35,0,.63.27,1,.22Z"/><path class="cls-32" d="M237,178.86a1,1,0,0,1-.52,0,.86.86,0,0,1-.47-.22h0c.35,0,.63.27,1,.22Z"/><path class="cls-32" d="M236.92,179.67a1,1,0,0,1-.52,0,.86.86,0,0,1-.47-.21h0c.35,0,.64.25,1,.18Z"/><path class="cls-32" d="M236.85,180.31a1,1,0,0,1-.52,0,.86.86,0,0,1-.48-.2h0c.35,0,.64.24,1,.17Z"/><path class="cls-32" d="M236.79,180.95a1,1,0,0,1-.52,0,.86.86,0,0,1-.48-.2h0c.35,0,.64.24,1,.17Z"/><path class="cls-32" d="M236.76,181.84a1.11,1.11,0,0,1-.59,0,1.05,1.05,0,0,1-.54-.22h0c.39,0,.73.27,1.12.2Z"/><path class="cls-32" d="M236.85,182.71a1.26,1.26,0,0,1-.66,0,1.28,1.28,0,0,1-.62-.22h0c.44,0,.83.28,1.27.18Z"/><path class="cls-32" d="M236.84,183.56a1.41,1.41,0,0,1-.73,0,1.53,1.53,0,0,1-.69-.25h0c.49.05.93.32,1.42.2Z"/><path class="cls-32" d="M236.91,184.67a1.46,1.46,0,0,1-.76,0,1.61,1.61,0,0,1-.72-.25h0c.5.06,1,.33,1.46.21Z"/><path class="cls-32" d="M237,185.58a1.59,1.59,0,0,1-.81.15,1.85,1.85,0,0,1-.81-.17h0c.28,0,.54.06.81.09a1.7,1.7,0,0,0,.8-.07Z"/><path class="cls-32" d="M237.08,186.87a1.76,1.76,0,0,1-.9.17,2.15,2.15,0,0,1-.89-.18h0c.31,0,.6.07.9.1a1.87,1.87,0,0,0,.88-.08Z"/><path class="cls-32" d="M237.25,188.17a2,2,0,0,1-1,.18,2.48,2.48,0,0,1-1-.19h0c.34,0,.66.08,1,.11a2.06,2.06,0,0,0,1-.1Z"/></g><path class="cls-5" d="M158.55,241.59c-1.22-.23-2.27-.47-2.93-.64a.65.65,0,0,1-.55.25l-.14,0,.65,5s-5.48-3.31-1.3-5.55a14.36,14.36,0,0,0-3.75,2,1.76,1.76,0,0,0-1-.45,3.3,3.3,0,0,1,.78.62,13,13,0,0,0-2.12,2.41s0-.07,0-.19a4.18,4.18,0,0,1,1.68-4.27c1.26-1,3.43-.82,4.19-.72a3.55,3.55,0,0,1-2-2.17c-.59-2,1.83-3.4,1.83-3.4a6.41,6.41,0,0,0,0,3.08,3,3,0,0,1-1.25,0s.15.21,1.23.28l.88,2a.69.69,0,0,1,.5-.2.77.77,0,0,1,.36.09.41.41,0,0,1,.25.34.36.36,0,0,1-.13.26,45.64,45.64,0,0,0,6.55.86c3.6.18,10.67-.55,11.49-.18a.62.62,0,0,1,.43.69,1,1,0,0,1-.19.65H166.9A74.5,74.5,0,0,1,158.55,241.59Z"/><path class="cls-7" d="M175.16,222.78l-8.1.92S172,217.9,175.16,222.78Z"/><path class="cls-28" d="M175.6,222.46s.44-3.4-2.07-5a8.27,8.27,0,0,0-5.17-1.15,18.06,18.06,0,0,1,3.39,2.12,3.84,3.84,0,0,0,.88-.78,1.55,1.55,0,0,1-.63,1s2.86,2.76,2.93,4S175.6,222.46,175.6,222.46Z"/><polygon class="cls-7" points="183.53 221.99 175.2 223.14 179.01 220.48 183.53 221.99"/><path class="cls-28" d="M175.2,223.14a4.57,4.57,0,0,1,3.53-3,5.26,5.26,0,0,1,4.8,1.83,12.65,12.65,0,0,0-4.34,0,2.12,2.12,0,0,1,0-1.25s-.29.15-.39,1.23Z"/><path class="cls-28" d="M175.23,222.95l-8.17.75S172.65,218.57,175.23,222.95Z"/><path class="cls-29" d="M174.1,241.9c.53-.82-.5-7.89-.25-11.49a33.53,33.53,0,0,1,1.35-7c0-.26,0-.37-.11-.41.16,0,.48-.09.39.41a33.54,33.54,0,0,0-1.35,7c-.25,3.6.78,10.67.25,11.49a1,1,0,0,1-1,.43A.91.91,0,0,0,174.1,241.9Z"/><path class="cls-30" d="M172.48,235a53.54,53.54,0,0,1,1.09-8.34c.54-2,1.16-3.65,1.16-3.65a.52.52,0,0,1,.36,0l-.08,0s-.62,1.62-1.16,3.65a53.54,53.54,0,0,0-1.09,8.34c0,1.31,0,7.12,0,7.12a2,2,0,0,0,.64.19,1.84,1.84,0,0,1-.92-.19S172.48,236.32,172.48,235Z"/><path class="cls-29" d="M172.75,235a53.54,53.54,0,0,1,1.09-8.34c.54-2,1.16-3.65,1.16-3.65l.08,0c.09,0,.16.16.11.41a33.53,33.53,0,0,0-1.35,7c-.25,3.6.78,10.67.25,11.49a.91.91,0,0,1-.7.43,2,2,0,0,1-.64-.19S172.75,236.32,172.75,235Z"/><path class="cls-30" d="M175.29,222.93a.6.6,0,0,0-.13.36.61.61,0,0,0,.61.61.61.61,0,0,0,.41-.16.6.6,0,0,1-.48.25.61.61,0,0,1-.61-.61A.61.61,0,0,1,175.29,222.93Z"/><path class="cls-29" d="M175.16,223.29a.6.6,0,0,1,.13-.36.61.61,0,0,1,.41-.16.61.61,0,0,1,.61.61.6.6,0,0,1-.13.36.61.61,0,0,1-.41.16A.61.61,0,0,1,175.16,223.29Z"/><path class="cls-30" d="M174.32,222.74a.59.59,0,0,0-.13.36.61.61,0,0,0,.61.61.6.6,0,0,0,.4-.16.6.6,0,0,1-.48.25.61.61,0,0,1-.61-.61A.6.6,0,0,1,174.32,222.74Z"/><path class="cls-29" d="M174.19,223.1a.59.59,0,0,1,.13-.36.6.6,0,0,1,.4-.16.61.61,0,0,1,.61.61.59.59,0,0,1-.13.36.6.6,0,0,1-.4.16A.61.61,0,0,1,174.19,223.1Z"/><path class="cls-7" d="M175.6,222.46s.82-2.93-.95-4.47a7.33,7.33,0,0,0-6.29-1.65S174.55,215.64,175.6,222.46Z"/><g class="cls-34"><path class="cls-32" d="M175.22,224.64a1.09,1.09,0,0,1-.58,0,.84.84,0,0,1-.52-.26h0c.4,0,.7.3,1.09.25Z"/><path class="cls-32" d="M175.09,225.22a1.09,1.09,0,0,1-.58,0A.84.84,0,0,1,174,225h0c.4,0,.7.3,1.09.25Z"/><path class="cls-32" d="M174.86,225.81a1.09,1.09,0,0,1-.58,0,.84.84,0,0,1-.52-.26h0c.4,0,.7.3,1.09.25Z"/><path class="cls-32" d="M174.85,226.39a1.26,1.26,0,0,1-.67,0,1.06,1.06,0,0,1-.6-.29h0c.45,0,.81.35,1.26.28Z"/><path class="cls-32" d="M174.62,227.17a1.26,1.26,0,0,1-.67,0,1.06,1.06,0,0,1-.6-.29h0c.45,0,.81.35,1.26.28Z"/><path class="cls-32" d="M174.48,228.09a1.26,1.26,0,0,1-.67,0,1.06,1.06,0,0,1-.6-.29h0c.45,0,.81.35,1.26.28Z"/><path class="cls-32" d="M174.32,229.13a1.26,1.26,0,0,1-.67,0,1.06,1.06,0,0,1-.61-.27h0c.45,0,.82.32,1.27.24Z"/><path class="cls-32" d="M174.22,230a1.26,1.26,0,0,1-.67,0,1.07,1.07,0,0,1-.62-.26h0c.45,0,.83.31,1.27.22Z"/><path class="cls-32" d="M174.14,230.78a1.26,1.26,0,0,1-.67,0,1.06,1.06,0,0,1-.62-.26h0c.45,0,.83.31,1.27.22Z"/><path class="cls-32" d="M174.11,231.93a1.43,1.43,0,0,1-.76,0,1.31,1.31,0,0,1-.7-.29h0c.51,0,.94.35,1.44.25Z"/><path class="cls-32" d="M174.23,233a1.62,1.62,0,0,1-.85.06,1.59,1.59,0,0,1-.8-.29h0a4.43,4.43,0,0,1,.82.19,1.76,1.76,0,0,0,.82,0Z"/><path class="cls-32" d="M174.21,234.15a1.82,1.82,0,0,1-.95.06,1.9,1.9,0,0,1-.89-.32h0a6.3,6.3,0,0,1,.91.22,2,2,0,0,0,.92,0Z"/><path class="cls-32" d="M174.31,235.59a1.88,1.88,0,0,1-1,.06,2,2,0,0,1-.92-.33h0a7,7,0,0,1,.94.22,2,2,0,0,0,.95,0Z"/><path class="cls-32" d="M174.44,236.76a2.06,2.06,0,0,1-1,.2,2.3,2.3,0,0,1-1-.22h0a9.42,9.42,0,0,1,1,.11,2.19,2.19,0,0,0,1-.09Z"/><path class="cls-32" d="M174.52,238.43a2.27,2.27,0,0,1-1.16.22,2.7,2.7,0,0,1-1.15-.24h0c.4,0,.78.08,1.16.13a2.41,2.41,0,0,0,1.14-.11Z"/><path class="cls-32" d="M174.74,240.11a2.52,2.52,0,0,1-1.26.23,3.1,3.1,0,0,1-1.26-.25h0c.43,0,.85.09,1.27.14a2.66,2.66,0,0,0,1.25-.12Z"/></g><path class="cls-5" d="M165.65,247.72c-1.32-.25-2.48-.52-3.2-.69a.71.71,0,0,1-.6.27l-.15,0,.71,5.47s-6-3.61-1.42-6.05c-1.43.28-4.09,2.23-4.09,2.23a1.92,1.92,0,0,0-1.06-.49,3.6,3.6,0,0,1,.86.68,14.21,14.21,0,0,0-2.31,2.62s0-.08,0-.21a4.56,4.56,0,0,1,1.83-4.65c1.37-1.11,3.74-.9,4.57-.78a3.87,3.87,0,0,1-2.21-2.37c-.64-2.21,2-3.71,2-3.71a7,7,0,0,0,0,3.36,3.22,3.22,0,0,1-1.36,0s.16.23,1.34.3l1,2.16a.75.75,0,0,1,.55-.22.83.83,0,0,1,.39.1.45.45,0,0,1,.28.37.39.39,0,0,1-.14.28,49.74,49.74,0,0,0,7.14.94c3.92.19,11.63-.6,12.52-.19a.67.67,0,0,1,.46.76,1.11,1.11,0,0,1-.21.71h-7.76A81.21,81.21,0,0,1,165.65,247.72Z"/><path class="cls-7" d="M183.75,227.22l-8.83,1S180.3,221.9,183.75,227.22Z"/><path class="cls-28" d="M184.23,226.87s.48-3.71-2.26-5.42a9,9,0,0,0-5.63-1.26,19.69,19.69,0,0,1,3.7,2.31,4.19,4.19,0,0,0,1-.86,1.69,1.69,0,0,1-.69,1.06s3.12,3,3.2,4.35S184.23,226.87,184.23,226.87Z"/><polygon class="cls-7" points="192.87 226.35 183.79 227.61 187.94 224.71 192.87 226.35"/><path class="cls-28" d="M183.79,227.61a5,5,0,0,1,3.85-3.25,5.74,5.74,0,0,1,5.23,2,13.78,13.78,0,0,0-4.73,0,2.31,2.31,0,0,1,0-1.36s-.32.16-.42,1.34Z"/><path class="cls-28" d="M183.83,227.4l-8.91.82S181,222.63,183.83,227.4Z"/><path class="cls-29" d="M182.59,248.05c.58-.89-.55-8.6-.27-12.52a36.55,36.55,0,0,1,1.47-7.65c.05-.28,0-.4-.12-.45.17-.05.52-.09.42.45a36.56,36.56,0,0,0-1.47,7.65c-.27,3.92.85,11.63.27,12.52a1.05,1.05,0,0,1-1.07.46A1,1,0,0,0,182.59,248.05Z"/><path class="cls-30" d="M180.82,240.55a58.36,58.36,0,0,1,1.19-9.1c.59-2.22,1.26-4,1.26-4a.57.57,0,0,1,.39,0l-.09,0s-.68,1.76-1.26,4a58.36,58.36,0,0,0-1.19,9.1c0,1.43,0,7.76,0,7.76a2.19,2.19,0,0,0,.7.21,2,2,0,0,1-1-.21S180.82,242,180.82,240.55Z"/><path class="cls-29" d="M181.13,240.55a58.36,58.36,0,0,1,1.19-9.1c.59-2.22,1.26-4,1.26-4l.09,0c.1,0,.17.17.12.45a36.55,36.55,0,0,0-1.47,7.65c-.27,3.92.85,11.63.27,12.52a1,1,0,0,1-.76.46,2.19,2.19,0,0,1-.7-.21S181.13,242,181.13,240.55Z"/><path class="cls-30" d="M183.89,227.38a.65.65,0,0,0-.14.39.67.67,0,0,0,.67.67.66.66,0,0,0,.44-.18.66.66,0,0,1-.53.28.67.67,0,0,1-.67-.67A.66.66,0,0,1,183.89,227.38Z"/><path class="cls-29" d="M183.75,227.77a.65.65,0,0,1,.14-.39.66.66,0,0,1,.44-.18.67.67,0,0,1,.67.67.65.65,0,0,1-.14.39.66.66,0,0,1-.44.18A.67.67,0,0,1,183.75,227.77Z"/><path class="cls-30" d="M182.83,227.17a.65.65,0,0,0-.14.39.66.66,0,0,0,.66.66.65.65,0,0,0,.44-.17.65.65,0,0,1-.52.27.66.66,0,0,1-.66-.66A.65.65,0,0,1,182.83,227.17Z"/><path class="cls-29" d="M182.69,227.56a.65.65,0,0,1,.14-.39.65.65,0,0,1,.44-.17.66.66,0,0,1,.66.66.65.65,0,0,1-.14.39.65.65,0,0,1-.44.17A.66.66,0,0,1,182.69,227.56Z"/><path class="cls-7" d="M184.23,226.87s.89-3.19-1-4.87a8,8,0,0,0-6.86-1.8S183.08,219.44,184.23,226.87Z"/><g class="cls-35"><path class="cls-32" d="M183.81,229.24a1.18,1.18,0,0,1-.64,0,.92.92,0,0,1-.57-.28h0a1.74,1.74,0,0,1,.6.17,1.34,1.34,0,0,0,.6.1Z"/><path class="cls-32" d="M183.67,229.88a1.19,1.19,0,0,1-.64,0,.92.92,0,0,1-.57-.28h0a1.73,1.73,0,0,1,.6.17,1.34,1.34,0,0,0,.6.1Z"/><path class="cls-32" d="M183.42,230.52a1.18,1.18,0,0,1-.64,0,.92.92,0,0,1-.57-.28h0a1.74,1.74,0,0,1,.6.17,1.34,1.34,0,0,0,.6.1Z"/><path class="cls-32" d="M183.41,231.15a1.37,1.37,0,0,1-.73,0,1.16,1.16,0,0,1-.66-.31h0c.49,0,.88.38,1.37.31Z"/><path class="cls-32" d="M183.16,232a1.37,1.37,0,0,1-.73,0,1.16,1.16,0,0,1-.66-.31h0c.49,0,.88.38,1.37.31Z"/><path class="cls-32" d="M183,233a1.37,1.37,0,0,1-.73,0,1.16,1.16,0,0,1-.66-.31h0c.49,0,.88.38,1.37.31Z"/><path class="cls-32" d="M182.83,234.14a1.37,1.37,0,0,1-.73,0,1.16,1.16,0,0,1-.67-.29h0c.49,0,.9.35,1.38.26Z"/><path class="cls-32" d="M182.73,235a1.37,1.37,0,0,1-.73,0,1.16,1.16,0,0,1-.67-.28h0c.49,0,.9.34,1.39.24Z"/><path class="cls-32" d="M182.64,235.93a1.37,1.37,0,0,1-.73,0,1.16,1.16,0,0,1-.67-.28h0c.49,0,.9.34,1.39.24Z"/><path class="cls-32" d="M182.61,237.19a1.56,1.56,0,0,1-.82,0,1.43,1.43,0,0,1-.76-.31v0a3.49,3.49,0,0,1,.79.2,1.72,1.72,0,0,0,.79.07Z"/><path class="cls-32" d="M182.73,238.41a1.76,1.76,0,0,1-.92.07,1.73,1.73,0,0,1-.87-.32v0a4.84,4.84,0,0,1,.89.2,1.92,1.92,0,0,0,.89,0Z"/><path class="cls-32" d="M182.71,239.61a2,2,0,0,1-1,.07,2.07,2.07,0,0,1-1-.35v0a6.84,6.84,0,0,1,1,.23,2.13,2.13,0,0,0,1,0Z"/><path class="cls-32" d="M182.82,241.18a2,2,0,0,1-1.07.07,2.19,2.19,0,0,1-1-.36v0a7.63,7.63,0,0,1,1,.24,2.2,2.2,0,0,0,1,0Z"/><path class="cls-32" d="M183,242.45a2.24,2.24,0,0,1-1.14.22,2.51,2.51,0,0,1-1.14-.24v0a10.28,10.28,0,0,1,1.14.12,2.39,2.39,0,0,0,1.13-.1Z"/><path class="cls-32" d="M183.05,244.27a2.48,2.48,0,0,1-1.26.23,2.94,2.94,0,0,1-1.26-.26v0c.43,0,.85.08,1.26.14a2.63,2.63,0,0,0,1.24-.12Z"/><path class="cls-32" d="M183.29,246.1a2.74,2.74,0,0,1-1.38.25,3.39,3.39,0,0,1-1.38-.27v0c.47,0,.92.1,1.38.16a2.9,2.9,0,0,0,1.36-.14Z"/></g><path class="cls-36" d="M272.61,217.37s-11-4.3-11.37-7a2.27,2.27,0,0,1,2.33-2.68s-8.68-1.64-16,11.74S272.61,217.37,272.61,217.37Z"/><path class="cls-37" d="M243.37,266.75s-6.48-2.52-6.68-4.09a1.33,1.33,0,0,1,1.37-1.57s-5.1-1-9.38,6.9S243.37,266.75,243.37,266.75Z"/><path class="cls-38" d="M287.2,243.09s-8.69-3.38-9-5.49a1.79,1.79,0,0,1,1.83-2.11s-6.84-1.29-12.58,9.25S287.2,243.09,287.2,243.09Z"/><path class="cls-39" d="M308.23,231.59s-6.48-2.52-6.68-4.09a1.33,1.33,0,0,1,1.37-1.57s-5.1-1-9.38,6.9S308.23,231.59,308.23,231.59Z"/><path class="cls-40" d="M247.44,236.84s-6.48-2.52-6.68-4.09a1.33,1.33,0,0,1,1.37-1.57s-5.1-1-9.38,6.9S247.44,236.84,247.44,236.84Z"/><path class="cls-41" d="M225.91,220.77s-6.48-2.52-6.68-4.09a1.33,1.33,0,0,1,1.37-1.57s-5.1-1-9.38,6.9S225.91,220.77,225.91,220.77Z"/><path class="cls-42" d="M220.12,246.56s-7.23-2.82-7.45-4.56a1.49,1.49,0,0,1,1.52-1.76s-5.69-1.07-10.47,7.69S220.12,246.56,220.12,246.56Z"/><rect class="cls-6" x="182.01" y="129.66" width="1" height="7.96"/><path class="cls-7" d="M182.51,106.18V133C171.69,129.36,182.51,106.18,182.51,106.18Z"/><path class="cls-8" d="M182.51,133V106.18S194.08,127.54,182.51,133Z"/><rect class="cls-6" x="173.64" y="121.18" width="0.73" height="5.83"/><path class="cls-43" d="M174,104v19.67C166.07,121,174,104,174,104Z"/><path class="cls-44" d="M174,123.63V104S182.48,119.62,174,123.63Z"/><rect class="cls-6" x="191.26" y="138.04" width="0.66" height="5.28"/><path class="cls-11" d="M191.6,122.47v17.79C184.42,137.84,191.6,122.47,191.6,122.47Z"/><path class="cls-12" d="M191.6,140.26V122.47S199.26,136.63,191.6,140.26Z"/><rect class="cls-6" x="200.55" y="145.59" width="0.82" height="6.54"/><path class="cls-7" d="M201,126.31v22C192.07,145.34,201,126.31,201,126.31Z"/><path class="cls-8" d="M201,148.34v-22S210.46,143.85,201,148.34Z"/><path class="cls-11" d="M199.48,137.23V155C192.31,152.61,199.48,137.23,199.48,137.23Z"/><path class="cls-12" d="M199.48,155V137.23S207.15,151.4,199.48,155Z"/><path class="cls-9" d="M194.9,196s18.25,6.49,21.28,10.1l-7.28-2.43s-13.17-6.58-16-6.49Z"/><path class="cls-10" d="M202.44,213.73s-7.2-12.3-16.83-12.3l8-4.69,7.28,2.5a6.69,6.69,0,0,1,1.13.51l14.15,6.33Z"/><path class="cls-10" d="M199.64,219.31a14.51,14.51,0,0,0-2.06-11.8c-4-6,6-1.11,6-1.11l1.6,10.54Z"/><path class="cls-5" d="M229.93,63.74s19.58-8,25.22-.63l4.64-.05v.7l-4.58.05C251.3,70.8,229.93,63.74,229.93,63.74Z"/><rect class="cls-6" x="258.93" y="56.79" width="0.87" height="6.94"/><path class="cls-7" d="M259.36,36.31V59.72C249.92,56.53,259.36,36.31,259.36,36.31Z"/><path class="cls-8" d="M259.36,59.72V36.31S269.45,54.95,259.36,59.72Z"/><path class="cls-5" d="M232.81,52s13.34-5.47,17.19-.43l3.16,0v.48l-3.12,0C247.37,56.85,232.81,52,232.81,52Z"/><rect class="cls-6" x="252.57" y="47.31" width="0.6" height="4.73"/><path class="cls-7" d="M252.86,33.35V49.3C246.43,47.13,252.86,33.35,252.86,33.35Z"/><path class="cls-8" d="M252.86,49.3V33.35S259.74,46.05,252.86,49.3Z"/><path class="cls-5" d="M226.16,48s10.8-4.43,13.92-.35l2.56,0V48l-2.53,0C238,51.92,226.16,48,226.16,48Z"/><rect class="cls-6" x="242.17" y="44.19" width="0.48" height="3.83"/><path class="cls-7" d="M242.41,32.89V45.8C237.2,44,242.41,32.89,242.41,32.89Z"/><path class="cls-8" d="M242.41,45.8V32.89S248,43.17,242.41,45.8Z"/><path class="cls-5" d="M243.21,75.39s21.6-8.86,27.84-.69l5.12-.06v.77l-5.05.06C266.8,83.18,243.21,75.39,243.21,75.39Z"/><rect class="cls-6" x="275.22" y="67.73" width="0.96" height="7.66"/><path class="cls-7" d="M275.7,45.12V71C265.28,67.44,275.7,45.12,275.7,45.12Z"/><path class="cls-8" d="M275.7,71V45.12S286.83,65.69,275.7,71Z"/><path class="cls-5" d="M233.06,82.83s21.6-8.86,27.84-.69l5.12-.06v.77l-5.05.06C256.64,90.62,233.06,82.83,233.06,82.83Z"/><rect class="cls-6" x="265.06" y="75.16" width="0.96" height="7.66"/><path class="cls-7" d="M265.54,52.56V78.39C255.12,74.87,265.54,52.56,265.54,52.56Z"/><path class="cls-8" d="M265.54,78.39V52.56S276.68,73.12,265.54,78.39Z"/><path class="cls-5" d="M256.5,83.58s21.6-8.86,27.84-.69l5.12-.06v.77l-5.05.06C280.08,91.37,256.5,83.58,256.5,83.58Z"/><rect class="cls-6" x="288.51" y="75.92" width="0.96" height="7.66"/><path class="cls-7" d="M289,53.31V79.14C278.57,75.63,289,53.31,289,53.31Z"/><path class="cls-8" d="M289,79.14V53.31S300.12,73.88,289,79.14Z"/><path class="cls-45" d="M235.54,252.29a13.43,13.43,0,0,0-6.83,1.77c-3.69,2.24-7.68,7.8-7.75,7.89.22,0,7-1.06,10.63-3.3a13.43,13.43,0,0,0,5.14-6.3A9.3,9.3,0,0,0,235.54,252.29Z"/><g class="cls-46"><path class="cls-2" d="M221,261.94h0a1.16,1.16,0,0,0,1.37,1.14c2.21-.42,6.57-1.42,9.26-3.06a13.16,13.16,0,0,0,4.7-5.3,4.2,4.2,0,0,0,.44-1.88v-.5a13.43,13.43,0,0,1-5.14,6.3C227.93,260.88,221.18,261.91,221,261.94Z"/><g class="cls-47"><g class="cls-46"><path class="cls-2" d="M221,261.94h0a1.16,1.16,0,0,0,1.37,1.14c2.21-.42,6.57-1.42,9.26-3.06a13,13,0,0,0,4.55-5,5.09,5.09,0,0,0,.59-2.38v-.28a13.43,13.43,0,0,1-5.14,6.3c-3.66,2.23-10.41,3.27-10.63,3.3"/></g></g></g><path class="cls-48" d="M230.06,256.42a.16.16,0,0,0,.16-.16v-16.2a.16.16,0,1,0-.32,0v16.2A.16.16,0,0,0,230.06,256.42Z"/><path class="cls-49" d="M229.58,240.07s-6.11,8.67-5.44,15.28l5.44-3.27s-.92-1,0-3.48A16,16,0,0,1,229.58,240.07Z"/><path class="cls-10" d="M146.08,146.56c1,2.22,4.59,3.45,9.11,4.58-3.5-1-6.18-2.08-7-3.88-2.85-6.42,12.73-10,12.73-10l-6.8-3.86-.08,0,4.75,2.79S143.23,139.92,146.08,146.56Z"/><path class="cls-10" d="M186.72,190.42c-8.57-8.14-3.34-14.26-6.08-26.58-1.55-7-10.91-9.33-19.21-11.21,7.7,1.88,15.66,4.46,17.08,11.09,2.73,12.75-2.49,19.09,6.08,27.51l-5.28,3.17.17.21Z"/><path class="cls-10" d="M155.19,151.14c1.89.52,4,1,6.24,1.49C159.28,152.1,157.16,151.63,155.19,151.14Z"/><path class="cls-9" d="M167.06,161.3c-9.06-5.7-24.34-2.35-25.29-11.67s2.83-14,12.29-16.23l-2-1.2c-9.53,2.26-13.33,7.16-12.37,16.82s16.23,6.18,25.29,12.08,5.89,10.46,6.77,19.47a31,31,0,0,0,5.65,15l2-1.18a29.64,29.64,0,0,1-5.49-14.29C172.95,171.4,176.12,167,167.06,161.3Z"/><path class="cls-10" d="M178.51,163.72c-1.42-6.64-9.38-9.21-17.08-11.09-2.21-.5-4.34-1-6.24-1.49-4.52-1.13-8.16-2.36-9.11-4.58-2.85-6.64,12.73-10.38,12.73-10.38l-4.75-2.79c-9.47,2.19-13.25,6.93-12.29,16.23s16.23,6,25.29,11.67,5.89,10.1,6.77,18.81a29.64,29.64,0,0,0,5.49,14.29l5.28-3.17C176,182.81,181.25,176.47,178.51,163.72Z"/><polygon class="cls-5" points="221.91 140.66 292.4 181.63 222.04 222.43 151.48 181.55 221.91 140.66"/><polygon class="cls-50" points="151.39 154.3 221.85 195.16 292.1 154.39 221.75 113.54 151.39 154.3"/><polygon class="cls-51" points="151.52 154.39 151.52 170.45 221.81 211.64 221.69 195.07 151.52 154.39"/><polygon class="cls-52" points="221.69 195.07 292.1 154.39 292.1 170.86 221.81 211.64 221.69 195.07"/><polygon class="cls-5" points="216.25 183.15 242.3 183.15 292.1 154.39 259.24 135.31 216.25 183.15"/><polygon class="cls-53" points="180.47 150.92 180.44 160.68 177.28 158.86 177.31 149.1 180.47 150.92"/><polygon class="cls-54" points="180.49 150.92 221.12 127.25 221.12 127.25 180.47 160.68 180.49 150.92"/><polygon class="cls-55" points="177.31 149.1 217.96 125.42 221.12 127.25 180.47 150.92 177.31 149.1"/><g class="cls-46"><polygon class="cls-55" points="261.11 145.31 261.12 151.87 223.6 173.68 223.59 167.12 261.11 145.31"/><polygon class="cls-55" points="223.6 173.68 188.37 153.2 188.35 146.64 223.59 167.12 223.6 173.68"/><polygon class="cls-55" points="223.59 167.12 188.35 146.64 228.42 123.5 261.11 145.31 223.59 167.12"/></g><g class="cls-46"><g class="cls-46"><g class="cls-56"><g class="cls-46"><path class="cls-57" d="M191.64,127.41l-.05,18.5h0l.05-18.5h0"/><path class="cls-58" d="M191.64,127.42l-.05,18.5a.53.53,0,0,1,0,.09l.05-18.5a.53.53,0,0,0,0-.09"/><path class="cls-59" d="M191.63,127.51l-.05,18.5,0,.09.05-18.5,0-.09"/><path class="cls-60" d="M191.6,127.6l-.05,18.5,0,.09.05-18.5,0-.09"/><path class="cls-61" d="M191.56,127.69l-.05,18.5-.06.09.05-18.5.06-.09"/><path class="cls-62" d="M191.5,127.78l-.05,18.5-.1.1.05-18.5.1-.1"/><path class="cls-63" d="M191.4,127.88l-.05,18.5a1.2,1.2,0,0,1-.2.15l.05-18.5a1.2,1.2,0,0,0,.2-.15"/><path class="cls-64" d="M191.2,128l-.05,18.5h0a1.76,1.76,0,0,1-.34.15l.05-18.5a1.76,1.76,0,0,0,.34-.15h0"/><path class="cls-63" d="M190.85,128.19l-.05,18.5-.29.07.05-18.5.29-.07"/><path class="cls-62" d="M190.55,128.26l-.05,18.5-.2,0,.05-18.5.2,0"/><path class="cls-61" d="M190.35,128.29l-.05,18.5h-.17l.05-18.5h.17"/><path class="cls-60" d="M190.18,128.3l-.05,18.5H190l.05-18.5h.16"/><path class="cls-59" d="M190,128.3,190,146.8h-.15l.05-18.5H190"/><path class="cls-58" d="M189.87,128.3l-.05,18.5-.15,0,.05-18.5.15,0"/><path class="cls-57" d="M189.72,128.28l-.05,18.5-.15,0,.05-18.5.15,0"/><path class="cls-65" d="M189.57,128.25l-.05,18.5-.16,0,.05-18.5.16,0"/><path class="cls-66" d="M189.4,128.21l-.05,18.5-.19-.06.05-18.5.19.06"/><path class="cls-67" d="M189.22,128.15l-.05,18.5-.22-.11a.77.77,0,0,1-.46-.64l.05-18.5a.77.77,0,0,0,.46.64l.22.11"/></g></g></g><path class="cls-68" d="M191.18,126.77a.67.67,0,0,1,0,1.27,2.42,2.42,0,0,1-2.2,0,.67.67,0,0,1,0-1.27A2.42,2.42,0,0,1,191.18,126.77Z"/></g><path class="cls-69" d="M191.64,127.41a.59.59,0,0,1-.11.33h0a1,1,0,0,1-.33.29,1.86,1.86,0,0,1-.48.18l-.07,0a2.55,2.55,0,0,1-.54.06h0a2.57,2.57,0,0,1-.56-.06h0a1.89,1.89,0,0,1-.5-.19.77.77,0,0,1-.46-.64l-.05,18.5a.77.77,0,0,0,.46.64l.22.11.19.06.09,0h.07l.15,0,.15,0h.48l.2,0,.08,0,.07,0,.13,0a1.75,1.75,0,0,0,.34-.15h0a1.22,1.22,0,0,0,.2-.15l.1-.1,0,0h0l0-.05,0-.09,0-.09a.55.55,0,0,0,0-.09h0Z"/><g class="cls-46"><g class="cls-46"><g class="cls-70"><g class="cls-46"><path class="cls-57" d="M196.55,130.31l-.05,18.5h0l.05-18.5h0"/><path class="cls-58" d="M196.55,130.33l-.05,18.5a.53.53,0,0,1,0,.09l.05-18.5a.53.53,0,0,0,0-.09"/><path class="cls-59" d="M196.54,130.42l-.05,18.5,0,.09.05-18.5,0-.09"/><path class="cls-60" d="M196.52,130.5l-.05,18.5,0,.09.05-18.5,0-.09"/><path class="cls-61" d="M196.47,130.59l-.05,18.5-.06.09.05-18.5.06-.09"/><path class="cls-62" d="M196.41,130.69l-.05,18.5-.1.1.05-18.5.1-.1"/><path class="cls-63" d="M196.32,130.79l-.05,18.5a1.2,1.2,0,0,1-.2.15l.05-18.5a1.2,1.2,0,0,0,.2-.15"/><path class="cls-64" d="M196.12,130.93l-.05,18.5h0a1.76,1.76,0,0,1-.34.15l.05-18.5a1.76,1.76,0,0,0,.34-.15h0"/><path class="cls-63" d="M195.76,131.1l-.05,18.5-.29.07.05-18.5.29-.07"/><path class="cls-62" d="M195.46,131.17l-.05,18.5-.2,0,.05-18.5.2,0"/><path class="cls-61" d="M195.27,131.2l-.05,18.5H195l.05-18.5h.17"/><path class="cls-60" d="M195.1,131.21l-.05,18.5h-.16l.05-18.5h.16"/><path class="cls-59" d="M194.94,131.21l-.05,18.5h-.15l.05-18.5h.15"/><path class="cls-58" d="M194.78,131.2l-.05,18.5-.15,0,.05-18.5.15,0"/><path class="cls-57" d="M194.63,131.18l-.05,18.5-.15,0,.05-18.5.15,0"/><path class="cls-65" d="M194.48,131.16l-.05,18.5-.16,0,.05-18.5.16,0"/><path class="cls-66" d="M194.32,131.12l-.05,18.5-.19-.06.05-18.5.19.06"/><path class="cls-67" d="M194.13,131.05l-.05,18.5-.22-.11a.77.77,0,0,1-.46-.64l.05-18.5a.77.77,0,0,0,.46.64l.22.11"/></g></g></g><path class="cls-68" d="M196.09,129.67a.67.67,0,0,1,0,1.27,2.42,2.42,0,0,1-2.2,0,.67.67,0,0,1,0-1.27A2.42,2.42,0,0,1,196.09,129.67Z"/></g><g class="cls-46"><g class="cls-46"><g class="cls-71"><g class="cls-46"><path class="cls-57" d="M201,133.09l-.05,18.5h0l.05-18.5h0"/><path class="cls-58" d="M201,133.11,201,151.6a.53.53,0,0,1,0,.09l.05-18.5a.53.53,0,0,0,0-.09"/><path class="cls-59" d="M201,133.19l-.05,18.5,0,.09.05-18.5,0-.09"/><path class="cls-60" d="M201,133.28l-.05,18.5,0,.09.05-18.5,0-.09"/><path class="cls-61" d="M201,133.37l-.05,18.5-.06.09.05-18.5.06-.09"/><path class="cls-62" d="M200.9,133.46l-.05,18.5-.1.1.05-18.5.1-.1"/><path class="cls-63" d="M200.8,133.57l-.05,18.5a1.2,1.2,0,0,1-.2.15l.05-18.5a1.2,1.2,0,0,0,.2-.15"/><path class="cls-64" d="M200.6,133.71l-.05,18.5h0a1.76,1.76,0,0,1-.34.15l.05-18.5a1.76,1.76,0,0,0,.34-.15h0"/><path class="cls-63" d="M200.24,133.87l-.05,18.5-.29.07.05-18.5.29-.07"/><path class="cls-62" d="M200,133.95l-.05,18.5-.2,0,.05-18.5.2,0"/><path class="cls-61" d="M199.75,134l-.05,18.5h-.17l.05-18.5h.17"/><path class="cls-60" d="M199.58,134l-.05,18.5h-.16l.05-18.5h.16"/><path class="cls-59" d="M199.42,134l-.05,18.5h-.15l.05-18.5h.15"/><path class="cls-58" d="M199.27,134l-.05,18.5-.15,0,.05-18.5.15,0"/><path class="cls-57" d="M199.12,134l-.05,18.5-.15,0,.05-18.5.15,0"/><path class="cls-65" d="M199,133.93l-.05,18.5-.16,0,.05-18.5.16,0"/><path class="cls-66" d="M198.8,133.89l-.05,18.5-.19-.06.05-18.5.19.06"/><path class="cls-67" d="M198.61,133.83l-.05,18.5-.22-.11a.77.77,0,0,1-.46-.64l.05-18.5a.77.77,0,0,0,.46.64l.22.11"/></g></g></g><path class="cls-68" d="M200.58,132.45a.67.67,0,0,1,0,1.27,2.42,2.42,0,0,1-2.2,0,.67.67,0,0,1,0-1.27A2.42,2.42,0,0,1,200.58,132.45Z"/></g><g class="cls-46"><g class="cls-46"><g class="cls-72"><g class="cls-46"><path class="cls-57" d="M205.52,135.87l-.05,18.5h0l.05-18.5h0"/><path class="cls-58" d="M205.52,135.88l-.05,18.5a.53.53,0,0,1,0,.09l.05-18.5a.53.53,0,0,0,0-.09"/><path class="cls-59" d="M205.51,136l-.05,18.5,0,.09.05-18.5,0-.09"/><path class="cls-60" d="M205.49,136.06l-.05,18.5,0,.09.05-18.5,0-.09"/><path class="cls-61" d="M205.45,136.15l-.05,18.5-.06.09.05-18.5.06-.09"/><path class="cls-62" d="M205.38,136.24l-.05,18.5-.1.1.05-18.5.1-.1"/><path class="cls-63" d="M205.29,136.34l-.05,18.5a1.2,1.2,0,0,1-.2.15l.05-18.5a1.2,1.2,0,0,0,.2-.15"/><path class="cls-64" d="M205.09,136.49,205,155h0a1.76,1.76,0,0,1-.34.15l.05-18.5a1.76,1.76,0,0,0,.34-.15h0"/><path class="cls-63" d="M204.73,136.65l-.05,18.5-.29.07.05-18.5.29-.07"/><path class="cls-62" d="M204.44,136.72l-.05,18.5-.2,0,.05-18.5.2,0"/><path class="cls-61" d="M204.24,136.75l-.05,18.5H204l.05-18.5h.17"/><path class="cls-60" d="M204.07,136.76l-.05,18.5h-.16l.05-18.5h.16"/><path class="cls-59" d="M203.91,136.76l-.05,18.5h-.15l.05-18.5h.15"/><path class="cls-58" d="M203.76,136.75l-.05,18.5-.15,0,.05-18.5.15,0"/><path class="cls-57" d="M203.61,136.74l-.05,18.5-.15,0,.05-18.5.15,0"/><path class="cls-65" d="M203.45,136.71l-.05,18.5-.16,0,.05-18.5.16,0"/><path class="cls-66" d="M203.29,136.67l-.05,18.5-.19-.06.05-18.5.19.06"/><path class="cls-67" d="M203.1,136.61l-.05,18.5-.22-.11a.77.77,0,0,1-.46-.64l.05-18.5a.77.77,0,0,0,.46.64l.22.11"/></g></g></g><path class="cls-68" d="M205.06,135.23a.67.67,0,0,1,0,1.27,2.42,2.42,0,0,1-2.2,0,.67.67,0,0,1,0-1.27A2.42,2.42,0,0,1,205.06,135.23Z"/></g><g class="cls-46"><g class="cls-46"><g class="cls-73"><g class="cls-46"><path class="cls-57" d="M210,138.65l-.05,18.5h0l.05-18.5h0"/><path class="cls-58" d="M210,138.66l-.05,18.5a.53.53,0,0,1,0,.09l.05-18.5a.53.53,0,0,0,0-.09"/><path class="cls-59" d="M210,138.75l-.05,18.5,0,.09.05-18.5,0-.09"/><path class="cls-60" d="M210,138.84l-.05,18.5,0,.09.05-18.5,0-.09"/><path class="cls-61" d="M209.93,138.92l-.05,18.5-.06.09.05-18.5.06-.09"/><path class="cls-62" d="M209.87,139l-.05,18.5-.1.1.05-18.5.1-.1"/><path class="cls-63" d="M209.77,139.12l-.05,18.5a1.2,1.2,0,0,1-.2.15l.05-18.5a1.2,1.2,0,0,0,.2-.15"/><path class="cls-64" d="M209.58,139.27l-.05,18.5h0a1.76,1.76,0,0,1-.34.15l.05-18.5a1.76,1.76,0,0,0,.34-.15h0"/><path class="cls-63" d="M209.22,139.43l-.05,18.5-.29.07.05-18.5.29-.07"/><path class="cls-62" d="M208.92,139.5l-.05,18.5-.2,0,.05-18.5.2,0"/><path class="cls-61" d="M208.73,139.53l-.05,18.5h-.17l.05-18.5h.17"/><path class="cls-60" d="M208.55,139.54,208.5,158h-.16l.05-18.5h.16"/><path class="cls-59" d="M208.4,139.54l-.05,18.5h-.15l.05-18.5h.15"/><path class="cls-58" d="M208.24,139.53l-.05,18.5-.15,0,.05-18.5.15,0"/><path class="cls-57" d="M208.09,139.52,208,158l-.15,0,.05-18.5.15,0"/><path class="cls-65" d="M207.94,139.49l-.05,18.5-.16,0,.05-18.5.16,0"/><path class="cls-66" d="M207.78,139.45l-.05,18.5-.19-.06.05-18.5.19.06"/><path class="cls-67" d="M207.59,139.39l-.05,18.5-.22-.11a.77.77,0,0,1-.46-.64l.05-18.5a.77.77,0,0,0,.46.64l.22.11"/></g></g></g><path class="cls-68" d="M209.55,138a.67.67,0,0,1,0,1.27,2.42,2.42,0,0,1-2.2,0,.67.67,0,0,1,0-1.27A2.42,2.42,0,0,1,209.55,138Z"/></g><g class="cls-46"><g class="cls-46"><g class="cls-74"><g class="cls-46"><path class="cls-57" d="M214.5,141.42l-.05,18.5h0l.05-18.5h0"/><path class="cls-58" d="M214.5,141.44l-.05,18.5a.53.53,0,0,1,0,.09l.05-18.5a.53.53,0,0,0,0-.09"/><path class="cls-59" d="M214.49,141.53l-.05,18.5,0,.09.05-18.5,0-.09"/><path class="cls-60" d="M214.46,141.61l-.05,18.5,0,.09.05-18.5,0-.09"/><path class="cls-61" d="M214.42,141.7l-.05,18.5-.06.09.05-18.5.06-.09"/><path class="cls-62" d="M214.36,141.79l-.05,18.5-.1.1.05-18.5.1-.1"/><path class="cls-63" d="M214.26,141.9l-.05,18.5a1.2,1.2,0,0,1-.2.15l.05-18.5a1.2,1.2,0,0,0,.2-.15"/><path class="cls-64" d="M214.06,142l-.05,18.5h0a1.76,1.76,0,0,1-.34.15l.05-18.5a1.76,1.76,0,0,0,.34-.15h0"/><path class="cls-63" d="M213.7,142.2l-.05,18.5-.29.07.05-18.5.29-.07"/><path class="cls-62" d="M213.41,142.28l-.05,18.5-.2,0,.05-18.5.2,0"/><path class="cls-61" d="M213.21,142.31l-.05,18.5H213l.05-18.5h.17"/><path class="cls-60" d="M213,142.32l-.05,18.5h-.16l.05-18.5H213"/><path class="cls-59" d="M212.88,142.32l-.05,18.5h-.15l.05-18.5h.15"/><path class="cls-58" d="M212.73,142.31l-.05,18.5-.15,0,.05-18.5.15,0"/><path class="cls-57" d="M212.58,142.29l-.05,18.5-.15,0,.05-18.5.15,0"/><path class="cls-65" d="M212.42,142.27l-.05,18.5-.16,0,.05-18.5.16,0"/><path class="cls-66" d="M212.26,142.23l-.05,18.5-.19-.06.05-18.5.19.06"/><path class="cls-67" d="M212.07,142.16l-.05,18.5-.22-.11a.77.77,0,0,1-.46-.64l.05-18.5a.77.77,0,0,0,.46.64l.22.11"/></g></g></g><path class="cls-68" d="M214,140.78a.67.67,0,0,1,0,1.27,2.42,2.42,0,0,1-2.2,0,.67.67,0,0,1,0-1.27A2.42,2.42,0,0,1,214,140.78Z"/></g><g class="cls-46"><g class="cls-46"><g class="cls-75"><g class="cls-46"><path class="cls-57" d="M219,144.2l-.05,18.5h0l.05-18.5h0"/><path class="cls-58" d="M219,144.21l-.05,18.5a.53.53,0,0,1,0,.09l.05-18.5a.53.53,0,0,0,0-.09"/><path class="cls-59" d="M219,144.3l-.05,18.5,0,.09.05-18.5,0-.09"/><path class="cls-60" d="M218.95,144.39l-.05,18.5,0,.09.05-18.5,0-.09"/><path class="cls-61" d="M218.9,144.48l-.05,18.5-.06.09.05-18.5.06-.09"/><path class="cls-62" d="M218.84,144.57l-.05,18.5-.1.1.05-18.5.1-.1"/><path class="cls-63" d="M218.75,144.68l-.05,18.5a1.2,1.2,0,0,1-.2.15l.05-18.5a1.2,1.2,0,0,0,.2-.15"/><path class="cls-64" d="M218.55,144.82l-.05,18.5h0a1.76,1.76,0,0,1-.34.15l.05-18.5a1.76,1.76,0,0,0,.34-.15h0"/><path class="cls-63" d="M218.19,145l-.05,18.5-.29.07.05-18.5.29-.07"/><path class="cls-62" d="M217.9,145.05l-.05,18.5-.2,0,.05-18.5.2,0"/><path class="cls-61" d="M217.7,145.08l-.05,18.5h-.17l.05-18.5h.17"/><path class="cls-60" d="M217.53,145.09l-.05,18.5h-.16l.05-18.5h.16"/><path class="cls-59" d="M217.37,145.09l-.05,18.5h-.15l.05-18.5h.15"/><path class="cls-58" d="M217.21,145.09l-.05,18.5-.15,0,.05-18.5.15,0"/><path class="cls-57" d="M217.06,145.07l-.05,18.5-.15,0,.05-18.5.15,0"/><path class="cls-65" d="M216.91,145l-.05,18.5-.16,0,.05-18.5.16,0"/><path class="cls-66" d="M216.75,145l-.05,18.5-.19-.06.05-18.5.19.06"/><path class="cls-67" d="M216.56,144.94l-.05,18.5-.22-.11a.77.77,0,0,1-.46-.64l.05-18.5a.77.77,0,0,0,.46.64l.22.11"/></g></g></g><path class="cls-68" d="M218.52,143.56a.67.67,0,0,1,0,1.27,2.42,2.42,0,0,1-2.2,0,.67.67,0,0,1,0-1.27A2.42,2.42,0,0,1,218.52,143.56Z"/></g><g class="cls-46"><g class="cls-46"><g class="cls-76"><g class="cls-46"><path class="cls-57" d="M223.47,147l-.05,18.5h0l.05-18.5h0"/><path class="cls-58" d="M223.47,147l-.05,18.5a.53.53,0,0,1,0,.09l.05-18.5a.53.53,0,0,0,0-.09"/><path class="cls-59" d="M223.46,147.08l-.05,18.5,0,.09.05-18.5,0-.09"/><path class="cls-60" d="M223.43,147.17l-.05,18.5,0,.09.05-18.5,0-.09"/><path class="cls-61" d="M223.39,147.26l-.05,18.5-.06.09.05-18.5.06-.09"/><path class="cls-62" d="M223.33,147.35l-.05,18.5-.1.1.05-18.5.1-.1"/><path class="cls-63" d="M223.23,147.45l-.05,18.5a1.2,1.2,0,0,1-.2.15l.05-18.5a1.2,1.2,0,0,0,.2-.15"/><path class="cls-64" d="M223,147.6,223,166.1h0a1.76,1.76,0,0,1-.34.15l.05-18.5a1.76,1.76,0,0,0,.34-.15h0"/><path class="cls-63" d="M222.68,147.76l-.05,18.5-.29.07.05-18.5.29-.07"/><path class="cls-62" d="M222.38,147.83l-.05,18.5-.2,0,.05-18.5.2,0"/><path class="cls-61" d="M222.18,147.86l-.05,18.5H222l.05-18.5h.17"/><path class="cls-60" d="M222,147.87l-.05,18.5h-.16l.05-18.5H222"/><path class="cls-59" d="M221.85,147.87l-.05,18.5h-.15l.05-18.5h.15"/><path class="cls-58" d="M221.7,147.86l-.05,18.5-.15,0,.05-18.5.15,0"/><path class="cls-57" d="M221.55,147.85l-.05,18.5-.15,0,.05-18.5.15,0"/><path class="cls-65" d="M221.4,147.82l-.05,18.5-.16,0,.05-18.5.16,0"/><path class="cls-66" d="M221.23,147.78l-.05,18.5-.19-.06.05-18.5.19.06"/><path class="cls-67" d="M221,147.72l-.05,18.5-.22-.11a.77.77,0,0,1-.46-.64l.05-18.5a.77.77,0,0,0,.46.64l.22.11"/></g></g></g><path class="cls-68" d="M223,146.34a.67.67,0,0,1,0,1.27,2.42,2.42,0,0,1-2.2,0,.67.67,0,0,1,0-1.27A2.42,2.42,0,0,1,223,146.34Z"/></g><polygon class="cls-53" points="212.88 180.97 180.11 160.57 188.12 147.35 222.15 167.43 212.88 180.97"/><polygon class="cls-53" points="196.75 163.7 196.74 170.41 190.9 167.04 190.92 160.34 196.75 163.7"/><polyline class="cls-54" points="196.74 170.41 196.75 163.7 203.73 159.65"/><polyline class="cls-55" points="218.52 169.52 219.23 176.19 212.75 180.97"/><polygon class="cls-55" points="190.92 160.34 197.89 156.28 203.73 159.65 196.75 163.7 190.92 160.34"/><polygon class="cls-53" points="216.25 173.53 216.22 183.29 213.07 181.47 213.1 171.71 216.25 173.53"/><polygon class="cls-77" points="216.28 173.39 261.37 145.79 261.38 146.9 261.38 152.41 216.25 183.15 216.28 173.39"/><polygon class="cls-55" points="212.95 171.71 258.29 143.98 261.22 145.94 216.11 173.53 212.95 171.71"/><g class="cls-46"><polygon class="cls-68" points="230.94 143.59 227.86 145.38 224.76 143.59 227.84 141.81 230.94 143.59"/><polygon class="cls-54" points="230.94 143.59 230.88 164.24 227.81 166.03 227.86 145.38 230.94 143.59"/><polygon class="cls-53" points="227.86 145.38 227.81 166.03 224.7 164.24 224.76 143.59 227.86 145.38"/></g><g class="cls-46"><polygon class="cls-68" points="238.09 139.41 235.01 141.2 231.91 139.41 234.99 137.62 238.09 139.41"/><polygon class="cls-54" points="238.09 139.41 238.03 160.06 234.95 161.84 235.01 141.2 238.09 139.41"/><polygon class="cls-53" points="235.01 141.2 234.95 161.84 231.85 160.05 231.91 139.41 235.01 141.2"/></g><g class="cls-46"><polygon class="cls-68" points="245.24 135.22 242.16 137.01 239.06 135.22 242.14 133.43 245.24 135.22"/><polygon class="cls-54" points="245.24 135.22 245.18 155.87 242.1 157.66 242.16 137.01 245.24 135.22"/><polygon class="cls-53" points="242.16 137.01 242.1 157.66 239 155.87 239.06 135.22 242.16 137.01"/></g><g class="cls-46"><polygon class="cls-68" points="252.39 131.03 249.31 132.82 246.21 131.03 249.29 129.25 252.39 131.03"/><polygon class="cls-54" points="252.39 131.03 252.33 151.68 249.25 153.47 249.31 132.82 252.39 131.03"/><polygon class="cls-53" points="249.31 132.82 249.25 153.47 246.15 151.68 246.21 131.03 249.31 132.82"/></g><g class="cls-46"><polygon class="cls-68" points="259.27 126.58 256.19 128.37 253.09 126.58 256.16 124.79 259.27 126.58"/><polygon class="cls-54" points="259.27 126.58 259.21 147.22 256.13 149.01 256.19 128.37 259.27 126.58"/><polygon class="cls-53" points="256.19 128.37 256.13 149.01 253.03 147.22 253.09 126.58 256.19 128.37"/></g><path class="cls-78" d="M196.58,130.32a.59.59,0,0,1-.11.33h0a1,1,0,0,1-.33.29,1.86,1.86,0,0,1-.48.18l-.07,0a2.55,2.55,0,0,1-.54.06h0a2.57,2.57,0,0,1-.56-.06h0a1.89,1.89,0,0,1-.5-.19.77.77,0,0,1-.46-.64l-.05,18.5a.77.77,0,0,0,.46.64l.22.11.19.06.09,0h.07l.15,0,.15,0h.48l.2,0,.08,0,.07,0,.13,0a1.75,1.75,0,0,0,.34-.15h0a1.22,1.22,0,0,0,.2-.15l.1-.1,0,0h0l0-.05,0-.09,0-.09a.55.55,0,0,0,0-.09h0Z"/><path class="cls-79" d="M201,133.09a.59.59,0,0,1-.11.33h0a1,1,0,0,1-.33.29,1.86,1.86,0,0,1-.48.18l-.07,0a2.55,2.55,0,0,1-.54.06h0a2.57,2.57,0,0,1-.56-.06h0a1.89,1.89,0,0,1-.5-.19.77.77,0,0,1-.46-.64l-.05,18.5a.77.77,0,0,0,.46.64l.22.11.19.06.09,0h.07l.15,0,.15,0h.48l.2,0,.08,0,.07,0,.13,0a1.75,1.75,0,0,0,.34-.15h0a1.22,1.22,0,0,0,.2-.15l.1-.1,0,0h0l0-.05,0-.09,0-.09a.55.55,0,0,0,0-.09h0Z"/><path class="cls-80" d="M205.55,135.87a.59.59,0,0,1-.11.33h0a1,1,0,0,1-.33.29,1.86,1.86,0,0,1-.48.18l-.07,0a2.55,2.55,0,0,1-.54.06h0a2.57,2.57,0,0,1-.56-.06h0a1.89,1.89,0,0,1-.5-.19.77.77,0,0,1-.46-.64l-.05,18.5a.77.77,0,0,0,.46.64l.22.11.19.06.09,0h.07l.15,0,.15,0h.48l.2,0,.08,0,.07,0,.13,0A1.75,1.75,0,0,0,205,155h0a1.22,1.22,0,0,0,.2-.15l.1-.1,0,0h0l0-.05,0-.09,0-.09a.55.55,0,0,0,0-.09h0Z"/><path class="cls-81" d="M210,138.65a.59.59,0,0,1-.11.33h0a1,1,0,0,1-.33.29,1.86,1.86,0,0,1-.48.18l-.07,0a2.55,2.55,0,0,1-.54.06h0a2.57,2.57,0,0,1-.56-.06h0a1.89,1.89,0,0,1-.5-.19.77.77,0,0,1-.46-.64l-.05,18.5a.77.77,0,0,0,.46.64l.22.11.19.06.09,0h.07l.15,0,.15,0h.48l.2,0,.08,0,.07,0,.13,0a1.75,1.75,0,0,0,.34-.15h0a1.22,1.22,0,0,0,.2-.15l.1-.1,0,0h0l0-.05,0-.09,0-.09a.55.55,0,0,0,0-.09h0Z"/><path class="cls-82" d="M214.51,141.42a.59.59,0,0,1-.11.33h0a1,1,0,0,1-.33.29,1.86,1.86,0,0,1-.48.18l-.07,0a2.55,2.55,0,0,1-.54.06h0a2.57,2.57,0,0,1-.56-.06h0a1.89,1.89,0,0,1-.5-.19.77.77,0,0,1-.46-.64l-.05,18.5a.77.77,0,0,0,.46.64l.22.11.19.06.09,0h.07l.15,0,.15,0h.48l.2,0,.08,0,.07,0,.13,0a1.75,1.75,0,0,0,.34-.15h0a1.22,1.22,0,0,0,.2-.15l.1-.1,0,0h0l0-.05,0-.09,0-.09a.55.55,0,0,0,0-.09h0Z"/><path class="cls-83" d="M219,144.2a.59.59,0,0,1-.11.33h0a1,1,0,0,1-.33.29,1.86,1.86,0,0,1-.48.18l-.07,0a2.55,2.55,0,0,1-.54.06h0a2.57,2.57,0,0,1-.56-.06h0a1.89,1.89,0,0,1-.5-.19.77.77,0,0,1-.46-.64l-.05,18.5a.77.77,0,0,0,.46.64l.22.11.19.06.09,0h.07l.15,0,.15,0h.48l.2,0,.08,0,.07,0,.13,0a1.75,1.75,0,0,0,.34-.15h0a1.22,1.22,0,0,0,.2-.15l.1-.1,0,0h0l0-.05,0-.09,0-.09a.55.55,0,0,0,0-.09h0Z"/><path class="cls-84" d="M223.47,147a.59.59,0,0,1-.11.33h0a1,1,0,0,1-.33.29,1.86,1.86,0,0,1-.48.18l-.07,0a2.55,2.55,0,0,1-.54.06h0a2.57,2.57,0,0,1-.56-.06h0a1.89,1.89,0,0,1-.5-.19.77.77,0,0,1-.46-.64l-.05,18.5a.77.77,0,0,0,.46.64l.22.11.19.06.09,0h.07l.15,0,.15,0h.48l.2,0,.08,0,.07,0,.13,0a1.75,1.75,0,0,0,.34-.15h0a1.22,1.22,0,0,0,.2-.15l.1-.1,0,0h0l0-.05,0-.09,0-.09a.55.55,0,0,0,0-.09h0Z"/><polygon class="cls-55" points="261.41 118.89 261.43 125.45 221.35 148.59 221.34 142.03 261.41 118.89"/><polygon class="cls-53" points="221.35 148.59 186.12 128.11 186.1 121.55 221.34 142.03 221.35 148.59"/><polygon class="cls-53" points="221.34 142.03 186.1 121.55 226.17 98.41 261.41 118.89 221.34 142.03"/><polygon class="cls-55" points="180.3 120.8 222.59 96.22 243.77 87.97 201.48 112.54 180.3 120.8"/><polygon class="cls-85" points="201.48 112.54 222.55 145.19 180.3 120.8 201.48 112.54"/><polygon class="cls-77" points="201.48 112.54 243.77 87.97 264.84 120.62 222.55 145.19 201.48 112.54"/><g class="cls-46"><polygon class="cls-53" points="183.72 120.79 184.43 120.38 200.31 114.18 199.6 114.59 183.72 120.79"/><polygon class="cls-53" points="199.6 114.59 215.41 139.08 183.72 120.79 199.6 114.59"/><polygon class="cls-53" points="199.6 114.59 200.31 114.18 216.11 138.67 215.41 139.08 199.6 114.59"/></g><g class="cls-46"><g class="cls-46"><g class="cls-86"><g class="cls-46"><path class="cls-87" d="M197,124.86l1-.57a.38.38,0,0,0-.05.23,1.71,1.71,0,0,0,.37.92l-1,.57a1.71,1.71,0,0,1-.37-.92.38.38,0,0,1,.05-.23"/></g></g></g><polygon class="cls-88" points="198.68 127.75 199.66 127.18 199.66 128.13 198.68 128.7 198.68 127.75"/><g class="cls-46"><g class="cls-89"><g class="cls-46"><path class="cls-87" d="M197.31,126l1-.57a5.19,5.19,0,0,0,1,1l-1,.57a5.19,5.19,0,0,1-1-1"/></g></g></g><g class="cls-46"><g class="cls-90"><g class="cls-46"><path class="cls-87" d="M197,124.83l1-.57,0,0-1,.57,0,0"/></g></g></g><g class="cls-46"><g class="cls-91"><g class="cls-46"><path class="cls-87" d="M198.68,127.31l1-.57.5.32a3.14,3.14,0,0,0,.48.24l-1,.57a3.14,3.14,0,0,1-.48-.24l-.5-.32"/></g></g></g><polygon class="cls-88" points="200.04 128.44 201.02 127.87 201.01 128.91 200.03 129.48 200.04 128.44"/><g class="cls-46"><g class="cls-92"><g class="cls-46"><path class="cls-87" d="M196.53,123.08l1-.57a.59.59,0,0,1,.61.05,1.26,1.26,0,0,1,.44.46l-1,.57a1.26,1.26,0,0,0-.44-.46.59.59,0,0,0-.61-.05"/></g></g></g><g class="cls-46"><g class="cls-93"><g class="cls-46"><path class="cls-87" d="M197.59,123.59l1-.57a1.17,1.17,0,0,1,.19.59.85.85,0,0,1-.07.38.32.32,0,0,1-.11.13l-1,.57a.32.32,0,0,0,.11-.13.85.85,0,0,0,.07-.38,1.17,1.17,0,0,0-.19-.59"/></g></g></g><g class="cls-46"><g class="cls-94"><g class="cls-46"><path class="cls-87" d="M200,128l1-.57a.7.7,0,0,0,.48-.06l-1,.57a.7.7,0,0,1-.48.06"/></g></g></g><g class="cls-46"><g class="cls-95"><g class="cls-46"><polyline class="cls-87" points="200.54 127.92 201.52 127.35 201.52 127.35 200.54 127.92 200.54 127.92"/></g></g></g><g class="cls-46"><g class="cls-96"><g class="cls-46"><path class="cls-87" d="M200.49,123.49l1-.57a5.43,5.43,0,0,1,1.33,3.32,1.8,1.8,0,0,1-.49,1.47l-1,.57a1.8,1.8,0,0,0,.49-1.47,5.43,5.43,0,0,0-1.33-3.32"/></g></g></g><g class="cls-46"><g class="cls-97"><g class="cls-46"><path class="cls-87" d="M201.34,128.28l1-.57-.1.07-1,.57.1-.07"/></g></g></g><polygon class="cls-88" points="198.69 123.49 199.67 122.92 199.66 126.74 198.68 127.31 198.69 123.49"/><polygon class="cls-88" points="200.04 125.24 201.03 124.67 201.02 127.42 200.04 127.99 200.04 125.24"/><polygon class="cls-98" points="198.7 121.18 199.68 120.61 200.65 121.86 199.67 122.44 198.7 121.18"/><polygon class="cls-98" points="200.05 122.92 201.03 122.35 201.47 122.92 200.5 123.49 200.05 122.92"/><g class="cls-46"><g class="cls-99"><g class="cls-46"><path class="cls-87" d="M197.69,118.2l1-.57a.78.78,0,0,0-.23.63,3.25,3.25,0,0,0,.86,1.85l-1,.57a3.25,3.25,0,0,1-.86-1.85.78.78,0,0,1,.23-.63"/></g></g></g><g class="cls-46"><g class="cls-100"><g class="cls-46"><path class="cls-87" d="M197.8,118.12l1-.57-.11.08-1,.57.11-.08"/></g></g></g><g class="cls-46"><g class="cls-101"><g class="cls-46"><path class="cls-87" d="M197.09,117.63l1-.57a1.54,1.54,0,0,1,1.23-.07l-1,.57a1.54,1.54,0,0,0-1.23.07"/></g></g></g><polygon class="cls-88" points="198.71 118.13 199.69 117.56 199.68 120.61 198.7 121.18 198.71 118.13"/><polygon class="cls-88" points="200.06 118.97 201.04 118.4 201.03 122.35 200.05 122.92 200.06 118.97"/><g class="cls-46"><g class="cls-102"><g class="cls-46"><path class="cls-87" d="M200.54,121.17l1-.57a.44.44,0,0,1,.26-.06l-1,.57a.44.44,0,0,0-.26.06"/></g></g></g><g class="cls-46"><g class="cls-103"><g class="cls-46"><path class="cls-87" d="M200.8,121.11l1-.57H202l-1,.57h-.25"/></g></g></g><polygon class="cls-104" points="201.05 121.1 202.03 120.53 202.18 120.46 201.2 121.03 201.05 121.1"/><polygon class="cls-105" points="198.33 116.51 199.31 115.94 199.69 116.16 198.71 116.73 198.33 116.51"/><polygon class="cls-88" points="198.71 116.73 199.69 116.16 199.69 117.13 198.71 117.7 198.71 116.73"/><g class="cls-46"><g class="cls-106"><g class="cls-46"><path class="cls-87" d="M198.71,117.7l1-.57a4.52,4.52,0,0,1,.53.27l.44.28-1,.57-.44-.28a4.52,4.52,0,0,0-.53-.27"/></g></g></g><g class="cls-46"><g class="cls-107"><g class="cls-46"><path class="cls-87" d="M200.06,118.53l1-.57a5.69,5.69,0,0,1,1.3,1.47,3.22,3.22,0,0,1,.5,1.68,1.42,1.42,0,0,1-.24.88.51.51,0,0,1-.15.14l-1,.57a.51.51,0,0,0,.15-.14,1.42,1.42,0,0,0,.24-.88,3.22,3.22,0,0,0-.5-1.68,5.69,5.69,0,0,0-1.3-1.47"/></g></g></g><polygon class="cls-88" points="200.07 117.51 201.05 116.94 201.04 117.96 200.06 118.53 200.07 117.51"/><polygon class="cls-105" points="199.69 117.29 200.67 116.72 201.05 116.94 200.07 117.51 199.69 117.29"/><path class="cls-108" d="M200.49,123.49a5.43,5.43,0,0,1,1.33,3.32,1.8,1.8,0,0,1-.49,1.47,1.46,1.46,0,0,1-1.3.16v1l-.38-.22v-1a5.2,5.2,0,0,1-.48-.24,5.12,5.12,0,0,1-.5-.32v.95l-.38-.22v-1a6.53,6.53,0,0,1-.79-.72,6.25,6.25,0,0,1-.66-.82,4,4,0,0,1-.47-1,3.29,3.29,0,0,1-.17-1.06.88.88,0,0,1,.28-.77.57.57,0,0,1,.66,0,1.26,1.26,0,0,1,.44.46,1.17,1.17,0,0,1,.19.59.85.85,0,0,1-.07.38.27.27,0,0,1-.16.15,1.35,1.35,0,0,1-.28.07.41.41,0,0,0-.27.08.38.38,0,0,0-.05.23,1.71,1.71,0,0,0,.37.92,5.19,5.19,0,0,0,1,1v-4l-.66-.85a5,5,0,0,1-1.14-3,1.65,1.65,0,0,1,.51-1.43,1.49,1.49,0,0,1,1.31-.11v-1.06l.38.22v1a4.52,4.52,0,0,1,.53.27l.44.28v-.95l.38.22v1a5.69,5.69,0,0,1,1.3,1.47,3.22,3.22,0,0,1,.5,1.68,1.42,1.42,0,0,1-.24.88.42.42,0,0,1-.61.1,1.36,1.36,0,0,1-.49-.47,1.15,1.15,0,0,1-.19-.61.5.5,0,0,1,.13-.37.46.46,0,0,1,.33-.11h.25l.14-.07.06-.21a1.74,1.74,0,0,0-.33-.86,4.42,4.42,0,0,0-.87-1v3.95Zm-.84,4.37v-3.11l-1-1.26v3.82l.5.32a3.14,3.14,0,0,0,.48.24m0-5.43v-3.76c-.15-.11-.32-.22-.49-.31a4.39,4.39,0,0,0-.49-.24v3.05l1,1.26m1.14,5.18a1.26,1.26,0,0,0,.07-.42,2.11,2.11,0,0,0-.09-.61,2.63,2.63,0,0,0-.23-.56q-.15-.25-.27-.43l-.26-.35V128a.68.68,0,0,0,.5-.07.65.65,0,0,0,.28-.31m-2.5-6.92V118a.71.71,0,0,0-.63.16.78.78,0,0,0-.23.63,3.25,3.25,0,0,0,.86,1.85"/></g></g></svg>