<svg xmlns="http://www.w3.org/2000/svg" xmlns:xlink="http://www.w3.org/1999/xlink" viewBox="0 0 461.08 357.78"><defs><style>.cls-1{fill:url(#linear-gradient);}.cls-2{fill:none;}.cls-3{fill:url(#linear-gradient-2);}.cls-37,.cls-4,.cls-67{fill:#5c515f;}.cls-4{opacity:0.6;}.cls-5{fill:#c691be;}.cls-6{fill:#997093;}.cls-7{fill:#abba58;}.cls-8{fill:#7e8940;}.cls-9{fill:#71c9c9;}.cls-10{fill:#61aaa8;}.cls-11{fill:#bca493;}.cls-12{fill:#79d7db;}.cls-13{fill:#b0eaea;}.cls-14{fill:#c9afa1;}.cls-15{fill:#d8bdab;}.cls-16{fill:url(#linear-gradient-3);}.cls-17{fill:url(#linear-gradient-4);}.cls-18{fill:url(#linear-gradient-5);}.cls-19{fill:url(#linear-gradient-6);}.cls-20{fill:url(#linear-gradient-7);}.cls-21{fill:url(#linear-gradient-8);}.cls-22{fill:url(#linear-gradient-9);}.cls-23{fill:url(#linear-gradient-10);}.cls-24{isolation:isolate;}.cls-25{clip-path:url(#clip-path);}.cls-26{fill:#afad87;}.cls-27{fill:#fff;}.cls-27,.cls-38{opacity:0.8;}.cls-28{fill:#ad7da4;}.cls-29{fill:#f4e8f9;}.cls-30{fill:#dcd1e5;}.cls-31{fill:#92a34b;}.cls-32{fill:#d3be90;}.cls-33{fill:#67b7b7;}.cls-34{fill:#93734c;}.cls-35{fill:#99ad63;}.cls-36{fill:#7d8950;}.cls-37{opacity:0.4;}.cls-38{fill:#798473;}.cls-39{fill:#997650;}.cls-40{fill:#684f38;}.cls-41{fill:#c6976a;}.cls-42{fill:#9ee5e3;}.cls-43{fill:#aea5b7;}.cls-44{fill:#786b7c;}.cls-45{fill:#edd4b9;}.cls-46{fill:#aeba83;}.cls-47{fill:#c4d193;}.cls-48{fill:#c6a283;}.cls-49{fill:#ad8c74;}.cls-50{clip-path:url(#clip-path-2);}.cls-51{fill:#9e806c;}.cls-52{clip-path:url(#clip-path-3);}.cls-53{clip-path:url(#clip-path-4);}.cls-54{clip-path:url(#clip-path-5);}.cls-55{fill:url(#linear-gradient-13);}.cls-56{fill:url(#linear-gradient-14);}.cls-57{fill:url(#linear-gradient-15);}.cls-58{fill:url(#linear-gradient-16);}.cls-59{fill:url(#linear-gradient-17);}.cls-60{fill:url(#linear-gradient-18);}.cls-61{fill:url(#linear-gradient-19);}.cls-62{fill:url(#linear-gradient-20);}.cls-63{clip-path:url(#clip-path-6);}.cls-64{fill:#ccc;}.cls-65{fill:#b5b5b5;}.cls-66{fill:#727272;}.cls-68{fill:#a79caf;}.cls-69{fill:#87798c;}.cls-70{fill:#6c6170;}.cls-71{fill:#bdb3c6;}</style><linearGradient id="linear-gradient" x1="78.08" y1="181.41" x2="93.81" y2="181.41" gradientUnits="userSpaceOnUse"><stop offset="0" stop-color="#8c7d91"/><stop offset="1" stop-color="#5c515f"/></linearGradient><linearGradient id="linear-gradient-2" x1="193.38" y1="248.24" x2="209.11" y2="248.24" xlink:href="#linear-gradient"/><linearGradient id="linear-gradient-3" x1="83.39" y1="163.18" x2="81.96" y2="179.66" gradientTransform="translate(3.22 -14.24) rotate(0.22)" gradientUnits="userSpaceOnUse"><stop offset="0" stop-color="#9eefef"/><stop offset="0.03" stop-color="#9deded" stop-opacity="0.93"/><stop offset="0.17" stop-color="#99e4e5" stop-opacity="0.65"/><stop offset="0.31" stop-color="#95ddde" stop-opacity="0.42"/><stop offset="0.43" stop-color="#93d7d9" stop-opacity="0.24"/><stop offset="0.54" stop-color="#91d3d5" stop-opacity="0.11"/><stop offset="0.63" stop-color="#8fd1d3" stop-opacity="0.03"/><stop offset="0.7" stop-color="#8fd0d2" stop-opacity="0"/></linearGradient><linearGradient id="linear-gradient-4" x1="107.05" y1="214.93" x2="106.21" y2="224.61" xlink:href="#linear-gradient-3"/><linearGradient id="linear-gradient-5" x1="66" y1="190.23" x2="64.88" y2="203.21" xlink:href="#linear-gradient-3"/><linearGradient id="linear-gradient-6" x1="42.21" y1="180.1" x2="41.37" y2="189.77" xlink:href="#linear-gradient-3"/><linearGradient id="linear-gradient-7" x1="102.88" y1="185.11" x2="102.04" y2="194.79" xlink:href="#linear-gradient-3"/><linearGradient id="linear-gradient-8" x1="124.3" y1="169" x2="123.46" y2="178.67" xlink:href="#linear-gradient-3"/><linearGradient id="linear-gradient-9" x1="131.11" y1="194.28" x2="130.18" y2="205.07" xlink:href="#linear-gradient-3"/><linearGradient id="linear-gradient-10" x1="78.08" y1="180.8" x2="93.81" y2="180.8" gradientUnits="userSpaceOnUse"><stop offset="0" stop-color="#8c9591"/><stop offset="1" stop-color="#5c575f"/></linearGradient><clipPath id="clip-path"><path class="cls-1" d="M93.81,185.62h0a1.16,1.16,0,0,1-1.37,1.14c-2.2-.42-6.55-1.41-9.23-3.05a13.13,13.13,0,0,1-4.69-5.29,4.19,4.19,0,0,1-.44-1.87V176a13.4,13.4,0,0,0,5.13,6.28C86.86,184.55,93.6,185.58,93.81,185.62Z"/></clipPath><clipPath id="clip-path-2"><path class="cls-2" d="M282,230.14a57,57,0,0,0-.92-7.57h0c-.06-.27-.11-.52-.17-.74-.54-2-1.15-3.65-1.15-3.65a.52.52,0,0,0-.36,0l.08,0-.1,0h0a.54.54,0,0,0-.19,0h0c-.14,0-.26.1-.2.44a33.46,33.46,0,0,1,1.35,7c.25,3.59-.78,10.64-.25,11.46a.9.9,0,0,0,.43.36h0a1.14,1.14,0,0,0,.54.06l.3-.06a1.76,1.76,0,0,1-.3.06,1.84,1.84,0,0,0,.92-.19S282,231.45,282,230.14Z"/></clipPath><clipPath id="clip-path-3"><path class="cls-2" d="M225.82,190.19a44.14,44.14,0,0,0-.71-5.86h0c0-.21-.09-.41-.13-.57-.42-1.57-.89-2.82-.89-2.82a.4.4,0,0,0-.28,0l.07,0-.08,0h0l-.14,0h0c-.1,0-.2.08-.15.34a25.92,25.92,0,0,1,1,5.42c.19,2.78-.6,8.24-.19,8.88a.7.7,0,0,0,.33.28h0a.88.88,0,0,0,.41,0l.23,0-.23,0a1.43,1.43,0,0,0,.71-.15S225.81,191.2,225.82,190.19Z"/></clipPath><clipPath id="clip-path-4"><path class="cls-2" d="M288.69,240.85a57,57,0,0,0-.92-7.57h0c-.06-.27-.11-.52-.17-.74-.54-2-1.15-3.65-1.15-3.65a.52.52,0,0,0-.36,0l.08,0-.1,0h0a.54.54,0,0,0-.19,0h0c-.14,0-.26.1-.2.44a33.46,33.46,0,0,1,1.35,7c.25,3.59-.78,10.64-.25,11.46a.9.9,0,0,0,.43.36h0a1.14,1.14,0,0,0,.54.06l.3-.06a1.76,1.76,0,0,1-.3.06,1.84,1.84,0,0,0,.92-.19S288.68,242.16,288.69,240.85Z"/></clipPath><clipPath id="clip-path-5"><path class="cls-2" d="M280.36,246.37a62.12,62.12,0,0,0-1-8.25h0c-.06-.3-.12-.57-.18-.8-.58-2.22-1.26-4-1.26-4a.57.57,0,0,0-.39,0l.09,0-.11,0h0a.59.59,0,0,0-.2,0h0c-.15,0-.28.11-.22.48a36.48,36.48,0,0,1,1.47,7.63c.27,3.91-.85,11.6-.27,12.49a1,1,0,0,0,.47.39h0a1.25,1.25,0,0,0,.58.07l.33-.07a1.92,1.92,0,0,1-.33.07,2,2,0,0,0,1-.21S280.36,247.8,280.36,246.37Z"/></clipPath><linearGradient id="linear-gradient-13" x1="198.94" y1="229.58" x2="197.51" y2="246.05" xlink:href="#linear-gradient-3"/><linearGradient id="linear-gradient-14" x1="222.6" y1="281.32" x2="221.76" y2="291" xlink:href="#linear-gradient-3"/><linearGradient id="linear-gradient-15" x1="181.56" y1="256.63" x2="180.43" y2="269.6" xlink:href="#linear-gradient-3"/><linearGradient id="linear-gradient-16" x1="157.77" y1="246.49" x2="156.93" y2="256.16" xlink:href="#linear-gradient-3"/><linearGradient id="linear-gradient-17" x1="218.43" y1="251.5" x2="217.6" y2="261.18" xlink:href="#linear-gradient-3"/><linearGradient id="linear-gradient-18" x1="239.85" y1="235.39" x2="239.01" y2="245.07" xlink:href="#linear-gradient-3"/><linearGradient id="linear-gradient-19" x1="246.67" y1="260.67" x2="245.73" y2="271.46" xlink:href="#linear-gradient-3"/><linearGradient id="linear-gradient-20" x1="193.38" y1="247.63" x2="209.11" y2="247.63" xlink:href="#linear-gradient-10"/><clipPath id="clip-path-6"><path class="cls-3" d="M209.11,252.45h0a1.16,1.16,0,0,1-1.37,1.14c-2.2-.42-6.55-1.41-9.23-3.05a13.13,13.13,0,0,1-4.69-5.29,4.19,4.19,0,0,1-.44-1.87v-.5a13.4,13.4,0,0,0,5.13,6.28C202.16,251.38,208.9,252.42,209.11,252.45Z"/></clipPath></defs><title>logos-mega2</title><g id="Layer_16" data-name="Layer 16"><polygon class="cls-4" points="346.1 157.48 451.28 218.6 346.28 279.49 241 218.49 346.1 157.48"/><polygon class="cls-4" points="231.65 224.56 336.84 285.68 231.84 346.56 126.56 285.57 231.65 224.56"/><path class="cls-4" d="M220.88,220.48s-13.08-32.81-32.6-43.32-30-3.65-38.6-10.51-27.66-11.15-34.1-7.51-105,61.24-105,61.24l105.38,60.9Z"/><polygon class="cls-5" points="127.78 106.1 127.78 129.84 231.67 190.72 231.48 166.23 127.78 106.1"/><polygon class="cls-6" points="231.49 166.21 335.56 106.08 335.56 130.42 231.68 190.7 231.49 166.21"/><polygon class="cls-7" points="242.14 174.01 242.14 197.76 346.03 258.63 345.85 234.14 242.14 174.01"/><polygon class="cls-8" points="345.86 234.13 449.92 174 449.92 198.34 346.04 258.62 345.86 234.13"/><polygon class="cls-9" points="10.5 174.02 10.5 197.77 114.39 258.64 114.2 234.15 10.5 174.02"/><polygon class="cls-10" points="114.21 234.13 218.28 174 218.28 198.35 114.39 258.62 114.21 234.13"/><path class="cls-11" d="M120.9,132.64c2.06.55-4.06.74-4.06.74a22.43,22.43,0,0,1-8.17-6.42c-3.25-4.33.56-2.39.56-2.39A22.11,22.11,0,0,0,120.9,132.64Z"/><polygon class="cls-12" points="114.39 113.65 10.5 174.03 114.2 234.16 218.18 173.91 114.39 113.65"/><path class="cls-13" d="M98.34,123s-2.75,6,1.23,10.4,15.46,6.56,19.64,12c10.93,14.21,12,7.82,22.38,11.52,8.3,3,6.63,11.72,7.29,17s3.24,7.27,2.84,11.47-6,7.52-6.2,13.93,2.14,15.45,2.14,15.45l14.17-8.21L167.26,182l-13.4-36.22L126.55,130l-22.21-10.51Z"/><path class="cls-14" d="M101.61,121.08s-1,8.59,2.29,10.79,9.38,6,15.44,6.48,15.14,1,22.47,7.43a34.84,34.84,0,0,1,10.86,20.34c.76,5,1.77,14.08,3.79,15.88s2.25,4.13-1.15,8.52-6.68,7.67-6.68,13.61,2,8.92,2,8.92L169,187.9l-10.17-44.78-33.28-14.63-21.21-9Z"/><path class="cls-15" d="M104.34,119.49s-2.18,7.79,3.19,12.39,24.56.47,37.68,15.34,7.73,23.13,13.94,32.63-.31,9.5-4.69,16.52S150.64,213,150.64,213l67.54-39.13-103.8-60.26Z"/><path class="cls-14" d="M153.86,142.57c0,2-.64,4.16-3.87,2.76s-3.81-7.09-7.51-7.35-6.47-3.35-4.76-4.42,10.47,3,11.08,4.45S153.86,142.57,153.86,142.57Z"/><path class="cls-14" d="M167.26,182a12.54,12.54,0,0,1-4.67-5.5c-1.09-2.58-5-10.48-4.28-11.47s.3-5.49,1.15-6.24.65,4.19,2.26,8.83,1.5,7.33,3.61,7.83S167.26,182,167.26,182Z"/><path class="cls-14" d="M120.9,132.64c2.06.55-4.06.74-4.06.74a22.43,22.43,0,0,1-8.17-6.42c-3.25-4.33.56-2.39.56-2.39A22.11,22.11,0,0,0,120.9,132.64Z"/><path class="cls-14" d="M166.59,190.89c.45,1.32,0,2.39-1.18,4s-4.63,7.54-5.27,8.18c-2,2.05-3.94.47-4.72.22s2.4-1.93,4.73-4.63,3.17-3.4,3.61-5.11C164.15,192,166.15,189.57,166.59,190.89Z"/><path class="cls-16" d="M72.17,155.49s11-4.29,11.34-6.95a2.26,2.26,0,0,0-2.32-2.67s8.66-1.63,15.93,11.71S72.17,155.49,72.17,155.49Z"/><path class="cls-17" d="M101.34,204.76s6.46-2.52,6.66-4.08a1.33,1.33,0,0,0-1.36-1.57s5.09-1,9.36,6.88S101.34,204.76,101.34,204.76Z"/><path class="cls-18" d="M57.62,181.15s8.67-3.38,8.94-5.47a1.78,1.78,0,0,0-1.83-2.1s6.82-1.29,12.55,9.22S57.62,181.15,57.62,181.15Z"/><path class="cls-19" d="M36.63,169.67s6.46-2.52,6.66-4.08A1.33,1.33,0,0,0,41.93,164s5.09-1,9.36,6.88S36.63,169.67,36.63,169.67Z"/><path class="cls-20" d="M97.28,174.92s6.46-2.52,6.66-4.08a1.33,1.33,0,0,0-1.36-1.57s5.09-1,9.36,6.88S97.28,174.92,97.28,174.92Z"/><path class="cls-21" d="M118.76,158.89s6.46-2.52,6.66-4.08a1.33,1.33,0,0,0-1.36-1.57s5.09-1,9.36,6.88S118.76,158.89,118.76,158.89Z"/><path class="cls-22" d="M124.54,184.61s7.21-2.81,7.43-4.55a1.48,1.48,0,0,0-1.52-1.75s5.68-1.07,10.44,7.68S124.54,184.61,124.54,184.61Z"/><path class="cls-23" d="M79.28,176a13.4,13.4,0,0,1,6.81,1.77c3.69,2.24,7.66,7.78,7.73,7.87-.22,0-7-1.06-10.61-3.29A13.4,13.4,0,0,1,78.08,176,9.28,9.28,0,0,1,79.28,176Z"/><g class="cls-24"><path class="cls-1" d="M93.81,185.62h0a1.16,1.16,0,0,1-1.37,1.14c-2.2-.42-6.55-1.41-9.23-3.05a13.13,13.13,0,0,1-4.69-5.29,4.19,4.19,0,0,1-.44-1.87V176a13.4,13.4,0,0,0,5.13,6.28C86.86,184.55,93.6,185.58,93.81,185.62Z"/><g class="cls-25"><g class="cls-24"><path class="cls-1" d="M93.81,185.62h0a1.16,1.16,0,0,1-1.37,1.14c-2.2-.42-6.55-1.41-9.23-3.05a13,13,0,0,1-4.54-5,5.08,5.08,0,0,1-.59-2.37V176a13.4,13.4,0,0,0,5.13,6.28c3.65,2.23,10.39,3.26,10.61,3.29"/></g></g></g><path class="cls-26" d="M84.74,180.11a.16.16,0,0,1-.16-.16V163.79a.16.16,0,1,1,.32,0v16.16A.16.16,0,0,1,84.74,180.11Z"/><path class="cls-27" d="M85.21,163.79s6.1,8.65,5.43,15.25l-5.43-3.27s.92-1,0-3.48A16,16,0,0,0,85.21,163.79Z"/><polygon class="cls-6" points="127.6 105.97 231.56 166.19 335.15 106.03 232.12 43.07 127.6 105.97"/><polygon class="cls-28" points="127.6 105.97 157.94 75.39 168.85 73.71 209.37 26.82 217.03 24.18 227.59 10.45 233.4 12.29 240.8 22.86 243.7 24.44 250.83 43.07 260.6 49.79 277.5 73.82 299.42 89.14 335.15 106.03 231.56 166.19 127.6 105.97"/><polygon class="cls-6" points="209.37 26.82 211.48 40.81 214.65 40.81 223.9 73.03 226.8 54.81 223.63 43.07 228.65 32.63 217.03 24.18 209.37 26.82"/><polygon class="cls-6" points="243.7 24.44 248.11 51.53 250.83 43.07 243.7 24.44"/><polygon class="cls-6" points="260.6 49.79 265.46 75.39 263.03 79.94 272.47 93.36 296.14 99.26 277.27 76.99 274.32 69.61 260.6 49.79"/><polygon class="cls-6" points="231.38 37.98 236.3 51.53 242.21 73.03 242.21 90.73 247.27 96.08 250.83 71.46 243.7 60.01 241.1 47.1 231.38 37.98"/><polygon class="cls-6" points="193.49 56.69 186.48 77.73 193.49 99.26 168.85 73.71 157.94 75.39 172.09 93.36 185 100.51 203.83 122.02 202.35 83.4 194.97 74.53 199.4 49.79 193.49 56.69"/><polygon class="cls-29" points="197.54 40.51 211.06 37.98 213.6 34.75 219.01 42.01 228.65 32.63 232.99 27.33 238.66 35.52 245.91 37.98 246.29 31.21 243.7 24.44 240.8 22.86 233.4 12.29 227.59 10.45 217.03 24.18 209.37 26.82 197.54 40.51"/><polygon class="cls-30" points="210.78 27.69 213.51 33.59 216.14 34.64 212.67 26.85 210.78 27.69"/><polygon class="cls-30" points="233.31 13.47 234.04 24.44 239.41 30.74 237.94 22.74 233.31 13.47"/><polygon class="cls-30" points="243.7 26.85 245.1 35.27 246.29 31.21 243.7 26.85"/><polygon class="cls-30" points="216.14 29.48 218.57 39.69 218.57 32.22 216.14 29.48"/><path class="cls-31" d="M450,174S437,141.6,417.75,131.21s-29.68-3.6-38.16-10.39-27.35-11-33.71-7.42S242.14,174,242.14,174l103.71,60.13Z"/><path class="cls-32" d="M315.23,131.24a1.69,1.69,0,0,0,.26.86,14.38,14.38,0,0,0,2.27,3.1c1.24,1.24,3.53,2.14,4.64,3.08s1.34,1.9,2.83,3.09a73.07,73.07,0,0,0,5.9,4.41c1.57.95,5,3.71,9.9,4.92s14,.29,23.15,1.88,18.21,14.55,22.44,20.47c2.48,3.47,8.62,2.34,14.07,8.3,4.29,4.69,16,11.9,16,11.9l-12.16,7s-25.09-8.71-31.66-20.21-9-17.72-13.26-19.9-20.26-4.08-20.26-4.08A32,32,0,0,1,326,151.66c-6.72-4.08-17.91-16.26-17.91-16.26Z"/><path class="cls-33" d="M379.22,176c-5.27-8.68-10.63-19.79-19.1-21.48s-17.49,1.77-32.29-8.36c-13.39-9.16-14.44-13-14.52-13.69l1.62-.94s-.27,3.67,14.52,13.79,23.82,6.66,32.29,8.36,13.82,12.81,19.1,21.48c6.19,10.18,34.08,19.16,34.08,19.16l-8.63,5h0l7.12-4.12S385.41,186.18,379.22,176Z"/><path class="cls-12" d="M375.35,181.49c-6.86-9.68-8.88-16.49-13.19-20.44s-14.21-3.87-26.36-6.42-26.51-19.81-26.51-19.81l4-2.36c.08.65,1.13,4.53,14.52,13.69,14.79,10.12,23.82,6.66,32.29,8.36s13.82,12.81,19.1,21.48c6.19,10.18,34.19,19.2,34.19,19.2l-7.12,4.12C404.76,198.87,383.13,192.48,375.35,181.49Z"/><rect class="cls-34" x="355.91" y="110.95" width="0.67" height="5.33" rx="0.34" ry="0.34"/><path class="cls-35" d="M356.24,94.16s-1.72,4.88-3.36,6.48a6.59,6.59,0,0,0,1.61-.27s-1.67,4.79-3.12,5.29a2.16,2.16,0,0,0,1.9,0s-1.36,4.17-2.82,5.24l5.79,3.35Z"/><path class="cls-36" d="M356.24,94.18s1.72,4.88,3.36,6.48a6.59,6.59,0,0,1-1.61-.27s1.67,4.79,3.12,5.29a2.16,2.16,0,0,1-1.9,0s1.36,4.17,2.82,5.24l-5.79,3.35Z"/><rect class="cls-34" x="365.97" y="113.77" width="0.67" height="5.33" rx="0.34" ry="0.34"/><path class="cls-35" d="M366.31,97s-1.72,4.88-3.36,6.48a6.59,6.59,0,0,0,1.61-.27s-1.67,4.79-3.12,5.29a2.16,2.16,0,0,0,1.9,0s-1.36,4.17-2.82,5.24l5.79,3.35Z"/><path class="cls-36" d="M366.31,97s1.72,4.88,3.36,6.48a6.59,6.59,0,0,1-1.61-.27s1.67,4.79,3.12,5.29a2.16,2.16,0,0,1-1.9,0s1.36,4.17,2.82,5.24l-5.79,3.35Z"/><rect class="cls-34" x="360.19" y="116.69" width="0.67" height="5.33" rx="0.34" ry="0.34"/><path class="cls-35" d="M360.52,99.89s-1.72,4.88-3.36,6.48a6.59,6.59,0,0,0,1.61-.27s-1.67,4.79-3.12,5.29a2.16,2.16,0,0,0,1.9,0s-1.36,4.17-2.82,5.24l5.79,3.35Z"/><path class="cls-36" d="M360.52,99.91s1.72,4.88,3.36,6.48a6.59,6.59,0,0,1-1.61-.27s1.67,4.79,3.12,5.29a2.16,2.16,0,0,1-1.9,0s1.36,4.17,2.82,5.24L360.52,120Z"/><rect class="cls-34" x="347.23" y="116.69" width="0.67" height="5.33" rx="0.34" ry="0.34"/><path class="cls-35" d="M347.56,99.89s-1.72,4.88-3.36,6.48a6.59,6.59,0,0,0,1.61-.27s-1.67,4.79-3.12,5.29a2.16,2.16,0,0,0,1.9,0s-1.36,4.17-2.82,5.24l5.79,3.35Z"/><path class="cls-36" d="M347.56,99.91s1.72,4.88,3.36,6.48a6.59,6.59,0,0,1-1.61-.27s1.67,4.79,3.12,5.29a2.16,2.16,0,0,1-1.9,0s1.36,4.17,2.82,5.24L347.56,120Z"/><rect class="cls-34" x="354.4" y="125.08" width="0.67" height="5.33" rx="0.34" ry="0.34"/><path class="cls-35" d="M354.73,108.29s-1.72,4.88-3.36,6.48a6.59,6.59,0,0,0,1.61-.27s-1.67,4.79-3.12,5.29a2.16,2.16,0,0,0,1.9,0S350.4,124,348.95,125l5.79,3.35Z"/><path class="cls-36" d="M354.73,108.31s1.72,4.88,3.36,6.48a6.59,6.59,0,0,1-1.61-.27s1.67,4.79,3.12,5.29a2.16,2.16,0,0,1-1.9,0s1.36,4.17,2.82,5.24l-5.79,3.35Z"/><rect class="cls-34" x="374.65" y="121.02" width="0.67" height="5.33" rx="0.34" ry="0.34"/><path class="cls-35" d="M375,104.23s-1.72,4.88-3.36,6.48a6.59,6.59,0,0,0,1.61-.27s-1.67,4.79-3.12,5.29a2.16,2.16,0,0,0,1.9,0s-1.36,4.17-2.82,5.24l5.79,3.35Z"/><path class="cls-36" d="M375,104.25s1.72,4.88,3.36,6.48a6.59,6.59,0,0,1-1.61-.27s1.67,4.79,3.12,5.29a2.16,2.16,0,0,1-1.9,0s1.36,4.17,2.82,5.24L375,124.35Z"/><rect class="cls-34" x="367.48" y="129.42" width="0.67" height="5.33" rx="0.34" ry="0.34"/><path class="cls-35" d="M367.82,112.63s-1.72,4.88-3.36,6.48a6.59,6.59,0,0,0,1.61-.27s-1.67,4.79-3.12,5.29a2.16,2.16,0,0,0,1.9,0s-1.36,4.17-2.82,5.24l5.79,3.35Z"/><path class="cls-36" d="M367.82,112.64s1.72,4.88,3.36,6.48a6.59,6.59,0,0,1-1.61-.27s1.67,4.79,3.12,5.29a2.16,2.16,0,0,1-1.9,0s1.36,4.17,2.82,5.24l-5.79,3.35Z"/><rect class="cls-34" x="386.23" y="119.35" width="0.67" height="5.33" rx="0.34" ry="0.34"/><path class="cls-35" d="M386.56,102.56s-1.72,4.88-3.36,6.48a6.59,6.59,0,0,0,1.61-.27s-1.67,4.79-3.12,5.29a2.16,2.16,0,0,0,1.9,0s-1.36,4.17-2.82,5.24l5.79,3.35Z"/><path class="cls-36" d="M386.56,102.57s1.72,4.88,3.36,6.48a6.59,6.59,0,0,1-1.61-.27s1.67,4.79,3.12,5.29a2.16,2.16,0,0,1-1.9,0s1.36,4.17,2.82,5.24l-5.79,3.35Z"/><rect class="cls-34" x="383.33" y="127.75" width="0.67" height="5.33" rx="0.34" ry="0.34"/><path class="cls-35" d="M383.67,111s-1.72,4.88-3.36,6.48a6.59,6.59,0,0,0,1.61-.27s-1.67,4.79-3.12,5.29a2.16,2.16,0,0,0,1.9,0s-1.36,4.17-2.82,5.24l5.79,3.35Z"/><path class="cls-36" d="M383.67,111s1.72,4.88,3.36,6.48a6.59,6.59,0,0,1-1.61-.27s1.67,4.79,3.12,5.29a2.16,2.16,0,0,1-1.9,0s1.36,4.17,2.82,5.24l-5.79,3.35Z"/><rect class="cls-34" x="378.78" y="128.42" width="0.67" height="5.33" rx="0.34" ry="0.34"/><path class="cls-35" d="M379.12,111.63s-1.72,4.88-3.36,6.48a6.59,6.59,0,0,0,1.61-.27s-1.67,4.79-3.12,5.29a2.16,2.16,0,0,0,1.9,0s-1.36,4.17-2.82,5.24l5.79,3.35Z"/><path class="cls-36" d="M379.12,111.65s1.72,4.88,3.36,6.48a6.59,6.59,0,0,1-1.61-.27s1.67,4.79,3.12,5.29a2.16,2.16,0,0,1-1.9,0s1.36,4.17,2.82,5.24l-5.79,3.35Z"/><rect class="cls-34" x="392.01" y="127.43" width="0.67" height="5.33" rx="0.34" ry="0.34"/><path class="cls-35" d="M392.35,110.64s-1.72,4.88-3.36,6.48a6.59,6.59,0,0,0,1.61-.27s-1.67,4.79-3.12,5.29a2.16,2.16,0,0,0,1.9,0s-1.36,4.17-2.82,5.24l5.79,3.35Z"/><path class="cls-36" d="M392.35,110.65s1.72,4.88,3.36,6.48a6.59,6.59,0,0,1-1.61-.27s1.67,4.79,3.12,5.29a2.16,2.16,0,0,1-1.9,0s1.36,4.17,2.82,5.24l-5.79,3.35Z"/><rect class="cls-34" x="389.12" y="140.48" width="0.67" height="5.33" rx="0.34" ry="0.34"/><path class="cls-35" d="M389.46,123.69s-1.72,4.88-3.36,6.48a6.59,6.59,0,0,0,1.61-.27s-1.67,4.79-3.12,5.29a2.16,2.16,0,0,0,1.9,0s-1.36,4.17-2.82,5.24l5.79,3.35Z"/><path class="cls-36" d="M389.46,123.71s1.72,4.88,3.36,6.48a6.59,6.59,0,0,1-1.61-.27s1.67,4.79,3.12,5.29a2.16,2.16,0,0,1-1.9,0s1.36,4.17,2.82,5.24l-5.79,3.35Z"/><rect class="cls-34" x="397.8" y="129.44" width="0.67" height="5.33" rx="0.34" ry="0.34"/><path class="cls-35" d="M398.14,112.64s-1.72,4.88-3.36,6.48a6.59,6.59,0,0,0,1.61-.27s-1.67,4.79-3.12,5.29a2.16,2.16,0,0,0,1.9,0s-1.36,4.17-2.82,5.24l5.79,3.35Z"/><path class="cls-36" d="M398.14,112.66s1.72,4.88,3.36,6.48a6.59,6.59,0,0,1-1.61-.27s1.67,4.79,3.12,5.29a2.16,2.16,0,0,1-1.9,0s1.36,4.17,2.82,5.24l-5.79,3.35Z"/><rect class="cls-34" x="408.91" y="130.06" width="0.67" height="5.33" rx="0.34" ry="0.34"/><path class="cls-35" d="M409.25,113.27s-1.72,4.88-3.36,6.48a6.59,6.59,0,0,0,1.61-.27s-1.67,4.79-3.12,5.29a2.16,2.16,0,0,0,1.9,0s-1.36,4.17-2.82,5.24l5.79,3.35Z"/><path class="cls-36" d="M409.25,113.29s1.72,4.88,3.36,6.48a6.59,6.59,0,0,1-1.61-.27s1.67,4.79,3.12,5.29a2.16,2.16,0,0,1-1.9,0S413.58,129,415,130l-5.79,3.35Z"/><rect class="cls-34" x="417.36" y="132.72" width="0.5" height="4" rx="0.25" ry="0.25"/><path class="cls-35" d="M417.61,120.13s-1.29,3.66-2.52,4.86a4.94,4.94,0,0,0,1.21-.2s-1.25,3.59-2.34,4a1.62,1.62,0,0,0,1.42,0s-1,3.13-2.11,3.93l4.34,2.51Z"/><path class="cls-36" d="M417.61,120.14s1.29,3.66,2.52,4.86a4.94,4.94,0,0,1-1.21-.2s1.25,3.59,2.34,4a1.62,1.62,0,0,1-1.42,0s1,3.13,2.11,3.93l-4.34,2.51Z"/><rect class="cls-34" x="400.78" y="136.76" width="0.5" height="4" rx="0.25" ry="0.25"/><path class="cls-35" d="M401,124.17s-1.29,3.66-2.52,4.86a4.94,4.94,0,0,0,1.21-.2s-1.25,3.59-2.34,4a1.62,1.62,0,0,0,1.42,0s-1,3.13-2.11,3.93l4.34,2.51Z"/><path class="cls-36" d="M401,124.18s1.29,3.66,2.52,4.86a4.94,4.94,0,0,1-1.21-.2s1.25,3.59,2.34,4a1.62,1.62,0,0,1-1.42,0s1,3.13,2.11,3.93L401,139.26Z"/><rect class="cls-34" x="360.27" y="129.38" width="0.5" height="4" rx="0.25" ry="0.25"/><path class="cls-35" d="M360.52,116.78s-1.29,3.66-2.52,4.86a4.94,4.94,0,0,0,1.21-.2s-1.25,3.59-2.34,4a1.62,1.62,0,0,0,1.42,0s-1,3.13-2.11,3.93l4.34,2.51Z"/><path class="cls-36" d="M360.52,116.8s1.29,3.66,2.52,4.86a4.94,4.94,0,0,1-1.21-.2s1.25,3.59,2.34,4a1.62,1.62,0,0,1-1.42,0s1,3.13,2.11,3.93l-4.34,2.51Z"/><rect class="cls-34" x="341.52" y="121.09" width="0.5" height="4" rx="0.25" ry="0.25"/><path class="cls-35" d="M341.77,108.5s-1.29,3.66-2.52,4.86a4.94,4.94,0,0,0,1.21-.2s-1.25,3.59-2.34,4a1.62,1.62,0,0,0,1.42,0s-1,3.13-2.11,3.93l4.34,2.51Z"/><path class="cls-36" d="M341.77,108.51s1.29,3.66,2.52,4.86a4.94,4.94,0,0,1-1.21-.2s1.25,3.59,2.34,4a1.62,1.62,0,0,1-1.42,0s1,3.13,2.11,3.93l-4.34,2.51Z"/><rect class="cls-34" x="347.65" y="129.39" width="0.5" height="4" rx="0.25" ry="0.25"/><path class="cls-35" d="M347.9,116.8s-1.29,3.66-2.52,4.86a4.94,4.94,0,0,0,1.21-.2s-1.25,3.59-2.34,4a1.62,1.62,0,0,0,1.42,0s-1,3.13-2.11,3.93l4.34,2.51Z"/><path class="cls-36" d="M347.9,116.81s1.29,3.66,2.52,4.86a4.94,4.94,0,0,1-1.21-.2s1.25,3.59,2.34,4a1.62,1.62,0,0,1-1.42,0s1,3.13,2.11,3.93l-4.34,2.51Z"/><rect class="cls-34" x="405.45" y="137.38" width="0.5" height="4" rx="0.25" ry="0.25"/><path class="cls-35" d="M405.7,124.78s-1.29,3.66-2.52,4.86a4.94,4.94,0,0,0,1.21-.2s-1.25,3.59-2.34,4a1.62,1.62,0,0,0,1.42,0s-1,3.13-2.11,3.93l4.34,2.51Z"/><path class="cls-36" d="M405.7,124.8s1.29,3.66,2.52,4.86a4.94,4.94,0,0,1-1.21-.2s1.25,3.59,2.34,4a1.62,1.62,0,0,1-1.42,0s1,3.13,2.11,3.93l-4.34,2.51Z"/><rect class="cls-34" x="423.87" y="150.11" width="0.5" height="4" rx="0.25" ry="0.25"/><path class="cls-35" d="M424.12,137.52s-1.29,3.66-2.52,4.86a4.94,4.94,0,0,0,1.21-.2s-1.25,3.59-2.34,4a1.62,1.62,0,0,0,1.42,0s-1,3.13-2.11,3.93l4.34,2.51Z"/><path class="cls-36" d="M424.12,137.53s1.29,3.66,2.52,4.86a4.94,4.94,0,0,1-1.21-.2s1.25,3.59,2.34,4a1.62,1.62,0,0,1-1.42,0s1,3.13,2.11,3.93l-4.34,2.51Z"/><rect class="cls-34" x="413.16" y="139.02" width="0.5" height="4" rx="0.25" ry="0.25"/><path class="cls-35" d="M413.41,126.42s-1.29,3.66-2.52,4.86a4.94,4.94,0,0,0,1.21-.2s-1.25,3.59-2.34,4a1.62,1.62,0,0,0,1.42,0s-1,3.13-2.11,3.93l4.34,2.51Z"/><path class="cls-36" d="M413.41,126.44s1.29,3.66,2.52,4.86a4.94,4.94,0,0,1-1.21-.2s1.25,3.59,2.34,4a1.62,1.62,0,0,1-1.42,0s1,3.13,2.11,3.93l-4.34,2.51Z"/><rect class="cls-34" x="419.53" y="144.16" width="0.5" height="4" rx="0.25" ry="0.25"/><path class="cls-35" d="M419.78,131.56s-1.29,3.66-2.52,4.86a4.94,4.94,0,0,0,1.21-.2s-1.25,3.59-2.34,4a1.62,1.62,0,0,0,1.42,0s-1,3.13-2.11,3.93l4.34,2.51Z"/><path class="cls-36" d="M419.78,131.58s1.29,3.66,2.52,4.86a4.94,4.94,0,0,1-1.21-.2s1.25,3.59,2.34,4a1.62,1.62,0,0,1-1.42,0s1,3.13,2.11,3.93l-4.34,2.51Z"/><rect class="cls-34" x="408.66" y="150.95" width="0.5" height="4" rx="0.25" ry="0.25"/><path class="cls-35" d="M408.91,138.36s-1.29,3.66-2.52,4.86a4.94,4.94,0,0,0,1.21-.2s-1.25,3.59-2.34,4a1.62,1.62,0,0,0,1.42,0s-1,3.13-2.11,3.93l4.34,2.51Z"/><path class="cls-36" d="M408.91,138.37s1.29,3.66,2.52,4.86a4.94,4.94,0,0,1-1.21-.2s1.25,3.59,2.34,4a1.62,1.62,0,0,1-1.42,0s1,3.13,2.11,3.93l-4.34,2.51Z"/><rect class="cls-34" x="396.44" y="147.32" width="0.5" height="4" rx="0.25" ry="0.25"/><path class="cls-35" d="M396.69,134.72s-1.29,3.66-2.52,4.86a4.94,4.94,0,0,0,1.21-.2s-1.25,3.59-2.34,4a1.62,1.62,0,0,0,1.42,0s-1,3.13-2.11,3.93l4.34,2.51Z"/><path class="cls-36" d="M396.69,134.73s1.29,3.66,2.52,4.86a4.94,4.94,0,0,1-1.21-.2s1.25,3.59,2.34,4a1.62,1.62,0,0,1-1.42,0s1,3.13,2.11,3.93l-4.34,2.51Z"/><rect class="cls-34" x="374.01" y="139.5" width="0.5" height="4" rx="0.25" ry="0.25"/><path class="cls-35" d="M374.27,126.91s-1.29,3.66-2.52,4.86a4.94,4.94,0,0,0,1.21-.2s-1.25,3.59-2.34,4a1.62,1.62,0,0,0,1.42,0s-1,3.13-2.11,3.93l4.34,2.51Z"/><path class="cls-36" d="M374.27,126.92s1.29,3.66,2.52,4.86a4.94,4.94,0,0,1-1.21-.2s1.25,3.59,2.34,4a1.62,1.62,0,0,1-1.42,0s1,3.13,2.11,3.93L374.27,142Z"/><rect class="cls-34" x="335.01" y="123.4" width="0.5" height="4" rx="0.25" ry="0.25"/><path class="cls-35" d="M335.26,110.81s-1.29,3.66-2.52,4.86a4.94,4.94,0,0,0,1.21-.2s-1.25,3.59-2.34,4a1.62,1.62,0,0,0,1.42,0s-1,3.13-2.11,3.93l4.34,2.51Z"/><path class="cls-36" d="M335.26,110.82s1.29,3.66,2.52,4.86a4.94,4.94,0,0,1-1.21-.2s1.25,3.59,2.34,4a1.62,1.62,0,0,1-1.42,0s1,3.13,2.11,3.93l-4.34,2.51Z"/><rect class="cls-34" x="327.76" y="127.64" width="0.5" height="4" rx="0.25" ry="0.25"/><path class="cls-35" d="M328,115s-1.29,3.66-2.52,4.86a4.94,4.94,0,0,0,1.21-.2s-1.25,3.59-2.34,4a1.62,1.62,0,0,0,1.42,0s-1,3.13-2.11,3.93l4.34,2.51Z"/><path class="cls-36" d="M328,115.05s1.29,3.66,2.52,4.86a4.94,4.94,0,0,1-1.21-.2s1.25,3.59,2.34,4a1.62,1.62,0,0,1-1.42,0s1,3.13,2.11,3.93L328,130.13Z"/><rect class="cls-34" x="301.54" y="139.02" width="0.5" height="4" rx="0.25" ry="0.25"/><path class="cls-35" d="M301.79,126.42s-1.29,3.66-2.52,4.86a4.94,4.94,0,0,0,1.21-.2s-1.25,3.59-2.34,4a1.62,1.62,0,0,0,1.42,0s-1,3.13-2.11,3.93l4.34,2.51Z"/><path class="cls-36" d="M301.79,126.44s1.29,3.66,2.52,4.86a4.94,4.94,0,0,1-1.21-.2s1.25,3.59,2.34,4a1.62,1.62,0,0,1-1.42,0s1,3.13,2.11,3.93l-4.34,2.51Z"/><path class="cls-37" d="M286.32,156a16,16,0,0,1,3.81-1.06.49.49,0,0,0,0,.71c.37-.55,3.84-1.17,3.84-1.17-.23.56-.19.61-.19.61a26,26,0,0,1,4.71-1.26h0a26,26,0,0,1-4.71-1.26s0,.05.19.61c0,0-3.47-.63-3.84-1.17a.49.49,0,0,0,0,.71,16,16,0,0,1-3.81-1.06L284,153.71h-1.37c-.13,0-.24.06-.24.13s.11.13.24.13H284Z"/><path class="cls-37" d="M326.76,150.61a15.89,15.89,0,0,1-3.58-1.13l-2.29,2.05h-1.37c-.13,0-.24.06-.24.13s.11.13.24.13h1.35l2.29,2.05a16,16,0,0,1,3.81-1.06.49.49,0,0,0,0,.71s2.07-1.43,2.58-1.24c0,0-1.13-.61-1.49-.83S326.76,150.61,326.76,150.61Z"/><path class="cls-37" d="M301.12,157.22a20.15,20.15,0,0,1,3.81-.8.31.31,0,0,0,0,.54c.37-.41,3.84-.89,3.84-.89-.23.42-.19.46-.19.46a32.93,32.93,0,0,1,4.71-1h0a32.93,32.93,0,0,1-4.71-1s0,0,.19.46c0,0-3.47-.47-3.84-.89a.31.31,0,0,0,0,.54,20.15,20.15,0,0,1-3.81-.8l-2.29,1.55h-1.37c-.13,0-.24,0-.24.1s.11.1.24.1h1.35Z"/><path class="cls-34" d="M309.28,149.07h0a.23.23,0,0,1-.25-.21V146a.23.23,0,0,1,.25-.21h0a.23.23,0,0,1,.25.21v2.86A.23.23,0,0,1,309.28,149.07Z"/><path class="cls-35" d="M309.28,135.48s-1.29,3-2.52,4a6,6,0,0,0,1.21-.16s-1.25,2.94-2.34,3.25a1.94,1.94,0,0,0,1.42,0s-1,2.56-2.11,3.22l4.34,2.06Z"/><path class="cls-36" d="M309.28,135.49s1.29,3,2.52,4a6,6,0,0,1-1.21-.16s1.25,2.94,2.34,3.25a1.94,1.94,0,0,1-1.42,0s1,2.56,2.11,3.22l-4.34,2.06Z"/><path class="cls-37" d="M332.18,133.7a20,20,0,0,1,4.31-1.06.45.45,0,0,0,0,.71c.42-.55,4.35-1.17,4.35-1.17-.26.56-.22.61-.22.61a32.6,32.6,0,0,1,5.33-1.26h0a32.6,32.6,0,0,1-5.33-1.26s0,.05.22.61c0,0-3.93-.63-4.35-1.17a.45.45,0,0,0,0,.71,20,20,0,0,1-4.31-1.06l-2.6,2.05h-1.55c-.15,0-.28.06-.28.13s.12.13.28.13h1.53Z"/><path class="cls-34" d="M299.62,149.81h0a.23.23,0,0,1-.25-.21v-2.86a.23.23,0,0,1,.25-.21h0a.23.23,0,0,1,.25.21v2.86A.23.23,0,0,1,299.62,149.81Z"/><path class="cls-35" d="M299.62,136.23s-1.29,3-2.52,4a6,6,0,0,0,1.21-.16s-1.25,2.94-2.34,3.25a1.94,1.94,0,0,0,1.42,0s-1,2.56-2.11,3.22l4.34,2.06Z"/><path class="cls-36" d="M299.62,136.24s1.29,3,2.52,4a6,6,0,0,1-1.21-.16s1.25,2.94,2.34,3.25a1.94,1.94,0,0,1-1.42,0s1,2.56,2.11,3.22l-4.34,2.06Z"/><path class="cls-34" d="M291.36,159.39h0a.23.23,0,0,1-.25-.21v-2.86a.23.23,0,0,1,.25-.21h0a.23.23,0,0,1,.25.21v2.86A.23.23,0,0,1,291.36,159.39Z"/><path class="cls-35" d="M291.36,145.8s-1.29,3-2.52,4a6,6,0,0,0,1.21-.16s-1.25,2.94-2.34,3.25a1.94,1.94,0,0,0,1.42,0s-1,2.56-2.11,3.22l4.34,2.06Z"/><path class="cls-36" d="M291.36,145.81s1.29,3,2.52,4a6,6,0,0,1-1.21-.16s1.25,2.94,2.34,3.25a1.94,1.94,0,0,1-1.42,0s1,2.56,2.11,3.22l-4.34,2.06Z"/><path class="cls-34" d="M297.45,155.47h0a.23.23,0,0,1-.25-.21V152.4a.23.23,0,0,1,.25-.21h0a.23.23,0,0,1,.25.21v2.86A.23.23,0,0,1,297.45,155.47Z"/><path class="cls-35" d="M297.45,141.89s-1.29,3-2.52,4a6,6,0,0,0,1.21-.16s-1.25,2.94-2.34,3.25a1.94,1.94,0,0,0,1.42,0s-1,2.56-2.11,3.22l4.34,2.06Z"/><path class="cls-36" d="M297.45,141.9s1.29,3,2.52,4a6,6,0,0,1-1.21-.16s1.25,2.94,2.34,3.25a1.94,1.94,0,0,1-1.42,0s1,2.56,2.11,3.22l-4.34,2.06Z"/><path class="cls-34" d="M339.93,141h0a.19.19,0,0,1-.21-.17v-2.39a.19.19,0,0,1,.21-.17h0a.19.19,0,0,1,.21.17v2.39A.19.19,0,0,1,339.93,141Z"/><path class="cls-35" d="M339.93,129.67a11.49,11.49,0,0,1-2.1,3.32,5,5,0,0,0,1-.14s-1,2.45-2,2.71a1.62,1.62,0,0,0,1.19,0s-.85,2.14-1.76,2.69l3.63,1.72Z"/><path class="cls-36" d="M339.93,129.68A11.49,11.49,0,0,0,342,133a5,5,0,0,1-1-.14s1,2.45,2,2.71a1.62,1.62,0,0,1-1.19,0s.85,2.14,1.76,2.69L339.93,140Z"/><path class="cls-34" d="M355.91,138.44h0a.19.19,0,0,1-.21-.17v-2.39a.19.19,0,0,1,.21-.17h0a.19.19,0,0,1,.21.17v2.39A.19.19,0,0,1,355.91,138.44Z"/><path class="cls-35" d="M355.91,127.09a11.49,11.49,0,0,1-2.1,3.32,5,5,0,0,0,1-.14s-1,2.45-2,2.71a1.62,1.62,0,0,0,1.19,0s-.85,2.14-1.76,2.69l3.63,1.72Z"/><path class="cls-36" d="M355.91,127.1a11.49,11.49,0,0,0,2.1,3.32,5,5,0,0,1-1-.14s1,2.45,2,2.71a1.62,1.62,0,0,1-1.19,0s.85,2.14,1.76,2.69l-3.63,1.72Z"/><path class="cls-34" d="M366.64,144.78h0a.19.19,0,0,1-.21-.17v-2.39a.19.19,0,0,1,.21-.17h0a.19.19,0,0,1,.21.17v2.39A.19.19,0,0,1,366.64,144.78Z"/><path class="cls-35" d="M366.64,133.43a11.49,11.49,0,0,1-2.1,3.32,5,5,0,0,0,1-.14s-1,2.45-2,2.71a1.62,1.62,0,0,0,1.19,0s-.85,2.14-1.76,2.69l3.63,1.72Z"/><path class="cls-36" d="M366.64,133.44a11.49,11.49,0,0,0,2.1,3.32,5,5,0,0,1-1-.14s1,2.45,2,2.71a1.62,1.62,0,0,1-1.19,0s.85,2.14,1.76,2.69l-3.63,1.72Z"/><path class="cls-34" d="M382,149.17h0a.19.19,0,0,1-.21-.17v-2.39a.19.19,0,0,1,.21-.17h0a.19.19,0,0,1,.21.17V149A.19.19,0,0,1,382,149.17Z"/><path class="cls-35" d="M382,137.83a11.49,11.49,0,0,1-2.1,3.32,5,5,0,0,0,1-.14s-1,2.45-2,2.71a1.62,1.62,0,0,0,1.19,0s-.85,2.14-1.76,2.69l3.63,1.72Z"/><path class="cls-36" d="M382,137.84a11.49,11.49,0,0,0,2.1,3.32,5,5,0,0,1-1-.14s1,2.45,2,2.71a1.62,1.62,0,0,1-1.19,0s.85,2.14,1.76,2.69L382,148.15Z"/><path class="cls-37" d="M421,168.43a16,16,0,0,1,3.81-1.06.49.49,0,0,0,0,.71c.37-.55,3.84-1.17,3.84-1.17-.23.56-.19.61-.19.61a26,26,0,0,1,4.71-1.26h0A26,26,0,0,1,428.5,165s0,.05.19.61c0,0-3.47-.63-3.84-1.17a.49.49,0,0,0,0,.71,16,16,0,0,1-3.81-1.06l-2.29,2.05h-1.37c-.13,0-.24.06-.24.13s.11.13.24.13h1.35Z"/><path class="cls-37" d="M295.22,161.76A16,16,0,0,1,299,160.7a.49.49,0,0,0,0,.71c.37-.55,3.84-1.17,3.84-1.17-.23.56-.19.61-.19.61a26,26,0,0,1,4.71-1.26h0a26,26,0,0,1-4.71-1.26s0,.05.19.61c0,0-3.47-.63-3.84-1.17a.49.49,0,0,0,0,.71,16,16,0,0,1-3.81-1.06l-2.29,2.05h-1.37c-.13,0-.24.06-.24.13s.11.13.24.13h1.35Z"/><path class="cls-37" d="M411.76,172.74a16,16,0,0,1,3.81-1.06.49.49,0,0,0,0,.71c.37-.55,3.84-1.17,3.84-1.17-.23.56-.19.61-.19.61a26,26,0,0,1,4.71-1.26h0a26,26,0,0,1-4.71-1.26s0,.05.19.61c0,0-3.47-.63-3.84-1.17a.49.49,0,0,0,0,.71,16,16,0,0,1-3.81-1.06l-2.29,2.05h-1.37c-.13,0-.24.06-.24.13s.11.13.24.13h1.35Z"/><path class="cls-37" d="M432.28,178.27a16,16,0,0,1,3.81-1.06.49.49,0,0,0,0,.71c.37-.55,3.84-1.17,3.84-1.17-.23.56-.19.61-.19.61a26,26,0,0,1,4.71-1.26h0a26,26,0,0,1-4.71-1.26s0,.05.19.61c0,0-3.47-.63-3.84-1.17a.49.49,0,0,0,0,.71,16,16,0,0,1-3.81-1.06L430,176h-1.37c-.13,0-.24.06-.24.13s.11.13.24.13H430Z"/><path class="cls-37" d="M432.21,165.6a16,16,0,0,1,3.81-1.06.49.49,0,0,0,0,.71c.37-.55,3.84-1.17,3.84-1.17-.23.56-.19.61-.19.61a26,26,0,0,1,4.71-1.26h0a26,26,0,0,1-4.71-1.26s0,.05.19.61c0,0-3.47-.63-3.84-1.17a.49.49,0,0,0,0,.71,16,16,0,0,1-3.81-1.06l-2.29,2.05h-1.37c-.13,0-.24.06-.24.13s.11.13.24.13h1.35Z"/><path class="cls-34" d="M417.36,166.26h0a.19.19,0,0,1-.21-.17v-2.39a.19.19,0,0,1,.21-.17h0a.19.19,0,0,1,.21.17v2.39A.19.19,0,0,1,417.36,166.26Z"/><path class="cls-35" d="M417.36,154.91a11.49,11.49,0,0,1-2.1,3.32,5,5,0,0,0,1-.14s-1,2.45-2,2.71a1.62,1.62,0,0,0,1.19,0s-.85,2.14-1.76,2.69l3.63,1.72Z"/><path class="cls-36" d="M417.36,154.92a11.49,11.49,0,0,0,2.1,3.32,5,5,0,0,1-1-.14s1,2.45,2,2.71a1.62,1.62,0,0,1-1.19,0s.85,2.14,1.76,2.69l-3.63,1.72Z"/><path class="cls-34" d="M407.87,170.56h0a.19.19,0,0,1-.21-.17V168a.19.19,0,0,1,.21-.17h0a.19.19,0,0,1,.21.17v2.39A.19.19,0,0,1,407.87,170.56Z"/><path class="cls-35" d="M407.87,159.21a11.49,11.49,0,0,1-2.1,3.32,5,5,0,0,0,1-.14s-1,2.45-2,2.71a1.62,1.62,0,0,0,1.19,0s-.85,2.14-1.76,2.69l3.63,1.72Z"/><path class="cls-36" d="M407.87,159.22a11.49,11.49,0,0,0,2.1,3.32,5,5,0,0,1-1-.14s1,2.45,2,2.71a1.62,1.62,0,0,1-1.19,0s.85,2.14,1.76,2.69l-3.63,1.72Z"/><path class="cls-34" d="M428.46,176.23h0a.19.19,0,0,1-.21-.17v-2.39a.19.19,0,0,1,.21-.17h0a.19.19,0,0,1,.21.17v2.39A.19.19,0,0,1,428.46,176.23Z"/><path class="cls-35" d="M428.46,164.89a11.49,11.49,0,0,1-2.1,3.32,5,5,0,0,0,1-.14s-1,2.45-2,2.71a1.62,1.62,0,0,0,1.19,0s-.85,2.14-1.76,2.69l3.63,1.72Z"/><path class="cls-36" d="M428.46,164.9a11.49,11.49,0,0,0,2.1,3.32,5,5,0,0,1-1-.14s1,2.45,2,2.71a1.62,1.62,0,0,1-1.19,0s.85,2.14,1.76,2.69l-3.63,1.72Z"/><path class="cls-34" d="M428.25,163.42h0a.19.19,0,0,1-.21-.17v-2.39a.19.19,0,0,1,.21-.17h0a.19.19,0,0,1,.21.17v2.39A.19.19,0,0,1,428.25,163.42Z"/><path class="cls-35" d="M428.25,152.08a11.49,11.49,0,0,1-2.1,3.32,5,5,0,0,0,1-.14s-1,2.45-2,2.71a1.62,1.62,0,0,0,1.19,0s-.85,2.14-1.76,2.69l3.63,1.72Z"/><path class="cls-36" d="M428.25,152.09a11.49,11.49,0,0,0,2.1,3.32,5,5,0,0,1-1-.14s1,2.45,2,2.71a1.62,1.62,0,0,1-1.19,0s.85,2.14,1.76,2.69l-3.63,1.72Z"/><path class="cls-34" d="M432.29,147.34h0a.19.19,0,0,1-.21-.17v-2.39a.19.19,0,0,1,.21-.17h0a.19.19,0,0,1,.21.17v2.39A.19.19,0,0,1,432.29,147.34Z"/><path class="cls-35" d="M432.29,136a11.49,11.49,0,0,1-2.1,3.32,5,5,0,0,0,1-.14s-1,2.45-2,2.71a1.62,1.62,0,0,0,1.19,0s-.85,2.14-1.76,2.69l3.63,1.72Z"/><path class="cls-36" d="M432.29,136a11.49,11.49,0,0,0,2.1,3.32,5,5,0,0,1-1-.14s1,2.45,2,2.71a1.62,1.62,0,0,1-1.19,0s.85,2.14,1.76,2.69l-3.63,1.72Z"/><path class="cls-34" d="M390.9,202.25h0a.19.19,0,0,1-.21-.17v-2.39a.19.19,0,0,1,.21-.17h0a.19.19,0,0,1,.21.17v2.39A.19.19,0,0,1,390.9,202.25Z"/><path class="cls-35" d="M390.9,190.9a11.49,11.49,0,0,1-2.1,3.32,5,5,0,0,0,1-.14s-1,2.45-2,2.71a1.62,1.62,0,0,0,1.19,0s-.85,2.14-1.76,2.69l3.63,1.72Z"/><path class="cls-36" d="M390.9,190.91a11.49,11.49,0,0,0,2.1,3.32,5,5,0,0,1-1-.14s1,2.45,2,2.71a1.62,1.62,0,0,1-1.19,0s.85,2.14,1.76,2.69l-3.63,1.72Z"/><path class="cls-38" d="M285.58,170s15.75,13.93,20.09,15.63,11.93,2.4,14.1,5,15.11,11.63,18.87,11.85,10.44,4.79,12.91,7.91,13.11,9.33,15.56,5.9-.4-12.09,4.57-15.62,6.36-14.39,3.84-16.07-12.9-4.11-12.86-9.76-5.63-6.86-10-9-8.32-8.34-13.13-8.41-11.29,1.65-15.16-.27-8.1-3.43-10.4-1.37-9.46,7-12.84,5.28S278.75,164.18,285.58,170Z"/><path class="cls-37" d="M343.7,143.2a16.37,16.37,0,0,1,3.86-1.06.48.48,0,0,0,0,.71c.37-.55,3.9-1.17,3.9-1.17-.23.56-.2.61-.2.61A26.68,26.68,0,0,1,356,141h0a26.68,26.68,0,0,1-4.77-1.26s0,.05.2.61c0,0-3.52-.63-3.9-1.17a.48.48,0,0,0,0,.71,16.37,16.37,0,0,1-3.86-1.06l-2.33,2.05H340c-.14,0-.25.06-.25.13s.11.13.25.13h1.37Z"/><path class="cls-34" d="M380.2,205.18h0A.19.19,0,0,1,380,205v-2.39a.19.19,0,0,1,.21-.17h0a.19.19,0,0,1,.21.17V205A.19.19,0,0,1,380.2,205.18Z"/><path class="cls-35" d="M380.2,193.84a11.49,11.49,0,0,1-2.1,3.32,5,5,0,0,0,1-.14s-1,2.45-2,2.71a1.62,1.62,0,0,0,1.19,0s-.85,2.14-1.76,2.69l3.63,1.72Z"/><path class="cls-36" d="M380.2,193.85a11.49,11.49,0,0,0,2.1,3.32,5,5,0,0,1-1-.14s1,2.45,2,2.71a1.62,1.62,0,0,1-1.19,0s.85,2.14,1.76,2.69l-3.63,1.72Z"/><path class="cls-34" d="M382,193.85h0a.19.19,0,0,1-.21-.17v-2.39a.19.19,0,0,1,.21-.17h0a.19.19,0,0,1,.21.17v2.39A.19.19,0,0,1,382,193.85Z"/><path class="cls-35" d="M382,182.5a11.49,11.49,0,0,1-2.1,3.32,5,5,0,0,0,1-.14s-1,2.45-2,2.71a1.62,1.62,0,0,0,1.19,0s-.85,2.14-1.76,2.69l3.63,1.72Z"/><path class="cls-36" d="M382,182.51a11.49,11.49,0,0,0,2.1,3.32,5,5,0,0,1-1-.14s1,2.45,2,2.71a1.62,1.62,0,0,1-1.19,0s.85,2.14,1.76,2.69L382,192.82Z"/><path class="cls-34" d="M373.33,211.79h0a.19.19,0,0,1-.21-.17v-2.39a.19.19,0,0,1,.21-.17h0a.19.19,0,0,1,.21.17v2.39A.19.19,0,0,1,373.33,211.79Z"/><path class="cls-35" d="M373.33,200.44a11.49,11.49,0,0,1-2.1,3.32,5,5,0,0,0,1-.14s-1,2.45-2,2.71a1.62,1.62,0,0,0,1.19,0s-.85,2.14-1.76,2.69l3.63,1.72Z"/><path class="cls-36" d="M373.33,200.45a11.49,11.49,0,0,0,2.1,3.32,5,5,0,0,1-1-.14s1,2.45,2,2.71a1.62,1.62,0,0,1-1.19,0S376,208.49,377,209l-3.63,1.72Z"/><path class="cls-34" d="M373.12,201.73h0a.19.19,0,0,1-.21-.17v-2.39a.19.19,0,0,1,.21-.17h0a.19.19,0,0,1,.21.17v2.39A.19.19,0,0,1,373.12,201.73Z"/><path class="cls-35" d="M373.12,190.38a11.49,11.49,0,0,1-2.1,3.32,5,5,0,0,0,1-.14s-1,2.45-2,2.71a1.62,1.62,0,0,0,1.19,0s-.85,2.14-1.76,2.69l3.63,1.72Z"/><path class="cls-36" d="M373.12,190.39a11.49,11.49,0,0,0,2.1,3.32,5,5,0,0,1-1-.14s1,2.45,2,2.71a1.62,1.62,0,0,1-1.19,0s.85,2.14,1.76,2.69l-3.63,1.72Z"/><path class="cls-34" d="M348.95,148.69h0a.19.19,0,0,1-.21-.17v-2.39a.19.19,0,0,1,.21-.17h0a.19.19,0,0,1,.21.17v2.39A.19.19,0,0,1,348.95,148.69Z"/><path class="cls-35" d="M348.95,137.35a11.49,11.49,0,0,1-2.1,3.32,5,5,0,0,0,1-.14s-1,2.45-2,2.71a1.62,1.62,0,0,0,1.19,0s-.85,2.14-1.76,2.69l3.63,1.72Z"/><path class="cls-36" d="M348.95,137.35a11.49,11.49,0,0,0,2.1,3.32,5,5,0,0,1-1-.14s1,2.45,2,2.71a1.62,1.62,0,0,1-1.19,0s.85,2.14,1.76,2.69l-3.63,1.72Z"/><path class="cls-34" d="M319.32,152h0a.23.23,0,0,1-.25-.21v-2.86a.23.23,0,0,1,.25-.21h0a.23.23,0,0,1,.25.21v2.86A.23.23,0,0,1,319.32,152Z"/><path class="cls-35" d="M319.32,138.37s-1.29,3-2.52,4a6,6,0,0,0,1.21-.16s-1.25,2.94-2.34,3.25a1.94,1.94,0,0,0,1.42,0s-1,2.56-2.11,3.22l4.34,2.06Z"/><path class="cls-36" d="M319.32,138.38s1.29,3,2.52,4a6,6,0,0,1-1.21-.16s1.25,2.94,2.34,3.25a1.94,1.94,0,0,1-1.42,0s1,2.56,2.11,3.22l-4.34,2.06Z"/><path class="cls-34" d="M282.68,154.11h0a.23.23,0,0,1-.25-.21V151a.23.23,0,0,1,.25-.21h0a.23.23,0,0,1,.25.21v2.86A.23.23,0,0,1,282.68,154.11Z"/><path class="cls-35" d="M282.68,140.52s-1.29,3-2.52,4a6,6,0,0,0,1.21-.16s-1.25,2.94-2.34,3.25a1.94,1.94,0,0,0,1.42,0s-1,2.56-2.11,3.22l4.34,2.06Z"/><path class="cls-36" d="M282.68,140.53s1.29,3,2.52,4a6,6,0,0,1-1.21-.16s1.25,2.94,2.34,3.25a1.94,1.94,0,0,1-1.42,0s1,2.56,2.11,3.22l-4.34,2.06Z"/><path class="cls-34" d="M291.11,147.81h0a.23.23,0,0,1-.25-.21v-2.86a.23.23,0,0,1,.25-.21h0a.23.23,0,0,1,.25.21v2.86A.23.23,0,0,1,291.11,147.81Z"/><path class="cls-35" d="M291.11,134.23s-1.29,3-2.52,4a6,6,0,0,0,1.21-.16s-1.25,2.94-2.34,3.25a1.94,1.94,0,0,0,1.42,0s-1,2.56-2.11,3.22l4.34,2.06Z"/><path class="cls-36" d="M291.11,134.24s1.29,3,2.52,4a6,6,0,0,1-1.21-.16s1.25,2.94,2.34,3.25a1.94,1.94,0,0,1-1.42,0s1,2.56,2.11,3.22l-4.34,2.06Z"/><path class="cls-37" d="M353,150.86a16.37,16.37,0,0,1,3.86-1.06.48.48,0,0,0,0,.71c.37-.55,3.9-1.17,3.9-1.17-.23.56-.2.61-.2.61a26.68,26.68,0,0,1,4.77-1.26h0a26.68,26.68,0,0,1-4.77-1.26s0,.05.2.61c0,0-3.52-.63-3.9-1.17a.48.48,0,0,0,0,.71,16.37,16.37,0,0,1-3.86-1.06l-2.33,2.05h-1.39c-.14,0-.25.06-.25.13s.11.13.25.13h1.37Z"/><path class="cls-4" d="M295.1,166l1.41,0,.12,2.2h3.94s3.33.23,2.51-1.28-7.81-1.29-7.81-1.29Z"/><path class="cls-4" d="M300.74,174.48l1.41,0,.12,2.2h3.94s3.33.23,2.51-1.28-7.81-1.29-7.81-1.29Z"/><path class="cls-39" d="M296.85,165.11c0-.19.14-.56.14-.56l.33-.47H295a3.21,3.21,0,0,1-.92,1.73c-.66.55-.67.44-.81.86,0,0,1.72-.5,2.2,0a5.15,5.15,0,0,1,1.18,1.59,2.09,2.09,0,0,0,.38-1.46.94.94,0,0,1,0-.16l0,0A12.35,12.35,0,0,1,296.85,165.11Z"/><path class="cls-40" d="M297.67,166.22a2.29,2.29,0,0,1,1,.4,1.89,1.89,0,0,0,.94.31s-.21-.21-.72-.79-.79-.55-.89-.87a8.32,8.32,0,0,1-.17-1.19h-.54l-.33.47s-.1.37-.14.56a12.35,12.35,0,0,0,.14,1.45l0,0C297,166.06,297.49,166.19,297.67,166.22Z"/><ellipse class="cls-41" cx="296.44" cy="164.08" rx="1.42" ry="0.51"/><ellipse class="cls-39" cx="296.44" cy="164.01" rx="1.09" ry="0.3"/><ellipse class="cls-41" cx="296.44" cy="164.01" rx="0.76" ry="0.14"/><ellipse class="cls-39" cx="296.44" cy="164.01" rx="0.54" ry="0.06"/><path class="cls-4" d="M330,165l1.41,0,.12,2.2h3.94s3.33.23,2.51-1.28-7.81-1.29-7.81-1.29Z"/><path class="cls-39" d="M331.76,164.1c0-.19.14-.56.14-.56l.33-.47h-2.3a3.21,3.21,0,0,1-.92,1.73c-.66.55-.67.44-.81.86,0,0,1.72-.5,2.2,0a5.15,5.15,0,0,1,1.18,1.59,2.09,2.09,0,0,0,.38-1.46.94.94,0,0,1,0-.16l0,0A12.35,12.35,0,0,1,331.76,164.1Z"/><path class="cls-40" d="M332.58,165.21a2.29,2.29,0,0,1,1,.4,1.89,1.89,0,0,0,.94.31s-.21-.21-.72-.79-.79-.55-.89-.87a8.32,8.32,0,0,1-.17-1.19h-.54l-.33.47s-.1.37-.14.56a12.35,12.35,0,0,0,.14,1.45l0,0C331.89,165.05,332.4,165.18,332.58,165.21Z"/><ellipse class="cls-41" cx="331.35" cy="163.07" rx="1.42" ry="0.51"/><ellipse class="cls-39" cx="331.35" cy="163" rx="1.09" ry="0.3"/><ellipse class="cls-41" cx="331.35" cy="163" rx="0.76" ry="0.14"/><ellipse class="cls-39" cx="331.35" cy="163" rx="0.54" ry="0.06"/><path class="cls-4" d="M333.16,189.24l1.41,0,.12,2.2h3.94s3.33.23,2.51-1.28-7.81-1.29-7.81-1.29Z"/><path class="cls-39" d="M334.91,188.37c0-.19.14-.56.14-.56l.33-.47h-2.3a3.21,3.21,0,0,1-.92,1.73c-.66.55-.67.44-.81.86,0,0,1.72-.5,2.2,0a5.15,5.15,0,0,1,1.18,1.59,2.09,2.09,0,0,0,.38-1.46.94.94,0,0,1,0-.16l0,0A12.35,12.35,0,0,1,334.91,188.37Z"/><path class="cls-40" d="M335.73,189.48a2.29,2.29,0,0,1,1,.4,1.89,1.89,0,0,0,.94.31s-.21-.21-.72-.79-.79-.55-.89-.87a8.32,8.32,0,0,1-.17-1.19h-.54l-.33.47s-.1.37-.14.56a12.35,12.35,0,0,0,.14,1.45l0,0C335,189.32,335.55,189.45,335.73,189.48Z"/><ellipse class="cls-41" cx="334.5" cy="187.34" rx="1.42" ry="0.51"/><ellipse class="cls-39" cx="334.5" cy="187.27" rx="1.09" ry="0.3"/><ellipse class="cls-41" cx="334.5" cy="187.27" rx="0.76" ry="0.14"/><ellipse class="cls-39" cx="334.5" cy="187.27" rx="0.54" ry="0.06"/><path class="cls-4" d="M352.69,184.69l1.41,0,.12,2.2h3.94s3.33.23,2.51-1.28-7.81-1.29-7.81-1.29Z"/><path class="cls-39" d="M354.44,183.82c0-.19.14-.56.14-.56l.33-.47h-2.3a3.21,3.21,0,0,1-.92,1.73c-.66.55-.67.44-.81.86,0,0,1.72-.5,2.2,0a5.15,5.15,0,0,1,1.18,1.59,2.09,2.09,0,0,0,.38-1.46.94.94,0,0,1,0-.16l0,0A12.35,12.35,0,0,1,354.44,183.82Z"/><path class="cls-40" d="M355.26,184.93a2.29,2.29,0,0,1,1,.4,1.89,1.89,0,0,0,.94.31s-.21-.21-.72-.79-.79-.55-.89-.87a8.32,8.32,0,0,1-.17-1.19h-.54l-.33.47s-.1.37-.14.56a12.35,12.35,0,0,0,.14,1.45l0,0C354.58,184.77,355.08,184.9,355.26,184.93Z"/><ellipse class="cls-41" cx="354.04" cy="182.78" rx="1.42" ry="0.51"/><ellipse class="cls-39" cx="354.04" cy="182.72" rx="1.09" ry="0.3"/><ellipse class="cls-41" cx="354.04" cy="182.72" rx="0.76" ry="0.14"/><ellipse class="cls-39" cx="354.04" cy="182.72" rx="0.54" ry="0.06"/><path class="cls-4" d="M357.55,203.56l1.41,0,.12,2.2H363s3.33.23,2.51-1.28-7.81-1.29-7.81-1.29Z"/><path class="cls-39" d="M359.3,202.68c0-.19.14-.56.14-.56l.33-.47h-2.3a3.21,3.21,0,0,1-.92,1.73c-.66.55-.67.44-.81.86,0,0,1.72-.5,2.2,0a5.15,5.15,0,0,1,1.18,1.59,2.09,2.09,0,0,0,.38-1.46.94.94,0,0,1,0-.16l0,0A12.35,12.35,0,0,1,359.3,202.68Z"/><path class="cls-40" d="M360.12,203.79a2.29,2.29,0,0,1,1,.4,1.89,1.89,0,0,0,.94.31s-.21-.21-.72-.79-.79-.55-.89-.87a8.32,8.32,0,0,1-.17-1.19h-.54l-.33.47s-.1.37-.14.56a12.35,12.35,0,0,0,.14,1.45l0,0C359.43,203.63,359.94,203.76,360.12,203.79Z"/><ellipse class="cls-41" cx="358.9" cy="201.65" rx="1.42" ry="0.51"/><ellipse class="cls-39" cx="358.9" cy="201.58" rx="1.09" ry="0.3"/><ellipse class="cls-41" cx="358.9" cy="201.58" rx="0.76" ry="0.14"/><ellipse class="cls-39" cx="358.9" cy="201.58" rx="0.54" ry="0.06"/><path class="cls-4" d="M345.37,174.09l1.41,0,.12,2.2h3.94s3.33.23,2.51-1.28-7.81-1.29-7.81-1.29Z"/><path class="cls-39" d="M347.12,173.21c0-.19.14-.56.14-.56l.33-.47h-2.3a3.21,3.21,0,0,1-.92,1.73c-.66.55-.67.44-.81.86,0,0,1.72-.5,2.2,0a5.15,5.15,0,0,1,1.18,1.59,2.09,2.09,0,0,0,.38-1.46.94.94,0,0,1,0-.16l0,0A12.35,12.35,0,0,1,347.12,173.21Z"/><path class="cls-40" d="M347.94,174.32a2.29,2.29,0,0,1,1,.4,1.89,1.89,0,0,0,.94.31s-.21-.21-.72-.79-.79-.55-.89-.87a8.32,8.32,0,0,1-.17-1.19h-.54l-.33.47s-.1.37-.14.56a12.35,12.35,0,0,0,.14,1.45l0,0C347.26,174.16,347.76,174.3,347.94,174.32Z"/><ellipse class="cls-41" cx="346.72" cy="172.18" rx="1.42" ry="0.51"/><ellipse class="cls-39" cx="346.72" cy="172.11" rx="1.09" ry="0.3"/><ellipse class="cls-41" cx="346.72" cy="172.11" rx="0.76" ry="0.14"/><ellipse class="cls-39" cx="346.72" cy="172.11" rx="0.54" ry="0.06"/><path class="cls-4" d="M316.86,159.46l1.1,0,.1,1.72h3.08s2.61.18,2-1-6.1-1-6.1-1Z"/><path class="cls-39" d="M318.23,158.77c0-.15.11-.44.11-.44l.26-.37h-1.8a2.51,2.51,0,0,1-.72,1.35c-.52.43-.52.34-.63.67,0,0,1.34-.39,1.72,0a4,4,0,0,1,.92,1.24,1.63,1.63,0,0,0,.29-1.14.73.73,0,0,1,0-.13l0,0A9.65,9.65,0,0,1,318.23,158.77Z"/><path class="cls-40" d="M318.87,159.64a1.79,1.79,0,0,1,.81.31,1.48,1.48,0,0,0,.74.24s-.16-.17-.57-.61-.62-.43-.7-.68A6.5,6.5,0,0,1,319,158h-.42l-.26.37s-.08.29-.11.44a9.65,9.65,0,0,0,.11,1.13l0,0C318.33,159.52,318.72,159.62,318.87,159.64Z"/><ellipse class="cls-41" cx="317.91" cy="157.97" rx="1.11" ry="0.4"/><ellipse class="cls-39" cx="317.91" cy="157.92" rx="0.85" ry="0.24"/><ellipse class="cls-41" cx="317.91" cy="157.92" rx="0.59" ry="0.11"/><ellipse class="cls-39" cx="317.91" cy="157.92" rx="0.42" ry="0.05"/><path class="cls-4" d="M313.24,165.5l1.1,0,.1,1.72h3.08s2.61.18,2-1-6.1-1-6.1-1Z"/><path class="cls-39" d="M314.61,164.82c0-.15.11-.44.11-.44L315,164h-1.8a2.51,2.51,0,0,1-.72,1.35c-.52.43-.52.34-.63.67,0,0,1.34-.39,1.72,0a4,4,0,0,1,.92,1.24,1.63,1.63,0,0,0,.29-1.14.73.73,0,0,1,0-.13l0,0A9.65,9.65,0,0,1,314.61,164.82Z"/><path class="cls-40" d="M315.25,165.68a1.79,1.79,0,0,1,.81.31,1.48,1.48,0,0,0,.74.24s-.16-.17-.57-.61-.62-.43-.7-.68a6.5,6.5,0,0,1-.13-.93H315l-.26.37s-.08.29-.11.44a9.65,9.65,0,0,0,.11,1.13l0,0C314.71,165.56,315.11,165.66,315.25,165.68Z"/><ellipse class="cls-41" cx="314.29" cy="164.01" rx="1.11" ry="0.4"/><ellipse class="cls-39" cx="314.29" cy="163.96" rx="0.85" ry="0.24"/><ellipse class="cls-41" cx="314.29" cy="163.96" rx="0.59" ry="0.11"/><ellipse class="cls-39" cx="314.29" cy="163.96" rx="0.42" ry="0.05"/><path class="cls-4" d="M326.82,174.31l1.1,0,.1,1.72h3.08s2.61.18,2-1-6.1-1-6.1-1Z"/><path class="cls-39" d="M328.19,173.63c0-.15.11-.44.11-.44l.26-.37h-1.8a2.51,2.51,0,0,1-.72,1.35c-.52.43-.52.34-.63.67,0,0,1.34-.39,1.72,0A4,4,0,0,1,328,176a1.63,1.63,0,0,0,.29-1.14.73.73,0,0,1,0-.13l0,0A9.65,9.65,0,0,1,328.19,173.63Z"/><path class="cls-40" d="M328.82,174.5a1.79,1.79,0,0,1,.81.31,1.48,1.48,0,0,0,.74.24s-.16-.17-.57-.61-.62-.43-.7-.68a6.5,6.5,0,0,1-.13-.93h-.42l-.26.37s-.08.29-.11.44a9.65,9.65,0,0,0,.11,1.13l0,0C328.29,174.37,328.68,174.48,328.82,174.5Z"/><ellipse class="cls-41" cx="327.87" cy="172.82" rx="1.11" ry="0.4"/><ellipse class="cls-39" cx="327.87" cy="172.77" rx="0.85" ry="0.24"/><ellipse class="cls-41" cx="327.87" cy="172.77" rx="0.59" ry="0.11"/><ellipse class="cls-39" cx="327.87" cy="172.77" rx="0.42" ry="0.05"/><path class="cls-4" d="M315.76,174.07l1.1,0,.1,1.72H320s2.61.18,2-1-6.1-1-6.1-1Z"/><path class="cls-39" d="M317.13,173.38c0-.15.11-.44.11-.44l.26-.37h-1.8a2.51,2.51,0,0,1-.72,1.35c-.52.43-.52.34-.63.67,0,0,1.34-.39,1.72,0a4,4,0,0,1,.92,1.24,1.63,1.63,0,0,0,.29-1.14.73.73,0,0,1,0-.13l0,0A9.65,9.65,0,0,1,317.13,173.38Z"/><path class="cls-40" d="M317.77,174.25a1.79,1.79,0,0,1,.81.31,1.48,1.48,0,0,0,.74.24s-.16-.17-.57-.61-.62-.43-.7-.68a6.5,6.5,0,0,1-.13-.93h-.42l-.26.37s-.08.29-.11.44a9.65,9.65,0,0,0,.11,1.13l0,0C317.23,174.13,317.63,174.23,317.77,174.25Z"/><ellipse class="cls-41" cx="316.81" cy="172.58" rx="1.11" ry="0.4"/><ellipse class="cls-39" cx="316.81" cy="172.52" rx="0.85" ry="0.24"/><ellipse class="cls-41" cx="316.81" cy="172.52" rx="0.59" ry="0.11"/><ellipse class="cls-39" cx="316.81" cy="172.52" rx="0.42" ry="0.05"/><path class="cls-4" d="M313.76,182l1.1,0,.1,1.72H318s2.61.18,2-1-6.1-1-6.1-1Z"/><path class="cls-39" d="M315.13,181.3c0-.15.11-.44.11-.44l.26-.37h-1.8a2.51,2.51,0,0,1-.72,1.35c-.52.43-.52.34-.63.67,0,0,1.34-.39,1.72,0a4,4,0,0,1,.92,1.24,1.63,1.63,0,0,0,.29-1.14.73.73,0,0,1,0-.13l0,0A9.65,9.65,0,0,1,315.13,181.3Z"/><path class="cls-40" d="M315.77,182.17a1.79,1.79,0,0,1,.81.31,1.48,1.48,0,0,0,.74.24s-.16-.17-.57-.61-.62-.43-.7-.68a6.5,6.5,0,0,1-.13-.93h-.42l-.26.37s-.08.29-.11.44a9.65,9.65,0,0,0,.11,1.13l0,0C315.23,182,315.63,182.15,315.77,182.17Z"/><ellipse class="cls-41" cx="314.81" cy="180.49" rx="1.11" ry="0.4"/><ellipse class="cls-39" cx="314.81" cy="180.44" rx="0.85" ry="0.24"/><ellipse class="cls-41" cx="314.81" cy="180.44" rx="0.59" ry="0.11"/><ellipse class="cls-39" cx="314.81" cy="180.44" rx="0.42" ry="0.05"/><path class="cls-4" d="M325.41,182.17l1.1,0,.1,1.72h3.08s2.61.18,2-1-6.1-1-6.1-1Z"/><path class="cls-39" d="M326.78,181.49c0-.15.11-.44.11-.44l.26-.37h-1.8a2.51,2.51,0,0,1-.72,1.35c-.52.43-.52.34-.63.67,0,0,1.34-.39,1.72,0a4,4,0,0,1,.92,1.24,1.63,1.63,0,0,0,.29-1.14.73.73,0,0,1,0-.13l0,0A9.65,9.65,0,0,1,326.78,181.49Z"/><path class="cls-40" d="M327.42,182.36a1.79,1.79,0,0,1,.81.31,1.48,1.48,0,0,0,.74.24s-.16-.17-.57-.61-.62-.43-.7-.68a6.5,6.5,0,0,1-.13-.93h-.42l-.26.37s-.08.29-.11.44a9.65,9.65,0,0,0,.11,1.13l0,0C326.88,182.23,327.27,182.34,327.42,182.36Z"/><ellipse class="cls-41" cx="326.46" cy="180.68" rx="1.11" ry="0.4"/><ellipse class="cls-39" cx="326.46" cy="180.63" rx="0.85" ry="0.24"/><ellipse class="cls-41" cx="326.46" cy="180.63" rx="0.59" ry="0.11"/><ellipse class="cls-39" cx="326.46" cy="180.63" rx="0.42" ry="0.05"/><path class="cls-4" d="M343.11,166.21l1.1,0,.1,1.72h3.08s2.61.18,2-1-6.1-1-6.1-1Z"/><path class="cls-39" d="M344.48,165.53c0-.15.11-.44.11-.44l.26-.37H343a2.51,2.51,0,0,1-.72,1.35c-.52.43-.52.34-.63.67,0,0,1.34-.39,1.72,0a4,4,0,0,1,.92,1.24,1.63,1.63,0,0,0,.29-1.14.73.73,0,0,1,0-.13l0,0A9.65,9.65,0,0,1,344.48,165.53Z"/><path class="cls-40" d="M345.12,166.39a1.79,1.79,0,0,1,.81.31,1.48,1.48,0,0,0,.74.24s-.16-.17-.57-.61-.62-.43-.7-.68a6.5,6.5,0,0,1-.13-.93h-.42l-.26.37s-.08.29-.11.44a9.65,9.65,0,0,0,.11,1.13l0,0C344.59,166.27,345,166.37,345.12,166.39Z"/><ellipse class="cls-41" cx="344.17" cy="164.72" rx="1.11" ry="0.4"/><ellipse class="cls-39" cx="344.17" cy="164.67" rx="0.85" ry="0.24"/><ellipse class="cls-41" cx="344.17" cy="164.67" rx="0.59" ry="0.11"/><ellipse class="cls-39" cx="344.17" cy="164.67" rx="0.42" ry="0.05"/><path class="cls-4" d="M339.23,181.64l1.1,0,.1,1.72h3.08s2.61.18,2-1-6.1-1-6.1-1Z"/><path class="cls-39" d="M340.6,181c0-.15.11-.44.11-.44l.26-.37h-1.8a2.51,2.51,0,0,1-.72,1.35c-.52.43-.52.34-.63.67,0,0,1.34-.39,1.72,0a4,4,0,0,1,.92,1.24,1.63,1.63,0,0,0,.29-1.14.73.73,0,0,1,0-.13l0,0A9.65,9.65,0,0,1,340.6,181Z"/><path class="cls-40" d="M341.24,181.83a1.79,1.79,0,0,1,.81.31,1.48,1.48,0,0,0,.74.24s-.16-.17-.57-.61-.62-.43-.7-.68a6.5,6.5,0,0,1-.13-.93H341l-.26.37s-.08.29-.11.44a9.65,9.65,0,0,0,.11,1.13l0,0C340.71,181.71,341.1,181.81,341.24,181.83Z"/><ellipse class="cls-41" cx="340.29" cy="180.15" rx="1.11" ry="0.4"/><ellipse class="cls-39" cx="340.29" cy="180.1" rx="0.85" ry="0.24"/><ellipse class="cls-41" cx="340.29" cy="180.1" rx="0.59" ry="0.11"/><ellipse class="cls-39" cx="340.29" cy="180.1" rx="0.42" ry="0.05"/><path class="cls-4" d="M351.78,194.84l1.1,0,.1,1.72h3.08s2.61.18,2-1-6.1-1-6.1-1Z"/><path class="cls-39" d="M353.15,194.16c0-.15.11-.44.11-.44l.26-.37h-1.8a2.51,2.51,0,0,1-.72,1.35c-.52.43-.52.34-.63.67,0,0,1.34-.39,1.72,0a4,4,0,0,1,.92,1.24,1.63,1.63,0,0,0,.29-1.14.73.73,0,0,1,0-.13l0,0A9.65,9.65,0,0,1,353.15,194.16Z"/><path class="cls-40" d="M353.79,195a1.79,1.79,0,0,1,.81.31,1.48,1.48,0,0,0,.74.24s-.16-.17-.57-.61-.62-.43-.7-.68a6.5,6.5,0,0,1-.13-.93h-.42l-.26.37s-.08.29-.11.44a9.65,9.65,0,0,0,.11,1.13l0,0C353.25,194.9,353.65,195,353.79,195Z"/><ellipse class="cls-41" cx="352.83" cy="193.35" rx="1.11" ry="0.4"/><ellipse class="cls-39" cx="352.83" cy="193.3" rx="0.85" ry="0.24"/><ellipse class="cls-41" cx="352.83" cy="193.3" rx="0.59" ry="0.11"/><ellipse class="cls-39" cx="352.83" cy="193.3" rx="0.42" ry="0.05"/><path class="cls-4" d="M340.15,197.24l1,0,.08,1.5h2.69s2.28.16,1.71-.87-5.33-.88-5.33-.88Z"/><path class="cls-39" d="M341.34,196.64c0-.13.09-.38.09-.38l.23-.32h-1.57a2.2,2.2,0,0,1-.63,1.18c-.45.38-.46.3-.55.59,0,0,1.17-.34,1.5,0a3.52,3.52,0,0,1,.81,1.09,1.43,1.43,0,0,0,.26-1,.64.64,0,0,1,0-.11l0,0A8.44,8.44,0,0,1,341.34,196.64Z"/><path class="cls-40" d="M341.9,197.4a1.56,1.56,0,0,1,.71.27,1.29,1.29,0,0,0,.64.21s-.14-.14-.49-.54-.54-.37-.61-.59a5.68,5.68,0,0,1-.12-.82h-.37l-.23.32s-.07.25-.09.38a8.44,8.44,0,0,0,.09,1l0,0C341.43,197.29,341.78,197.38,341.9,197.4Z"/><ellipse class="cls-41" cx="341.07" cy="195.94" rx="0.97" ry="0.35"/><ellipse class="cls-39" cx="341.07" cy="195.89" rx="0.74" ry="0.21"/><ellipse class="cls-41" cx="341.07" cy="195.89" rx="0.52" ry="0.1"/><ellipse class="cls-39" cx="341.07" cy="195.89" rx="0.37" ry="0.04"/><path class="cls-4" d="M364,191.54l1,0,.08,1.5h2.69s2.28.16,1.71-.87-5.33-.88-5.33-.88Z"/><path class="cls-39" d="M365.23,190.94c0-.13.09-.38.09-.38l.23-.32H364a2.2,2.2,0,0,1-.63,1.18c-.45.38-.46.3-.55.59,0,0,1.17-.34,1.5,0a3.52,3.52,0,0,1,.81,1.09,1.43,1.43,0,0,0,.26-1,.64.64,0,0,1,0-.11l0,0A8.44,8.44,0,0,1,365.23,190.94Z"/><path class="cls-40" d="M365.79,191.7a1.56,1.56,0,0,1,.71.27,1.29,1.29,0,0,0,.64.21s-.14-.14-.49-.54-.54-.37-.61-.59a5.68,5.68,0,0,1-.12-.82h-.37l-.23.32s-.07.25-.09.38a8.44,8.44,0,0,0,.09,1l0,0C365.32,191.59,365.66,191.68,365.79,191.7Z"/><ellipse class="cls-41" cx="364.95" cy="190.23" rx="0.97" ry="0.35"/><ellipse class="cls-39" cx="364.95" cy="190.19" rx="0.74" ry="0.21"/><ellipse class="cls-41" cx="364.95" cy="190.19" rx="0.52" ry="0.1"/><ellipse class="cls-39" cx="364.95" cy="190.19" rx="0.37" ry="0.04"/><path class="cls-39" d="M302.42,173.61c0-.19.14-.56.14-.56l.33-.47h-2.3a3.21,3.21,0,0,1-.92,1.73c-.66.55-.67.44-.81.86,0,0,1.72-.5,2.2,0a5.15,5.15,0,0,1,1.18,1.59,2.09,2.09,0,0,0,.38-1.46.94.94,0,0,1,0-.16l0,0A12.35,12.35,0,0,1,302.42,173.61Z"/><path class="cls-40" d="M303.24,174.71a2.29,2.29,0,0,1,1,.4,1.89,1.89,0,0,0,.94.31s-.21-.21-.72-.79-.79-.55-.89-.87a8.32,8.32,0,0,1-.17-1.19h-.54l-.33.47s-.1.37-.14.56a12.35,12.35,0,0,0,.14,1.45l0,0C302.56,174.56,303.06,174.69,303.24,174.71Z"/><ellipse class="cls-41" cx="302.02" cy="172.57" rx="1.42" ry="0.51"/><ellipse class="cls-39" cx="302.02" cy="172.51" rx="1.09" ry="0.3"/><ellipse class="cls-41" cx="302.02" cy="172.51" rx="0.76" ry="0.14"/><ellipse class="cls-39" cx="302.02" cy="172.51" rx="0.54" ry="0.06"/><path class="cls-42" d="M395.9,193.26a2.08,2.08,0,0,0,1,.82c.76.35.88.65,1.51.56a5.64,5.64,0,0,1,1.77-.15c.61.11,2.34.82,2.31.53s-1.54-.57-2-.84a11.3,11.3,0,0,0-1.66-.79,14.25,14.25,0,0,0-2.32-.49C396,192.89,395.75,193.05,395.9,193.26Z"/><polygon class="cls-43" points="398.38 193.67 398.78 193.38 398.92 193.22 398.75 192.81 397.85 192.6 397.02 192.81 396.61 193.26 397.6 193.26 398.38 193.67"/><path class="cls-44" d="M398.78,193.38l-.4.29-.78-.41h-1l-.15.16a3.54,3.54,0,0,0,2.83.67l-.37-.87Z"/><path class="cls-4" d="M401.27,188a6.81,6.81,0,0,0,2.2,0c.33-.23-1.72-.59-1.72-.59Z"/><path class="cls-4" d="M403.72,189a6.81,6.81,0,0,0,2.2,0c.33-.23-1.72-.59-1.72-.59Z"/><polygon class="cls-43" points="401.2 187.49 401.6 187.2 401.74 187.04 401.57 186.63 400.67 186.42 399.84 186.63 399.43 187.08 400.43 187.08 401.2 187.49"/><path class="cls-44" d="M401.6,187.2l-.4.29-.78-.41h-1l-.15.16a3.54,3.54,0,0,0,2.83.67l-.37-.87Z"/><path class="cls-42" d="M359.5,155.36a1.32,1.32,0,0,0,.62.52c.48.22.56.41,1,.36a3.56,3.56,0,0,1,1.12-.09c.39.07,1.35.78,1.33.59s-.84-.62-1.16-.79a7.14,7.14,0,0,0-1.05-.5,9,9,0,0,0-1.47-.31C359.6,155.13,359.41,155.23,359.5,155.36Z"/><polygon class="cls-43" points="361.07 155.62 361.32 155.44 361.41 155.34 361.3 155.08 360.73 154.95 360.21 155.08 359.95 155.36 360.58 155.36 361.07 155.62"/><path class="cls-44" d="M361.32,155.44l-.25.18-.49-.26h-.63l-.09.1a2.24,2.24,0,0,0,1.79.43l-.23-.55Z"/><path class="cls-42" d="M362.15,157.77a1.71,1.71,0,0,0,.81.67c.62.29.73.53,1.24.46a3.7,3.7,0,0,1,1.31.07c.5.09,2,1.19,2,1a5.64,5.64,0,0,0-1.61-1.4,9.29,9.29,0,0,0-1.37-.65,11.71,11.71,0,0,0-1.91-.4C362.27,157.47,362,157.6,362.15,157.77Z"/><polygon class="cls-43" points="364.19 158.11 364.52 157.87 364.63 157.74 364.49 157.4 363.75 157.23 363.07 157.4 362.73 157.77 363.55 157.77 364.19 158.11"/><path class="cls-44" d="M364.52,157.87l-.33.24-.64-.34h-.82l-.12.13a2.91,2.91,0,0,0,2.32.55l-.3-.71Z"/><polygon class="cls-43" points="403.99 188.59 404.14 188.7 404.68 188.81 404.95 188.54 404.83 188.22 404.29 188.22 403.83 188.33 403.46 188.65 403.74 188.81 403.99 188.59"/><polygon class="cls-44" points="404.68 188.81 404.14 188.7 403.99 188.59 403.74 188.81 403.46 188.65 403.74 189 404.34 189 404.86 189.1 405.03 188.74 404.95 188.54 404.68 188.81"/><polygon class="cls-4" points="384.59 175.62 389.67 175.62 389.06 175.26 386.42 175.26 384.59 175.62"/><polygon class="cls-43" points="386.48 174.51 386.14 174.75 384.98 174.99 384.37 174.4 384.64 173.7 385.82 173.7 386.84 173.95 387.64 174.65 387.03 174.99 386.48 174.51"/><polygon class="cls-44" points="384.98 174.99 386.14 174.75 386.48 174.51 387.03 174.99 387.64 174.65 387.03 175.42 385.72 175.42 384.58 175.62 384.21 174.84 384.37 174.4 384.98 174.99"/><path class="cls-4" d="M388,178.29h2.63l.92.81,1.82-.3s.56-.26.58-.45-.58-.69-.58-.69c-.14-.2-.79-.3-1-.3h-2.39Z"/><polygon class="cls-44" points="390.49 176.88 388.94 177.03 387.88 177.68 386.47 177.22 386.41 177.32 387.99 178.29 389.27 178.13 390.04 178.29 391.46 176.72 391.14 176.2 390.49 176.88"/><polygon class="cls-43" points="390.13 178.26 390.37 178.44 391.25 178.63 391.7 178.18 391.51 177.66 390.61 177.66 389.86 177.84 389.25 178.37 389.71 178.63 390.13 178.26"/><polygon class="cls-44" points="391.25 178.63 390.37 178.44 390.13 178.26 389.71 178.63 389.25 178.37 389.71 178.95 390.69 178.95 391.55 179.1 391.83 178.52 391.7 178.18 391.25 178.63"/><polygon class="cls-43" points="388.94 177.03 390.49 176.88 391.14 176.2 390.27 174.78 388.94 174.2 387.03 176.2 386.47 177.22 387.88 177.68 388.94 177.03"/><polygon class="cls-4" points="173.04 163.2 182.61 163.2 181.46 162.52 176.5 162.52 173.04 163.2"/><polygon class="cls-43" points="176.6 161.11 175.98 161.57 173.78 162.02 172.64 160.91 173.13 159.59 175.38 159.59 177.28 160.05 178.79 161.37 177.64 162.02 176.6 161.11"/><polygon class="cls-44" points="173.78 162.02 175.98 161.57 176.6 161.11 177.64 162.02 178.79 161.37 177.64 162.82 175.18 162.82 173.02 163.2 172.32 161.75 172.64 160.91 173.78 162.02"/><polygon class="cls-4" points="179.49 166.51 196.3 168.27 195.69 164.86 186.86 165.06 179.49 166.51"/><polygon class="cls-43" points="187.08 162.05 185.75 163.03 181.06 164 178.63 161.63 179.68 158.81 184.47 158.81 188.53 159.8 191.74 162.61 189.3 164 187.08 162.05"/><polygon class="cls-44" points="181.06 164 185.75 163.03 187.08 162.05 189.3 164 191.74 162.61 189.3 165.71 184.05 165.71 179.45 166.51 177.96 163.41 178.63 161.63 181.06 164"/><path class="cls-4" d="M189,175.18h7.73l2.69,2.37,5.36-.88s1.64-.78,1.7-1.31-1.7-2-1.7-2c-.42-.6-2.33-.89-3.06-.89h-7Z"/><polygon class="cls-44" points="196.34 171.03 191.78 171.47 188.66 173.39 184.52 172.03 184.35 172.34 189 175.18 192.74 174.72 195 175.18 199.2 170.56 198.26 169.04 196.34 171.03"/><path class="cls-4" d="M175.11,170.86a24.53,24.53,0,0,0,3.93,0c.26-.21.17-.57-.49-.66a13.21,13.21,0,0,0-1.94,0Z"/><path class="cls-4" d="M160.61,146.62a24.53,24.53,0,0,0,3.93,0c.26-.21.17-.57-.49-.66a13.21,13.21,0,0,0-1.94,0Z"/><path class="cls-4" d="M162.59,149.3a11,11,0,0,0,1.76,0c.11-.09.07-.26-.22-.3a5.93,5.93,0,0,0-.87,0Z"/><polygon class="cls-43" points="195.26 175.11 195.99 175.64 198.56 176.18 199.9 174.88 199.32 173.33 196.7 173.33 194.47 173.87 192.7 175.41 194.05 176.18 195.26 175.11"/><polygon class="cls-44" points="198.56 176.18 195.99 175.64 195.26 175.11 194.05 176.18 192.7 175.41 194.05 177.11 196.93 177.11 199.45 177.55 200.27 175.85 199.9 174.88 198.56 176.18"/><polygon class="cls-43" points="191.78 171.47 196.34 171.03 198.26 169.04 195.69 164.86 191.78 163.16 186.16 169.05 184.52 172.03 188.66 173.39 191.78 171.47"/><polygon class="cls-44" points="176.69 169.97 175.71 170.06 175.04 170.48 174.15 170.18 174.11 170.25 175.11 170.86 175.92 170.76 176.41 170.86 177.31 169.87 177.11 169.54 176.69 169.97"/><polygon class="cls-43" points="175.71 170.06 176.69 169.97 177.11 169.54 176.55 168.64 175.71 168.27 174.5 169.54 174.15 170.18 175.04 170.48 175.71 170.06"/><polygon class="cls-44" points="162.03 145.81 161.04 145.91 160.37 146.32 159.48 146.03 159.44 146.09 160.44 146.7 161.25 146.6 161.74 146.7 162.64 145.71 162.44 145.38 162.03 145.81"/><polygon class="cls-43" points="161.04 145.91 162.03 145.81 162.44 145.38 161.88 144.48 161.04 144.12 159.84 145.38 159.48 146.03 160.37 146.32 161.04 145.91"/><polygon class="cls-44" points="163.14 148.99 162.8 149.02 162.57 149.16 162.26 149.06 162.25 149.08 162.6 149.29 162.87 149.26 163.04 149.29 163.35 148.95 163.28 148.84 163.14 148.99"/><polygon class="cls-43" points="162.8 149.02 163.14 148.99 163.28 148.84 163.09 148.53 162.8 148.4 162.38 148.84 162.26 149.06 162.57 149.16 162.8 149.02"/><path class="cls-4" d="M125.15,128.5h2.3l2.69,2.37,5.36-.88s1.64-.78,1.7-1.31-1.52-1.09-1.52-1.09a7.89,7.89,0,0,0-2.88-.42l-4,.24Z"/><polygon class="cls-43" points="125.96 128.43 126.69 128.96 129.26 129.5 130.6 128.19 130.02 126.65 127.39 126.65 125.16 127.19 123.4 128.73 124.74 129.5 125.96 128.43"/><polygon class="cls-44" points="129.26 129.5 126.69 128.96 125.96 128.43 124.74 129.5 123.4 128.73 124.74 130.43 127.62 130.43 130.14 130.87 130.96 129.17 130.6 128.19 129.26 129.5"/><path class="cls-4" d="M108.58,123.37h7.73l2.69,2.37,5.36-.88s1.64-.78,1.7-1.31-1.7-2-1.7-2c-.42-.6-2.33-.89-3.06-.89h-7Z"/><polygon class="cls-44" points="115.89 119.22 111.33 119.65 108.21 121.58 104.07 120.22 103.9 120.52 108.55 123.37 112.29 122.9 114.56 123.37 118.75 118.75 117.81 117.22 115.89 119.22"/><polygon class="cls-43" points="114.81 123.29 115.54 123.83 118.12 124.36 119.45 123.06 118.87 121.52 116.25 121.52 114.02 122.06 112.25 123.6 113.6 124.36 114.81 123.29"/><polygon class="cls-44" points="118.12 124.36 115.54 123.83 114.81 123.29 113.6 124.36 112.25 123.6 113.6 125.3 116.48 125.3 119 125.74 119.82 124.04 119.45 123.06 118.12 124.36"/><polygon class="cls-43" points="111.33 119.65 115.89 119.22 117.81 117.22 115.24 113.04 111.33 111.34 105.72 117.23 104.07 120.22 108.21 121.58 111.33 119.65"/><path class="cls-12" d="M122.13,143.84s-.2,3.74,4.95,6.76,8,3.49,12.84,3-3-7.36-3-7.36S122.47,139.9,122.13,143.84Z"/><path class="cls-4" d="M136.42,152.42h8.48s3.53-.48,3.46-1.22a8.62,8.62,0,0,0-1.09-2.36l-4.74-1.31-8.81-1.15Z"/><polygon class="cls-43" points="135.4 147.65 137.32 148.34 139.46 146.38 139.24 143.24 135.53 140.73 133.23 137.28 130.29 137.28 126.96 141.12 124.91 146.44 131.57 148.85 135.4 147.65"/><path class="cls-44" d="M137.32,148.34l-1.92-.7-3.84,1.2-6.65-2.4s3,5.86,11.58,6l1.08-1.16.76-.83,1.12-4Z"/><polygon class="cls-44" points="133.23 137.28 132.62 140.31 132.19 141.28 132.71 144.22 134.21 142.41 135.53 140.73 133.23 137.28"/><polygon class="cls-44" points="135.2 146.16 135.2 144.69 136.12 143.24 137.8 143.24 135.2 146.16"/><polygon class="cls-9" points="127.19 241.4 127.19 265.14 231.08 326.02 230.9 301.53 127.19 241.4"/><polygon class="cls-10" points="230.91 301.51 334.97 241.38 334.97 265.72 231.09 326 230.91 301.51"/><path class="cls-11" d="M237.52,200.41c2.06.55-4.06.74-4.06.74a22.43,22.43,0,0,1-8.17-6.42c-3.25-4.33.56-2.39.56-2.39A22.11,22.11,0,0,0,237.52,200.41Z"/><polygon class="cls-12" points="231.01 181.41 127.12 241.79 230.82 301.92 334.8 241.67 231.01 181.41"/><path class="cls-13" d="M215,190.74s-2.75,6,1.23,10.4,16.37,9.86,23.22,10.25,15.92,1.72,20.12,9.46,5.31,15.53,6,20.81,3.24,7.27,2.84,11.47-6,7.52-6.2,13.93,2.14,15.45,2.14,15.45l14.17-8.21,5.41-24.55-13.4-36.22-27.31-15.77L221,187.25Z"/><path class="cls-15" d="M218.23,188.84s-1,8.59,2.29,10.79,9.38,6,15.44,6.48,15.14,1,22.47,7.43a34.84,34.84,0,0,1,10.86,20.34c.76,5,1.77,14.08,3.79,15.88s2.25,4.13-1.15,8.52-6.68,7.67-6.68,13.61,2,8.92,2,8.92l18.37-25.14-10.17-44.78-33.28-14.63-21.21-9Z"/><path class="cls-45" d="M221,187.25s-2.18,7.79,3.19,12.39,24.56.47,37.68,15.34,7.73,23.13,13.94,32.63-.31,9.5-4.69,16.52-3.82,16.68-3.82,16.68l67.54-39.13L231,181.41Z"/><path class="cls-15" d="M270.48,210.34c0,2-.64,4.16-3.87,2.76s-3.81-7.09-7.51-7.35-6.47-3.35-4.76-4.42,10.47,3,11.08,4.45S270.48,210.34,270.48,210.34Z"/><path class="cls-15" d="M283.88,249.76a12.54,12.54,0,0,1-4.67-5.5c-1.09-2.58-5-10.48-4.28-11.47s.3-5.49,1.15-6.24.65,4.19,2.26,8.83,1.5,7.33,3.61,7.83S283.88,249.76,283.88,249.76Z"/><path class="cls-15" d="M243.17,197.77c-3.32.45-12.49-3.14-12.2-5.14s.9-.61,4.91-2.6,3.67,5.79,6.29,6.23S243.17,197.77,243.17,197.77Z"/><path class="cls-15" d="M237.52,200.41c2.06.55-4.06.74-4.06.74a22.43,22.43,0,0,1-8.17-6.42c-3.25-4.33.56-2.39.56-2.39A22.11,22.11,0,0,0,237.52,200.41Z"/><path class="cls-15" d="M283.21,258.65c.45,1.32,0,2.39-1.18,4s-4.63,7.54-5.27,8.18c-2,2.05-3.94.47-4.72.22s2.4-1.93,4.73-4.63,3.17-3.4,3.61-5.11C280.77,259.8,282.77,257.33,283.21,258.65Z"/><path class="cls-4" d="M295.94,236.71c1.21-.23,2.27-.47,2.93-.64a.65.65,0,0,0,.55.25l.14,0-.65,5s5.46-3.3,1.3-5.54a14.33,14.33,0,0,1,3.75,2,1.75,1.75,0,0,1,1-.45,3.29,3.29,0,0,0-.78.62,13,13,0,0,1,2.12,2.4s0-.07,0-.19a4.17,4.17,0,0,0-1.68-4.26c-1.25-1-3.43-.82-4.18-.71a3.54,3.54,0,0,0,2-2.17c.58-2-1.83-3.39-1.83-3.39a6.39,6.39,0,0,1,0,3.07,3,3,0,0,0,1.24,0s-.15.21-1.23.28l-.88,2a.68.68,0,0,0-.5-.2.76.76,0,0,0-.36.09.41.41,0,0,0-.25.34.36.36,0,0,0,.13.26,45.53,45.53,0,0,1-6.53.86c-3.59.18-10.64-.55-11.46-.18a.62.62,0,0,0-.42.69,1,1,0,0,0,.19.65h7.1A74.33,74.33,0,0,0,295.94,236.71Z"/><path class="cls-46" d="M279.37,217.94l8.08.92S282.52,213.07,279.37,217.94Z"/><path class="cls-47" d="M278.92,217.62s-.44-3.39,2.07-5a8.25,8.25,0,0,1,5.16-1.15,18,18,0,0,0-3.38,2.12,3.83,3.83,0,0,1-.87-.78,1.54,1.54,0,0,0,.63,1s-2.86,2.75-2.93,4S278.92,217.62,278.92,217.62Z"/><polygon class="cls-46" points="271.02 217.15 279.33 218.3 275.53 215.64 271.02 217.15"/><path class="cls-47" d="M279.33,218.3a4.56,4.56,0,0,0-3.52-3,5.25,5.25,0,0,0-4.79,1.83,12.62,12.62,0,0,1,4.33,0,2.12,2.12,0,0,0,0-1.24s.29.15.39,1.23Z"/><path class="cls-47" d="M279.29,218.11l8.15.75S281.87,213.74,279.29,218.11Z"/><path class="cls-48" d="M280.43,237c-.53-.82.5-7.87.25-11.46a33.45,33.45,0,0,0-1.35-7c0-.26,0-.37.11-.41-.16,0-.48-.09-.39.41a33.46,33.46,0,0,1,1.35,7c.25,3.59-.78,10.64-.25,11.46a1,1,0,0,0,1,.42A.9.9,0,0,1,280.43,237Z"/><path class="cls-49" d="M282,230.14a53.41,53.41,0,0,0-1.09-8.33c-.54-2-1.15-3.65-1.15-3.65a.52.52,0,0,0-.36,0l.08,0s.62,1.61,1.15,3.65a53.42,53.42,0,0,1,1.09,8.33c0,1.31,0,7.1,0,7.1a2,2,0,0,1-.64.19,1.84,1.84,0,0,0,.92-.19S282,231.45,282,230.14Z"/><path class="cls-48" d="M281.77,230.14a53.42,53.42,0,0,0-1.09-8.33c-.54-2-1.15-3.65-1.15-3.65l-.08,0c-.09,0-.16.16-.11.41a33.45,33.45,0,0,1,1.35,7c.25,3.59-.78,10.64-.25,11.46a.9.9,0,0,0,.7.42,2,2,0,0,0,.64-.19S281.77,231.45,281.77,230.14Z"/><path class="cls-49" d="M279.24,218.09a.6.6,0,0,1,.13.36.61.61,0,0,1-.61.61.61.61,0,0,1-.41-.16.6.6,0,0,0,.48.25.61.61,0,0,0,.61-.61A.61.61,0,0,0,279.24,218.09Z"/><path class="cls-48" d="M279.37,218.45a.6.6,0,0,0-.13-.36.61.61,0,0,0-.41-.16.61.61,0,0,0-.61.61.6.6,0,0,0,.13.36.61.61,0,0,0,.41.16A.61.61,0,0,0,279.37,218.45Z"/><path class="cls-49" d="M280.21,217.9a.59.59,0,0,1,.13.36.61.61,0,0,1-.61.61.6.6,0,0,1-.4-.16.59.59,0,0,0,.48.25.61.61,0,0,0,.61-.61A.6.6,0,0,0,280.21,217.9Z"/><path class="cls-48" d="M280.34,218.25a.59.59,0,0,0-.13-.36.6.6,0,0,0-.4-.16.61.61,0,0,0-.61.61.59.59,0,0,0,.13.36.6.6,0,0,0,.4.16A.61.61,0,0,0,280.34,218.25Z"/><path class="cls-46" d="M278.92,217.62s-.82-2.92.95-4.46a7.31,7.31,0,0,1,6.28-1.65S280,210.82,278.92,217.62Z"/><g class="cls-50"><path class="cls-51" d="M279.32,219.78c.39.05.69-.22,1.09-.25h0a.84.84,0,0,1-.52.26,1.09,1.09,0,0,1-.58,0Z"/><path class="cls-51" d="M279.44,220.36c.39.05.69-.22,1.09-.25h0a.84.84,0,0,1-.52.26,1.09,1.09,0,0,1-.58,0Z"/><path class="cls-51" d="M279.67,220.95c.39.05.69-.22,1.09-.25h0a.84.84,0,0,1-.52.26,1.08,1.08,0,0,1-.58,0Z"/><path class="cls-51" d="M279.68,221.53c.45.07.81-.24,1.26-.28h0a1.06,1.06,0,0,1-.6.29,1.25,1.25,0,0,1-.67,0Z"/><path class="cls-51" d="M279.91,222.31c.45.07.81-.24,1.26-.28h0a1.06,1.06,0,0,1-.6.29,1.26,1.26,0,0,1-.67,0Z"/><path class="cls-51" d="M280,223.22c.45.07.81-.24,1.26-.28h0a1.06,1.06,0,0,1-.6.29,1.26,1.26,0,0,1-.67,0Z"/><path class="cls-51" d="M280.21,224.26c.45.08.81-.21,1.27-.24h0a1.06,1.06,0,0,1-.61.27,1.25,1.25,0,0,1-.67,0Z"/><path class="cls-51" d="M280.31,225.08c.44.09.82-.2,1.27-.22h0a1.06,1.06,0,0,1-.61.26,1.25,1.25,0,0,1-.67,0Z"/><path class="cls-51" d="M280.39,225.91c.44.09.82-.2,1.27-.22h0a1.06,1.06,0,0,1-.61.26,1.25,1.25,0,0,1-.67,0Z"/><path class="cls-51" d="M280.42,227.05c.5.1.94-.21,1.44-.25h0a1.31,1.31,0,0,1-.7.29,1.43,1.43,0,0,1-.75,0Z"/><path class="cls-51" d="M280.31,228.17a1.75,1.75,0,0,0,.82,0,4.45,4.45,0,0,1,.81-.19h0a1.59,1.59,0,0,1-.8.29,1.62,1.62,0,0,1-.85-.06Z"/><path class="cls-51" d="M280.32,229.27a2,2,0,0,0,.91,0,6.26,6.26,0,0,1,.91-.21h0a1.9,1.9,0,0,1-.89.32,1.81,1.81,0,0,1-.94-.06Z"/><path class="cls-51" d="M280.23,230.71a2,2,0,0,0,.95,0,7,7,0,0,1,.94-.22h0a2,2,0,0,1-.92.33,1.88,1.88,0,0,1-1-.06Z"/><path class="cls-51" d="M280.09,231.87a2.19,2.19,0,0,0,1,.09,9.39,9.39,0,0,1,1-.11h0a2.3,2.3,0,0,1-1,.22,2,2,0,0,1-1-.2Z"/><path class="cls-51" d="M280,233.54a2.41,2.41,0,0,0,1.14.11c.38-.05.76-.11,1.16-.13h0a2.69,2.69,0,0,1-1.15.24,2.27,2.27,0,0,1-1.15-.21Z"/><path class="cls-51" d="M279.8,235.21a2.65,2.65,0,0,0,1.24.12c.42-.06.83-.11,1.26-.14h0a3.1,3.1,0,0,1-1.26.25,2.51,2.51,0,0,1-1.26-.23Z"/></g><path class="cls-4" d="M236.57,195.27c.94-.18,1.76-.37,2.27-.49a.5.5,0,0,0,.42.19l.11,0-.51,3.88s4.23-2.56,1-4.29a11.1,11.1,0,0,1,2.9,1.58,1.36,1.36,0,0,1,.75-.35,2.55,2.55,0,0,0-.61.48,10.07,10.07,0,0,1,1.64,1.86s0-.05,0-.15a3.23,3.23,0,0,0-1.3-3.3,4.62,4.62,0,0,0-3.24-.55,2.74,2.74,0,0,0,1.57-1.68c.45-1.57-1.41-2.63-1.41-2.63a5,5,0,0,1,0,2.38,2.29,2.29,0,0,0,1,0s-.11.16-1,.21l-.68,1.53a.53.53,0,0,0-.39-.15.59.59,0,0,0-.28.07.32.32,0,0,0-.2.26.28.28,0,0,0,.1.2,35.26,35.26,0,0,1-5.06.66c-2.78.14-8.24-.43-8.88-.14a.48.48,0,0,0-.33.54.78.78,0,0,0,.15.5h5.5A57.57,57.57,0,0,0,236.57,195.27Z"/><path class="cls-46" d="M223.74,180.74l6.26.71S226.18,177,223.74,180.74Z"/><path class="cls-47" d="M223.4,180.49s-.34-2.63,1.6-3.84a6.39,6.39,0,0,1,4-.89,14,14,0,0,0-2.62,1.64,3,3,0,0,1-.68-.61,1.2,1.2,0,0,0,.49.75s-2.21,2.13-2.27,3.08S223.4,180.49,223.4,180.49Z"/><polygon class="cls-46" points="217.28 180.12 223.71 181.01 220.77 178.96 217.28 180.12"/><path class="cls-47" d="M223.71,181a3.54,3.54,0,0,0-2.73-2.31,4.07,4.07,0,0,0-3.71,1.41,9.77,9.77,0,0,1,3.36,0,1.64,1.64,0,0,0,0-1s.23.11.3,1Z"/><path class="cls-47" d="M223.69,180.87l6.31.58S225.68,177.49,223.69,180.87Z"/><path class="cls-48" d="M224.56,195.51c-.41-.63.39-6.09.19-8.88a25.91,25.91,0,0,0-1-5.42c0-.2,0-.29.09-.32-.12,0-.37-.07-.3.32a25.92,25.92,0,0,1,1,5.42c.19,2.78-.6,8.24-.19,8.88a.74.74,0,0,0,.76.33A.7.7,0,0,1,224.56,195.51Z"/><path class="cls-49" d="M225.82,190.19a41.37,41.37,0,0,0-.84-6.45c-.42-1.57-.89-2.82-.89-2.82a.4.4,0,0,0-.28,0l.07,0s.48,1.25.89,2.82a41.37,41.37,0,0,1,.84,6.45c0,1,0,5.5,0,5.5a1.55,1.55,0,0,1-.5.15,1.43,1.43,0,0,0,.71-.15S225.81,191.2,225.82,190.19Z"/><path class="cls-48" d="M225.6,190.19a41.37,41.37,0,0,0-.84-6.45c-.42-1.57-.89-2.82-.89-2.82l-.07,0c-.07,0-.12.12-.09.32a25.91,25.91,0,0,1,1,5.42c.19,2.78-.6,8.24-.19,8.88a.7.7,0,0,0,.54.33,1.55,1.55,0,0,0,.5-.15S225.6,191.2,225.6,190.19Z"/><path class="cls-49" d="M223.64,180.85a.46.46,0,0,1,.1.28.47.47,0,0,1-.47.47.47.47,0,0,1-.32-.13.47.47,0,0,0,.37.2.47.47,0,0,0,.47-.47A.47.47,0,0,0,223.64,180.85Z"/><path class="cls-48" d="M223.74,181.13a.46.46,0,0,0-.1-.28.47.47,0,0,0-.32-.13.47.47,0,0,0-.47.47.46.46,0,0,0,.1.28.47.47,0,0,0,.32.13A.47.47,0,0,0,223.74,181.13Z"/><path class="cls-49" d="M224.39,180.7a.46.46,0,0,1,.1.28.47.47,0,0,1-.47.47.46.46,0,0,1-.31-.12.46.46,0,0,0,.37.19.47.47,0,0,0,.47-.47A.46.46,0,0,0,224.39,180.7Z"/><path class="cls-48" d="M224.49,181a.46.46,0,0,0-.1-.28.46.46,0,0,0-.31-.12.47.47,0,0,0-.47.47.46.46,0,0,0,.1.28.46.46,0,0,0,.31.12A.47.47,0,0,0,224.49,181Z"/><path class="cls-46" d="M223.4,180.49s-.63-2.26.73-3.45a5.66,5.66,0,0,1,4.86-1.28A5.13,5.13,0,0,0,223.4,180.49Z"/><g class="cls-52"><path class="cls-51" d="M223.7,182.16c.3,0,.54-.17.85-.19h0a.68.68,0,0,1-.4.2.84.84,0,0,1-.45,0Z"/><path class="cls-51" d="M223.8,182.61c.3,0,.54-.17.85-.19h0a.68.68,0,0,1-.4.2.84.84,0,0,1-.45,0Z"/><path class="cls-51" d="M224,183.06c.3,0,.54-.17.85-.19h0a.68.68,0,0,1-.4.2.84.84,0,0,1-.45,0Z"/><path class="cls-51" d="M224,183.51c.35.05.62-.18,1-.22h0a.86.86,0,0,1-.47.22,1,1,0,0,1-.52,0Z"/><path class="cls-51" d="M224.16,184.12c.35.05.62-.18,1-.22h0a.86.86,0,0,1-.47.22,1,1,0,0,1-.52,0Z"/><path class="cls-51" d="M224.27,184.83c.35.05.63-.18,1-.22h0a.86.86,0,0,1-.47.22,1,1,0,0,1-.52,0Z"/><path class="cls-51" d="M224.4,185.63c.35.06.63-.16,1-.18h0a.86.86,0,0,1-.47.21,1,1,0,0,1-.52,0Z"/><path class="cls-51" d="M224.47,186.27c.34.07.63-.15,1-.17h0a.86.86,0,0,1-.48.2,1,1,0,0,1-.52,0Z"/><path class="cls-51" d="M224.53,186.91c.34.07.63-.15,1-.17h0a.86.86,0,0,1-.48.2,1,1,0,0,1-.52,0Z"/><path class="cls-51" d="M224.55,187.79c.39.08.72-.16,1.12-.2h0a1.05,1.05,0,0,1-.54.22,1.11,1.11,0,0,1-.58,0Z"/><path class="cls-51" d="M224.47,188.66c.43.1.83-.14,1.26-.18h0a1.28,1.28,0,0,1-.62.22,1.25,1.25,0,0,1-.65,0Z"/><path class="cls-51" d="M224.48,189.51c.48.12.93-.14,1.41-.2h0a1.52,1.52,0,0,1-.69.25,1.4,1.4,0,0,1-.73,0Z"/><path class="cls-51" d="M224.41,190.62c.5.12,1-.15,1.46-.21h0a1.61,1.61,0,0,1-.71.25,1.45,1.45,0,0,1-.76,0Z"/><path class="cls-51" d="M224.3,191.53a1.7,1.7,0,0,0,.8.07c.27,0,.53-.08.81-.09h0a1.84,1.84,0,0,1-.81.17,1.59,1.59,0,0,1-.81-.15Z"/><path class="cls-51" d="M224.24,192.82a1.86,1.86,0,0,0,.88.08c.3,0,.59-.09.9-.1h0a2.15,2.15,0,0,1-.89.18,1.76,1.76,0,0,1-.89-.17Z"/><path class="cls-51" d="M224.08,194.11a2.05,2.05,0,0,0,1,.1c.33,0,.64-.09,1-.11h0a2.48,2.48,0,0,1-1,.19,1.94,1.94,0,0,1-1-.18Z"/></g><path class="cls-4" d="M302.58,247.42c1.21-.23,2.27-.47,2.93-.64a.65.65,0,0,0,.55.25l.14,0-.65,5s5.46-3.3,1.3-5.54a14.33,14.33,0,0,1,3.75,2,1.75,1.75,0,0,1,1-.45,3.29,3.29,0,0,0-.78.62,13,13,0,0,1,2.12,2.4s0-.07,0-.19a4.17,4.17,0,0,0-1.68-4.26c-1.25-1-3.43-.82-4.18-.71a3.54,3.54,0,0,0,2-2.17c.58-2-1.83-3.39-1.83-3.39a6.39,6.39,0,0,1,0,3.07,3,3,0,0,0,1.24,0s-.15.21-1.23.28l-.88,2a.68.68,0,0,0-.5-.2.76.76,0,0,0-.36.09.41.41,0,0,0-.25.34.36.36,0,0,0,.13.26,45.53,45.53,0,0,1-6.53.86c-3.59.18-10.64-.55-11.46-.18a.62.62,0,0,0-.42.69,1,1,0,0,0,.19.65h7.1A74.33,74.33,0,0,0,302.58,247.42Z"/><path class="cls-46" d="M286,228.65l8.08.92S289.16,223.78,286,228.65Z"/><path class="cls-47" d="M285.57,228.33s-.44-3.39,2.07-5a8.25,8.25,0,0,1,5.16-1.15,18,18,0,0,0-3.38,2.12,3.83,3.83,0,0,1-.87-.78,1.54,1.54,0,0,0,.63,1s-2.86,2.75-2.93,4S285.57,228.33,285.57,228.33Z"/><polygon class="cls-46" points="277.66 227.86 285.97 229.01 282.17 226.35 277.66 227.86"/><path class="cls-47" d="M286,229a4.56,4.56,0,0,0-3.52-3,5.25,5.25,0,0,0-4.79,1.83,12.62,12.62,0,0,1,4.33,0,2.12,2.12,0,0,0,0-1.24s.29.15.39,1.23Z"/><path class="cls-47" d="M285.94,228.82l8.15.75S288.51,224.45,285.94,228.82Z"/><path class="cls-48" d="M287.07,247.72c-.53-.82.5-7.87.25-11.46a33.45,33.45,0,0,0-1.35-7c0-.26,0-.37.11-.41-.16,0-.48-.09-.39.41a33.46,33.46,0,0,1,1.35,7c.25,3.59-.78,10.64-.25,11.46a1,1,0,0,0,1,.42A.9.9,0,0,1,287.07,247.72Z"/><path class="cls-49" d="M288.69,240.85a53.41,53.41,0,0,0-1.09-8.33c-.54-2-1.15-3.65-1.15-3.65a.52.52,0,0,0-.36,0l.08,0s.62,1.61,1.15,3.65a53.42,53.42,0,0,1,1.09,8.33c0,1.31,0,7.1,0,7.1a2,2,0,0,1-.64.19,1.84,1.84,0,0,0,.92-.19S288.68,242.16,288.69,240.85Z"/><path class="cls-48" d="M288.41,240.85a53.42,53.42,0,0,0-1.09-8.33c-.54-2-1.15-3.65-1.15-3.65l-.08,0c-.09,0-.16.16-.11.41a33.45,33.45,0,0,1,1.35,7c.25,3.59-.78,10.64-.25,11.46a.9.9,0,0,0,.7.42,2,2,0,0,0,.64-.19S288.41,242.16,288.41,240.85Z"/><path class="cls-49" d="M285.88,228.8a.6.6,0,0,1,.13.36.61.61,0,0,1-.61.61.61.61,0,0,1-.41-.16.6.6,0,0,0,.48.25.61.61,0,0,0,.61-.61A.61.61,0,0,0,285.88,228.8Z"/><path class="cls-48" d="M286,229.16a.6.6,0,0,0-.13-.36.61.61,0,0,0-.41-.16.61.61,0,0,0-.61.61.6.6,0,0,0,.13.36.61.61,0,0,0,.41.16A.61.61,0,0,0,286,229.16Z"/><path class="cls-49" d="M286.85,228.61a.59.59,0,0,1,.13.36.61.61,0,0,1-.61.61.6.6,0,0,1-.4-.16.59.59,0,0,0,.48.25.61.61,0,0,0,.61-.61A.6.6,0,0,0,286.85,228.61Z"/><path class="cls-48" d="M287,229a.59.59,0,0,0-.13-.36.6.6,0,0,0-.4-.16.61.61,0,0,0-.61.61.59.59,0,0,0,.13.36.6.6,0,0,0,.4.16A.61.61,0,0,0,287,229Z"/><path class="cls-46" d="M285.57,228.33s-.82-2.92.95-4.46a7.31,7.31,0,0,1,6.28-1.65S286.62,221.53,285.57,228.33Z"/><g class="cls-53"><path class="cls-51" d="M286,230.49c.39.05.69-.22,1.09-.25h0a.84.84,0,0,1-.52.26,1.09,1.09,0,0,1-.58,0Z"/><path class="cls-51" d="M286.09,231.07c.39.05.69-.22,1.09-.25h0a.84.84,0,0,1-.52.26,1.09,1.09,0,0,1-.58,0Z"/><path class="cls-51" d="M286.31,231.66c.39.05.69-.22,1.09-.25h0a.84.84,0,0,1-.52.26,1.08,1.08,0,0,1-.58,0Z"/><path class="cls-51" d="M286.32,232.24c.45.07.81-.24,1.26-.28h0a1.06,1.06,0,0,1-.6.29,1.25,1.25,0,0,1-.67,0Z"/><path class="cls-51" d="M286.55,233c.45.07.81-.24,1.26-.28h0a1.06,1.06,0,0,1-.6.29,1.26,1.26,0,0,1-.67,0Z"/><path class="cls-51" d="M286.69,233.93c.45.07.81-.24,1.26-.28h0a1.06,1.06,0,0,1-.6.29,1.26,1.26,0,0,1-.67,0Z"/><path class="cls-51" d="M286.86,235c.45.08.81-.21,1.27-.24h0a1.06,1.06,0,0,1-.61.27,1.25,1.25,0,0,1-.67,0Z"/><path class="cls-51" d="M287,235.79c.44.09.82-.2,1.27-.22h0a1.06,1.06,0,0,1-.61.26,1.25,1.25,0,0,1-.67,0Z"/><path class="cls-51" d="M287,236.62c.44.09.82-.2,1.27-.22h0a1.06,1.06,0,0,1-.61.26,1.25,1.25,0,0,1-.67,0Z"/><path class="cls-51" d="M287.06,237.76c.5.1.94-.21,1.44-.25h0a1.31,1.31,0,0,1-.7.29,1.43,1.43,0,0,1-.75,0Z"/><path class="cls-51" d="M286.95,238.88a1.75,1.75,0,0,0,.82,0,4.45,4.45,0,0,1,.81-.19h0a1.59,1.59,0,0,1-.8.29,1.62,1.62,0,0,1-.85-.06Z"/><path class="cls-51" d="M287,240a2,2,0,0,0,.91,0,6.26,6.26,0,0,1,.91-.21h0a1.9,1.9,0,0,1-.89.32A1.81,1.81,0,0,1,287,240Z"/><path class="cls-51" d="M286.87,241.42a2,2,0,0,0,.95,0,7,7,0,0,1,.94-.22h0a2,2,0,0,1-.92.33,1.88,1.88,0,0,1-1-.06Z"/><path class="cls-51" d="M286.73,242.58a2.19,2.19,0,0,0,1,.09,9.39,9.39,0,0,1,1-.11h0a2.3,2.3,0,0,1-1,.22,2,2,0,0,1-1-.2Z"/><path class="cls-51" d="M286.66,244.25a2.41,2.41,0,0,0,1.14.11c.38-.05.76-.11,1.16-.13h0a2.69,2.69,0,0,1-1.15.24,2.27,2.27,0,0,1-1.15-.21Z"/><path class="cls-51" d="M286.44,245.92a2.65,2.65,0,0,0,1.24.12c.42-.06.83-.11,1.26-.14h0a3.1,3.1,0,0,1-1.26.25,2.51,2.51,0,0,1-1.26-.23Z"/></g><path class="cls-4" d="M295.5,253.53c1.32-.25,2.47-.51,3.19-.69a.71.71,0,0,0,.59.27l.15,0-.71,5.46s6-3.6,1.42-6c1.43.28,4.08,2.23,4.08,2.23a1.91,1.91,0,0,1,1.05-.49,3.59,3.59,0,0,0-.85.68,14.17,14.17,0,0,1,2.31,2.62s0-.08,0-.21a4.55,4.55,0,0,0-1.83-4.64c-1.37-1.11-3.73-.9-4.56-.78a3.86,3.86,0,0,0,2.21-2.36c.64-2.2-2-3.7-2-3.7a7,7,0,0,1,0,3.35,3.22,3.22,0,0,0,1.35,0s-.16.23-1.34.3l-1,2.15a.75.75,0,0,0-.55-.22.83.83,0,0,0-.39.1.45.45,0,0,0-.28.37.39.39,0,0,0,.14.28,49.63,49.63,0,0,1-7.12.94c-3.91.19-11.6-.6-12.49-.19a.67.67,0,0,0-.46.75,1.1,1.1,0,0,0,.21.71h7.74A81,81,0,0,0,295.5,253.53Z"/><path class="cls-46" d="M277.44,233.08l8.81,1S280.88,227.77,277.44,233.08Z"/><path class="cls-47" d="M277,232.73s-.48-3.7,2.25-5.4a9,9,0,0,1,5.62-1.25,19.64,19.64,0,0,0-3.69,2.31,4.18,4.18,0,0,1-1-.85,1.68,1.68,0,0,0,.69,1.05s-3.11,3-3.19,4.34S277,232.73,277,232.73Z"/><polygon class="cls-46" points="268.34 232.21 277.4 233.47 273.25 230.57 268.34 232.21"/><path class="cls-47" d="M277.4,233.47a5,5,0,0,0-3.84-3.24,5.72,5.72,0,0,0-5.22,2,13.75,13.75,0,0,1,4.72,0,2.31,2.31,0,0,0,0-1.35s.32.16.42,1.34Z"/><path class="cls-47" d="M277.36,233.26l8.89.82S280.17,228.5,277.36,233.26Z"/><path class="cls-48" d="M278.6,253.86c-.58-.89.54-8.58.27-12.49a36.46,36.46,0,0,0-1.47-7.63c-.05-.28,0-.4.12-.45-.17-.05-.52-.09-.42.45a36.48,36.48,0,0,1,1.47,7.63c.27,3.91-.85,11.6-.27,12.49a1,1,0,0,0,1.06.46A1,1,0,0,1,278.6,253.86Z"/><path class="cls-49" d="M280.36,246.38a58.22,58.22,0,0,0-1.19-9.07c-.58-2.22-1.26-4-1.26-4a.57.57,0,0,0-.39,0l.09,0s.67,1.76,1.26,4a58.23,58.23,0,0,1,1.19,9.07c0,1.43,0,7.74,0,7.74a2.19,2.19,0,0,1-.7.21,2,2,0,0,0,1-.21S280.36,247.8,280.36,246.38Z"/><path class="cls-48" d="M280.06,246.38a58.23,58.23,0,0,0-1.19-9.07c-.58-2.22-1.26-4-1.26-4l-.09,0c-.1,0-.17.17-.12.45a36.46,36.46,0,0,1,1.47,7.63c.27,3.91-.85,11.6-.27,12.49a1,1,0,0,0,.76.46,2.19,2.19,0,0,0,.7-.21S280.06,247.8,280.06,246.38Z"/><path class="cls-49" d="M277.3,233.23a.65.65,0,0,1,.14.39.67.67,0,0,1-.67.67.66.66,0,0,1-.44-.18.66.66,0,0,0,.53.28.67.67,0,0,0,.67-.67A.66.66,0,0,0,277.3,233.23Z"/><path class="cls-48" d="M277.44,233.63a.65.65,0,0,0-.14-.39.66.66,0,0,0-.44-.18.67.67,0,0,0-.67.67.65.65,0,0,0,.14.39.66.66,0,0,0,.44.18A.67.67,0,0,0,277.44,233.63Z"/><path class="cls-49" d="M278.36,233a.64.64,0,0,1,.14.39.66.66,0,0,1-.66.66.65.65,0,0,1-.44-.17.65.65,0,0,0,.52.27.66.66,0,0,0,.66-.66A.65.65,0,0,0,278.36,233Z"/><path class="cls-48" d="M278.5,233.42a.64.64,0,0,0-.14-.39.65.65,0,0,0-.44-.17.66.66,0,0,0-.66.66.65.65,0,0,0,.14.39.65.65,0,0,0,.44.17A.66.66,0,0,0,278.5,233.42Z"/><path class="cls-46" d="M277,232.73s-.89-3.18,1-4.86a8,8,0,0,1,6.84-1.8S278.11,225.31,277,232.73Z"/><g class="cls-54"><path class="cls-51" d="M277.38,235.08a1.33,1.33,0,0,0,.59-.1,1.74,1.74,0,0,1,.59-.17h0a.92.92,0,0,1-.57.28,1.18,1.18,0,0,1-.64,0Z"/><path class="cls-51" d="M277.52,235.72a1.34,1.34,0,0,0,.59-.1,1.73,1.73,0,0,1,.59-.17h0a.92.92,0,0,1-.57.28,1.18,1.18,0,0,1-.64,0Z"/><path class="cls-51" d="M277.77,236.35a1.34,1.34,0,0,0,.59-.1,1.73,1.73,0,0,1,.59-.17h0a.92.92,0,0,1-.57.28,1.18,1.18,0,0,1-.64,0Z"/><path class="cls-51" d="M277.78,237c.49.07.88-.26,1.37-.31h0a1.16,1.16,0,0,1-.66.31,1.37,1.37,0,0,1-.73,0Z"/><path class="cls-51" d="M278,237.84c.49.07.88-.26,1.37-.31h0a1.16,1.16,0,0,1-.66.31,1.37,1.37,0,0,1-.73,0Z"/><path class="cls-51" d="M278.18,238.83c.49.07.88-.26,1.37-.31h0a1.16,1.16,0,0,1-.66.31,1.37,1.37,0,0,1-.73,0Z"/><path class="cls-51" d="M278.36,240c.49.09.89-.23,1.38-.26h0a1.16,1.16,0,0,1-.67.29,1.37,1.37,0,0,1-.73,0Z"/><path class="cls-51" d="M278.47,240.86c.48.09.89-.22,1.38-.24h0a1.16,1.16,0,0,1-.67.28,1.37,1.37,0,0,1-.73,0Z"/><path class="cls-51" d="M278.55,241.76c.49.09.89-.22,1.38-.24h0a1.16,1.16,0,0,1-.67.28,1.37,1.37,0,0,1-.73,0Z"/><path class="cls-51" d="M278.58,243a1.71,1.71,0,0,0,.79-.07,3.47,3.47,0,0,1,.78-.2h0a1.43,1.43,0,0,1-.76.31,1.56,1.56,0,0,1-.82,0Z"/><path class="cls-51" d="M278.46,244.23a1.91,1.91,0,0,0,.89,0,4.86,4.86,0,0,1,.89-.2v0a1.73,1.73,0,0,1-.87.32,1.76,1.76,0,0,1-.92-.07Z"/><path class="cls-51" d="M278.48,245.42a2.13,2.13,0,0,0,1,0,6.82,6.82,0,0,1,1-.23v0a2.07,2.07,0,0,1-1,.35,2,2,0,0,1-1-.07Z"/><path class="cls-51" d="M278.38,247a2.2,2.2,0,0,0,1,0,7.62,7.62,0,0,1,1-.24v0a2.18,2.18,0,0,1-1,.36,2,2,0,0,1-1.06-.07Z"/><path class="cls-51" d="M278.23,248.26a2.39,2.39,0,0,0,1.12.1,10.25,10.25,0,0,1,1.14-.12v0a2.51,2.51,0,0,1-1.14.24,2.23,2.23,0,0,1-1.14-.22Z"/><path class="cls-51" d="M278.15,250.08a2.62,2.62,0,0,0,1.24.12c.42-.06.83-.12,1.26-.14v0a2.93,2.93,0,0,1-1.26.26,2.47,2.47,0,0,1-1.26-.23Z"/><path class="cls-51" d="M277.91,251.9a2.89,2.89,0,0,0,1.36.14c.46-.06.91-.12,1.38-.16v0a3.38,3.38,0,0,1-1.37.27,2.74,2.74,0,0,1-1.37-.25Z"/></g><path class="cls-55" d="M187.47,222.32s11-4.29,11.34-6.95a2.26,2.26,0,0,0-2.32-2.67s8.66-1.63,15.93,11.71S187.47,222.32,187.47,222.32Z"/><path class="cls-56" d="M216.64,271.59s6.46-2.52,6.66-4.08a1.33,1.33,0,0,0-1.36-1.57s5.09-1,9.36,6.88S216.64,271.59,216.64,271.59Z"/><path class="cls-57" d="M172.92,248s8.67-3.38,8.94-5.47a1.78,1.78,0,0,0-1.83-2.1s6.82-1.29,12.55,9.22S172.92,248,172.92,248Z"/><path class="cls-58" d="M151.93,236.5s6.46-2.52,6.66-4.08a1.33,1.33,0,0,0-1.36-1.57s5.09-1,9.36,6.88S151.93,236.5,151.93,236.5Z"/><path class="cls-59" d="M212.58,241.75s6.46-2.52,6.66-4.08a1.33,1.33,0,0,0-1.36-1.57s5.09-1,9.36,6.88S212.58,241.75,212.58,241.75Z"/><path class="cls-60" d="M234.06,225.72s6.46-2.52,6.66-4.08a1.33,1.33,0,0,0-1.36-1.57s5.09-1,9.36,6.88S234.06,225.72,234.06,225.72Z"/><path class="cls-61" d="M239.84,251.44s7.21-2.81,7.43-4.55a1.48,1.48,0,0,0-1.52-1.75s5.68-1.07,10.44,7.68S239.84,251.44,239.84,251.44Z"/><path class="cls-62" d="M194.58,242.81a13.4,13.4,0,0,1,6.81,1.77c3.69,2.24,7.66,7.78,7.73,7.87-.22,0-7-1.06-10.61-3.29a13.4,13.4,0,0,1-5.13-6.28A9.28,9.28,0,0,1,194.58,242.81Z"/><g class="cls-24"><path class="cls-3" d="M209.11,252.45h0a1.16,1.16,0,0,1-1.37,1.14c-2.2-.42-6.55-1.41-9.23-3.05a13.13,13.13,0,0,1-4.69-5.29,4.19,4.19,0,0,1-.44-1.87v-.5a13.4,13.4,0,0,0,5.13,6.28C202.16,251.38,208.9,252.42,209.11,252.45Z"/><g class="cls-63"><g class="cls-24"><path class="cls-3" d="M209.11,252.45h0a1.16,1.16,0,0,1-1.37,1.14c-2.2-.42-6.55-1.41-9.23-3.05a13,13,0,0,1-4.54-5,5.08,5.08,0,0,1-.59-2.37v-.28a13.4,13.4,0,0,0,5.13,6.28c3.65,2.23,10.39,3.26,10.61,3.29"/></g></g></g><path class="cls-26" d="M200,246.94a.16.16,0,0,1-.16-.16V230.62a.16.16,0,1,1,.32,0v16.16A.16.16,0,0,1,200,246.94Z"/><path class="cls-27" d="M200.51,230.62s6.1,8.65,5.43,15.25l-5.43-3.27s.92-1,0-3.48A16,16,0,0,0,200.51,230.62Z"/><polygon class="cls-4" points="229.1 151.38 299.6 192.34 229.23 233.14 158.68 192.27 229.1 151.38"/><polygon class="cls-64" points="159.38 165.02 229.84 205.87 300.09 165.1 229.74 124.26 159.38 165.02"/><polygon class="cls-65" points="159.51 165.1 159.51 181.16 229.8 222.35 229.68 205.78 159.51 165.1"/><polygon class="cls-66" points="229.68 205.78 300.09 165.1 300.09 181.57 229.8 222.35 229.68 205.78"/><polygon class="cls-4" points="204.85 168.26 294.64 168.22 300.11 165.1 208.91 164.81 204.85 168.26"/><polygon class="cls-4" points="231.97 155.18 282.7 155.18 277.83 152.2 229.66 151.84 231.97 155.18"/><polygon class="cls-67" points="220.05 110.73 227.23 107.19 227.23 108.4 220.42 112.08 220.05 110.73"/><polygon class="cls-68" points="220.05 110.03 227.38 106.6 227.23 107.19 220.05 110.73 220.05 110.03"/><polygon class="cls-67" points="236.82 110.73 229.78 107.14 229.78 108.38 236.46 112.08 236.82 110.73"/><polygon class="cls-69" points="229.59 107.04 236.93 110.81 236.77 110.14 229.59 106.6 229.59 107.04"/><polygon class="cls-67" points="243.53 133.37 230.9 126.92 230.9 129.14 242.88 135.78 243.53 133.37"/><polygon class="cls-69" points="230.56 126.75 243.73 133.51 243.43 132.31 230.56 125.96 230.56 126.75"/><polygon class="cls-67" points="213.47 133.37 226.34 127.01 226.34 129.19 214.13 135.78 213.47 133.37"/><polygon class="cls-68" points="213.47 132.12 226.6 125.96 226.34 127.01 213.47 133.37 213.47 132.12"/><polygon class="cls-67" points="204.85 168.26 208.91 165.96 227.26 87.41 226.34 89.26 204.85 168.26"/><polygon class="cls-68" points="252.2 168.26 248.14 165.96 229.79 87.41 230.71 89.26 252.2 168.26"/><polygon class="cls-70" points="228.61 85.12 224.69 87.4 228.61 89.69 232.57 87.41 228.61 85.12"/><polygon class="cls-68" points="224.69 88.29 200.85 165.91 204.85 168.26 226.34 89.26 224.69 88.29"/><polygon class="cls-67" points="256.4 165.96 232.57 88.3 230.66 89.4 252.2 168.26 256.4 165.96"/><polygon class="cls-67" points="229.99 89.78 232.55 179.8 228.57 182.12 228.61 90.58 229.99 89.78"/><polygon class="cls-68" points="227.19 89.74 224.6 179.8 228.57 182.12 228.61 90.58 227.19 89.74"/><polygon class="cls-68" points="224.69 87.4 224.69 88.29 228.61 90.58 228.61 89.69 224.69 87.4"/><polygon class="cls-67" points="232.57 87.38 232.57 88.28 228.61 90.6 228.61 89.7 232.57 87.38"/><ellipse class="cls-67" cx="228.68" cy="87.28" rx="2.21" ry="1.05"/><path class="cls-69" d="M229.06,77.61a2.61,2.61,0,0,1-2.16,4.57,2.62,2.62,0,1,0,2.16-4.57Z"/><path class="cls-68" d="M230,79.6a2.61,2.61,0,1,0-2.62,2.62A2.61,2.61,0,0,0,230,79.6Z"/><polygon class="cls-68" points="213.47 136.58 226.1 143.97 226.1 140.27 214.13 134.17 213.47 136.58"/><polygon class="cls-67" points="243.56 136.56 230.9 143.97 230.9 140.27 242.9 134.16 243.56 136.56"/><polygon class="cls-69" points="214.13 134.17 216.66 132.78 225.82 137.17 225.74 140.09 214.13 134.17"/><polygon class="cls-69" points="242.88 134.17 240.52 132.66 231.34 137.07 231.42 140.01 242.88 134.17"/><polygon class="cls-68" points="220 112.52 226.43 116.28 226.48 114.3 220.37 111.18 220 112.52"/><polygon class="cls-67" points="237.11 112.35 229.78 116.64 229.78 114.58 236.82 110.99 237.11 112.35"/><polygon class="cls-69" points="220.37 111.18 221.78 110.4 226.53 112.68 226.48 114.3 220.37 111.18"/><polygon class="cls-69" points="236.56 111.12 235.14 110.34 230.64 112.5 230.67 114.27 236.56 111.12"/><path class="cls-71" d="M220.4,84.24a9.32,9.32,0,1,1,16.54,0,.38.38,0,0,0,0,.32h0a.38.38,0,0,0,.69,0,10,10,0,0,0,1.14-4.9A10.08,10.08,0,0,0,218.6,80a10,10,0,0,0,1.13,4.62.38.38,0,0,0,.69,0h0A.38.38,0,0,0,220.4,84.24Z"/><path class="cls-71" d="M227.78,58.43a22.42,22.42,0,0,0-13.47,39.64.76.76,0,0,0,1.18-.29h0a.75.75,0,0,0-.21-.87,20.92,20.92,0,1,1,26.8,0,.75.75,0,0,0-.21.87h0a.76.76,0,0,0,1.18.29,22.42,22.42,0,0,0-15.27-39.62Z"/><path class="cls-71" d="M218.08,90.41h0a.61.61,0,0,0-.12-.65,14.61,14.61,0,1,1,21.41-.13.61.61,0,0,0-.12.65h0a.6.6,0,0,0,1,.18,15.82,15.82,0,1,0-23.17.12A.6.6,0,0,0,218.08,90.41Z"/><polygon class="cls-4" points="228.57 182.12 270.58 182.12 277.05 178.39 232.5 178.02 228.57 182.12"/></g></svg>