<svg xmlns="http://www.w3.org/2000/svg" xmlns:xlink="http://www.w3.org/1999/xlink" viewBox="0 0 504 504"><defs><style>.cls-1{fill:#584d5b;}.cls-2{fill:#b1c185;}.cls-3,.cls-46{fill:#5c515f;}.cls-3{opacity:0.6;}.cls-4{fill:#93734c;}.cls-5{fill:#aeba83;}.cls-6{fill:#cee09b;}.cls-7{fill:#67b7b7;}.cls-8{fill:#79d7db;}.cls-9{fill:#e0ae4b;}.cls-10{fill:#e5bd5c;}.cls-11{fill:#c1ce91;}.cls-12{fill:#7d845e;}.cls-13{fill:#c7b299;}.cls-14{fill:#bca493;}.cls-15{fill:#aa9587;}.cls-16{fill:url(#linear-gradient);}.cls-17{fill:url(#linear-gradient-2);}.cls-18{fill:url(#linear-gradient-3);}.cls-19{fill:url(#linear-gradient-4);}.cls-20{fill:url(#linear-gradient-5);}.cls-21{fill:url(#linear-gradient-6);}.cls-22{fill:url(#linear-gradient-7);}.cls-23{fill:#a1af79;}.cls-24{fill:url(#linear-gradient-8);}.cls-25{fill:url(#linear-gradient-9);}.cls-26{fill:url(#linear-gradient-10);}.cls-27{fill:url(#linear-gradient-11);}.cls-28{fill:url(#linear-gradient-12);}.cls-29{fill:url(#linear-gradient-13);}.cls-30{fill:url(#linear-gradient-14);}.cls-31{fill:#d8bdab;}.cls-32{fill:#f9d162;}.cls-33{fill:#c19e4f;}.cls-34{fill:none;stroke:#e5bd5c;stroke-linecap:round;stroke-linejoin:round;stroke-width:2.21px;}.cls-35{fill:#d4c0dd;}.cls-36{fill:#6c6170;}.cls-37{fill:url(#linear-gradient-15);}.cls-38{fill:url(#linear-gradient-16);}.cls-39{fill:url(#linear-gradient-17);}.cls-40{fill:#a78746;}.cls-41{fill:#f2d651;}.cls-42{fill:#ccc;}.cls-43{fill:#b5b5b5;}.cls-44{fill:#727272;}.cls-45{fill:#ab9bb2;}.cls-47{fill:#9a8aa0;}.cls-48{fill:#908697;}.cls-49{fill:#4f4652;}.cls-50{clip-path:url(#clip-path);}.cls-51{isolation:isolate;}.cls-52{clip-path:url(#clip-path-2);}.cls-53{fill:#5b505e;}.cls-54{fill:#312b32;}.cls-55{fill:#a69bae;}.cls-56{fill:#5a4f5d;}.cls-57{fill:#342e36;}.cls-58{fill:#4c434f;}.cls-59{fill:#332d35;}.cls-60{fill:#4c434e;}.cls-61{clip-path:url(#clip-path-3);}.cls-62{clip-path:url(#clip-path-4);}.cls-63{fill:#2b2b2b;}.cls-64{fill:#bcabc4;}.cls-65{fill:#2e2930;}.cls-66{fill:#b0eaea;}.cls-67{fill:#625866;}.cls-68{fill:#545454;}.cls-69{fill:#828282;}.cls-70{fill:#dbc961;}.cls-71{fill:#fff;opacity:0.9;}</style><linearGradient id="linear-gradient" x1="137.1" y1="191.43" x2="135.67" y2="207.9" gradientTransform="translate(-3.58 -17.01) rotate(0.22)" gradientUnits="userSpaceOnUse"><stop offset="0" stop-color="#9eefef"/><stop offset="0.03" stop-color="#9deded" stop-opacity="0.93"/><stop offset="0.17" stop-color="#99e4e5" stop-opacity="0.65"/><stop offset="0.31" stop-color="#95ddde" stop-opacity="0.42"/><stop offset="0.43" stop-color="#93d7d9" stop-opacity="0.24"/><stop offset="0.54" stop-color="#91d3d5" stop-opacity="0.11"/><stop offset="0.63" stop-color="#8fd1d3" stop-opacity="0.03"/><stop offset="0.7" stop-color="#8fd0d2" stop-opacity="0"/></linearGradient><linearGradient id="linear-gradient-2" x1="134.51" y1="236.25" x2="133.68" y2="245.92" xlink:href="#linear-gradient"/><linearGradient id="linear-gradient-3" x1="119.72" y1="218.48" x2="118.59" y2="231.45" xlink:href="#linear-gradient"/><linearGradient id="linear-gradient-4" x1="95.93" y1="208.34" x2="95.09" y2="218.02" xlink:href="#linear-gradient"/><linearGradient id="linear-gradient-5" x1="156.59" y1="213.36" x2="155.75" y2="223.03" xlink:href="#linear-gradient"/><linearGradient id="linear-gradient-6" x1="160.08" y1="197.31" x2="159.24" y2="206.99" xlink:href="#linear-gradient"/><linearGradient id="linear-gradient-7" x1="159.26" y1="230.75" x2="158.33" y2="241.54" xlink:href="#linear-gradient"/><linearGradient id="linear-gradient-8" x1="364.68" y1="188.7" x2="363.25" y2="205.17" xlink:href="#linear-gradient"/><linearGradient id="linear-gradient-9" x1="362.09" y1="233.52" x2="361.26" y2="243.19" xlink:href="#linear-gradient"/><linearGradient id="linear-gradient-10" x1="347.3" y1="215.75" x2="346.17" y2="228.72" xlink:href="#linear-gradient"/><linearGradient id="linear-gradient-11" x1="323.51" y1="205.61" x2="322.67" y2="215.29" xlink:href="#linear-gradient"/><linearGradient id="linear-gradient-12" x1="384.17" y1="210.63" x2="383.33" y2="220.3" xlink:href="#linear-gradient"/><linearGradient id="linear-gradient-13" x1="387.66" y1="194.58" x2="386.82" y2="204.26" xlink:href="#linear-gradient"/><linearGradient id="linear-gradient-14" x1="386.84" y1="228.02" x2="385.91" y2="238.81" xlink:href="#linear-gradient"/><linearGradient id="linear-gradient-15" x1="182.59" y1="258.79" x2="184.61" y2="258.79" gradientUnits="userSpaceOnUse"><stop offset="0.01" stop-color="#d4c0dd"/><stop offset="1" stop-color="#464049"/></linearGradient><linearGradient id="linear-gradient-16" x1="244.28" y1="273.56" x2="246.29" y2="273.56" xlink:href="#linear-gradient-15"/><linearGradient id="linear-gradient-17" x1="274.46" y1="261.52" x2="276.74" y2="261.52" xlink:href="#linear-gradient-15"/><clipPath id="clip-path"><path class="cls-1" d="M237.46,140.36l6.32-3.67a3,3,0,0,1,3,.3l-6.32,3.67A3,3,0,0,0,237.46,140.36Z"/></clipPath><clipPath id="clip-path-2"><path class="cls-1" d="M249.81,147l-6.32,3.67a3,3,0,0,0,1.24-2.73,9.34,9.34,0,0,0-4.24-7.34l6.32-3.67a9.34,9.34,0,0,1,4.24,7.34A3,3,0,0,1,249.81,147Z"/></clipPath><clipPath id="clip-path-3"><path class="cls-1" d="M261.19,138.23l6.32-3.67a3,3,0,0,1,3,.3l-6.32,3.67A3,3,0,0,0,261.19,138.23Z"/></clipPath><clipPath id="clip-path-4"><path class="cls-1" d="M273.54,144.92l-6.32,3.67a3,3,0,0,0,1.24-2.73,9.34,9.34,0,0,0-4.24-7.34l6.32-3.67a9.34,9.34,0,0,1,4.24,7.34A3,3,0,0,1,273.54,144.92Z"/></clipPath></defs><title>logos-mega</title><g id="Layer_16" data-name="Layer 16"><path class="cls-2" d="M144.17,140.31s13-32.48,32.27-42.89,29.72-3.61,38.22-10.4S242,76,248.41,79.59s104,60.63,104,60.63L248.09,200.51Z"/><path class="cls-3" d="M252.38,84.32s-14.88-6.1-19.17-.48l-3.53,0v.53l3.48,0C236.14,89.69,252.38,84.32,252.38,84.32Z"/><rect class="cls-4" x="229.68" y="79.04" width="0.66" height="5.28"/><path class="cls-5" d="M230,63.47V81.27C237.19,78.84,230,63.47,230,63.47Z"/><path class="cls-6" d="M230,81.27V63.47S222.34,77.64,230,81.27Z"/><path class="cls-3" d="M242.57,90.49s-14.88-6.1-19.17-.48l-3.53,0v.53l3.48,0C226.33,95.85,242.57,90.49,242.57,90.49Z"/><rect class="cls-4" x="219.86" y="85.21" width="0.66" height="5.28"/><path class="cls-5" d="M220.19,69.64V87.43C227.37,85,220.19,69.64,220.19,69.64Z"/><path class="cls-6" d="M220.19,87.43V69.64S212.53,83.81,220.19,87.43Z"/><path class="cls-3" d="M179.16,136.62s-14.88-6.1-19.17-.48l-3.53,0v.53l3.48,0C162.92,142,179.16,136.62,179.16,136.62Z"/><rect class="cls-4" x="156.45" y="131.34" width="0.66" height="5.28"/><path class="cls-5" d="M156.79,115.77v17.79C164,131.14,156.79,115.77,156.79,115.77Z"/><path class="cls-6" d="M156.79,133.56V115.77S149.12,129.93,156.79,133.56Z"/><path class="cls-3" d="M194.38,120.71s-19.85-8.14-25.58-.64l-4.71-.05v.71l4.64.05C172.71,127.87,194.38,120.71,194.38,120.71Z"/><rect class="cls-4" x="164.08" y="113.67" width="0.89" height="7.04"/><path class="cls-5" d="M164.52,92.89v23.74C174.1,113.4,164.52,92.89,164.52,92.89Z"/><path class="cls-6" d="M164.52,116.63V92.89S154.29,111.79,164.52,116.63Z"/><path class="cls-3" d="M203.18,114.11s-19.85-8.14-25.58-.64l-4.71-.05v.71l4.64.05C181.51,121.27,203.18,114.11,203.18,114.11Z"/><rect class="cls-4" x="172.89" y="107.07" width="0.89" height="7.04"/><path class="cls-5" d="M173.33,86.29V110C182.91,106.8,173.33,86.29,173.33,86.29Z"/><path class="cls-6" d="M173.33,110V86.29S163.1,105.19,173.33,110Z"/><path class="cls-7" d="M215,142.27c5.28-8.69,10.65-19.81,19.12-21.51s17.52,1.77,32.33-8.37c13.41-9.18,14.46-13.06,14.54-13.71l-1.62-.94s.27,3.68-14.54,13.81-23.85,6.67-32.33,8.37-13.84,12.82-19.12,21.51c-6.2,10.2-34.24,19.22-34.24,19.22l8.64,5,.11,0-7.13-4.12S208.82,152.47,215,142.27Z"/><path class="cls-8" d="M218.9,147.77c6.87-9.69,8.89-16.51,13.21-20.46s14.23-3.87,26.4-6.43S285.06,101,285.06,101l-4-2.36c-.08.65-1.13,4.54-14.54,13.71-14.81,10.14-23.85,6.67-32.33,8.37S220.3,133.58,215,142.27c-6.2,10.2-34.24,19.22-34.24,19.22l7.13,4.12C189.56,165.14,211.11,158.78,218.9,147.77Z"/><path class="cls-3" d="M274.36,130.79s-14.88-6.1-19.17-.48l-3.53,0v.53l3.48,0C258.12,136.16,274.36,130.79,274.36,130.79Z"/><rect class="cls-4" x="251.66" y="125.51" width="0.66" height="5.28"/><path class="cls-9" d="M252,109.94v17.79C259.17,125.31,252,109.94,252,109.94Z"/><path class="cls-10" d="M252,127.74V109.94S244.32,124.11,252,127.74Z"/><path class="cls-3" d="M256.19,153.9s-14.88-6.1-19.17-.48l-3.53,0v.53l3.48,0C239.95,159.26,256.19,153.9,256.19,153.9Z"/><rect class="cls-4" x="233.48" y="148.62" width="0.66" height="5.28"/><path class="cls-5" d="M233.81,133v17.79C241,148.42,233.81,133,233.81,133Z"/><path class="cls-6" d="M233.81,150.84V133S226.15,147.21,233.81,150.84Z"/><path class="cls-3" d="M266.22,163.12s-14.88-6.1-19.17-.48l-3.53,0v.53l3.48,0C250,168.48,266.22,163.12,266.22,163.12Z"/><rect class="cls-4" x="243.51" y="157.84" width="0.66" height="5.28"/><path class="cls-5" d="M243.85,142.27v17.79C251,157.64,243.85,142.27,243.85,142.27Z"/><path class="cls-6" d="M243.85,160.06V142.27S236.18,156.44,243.85,160.06Z"/><path class="cls-3" d="M270.34,139.61s-18.43-7.55-23.74-.59l-4.37,0v.66l4.31,0C250.22,146.25,270.34,139.61,270.34,139.61Z"/><rect class="cls-4" x="242.21" y="133.07" width="0.82" height="6.54"/><path class="cls-5" d="M242.62,113.78v22C251.51,132.82,242.62,113.78,242.62,113.78Z"/><path class="cls-6" d="M242.62,135.82v-22S233.13,131.33,242.62,135.82Z"/><path class="cls-3" d="M266.47,145.56s-14.88-6.1-19.17-.48l-3.53,0v.53l3.48,0C250.23,150.93,266.47,145.56,266.47,145.56Z"/><rect class="cls-4" x="243.77" y="140.28" width="0.66" height="5.28"/><path class="cls-9" d="M244.1,124.71V142.5C251.28,140.08,244.1,124.71,244.1,124.71Z"/><path class="cls-10" d="M244.1,142.5V124.71S236.43,138.88,244.1,142.5Z"/><path class="cls-3" d="M188.35,130.42s-14.88-6.1-19.17-.48l-3.53,0v.53l3.48,0C172.11,135.78,188.35,130.42,188.35,130.42Z"/><rect class="cls-4" x="165.64" y="125.14" width="0.66" height="5.28"/><path class="cls-9" d="M166,109.57v17.79C173.15,124.94,166,109.57,166,109.57Z"/><path class="cls-10" d="M166,127.36V109.57S158.31,123.73,166,127.36Z"/><path class="cls-3" d="M205,102.11s-14.88-6.1-19.17-.48l-3.53,0v.53l3.48,0C188.77,107.48,205,102.11,205,102.11Z"/><rect class="cls-4" x="182.31" y="96.84" width="0.66" height="5.28"/><path class="cls-9" d="M182.64,81.27V99.06C189.82,96.64,182.64,81.27,182.64,81.27Z"/><path class="cls-10" d="M182.64,99.06V81.27S175,95.43,182.64,99.06Z"/><path class="cls-3" d="M189.89,147s-14.88-6.1-19.17-.48l-3.53,0V147l3.48,0C173.64,152.39,189.89,147,189.89,147Z"/><rect class="cls-4" x="167.18" y="141.75" width="0.66" height="5.28"/><path class="cls-9" d="M167.51,126.18V144C174.69,141.55,167.51,126.18,167.51,126.18Z"/><path class="cls-10" d="M167.51,144V126.18S159.84,140.34,167.51,144Z"/><path class="cls-3" d="M202.78,135.4s-14.88-6.1-19.17-.48l-3.53,0v.53l3.48,0C186.54,140.77,202.78,135.4,202.78,135.4Z"/><rect class="cls-4" x="180.07" y="130.12" width="0.66" height="5.28"/><path class="cls-5" d="M180.4,114.55v17.79C187.58,129.92,180.4,114.55,180.4,114.55Z"/><path class="cls-6" d="M180.4,132.34V114.55S172.74,128.72,180.4,132.34Z"/><polygon class="cls-11" points="144.38 140.5 144.38 164.25 248.27 225.12 248.08 200.63 144.38 140.5"/><polygon class="cls-12" points="248.09 200.51 352.16 140.38 352.16 164.72 248.28 225 248.09 200.51"/><polygon class="cls-3" points="134.08 191.15 30.19 251.52 133.89 311.65 237.87 251.41 134.08 191.15"/><path class="cls-3" d="M257.75,253.37s12.92-32.41,32.19-42.78,29.65-3.6,38.12-10.38,27.32-11,33.68-7.41S465.5,253.28,465.5,253.28L361.42,313.42Z"/><polygon class="cls-11" points="30.23 206.86 30.23 230.61 134.12 291.48 133.93 266.99 30.23 206.86"/><polygon class="cls-12" points="133.94 266.98 238.01 206.85 238.01 231.19 134.13 291.47 133.94 266.98"/><polygon class="cls-13" points="134.19 146.47 30.3 206.85 134 266.98 237.98 206.73 134.19 146.47"/><path class="cls-14" d="M186.83,214.82a12.54,12.54,0,0,1-4.67-5.5c-1.09-2.58-5-10.48-4.28-11.47s.3-5.49,1.15-6.24.65,4.19,2.26,8.83,1.5,7.33,3.61,7.83S186.83,214.82,186.83,214.82Z"/><path class="cls-14" d="M141.77,161c-3.32.45-12.49-3.14-12.2-5.14s.9-.61,4.91-2.6,3.67,5.79,6.29,6.23S141.77,161,141.77,161Z"/><path class="cls-14" d="M58.85,213.35c2.06.55-4.06.74-4.06.74a22.43,22.43,0,0,1-8.17-6.42c-3.25-4.33.56-2.39.56-2.39A22.11,22.11,0,0,0,58.85,213.35Z"/><path class="cls-14" d="M132.13,244.06c-10.64,0-18.85-4.78-22-12.78-2.09-5.38-8.23-7.67-16-10.56-5.63-2.1-12-4.47-18.17-8.55-5.73-3.8-8.15-6.63-8.37-9.76-.26-3.68,2.56-6.18,5.83-9.09a50.39,50.39,0,0,0,7.66-8c9.63-13.15,30.44-17.8,31.32-18l.28-.06H113c.2,0,20-.63,31.71-1.47,1.46-.1,2.77-.15,4-.15,10.7,0,16.22,3.92,19.06,13.52,2,6.77,14.65,11.18,21.44,13.56l2.34.83c4.56,1.66,9.14,6.17,9.08,11.6,0,3.83-2.3,9.13-12.83,12.69-9,3-16.72,8.27-24.21,13.33-5.92,4-11.51,7.78-17.21,10.09A38.41,38.41,0,0,1,132.13,244.06Z"/><path class="cls-8" d="M113.11,170.4s-20.41,4.43-29.44,16.77-20.55,12.67-5.93,22.37,31,9.42,35.37,20.6,19.74,13.19,32.11,8.17,25-17.87,41.6-23.49,10.59-15.81,3.68-18.33-23-7.22-25.73-16.46-7.92-12-19.83-11.11S113.11,170.4,113.11,170.4Z"/><path class="cls-14" d="M84.12,221s-3.31,2.2-1.65,4.69,7.17,2.48,7.17,2.48L91,223.34,88,220a13.59,13.59,0,0,1-2.48,1.24A3.2,3.2,0,0,1,84.12,221Z"/><path class="cls-15" d="M82.42,222.77s.82,2.07,1.82,2.15a10.06,10.06,0,0,0,3.14-.84l1.32,1.26,2.31-2-1.38,4.78a10.54,10.54,0,0,1-6.09-1.46C80.59,224.84,82.42,222.77,82.42,222.77Z"/><path class="cls-14" d="M89.73,228.13s.35,2,1.81,1.69S94.1,227,94.1,227l-1.91-1.58-2.1.7a6.77,6.77,0,0,1,.07,1.38A1.59,1.59,0,0,1,89.73,228.13Z"/><path class="cls-15" d="M90.22,229.27s1.11,0,1.34-.4a5,5,0,0,0,.24-1.6l.84-.35-.45-1.46L94.1,227a5.25,5.25,0,0,1-1.89,2.49C90.8,230.52,90.22,229.27,90.22,229.27Z"/><path class="cls-16" d="M119,181.17s11-4.29,11.34-6.95a2.26,2.26,0,0,0-2.32-2.67s8.66-1.63,15.93,11.71S119,181.17,119,181.17Z"/><path class="cls-17" d="M121.92,223.41s6.46-2.52,6.66-4.08a1.33,1.33,0,0,0-1.36-1.57s5.09-1,9.36,6.88S121.92,223.41,121.92,223.41Z"/><path class="cls-18" d="M104.42,206.83s8.67-3.38,8.94-5.47a1.78,1.78,0,0,0-1.83-2.1s6.82-1.29,12.55,9.22S104.42,206.83,104.42,206.83Z"/><path class="cls-19" d="M83.43,195.36s6.46-2.52,6.66-4.08a1.33,1.33,0,0,0-1.36-1.57s5.09-1,9.36,6.88S83.43,195.36,83.43,195.36Z"/><path class="cls-20" d="M144.08,200.6s6.46-2.52,6.66-4.08a1.33,1.33,0,0,0-1.36-1.57s5.09-1,9.36,6.88S144.08,200.6,144.08,200.6Z"/><path class="cls-21" d="M147.63,184.57s6.46-2.52,6.66-4.08a1.33,1.33,0,0,0-1.36-1.57s5.09-1,9.36,6.88S147.63,184.57,147.63,184.57Z"/><path class="cls-22" d="M145.74,218.43s7.21-2.81,7.43-4.55a1.48,1.48,0,0,0-1.52-1.75s5.68-1.07,10.44,7.68S145.74,218.43,145.74,218.43Z"/><path class="cls-23" d="M134,146.47,30.07,206.85,133.77,267l104-60.24Zm29.63,97.83c-6.11,1.15-28.26,13.75-38.85,13S107.07,239,99.05,238.78s-18.77-11.31-25.59-16.9S56.66,215.18,54,207.82s5.35-11.26,5.35-11.26,5.75-9.5,13.75-10.79,27.11-16.32,40.86-23,12.1-1.19,25.64,0,30.28,7.61,32.2,10.51,16.66,13.43,31.52,20,2.58,24,0,28.51S169.7,243.16,163.59,244.3Z"/><path class="cls-3" d="M150.08,158.59s-14.86-6.09-19.14-.48l-3.52,0v.53l3.48,0C133.86,163.94,150.08,158.59,150.08,158.59Z"/><rect class="cls-4" x="127.4" y="153.31" width="0.66" height="5.27"/><path class="cls-9" d="M127.74,137.76v17.77C134.9,153.11,127.74,137.76,127.74,137.76Z"/><path class="cls-10" d="M127.74,155.53V137.76S120.08,151.91,127.74,155.53Z"/><path class="cls-3" d="M151.43,163.52s-10.57-4.33-13.62-.34l-2.51,0v.38l2.47,0C139.89,167.33,151.43,163.52,151.43,163.52Z"/><rect class="cls-4" x="135.3" y="159.77" width="0.47" height="3.75"/><path class="cls-9" d="M135.53,148.7v12.64C140.63,159.62,135.53,148.7,135.53,148.7Z"/><path class="cls-10" d="M135.53,161.34V148.7S130.09,158.77,135.53,161.34Z"/><path class="cls-3" d="M123.47,244.09s-14.86-6.09-19.14-.48l-3.52,0v.53l3.48,0C107.25,249.45,123.47,244.09,123.47,244.09Z"/><rect class="cls-4" x="100.79" y="238.82" width="0.66" height="5.27"/><path class="cls-5" d="M101.12,223.27V241C108.29,238.62,101.12,223.27,101.12,223.27Z"/><path class="cls-6" d="M101.12,241V223.27S93.46,237.41,101.12,241Z"/><path class="cls-3" d="M140.72,250.94s-18.66-7.65-24-.6l-4.42,0V251l4.36,0C120.35,257.67,140.72,250.94,140.72,250.94Z"/><rect class="cls-4" x="112.25" y="244.32" width="0.83" height="6.62"/><path class="cls-5" d="M112.66,224.8v22.31C121.67,244.07,112.66,224.8,112.66,224.8Z"/><path class="cls-6" d="M112.66,247.11V224.8S103,242.56,112.66,247.11Z"/><path class="cls-3" d="M76.2,215s-16.12-6.61-20.77-.52l-3.82,0V215l3.77,0C58.6,220.77,76.2,215,76.2,215Z"/><rect class="cls-4" x="51.6" y="209.24" width="0.72" height="5.72"/><path class="cls-5" d="M52,192.37v19.28C59.74,209,52,192.37,52,192.37Z"/><path class="cls-6" d="M52,211.64V192.37S43.65,207.71,52,211.64Z"/><polygon class="cls-11" points="257.82 205 257.82 228.74 361.71 289.62 361.52 265.13 257.82 205"/><polygon class="cls-12" points="361.53 265.11 465.6 204.98 465.6 229.32 361.72 289.6 361.53 265.11"/><polygon class="cls-13" points="361.77 144.61 257.88 204.98 361.59 265.11 465.57 204.87 361.77 144.61"/><path class="cls-14" d="M414.42,213a12.54,12.54,0,0,1-4.67-5.5c-1.09-2.58-5-10.48-4.28-11.47s.3-5.49,1.15-6.24.65,4.19,2.26,8.83,1.5,7.33,3.61,7.83S414.42,213,414.42,213Z"/><path class="cls-14" d="M369.36,159.11c-3.32.45-12.49-3.14-12.2-5.14s.9-.61,4.91-2.6,3.67,5.79,6.29,6.23S369.36,159.11,369.36,159.11Z"/><path class="cls-14" d="M286.44,211.48c2.06.55-4.06.74-4.06.74a22.43,22.43,0,0,1-8.17-6.42c-3.25-4.33.56-2.39.56-2.39A22.11,22.11,0,0,0,286.44,211.48Z"/><path class="cls-14" d="M359.72,242.2c-10.64,0-18.85-4.78-22-12.78-2.09-5.38-8.23-7.67-16-10.56-5.63-2.1-12-4.47-18.17-8.55-5.73-3.8-8.15-6.63-8.37-9.76-.26-3.68,2.56-6.18,5.83-9.09a50.39,50.39,0,0,0,7.66-8c9.63-13.15,30.44-17.8,31.32-18l.28-.06h.29c.2,0,20-.63,31.71-1.47,1.46-.1,2.77-.15,4-.15,10.7,0,16.22,3.92,19.06,13.52,2,6.77,14.65,11.18,21.44,13.56l2.34.83c4.56,1.66,9.14,6.17,9.08,11.6,0,3.83-2.3,9.13-12.83,12.69-9,3-16.72,8.27-24.21,13.33-5.92,4-11.51,7.78-17.21,10.09A38.41,38.41,0,0,1,359.72,242.2Z"/><path class="cls-8" d="M340.7,168.53S320.3,173,311.26,185.3s-20.55,12.67-5.93,22.37,31,9.42,35.37,20.6,19.74,13.19,32.11,8.17,25-17.87,41.6-23.49,10.59-15.81,3.68-18.33-23-7.22-25.73-16.46-7.92-12-19.83-11.11S340.7,168.53,340.7,168.53Z"/><path class="cls-14" d="M311.71,219.09s-3.31,2.2-1.65,4.69,7.17,2.48,7.17,2.48l1.38-4.78-3-3.29a13.59,13.59,0,0,1-2.48,1.24A3.2,3.2,0,0,1,311.71,219.09Z"/><path class="cls-15" d="M310,220.91s.82,2.07,1.82,2.15a10.06,10.06,0,0,0,3.14-.84l1.32,1.26,2.31-2-1.38,4.78a10.54,10.54,0,0,1-6.09-1.46C308.18,223,310,220.91,310,220.91Z"/><path class="cls-14" d="M317.32,226.26s.35,2,1.81,1.69,2.56-2.77,2.56-2.77l-1.91-1.58-2.1.7a6.77,6.77,0,0,1,.07,1.38A1.59,1.59,0,0,1,317.32,226.26Z"/><path class="cls-15" d="M317.81,227.41s1.11,0,1.34-.4a5,5,0,0,0,.24-1.6l.84-.35-.45-1.46,1.91,1.58a5.25,5.25,0,0,1-1.89,2.49C318.39,228.65,317.81,227.41,317.81,227.41Z"/><path class="cls-24" d="M346.56,179.31s11-4.29,11.34-6.95a2.26,2.26,0,0,0-2.32-2.67s8.66-1.63,15.93,11.71S346.56,179.31,346.56,179.31Z"/><path class="cls-25" d="M349.5,221.54s6.46-2.52,6.66-4.08a1.33,1.33,0,0,0-1.36-1.57s5.09-1,9.36,6.88S349.5,221.54,349.5,221.54Z"/><path class="cls-26" d="M332,205s8.67-3.38,8.94-5.47a1.78,1.78,0,0,0-1.83-2.1s6.82-1.29,12.55,9.22S332,205,332,205Z"/><path class="cls-27" d="M311,193.49s6.46-2.52,6.66-4.08a1.33,1.33,0,0,0-1.36-1.57s5.09-1,9.36,6.88S311,193.49,311,193.49Z"/><path class="cls-28" d="M371.67,198.74s6.46-2.52,6.66-4.08a1.33,1.33,0,0,0-1.36-1.57s5.09-1,9.36,6.88S371.67,198.74,371.67,198.74Z"/><path class="cls-29" d="M375.22,182.71s6.46-2.52,6.66-4.08a1.33,1.33,0,0,0-1.36-1.57s5.09-1,9.36,6.88S375.22,182.71,375.22,182.71Z"/><path class="cls-30" d="M373.33,216.56s7.21-2.81,7.43-4.55a1.48,1.48,0,0,0-1.52-1.75s5.68-1.07,10.44,7.68S373.33,216.56,373.33,216.56Z"/><path class="cls-23" d="M361.55,144.61,257.66,205l103.71,60.13,104-60.24Zm29.63,97.83c-6.11,1.15-28.26,13.75-38.85,13s-17.66-18.33-25.68-18.51-18.77-11.31-25.59-16.9-16.81-6.7-19.48-14.06,5.35-11.26,5.35-11.26,5.75-9.5,13.75-10.79,27.11-16.32,40.86-23,12.1-1.19,25.64,0,30.28,7.61,32.2,10.51,16.66,13.43,31.52,20,2.58,24,0,28.51S397.29,241.29,391.18,242.44Z"/><path class="cls-3" d="M377.67,156.72s-14.86-6.09-19.14-.48l-3.52,0v.53l3.48,0C361.45,162.08,377.67,156.72,377.67,156.72Z"/><rect class="cls-4" x="354.99" y="151.45" width="0.66" height="5.27"/><path class="cls-9" d="M355.32,135.9v17.77C362.49,151.25,355.32,135.9,355.32,135.9Z"/><path class="cls-10" d="M355.32,153.67V135.9S347.67,150,355.32,153.67Z"/><path class="cls-3" d="M379,161.65s-10.57-4.33-13.62-.34l-2.51,0v.38l2.47,0C367.48,165.46,379,161.65,379,161.65Z"/><rect class="cls-4" x="362.89" y="157.9" width="0.47" height="3.75"/><path class="cls-9" d="M363.12,146.84v12.64C368.22,157.76,363.12,146.84,363.12,146.84Z"/><path class="cls-10" d="M363.12,159.48V146.84S357.67,156.9,363.12,159.48Z"/><path class="cls-3" d="M351.05,242.22s-14.86-6.09-19.14-.48l-3.52,0v.53l3.48,0C334.83,247.58,351.05,242.22,351.05,242.22Z"/><rect class="cls-4" x="328.38" y="236.95" width="0.66" height="5.27"/><path class="cls-5" d="M328.71,221.4v17.77C335.88,236.75,328.71,221.4,328.71,221.4Z"/><path class="cls-6" d="M328.71,239.17V221.4S321.05,235.55,328.71,239.17Z"/><path class="cls-3" d="M368.31,249.08s-18.66-7.65-24-.6l-4.42,0v.67l4.36,0C347.94,255.81,368.31,249.08,368.31,249.08Z"/><rect class="cls-4" x="339.84" y="242.46" width="0.83" height="6.62"/><path class="cls-5" d="M340.25,222.93v22.31C349.26,242.21,340.25,222.93,340.25,222.93Z"/><path class="cls-6" d="M340.25,245.24V222.93S330.64,240.7,340.25,245.24Z"/><path class="cls-3" d="M303.79,213.09s-16.12-6.61-20.77-.52l-3.82,0v.58l3.77,0C286.19,218.9,303.79,213.09,303.79,213.09Z"/><rect class="cls-4" x="279.19" y="207.37" width="0.72" height="5.72"/><path class="cls-5" d="M279.55,190.5v19.28C287.32,207.15,279.55,190.5,279.55,190.5Z"/><path class="cls-6" d="M279.55,209.78V190.5S271.24,205.85,279.55,209.78Z"/><polygon class="cls-3" points="247.11 257.4 143.22 317.77 246.93 377.9 350.91 317.66 247.11 257.4"/><path class="cls-31" d="M172.85,173.77c0,2-.64,4.16-3.87,2.76s-3.81-7.09-7.51-7.35-6.47-3.35-4.76-4.42,10.47,3,11.08,4.45S172.85,173.77,172.85,173.77Z"/><path class="cls-31" d="M208.72,208.65a12.54,12.54,0,0,1-4.67-5.5c-1.09-2.58-5-10.48-4.28-11.47s.3-5.49,1.15-6.24.65,4.19,2.26,8.83,1.5,7.33,3.61,7.83S208.72,208.65,208.72,208.65Z"/><path class="cls-31" d="M211.29,195.34c1.36-.31,2.39.21,3.86,1.59s7,5.4,7.58,6.1c1.82,2.25.06,4-.28,4.71s-1.67-2.59-4.1-5.19-3-3.52-4.7-4.12C212.17,197.89,209.94,195.65,211.29,195.34Z"/><polygon class="cls-32" points="142.53 271.47 142.53 295.22 246.42 356.09 246.23 331.6 142.53 271.47"/><polygon class="cls-33" points="246.24 331.58 350.31 271.45 350.31 295.8 246.43 356.07 246.24 331.58"/><path class="cls-3" d="M327.74,173.38s-22.38-9.18-28.84-.72l-5.31-.06v.8l5.24.06C303.31,181.45,327.74,173.38,327.74,173.38Z"/><rect class="cls-4" x="293.58" y="165.44" width="1" height="7.94"/><path class="cls-3" d="M289.21,202.11s-14.84-6.09-19.13-.48l-3.52,0v.53l3.47,0C273,207.46,289.21,202.11,289.21,202.11Z"/><rect class="cls-4" x="266.56" y="196.84" width="0.66" height="5.27"/><path class="cls-5" d="M266.89,181.31v17.75C274.05,196.64,266.89,181.31,266.89,181.31Z"/><path class="cls-6" d="M266.89,199.06V181.31S259.24,195.44,266.89,199.06Z"/><path class="cls-5" d="M276.9,190.51v17.75C284.06,205.84,276.9,190.51,276.9,190.51Z"/><path class="cls-6" d="M276.9,208.26V190.51S269.25,204.64,276.9,208.26Z"/><path class="cls-3" d="M303.33,187.85s-18.39-7.54-23.69-.59l-4.36,0v.66l4.3,0C283.26,194.48,303.33,187.85,303.33,187.85Z"/><rect class="cls-4" x="275.27" y="181.33" width="0.82" height="6.52"/><path class="cls-5" d="M275.68,162.09v22C284.55,181.08,275.68,162.09,275.68,162.09Z"/><path class="cls-6" d="M275.68,184.08v-22S266.2,179.59,275.68,184.08Z"/><path class="cls-3" d="M299.47,193.8s-14.84-6.09-19.13-.48l-3.52,0v.53l3.47,0C283.27,199.15,299.47,193.8,299.47,193.8Z"/><rect class="cls-4" x="276.82" y="188.53" width="0.66" height="5.27"/><path class="cls-9" d="M277.15,173v17.75C284.31,188.33,277.15,173,277.15,173Z"/><path class="cls-10" d="M277.15,190.74V173S269.5,187.13,277.15,190.74Z"/><rect class="cls-4" x="290.99" y="189.26" width="1" height="7.94"/><path class="cls-5" d="M291.49,165.84v26.76C302.29,189,291.49,165.84,291.49,165.84Z"/><path class="cls-6" d="M291.49,192.61V165.84S280,187.15,291.49,192.61Z"/><polygon class="cls-32" points="142.26 271.4 246.4 331.78 350.22 271.52 246.25 211.16 142.26 271.4"/><line class="cls-34" x1="155.01" y1="270.95" x2="201.02" y2="297.77"/><line class="cls-34" x1="159.42" y1="268.2" x2="205.44" y2="295.02"/><line class="cls-34" x1="163.94" y1="265.53" x2="209.95" y2="292.35"/><line class="cls-34" x1="168.58" y1="262.99" x2="214.6" y2="289.81"/><line class="cls-34" x1="172.89" y1="260.12" x2="218.91" y2="286.94"/><line class="cls-34" x1="177.54" y1="257.58" x2="223.55" y2="284.4"/><line class="cls-34" x1="182.18" y1="254.71" x2="228.19" y2="281.52"/><line class="cls-34" x1="187.49" y1="251.83" x2="233.5" y2="278.65"/><line class="cls-34" x1="192.8" y1="248.96" x2="238.81" y2="275.78"/><line class="cls-34" x1="197.78" y1="246.09" x2="243.79" y2="272.9"/><line class="cls-34" x1="251.88" y1="271.26" x2="297.9" y2="298.08"/><line class="cls-34" x1="256.3" y1="268.51" x2="302.31" y2="295.33"/><line class="cls-34" x1="260.82" y1="265.84" x2="306.83" y2="292.66"/><line class="cls-34" x1="265.46" y1="263.3" x2="311.47" y2="290.12"/><line class="cls-34" x1="269.77" y1="260.43" x2="315.78" y2="287.25"/><line class="cls-34" x1="274.41" y1="257.89" x2="320.43" y2="284.71"/><line class="cls-34" x1="279.06" y1="255.02" x2="325.07" y2="281.83"/><line class="cls-34" x1="284.37" y1="252.14" x2="330.38" y2="278.96"/><line class="cls-34" x1="289.68" y1="249.27" x2="335.69" y2="276.08"/><line class="cls-34" x1="294.65" y1="246.39" x2="340.67" y2="273.21"/><line class="cls-34" x1="291.63" y1="242.91" x2="245.62" y2="269.72"/><line class="cls-34" x1="287.21" y1="240.16" x2="241.2" y2="266.97"/><line class="cls-34" x1="282.7" y1="237.49" x2="236.68" y2="264.31"/><line class="cls-34" x1="278.05" y1="234.95" x2="232.04" y2="261.77"/><line class="cls-34" x1="273.74" y1="232.07" x2="227.73" y2="258.89"/><line class="cls-34" x1="269.1" y1="229.53" x2="223.09" y2="256.35"/><line class="cls-34" x1="264.46" y1="226.66" x2="218.44" y2="253.48"/><line class="cls-34" x1="259.15" y1="223.79" x2="213.13" y2="250.6"/><line class="cls-34" x1="253.84" y1="220.91" x2="207.82" y2="247.73"/><line class="cls-34" x1="248.86" y1="218.04" x2="202.85" y2="244.86"/><line class="cls-34" x1="290.96" y1="299.64" x2="244.95" y2="326.46"/><line class="cls-34" x1="286.55" y1="296.89" x2="240.53" y2="323.71"/><line class="cls-34" x1="282.03" y1="294.22" x2="236.02" y2="321.04"/><line class="cls-34" x1="277.39" y1="291.68" x2="231.37" y2="318.5"/><line class="cls-34" x1="273.08" y1="288.81" x2="227.06" y2="315.63"/><line class="cls-34" x1="268.43" y1="286.27" x2="222.42" y2="313.09"/><line class="cls-34" x1="263.79" y1="283.4" x2="217.78" y2="310.21"/><line class="cls-34" x1="258.48" y1="280.52" x2="212.47" y2="307.34"/><line class="cls-34" x1="253.17" y1="277.65" x2="207.16" y2="304.47"/><line class="cls-34" x1="248.19" y1="274.78" x2="202.18" y2="301.59"/><path class="cls-35" d="M183.08,245.93a21,21,0,0,1-1.84-2.92,32.2,32.2,0,0,1-1.39-3,26.59,26.59,0,0,1-1-3.07c-.14-.52-.26-1-.35-1.56,0-.26-.09-.53-.12-.79a7.8,7.8,0,0,1-.06-.8h0q.29.35.54.72c.17.24.33.48.48.73.31.49.58,1,.85,1.47a28.22,28.22,0,0,1,1.36,3,30,30,0,0,1,1,3.07,16.67,16.67,0,0,1,.57,3.15Z"/><path class="cls-36" d="M178.29,233.77q.29.35.54.72c.17.24.33.48.48.73.31.49.58,1,.85,1.47a28.22,28.22,0,0,1,1.36,3,30,30,0,0,1,1,3.07,16.67,16.67,0,0,1,.57,3.15h0"/><path class="cls-35" d="M174.58,255.45l0,0q.16-.36.35-.69c.12-.22.25-.43.39-.64.27-.42.55-.82.85-1.21a22.39,22.39,0,0,1,1.93-2.19,25.3,25.3,0,0,1,2.17-2,15.31,15.31,0,0,1,2.48-1.64"/><path class="cls-36" d="M182.72,247.1l0,0a15.56,15.56,0,0,1-1.6,2.52,25.42,25.42,0,0,1-1.91,2.21,22.3,22.3,0,0,1-2.15,2c-.38.3-.78.6-1.19.87l-.63.4q-.32.19-.67.36"/><path class="cls-35" d="M184,244.8c-1.07,0-3.42,1.26-3.54,2.64s3.19.82,3.54.69,1.44-.82,1.3-1.85S185.12,244.8,184,244.8Z"/><rect class="cls-37" x="182.59" y="247.28" width="2.02" height="23.01"/><path class="cls-36" d="M180.53,247.7s4.15-.14,4.33-2.72c0,0,1.35,1.89-.47,3S180.3,248,180.53,247.7Z"/><path class="cls-36" d="M196.57,248.75v0q-.41.06-.81.09l-.81,0c-.54,0-1.08,0-1.63,0a30.76,30.76,0,0,1-3.25-.34c-1.08-.17-2.17-.38-3.26-.65a22.86,22.86,0,0,1-3.26-1.05v0"/><path class="cls-35" d="M183.55,246.81a19.62,19.62,0,0,1,3.25-.08c1.08.05,2.17.16,3.25.31a32,32,0,0,1,3.26.63c.54.14,1.09.29,1.63.46l.81.28q.41.15.81.33"/><path class="cls-3" d="M207.44,278.67a6.79,6.79,0,0,0,.37-.57c.11-.19.21-.38.31-.57.19-.38.36-.76.51-1.15a15.55,15.55,0,0,0,.69-2.29,16,16,0,0,0,.35-2.29c0-.35,0-.69,0-1h.47a2.6,2.6,0,0,0,1.41-.34h0a.73.73,0,0,0,.21-.57,1.54,1.54,0,0,0-.26-.73c.84-.08,1.67-.2,2.49-.33,1.14-.2,2.26-.44,3.38-.71s2.22-.59,3.31-1c.54-.19,1.09-.38,1.62-.6l.8-.34q.4-.18.79-.38h0v0l-.88,0-.87.08c-.58.07-1.15.15-1.72.25-1.14.2-2.26.45-3.37.73s-2.22.61-3.31,1c-.83.29-1.65.59-2.45.94a3.59,3.59,0,0,0-2.43-1.45,1.16,1.16,0,0,0-.29,0h0c-.08,0-.19,0-.3.13a.76.76,0,0,0-.21.21c-.21-.18-.41-.37-.63-.55a24,24,0,0,0-2.15-1.53,24.65,24.65,0,0,0-2.41-1.36c-.43-.21-.87-.41-1.33-.6l-.71-.27-.75-.24,0,0a5.17,5.17,0,0,0,.39.47c.14.15.29.3.44.45.3.29.62.57,1,.84a21.47,21.47,0,0,0,2.17,1.51c.77.47,1.58.93,2.44,1.34.45.21.91.42,1.38.62a2,2,0,0,0,0,.4H183.73v1.42h24.77a1.93,1.93,0,0,0,.45.3c-.21.42-.39.84-.56,1.25a17.85,17.85,0,0,0-.72,2.29,14.21,14.21,0,0,0-.38,2.29,10.48,10.48,0,0,0,0,1.15c0,.19,0,.38,0,.57a4.26,4.26,0,0,0,.1.57Z"/><path class="cls-35" d="M244.76,260.7a21,21,0,0,1-1.84-2.92,32.2,32.2,0,0,1-1.39-3,26.59,26.59,0,0,1-1-3.07c-.14-.52-.26-1-.35-1.56,0-.26-.09-.53-.12-.79a7.8,7.8,0,0,1-.06-.8h0q.29.35.54.72c.17.24.33.48.48.73.31.49.58,1,.85,1.47a28.22,28.22,0,0,1,1.36,3,30,30,0,0,1,1,3.07,16.67,16.67,0,0,1,.57,3.15Z"/><path class="cls-36" d="M240,248.54q.29.35.54.72c.17.24.33.48.48.73.31.49.58,1,.85,1.47a28.22,28.22,0,0,1,1.36,3,30,30,0,0,1,1,3.07,16.67,16.67,0,0,1,.57,3.15h0"/><path class="cls-35" d="M236.27,270.22l0,0q.16-.36.35-.69c.12-.22.25-.43.39-.64.27-.42.55-.82.85-1.21a22.39,22.39,0,0,1,1.93-2.19,25.3,25.3,0,0,1,2.17-2,15.31,15.31,0,0,1,2.48-1.64"/><path class="cls-36" d="M244.41,261.87l0,0a15.56,15.56,0,0,1-1.6,2.52,25.42,25.42,0,0,1-1.91,2.21,22.3,22.3,0,0,1-2.15,2c-.38.3-.78.6-1.19.87l-.63.4q-.32.19-.67.36"/><path class="cls-35" d="M245.74,259.57c-1.07,0-3.42,1.26-3.54,2.64s3.19.82,3.54.69,1.44-.82,1.3-1.85S246.81,259.57,245.74,259.57Z"/><rect class="cls-38" x="244.28" y="262.05" width="2.02" height="23.01"/><path class="cls-36" d="M242.22,262.48s4.15-.14,4.33-2.72c0,0,1.35,1.89-.47,3S242,262.8,242.22,262.48Z"/><path class="cls-36" d="M258.26,263.53v0q-.41.06-.81.09l-.81,0c-.54,0-1.08,0-1.63,0a30.76,30.76,0,0,1-3.25-.34c-1.08-.17-2.17-.38-3.26-.65a22.86,22.86,0,0,1-3.26-1.05v0"/><path class="cls-35" d="M245.24,261.59a19.62,19.62,0,0,1,3.25-.08c1.08.05,2.17.16,3.25.31a32,32,0,0,1,3.26.63c.54.14,1.09.29,1.63.46l.81.28q.41.15.81.33"/><path class="cls-3" d="M269.13,293.44a6.79,6.79,0,0,0,.37-.57c.11-.19.21-.38.31-.57.19-.38.36-.76.51-1.15a15.55,15.55,0,0,0,.69-2.29,16,16,0,0,0,.35-2.29c0-.35,0-.69,0-1h.47a2.6,2.6,0,0,0,1.41-.34h0a.73.73,0,0,0,.21-.57,1.54,1.54,0,0,0-.26-.73c.84-.08,1.67-.2,2.49-.33,1.14-.2,2.26-.44,3.38-.71s2.22-.59,3.31-1c.54-.19,1.09-.38,1.62-.6l.8-.34q.4-.18.79-.38h0v0l-.88,0-.87.08c-.58.07-1.15.15-1.72.25-1.14.2-2.26.45-3.37.73s-2.22.61-3.31,1c-.83.29-1.65.59-2.45.94a3.59,3.59,0,0,0-2.43-1.45,1.16,1.16,0,0,0-.29,0h0c-.08,0-.19,0-.3.13a.76.76,0,0,0-.21.21c-.21-.18-.41-.37-.63-.55a24,24,0,0,0-2.15-1.53,24.65,24.65,0,0,0-2.41-1.36c-.43-.21-.87-.41-1.33-.6l-.71-.27-.75-.24,0,0a5.17,5.17,0,0,0,.39.47c.14.15.29.3.44.45.3.29.62.57,1,.84a21.47,21.47,0,0,0,2.17,1.51c.77.47,1.58.93,2.44,1.34.45.21.91.42,1.38.62a2,2,0,0,0,0,.4H245.42V285h24.77a1.93,1.93,0,0,0,.45.3c-.21.42-.39.84-.56,1.25a17.85,17.85,0,0,0-.72,2.29,14.21,14.21,0,0,0-.38,2.29,10.48,10.48,0,0,0,0,1.15c0,.19,0,.38,0,.57a4.26,4.26,0,0,0,.1.57Z"/><path class="cls-35" d="M275,247a23.72,23.72,0,0,1-2.08-3.31,36.44,36.44,0,0,1-1.58-3.4,30.09,30.09,0,0,1-1.18-3.47c-.15-.59-.29-1.17-.4-1.77-.05-.3-.1-.6-.14-.9a8.83,8.83,0,0,1-.07-.91h0q.33.4.61.81c.19.27.37.55.54.82.35.55.66,1.11,1,1.67a32,32,0,0,1,1.54,3.41,34,34,0,0,1,1.15,3.48,18.87,18.87,0,0,1,.64,3.57Z"/><path class="cls-36" d="M269.59,233.21q.33.4.61.81c.19.27.37.55.54.82.35.55.66,1.11,1,1.67a32,32,0,0,1,1.54,3.41,34,34,0,0,1,1.15,3.48A18.87,18.87,0,0,1,275,247h0"/><path class="cls-35" d="M265.4,257.75l0,0q.18-.4.39-.78c.14-.25.29-.49.44-.73.3-.48.63-.93,1-1.37a25.34,25.34,0,0,1,2.18-2.48,28.63,28.63,0,0,1,2.46-2.21,17.33,17.33,0,0,1,2.8-1.86"/><path class="cls-36" d="M274.61,248.3l0,0a17.61,17.61,0,0,1-1.81,2.85,28.77,28.77,0,0,1-2.16,2.5,25.24,25.24,0,0,1-2.43,2.23c-.43.34-.88.68-1.35,1-.23.15-.47.31-.72.45s-.5.28-.76.4"/><path class="cls-35" d="M276.11,245.69c-1.22,0-3.87,1.43-4,3s3.61.93,4,.78,1.62-.93,1.47-2.09S277.33,245.69,276.11,245.69Z"/><rect class="cls-39" x="274.46" y="248.5" width="2.28" height="26.05"/><path class="cls-36" d="M272.13,249s4.7-.16,4.91-3.08c0,0,1.53,2.14-.54,3.34S271.87,249.35,272.13,249Z"/><path class="cls-36" d="M290.28,250.17v0q-.46.07-.92.1l-.92,0c-.61,0-1.23,0-1.84,0a34.82,34.82,0,0,1-3.68-.39c-1.23-.19-2.46-.43-3.68-.74a25.87,25.87,0,0,1-3.69-1.19v0"/><path class="cls-35" d="M275.55,248a22.21,22.21,0,0,1,3.68-.09c1.23.06,2.45.18,3.68.36a36.22,36.22,0,0,1,3.68.71c.61.16,1.23.32,1.84.52l.92.32q.46.17.92.38"/><path class="cls-3" d="M237.9,244.51s8.08.37,10.75,0c.93-.13,4.68-1.32,3-2.85s-10.48-.94-10.48-.94Z"/><path class="cls-40" d="M239,236.83c1.53-.68,2.77.45,2.77,2.51s-1.22,4.29-2.75,5-2.77-.44-2.77-2.51S237.45,237.51,239,236.83Z"/><path class="cls-41" d="M239.78,236.63h0a1.66,1.66,0,0,1,.35,0h0a1.56,1.56,0,0,1,.33.11h0l-3.76-1.68h0l-.14-.05-.14,0h-.57l-.17,0h-.1l-.13,0-.25.1a3.17,3.17,0,0,0-.59.35l0,0-.23.19-.18.17,0,0,0,0L234,236l-.15.18-.15.19,0,.06,0,0-.08.11-.14.22-.15.25,0,0,0,0-.12.22-.15.32,0,.1,0,.1-.07.19q-.08.23-.15.47v0l0,.12c0,.17-.08.33-.11.5s0,0,0,.07a5.59,5.59,0,0,0-.07.88,2.65,2.65,0,0,0,1.25,2.57l3.76,1.68a2.65,2.65,0,0,1-1.25-2.57,5.59,5.59,0,0,1,.07-.88c0-.19.07-.38.12-.57l0-.12a6.63,6.63,0,0,1,.23-.68l0-.1a6.43,6.43,0,0,1,.3-.64l0,0a6,6,0,0,1,.39-.61l0,0a5.08,5.08,0,0,1,.45-.53l0,0a4,4,0,0,1,.47-.41,3.17,3.17,0,0,1,.59-.35,2.4,2.4,0,0,1,.38-.13h.05A1.94,1.94,0,0,1,239.78,236.63Z"/><path class="cls-41" d="M252.53,293.71h0a1.66,1.66,0,0,1,.35,0h0a1.56,1.56,0,0,1,.33.11h0l-3.76-1.68h0l-.14-.05-.14,0h-.57l-.17,0h-.1l-.13,0-.25.1a3.17,3.17,0,0,0-.59.35l0,0-.23.19-.18.17,0,0,0,0-.11.11-.15.18-.15.19,0,.06,0,0-.08.11-.14.22-.15.25,0,0,0,0-.12.22-.15.32,0,.1,0,.1-.07.19q-.08.23-.15.47v0l0,.12c0,.17-.08.33-.11.5s0,0,0,.07a5.59,5.59,0,0,0-.07.88,2.65,2.65,0,0,0,1.25,2.57l3.76,1.68a2.65,2.65,0,0,1-1.25-2.57A5.59,5.59,0,0,1,249,298c0-.19.07-.38.12-.57l0-.12a6.63,6.63,0,0,1,.23-.68l0-.1a6.43,6.43,0,0,1,.3-.64l0,0a6,6,0,0,1,.39-.61l0,0a5.08,5.08,0,0,1,.45-.53l0,0a4,4,0,0,1,.47-.41,3.17,3.17,0,0,1,.59-.35,2.4,2.4,0,0,1,.38-.13h.05A1.94,1.94,0,0,1,252.53,293.71Z"/><path class="cls-3" d="M221.5,304.42s8.08.37,10.75,0c.93-.13,4.68-1.32,3-2.85s-10.48-.94-10.48-.94Z"/><path class="cls-40" d="M222.57,296.74c1.53-.68,2.77.45,2.77,2.51s-1.22,4.29-2.75,5-2.77-.44-2.77-2.51S221,297.42,222.57,296.74Z"/><path class="cls-41" d="M223.37,296.54h0a1.66,1.66,0,0,1,.35,0h0a1.56,1.56,0,0,1,.33.11h0L220.33,295h0l-.14-.05-.14,0h-.57l-.17,0h-.1l-.13,0-.25.1a3.17,3.17,0,0,0-.59.35l0,0-.23.19-.18.17,0,0,0,0-.11.11-.15.18-.15.19,0,.06,0,0-.08.11-.14.22-.15.25,0,0,0,0-.12.22-.15.32,0,.1,0,.1-.07.19q-.08.23-.15.47v0l0,.12c0,.17-.08.33-.11.5s0,0,0,.07a5.59,5.59,0,0,0-.07.88,2.65,2.65,0,0,0,1.25,2.57l3.76,1.68a2.65,2.65,0,0,1-1.25-2.57,5.59,5.59,0,0,1,.07-.88c0-.19.07-.38.12-.57l0-.12a6.63,6.63,0,0,1,.23-.68l0-.1a6.43,6.43,0,0,1,.3-.64l0,0a6,6,0,0,1,.39-.61l0,0a5.08,5.08,0,0,1,.45-.53l0,0a4,4,0,0,1,.47-.41,3.17,3.17,0,0,1,.59-.35,2.4,2.4,0,0,1,.38-.13H223A1.94,1.94,0,0,1,223.37,296.54Z"/><path class="cls-8" d="M155.08,170.52l12.76-4.37,9,5.1s-9.67,1.3-11.34,10.62S155.08,170.52,155.08,170.52Z"/><polygon class="cls-7" points="155.57 169.59 166.48 165.22 167.84 166.15 156.71 169.96 155.57 169.59"/><polygon class="cls-3" points="245.41 177.66 315.9 218.63 245.53 259.43 174.98 218.55 245.41 177.66"/><polygon class="cls-42" points="174.58 191.3 245.04 232.16 315.29 191.38 244.94 150.54 174.58 191.3"/><polygon class="cls-43" points="174.71 191.38 174.71 207.45 245 248.64 244.88 232.07 174.71 191.38"/><polygon class="cls-44" points="244.88 232.07 315.29 191.38 315.29 207.85 245 248.64 244.88 232.07"/><polygon class="cls-3" points="251.9 215.26 274.15 215.26 315.29 191.38 270.3 165.27 235.8 167.22 251.9 215.26"/><polygon class="cls-45" points="235.8 167.22 282.66 194.63 251.9 211.37 205.53 184.53 235.8 167.22"/><polygon class="cls-46" points="282.66 194.63 282.66 198.52 251.9 215.26 251.9 211.37 282.66 194.63"/><polygon class="cls-47" points="251.9 211.37 251.9 215.26 205.53 188.43 205.53 184.53 251.9 211.37"/><polygon class="cls-48" points="239.69 173.39 268.1 190 249.46 200.15 221.35 183.88 239.69 173.39"/><polygon class="cls-46" points="268.1 190 268.1 192.36 249.46 202.51 249.46 200.15 268.1 190"/><polygon class="cls-47" points="249.46 200.15 249.46 202.51 221.35 186.24 221.35 183.88 249.46 200.15"/><polygon class="cls-47" points="243.38 150.68 243.26 191.07 237.56 187.78 237.68 147.39 243.38 150.68"/><polygon class="cls-46" points="243.38 150.68 249.7 147.01 249.59 187.4 243.26 191.07 243.38 150.68"/><polygon class="cls-49" points="237.68 147.39 244 143.72 249.7 147.01 243.38 150.68 237.68 147.39"/><path class="cls-1" d="M237.46,140.36l6.32-3.67a3,3,0,0,1,3,.3l-6.32,3.67A3,3,0,0,0,237.46,140.36Z"/><g class="cls-50"><g class="cls-51"><path class="cls-1" d="M237.46,140.36l6.32-3.67a2,2,0,0,1,.34-.16l-6.32,3.67a2,2,0,0,0-.34.16"/><path class="cls-1" d="M237.8,140.2l6.32-3.67.3-.08-6.32,3.67-.3.08"/><path class="cls-1" d="M238.1,140.11l6.32-3.67.25,0-6.32,3.67-.25,0"/><path class="cls-1" d="M238.34,140.08l6.32-3.67h.22l-6.32,3.67h-.22"/><path class="cls-1" d="M238.57,140.07l6.32-3.67h.2l-6.32,3.67h-.2"/><path class="cls-1" d="M238.77,140.08l6.32-3.67.19,0L239,140.09l-.19,0"/><path class="cls-1" d="M239,140.09l6.32-3.67.19,0-6.32,3.67-.19,0"/><path class="cls-1" d="M239.14,140.13l6.32-3.67.17,0-6.32,3.67-.17,0"/><path class="cls-1" d="M239.31,140.16l6.32-3.67.18,0-6.32,3.67-.18,0"/><path class="cls-1" d="M239.49,140.21l6.32-3.67.17.06-6.32,3.67-.17-.06"/><path class="cls-1" d="M239.66,140.27l6.32-3.67.17.06-6.32,3.67-.17-.06"/><path class="cls-1" d="M239.83,140.33l6.32-3.67.17.07L240,140.41l-.17-.07"/><path class="cls-1" d="M240,140.41l6.32-3.67.17.08-6.32,3.67-.17-.08"/><path class="cls-1" d="M240.17,140.49l6.32-3.67.17.09-6.32,3.67-.17-.09"/><path class="cls-1" d="M240.35,140.58l6.32-3.67.14.08-6.32,3.67-.14-.08"/></g></g><path class="cls-1" d="M249.81,147l-6.32,3.67a3,3,0,0,0,1.24-2.73,9.34,9.34,0,0,0-4.24-7.34l6.32-3.67a9.34,9.34,0,0,1,4.24,7.34A3,3,0,0,1,249.81,147Z"/><g class="cls-52"><g class="cls-51"><path class="cls-1" d="M240.48,140.65l6.32-3.67,0,0-6.32,3.67,0,0"/><path class="cls-1" d="M240.53,140.68l6.32-3.67.18.11-6.32,3.67-.18-.11"/><path class="cls-1" d="M240.71,140.79l6.32-3.67.18.12-6.32,3.67-.18-.12"/><path class="cls-1" d="M240.89,140.91l6.32-3.67.18.13L241.07,141l-.18-.13"/><path class="cls-1" d="M241.07,141l6.32-3.67.19.14-6.32,3.67-.19-.14"/><path class="cls-1" d="M241.26,141.18l6.32-3.67.19.15-6.32,3.67-.19-.15"/><path class="cls-1" d="M241.45,141.33l6.32-3.67.19.16-6.32,3.67-.19-.16"/><path class="cls-1" d="M241.64,141.5l6.32-3.67.19.17-6.32,3.67-.19-.17"/><path class="cls-1" d="M241.82,141.67l6.32-3.67.18.18L242,141.85l-.18-.18"/><path class="cls-1" d="M242,141.85l6.32-3.67.17.18L242.18,142l-.17-.18"/><path class="cls-1" d="M242.18,142l6.32-3.67.17.18-6.32,3.67-.17-.18"/><path class="cls-1" d="M242.34,142.22l6.32-3.67.16.19-6.32,3.67-.16-.19"/><path class="cls-1" d="M242.51,142.41l6.32-3.67.16.2-6.32,3.67-.16-.2"/><path class="cls-1" d="M242.67,142.61l6.32-3.67.19.25-6.32,3.67-.19-.25"/><path class="cls-1" d="M242.86,142.86l6.32-3.67.27.38-6.32,3.67-.27-.38"/><path class="cls-1" d="M243.13,143.24l6.32-3.67q.16.25.32.5l-6.32,3.67q-.15-.26-.32-.5"/><path class="cls-1" d="M243.44,143.75l6.32-3.67.21.37-6.32,3.67-.21-.37"/><path class="cls-1" d="M243.65,144.12l6.32-3.67.13.26-6.32,3.67-.13-.26"/><path class="cls-1" d="M243.79,144.37l6.32-3.67.11.22-6.32,3.67-.11-.22"/><path class="cls-1" d="M243.89,144.6l6.32-3.67.09.21L244,144.8l-.09-.21"/><path class="cls-1" d="M244,144.8l6.32-3.67.09.2L244.07,145l-.09-.2"/><path class="cls-1" d="M244.07,145l6.32-3.67.08.21-6.32,3.67-.08-.21"/><path class="cls-1" d="M244.16,145.21l6.32-3.67.08.21-6.32,3.67-.08-.21"/><path class="cls-1" d="M244.24,145.42l6.32-3.67.08.22-6.32,3.67-.08-.22"/><path class="cls-1" d="M244.31,145.64l6.32-3.67.07.22-6.32,3.67-.07-.22"/><path class="cls-1" d="M244.38,145.86l6.32-3.67.07.22-6.32,3.67-.07-.22"/><path class="cls-1" d="M244.45,146.08l6.32-3.67.06.23-6.32,3.67-.06-.23"/><path class="cls-1" d="M244.51,146.31l6.32-3.67.05.22-6.32,3.67-.05-.22"/><path class="cls-1" d="M244.56,146.53l6.32-3.67,0,.22-6.32,3.67,0-.22"/><path class="cls-1" d="M244.6,146.75l6.32-3.67,0,.21L244.64,147l0-.21"/><path class="cls-1" d="M244.64,147l6.32-3.67,0,.21-6.32,3.67,0-.21"/><path class="cls-1" d="M244.67,147.18l6.32-3.67,0,.21-6.32,3.67,0-.21"/><path class="cls-1" d="M244.69,147.39l6.32-3.67q0,.1,0,.21l-6.32,3.67q0-.1,0-.21"/><path class="cls-1" d="M244.71,147.6l6.32-3.67q0,.1,0,.21l-6.32,3.67q0-.1,0-.21"/><path class="cls-1" d="M244.72,147.8l6.32-3.67q0,.1,0,.19h0L244.72,148h0q0-.1,0-.19"/><path class="cls-1" d="M244.72,148l6.32-3.67q0,.1,0,.21l-6.32,3.67q0-.1,0-.21"/><path class="cls-1" d="M244.72,148.21l6.32-3.67q0,.1,0,.2l-6.32,3.67q0-.1,0-.2"/><path class="cls-1" d="M244.71,148.41l6.32-3.67q0,.1,0,.2l-6.32,3.67q0-.1,0-.2"/><path class="cls-1" d="M244.68,148.62l6.32-3.67q0,.1,0,.2l-6.32,3.67q0-.1,0-.2"/><path class="cls-1" d="M244.65,148.82l6.32-3.67,0,.21L244.61,149l0-.21"/><path class="cls-1" d="M244.61,149l6.32-3.67-.06.22-6.32,3.67.06-.22"/><path class="cls-1" d="M244.56,149.25l6.32-3.67-.07.22-6.32,3.67.07-.22"/><path class="cls-1" d="M244.48,149.47l6.32-3.67-.1.24-6.32,3.67.1-.24"/><path class="cls-1" d="M244.38,149.71,250.7,146a2.68,2.68,0,0,1-.16.29L244.22,150a2.68,2.68,0,0,0,.16-.29"/><path class="cls-1" d="M244.22,150l6.32-3.67a2.16,2.16,0,0,1-.74.72l-6.32,3.67a2.16,2.16,0,0,0,.74-.72"/></g></g><path class="cls-47" d="M240.48,140.65a9.34,9.34,0,0,1,4.24,7.34c0,2.7-1.92,3.79-4.27,2.43a9.34,9.34,0,0,1-4.24-7.34C236.22,140.39,238.14,139.3,240.48,140.65Z"/><polygon class="cls-53" points="267.88 143.43 274.21 139.75 293.31 163.49 286.99 167.17 267.88 143.43"/><polygon class="cls-54" points="286.99 167.17 293.31 163.49 291.04 166.68 284.72 170.35 286.99 167.17"/><polygon class="cls-47" points="261.04 139.75 263.87 147.07 244.34 148.74 241.51 141.43 261.04 139.75"/><polygon class="cls-55" points="261.04 139.75 267.36 136.08 270.2 143.39 263.87 147.07 261.04 139.75"/><polygon class="cls-55" points="241.51 141.43 247.83 137.75 267.36 136.08 261.04 139.75 241.51 141.43"/><polygon class="cls-56" points="287.1 167.97 293.42 164.3 296.48 170.73 290.16 174.41 287.1 167.97"/><polygon class="cls-57" points="289.25 163.75 295.58 160.08 293.42 164.3 287.1 167.97 289.25 163.75"/><polygon class="cls-58" points="290.16 174.41 296.48 170.73 306.79 175.77 300.47 179.44 290.16 174.41"/><polygon class="cls-59" points="300.47 179.44 306.79 175.77 304.54 179.93 298.22 183.61 300.47 179.44"/><polygon class="cls-47" points="296.76 162.29 299.74 168.77 289.25 163.75 287.1 167.97 290.16 174.41 300.47 179.44 298.22 183.61 288 178.71 282.11 165.5 286.37 157.31 296.76 162.29"/><polygon class="cls-56" points="296.76 162.29 303.08 158.61 306.06 165.1 299.74 168.77 296.76 162.29"/><polygon class="cls-60" points="286.37 157.31 292.69 153.63 303.08 158.61 296.76 162.29 286.37 157.31"/><path class="cls-1" d="M261.19,138.23l6.32-3.67a3,3,0,0,1,3,.3l-6.32,3.67A3,3,0,0,0,261.19,138.23Z"/><g class="cls-61"><g class="cls-51"><path class="cls-1" d="M261.19,138.23l6.32-3.67a2,2,0,0,1,.34-.16l-6.32,3.67a2,2,0,0,0-.34.16"/><path class="cls-1" d="M261.53,138.07l6.32-3.67.3-.08L261.83,138l-.3.08"/><path class="cls-1" d="M261.83,138l6.32-3.67.25,0-6.32,3.67-.25,0"/><path class="cls-1" d="M262.08,137.95l6.32-3.67h.22l-6.32,3.67h-.22"/><path class="cls-1" d="M262.3,137.94l6.32-3.67h.2l-6.32,3.67h-.2"/><path class="cls-1" d="M262.5,137.95l6.32-3.67.19,0L262.69,138l-.19,0"/><path class="cls-1" d="M262.69,138l6.32-3.67.19,0L262.87,138l-.19,0"/><path class="cls-1" d="M262.87,138l6.32-3.67.17,0L263,138l-.17,0"/><path class="cls-1" d="M263,138l6.32-3.67.18,0-6.32,3.67-.18,0"/><path class="cls-1" d="M263.22,138.08l6.32-3.67.17.06-6.32,3.67-.17-.06"/><path class="cls-1" d="M263.39,138.14l6.32-3.67.17.06-6.32,3.67-.17-.06"/><path class="cls-1" d="M263.56,138.2l6.32-3.67.17.07-6.32,3.67-.17-.07"/><path class="cls-1" d="M263.73,138.27l6.32-3.67.17.08-6.32,3.67-.17-.08"/><path class="cls-1" d="M263.91,138.36l6.32-3.67.17.09-6.32,3.67-.17-.09"/><path class="cls-1" d="M264.08,138.45l6.32-3.67.14.08-6.32,3.67-.14-.08"/></g></g><path class="cls-1" d="M273.54,144.92l-6.32,3.67a3,3,0,0,0,1.24-2.73,9.34,9.34,0,0,0-4.24-7.34l6.32-3.67a9.34,9.34,0,0,1,4.24,7.34A3,3,0,0,1,273.54,144.92Z"/><g class="cls-62"><g class="cls-51"><path class="cls-1" d="M264.22,138.52l6.32-3.67,0,0-6.32,3.67,0,0"/><path class="cls-1" d="M264.26,138.55l6.32-3.67.18.11-6.32,3.67-.18-.11"/><path class="cls-1" d="M264.44,138.66l6.32-3.67.18.12-6.32,3.67-.18-.12"/><path class="cls-1" d="M264.62,138.78l6.32-3.67.18.13-6.32,3.67-.18-.13"/><path class="cls-1" d="M264.8,138.91l6.32-3.67.19.14L265,139l-.19-.14"/><path class="cls-1" d="M265,139l6.32-3.67.19.15-6.32,3.67L265,139"/><path class="cls-1" d="M265.18,139.2l6.32-3.67.19.16-6.32,3.67-.19-.16"/><path class="cls-1" d="M265.37,139.37l6.32-3.67.19.17-6.32,3.67-.19-.17"/><path class="cls-1" d="M265.55,139.54l6.32-3.67.18.18-6.32,3.67-.18-.18"/><path class="cls-1" d="M265.73,139.72l6.32-3.67.17.18-6.32,3.67-.17-.18"/><path class="cls-1" d="M265.91,139.9l6.32-3.67.17.18-6.32,3.67-.17-.18"/><path class="cls-1" d="M266.07,140.09l6.32-3.67.16.19-6.32,3.67-.16-.19"/><path class="cls-1" d="M266.24,140.28l6.32-3.67.16.2-6.32,3.67-.16-.2"/><path class="cls-1" d="M266.4,140.48l6.32-3.67.19.25-6.32,3.67-.19-.25"/><path class="cls-1" d="M266.59,140.73l6.32-3.67.27.38-6.32,3.67-.27-.38"/><path class="cls-1" d="M266.86,141.11l6.32-3.67q.16.25.32.5l-6.32,3.67q-.15-.26-.32-.5"/><path class="cls-1" d="M267.18,141.62l6.32-3.67.21.37L267.38,142l-.21-.37"/><path class="cls-1" d="M267.38,142l6.32-3.67.13.26-6.32,3.67-.13-.26"/><path class="cls-1" d="M267.52,142.24l6.32-3.67.11.22-6.32,3.67-.11-.22"/><path class="cls-1" d="M267.63,142.47l6.32-3.67.09.21-6.32,3.67-.09-.21"/><path class="cls-1" d="M267.72,142.67,274,139l.09.2-6.32,3.67-.09-.2"/><path class="cls-1" d="M267.81,142.88l6.32-3.67.08.21-6.32,3.67-.08-.21"/><path class="cls-1" d="M267.89,143.08l6.32-3.67.08.21L268,143.29l-.08-.21"/><path class="cls-1" d="M268,143.29l6.32-3.67.08.22L268,143.51l-.08-.22"/><path class="cls-1" d="M268,143.51l6.32-3.67.07.22-6.32,3.67-.07-.22"/><path class="cls-1" d="M268.11,143.73l6.32-3.67.07.22L268.18,144l-.07-.22"/><path class="cls-1" d="M268.18,144l6.32-3.67.06.23-6.32,3.67-.06-.23"/><path class="cls-1" d="M268.24,144.18l6.32-3.67.05.22-6.32,3.67-.05-.22"/><path class="cls-1" d="M268.29,144.4l6.32-3.67,0,.22-6.32,3.67,0-.22"/><path class="cls-1" d="M268.34,144.62l6.32-3.67,0,.21-6.32,3.67,0-.21"/><path class="cls-1" d="M268.37,144.84l6.32-3.67,0,.21-6.32,3.67,0-.21"/><path class="cls-1" d="M268.4,145.05l6.32-3.67,0,.21-6.32,3.67,0-.21"/><path class="cls-1" d="M268.43,145.26l6.32-3.67q0,.1,0,.21l-6.32,3.67q0-.1,0-.21"/><path class="cls-1" d="M268.44,145.47l6.32-3.67q0,.1,0,.21l-6.32,3.67q0-.1,0-.21"/><path class="cls-1" d="M268.45,145.67l6.32-3.67q0,.1,0,.19h0l-6.32,3.67h0q0-.1,0-.19"/><path class="cls-1" d="M268.45,145.88l6.32-3.67q0,.1,0,.21l-6.32,3.67q0-.1,0-.21"/><path class="cls-1" d="M268.45,146.08l6.32-3.67q0,.1,0,.2l-6.32,3.67q0-.1,0-.2"/><path class="cls-1" d="M268.44,146.28l6.32-3.67q0,.1,0,.2l-6.32,3.67q0-.1,0-.2"/><path class="cls-1" d="M268.42,146.49l6.32-3.67q0,.1,0,.2l-6.32,3.67q0-.1,0-.2"/><path class="cls-1" d="M268.39,146.69l6.32-3.67,0,.21-6.32,3.67,0-.21"/><path class="cls-1" d="M268.34,146.9l6.32-3.67-.06.22-6.32,3.67.06-.22"/><path class="cls-1" d="M268.29,147.12l6.32-3.67-.07.22-6.32,3.67.07-.22"/><path class="cls-1" d="M268.21,147.34l6.32-3.67-.1.24-6.32,3.67.1-.24"/><path class="cls-1" d="M268.11,147.58l6.32-3.67a2.68,2.68,0,0,1-.16.29L268,147.87a2.68,2.68,0,0,0,.16-.29"/><path class="cls-1" d="M268,147.87l6.32-3.67a2.16,2.16,0,0,1-.74.72l-6.32,3.67a2.16,2.16,0,0,0,.74-.72"/></g></g><path class="cls-47" d="M264.22,138.52a9.34,9.34,0,0,1,4.24,7.34c0,2.7-1.92,3.79-4.27,2.43a9.34,9.34,0,0,1-4.24-7.34C260,138.25,261.87,137.17,264.22,138.52Z"/><polygon class="cls-47" points="267.88 143.43 286.99 167.17 284.72 170.35 265.62 146.61 267.88 143.43"/><ellipse class="cls-63" cx="308.88" cy="172.43" rx="2.66" ry="1.5" transform="translate(28.4 388) rotate(-66.72)"/><path class="cls-64" d="M294,166.08l7.11,4.23s-1.47,1-2.34,1.58l-.29.18c-.71.49-2.62,2.24-2.62,2.24l-7.39-4.4A17.69,17.69,0,0,1,294,166.08Z"/><polygon class="cls-65" points="290.94 184.02 295.56 182.11 306.96 175.22 311.76 172.17 312.56 169.65 309.9 168.51 290.61 180.31 290.13 184.02 290.94 184.02"/><path class="cls-47" d="M288.45,169.92l7.39,4.4a38.43,38.43,0,0,1-6.46,5.93l-7.39-4.4A55.58,55.58,0,0,0,288.45,169.92Z"/><path class="cls-56" d="M288.28,184.42s.44-3.61,1.1-4.18a69.31,69.31,0,0,0,6.46-5.93,12.22,12.22,0,0,1,2.78-2.51c1.35-.85,2.47-1.5,2.47-1.5l4.63.17,4.18-2h3.67v2.31l-1.81,1.35s.11-3.16-1.58-2.6-3.27,2.14-3.22,5.64l-11.4,6.88s.34-3.16-1.52-3.16-3.56,2.88-3.1,5.08l-1.56.68Z"/><path class="cls-64" d="M282,175.84l7.39,4.4a10.64,10.64,0,0,0-1,4.21L281,179.9S281,176.9,282,175.84Z"/><polygon class="cls-66" points="293.98 166.08 298.33 166.08 305.72 170.48 301.1 170.31 293.98 166.08"/><polygon class="cls-47" points="298.33 166.08 302.5 164.11 309.9 168.51 305.72 170.48 298.33 166.08"/><polygon class="cls-67" points="302.5 164.11 306.17 164.11 313.57 168.51 309.9 168.51 302.5 164.11"/><ellipse class="cls-68" cx="309.54" cy="172.43" rx="2.66" ry="1.5" transform="translate(28.8 388.61) rotate(-66.72)"/><path class="cls-69" d="M310.2,170.89a.56.56,0,0,0-.23,0,2,2,0,0,1-.08,1.65c-.31.73-.85,1.21-1.3,1.21a.61.61,0,0,0,.29.27c.48.21,1.16-.32,1.53-1.17S310.68,171.1,310.2,170.89Z"/><path class="cls-8" d="M296,176s.93-2.38,5.23-5l3.31.25Z"/><path class="cls-63" d="M310,170.85a1.37,1.37,0,0,0-1,.64l.12,0a.6.6,0,0,1-.48,1.11.58.58,0,0,1-.14-.09,1.69,1.69,0,0,0,.07,1.19c.45,0,1-.49,1.3-1.21A2,2,0,0,0,310,170.85Z"/><path class="cls-69" d="M309.44,172.3a.6.6,0,0,0-.31-.79l-.12,0a2.75,2.75,0,0,0-.34.57,2.91,2.91,0,0,0-.15.46.58.58,0,0,0,.14.09A.6.6,0,0,0,309.44,172.3Z"/><ellipse class="cls-63" cx="292.89" cy="181.89" rx="2.66" ry="1.5" transform="translate(10.04 379.04) rotate(-66.72)"/><ellipse class="cls-68" cx="293.56" cy="181.89" rx="2.66" ry="1.5" transform="translate(10.45 379.65) rotate(-66.72)"/><path class="cls-69" d="M294.22,180.35a.56.56,0,0,0-.23,0,2,2,0,0,1-.08,1.65c-.31.73-.85,1.21-1.3,1.21a.61.61,0,0,0,.29.27c.48.21,1.16-.32,1.53-1.17S294.7,180.56,294.22,180.35Z"/><path class="cls-63" d="M294,180.31a1.37,1.37,0,0,0-1,.64l.12,0a.6.6,0,0,1-.48,1.11.58.58,0,0,1-.14-.09,1.69,1.69,0,0,0,.07,1.19c.45,0,1-.49,1.3-1.21A2,2,0,0,0,294,180.31Z"/><path class="cls-69" d="M293.46,181.76a.6.6,0,0,0-.31-.79l-.12,0a2.75,2.75,0,0,0-.34.57,2.91,2.91,0,0,0-.15.46.58.58,0,0,0,.14.09A.6.6,0,0,0,293.46,181.76Z"/><polygon class="cls-8" points="286.16 172.87 292.61 176.88 295.05 174.5 288.51 170.56 286.16 172.87"/><ellipse class="cls-70" cx="287.7" cy="182.19" rx="0.59" ry="1.07"/><ellipse class="cls-70" cx="281.74" cy="178.93" rx="0.5" ry="0.91"/><polygon class="cls-71" points="289.77 171.32 289.95 175.23 290.61 175.63 290.34 171.66 289.77 171.32"/><polygon class="cls-56" points="296.77 162.29 303.09 158.61 306.07 165.1 299.74 168.77 296.77 162.29"/><polygon class="cls-60" points="286.37 157.31 292.7 153.63 303.09 158.61 296.77 162.29 286.37 157.31"/><polygon class="cls-47" points="288.8 164.67 289.26 163.75 299.74 168.77 296.77 162.29 286.37 157.31 284.72 160.5 288.8 164.67"/></g></svg>