<svg xmlns="http://www.w3.org/2000/svg" viewBox="0 0 476.47 476.47"><defs><style>.cls-1{fill:#103954;}.cls-2,.cls-3{fill:none;stroke:#f9f8ef;stroke-width:3px;}.cls-2{stroke-linejoin:round;}.cls-3{stroke-miterlimit:10;}</style></defs><title>urn2</title><g id="Layer_2" data-name="Layer 2"><g id="Layer_1-2" data-name="Layer 1"><circle class="cls-1" cx="238.23" cy="238.23" r="238.23"/><path class="cls-2" d="M240.19,139.22c41,0,49.81-5.09,49.81-5.09-3.22-3.22-11.25-4.29-11.25-4.29-20.35-11.25-38.56-10.45-38.56-10.45h-3.91s-18.21-.8-38.56,10.45c0,0-8,1.07-11.25,4.29,0,0,8.84,5.09,49.81,5.09Z"/><path class="cls-3" d="M286.9,141.8s-15.3,5.36-48.67,4.61c-33.37.75-48.67-4.61-48.67-4.61"/><path class="cls-2" d="M306.9,219.14c0-.86,0-1.67,0-2.44,0-2.34,0-4.75-.06-7.18-11.79,5-38.09,8.44-68.64,8.44s-56.84-3.46-68.63-8.44c0,2.43-.06,4.84-.06,7.18,0,.77,0,1.58,0,2.44,11.77,5,38.09,8.45,68.66,8.45S295.13,224.12,306.9,219.14Z"/><path class="cls-2" d="M186.47,134.13v3.44s2.83,1,3.09,1.11h0v3.16a11.2,11.2,0,0,1,5.85,5.91,9.63,9.63,0,0,1,0,7.45,8.17,8.17,0,0,1-3.5,3.07c-2.3,1-12.63,5.24-17,12.35-3.76,6.17-5.07,23-5.35,38.9,11.79,5,38.08,8.44,68.63,8.44s56.85-3.46,68.64-8.44c-.29-15.87-1.6-32.73-5.35-38.9-4.33-7.11-14.66-11.37-17-12.35a8.23,8.23,0,0,1-3.51-3.07,9.63,9.63,0,0,1,0-7.45,11.24,11.24,0,0,1,5.85-5.91v-3.16h0c.27-.08,3.1-1.11,3.1-1.11v-3.44"/><path class="cls-2" d="M238.23,227.59c-30.57,0-56.89-3.47-68.66-8.45.06,2.76.23,6,.48,9.47,12,4.88,38,8.26,68.18,8.26s56.19-3.38,68.19-8.26c.25-3.5.41-6.71.48-9.47C295.13,224.12,268.81,227.59,238.23,227.59Z"/><path class="cls-2" d="M170.05,228.61c1.45,20.38,5.72,50.89,9.38,63.39,4.34,14.8,9.25,34.51,18.93,54.52a6.66,6.66,0,0,0,3.25,3.16c5.09,2.29,18.74,7.41,39,7.41s31.35-5,35.44-7.34a6.57,6.57,0,0,0,2.66-2.86c9.76-20.14,13.94-40,18.3-54.89,3.66-12.5,7.94-43,9.39-63.39-12,4.88-38,8.26-68.19,8.26S182,233.49,170.05,228.61Z"/></g></g></svg>